<?xml version="1.0" encoding="UTF-8" standalone="no"?>
<!-- Created with Inkscape (http://www.inkscape.org/) -->

<svg
   xmlns:dc="http://purl.org/dc/elements/1.1/"
   xmlns:cc="http://creativecommons.org/ns#"
   xmlns:rdf="http://www.w3.org/1999/02/22-rdf-syntax-ns#"
   xmlns:svg="http://www.w3.org/2000/svg"
   xmlns="http://www.w3.org/2000/svg"
   xmlns:xlink="http://www.w3.org/1999/xlink"
   xmlns:sodipodi="http://sodipodi.sourceforge.net/DTD/sodipodi-0.dtd"
   xmlns:inkscape="http://www.inkscape.org/namespaces/inkscape"
   width="1024"
   height="1024"
   id="svg2"
   version="1.1"
   inkscape:version="0.48.2 r9819"
   sodipodi:docname="AppIcon.svg"
   inkscape:export-filename="/Users/tursics/Documents/GIT/ethnotier/build/art/AppIcon-1024.png"
   inkscape:export-xdpi="90"
   inkscape:export-ydpi="90">
  <defs
     id="defs4">
    <linearGradient
       id="linearGradient4064">
      <stop
         id="stop4066"
         offset="0"
         style="stop-color:#ff4875;stop-opacity:1;" />
      <stop
         id="stop4068"
         offset="1"
         style="stop-color:#a12d4a;stop-opacity:1;" />
    </linearGradient>
    <linearGradient
       id="linearGradient3902">
      <stop
         style="stop-color:#ffffff;stop-opacity:1;"
         offset="0"
         id="stop3904" />
      <stop
         style="stop-color:#fff9f9;stop-opacity:0.72868216;"
         offset="1"
         id="stop3906" />
    </linearGradient>
    <linearGradient
       id="linearGradient4110">
      <stop
         style="stop-color:#ec6284;stop-opacity:1;"
         offset="0"
         id="stop4112" />
      <stop
         id="stop4070"
         offset="0.5"
         style="stop-color:#c53559;stop-opacity:1;" />
      <stop
         style="stop-color:#9e092f;stop-opacity:1;"
         offset="1"
         id="stop4114" />
    </linearGradient>
    <inkscape:perspective
       sodipodi:type="inkscape:persp3d"
       inkscape:vp_x="0 : 512 : 1"
       inkscape:vp_y="0 : 1000 : 0"
       inkscape:vp_z="1024 : 512 : 1"
       inkscape:persp3d-origin="512 : 341.33333 : 1"
       id="perspective4094" />
    <linearGradient
       id="linearGradient4483">
      <stop
         style="stop-color:#056aff;stop-opacity:1;"
         offset="0"
         id="stop4485" />
      <stop
         style="stop-color:#ffffff;stop-opacity:0;"
         offset="1"
         id="stop4487" />
    </linearGradient>
    <linearGradient
       inkscape:collect="always"
       xlink:href="#linearGradient4110"
       id="linearGradient4116"
       x1="511.68015"
       y1="0"
       x2="511.68015"
       y2="1461.4401"
       gradientUnits="userSpaceOnUse"
       gradientTransform="scale(1,1.001095)" />
    <linearGradient
       inkscape:collect="always"
       xlink:href="#linearGradient3902"
       id="linearGradient3908"
       x1="509.1376"
       y1="513.90118"
       x2="467.15973"
       y2="1029.1136"
       gradientUnits="userSpaceOnUse"
       gradientTransform="matrix(1.2524295,0,0,1.2524296,359.67356,-137.83515)" />
    <clipPath
       id="clipPath11951"
       clipPathUnits="userSpaceOnUse">
      <path
         id="path11953"
         d="m 48.686,1488.27 141.732,0 0,-140.89 -141.732,0 0,140.89 z" />
    </clipPath>
    <clipPath
       id="clipPath11943"
       clipPathUnits="userSpaceOnUse">
      <path
         id="path11945"
         d="m 0,1536 2048,0 L 2048,0 0,0 0,1536 z" />
    </clipPath>
    <clipPath
       id="clipPath11887"
       clipPathUnits="userSpaceOnUse">
      <path
         id="path11889"
         d="m 37.548,1346.68 151.654,0 0,151.653 -151.654,0 0,-151.653 z" />
    </clipPath>
    <clipPath
       id="clipPath11849"
       clipPathUnits="userSpaceOnUse">
      <path
         id="path11851"
         d="m 118.674,1228.21 30.767,0 0,-72.51 -30.767,0 0,72.51 z" />
    </clipPath>
    <clipPath
       id="clipPath11761"
       clipPathUnits="userSpaceOnUse">
      <path
         id="path11763"
         d="m 61.8003,1265.87 38.0488,0 0,-103.11 -38.0488,0 0,103.11 z" />
    </clipPath>
    <clipPath
       id="clipPath11733"
       clipPathUnits="userSpaceOnUse">
      <path
         id="path11735"
         d="m 60.0376,1304.57 119.0554,0 0,-209.78 -119.0554,0 0,209.78 z" />
    </clipPath>
    <clipPath
       id="clipPath11725"
       clipPathUnits="userSpaceOnUse">
      <path
         id="path11727"
         d="m 0,1536 2048,0 L 2048,0 0,0 0,1536 z" />
    </clipPath>
    <clipPath
       id="clipPath11299"
       clipPathUnits="userSpaceOnUse">
      <path
         id="path11301"
         d="m 0,1536 2048,0 L 2048,0 0,0 0,1536 z" />
    </clipPath>
    <clipPath
       id="clipPath7483"
       clipPathUnits="userSpaceOnUse">
      <path
         id="path7485"
         d="m 0,1536 2048,0 L 2048,0 0,0 0,1536 z" />
    </clipPath>
    <clipPath
       id="clipPath7463"
       clipPathUnits="userSpaceOnUse">
      <path
         id="path7465"
         d="m 925.334,1463.92 313.186,0 0,-311.53 -313.186,0 0,311.53 z" />
    </clipPath>
    <clipPath
       id="clipPath7423"
       clipPathUnits="userSpaceOnUse">
      <path
         id="path7425"
         d="m 0,1536 2048,0 L 2048,0 0,0 0,1536 z" />
    </clipPath>
    <clipPath
       id="clipPath7407"
       clipPathUnits="userSpaceOnUse">
      <path
         id="path7409"
         d="m 414.101,1391.91 42.049,0 0,-69.16 -42.049,0 0,69.16 z" />
    </clipPath>
    <clipPath
       id="clipPath7391"
       clipPathUnits="userSpaceOnUse">
      <path
         id="path7393"
         d="m 362.812,1344.69 111.164,0 0,-119.41 -111.164,0 0,119.41 z" />
    </clipPath>
    <clipPath
       id="clipPath7367"
       clipPathUnits="userSpaceOnUse">
      <path
         id="path7369"
         d="m 1610.37,1351.76 49.6,0 0,-62.56 -49.6,0 0,62.56 z" />
    </clipPath>
    <clipPath
       id="clipPath7351"
       clipPathUnits="userSpaceOnUse">
      <path
         id="path7353"
         d="m 1559.35,1313.59 110.5,0 0,-122.02 -110.5,0 0,122.02 z" />
    </clipPath>
    <clipPath
       id="clipPath7335"
       clipPathUnits="userSpaceOnUse">
      <path
         id="path7337"
         d="m 0,1536 2048,0 L 2048,0 0,0 0,1536 z" />
    </clipPath>
    <clipPath
       id="clipPath7319"
       clipPathUnits="userSpaceOnUse">
      <path
         id="path7321"
         d="m 249.853,941.5 30.647,0 0,-34.395 -30.647,0 0,34.395 z" />
    </clipPath>
    <clipPath
       id="clipPath7299"
       clipPathUnits="userSpaceOnUse">
      <path
         id="path7301"
         d="m 188.853,941.5 30.647,0 0,-34.395 -30.647,0 0,34.395 z" />
    </clipPath>
    <clipPath
       id="clipPath7279"
       clipPathUnits="userSpaceOnUse">
      <path
         id="path7281"
         d="m 122.853,951.5 30.647,0 0,-34.395 -30.647,0 0,34.395 z" />
    </clipPath>
    <clipPath
       id="clipPath7259"
       clipPathUnits="userSpaceOnUse">
      <path
         id="path7261"
         d="m 67.7275,979.697 30.6475,0 0,-34.394 -30.6475,0 0,34.394 z" />
    </clipPath>
    <clipPath
       id="clipPath7239"
       clipPathUnits="userSpaceOnUse">
      <path
         id="path7241"
         d="m 52.8213,1104.77 30.6475,0 0,-34.4 -30.6475,0 0,34.4 z" />
    </clipPath>
    <clipPath
       id="clipPath7219"
       clipPathUnits="userSpaceOnUse">
      <path
         id="path7221"
         d="m 103.853,1075.7 30.647,0 0,-34.4 -30.647,0 0,34.4 z" />
    </clipPath>
    <clipPath
       id="clipPath7199"
       clipPathUnits="userSpaceOnUse">
      <path
         id="path7201"
         d="m 164.125,1058.5 30.647,0 0,-34.39 -30.647,0 0,34.39 z" />
    </clipPath>
    <clipPath
       id="clipPath7179"
       clipPathUnits="userSpaceOnUse">
      <path
         id="path7181"
         d="m 223.353,1039.5 30.647,0 0,-34.39 -30.647,0 0,34.39 z" />
    </clipPath>
    <clipPath
       id="clipPath7159"
       clipPathUnits="userSpaceOnUse">
      <path
         id="path7161"
         d="m 219.493,1184.98 30.647,0 0,-34.39 -30.647,0 0,34.39 z" />
    </clipPath>
    <clipPath
       id="clipPath7139"
       clipPathUnits="userSpaceOnUse">
      <path
         id="path7141"
         d="m 147.6,1193.5 30.647,0 0,-34.39 -30.647,0 0,34.39 z" />
    </clipPath>
    <clipPath
       id="clipPath7119"
       clipPathUnits="userSpaceOnUse">
      <path
         id="path7121"
         d="m 84.8525,1207.3 30.6475,0 0,-34.39 -30.6475,0 0,34.39 z" />
    </clipPath>
    <clipPath
       id="clipPath7099"
       clipPathUnits="userSpaceOnUse">
      <path
         id="path7101"
         d="m 79.3525,1332.47 30.6475,0 0,-34.39 -30.6475,0 0,34.39 z" />
    </clipPath>
    <clipPath
       id="clipPath7079"
       clipPathUnits="userSpaceOnUse">
      <path
         id="path7081"
         d="m 147.6,1359.5 30.647,0 0,-34.39 -30.647,0 0,34.39 z" />
    </clipPath>
    <clipPath
       id="clipPath7059"
       clipPathUnits="userSpaceOnUse">
      <path
         id="path7061"
         d="m 195.349,1385.5 30.647,0 0,-34.39 -30.647,0 0,34.39 z" />
    </clipPath>
    <clipPath
       id="clipPath7039"
       clipPathUnits="userSpaceOnUse">
      <path
         id="path7041"
         d="m 63.3525,1546.39 30.6475,0 0,-34.39 -30.6475,0 0,34.39 z" />
    </clipPath>
    <clipPath
       id="clipPath7019"
       clipPathUnits="userSpaceOnUse">
      <path
         id="path7021"
         d="m 122.353,1531 30.647,0 0,-34.39 -30.647,0 0,34.39 z" />
    </clipPath>
    <clipPath
       id="clipPath6999"
       clipPathUnits="userSpaceOnUse">
      <path
         id="path7001"
         d="m 186.853,1503.5 30.647,0 0,-34.39 -30.647,0 0,34.39 z" />
    </clipPath>
    <clipPath
       id="clipPath6959"
       clipPathUnits="userSpaceOnUse">
      <path
         id="path6961"
         d="m 1836.85,882 30.65,0 0,-34.395 -30.65,0 0,34.395 z" />
    </clipPath>
    <clipPath
       id="clipPath6939"
       clipPathUnits="userSpaceOnUse">
      <path
         id="path6941"
         d="m 1887.85,901.5 30.65,0 0,-34.395 -30.65,0 0,34.395 z" />
    </clipPath>
    <clipPath
       id="clipPath6919"
       clipPathUnits="userSpaceOnUse">
      <path
         id="path6921"
         d="m 1932.85,920.5 30.65,0 0,-34.395 -30.65,0 0,34.395 z" />
    </clipPath>
    <clipPath
       id="clipPath6899"
       clipPathUnits="userSpaceOnUse">
      <path
         id="path6901"
         d="m 1981.35,942.5 30.65,0 0,-34.395 -30.65,0 0,34.395 z" />
    </clipPath>
    <clipPath
       id="clipPath6879"
       clipPathUnits="userSpaceOnUse">
      <path
         id="path6881"
         d="m 2000.35,1142 30.65,0 0,-34.39 -30.65,0 0,34.39 z" />
    </clipPath>
    <clipPath
       id="clipPath6859"
       clipPathUnits="userSpaceOnUse">
      <path
         id="path6861"
         d="m 1962.35,1110 30.65,0 0,-34.39 -30.65,0 0,34.39 z" />
    </clipPath>
    <clipPath
       id="clipPath6839"
       clipPathUnits="userSpaceOnUse">
      <path
         id="path6841"
         d="m 1916.35,1076.89 30.65,0 0,-34.39 -30.65,0 0,34.39 z" />
    </clipPath>
    <clipPath
       id="clipPath6819"
       clipPathUnits="userSpaceOnUse">
      <path
         id="path6821"
         d="m 1868.85,1043 30.65,0 0,-34.39 -30.65,0 0,34.39 z" />
    </clipPath>
    <clipPath
       id="clipPath6799"
       clipPathUnits="userSpaceOnUse">
      <path
         id="path6801"
         d="m 1822.02,1008.75 30.64,0 0,-34.393 -30.64,0 0,34.393 z" />
    </clipPath>
    <clipPath
       id="clipPath6779"
       clipPathUnits="userSpaceOnUse">
      <path
         id="path6781"
         d="m 1822.02,1177 30.64,0 0,-34.39 -30.64,0 0,34.39 z" />
    </clipPath>
    <clipPath
       id="clipPath6759"
       clipPathUnits="userSpaceOnUse">
      <path
         id="path6761"
         d="m 1874.29,1206.5 30.64,0 0,-34.39 -30.64,0 0,34.39 z" />
    </clipPath>
    <clipPath
       id="clipPath6739"
       clipPathUnits="userSpaceOnUse">
      <path
         id="path6741"
         d="m 1927.75,1235 30.65,0 0,-34.39 -30.65,0 0,34.39 z" />
    </clipPath>
    <clipPath
       id="clipPath6719"
       clipPathUnits="userSpaceOnUse">
      <path
         id="path6721"
         d="m 1971.35,1266.5 30.65,0 0,-34.39 -30.65,0 0,34.39 z" />
    </clipPath>
    <clipPath
       id="clipPath6699"
       clipPathUnits="userSpaceOnUse">
      <path
         id="path6701"
         d="m 1962.35,1323.5 30.65,0 0,-34.39 -30.65,0 0,34.39 z" />
    </clipPath>
    <clipPath
       id="clipPath6679"
       clipPathUnits="userSpaceOnUse">
      <path
         id="path6681"
         d="m 1912.11,1323.5 30.65,0 0,-34.39 -30.65,0 0,34.39 z" />
    </clipPath>
    <clipPath
       id="clipPath6659"
       clipPathUnits="userSpaceOnUse">
      <path
         id="path6661"
         d="m 1855.65,1330.5 30.65,0 0,-34.39 -30.65,0 0,34.39 z" />
    </clipPath>
    <clipPath
       id="clipPath6639"
       clipPathUnits="userSpaceOnUse">
      <path
         id="path6641"
         d="m 1797.17,1339.78 30.65,0 0,-34.39 -30.65,0 0,34.39 z" />
    </clipPath>
    <clipPath
       id="clipPath6619"
       clipPathUnits="userSpaceOnUse">
      <path
         id="path6621"
         d="m 1746.35,1363 30.65,0 0,-34.39 -30.65,0 0,34.39 z" />
    </clipPath>
    <clipPath
       id="clipPath6599"
       clipPathUnits="userSpaceOnUse">
      <path
         id="path6601"
         d="m 1768.76,1411.38 30.65,0 0,-34.4 -30.65,0 0,34.4 z" />
    </clipPath>
    <clipPath
       id="clipPath6579"
       clipPathUnits="userSpaceOnUse">
      <path
         id="path6581"
         d="m 1815.85,1427.5 30.65,0 0,-34.39 -30.65,0 0,34.39 z" />
    </clipPath>
    <clipPath
       id="clipPath6559"
       clipPathUnits="userSpaceOnUse">
      <path
         id="path6561"
         d="m 1864.17,1450.46 30.65,0 0,-34.4 -30.65,0 0,34.4 z" />
    </clipPath>
    <clipPath
       id="clipPath6539"
       clipPathUnits="userSpaceOnUse">
      <path
         id="path6541"
         d="m 1912.11,1476.5 30.65,0 0,-34.39 -30.65,0 0,34.39 z" />
    </clipPath>
    <clipPath
       id="clipPath6519"
       clipPathUnits="userSpaceOnUse">
      <path
         id="path6521"
         d="m 1867.85,1550.5 30.65,0 0,-34.39 -30.65,0 0,34.39 z" />
    </clipPath>
    <clipPath
       id="clipPath6499"
       clipPathUnits="userSpaceOnUse">
      <path
         id="path6501"
         d="m 1815.85,1526.96 30.65,0 0,-34.4 -30.65,0 0,34.4 z" />
    </clipPath>
    <clipPath
       id="clipPath6479"
       clipPathUnits="userSpaceOnUse">
      <path
         id="path6481"
         d="m 1761.68,1506.2 30.64,0 0,-34.4 -30.64,0 0,34.4 z" />
    </clipPath>
    <clipPath
       id="clipPath6443"
       clipPathUnits="userSpaceOnUse">
      <path
         id="path6445"
         d="m 0,1536 2048,0 L 2048,0 0,0 0,1536 z" />
    </clipPath>
    <clipPath
       id="clipPath6279"
       clipPathUnits="userSpaceOnUse">
      <path
         id="path6281"
         d="m 1439.02,1258.03 25.91,0 0,-36.93 -25.91,0 0,36.93 z" />
    </clipPath>
    <clipPath
       id="clipPath6247"
       clipPathUnits="userSpaceOnUse">
      <path
         id="path6249"
         d="m 1277.88,1248.99 25.91,0 0,-36.93 -25.91,0 0,36.93 z" />
    </clipPath>
    <clipPath
       id="clipPath6215"
       clipPathUnits="userSpaceOnUse">
      <path
         id="path6217"
         d="m 919.184,1250.86 30.647,0 0,-34.39 -30.647,0 0,34.39 z" />
    </clipPath>
    <clipPath
       id="clipPath6183"
       clipPathUnits="userSpaceOnUse">
      <path
         id="path6185"
         d="m 1107.38,1247.01 30.65,0 0,-34.39 -30.65,0 0,34.39 z" />
    </clipPath>
    <clipPath
       id="clipPath6151"
       clipPathUnits="userSpaceOnUse">
      <path
         id="path6153"
         d="m 767.558,1245.81 30.647,0 0,-34.39 -30.647,0 0,34.39 z" />
    </clipPath>
    <clipPath
       id="clipPath6119"
       clipPathUnits="userSpaceOnUse">
      <path
         id="path6121"
         d="m 611.262,1266.5 30.647,0 0,-34.39 -30.647,0 0,34.39 z" />
    </clipPath>
    <clipPath
       id="clipPath6059"
       clipPathUnits="userSpaceOnUse">
      <path
         id="path6061"
         d="m 0,1536 2048,0 L 2048,0 0,0 0,1536 z" />
    </clipPath>
    <clipPath
       id="clipPath4479"
       clipPathUnits="userSpaceOnUse">
      <path
         id="path4481"
         d="m 0,1536 2048,0 L 2048,0 0,0 0,1536 z" />
    </clipPath>
    <clipPath
       id="clipPath4423"
       clipPathUnits="userSpaceOnUse">
      <path
         id="path4425"
         d="m 0,1536 2048,0 L 2048,0 0,0 0,1536 z" />
    </clipPath>
    <clipPath
       id="clipPath4399"
       clipPathUnits="userSpaceOnUse">
      <path
         id="path4401"
         d="m 0,1536 2048,0 L 2048,0 0,0 0,1536 z" />
    </clipPath>
    <clipPath
       id="clipPath3073"
       clipPathUnits="userSpaceOnUse">
      <path
         id="path3075"
         d="m 0,1536 2048,0 L 2048,0 0,0 0,1536 z" />
    </clipPath>
    <linearGradient
       inkscape:collect="always"
       xlink:href="#linearGradient3902"
       id="linearGradient26895"
       x1="824.42596"
       y1="471.84152"
       x2="961.06677"
       y2="471.84152"
       gradientUnits="userSpaceOnUse" />
    <linearGradient
       inkscape:collect="always"
       xlink:href="#linearGradient4483"
       id="linearGradient27001"
       gradientUnits="userSpaceOnUse"
       x1="876.82623"
       y1="573.72198"
       x2="878.00677"
       y2="470.97238" />
    <clipPath
       id="clipPath3271"
       clipPathUnits="userSpaceOnUse">
      <path
         id="path3273"
         d="M 0,600 800,600 800,0 0,0 0,600 z" />
    </clipPath>
    <linearGradient
       inkscape:collect="always"
       xlink:href="#linearGradient4064"
       id="linearGradient4062"
       gradientUnits="userSpaceOnUse"
       gradientTransform="matrix(1,0,0,1.001095,-1024,0)"
       x1="511.68015"
       y1="0"
       x2="511.68015"
       y2="1461.4401" />
  </defs>
  <sodipodi:namedview
     id="base"
     pagecolor="#ffffff"
     bordercolor="#666666"
     borderopacity="1.0"
     inkscape:pageopacity="0.0"
     inkscape:pageshadow="2"
     inkscape:zoom="0.6328125"
     inkscape:cx="512"
     inkscape:cy="512"
     inkscape:document-units="px"
     inkscape:current-layer="layer5"
     showgrid="false"
     showguides="true"
     inkscape:guide-bbox="true"
     fit-margin-top="0"
     fit-margin-left="0"
     fit-margin-right="0"
     fit-margin-bottom="0"
     inkscape:window-width="1600"
     inkscape:window-height="837"
     inkscape:window-x="-8"
     inkscape:window-y="-8"
     inkscape:window-maximized="1"
     inkscape:showpageshadow="false"
     borderlayer="true"
     showborder="false">
    <sodipodi:guide
       orientation="0,1"
       position="-10.429825,956.71547"
       id="guide3101" />
    <sodipodi:guide
       orientation="1,0"
       position="956.5625,59.8125"
       id="guide3103" />
    <sodipodi:guide
       orientation="0,1"
       position="1246.875,315.625"
       id="guide3105" />
    <sodipodi:guide
       orientation="1,0"
       position="67.351921,64.523494"
       id="guide3107" />
    <sodipodi:guide
       orientation="0,1"
       position="961.5,67.5"
       id="guide3109" />
    <sodipodi:guide
       orientation="1,0"
       position="319.08193,67.707547"
       id="guide3111" />
    <sodipodi:guide
       orientation="1,0"
       position="511.68014,67.707547"
       id="guide3113" />
    <sodipodi:guide
       orientation="1,0"
       position="706.1875,64.734375"
       id="guide3115" />
    <sodipodi:guide
       orientation="0,1"
       position="-21.213203,1024"
       id="guide3117" />
    <sodipodi:guide
       orientation="0,1"
       position="0,0"
       id="guide3119" />
    <sodipodi:guide
       orientation="1,0"
       position="0,1042.6289"
       id="guide3121" />
    <sodipodi:guide
       orientation="0,1"
       position="-6.8942911,705"
       id="guide3123" />
    <sodipodi:guide
       orientation="1,0"
       position="1024,1037.75"
       id="guide3125" />
    <sodipodi:guide
       orientation="0,1"
       position="-27.223611,512.65241"
       id="guide3127" />
    <inkscape:grid
       type="xygrid"
       id="grid4235"
       empspacing="5"
       visible="true"
       enabled="true"
       snapvisiblegridlinesonly="true" />
    <sodipodi:guide
       orientation="1,0"
       position="511.68014,430.8932"
       id="guide4003" />
  </sodipodi:namedview>
  <metadata
     id="metadata7">
    <rdf:RDF>
      <cc:Work
         rdf:about="">
        <dc:format>image/svg+xml</dc:format>
        <dc:type
           rdf:resource="http://purl.org/dc/dcmitype/StillImage" />
        <dc:title />
      </cc:Work>
    </rdf:RDF>
  </metadata>
  <g
     inkscape:groupmode="layer"
     id="layer5"
     inkscape:label="Background"
     style="display:inline"
     sodipodi:insensitive="true">
    <rect
       style="color:#000000;fill:url(#linearGradient4116);fill-opacity:1;fill-rule:nonzero;stroke:none;stroke-width:2;marker:none;visibility:visible;display:inline;overflow:visible;enable-background:accumulate"
       id="rect4108"
       width="1024"
       height="1024"
       x="0"
       y="1.5099033e-014" />
  </g>
  <g
     inkscape:groupmode="layer"
     id="layer3"
     inkscape:label="Layer"
     style="display:inline"
     sodipodi:insensitive="true">
    <g
       transform="matrix(5.8437896,0,0,-5.7863748,-1824.3796,2206.3587)"
       inkscape:label="EthnoTierTM"
       id="g3265"
       style="fill:#ffffff;fill-opacity:1;stroke:none">
      <g
         id="g3267"
         style="fill:#ffffff;fill-opacity:1;stroke:none">
        <g
           clip-path="url(#clipPath3271)"
           id="g3269"
           style="fill:#ffffff;fill-opacity:1;stroke:none">
          <g
             transform="translate(416.8398,329.6704)"
             id="g3275"
             style="fill:#ffffff;fill-opacity:1;stroke:none">
            <path
               id="path3277"
               style="fill:#ffffff;fill-opacity:1;fill-rule:nonzero;stroke:none"
               d="M 0,0 -13.236,-1.923 3.488,5.391 c 2.662,4.486 4.75,8.964 6.217,13.17 l -12.578,-4.589 14.67,12.547 c 0.883,5.263 0.461,9.619 -1.384,12.306 0,0 -0.267,1.22 -0.683,1.373 C 9.414,40.505 8.197,40.217 8.197,40.217 2.882,41.035 -4.85,36.381 -12.152,28.243 l -0.011,-14.439 -3.785,9.836 c -1.417,-1.862 -2.796,-3.849 -4.111,-5.946 C -28.17,4.783 -29.177,-9.86 -26.286,-17.157 -19.125,-16.698 -7.684,-10.924 0,0"
               inkscape:connector-curvature="0" />
          </g>
          <g
             transform="translate(452.4043,301.9463)"
             id="g3279"
             style="fill:#ffffff;fill-opacity:1;stroke:none">
            <path
               id="path3281"
               style="fill:#ffffff;fill-opacity:1;fill-rule:nonzero;stroke:none"
               d="m 0,0 c -1.322,-11.198 -6.99,-17.222 -9.008,-18.474 -2.234,5.007 -8.623,9.111 -11.529,11.254 0.275,3.451 9.573,18.107 16.775,18.928 0.653,0.074 1.323,0.091 1.757,0.019 C 1.332,11.166 0.596,5.048 0,0 m -20.616,-38.27 c -1.652,-2.467 -5.627,1.089 -11.218,2.332 -5.604,1.248 -9.002,-0.448 -10.57,-2.332 0,2.577 5.652,6.665 11.394,6.665 5.74,0 11.826,-4.525 10.394,-6.665 M -47.21,-69.28 c -2.389,-3.166 -2.626,-5.166 -5.194,-5.166 -2.569,0 -2.806,2 -5.195,5.166 -1.718,2.278 2.326,5.166 5.195,5.166 2.869,0 6.913,-2.888 5.194,-5.166 m -25.765,33.342 c -5.59,-1.243 -9.566,-4.799 -11.217,-2.332 -1.433,2.14 4.653,6.665 10.394,6.665 5.741,0 11.394,-4.088 11.394,-6.665 -1.569,1.884 -4.967,3.58 -10.571,2.332 m -23.218,17.464 c -2.017,1.252 -7.686,7.276 -9.008,18.474 -0.596,5.048 -1.333,11.166 2.005,11.727 0.434,0.072 1.104,0.055 1.756,-0.019 7.203,-0.821 16.5,-15.477 16.775,-18.928 -2.906,-2.143 -9.293,-6.247 -11.528,-11.254 M 3.775,25.883 c -0.683,0.059 -1.737,0.003 -2.737,-0.246 -6.972,-1.74 -20.01,-12.136 -23.667,-15.333 -3.065,-2.68 -9.389,-7.917 -9.617,-11.331 -6.172,2.171 -13.158,3.331 -20.158,3.331 -7.284,0 -14.183,-1.16 -20.354,-3.331 -0.229,3.414 -6.748,8.651 -9.813,11.331 -3.658,3.197 -16.695,13.593 -23.667,15.333 -1,0.249 -2.052,0.305 -2.736,0.246 -5.264,-0.454 -1.459,-6.82 -1.944,-20.465 -0.457,-12.878 7.522,-22.734 8.647,-24.413 2.2,-3.284 3.937,-0.507 2.454,-13.829 l 0.017,0.018 c -0.101,-1.111 -0.167,-2.237 -0.167,-3.39 0,-10.627 1.313,-21.75 18.875,-28 15.866,-5.647 14.313,-21.75 28.688,-21.75 14,0 12.625,16.103 28.491,21.75 17.562,6.25 18.777,17.373 18.777,28 0,1.153 -0.115,2.279 -0.216,3.39 l -0.007,-0.018 c -1.483,13.322 0.241,10.545 2.441,13.829 1.125,1.679 9.098,11.535 8.641,24.413 -0.485,13.645 3.316,20.011 -1.948,20.465"
               inkscape:connector-curvature="0" />
          </g>
        </g>
      </g>
    </g>
  </g>
  <g
     inkscape:label="BORDER"
     inkscape:groupmode="layer"
     id="layer1"
     transform="translate(50.25,211.52169)"
     style="display:none"
     sodipodi:insensitive="true">
    <path
       inkscape:connector-curvature="0"
       d="m 301.95446,-211.52169 319.59108,0 c 101.4156,0 152.12339,0 206.7084,17.25959 59.59748,21.69173 106.54481,68.63899 128.23654,128.236542 C 973.75,-11.44076 973.75,39.267072 973.75,140.68273 l 0,319.59116 c 0,101.41566 0,152.12349 -17.25952,206.70829 -21.69173,59.59758 -68.63906,106.54477 -128.23654,128.23654 -54.58501,17.25959 -105.2928,17.25959 -206.7084,17.25959 l -319.59108,0 c -101.4156,0 -152.12339,0 -206.708396,-17.25959 C 35.648581,773.52695 -11.298747,726.57976 -32.99048,666.98218 -50.25,612.39738 -50.25,561.68955 -50.25,460.27389 l 0,-319.59116 c 0,-101.415658 0,-152.12349 17.25952,-206.708254 21.691733,-59.597546 68.639061,-106.544846 128.236544,-128.236576 54.585006,-17.25959 105.292796,-17.25959 206.708396,-17.25959 l 0,0"
       id="path5"
       style="fill:none;stroke:#000000;stroke-opacity:1" />
  </g>
  <g
     inkscape:groupmode="layer"
     id="layer6"
     inkscape:label="MASK"
     style="display:inline"
     sodipodi:insensitive="true">
    <path
       style="color:#000000;fill:#ffffff;fill-opacity:1;fill-rule:nonzero;stroke:none;stroke-width:2;marker:none;visibility:visible;display:inline;overflow:visible;enable-background:accumulate"
       d="m -0.03515625,708.40625 c 0.05564213,38.75762 0.61632351,71.02215 3.48917125,100.18549 0.8757813,8.89038 2.0231286,17.50673 3.364698,25.91301 2.7291509,17.10087 6.251639,30.63186 10.624705,44.6288 0.983104,3.14664 2.343873,6.00913 3.546782,8.89844 4.954414,11.90016 10.441772,22.62502 16.75229,32.23106 7.482354,11.38984 16.590926,23.44234 26.690428,33.79613 11.282296,11.56636 22.163363,20.60638 34.238258,28.7856 7.753914,5.2523 15.167714,9.80978 23.655414,13.91931 3.34329,1.61873 6.78353,3.25751 10.45545,4.87471 6.01057,2.6472 12.64725,5.2405 20.38236,7.4312 16.33865,4.6274 37.83594,9.5058 66.67436,11.7859 26.04947,2.0596 58.07248,3.2184 99.20801,3.1754 l -319.08192625,0 z"
       id="path4146"
       inkscape:connector-curvature="0"
       sodipodi:nodetypes="csssssssssssccc" />
    <path
       style="color:#000000;fill:#ffffff;fill-opacity:1;fill-rule:nonzero;stroke:none;stroke-width:2;marker:none;visibility:visible;display:inline;overflow:visible;enable-background:accumulate"
       d="m 1024,708.375 c -0.028,33.52476 -0.3641,57.51886 -2.1872,86.13032 -2.1429,33.63123 -7.6767,62.03085 -16.1313,85.82727 -5.1582,14.5187 -11.40374,27.32387 -18.62968,38.55822 -10.39312,16.15845 -22.65083,31.16786 -36.89519,44.46448 -6.86448,6.40775 -13.96935,11.81612 -21.91877,17.50161 -10.37402,7.41958 -20.2254,13.06198 -32.1818,18.6383 -10.69022,4.9858 -23.165,9.4996 -39.90567,13.451 -11.58454,2.7344 -25.21186,5.3376 -41.70422,7.0737 -27.23282,2.8667 -62.17789,3.4121 -108.25867,3.9801 L 1024,1024 z"
       id="path4146-5"
       inkscape:connector-curvature="0"
       sodipodi:nodetypes="cssssssssccc" />
    <path
       style="color:#000000;fill:#ffffff;fill-opacity:1;fill-rule:nonzero;stroke:none;stroke-width:2;marker:none;visibility:visible;display:inline;overflow:visible;enable-background:accumulate"
       d="m 1023.9571,318.26274 c 0.1837,-39.14081 -0.2997,-73.55855 -3.476,-103.94061 -1.4113,-13.49969 -3.8539,-26.31006 -5.9548,-38.18792 -3.6187,-20.45841 -10.1174,-38.44655 -17.2973,-52.70888 -2.12747,-4.22606 -3.90726,-7.55456 -5.77779,-10.81658 -1.49793,-2.61224 -3.05404,-5.18185 -4.89348,-8.13563 -1.96035,-3.14791 -3.87346,-6.195884 -5.993,-9.197124 C 974.88453,87.232938 968.40279,79.35023 961.65509,72.082687 951.58996,61.242143 940.4011,51.100793 927.77306,42.698049 909.73264,30.693887 894.47219,21.390417 866.08729,13.614807 853.18652,10.080839 837.40303,6.7460486 817.42751,4.3881848 790.09127,1.1614792 754.65731,0.08073128 706.1875,0 L 1024,0 z"
       id="path4146-5-3"
       inkscape:connector-curvature="0"
       sodipodi:nodetypes="cssssssssssccc" />
    <path
       style="color:#000000;fill:#ffffff;fill-opacity:1;fill-rule:nonzero;stroke:none;stroke-width:2;marker:none;visibility:visible;display:inline;overflow:visible;enable-background:accumulate"
       d="M 0,318.48 C 0.04438432,264.21497 1.9515494,215.42652 8.7981727,178.4577 14.754939,146.29372 24.640519,123.97857 37.889606,103.37989 53.29125,79.434582 73.01483,58.195063 97.250401,42.030991 111.80438,32.324119 124.48551,25.310001 143.39137,18.055461 153.25339,14.271217 164.74156,11.469151 178.08885,8.8727346 208.3231,2.9913388 250.69975,-0.29260813 319.08193,0 L 0,0 z"
       id="path4146-5-3-7"
       inkscape:connector-curvature="0"
       sodipodi:nodetypes="csssssccc" />
  </g>
  <g
     inkscape:groupmode="layer"
     id="layer2"
     inkscape:label="GUIDES"
     style="display:none"
     transform="translate(0,-2.2054443)"
     sodipodi:insensitive="true">
    <path
       style="color:#000000;fill:none;stroke:#000000;stroke-width:2;stroke-linecap:butt;stroke-linejoin:miter;stroke-miterlimit:4;stroke-opacity:1;stroke-dasharray:none;stroke-dashoffset:0;marker:none;visibility:visible;display:inline;overflow:visible;enable-background:accumulate"
       d="m 0.99801512,321.03518 0,386.27669"
       id="path4024"
       inkscape:connector-curvature="0" />
    <path
       sodipodi:type="arc"
       style="color:#000000;fill:none;stroke:#000000;stroke-width:1.00571477;stroke-linecap:butt;stroke-linejoin:miter;stroke-miterlimit:4;stroke-opacity:1;stroke-dasharray:none;stroke-dashoffset:0;marker:none;visibility:visible;display:inline;overflow:visible;enable-background:accumulate"
       id="path3129"
       sodipodi:cx="462.32144"
       sodipodi:cy="298.86218"
       sodipodi:rx="138"
       sodipodi:ry="138"
       d="m 600.32144,298.86218 a 138,138 0 1 1 -276,0 138,138 0 1 1 276,0 z"
       transform="matrix(1.988799,0,0,1.988471,-407.91018,-80.585593)" />
    <path
       sodipodi:type="arc"
       style="color:#000000;fill:none;stroke:#000000;stroke-width:0.62086099;stroke-linecap:butt;stroke-linejoin:miter;stroke-miterlimit:4;stroke-opacity:1;stroke-dasharray:none;stroke-dashoffset:0;marker:none;visibility:visible;display:inline;overflow:visible;enable-background:accumulate"
       id="path3129-9"
       sodipodi:cx="462.32144"
       sodipodi:cy="298.86218"
       sodipodi:rx="138"
       sodipodi:ry="138"
       d="m 600.32144,298.86218 a 138,138 0 1 1 -276,0 138,138 0 1 1 276,0 z"
       transform="matrix(3.2215081,0,0,3.2211587,-977.38931,-448.55899)" />
    <path
       style="color:#000000;fill:none;stroke:#000000;stroke-width:2;stroke-linecap:butt;stroke-linejoin:miter;stroke-miterlimit:4;stroke-opacity:1;stroke-dasharray:none;stroke-dashoffset:0;marker:none;visibility:visible;display:inline;overflow:visible;enable-background:accumulate"
       d="M 67.351921,69.489974 956.5625,958.70544"
       id="path4011"
       inkscape:connector-curvature="0"
       sodipodi:nodetypes="cc" />
    <path
       style="color:#000000;fill:none;stroke:#000000;stroke-width:2;stroke-linecap:butt;stroke-linejoin:miter;stroke-miterlimit:4;stroke-opacity:1;stroke-dasharray:none;stroke-dashoffset:0;marker:none;visibility:visible;display:inline;overflow:visible;enable-background:accumulate"
       d="m 0.99801467,707.31189 1022.00298533,0"
       id="path4028"
       inkscape:connector-curvature="0" />
    <path
       style="color:#000000;fill:none;stroke:#000000;stroke-width:2;stroke-linecap:butt;stroke-linejoin:miter;stroke-miterlimit:4;stroke-opacity:1;stroke-dasharray:none;stroke-dashoffset:0;marker:none;visibility:visible;display:inline;overflow:visible;enable-background:accumulate"
       d="m 0.99801467,513.69318 1022.00298533,0"
       id="path4030"
       inkscape:connector-curvature="0" />
    <path
       style="color:#000000;fill:none;stroke:#000000;stroke-width:2;stroke-linecap:butt;stroke-linejoin:miter;stroke-miterlimit:4;stroke-opacity:1;stroke-dasharray:none;stroke-dashoffset:0;marker:none;visibility:visible;display:inline;overflow:visible;enable-background:accumulate"
       d="m 0.99801467,321.0352 1022.00298533,0"
       id="path4032"
       inkscape:connector-curvature="0" />
    <path
       style="color:#000000;fill:none;stroke:#000000;stroke-width:2;stroke-linecap:butt;stroke-linejoin:miter;stroke-miterlimit:4;stroke-opacity:1;stroke-dasharray:none;stroke-dashoffset:0;marker:none;visibility:visible;display:inline;overflow:visible;enable-background:accumulate"
       d="m 319.08193,1026.2054 0,-1023.9999557"
       id="path4034"
       inkscape:connector-curvature="0"
       sodipodi:nodetypes="cc" />
    <path
       style="color:#000000;fill:none;stroke:#000000;stroke-width:2;stroke-linecap:butt;stroke-linejoin:miter;stroke-miterlimit:4;stroke-opacity:1;stroke-dasharray:none;stroke-dashoffset:0;marker:none;visibility:visible;display:inline;overflow:visible;enable-background:accumulate"
       d="m 511.68014,2.2054443 0,1023.9999557"
       id="path4036"
       inkscape:connector-curvature="0"
       sodipodi:nodetypes="cc" />
    <path
       style="color:#000000;fill:none;stroke:#000000;stroke-width:2;stroke-linecap:butt;stroke-linejoin:miter;stroke-miterlimit:4;stroke-opacity:1;stroke-dasharray:none;stroke-dashoffset:0;marker:none;visibility:visible;display:inline;overflow:visible;enable-background:accumulate"
       d="m 706.1875,1026.2054 0,-1023.9999557"
       id="path4038"
       inkscape:connector-curvature="0"
       sodipodi:nodetypes="cc" />
    <path
       style="color:#000000;fill:none;stroke:#000000;stroke-width:2;stroke-linecap:butt;stroke-linejoin:miter;stroke-miterlimit:4;stroke-opacity:1;stroke-dasharray:none;stroke-dashoffset:0;marker:none;visibility:visible;display:inline;overflow:visible;enable-background:accumulate"
       d="M 67.351921,958.70544 956.5625,69.489974"
       id="path4001"
       inkscape:connector-curvature="0"
       sodipodi:nodetypes="cc" />
    <path
       style="color:#000000;fill:none;stroke:#000000;stroke-width:2;stroke-linecap:butt;stroke-linejoin:miter;stroke-miterlimit:4;stroke-opacity:1;stroke-dasharray:none;stroke-dashoffset:0;marker:none;visibility:visible;display:inline;overflow:visible;enable-background:accumulate"
       d="m 956.5625,69.489974 0,889.215466"
       id="path4003"
       inkscape:connector-curvature="0"
       sodipodi:nodetypes="cc" />
    <path
       style="color:#000000;fill:none;stroke:#000000;stroke-width:2;stroke-linecap:butt;stroke-linejoin:miter;stroke-miterlimit:4;stroke-opacity:1;stroke-dasharray:none;stroke-dashoffset:0;marker:none;visibility:visible;display:inline;overflow:visible;enable-background:accumulate"
       d="m 67.351921,69.489974 889.210579,0"
       id="path4009"
       inkscape:connector-curvature="0"
       sodipodi:nodetypes="cc" />
    <path
       style="color:#000000;fill:none;stroke:#000000;stroke-width:2;stroke-linecap:butt;stroke-linejoin:miter;stroke-miterlimit:4;stroke-opacity:1;stroke-dasharray:none;stroke-dashoffset:0;marker:none;visibility:visible;display:inline;overflow:visible;enable-background:accumulate"
       d="m 67.351921,958.70544 0,-889.215466"
       id="path4007"
       inkscape:connector-curvature="0"
       sodipodi:nodetypes="cc" />
    <path
       style="color:#000000;fill:none;stroke:#000000;stroke-width:2;stroke-linecap:butt;stroke-linejoin:miter;stroke-miterlimit:4;stroke-opacity:1;stroke-dasharray:none;stroke-dashoffset:0;marker:none;visibility:visible;display:inline;overflow:visible;enable-background:accumulate"
       d="m 956.5625,958.70544 -889.210579,-3e-5"
       id="path4005"
       inkscape:connector-curvature="0"
       sodipodi:nodetypes="cc" />
    <path
       sodipodi:type="arc"
       style="color:#000000;fill:none;stroke:#000000;stroke-width:1.42908275;stroke-linecap:butt;stroke-linejoin:miter;stroke-miterlimit:4;stroke-opacity:1;stroke-dasharray:none;stroke-dashoffset:0;marker:none;visibility:visible;display:inline;overflow:visible;enable-background:accumulate"
       id="path3129-7"
       sodipodi:cx="462.32144"
       sodipodi:cy="298.86218"
       sodipodi:rx="138"
       sodipodi:ry="138"
       d="m 600.32144,298.86218 a 138,138 0 1 1 -276,0 138,138 0 1 1 276,0 z"
       transform="matrix(1.4025564,0,0,1.3964479,-135.79717,96.569794)" />
    <g
       id="g7379"
       transform="matrix(1.25,0,0,-1.25,1090.888,398.55303)" />
  </g>
</svg>
