<?xml version="1.0" encoding="UTF-8" standalone="no"?>
<!-- Created with Inkscape (http://www.inkscape.org/) -->

<svg
   xmlns:dc="http://purl.org/dc/elements/1.1/"
   xmlns:cc="http://creativecommons.org/ns#"
   xmlns:rdf="http://www.w3.org/1999/02/22-rdf-syntax-ns#"
   xmlns:svg="http://www.w3.org/2000/svg"
   xmlns="http://www.w3.org/2000/svg"
   xmlns:sodipodi="http://sodipodi.sourceforge.net/DTD/sodipodi-0.dtd"
   xmlns:inkscape="http://www.inkscape.org/namespaces/inkscape"
   id="svg2"
   version="1.1"
   inkscape:version="0.48.2 r9819"
   width="1195"
   height="750"
   xml:space="preserve"
   sodipodi:docname="globe_band.ai"><metadata
     id="metadata8"><rdf:RDF><cc:Work
         rdf:about=""><dc:format>image/svg+xml</dc:format><dc:type
           rdf:resource="http://purl.org/dc/dcmitype/StillImage" /><dc:title></dc:title></cc:Work></rdf:RDF></metadata><defs
     id="defs6"><clipPath
       clipPathUnits="userSpaceOnUse"
       id="clipPath16"><path
         d="M 0,600 956,600 956,0 0,0 0,600 z"
         id="path18" /></clipPath><clipPath
       clipPathUnits="userSpaceOnUse"
       id="clipPath384"><path
         d="m 71.814,472.923 371.037,0 0,-346 -371.037,0 0,346 z"
         id="path386" /></clipPath><clipPath
       clipPathUnits="userSpaceOnUse"
       id="clipPath400"><path
         d="m 128.667,471.923 313.184,0 0,-311.533 -313.184,0 0,311.533 z"
         id="path402" /></clipPath></defs><sodipodi:namedview
     pagecolor="#ffffff"
     bordercolor="#666666"
     borderopacity="1"
     objecttolerance="10"
     gridtolerance="10"
     guidetolerance="10"
     inkscape:pageopacity="0"
     inkscape:pageshadow="2"
     inkscape:window-width="1600"
     inkscape:window-height="837"
     id="namedview4"
     showgrid="false"
     inkscape:zoom="1.2050209"
     inkscape:cx="597.5"
     inkscape:cy="370.64936"
     inkscape:window-x="-8"
     inkscape:window-y="-8"
     inkscape:window-maximized="1"
     inkscape:current-layer="g10" /><g
     id="g10"
     inkscape:groupmode="layer"
     inkscape:label="globe_band"
     transform="matrix(1.25,0,0,-1.25,0,750)"><g
       id="g12"><g
         id="g14"
         clip-path="url(#clipPath16)"><g
           id="g20"
           transform="translate(441.8511,299.9229)"><path
             d="m 0,0 c 0,-99.411 -82.611,-172 -184.519,-172 -101.907,0 -184.518,72.589 -184.518,172 0,99.411 82.611,172 184.518,172 C -82.611,172 0,99.411 0,0"
             style="fill:#7e15ff;fill-opacity:1;fill-rule:nonzero;stroke:none"
             id="path22" /></g><g
           id="g24"
           transform="translate(-59.2603,234.0449)"><path
             d="m 0,0 c -0.341,0.17 -1.53,0.34 -1.871,0.51 -0.68,-1.87 1.7,-3.739 2.04,-5.44 0.341,-1.53 0.51,-3.57 0.681,-4.929 0.17,-3.402 -3.061,-9.351 2.889,-6.971 2.21,0.851 3.74,1.019 6.46,1.19 2.89,0.17 3.23,2.21 5.78,2.89 0.85,0.34 1.871,-0.17 2.72,0 1.36,0.34 1.87,1.189 3.571,1.189 3.23,0 4.08,-2.21 5.949,-3.909 3.06,-3.059 1.02,1.19 3.57,1.531 3.231,0.509 -0.68,-5.442 -0.68,-5.611 0.85,0 2.89,0.85 3.571,0.169 0.849,-0.679 -0.171,-2.55 0.849,-3.569 1.7,-1.699 4.08,0.17 5.95,0 1.02,-0.17 1.701,-1.19 2.89,-1.19 1.021,0 2.38,0.85 3.401,1.19 3.059,1.019 2.549,1.36 3.399,4.421 0.851,2.55 3.4,3.399 4.421,5.949 0.51,1.7 0.169,3.74 0.679,5.439 0.85,3.231 4.59,6.461 2.21,9.351 -0.509,0.51 -1.7,0.34 -2.379,1.359 -0.17,0.511 0.169,1.191 0,1.701 -0.341,1.53 0,3.57 -2.381,2.55 -0.34,0.85 -0.34,1.869 -0.679,2.72 -0.171,0.51 -0.171,1.36 -0.511,1.87 -0.341,0.51 -1.36,0.17 -1.7,0.51 -0.85,1.359 -1.019,3.57 -1.19,5.27 -0.169,1.02 -0.34,2.55 -0.85,3.571 -0.34,0.51 -1.359,0.169 -1.53,0.849 -0.339,0.68 0,1.36 -0.17,1.869 -0.51,1.191 0,1.872 -1.36,2.381 -2.21,1.19 -2.04,-0.68 -2.379,-2.04 -0.51,-1.7 -0.341,-3.23 -0.51,-4.93 -0.341,-3.23 -1.021,-3.74 -3.402,-2.72 0.341,-0.17 -1.019,0.85 -1.019,0.85 -0.34,0.17 -1.19,-0.17 -1.53,0.17 -0.51,0.169 -2.209,2.04 -2.209,2.55 0,0.68 1.699,0.34 2.04,1.36 0.34,1.02 -1.531,1.53 -0.171,2.889 -1.191,1.021 -2.04,0.341 -3.4,0.681 -1.19,0.34 -2.21,1.53 -3.4,1.53 0,0 -3.061,-1.02 -2.55,-0.68 -0.511,-0.34 -1.02,0.509 -1.53,-0.68 -0.51,-0.851 1.019,-1.19 1.019,-2.04 C 26.52,22.949 25.329,20.399 24.31,20.23 22.779,20.06 22.439,22.78 20.739,22.1 19.89,21.93 20.059,20.74 19.549,20.23 19.38,20.06 18.019,19.38 17.85,19.21 16.999,18.359 16.659,16.66 15.129,16.66 13.77,20.57 13.26,13.77 13.089,13.26 12.069,11.729 8.67,11.05 6.97,10.54 5.1,10.03 3.569,10.199 2.04,8.84 0.85,7.82 -1.19,5.27 -0.341,3.74 L 0,0 z"
             style="fill:#26c64f;fill-opacity:1;fill-rule:nonzero;stroke:none"
             id="path26" /></g><g
           id="g28"
           transform="translate(-23.731,276.0352)"><path
             d="M 0,0 C -3.23,-0.85 -1.359,3.74 -4.59,4.08 -5.95,4.25 -7.14,4.25 -6.801,2.72 -6.63,2.04 -5.271,2.55 -5.1,2.21 -4.93,1.7 -4.761,0.34 -4.59,0.17 c 0.85,-1.87 -0.171,-0.851 1.7,-1.87 1.36,-0.68 2.209,-0.851 3.571,-1.87 2.718,-2.21 4.59,-3.231 3.228,-6.801 1.53,-0.339 3.741,-1.359 5.442,-0.85 2.04,0.681 2.549,3.401 5.439,2.04 1.359,-0.509 4.76,-6.12 6.12,-3.059 1.36,2.889 -4.93,2.04 -3.57,4.761 0.849,1.699 4.42,0.509 5.78,2.039 3.23,3.74 -2.381,1.7 -3.74,1.36 -3.4,-1.191 -2.721,0.34 -5.271,2.04 C 12.75,-1.021 10.54,-0.34 8.84,0.51 7.14,1.529 3.74,4.419 2.38,1.7 L 0,0 z"
             style="fill:#26c64f;fill-opacity:1;fill-rule:nonzero;stroke:none"
             id="path30" /></g><g
           id="g32"
           transform="translate(7.3794,428.6953)"><path
             d="M 0,0 C -1.021,0.17 -4.08,0 -3.061,-1.7 -2.38,-2.89 2.55,-2.89 0.68,-0.34 L 0,0 z"
             style="fill:#f2f2f2;fill-opacity:1;fill-rule:nonzero;stroke:none"
             id="path34" /></g><g
           id="g36"
           transform="translate(-145.1108,361.8848)"><path
             d="M 0,0 C -1.87,2.55 0.85,7.31 3.909,6.63 L 4.25,5.27 C 3.57,4.42 3.06,-4.25 0,0 m -7.99,-12.07 c -1.02,-0.17 -1.53,-0.85 -2.55,-0.34 -3.231,1.19 -0.51,4.42 -1.53,6.8 -1.53,3.91 -7.821,8.67 -1.87,12.24 1.7,1.02 4.93,1.87 5.27,-1.02 0.17,-1.7 -0.85,-1.19 -1.36,-1.87 -0.51,-0.68 -1.53,-1.36 -2.21,-2.21 L -11.391,0 c 0.171,-0.34 0.851,-1.53 0.851,-1.7 1.189,-1.02 2.38,0.17 3.399,-0.85 1.361,-1.53 -0.17,-1.53 -0.509,-2.21 0,-0.34 -0.85,0.17 -1.02,-0.68 -0.171,-0.68 0.68,-1.02 0.85,-1.53 0.341,-1.02 1.53,-2.04 1.53,-3.23 0.17,-2.72 -0.34,-1.53 -1.7,-1.87 m -17.85,8.16 c -1.19,-0.85 -4.421,-0.85 -5.78,-0.34 -2.38,0.68 -3.06,1.53 -5.78,1.19 -0.68,-0.17 -2.209,-0.17 -2.89,-0.51 -1.19,-0.51 -1.021,-0.68 -1.7,-1.36 -0.17,-0.17 -0.511,-1.19 -0.68,-1.36 -0.341,-0.34 -1.36,0 -1.7,-0.51 -0.681,-1.02 -0.34,-1.19 -0.681,-2.55 -0.51,-2.38 -0.34,-3.23 -3.399,-3.23 -4.761,-0.17 -4.761,3.91 -3.571,7.31 1.871,-1.87 2.721,1.02 4.42,1.19 1.531,0 2.721,-2.38 4.59,0 1.531,1.87 -0.678,2.72 -0.169,4.93 0.34,1.36 2.38,3.4 3.06,4.42 0.849,1.87 0.849,3.06 2.38,0.51 0.849,-1.36 0.51,-4.42 3.06,-3.06 2.379,1.36 -1.19,2.89 0.17,4.59 0.68,0.85 4.08,0.51 4.93,0.34 0.17,-1.7 -1.87,-1.7 -2.721,-2.89 l 2.891,-2.72 c 0.17,0 0.17,-0.17 0.34,-0.34 1.7,-1.36 6.12,-3.23 3.23,-5.61 m -29.24,35.53 c -1.7,-1.02 0.51,-5.27 -0.85,-6.46 -1.19,-1.19 -2.549,0.17 -3.4,0 -1.19,-0.17 -2.04,-1.19 -3.23,-1.53 -0.85,-0.34 -2.38,-0.51 -3.23,-0.34 -1.359,0.34 -1.021,2.72 -3.231,1.02 0,2.72 -2.04,8.5 -0.168,10.71 0.509,-1.02 0.168,-2.21 0.509,-3.4 0.51,-1.19 1.7,-1.701 2.04,-2.55 0.85,-2.38 -0.85,-4.25 2.89,-2.89 2.89,0.85 2.89,2.21 3.23,4.759 0.169,1.191 -0.17,2.04 0.51,3.061 0.85,1.36 1.36,0.85 2.209,1.7 1.362,1.36 1.53,0 -0.169,1.7 -0.85,0.85 -1.53,0.17 -2.21,1.53 -1.02,2.38 1.53,4.759 2.72,6.46 1.021,1.87 1.189,4.76 3.399,5.44 3.231,1.02 3.911,-1.7 2.551,-4.08 -1.19,-2.21 -3.57,-2.72 -3.4,-5.78 0.17,-1.02 1.02,-3.06 1.699,-3.74 1.871,-1.87 0.511,-0.34 2.211,0 1.359,0.17 3.909,1.02 5.1,0.34 3.399,-1.7 -1.36,-2.04 -0.85,-4.25 l -2.04,0.34 c 0.51,2.72 -2.891,1.87 -4.08,1.02 0.511,-0.68 2.38,-2.89 1.189,-4.08 -1.53,-1.53 -2.04,1.7 -3.399,1.02 m -2.243,-37.4 -2.007,1.02 c -0.511,2.21 -2.72,2.55 -3.91,4.08 -1.36,1.36 -1.7,3.4 -2.721,4.93 2.551,1.7 4.251,-2.38 5.781,-3.91 1.869,-2.04 3.707,-3.06 2.857,-6.12 m 217.802,55.93 c 3.06,-0.339 5.441,-2.04 8.161,-3.4 0.34,1.7 0.68,3.4 1.36,5.101 -2.72,2.04 -5.44,1.359 -7.48,2.379 -2.38,1.02 -4.081,3.4 -6.8,4.761 -4.76,2.719 -10.54,1.699 -15.3,4.419 0,-1.359 -0.341,-3.06 0.34,-4.419 -4.42,-1.361 -1.7,3.06 -3.4,3.399 -3.06,1.36 -3.4,-1.359 -6.8,-1.7 -4.081,-0.34 -3.4,2.04 -5.1,3.06 -2.38,0.68 -4.08,0.68 -6.46,1.021 -4.421,0.34 -6.8,3.06 -10.541,3.739 -2.039,0.68 -3.739,0 -5.779,0.341 -2.38,0.339 -4.079,1.699 -6.46,1.02 0.341,-0.681 0.679,-2.721 1.36,-3.401 -2.04,-1.02 -7.48,0 -9.52,0.68 0,-0.68 -0.68,-2.039 -0.68,-2.72 -3.06,1.02 -2.72,5.78 -4.421,7.14 -2.039,1.361 -5.779,0.68 -8.159,1.361 0,-0.681 -0.68,-1.361 -0.68,-2.721 -3.059,-1.02 -3.4,1.701 -6.12,2.38 -1.7,0.341 -4.76,0 -6.8,0 -0.34,0.341 0,0.681 -0.34,1.361 C 59.5,73.271 58.479,72.59 57.8,71.23 l -3.74,0 c 1.36,2.38 7.479,4.76 5.44,7.48 -0.68,1.02 -7.48,1.701 -8.84,2.04 -3.4,0.681 -4.761,1.021 -7.82,-0.339 -1.7,-0.681 -2.721,-2.04 -4.42,-2.721 -1.7,-0.339 -3.74,0 -5.441,-0.339 C 27.88,75.99 17.68,73.61 14.28,68.51 11.9,64.771 15.98,56.61 11.9,54.23 c -1.02,3.4 0.34,11.901 -2.72,14.621 -5.781,5.1 -5.1,-6.461 -4.76,-9.86 -6.46,-0.341 -9.521,2.04 -15.98,-0.681 -6.12,-3.06 -9.18,-4.76 -13.94,-0.68 -0.681,-3.4 -1.021,-6.12 -4.42,-8.16 -3.059,-1.36 -6.8,-1.699 -7.14,2.72 8.839,-0.339 2.04,5.44 -2.38,7.48 -3.74,1.7 -7.48,3.06 -11.9,3.06 -10.88,-0.34 -12.24,-6.459 -18.36,-14.28 -2.38,-2.72 -8.84,-8.839 -6.12,-13.26 1.7,-2.719 4.42,2.04 4.42,-2.719 0,0.339 -2.919,-4.323 -2.72,-4.761 2.04,-4.487 -4.76,-4.487 -7.48,-8.5 -2.04,1.02 -1.7,4.42 -2.38,5.78 -0.68,1.7 -3.74,5.1 -4.081,6.12 -0.339,2.72 6.121,7.82 0,7.481 -3.739,0 -5.779,-6.12 -5.439,-9.18 0.34,-3.06 4.702,-6.373 3.06,-9.52 -2.04,-3.911 -0.34,-5.78 4.76,-5.1 0.34,-3.401 -4.08,-2.72 -4.08,-7.141 0,-1.36 2.38,-2.379 1.699,-4.759 -1.02,-3.06 -3.059,-0.341 -5.099,-1.701 -5.44,-3.399 -5.1,-17.679 3.059,-15.3 2.04,0.34 5.781,5.1 7.141,6.8 2.72,3.06 3.74,4.42 6.8,6.121 4.76,2.379 4.76,2.04 8.5,-1.701 2.72,-2.38 6.12,-5.1 3.06,-8.16 3.4,-1.7 5.44,2.381 6.121,4.76 0.678,-2.04 1.699,-4.76 4.418,-3.399 0.681,-3.74 5.781,-5.441 8.161,-3.061 3.06,-1.36 10.2,0.341 12.58,-1.36 1.019,-1.02 1.36,-5.439 0.679,-6.8 -1.7,-2.719 -2.719,-1.36 -5.78,-1.699 -3.739,-0.341 -6.799,0.679 -10.539,1.359 -2.721,0.34 -3.399,1.021 -5.78,0 -0.68,0 0.341,-2.379 -1.361,-2.72 -1.7,-0.34 -2.719,0.341 -4.079,1.02 -3.4,1.7 -7.48,5.441 -9.52,7.14 -2.38,1.7 0,2.72 -4.42,3.401 -2.04,0.68 -5.1,-0.341 -7.14,-1.02 -2.04,-1.02 -3.06,-2.721 -5.44,-3.401 -2.381,-0.34 -5.78,1.361 -7.82,0.341 -4.08,-2.04 -4.42,-10.2 -6.46,-13.261 -2.38,-4.08 -5.78,-6.119 -7.14,-10.88 -0.68,-3.06 -2.04,-10.2 -1.7,-13.26 0.68,-3.4 4.76,-9.52 6.8,-13.259 2.72,-4.08 5.78,-6.8 10.88,-6.461 3.74,0.34 8.84,3.741 12.58,2.72 1.7,-0.68 2.38,-2.72 4.08,-3.74 1.36,-0.34 3.74,0.681 4.76,-0.34 1.02,-1.7 0,-4.08 0.34,-5.439 0.68,-2.721 2.04,-4.08 3.06,-6.461 1.7,-3.4 3.06,-8.16 3.399,-11.9 1.021,-7.82 -4.08,-14.279 -2.379,-21.76 1.02,-4.759 3.4,-6.799 5.78,-11.56 2.379,-4.419 1.36,-10.539 6.459,-11.559 3.741,-0.68 9.52,2.719 11.56,4.42 4.08,3.059 5.101,7.479 7.821,11.559 2.039,3.4 1.701,6.12 3.06,9.521 2.04,4.42 6.12,6.12 7.14,10.54 1.36,6.459 -1.701,13.94 1.02,20.06 3.74,8.839 19.38,17.34 17.34,27.88 -3.4,0.679 -6.801,-2.04 -10.54,-1.361 -3.74,0.68 -2.04,-0.679 -4.08,3.06 -0.68,0.68 0.679,2.04 0.34,3.06 -0.34,1.02 -2.04,2.38 -2.72,3.4 -2.38,4.08 -3.739,8.16 -6.12,11.9 -1.699,3.06 -3.739,10.541 -6.8,11.56 2.04,0.68 12.24,-14.62 14.28,-18.019 1.699,-2.721 2.04,-8.841 4.08,-10.881 3.74,-3.06 6.799,1.7 9.18,4.08 3.061,2.721 7.141,3.741 9.52,6.46 1.36,1.7 2.72,3.74 2.379,5.78 -0.339,3.74 -1.019,1.36 -3.059,3.401 -1.361,2.04 -0.34,3.399 -3.401,3.739 -1.359,0 -2.719,-2.719 -4.08,-2.379 -2.039,0 -5.439,5.099 -5.78,8.16 3.741,1.02 11.9,-6.121 15.301,-7.821 5.099,-2.379 15.979,2.381 17.34,-4.76 -0.34,0 -1.361,0.341 -1.699,0 -1.362,-3.4 4.08,-5.439 4.758,-1.36 1.7,-5.78 4.08,-12.24 6.12,-18.019 1.021,-2.721 2.04,-7.821 5.1,-5.44 2.04,1.359 1.361,7.819 2.04,9.859 1.021,5.101 5.441,11.9 10.541,13.6 9.52,2.721 7.819,-6.8 9.859,-12.24 7.821,5.1 6.121,-3.4 6.461,-9.52 0.34,-4.759 3.06,-10.2 5.78,-14.279 -2.38,2.379 -6.12,6.799 -9.86,6.799 -1.02,-4.08 7.14,-11.219 9.18,-14.28 1.021,-1.7 2.72,-5.78 4.76,-5.78 4.08,-0.679 3.74,4.421 2.381,6.801 -1.021,3.059 -3.402,2.379 -3.402,6.12 -0.34,3.059 2.721,2.379 0.681,6.8 -1.7,3.739 -10.881,10.199 -4.08,14.279 1.7,-5.1 7.139,-2.04 5.78,-8.5 4.42,-0.339 7.14,6.46 5.779,10.54 -1.359,4.08 -9.519,8.5 -2.719,11.901 1.02,-2.72 1.7,-9.861 5.779,-3.06 -3.739,2.719 1.701,4.08 4.08,5.779 2.721,1.7 6.461,5.101 8.16,7.82 2.04,4.08 1.362,7.48 0,10.881 -2.379,5.439 -2.719,5.1 -1.019,10.2 -5.44,1.019 -8.5,2.379 -2.04,6.459 0,-1.699 0,-3.06 -1.021,-4.759 3.74,-3.061 4.761,4.759 9.181,0.339 1.36,-1.7 2.72,-8.5 2.04,-10.199 4.42,-1.02 4.08,4.08 3.4,7.14 -0.68,3.74 -5.099,6.8 -1.7,10.2 0.34,-1.02 1.359,-1.36 2.04,-2.041 3.399,2.72 7.14,7.141 8.16,11.9 0.68,3.401 -0.34,7.481 0.339,10.88 2.04,-3.06 1.361,-13.599 6.12,-12.579 0.681,2.04 -0.34,4.08 -1.359,5.779 l 1.359,0 c 0,3.74 -1.359,9.52 -4.419,12.24 -0.34,-0.679 -1.36,-2.039 -1.701,-2.72 -1.019,3.4 -4.759,3.061 -7.819,2.041 -2.38,7.14 8.16,12.919 13.939,12.24 4.761,-0.681 4.08,-3.401 8.16,0.679 1.021,1.361 -0.679,3.061 2.04,4.081 1.701,0.34 3.401,-1.361 3.741,-2.381 1.7,1.361 6.46,7.82 4.42,0.681 -0.34,-1.701 -2.38,-2.381 -3.4,-3.401 0,0 -4.08,-4.08 -3.74,-3.4 -1.7,-4.419 2.04,-5.78 3.4,-9.859 0.68,-2.721 0,-5.781 1.02,-8.16 1.699,1.02 4.42,6.459 5.1,8.839 0.679,2.04 1.36,2.721 0.679,5.1 -0.339,1.701 -3.059,3.741 -3.059,4.42 -1.021,5.78 7.82,7.481 11.9,5.1 1.019,5.101 6.12,2.381 8.5,5.44 3.4,4.42 -1.7,6.121 -5.44,5.78 3.74,2.72 2.04,2.72 6.459,1.7"
             style="fill:#26c64f;fill-opacity:1;fill-rule:nonzero;stroke:none"
             id="path38" /></g><g
           id="g40"
           transform="translate(27.439,213.0498)"><path
             d="M 0,0 C -0.255,0.851 0,1.785 -0.17,2.636 -0.34,3.4 -1.87,5.951 -2.636,4.761 -3.229,3.74 -1.445,1.785 -1.105,0.936 -0.851,0 -0.765,-1.02 -0.851,-1.869 c 0,-0.426 0.086,-1.021 -0.169,-1.36 -0.509,-0.68 -1.19,0 -1.785,-0.425 -1.19,-0.766 0.34,-1.956 0.51,-2.806 0.17,-0.85 -0.851,-2.89 1.275,-2.21 0.85,0.341 2.041,1.871 2.38,2.636 0.34,0.764 0.17,1.104 0.935,1.699 0.68,0.596 2.21,1.02 2.551,2.04 0.255,0.681 0.084,1.785 -0.851,1.7 C 3.061,-0.68 3.146,-2.805 1.955,-1.444 L 0,0 z"
             style="fill:#26c64f;fill-opacity:1;fill-rule:nonzero;stroke:none"
             id="path42" /></g><g
           id="g44"
           transform="translate(21.7437,206.165)"><path
             d="m 0,0 c -1.273,0.353 -1.954,-1.53 -2.55,-2.635 -0.595,-1.104 -0.765,-1.87 -1.785,-2.635 -2.04,-1.445 -5.185,-2.464 -5.949,-5.015 -0.511,-1.529 1.359,-1.955 2.72,-2.124 1.359,-0.086 2.294,0.933 3.06,2.04 0.595,0.933 1.105,2.124 2.209,2.55 1.275,0.423 1.445,-0.341 2.04,1.019 0.255,0.595 0.341,1.105 0.596,1.785 0.255,0.595 0.636,0.941 0.51,1.616 C 0.69,-2.539 0.844,-0.234 0,0"
             style="fill:#26c64f;fill-opacity:1;fill-rule:nonzero;stroke:none"
             id="path46" /></g><g
           id="g48"
           transform="translate(415.5093,269.915)"><path
             d="m 0,0 c -2.721,0.68 -5.78,1.36 -7.479,-1.359 4.758,-1.702 11.219,-3.401 15.978,-4.08 4.421,-0.681 14.28,-2.38 16.32,1.7 C 19.38,-2.38 12.92,-4.08 7.479,-2.38 c 0,0.681 0,1.021 0.341,1.7 -2.04,0.34 -4.421,0.34 -6.461,1.021 L 0,0 z"
             style="fill:#26c64f;fill-opacity:1;fill-rule:nonzero;stroke:none"
             id="path50" /></g><g
           id="g52"
           transform="translate(17.709,388.7456)"><path
             d="M 0,0 C -0.351,-0.117 -0.578,-0.339 -0.764,-0.609 -0.373,-0.36 0.028,-0.147 0.448,0.004 0.298,0.021 0.149,0.021 0,0"
             style="fill:#8e8e8e;fill-opacity:1;fill-rule:nonzero;stroke:none"
             id="path54" /></g><g
           id="g56"
           transform="translate(5.4688,383.1353)"><path
             d="m 0,0 c -3.06,-1.7 -5.95,-1.36 -8.84,-3.74 l 6.12,1.87 c 0.17,0.17 0.341,0.17 0.341,0.34 3.569,3.23 9.349,1.19 12.75,4.76 0.557,0.557 0.752,1.257 1.106,1.771 C 10.524,4.395 9.63,3.594 8.67,3.06 5.78,1.36 2.89,1.7 0,0"
             style="fill:#26c64f;fill-opacity:1;fill-rule:nonzero;stroke:none"
             id="path58" /></g><g
           id="g60"
           transform="translate(127.189,370.7251)"><path
             d="m 0,0 -1.87,-1.02 c -1.02,0.17 -1.53,0.51 -1.87,1.53 -1.7,-0.85 -3.91,-1.36 -5.95,-1.53 0,1.53 1.53,1.87 2.72,2.55 0.85,0.51 2.55,2.55 3.23,2.72 1.02,0.34 2.72,-1.19 3.06,-1.7 C 0,1.7 1.36,2.04 0,0 m 46.07,3.4 c -0.85,2.04 -2.04,1.19 -2.72,2.38 -0.51,0.68 -0.51,1.87 -0.51,2.89 -0.17,0.51 -0.51,0.85 -0.51,1.53 -0.17,0.68 1.02,1.19 0.85,1.7 -0.68,2.89 -3.74,2.55 -5.78,2.55 0.85,0.17 2.89,0.17 3.23,1.19 0.51,1.7 -1.02,0.68 -1.87,1.19 -1.53,1.191 -3.91,2.04 -2.38,4.59 -2.21,1.87 -2.21,6.12 -4.25,8.16 -0.17,-2.55 -2.72,-6.97 -5.61,-3.91 -0.85,1.02 -0.34,2.21 -0.51,3.23 -0.51,2.04 -0.34,1.36 -1.53,2.38 -1.7,1.7 -2.55,3.06 -4.93,3.23 -3.57,0.17 -3.74,-0.68 -4.08,-3.4 C 15.13,29.24 14.45,27.88 13.94,25.84 13.26,23.8 14.62,22.27 14.11,20.4 13.6,17.85 10.88,18.19 10.2,16.15 9.52,14.79 10.88,12.41 10.37,10.88 9.69,8.33 7.82,7.99 7.14,10.54 6.8,11.9 7.31,14.11 7.14,15.47 6.8,17 7.65,16.49 6.46,17.68 5.61,18.36 4.25,18.36 3.4,18.7 c -2.04,0.68 -3.74,1.7 -5.95,2.55 -0.17,0 -3.06,0.68 -3.06,0.85 -0.68,0.51 0,1.7 -0.51,2.21 -0.68,1.02 -1.87,0.68 -2.21,1.53 -0.51,1.36 0.51,2.38 1.19,3.4 1.02,1.87 2.72,3.91 4.25,5.44 1.53,1.87 3.57,2.04 5.27,3.57 1.53,1.53 3.23,4.08 3.23,0.68 0,-1.02 -1.53,-1.53 -0.85,-2.89 0.85,-2.04 1.87,-0.51 2.89,0 1.02,0.68 1.19,1.36 2.38,1.7 1.02,0.51 3.23,-0.68 2.38,1.36 -0.51,1.19 -2.38,0.85 -3.06,1.53 -0.85,0.68 -1.36,2.04 -1.87,2.72 1.19,1.36 3.23,0.68 4.42,1.53 0.85,0.68 2.38,4.08 2.21,5.1 -0.17,1.36 -3.06,3.06 -4.42,2.72 -2.55,-0.68 -1.02,-3.74 -3.06,-4.93 0.17,1.36 0,2.89 -1.7,3.23 -1.02,-3.06 -2.38,0.17 -2.72,0.51 -1.19,0.51 -0.17,0.34 -1.7,0.51 -0.34,0 -2.55,-0.68 -2.72,-0.68 -1.19,-1.02 -0.34,-3.4 -1.87,-4.25 -2.89,-1.7 -1.7,1.19 -2.89,1.87 -2.21,1.36 -5.27,-1.53 -7.99,-0.85 -1.7,0.51 -2.72,2.55 -4.76,1.7 -2.04,-0.85 -1.36,-2.21 -2.21,-3.91 -1.19,4.76 -6.29,-0.17 -9.01,2.55 4.42,1.53 -4.93,3.91 -6.8,4.08 -2.38,0.17 -3.57,0 -5.1,0.51 -0.17,0 -0.85,-0.85 -1.36,-0.85 -0.68,0.17 -0.51,1.19 -0.85,1.19 -1.53,0.51 -1.36,0.68 -3.06,0.34 -2.38,-0.51 -4.59,-1.19 -6.97,-1.7 -0.85,-0.17 -2.72,-0.85 -3.57,-0.85 -1.53,0.17 -1.36,0.85 -2.72,1.36 -2.21,0.85 -4.76,0.51 -7.14,1.02 -2.55,0.34 -4.76,1.36 -7.31,1.19 -2.89,-0.17 -4.25,0.68 -6.97,1.19 -1.87,0.17 -4.08,-0.34 -5.95,-0.85 -2.55,-0.68 -4.08,-2.55 -6.29,-3.74 -1.53,-0.85 -2.55,-0.34 -2.72,-2.21 -0.17,-1.36 0.68,-2.55 1.87,-2.89 0,1.19 0.85,1.87 1.87,1.53 -0.51,-1.19 -0.68,-2.55 0.68,-3.229 -2.38,-3.061 -7.82,3.059 -9.52,-1.701 0,0.17 0.68,-3.06 0.68,-2.89 0.85,-1.02 0.85,-0.85 2.21,-1.02 1.53,-0.17 2.72,0.34 3.91,1.02 0,-3.4 -2.72,-3.57 -5.27,-4.08 -2.89,-0.85 -4.76,-2.72 -1.02,-4.42 -2.04,0 -3.23,-2.04 -1.19,-3.57 2.38,-1.7 1.19,2.04 3.23,1.53 -0.17,-1.87 -1.87,-3.74 0.34,-4.59 1.87,-0.68 2.89,1.87 4.59,0.68 -1.53,-2.38 -5.78,-5.78 -8.5,-7.14 -1.87,-0.85 -2.89,0.17 -4.59,-0.17 -0.195,-0.039 -0.385,-0.098 -0.572,-0.165 1.041,-0.115 2.081,-1.025 3.122,-1.025 1.53,0 4.25,1.36 5.61,2.041 2.04,1.019 3.4,2.379 5.61,3.059 2.72,0.85 4.59,1.53 5.95,4.25 0.85,1.36 1.87,6.29 4.08,5.441 2.72,-1.191 -2.89,-3.571 -2.21,-5.101 1.53,0.34 4.93,0.51 6.29,1.53 2.21,2.04 -0.51,5.1 3.57,2.72 1.19,-0.85 2.21,-1.87 3.4,-2.55 1.02,-0.68 2.38,-0.85 3.23,-1.36 2.89,-1.87 2.89,-3.06 5.95,-0.17 l 0.51,-1.02 1.36,-1.7 c 1.87,-4.93 3.74,-9.52 3.74,-14.96 0,-1.02 -0.17,-2.21 0,-3.4 0.34,-2.04 1.53,-2.55 2.38,-4.25 0.68,-1.87 0.85,-6.12 0.51,-7.82 -0.85,-5.95 -3.4,-15.81 2.38,-20.06 2.04,-1.53 2.72,-1.7 3.06,-4.42 0.34,-2.21 0.51,-3.06 1.7,-5.1 2.21,-3.4 3.4,-9.52 7.14,-11.56 0.85,2.38 -1.36,5.44 -2.21,7.48 -0.85,2.21 -3.91,5.78 -3.06,7.82 2.38,-1.19 2.55,-4.08 4.08,-5.95 1.53,-1.53 3.57,-2.89 4.76,-4.76 1.36,-2.21 1.53,-4.76 1.7,-7.31 0.17,-3.23 1.19,-3.57 3.57,-5.44 2.38,-1.7 4.25,-2.89 6.97,-4.08 0.68,-0.34 2.38,-1.87 3.06,-1.7 1.53,0.17 1.02,1.87 2.72,1.87 1.7,-0.17 4.93,-4.08 6.46,-5.1 2.72,-1.36 4.25,-2.72 5.78,-5.27 0.68,-1.19 1.19,-2.89 2.21,-3.74 1.19,-1.36 0.68,-0.681 2.21,-1.019 1.7,-0.341 5.61,-0.341 4.42,2.209 -3.57,-2.55 -3.91,2.72 -3.74,5.1 0.17,2.38 1.02,3.74 -1.19,5.44 -1.87,1.36 -5.95,-0.17 -6.63,0.68 -0.85,1.02 1.53,5.44 1.36,7.14 l 0,2.21 c -1.53,-0.51 -3.23,-0.17 -4.76,-0.85 -0.34,-0.17 -0.17,-1.19 -0.68,-1.53 -0.34,-0.17 -0.85,0.17 -1.19,0 -0.34,-0.17 -1.87,-0.85 -2.55,-0.85 -4.93,-0.68 -3.91,3.57 -4.25,7.14 -0.34,2.72 -0.34,7.31 0.85,9.69 1.19,2.04 2.55,2.21 4.42,2.38 1.7,0.17 4.76,-1.53 5.95,-1.19 1.7,0.34 0.51,1.7 1.87,2.38 0.85,0.51 2.38,-0.17 3.06,-0.34 2.55,-0.17 4.42,-0.17 5.44,-2.89 0.51,-1.7 -0.17,-3.57 0.51,-5.1 1.7,-3.23 3.23,-1.02 2.72,1.87 -0.51,4.93 0.17,8.5 3.23,12.75 1.19,1.36 4.42,3.23 5.1,4.93 0.68,1.7 -1.53,3.91 0.85,5.27 0.17,-0.17 0.34,-0.51 0.51,-0.85 0.51,1.7 3.06,5.27 4.59,6.12 2.38,1.36 5.61,-0.34 2.89,3.91 2.38,0.51 4.42,2.21 6.63,3.06 -0.17,-0.85 0.17,-1.7 0,-2.38 0.85,0.851 2.55,2.89 3.57,3.4 2.04,0.85 4.42,-0.34 5.78,2.04 -1.36,2.04 -2.21,0.17 -4.08,0.51 -2.04,0.51 -1.7,1.87 -2.38,3.4 -0.85,1.87 -0.51,2.21 -2.55,2.38 -1.19,0.17 -3.06,-0.68 -3.74,-1.7 2.72,3.571 3.91,4.08 8.5,4.42 3.06,0.34 6.12,1.53 9.18,1.87 0.51,-2.55 -3.91,-4.08 -2.55,-6.29 0.51,-0.68 2.04,0.17 2.55,-0.34 0.85,-0.68 -0.51,-2.04 0.68,-2.72 2.21,3.57 4.08,-2.21 5.27,1.7 0.17,0.68 0,2.38 -0.17,3.06"
             style="fill:#26c64f;fill-opacity:1;fill-rule:nonzero;stroke:none"
             id="path62" /></g><g
           id="g64"
           transform="translate(418.7397,234.0449)"><path
             d="m 0,0 c -0.341,0.17 -1.53,0.34 -1.871,0.51 -0.68,-1.87 1.7,-3.739 2.04,-5.44 0.341,-1.53 0.51,-3.57 0.681,-4.929 0.17,-3.402 -3.061,-9.351 2.889,-6.971 2.21,0.851 3.74,1.019 6.46,1.19 2.89,0.17 3.23,2.21 5.78,2.89 0.85,0.34 1.871,-0.17 2.72,0 1.36,0.34 1.87,1.189 3.571,1.189 3.23,0 4.08,-2.21 5.949,-3.909 3.06,-3.059 1.02,1.19 3.57,1.531 3.231,0.509 -0.68,-5.442 -0.68,-5.611 0.85,0 2.89,0.85 3.571,0.169 0.849,-0.679 -0.171,-2.55 0.849,-3.569 1.7,-1.699 4.08,0.17 5.95,0 1.02,-0.17 1.701,-1.19 2.89,-1.19 1.021,0 2.38,0.85 3.401,1.19 3.059,1.019 2.549,1.36 3.399,4.421 0.851,2.55 3.4,3.399 4.421,5.949 0.51,1.7 0.169,3.74 0.679,5.439 0.85,3.231 4.59,6.461 2.21,9.351 -0.509,0.51 -1.7,0.34 -2.379,1.359 -0.17,0.511 0.169,1.191 0,1.701 -0.341,1.53 0,3.57 -2.381,2.55 -0.34,0.85 -0.34,1.869 -0.679,2.72 -0.171,0.51 -0.171,1.36 -0.511,1.87 -0.341,0.51 -1.36,0.17 -1.7,0.51 -0.85,1.359 -1.019,3.57 -1.19,5.27 -0.169,1.02 -0.34,2.55 -0.85,3.571 -0.34,0.51 -1.359,0.169 -1.53,0.849 -0.339,0.68 0,1.36 -0.17,1.869 -0.51,1.191 0,1.872 -1.36,2.381 -2.21,1.19 -2.04,-0.68 -2.379,-2.04 -0.51,-1.7 -0.341,-3.23 -0.51,-4.93 -0.341,-3.23 -1.021,-3.74 -3.402,-2.72 0.341,-0.17 -1.019,0.85 -1.019,0.85 -0.34,0.17 -1.19,-0.17 -1.53,0.17 -0.51,0.169 -2.209,2.04 -2.209,2.55 0,0.68 1.699,0.34 2.04,1.36 0.34,1.02 -1.531,1.53 -0.171,2.889 -1.191,1.021 -2.04,0.341 -3.4,0.681 -1.19,0.34 -2.21,1.53 -3.4,1.53 0,0 -3.061,-1.02 -2.55,-0.68 -0.511,-0.34 -1.02,0.509 -1.53,-0.68 -0.51,-0.851 1.019,-1.19 1.019,-2.04 C 26.52,22.949 25.329,20.399 24.31,20.23 22.779,20.06 22.439,22.78 20.739,22.1 19.89,21.93 20.059,20.74 19.549,20.23 19.38,20.06 18.019,19.38 17.85,19.21 16.999,18.359 16.659,16.66 15.129,16.66 13.77,20.57 13.26,13.77 13.089,13.26 12.069,11.729 8.67,11.05 6.97,10.54 5.1,10.03 3.569,10.199 2.04,8.84 0.85,7.82 -1.19,5.27 -0.341,3.74 L 0,0 z"
             style="fill:#26c64f;fill-opacity:1;fill-rule:nonzero;stroke:none"
             id="path66" /></g><g
           id="g68"
           transform="translate(430.4692,316.1553)"><path
             d="m 0,0 c 0.17,-2.04 -1.19,-3.57 -0.851,-5.61 0.341,-2.21 1.872,-3.4 1.701,-5.44 0.849,0.68 1.359,0.509 2.211,0.17 -0.171,-1.36 -1.191,-3.741 -0.511,-4.93 2.21,2.89 3.91,1.189 2.38,-2.041 0.34,0.17 1.53,-0.17 1.87,0 0.17,-1.53 -1.53,-3.06 -2.21,-4.42 1.189,-1.359 1.02,-1.359 2.21,-1.19 0.17,0 0.679,3.231 2.04,0.51 0,2.211 -0.34,4.591 -0.85,6.631 -0.511,2.04 -1.87,3.4 -3.06,4.93 -1.02,1.53 -4.25,3.23 -4.25,5.1 0,1.02 1.7,1.53 1.529,3.23 C 2.04,-1.7 0.68,-1.19 0.68,0.34 L 0,0 z"
             style="fill:#26c64f;fill-opacity:1;fill-rule:nonzero;stroke:none"
             id="path70" /></g><g
           id="g72"
           transform="translate(459.1987,364.4351)"><path
             d="m 0,0 c -2.89,-0.85 -4.249,1.7 -6.8,1.53 -0.17,-1.36 -1.36,-3.74 -1.36,-5.1 0,-1.02 0.85,-1.53 0.85,-2.04 0.17,-1.02 0,-1.7 0,-2.89 0,-2.21 1.021,-6.29 -2.04,-6.63 -0.17,0.34 -0.17,0.68 -0.17,0.85 -1.36,-0.85 -1.53,-2.21 -3.06,-3.06 -0.51,-0.34 -1.529,0 -2.21,-0.68 -0.34,-0.34 0,-1.7 -0.51,-2.38 -1.189,-1.19 -2.889,-0.68 -3.57,-2.55 -0.51,-1.19 0.681,-3.74 1.019,-4.93 0.852,1.19 0.681,2.55 0.681,3.74 3.74,0 2.38,4.42 4.761,4.25 0.169,-1.36 1.529,-2.04 3.059,-1.53 1.7,0.68 0.85,1.7 1.871,3.06 1.359,1.87 1.869,0.34 2.04,3.23 0.169,0.34 -0.171,1.02 -0.171,1.53 0.171,0.68 1.02,1.36 1.19,2.04 0.34,1.7 -0.17,3.06 -0.85,4.42 -0.509,0.85 -2.549,2.38 -2.209,3.57 0.679,2.55 2.378,-0.34 3.399,-0.34 1.7,0 2.381,1.87 3.911,2.21 L 0,0 z"
             style="fill:#26c64f;fill-opacity:1;fill-rule:nonzero;stroke:none"
             id="path74" /></g><g
           id="g76"
           transform="translate(425.7095,293.375)"><path
             d="m 0,0 c -0.34,-2.04 -2.891,-3.061 -4.08,-4.59 -0.511,-0.849 -1.021,-1.87 -1.53,-2.551 -0.51,-0.509 -1.36,0 -1.701,-0.509 -0.339,-0.17 -0.339,-1.36 -0.679,-1.53 -0.681,-0.34 -2.381,0.339 -2.891,-0.171 -0.68,-0.509 -0.68,-3.059 -0.51,-3.739 0.17,-1.019 2.55,-4.59 3.401,-4.931 0.679,-0.339 1.53,0.51 2.209,0.341 1.19,-0.341 2.211,-1.53 3.401,-1.19 1.19,0.51 3.23,4.59 3.569,5.439 0.17,0.341 -0.339,1.021 -0.169,1.362 0,0.509 1.019,0.849 1.019,0.849 0.171,1.7 -0.339,1.191 -0.85,2.55 -0.509,2.38 -0.169,4.25 2.04,5.609 -0.509,0.34 -1.36,0.85 -2.04,0.85 L 0,0 z"
             style="fill:#26c64f;fill-opacity:1;fill-rule:nonzero;stroke:none"
             id="path78" /></g><g
           id="g80"
           transform="translate(422.479,440.2549)"><path
             d="m 0,0 c 0.17,-3.91 7.649,-2.89 9.86,-2.72 1.02,0.17 1.36,0.85 2.379,0.85 1.021,-0.17 1.701,-1.19 2.551,-1.19 1.7,-0.34 4.76,0.51 4.931,2.55 C 18.359,0 16.49,-0.34 14.96,-0.34 13.43,-0.51 12.239,-1.19 11.051,-1.36 9.35,-1.53 4.25,-0.17 2.891,1.02 L 0,0 z"
             style="fill:#f2f2f2;fill-opacity:1;fill-rule:nonzero;stroke:none"
             id="path82" /></g><g
           id="g84"
           transform="translate(429.1089,326.6953)"><path
             d="M 0,0 C -1.269,-0.521 -2.04,-4.76 -0.17,-5.44 1.36,-6.12 2.981,-2.912 2.381,-1.87 2.003,-1.215 0.699,0.288 0,0"
             style="fill:#26c64f;fill-opacity:1;fill-rule:nonzero;stroke:none"
             id="path86" /></g><g
           id="g88"
           transform="translate(454.269,276.0352)"><path
             d="M 0,0 C -3.23,-0.85 -1.359,3.74 -4.59,4.08 -5.95,4.25 -7.14,4.25 -6.801,2.72 -6.63,2.04 -5.271,2.55 -5.1,2.21 -4.93,1.7 -4.761,0.34 -4.59,0.17 c 0.85,-1.87 -0.171,-0.851 1.7,-1.87 1.36,-0.68 2.209,-0.851 3.571,-1.87 2.718,-2.21 4.59,-3.231 3.228,-6.801 1.53,-0.339 3.741,-1.359 5.442,-0.85 2.04,0.681 2.549,3.401 5.439,2.04 1.359,-0.509 4.76,-6.12 6.12,-3.059 1.36,2.889 -4.93,2.04 -3.57,4.761 0.849,1.699 4.42,0.509 5.78,2.039 3.23,3.74 -2.381,1.7 -3.74,1.36 -3.4,-1.191 -2.721,0.34 -5.271,2.04 C 12.75,-1.021 10.54,-0.34 8.84,0.51 7.14,1.529 3.74,4.419 2.38,1.7 L 0,0 z"
             style="fill:#26c64f;fill-opacity:1;fill-rule:nonzero;stroke:none"
             id="path90" /></g><g
           id="g92"
           transform="translate(485.3794,428.6953)"><path
             d="M 0,0 C -1.021,0.17 -4.08,0 -3.061,-1.7 -2.38,-2.89 2.55,-2.89 0.68,-0.34 L 0,0 z"
             style="fill:#f2f2f2;fill-opacity:1;fill-rule:nonzero;stroke:none"
             id="path94" /></g><g
           id="g96"
           transform="translate(437.9487,288.9551)"><path
             d="m 0,0 c 0,-2.04 0.34,-3.74 -1.529,-4.76 -1.021,-0.68 -2.211,0 -3.231,-0.511 -1.189,-0.509 -0.679,-1.019 -1.36,-1.869 -1.529,-2.04 -2.379,-2.72 -2.55,-5.27 0,-1.7 -0.681,-4.93 0.85,-5.78 0.341,1.19 0.85,2.21 1.02,3.57 2.21,-3.061 3.06,-0.68 2.381,1.87 2.55,-1.02 3.399,-2.04 6.119,-2.21 1.361,0 7.651,-1.7 6.29,0.85 -0.511,0.85 -2.889,0 -3.57,0.679 -2.04,1.361 -0.34,1.531 0.17,3.231 0.511,1.699 1.19,4.76 0.681,6.63 -4.25,-1.19 0.339,-8.159 -4.421,-9.35 -1.53,-0.34 -3.74,0.51 -4.419,1.7 -0.171,0.679 2.21,1.02 0.849,2.04 -0.51,0.34 -2.551,-0.68 -3.06,-0.85 -0.51,2.21 3.74,2.04 5.1,3.059 2.21,1.531 2.21,3.061 2.21,5.611 L 0,0 z"
             style="fill:#26c64f;fill-opacity:1;fill-rule:nonzero;stroke:none"
             id="path98" /></g><g
           id="g100"
           transform="translate(369.9487,297.7949)"><path
             d="m 0,0 c -1.53,-1.699 -1.699,-4.93 0.51,-5.95 3.74,-1.53 2.72,2.889 1.19,4.59 L 0,0 z"
             style="fill:#26c64f;fill-opacity:1;fill-rule:nonzero;stroke:none"
             id="path102" /></g><g
           id="g104"
           transform="translate(323.0298,261.0742)"><path
             d="m 0,0 c -5.028,-2.539 -4.761,-6.289 -7.311,-10.369 -1.7,-2.55 0,-4.421 -0.169,-6.63 -0.17,-1.7 -1.361,-3.23 -1.361,-4.931 0,-1.019 0.34,-4.249 1.191,-4.59 2.21,-1.189 3.57,2.891 4.25,4.25 2.379,3.571 2.549,7.48 3.91,11.56 0.849,2.721 2.52,6.636 1.02,9.351 C 1.283,-0.912 0.456,0.231 0,0"
             style="fill:#26c64f;fill-opacity:1;fill-rule:nonzero;stroke:none"
             id="path106" /></g><g
           id="g108"
           transform="translate(373.8589,445.1851)"><path
             d="M 0,0 C 1.53,1.53 6.291,-0.34 6.12,2.38 4.93,2.89 3.741,2.89 2.721,2.38 3.061,3.23 4.08,6.12 1.53,4.76 0.34,4.08 0.34,1.53 -0.85,0.17 L 0,0 z"
             style="fill:#f2f2f2;fill-opacity:1;fill-rule:nonzero;stroke:none"
             id="path110" /></g><g
           id="g112"
           transform="translate(323.1987,425.8052)"><path
             d="m 0,0 c -0.85,1.53 -2.719,3.74 -1.699,5.61 0.51,1.36 3.91,4.59 5.1,5.44 1.53,1.02 3.74,0.85 5.44,1.7 2.04,1.02 5.439,3.91 1.529,4.25 C 8.501,17.17 6.461,15.64 4.59,15.3 2.04,14.96 1.871,15.13 0,13.43 -2.209,11.22 -7.31,5.78 -6.63,2.21 -6.289,0.51 -4.93,0 -3.06,0.17 L 0,0 z"
             style="fill:#f2f2f2;fill-opacity:1;fill-rule:nonzero;stroke:none"
             id="path114" /></g><g
           id="g116"
           transform="translate(363.4888,451.9854)"><path
             d="M 0,0 C 1.361,-0.17 3.4,-0.17 4.421,0.68 6.291,2.04 5.951,3.57 3.911,3.74 1.021,3.91 -4.08,0.68 -0.34,-1.87 0,-2.21 2.721,-2.72 2.891,-2.72 3.74,-2.89 6.63,-3.57 7.48,-3.23 c 1.871,0.85 1.531,2.72 -0.509,3.06 -0.51,0 -1.531,-1.02 -2.21,-1.02 -0.85,-0.17 -1.87,0.17 -2.721,0.34 L 0,0 z"
             style="fill:#f2f2f2;fill-opacity:1;fill-rule:nonzero;stroke:none"
             id="path118" /></g><g
           id="g120"
           transform="translate(327.9595,455.895)"><path
             d="m 0,0 c -1.19,-1.36 -3.23,0 -4.761,-0.34 -1.699,-0.34 -2.718,-2.04 -4.419,-1.53 2.379,5.95 -4.08,0.34 -3.91,-1.7 1.19,1.36 2.209,0 3.739,-0.17 0.51,0 1.021,0.51 1.361,0.51 0.34,-0.17 2.21,-1.53 1.87,-1.53 1.53,0.17 1.87,1.36 3.399,2.04 1.191,0.68 2.381,-0.34 3.061,1.53 L 0,0 z"
             style="fill:#f2f2f2;fill-opacity:1;fill-rule:nonzero;stroke:none"
             id="path122" /></g><g
           id="g124"
           transform="translate(270.3296,451.4751)"><path
             d="m 0,0 c -0.511,0.34 -1.36,0.34 -2.04,0.68 -0.171,-1.19 0.17,-2.21 0,-3.23 C -2.89,-1.53 -3.4,0 -4.761,-1.36 -5.78,0.34 -8.16,0.17 -8.16,-1.7 c 0.17,-2.04 3.059,-2.38 3.909,-2.55 0.681,-0.17 1.53,1.19 2.211,-0.17 0.85,-1.87 -1.53,-1.36 -1.7,-1.87 -0.34,-1.53 1.36,-2.72 3.229,-2.55 -0.17,0.68 -0.17,1.7 -0.51,2.55 C 0.85,-5.95 0.51,-4.08 2.21,-3.74 3.399,-3.57 3.399,-6.12 5.1,-4.59 5.609,-5.95 4.08,-6.8 2.72,-6.8 2.55,-9.01 5.78,-8.16 6.63,-6.97 c 0.34,-0.17 0.849,-0.34 1.019,-0.51 1.531,2.89 -1.359,3.4 -2.04,5.44 1.87,0.51 3.401,1.02 4.93,1.7 C 10.71,0.68 7.82,1.36 6.63,1.02 5.439,0.51 4.93,-1.87 3.399,-2.38 -1.7,-3.74 5.609,0.85 2.89,2.38 2.38,1.87 1.869,1.36 1.529,0.68 L 0,0 z"
             style="fill:#f2f2f2;fill-opacity:1;fill-rule:nonzero;stroke:none"
             id="path126" /></g><g
           id="g128"
           transform="translate(307.73,454.7051)"><path
             d="m 0,0 c -1.19,-0.17 -2.211,-1.02 -3.23,-1.36 1.19,-0.85 2.889,0 4.419,0 0,-0.34 0.34,-0.68 0.17,-1.19 0.681,0 0.85,0 1.191,0.51 C 2.719,-2.21 2.89,-2.21 3.06,-2.38 4.08,-0.85 2.379,1.02 1.869,2.04 1.529,1.7 1.699,1.53 1.529,1.36 L 0,0 z"
             style="fill:#f2f2f2;fill-opacity:1;fill-rule:nonzero;stroke:none"
             id="path130" /></g><g
           id="g132"
           transform="translate(226.9795,415.0952)"><path
             d="m 0,0 c -1.36,-1.87 -2.21,-1.02 -4.42,-1.02 -1.361,0 -0.68,-1.36 -2.38,-0.68 -1.02,0.34 -1.531,0.51 -1.02,1.869 -2.38,1.361 -1.02,-3.229 -2.551,-4.419 1.531,0.17 2.721,-0.318 2.381,-2.018 1.02,-0.51 2.04,-0.827 3.229,-0.827 l 2.211,0 c 1.02,0 1.02,0.827 1.869,1.168 0.85,0.34 2.89,0.753 3.231,1.603 0.679,1.36 -1.361,2.162 -1.361,3.692 L 0,0 z"
             style="fill:#f2f2f2;fill-opacity:1;fill-rule:nonzero;stroke:none"
             id="path134" /></g><g
           id="g136"
           transform="translate(168.6689,452.665)"><path
             d="m 0,0 c 0,-3.06 -3.23,-1.7 -4.93,-2.38 -1.19,-0.51 -1.02,-1.36 -2.21,-1.87 -0.85,-0.34 -2.38,0.51 -3.06,0 -4.42,-2.55 6.29,-3.4 6.63,-4.08 -1.7,-0.51 -6.12,1.19 -6.29,-1.53 0.51,-0.17 1.87,-0.17 2.21,-0.34 0.34,-0.34 0.68,-1.36 1.02,-1.53 1.7,-1.02 2.04,-1.02 3.91,-0.68 1.87,0.34 2.38,1.19 4.59,0 1.36,-0.509 2.38,-1.529 3.57,-2.38 1.02,-0.68 2.55,-1.189 3.23,-2.21 0.68,-1.36 0,-3.74 0.34,-5.27 0,-0.17 -0.17,-1.36 0,-1.7 0.68,-0.85 1.02,0.34 1.53,0 1.19,-0.85 2.21,-1.19 2.72,-2.89 -1.7,-0.34 -3.57,1.36 -4.59,-0.51 -2.04,-3.57 2.21,-2.04 3.57,-1.87 1.53,-3.23 -2.04,-3.23 -2.89,-5.61 -0.85,-1.87 -0.17,-4.42 0.51,-6.12 1.02,-2.04 2.04,-4.42 3.23,-6.63 0.68,-1.53 1.02,-1.7 2.21,-2.549 0.34,-0.341 2.21,-1.701 2.89,-1.871 2.55,-1.189 2.89,1.871 4.08,4.08 1.02,2.04 2.04,3.74 3.06,5.61 1.87,4.08 7.31,3.911 10.71,6.8 2.72,2.38 3.91,2.04 7.65,2.72 2.55,0.51 6.29,2.89 7.14,5.44 -2.21,0.681 -4.25,-0.51 -6.12,-0.85 1.02,1.87 1.53,3.06 -1.02,3.91 1.02,0.34 3.06,-1.19 4.08,-1.7 1.02,-0.34 2.55,-0.679 3.57,-1.02 1.7,3.74 -4.76,4.25 -0.17,7.99 2.72,1.87 1.7,1.02 1.53,4.25 0,1.7 1.87,3.91 0.34,5.1 1.02,0.68 1.7,1.53 2.21,2.55 -2.04,0.34 -2.21,1.36 -1.19,2.89 0.34,0.68 1.36,0.85 1.87,1.36 0.51,0.681 0.34,1.701 0.85,2.21 2.04,2.21 5.78,2.21 7.65,4.42 C 59.5,7.65 52.19,3.06 48.28,0 c 0.51,1.36 5.61,2.55 4.08,4.42 -1.19,1.53 -5.61,-1.7 -5.27,1.53 1.87,0.34 4.42,0 5.44,1.36 -5.95,3.06 -13.77,2.04 -20.4,2.04 -6.46,0 -13.6,0.51 -18.19,-4.59 C 10.2,8.67 9.86,3.4 6.29,2.89 4.76,2.72 -2.21,4.08 -1.02,0.34 L 0,0 z"
             style="fill:#f2f2f2;fill-opacity:1;fill-rule:nonzero;stroke:none"
             id="path138" /></g><g
           id="g140"
           transform="translate(167.3091,457.5947)"><path
             d="M 0,0 C 2.21,0.85 4.42,1.02 6.46,1.701 5.95,3.4 -0.85,3.91 -2.38,3.06 -2.21,3.4 -2.21,4.08 -2.21,4.42 -4.76,5.44 -9.35,3.91 -12.41,3.741 -14.79,3.57 -23.8,3.57 -17.34,1.19 -19.72,0.681 -21.59,2.04 -23.97,2.21 -26.69,2.38 -25.5,2.55 -26.52,0.681 -26.86,0 -27.71,-2.04 -27.88,-2.72 c 2.21,-0.85 6.29,3.06 6.46,-0.509 0.34,-3.401 -1.87,-0.341 -3.4,-0.681 -1.36,-0.34 -0.85,-2.21 -1.87,-2.38 -0.85,-0.34 -2.89,1.871 -3.57,2.55 -0.51,0.341 -1.87,2.381 -2.38,2.551 -2.89,1.359 -2.21,-0.681 -3.06,-2.04 -0.68,-1.19 -2.38,-2.21 -1.87,-4.081 1.53,-0.34 3.06,-0.169 4.25,-0.51 -0.17,-1.02 -1.02,-1.53 -1.87,-2.04 0.34,-0.34 5.61,0.34 6.63,0.68 2.04,0.51 4.42,3.23 6.29,0.68 -0.85,-1.19 -7.48,-0.17 -4.08,-3.4 -1.02,-0.51 -2.21,-0.34 -3.23,0.17 0,-3.74 -6.8,-4.249 -8.67,-2.209 1.19,0.85 0.85,2.039 -0.68,2.039 1.87,2.04 -2.21,5.61 -2.89,2.72 -0.17,-1.02 3.23,-6.12 -0.34,-4.59 -0.85,-2.55 -7.48,1.701 -6.29,-1.87 -0.85,-0.509 -1.87,-0.339 -2.72,0.17 -0.68,-2.38 -0.34,-3.57 2.21,-3.23 0.34,0 2.55,0.68 2.21,0.85 1.36,-0.339 1.7,-1.7 0.34,-2.55 1.36,-0.34 3.23,2.04 4.25,1.36 0.68,-0.68 0,-2.55 -0.34,-3.23 1.53,0 3.23,-0.509 3.91,0.85 1.02,2.211 -1.36,2.55 -2.21,3.4 -1.36,1.19 -2.38,2.38 0.17,2.72 2.04,0.341 2.89,-2.053 4.42,-1.542 1.53,-2.551 -1.7,-3.753 3.4,-3.753 l 6.12,0 c 2.04,0 4.42,-1.517 5.78,0.523 1.7,2.55 -0.85,3.491 -3.06,3.151 -2.21,-0.34 -4.93,-1.739 -7.48,-0.719 -2.89,1.19 -0.51,2.02 1.87,2.19 3.23,0.17 6.12,-0.52 9.18,-1.03 1.02,0 2.72,-1.025 2.72,1.015 0,1.7 -1.53,1.018 -2.21,1.528 -0.68,0.34 -2.72,0.168 -1.19,1.359 1.19,0.68 3.4,-0.681 4.59,-0.172 0.17,0.171 2.89,2.551 2.89,2.721 0.34,1.36 -1.7,1.699 -1.7,3.059 1.36,0.34 2.89,0 4.25,0.34 1.19,0.51 1.87,1.7 2.89,2.04 1.19,0.34 2.21,-0.51 3.23,-0.17 1.02,0.341 2.55,2.551 3.23,3.23 L 0,0 z"
             style="fill:#f2f2f2;fill-opacity:1;fill-rule:nonzero;stroke:none"
             id="path142" /></g><g
           id="g144"
           transform="translate(99.3091,434.1348)"><path
             d="m 0,0 c -1.7,1.87 -4.93,2.04 -7.31,2.21 -0.68,0 -2.55,0.34 -3.06,0 -1.7,-1.02 -0.34,-2.04 -0.85,-3.74 -0.51,-1.36 -2.72,-2.21 -2.04,-3.909 0.51,-1.191 2.55,-1.531 3.74,-1.191 2.38,0.68 1.36,2.72 2.72,3.74 1.19,0.85 2.89,-0.17 4.25,1.19 L 0,0 z"
             style="fill:#f2f2f2;fill-opacity:1;fill-rule:nonzero;stroke:none"
             id="path146" /></g><g
           id="g148"
           transform="translate(133.3091,321.2549)"><path
             d="m 0,0 c -1.7,0.51 -11.22,3.91 -11.05,0 1.53,-0.34 3.4,0.17 4.93,-0.17 0.68,-0.17 3.91,-0.51 4.25,-0.85 1.53,-1.189 0.17,-3.23 2.72,-4.08 1.19,-0.34 3.4,0.34 4.25,1.19 -0.85,0.85 -2.21,1.19 -3.4,1.701 L 0,0 z"
             style="fill:#26c64f;fill-opacity:1;fill-rule:nonzero;stroke:none"
             id="path150" /></g><g
           id="g152"
           transform="translate(178.5293,237.1045)"><path
             d="m 0,0 c 1.87,1.53 3.23,1.19 5.27,1.7 2.38,0.51 3.23,1.87 4.25,4.08 1.87,3.4 2.04,7.14 2.21,10.71 0,2.38 -0.17,3.91 1.36,5.95 1.53,2.379 3.4,3.741 3.91,6.8 0.169,1.36 0.51,4.249 -0.34,5.44 -0.68,1.19 -4.25,2.72 -5.61,3.23 C 9.52,38.42 7.99,39.1 6.459,39.609 4.59,40.12 4.25,40.46 2.72,41.31 c -1.7,0.85 -3.4,1.53 -5.27,1.87 -3.06,0.509 -3.23,-0.169 -5.781,-2.04 1.02,2.72 4.081,4.25 3.741,7.31 -0.17,2.04 -3.06,4.42 -5.1,5.44 -1.87,1.02 -4.08,0.34 -5.95,1.53 -2.21,1.36 -3.401,4.76 -6.46,4.08 -0.34,1.529 -1.02,3.57 -2.38,3.91 -0.85,0.17 -1.53,-1.019 -2.55,-1.019 -1.02,0 -1.7,0.339 -2.72,0.679 -2.89,0.68 -7.14,2.21 -7.31,-1.7 -0.68,1.53 -1.02,3.06 0.68,3.74 -1.53,0.34 -5.95,-2.38 -6.8,-3.74 l -2.72,-2.379 c -2.55,1.36 -5.1,2.55 -3.06,-1.19 1.19,-2.38 2.89,-3.741 2.379,-6.631 -0.339,-2.72 -1.699,-4.25 -3.399,-6.119 -1.19,-1.361 -3.23,-4.93 -0.68,-5.78 -0.34,-2.041 -2.04,-3.911 -1.19,-6.121 0.85,-2.379 3.23,-2.719 3.91,-5.1 0.68,-2.55 0.17,-3.739 1.7,-6.12 1.19,-2.04 1.53,-4.59 3.57,-5.95 2.21,-1.359 4.76,-1.359 6.46,-3.91 0.68,-1.36 0.85,-4.25 1.02,-5.78 0.34,-3.569 0.68,-7.14 0.68,-10.71 -0.17,-6.8 -1.02,-13.26 -1.19,-20.059 -0.17,-3.061 -0.85,-6.291 -0.17,-9.01 0.51,-2.04 1.027,-2.551 0.516,-4.761 -0.34,-2.209 -1.843,-3.909 -0.843,-6.289 l 0,-2.891 c 0,-1.53 0.503,-2.89 0.673,-4.421 0,-0.509 -0.173,-1.189 -0.003,-1.53 0.51,-0.849 0.848,-0.679 1.188,-1.019 1.02,-1.361 3.23,-3.571 3.06,-5.951 0.85,1.701 1.699,1.531 2.719,0.34 0.85,-1.189 0.34,-1.869 -0.34,-3.229 1.7,-0.51 8.5,-1.361 8.839,0.17 0.341,1.87 -2.549,2.04 -3.739,2.89 -1.36,1.02 -2.04,2.719 -3.4,3.4 2.21,1.53 0.51,4.08 1.36,6.29 0.85,2.38 2.21,3.229 0.85,5.61 -0.51,1.02 -2.04,0.85 -1.87,2.72 0.17,1.529 1.53,1.529 2.55,2.55 0.51,0.509 2.04,2.04 2.04,3.059 -0.17,1.191 -2.72,1.871 -2.55,3.401 0.34,1.7 1.87,0.51 2.89,1.02 1.53,0.68 0.68,0.34 1.36,1.699 0.509,1.021 -0.511,1.531 0.34,2.381 0.51,0.34 2.38,0.169 2.89,0.34 1.7,0.51 4.25,1.869 4.42,3.909 0.17,2.211 -2.38,3.911 -2.72,5.78 2.04,-0.849 4.76,-2.719 6.63,-0.849 1.87,1.699 1.36,4.93 3.4,6.97 0.17,-0.85 0.339,-1.531 0,-2.55 1.7,1.359 2.72,4.42 3.23,6.29 0.51,2.04 0,4.93 1.7,6.289 L 0,0 z"
             style="fill:#26c64f;fill-opacity:1;fill-rule:nonzero;stroke:none"
             id="path154" /></g><g
           id="g156"
           transform="translate(237.689,386.0244)"><path
             d="m 0,0 c -0.17,2.89 -2.55,0 -2.89,-1.02 -0.34,-1.53 0.68,-2.72 -0.17,-4.419 1.19,-0.681 2.89,0 3.74,0.849 1.53,1.53 1.02,1.87 0.17,3.74 L 0,0 z"
             style="fill:#26c64f;fill-opacity:1;fill-rule:nonzero;stroke:none"
             id="path158" /></g><g
           id="g160"
           transform="translate(139.0889,432.9443)"><path
             d="m 0,0 c 0,-1.36 -1.19,-2.72 -1.87,-3.91 -0.68,1.701 -0.17,3.741 0.85,5.1 -1.87,0.34 -5.44,-1.53 -6.12,-3.399 -0.34,-1.02 0,-1.361 0.17,-2.211 0.17,-0.51 1.02,-1.02 1.19,-1.7 0.17,-0.51 -0.68,-1.36 -0.51,-1.7 0.85,-1.53 4.76,-0.68 6.8,-1.19 2.04,-0.34 4.76,-2.21 5.1,1.36 2.21,-0.51 2.55,-3.74 2.21,-5.78 -0.17,-1.19 -2.04,-3.23 0.17,-3.23 2.04,0 2.04,4.59 3.57,3.06 1.36,-1.19 -0.51,-4.08 -1.36,-4.93 -1.19,-1.02 -5.27,-1.02 -5.78,-2.38 -1.02,-2.55 2.89,-2.21 3.91,-2.38 2.89,-0.339 3.57,-2.21 5.78,-3.74 1.7,-1.02 4.25,-2.55 6.12,-3.23 0.85,2.551 -1.87,3.06 -2.72,5.1 2.21,0 5.27,-2.04 3.74,1.87 -0.51,1.02 -3.23,3.23 -2.04,4.76 1.87,2.38 3.91,-3.06 5.95,-2.38 3.57,1.36 1.19,4.76 -0.85,5.78 -1.02,0.51 -2.38,0.68 -3.23,1.36 -1.87,1.36 -0.85,1.7 -1.02,3.23 -0.17,2.21 -0.17,3.23 -2.38,4.76 -1.53,1.19 -3.91,3.23 -5.61,3.91 -1.02,0.34 -1.53,0.34 -2.72,0.34 -0.34,0 -2.89,-0.679 -3.06,-0.679 -0.17,0 -0.34,0 -0.51,0.169 0,2.891 -1.7,3.06 -4.25,2.55 L 0,0 z"
             style="fill:#f2f2f2;fill-opacity:1;fill-rule:nonzero;stroke:none"
             id="path162" /></g><g
           id="g164"
           transform="translate(94.209,429.7148)"><path
             d="M 0,0 C -0.85,-2.04 2.04,-1.53 3.4,-1.53 2.89,-2.38 1.7,-2.21 0.68,-2.38 1.7,-4.59 5.61,-2.21 6.46,-3.91 5.1,-4.76 2.89,-3.74 2.72,-5.61 2.55,-7.14 4.93,-8.16 6.29,-8.5 c 2.89,-0.68 5.1,1.53 7.99,1.53 1.36,0 2.55,-0.85 3.91,-0.51 -0.34,-0.17 3.23,1.87 3.4,2.04 0.85,1.87 -1.87,2.719 -2.55,3.739 C 17.51,0.51 18.53,1.87 19.55,3.74 17.85,4.59 14.96,4.59 14.11,2.89 13.77,2.209 14.96,-0.681 13.26,-0.51 12.58,-0.34 12.75,1.7 12.07,2.04 11.05,2.72 10.2,1.53 9.52,1.7 7.48,2.209 6.63,4.93 4.59,2.04 L 0,0 z"
             style="fill:#f2f2f2;fill-opacity:1;fill-rule:nonzero;stroke:none"
             id="path166" /></g><g
           id="g168"
           transform="translate(332.8892,361.8848)"><path
             d="M 0,0 C -1.87,2.55 0.85,7.31 3.909,6.63 L 4.25,5.27 C 3.57,4.42 3.06,-4.25 0,0 m -7.99,-12.07 c -1.02,-0.17 -1.53,-0.85 -2.55,-0.34 -3.231,1.19 -0.51,4.42 -1.53,6.8 -1.53,3.91 -7.821,8.67 -1.87,12.24 1.7,1.02 4.93,1.87 5.27,-1.02 0.17,-1.7 -0.85,-1.19 -1.36,-1.87 -0.51,-0.68 -1.53,-1.36 -2.21,-2.21 L -11.391,0 c 0.171,-0.34 0.851,-1.53 0.851,-1.7 1.189,-1.02 2.38,0.17 3.399,-0.85 1.361,-1.53 -0.17,-1.53 -0.509,-2.21 0,-0.34 -0.85,0.17 -1.02,-0.68 -0.171,-0.68 0.68,-1.02 0.85,-1.53 0.341,-1.02 1.53,-2.04 1.53,-3.23 0.17,-2.72 -0.34,-1.53 -1.7,-1.87 m -17.85,8.16 c -1.19,-0.85 -4.421,-0.85 -5.78,-0.34 -2.38,0.68 -3.06,1.53 -5.78,1.19 -0.68,-0.17 -2.209,-0.17 -2.89,-0.51 -1.19,-0.51 -1.021,-0.68 -1.7,-1.36 -0.17,-0.17 -0.511,-1.19 -0.68,-1.36 -0.341,-0.34 -1.36,0 -1.7,-0.51 -0.681,-1.02 -0.34,-1.19 -0.681,-2.55 -0.51,-2.38 -0.34,-3.23 -3.399,-3.23 -4.761,-0.17 -4.761,3.91 -3.571,7.31 1.871,-1.87 2.721,1.02 4.42,1.19 1.531,0 2.721,-2.38 4.59,0 1.531,1.87 -0.678,2.72 -0.169,4.93 0.34,1.36 2.38,3.4 3.06,4.42 0.849,1.87 0.849,3.06 2.38,0.51 0.849,-1.36 0.51,-4.42 3.06,-3.06 2.379,1.36 -1.19,2.89 0.17,4.59 0.68,0.85 4.08,0.51 4.93,0.34 0.17,-1.7 -1.87,-1.7 -2.721,-2.89 l 2.891,-2.72 c 0.17,0 0.17,-0.17 0.34,-0.34 1.7,-1.36 6.12,-3.23 3.23,-5.61 m -29.24,35.53 c -1.7,-1.02 0.51,-5.27 -0.85,-6.46 -1.19,-1.19 -2.549,0.17 -3.4,0 -1.19,-0.17 -2.04,-1.19 -3.23,-1.53 -0.85,-0.34 -2.38,-0.51 -3.23,-0.34 -1.359,0.34 -1.021,2.72 -3.231,1.02 0,2.72 -2.04,8.5 -0.168,10.71 0.509,-1.02 0.168,-2.21 0.509,-3.4 0.51,-1.19 1.7,-1.701 2.04,-2.55 0.85,-2.38 -0.85,-4.25 2.89,-2.89 2.89,0.85 2.89,2.21 3.23,4.759 0.169,1.191 -0.17,2.04 0.51,3.061 0.85,1.36 1.36,0.85 2.209,1.7 1.362,1.36 1.53,0 -0.169,1.7 -0.85,0.85 -1.53,0.17 -2.21,1.53 -1.02,2.38 1.53,4.759 2.72,6.46 1.021,1.87 1.189,4.76 3.399,5.44 3.231,1.02 3.911,-1.7 2.551,-4.08 -1.19,-2.21 -3.57,-2.72 -3.4,-5.78 0.17,-1.02 1.02,-3.06 1.699,-3.74 1.871,-1.87 0.511,-0.34 2.211,0 1.359,0.17 3.909,1.02 5.1,0.34 3.399,-1.7 -1.36,-2.04 -0.85,-4.25 l -2.04,0.34 c 0.51,2.72 -2.891,1.87 -4.08,1.02 0.511,-0.68 2.38,-2.89 1.189,-4.08 -1.53,-1.53 -2.04,1.7 -3.399,1.02 m -2.243,-37.4 -2.007,1.02 c -0.511,2.21 -2.72,2.55 -3.91,4.08 -1.36,1.36 -1.7,3.4 -2.721,4.93 2.551,1.7 4.251,-2.38 5.781,-3.91 1.869,-2.04 3.707,-3.06 2.857,-6.12 m 217.802,55.93 c 3.06,-0.339 5.441,-2.04 8.161,-3.4 0.34,1.7 0.68,3.4 1.36,5.101 -2.72,2.04 -5.44,1.359 -7.48,2.379 -2.38,1.02 -4.081,3.4 -6.8,4.761 -4.76,2.719 -10.54,1.699 -15.3,4.419 0,-1.359 -0.341,-3.06 0.34,-4.419 -4.42,-1.361 -1.7,3.06 -3.4,3.399 -3.06,1.36 -3.4,-1.359 -6.8,-1.7 -4.081,-0.34 -3.4,2.04 -5.1,3.06 -2.38,0.68 -4.08,0.68 -6.46,1.021 -4.421,0.34 -6.8,3.06 -10.541,3.739 -2.039,0.68 -3.739,0 -5.779,0.341 -2.38,0.339 -4.079,1.699 -6.46,1.02 0.341,-0.681 0.679,-2.721 1.36,-3.401 -2.04,-1.02 -7.48,0 -9.52,0.68 0,-0.68 -0.68,-2.039 -0.68,-2.72 -3.06,1.02 -2.72,5.78 -4.421,7.14 -2.039,1.361 -5.779,0.68 -8.159,1.361 0,-0.681 -0.68,-1.361 -0.68,-2.721 -3.059,-1.02 -3.4,1.701 -6.12,2.38 -1.7,0.341 -4.76,0 -6.8,0 -0.34,0.341 0,0.681 -0.34,1.361 C 59.5,73.271 58.479,72.59 57.8,71.23 l -3.74,0 c 1.36,2.38 7.479,4.76 5.44,7.48 -0.68,1.02 -7.48,1.701 -8.84,2.04 -3.4,0.681 -4.761,1.021 -7.82,-0.339 -1.7,-0.681 -2.721,-2.04 -4.42,-2.721 -1.7,-0.339 -3.74,0 -5.441,-0.339 C 27.88,75.99 17.68,73.61 14.28,68.51 11.9,64.771 15.98,56.61 11.9,54.23 c -1.02,3.4 0.34,11.901 -2.72,14.621 -5.781,5.1 -5.1,-6.461 -4.76,-9.86 -6.46,-0.341 -9.521,2.04 -15.98,-0.681 -6.12,-3.06 -9.18,-4.76 -13.94,-0.68 -0.681,-3.4 -1.021,-6.12 -4.42,-8.16 -3.059,-1.36 -6.8,-1.699 -7.14,2.72 8.839,-0.339 2.04,5.44 -2.38,7.48 -3.74,1.7 -7.48,3.06 -11.9,3.06 -10.88,-0.34 -12.24,-6.459 -18.36,-14.28 -2.38,-2.72 -8.84,-8.839 -6.12,-13.26 1.7,-2.719 4.42,2.04 4.42,-2.719 0,0.339 -2.919,-4.323 -2.72,-4.761 2.04,-4.487 -4.76,-4.487 -7.48,-8.5 -2.04,1.02 -1.7,4.42 -2.38,5.78 -0.68,1.7 -3.74,5.1 -4.081,6.12 -0.339,2.72 6.121,7.82 0,7.481 -3.739,0 -5.779,-6.12 -5.439,-9.18 0.34,-3.06 4.702,-6.373 3.06,-9.52 -2.04,-3.911 -0.34,-5.78 4.76,-5.1 0.34,-3.401 -4.08,-2.72 -4.08,-7.141 0,-1.36 2.38,-2.379 1.699,-4.759 -1.02,-3.06 -3.059,-0.341 -5.099,-1.701 -5.44,-3.399 -5.1,-17.679 3.059,-15.3 2.04,0.34 5.781,5.1 7.141,6.8 2.72,3.06 3.74,4.42 6.8,6.121 4.76,2.379 4.76,2.04 8.5,-1.701 2.72,-2.38 6.12,-5.1 3.06,-8.16 3.4,-1.7 5.44,2.381 6.121,4.76 0.678,-2.04 1.699,-4.76 4.418,-3.399 0.681,-3.74 5.781,-5.441 8.161,-3.061 3.06,-1.36 10.2,0.341 12.58,-1.36 1.019,-1.02 1.36,-5.439 0.679,-6.8 -1.7,-2.719 -2.719,-1.36 -5.78,-1.699 -3.739,-0.341 -6.799,0.679 -10.539,1.359 -2.721,0.34 -3.399,1.021 -5.78,0 -0.68,0 0.341,-2.379 -1.361,-2.72 -1.7,-0.34 -2.719,0.341 -4.079,1.02 -3.4,1.7 -7.48,5.441 -9.52,7.14 -2.38,1.7 0,2.72 -4.42,3.401 -2.04,0.68 -5.1,-0.341 -7.14,-1.02 -2.04,-1.02 -3.06,-2.721 -5.44,-3.401 -2.381,-0.34 -5.78,1.361 -7.82,0.341 -4.08,-2.04 -4.42,-10.2 -6.46,-13.261 -2.38,-4.08 -5.78,-6.119 -7.14,-10.88 -0.68,-3.06 -2.04,-10.2 -1.7,-13.26 0.68,-3.4 4.76,-9.52 6.8,-13.259 2.72,-4.08 5.78,-6.8 10.88,-6.461 3.74,0.34 8.84,3.741 12.58,2.72 1.7,-0.68 2.38,-2.72 4.08,-3.74 1.36,-0.34 3.74,0.681 4.76,-0.34 1.02,-1.7 0,-4.08 0.34,-5.439 0.68,-2.721 2.04,-4.08 3.06,-6.461 1.7,-3.4 3.06,-8.16 3.399,-11.9 1.021,-7.82 -4.08,-14.279 -2.379,-21.76 1.02,-4.759 3.4,-6.799 5.78,-11.56 2.379,-4.419 1.36,-10.539 6.459,-11.559 3.741,-0.68 9.52,2.719 11.56,4.42 4.08,3.059 5.101,7.479 7.821,11.559 2.039,3.4 1.701,6.12 3.06,9.521 2.04,4.42 6.12,6.12 7.14,10.54 1.36,6.459 -1.701,13.94 1.02,20.06 3.74,8.839 19.38,17.34 17.34,27.88 -3.4,0.679 -6.801,-2.04 -10.54,-1.361 -3.74,0.68 -2.04,-0.679 -4.08,3.06 -0.68,0.68 0.679,2.04 0.34,3.06 -0.34,1.02 -2.04,2.38 -2.72,3.4 -2.38,4.08 -3.739,8.16 -6.12,11.9 -1.699,3.06 -3.739,10.541 -6.8,11.56 2.04,0.68 12.24,-14.62 14.28,-18.019 1.699,-2.721 2.04,-8.841 4.08,-10.881 3.74,-3.06 6.799,1.7 9.18,4.08 3.061,2.721 7.141,3.741 9.52,6.46 1.36,1.7 2.72,3.74 2.379,5.78 -0.339,3.74 -1.019,1.36 -3.059,3.401 -1.361,2.04 -0.34,3.399 -3.401,3.739 -1.359,0 -2.719,-2.719 -4.08,-2.379 -2.039,0 -5.439,5.099 -5.78,8.16 3.741,1.02 11.9,-6.121 15.301,-7.821 5.099,-2.379 15.979,2.381 17.34,-4.76 -0.34,0 -1.361,0.341 -1.699,0 -1.362,-3.4 4.08,-5.439 4.758,-1.36 1.7,-5.78 4.08,-12.24 6.12,-18.019 1.021,-2.721 2.04,-7.821 5.1,-5.44 2.04,1.359 1.361,7.819 2.04,9.859 1.021,5.101 5.441,11.9 10.541,13.6 9.52,2.721 7.819,-6.8 9.859,-12.24 7.821,5.1 6.121,-3.4 6.461,-9.52 0.34,-4.759 3.06,-10.2 5.78,-14.279 -2.38,2.379 -6.12,6.799 -9.86,6.799 -1.02,-4.08 7.14,-11.219 9.18,-14.28 1.021,-1.7 2.72,-5.78 4.76,-5.78 4.08,-0.679 3.74,4.421 2.381,6.801 -1.021,3.059 -3.402,2.379 -3.402,6.12 -0.34,3.059 2.721,2.379 0.681,6.8 -1.7,3.739 -10.881,10.199 -4.08,14.279 1.7,-5.1 7.139,-2.04 5.78,-8.5 4.42,-0.339 7.14,6.46 5.779,10.54 -1.359,4.08 -9.519,8.5 -2.719,11.901 1.02,-2.72 1.7,-9.861 5.779,-3.06 -3.739,2.719 1.701,4.08 4.08,5.779 2.721,1.7 6.461,5.101 8.16,7.82 2.04,4.08 1.362,7.48 0,10.881 -2.379,5.439 -2.719,5.1 -1.019,10.2 -5.44,1.019 -8.5,2.379 -2.04,6.459 0,-1.699 0,-3.06 -1.021,-4.759 3.74,-3.061 4.761,4.759 9.181,0.339 1.36,-1.7 2.72,-8.5 2.04,-10.199 4.42,-1.02 4.08,4.08 3.4,7.14 -0.68,3.74 -5.099,6.8 -1.7,10.2 0.34,-1.02 1.359,-1.36 2.04,-2.041 3.399,2.72 7.14,7.141 8.16,11.9 0.68,3.401 -0.34,7.481 0.339,10.88 2.04,-3.06 1.361,-13.599 6.12,-12.579 0.681,2.04 -0.34,4.08 -1.359,5.779 l 1.359,0 c 0,3.74 -1.359,9.52 -4.419,12.24 -0.34,-0.679 -1.36,-2.039 -1.701,-2.72 -1.019,3.4 -4.759,3.061 -7.819,2.041 -2.38,7.14 8.16,12.919 13.939,12.24 4.761,-0.681 4.08,-3.401 8.16,0.679 1.021,1.361 -0.679,3.061 2.04,4.081 1.701,0.34 3.401,-1.361 3.741,-2.381 1.7,1.361 6.46,7.82 4.42,0.681 -0.34,-1.701 -2.38,-2.381 -3.4,-3.401 0,0 -4.08,-4.08 -3.74,-3.4 -1.7,-4.419 2.04,-5.78 3.4,-9.859 0.68,-2.721 0,-5.781 1.02,-8.16 1.699,1.02 4.42,6.459 5.1,8.839 0.679,2.04 1.36,2.721 0.679,5.1 -0.339,1.701 -3.059,3.741 -3.059,4.42 -1.021,5.78 7.82,7.481 11.9,5.1 1.019,5.101 6.12,2.381 8.5,5.44 3.4,4.42 -1.7,6.121 -5.44,5.78 3.74,2.72 2.04,2.72 6.459,1.7"
             style="fill:#26c64f;fill-opacity:1;fill-rule:nonzero;stroke:none"
             id="path170" /></g><g
           id="g172"
           transform="translate(505.439,213.0498)"><path
             d="M 0,0 C -0.255,0.851 0,1.785 -0.17,2.636 -0.34,3.4 -1.87,5.951 -2.636,4.761 -3.229,3.74 -1.445,1.785 -1.105,0.936 -0.851,0 -0.765,-1.02 -0.851,-1.869 c 0,-0.426 0.086,-1.021 -0.169,-1.36 -0.509,-0.68 -1.19,0 -1.785,-0.425 -1.19,-0.766 0.34,-1.956 0.51,-2.806 0.17,-0.85 -0.851,-2.89 1.275,-2.21 0.85,0.341 2.041,1.871 2.38,2.636 0.34,0.764 0.17,1.104 0.935,1.699 0.68,0.596 2.21,1.02 2.551,2.04 0.255,0.681 0.084,1.785 -0.851,1.7 C 3.061,-0.68 3.146,-2.805 1.955,-1.444 L 0,0 z"
             style="fill:#26c64f;fill-opacity:1;fill-rule:nonzero;stroke:none"
             id="path174" /></g><g
           id="g176"
           transform="translate(461.1538,205)"><path
             d="M 0,0 C -1.359,0 -2.124,0.455 -1.869,-1.16 -1.785,-1.925 -1.53,-3.471 -1.274,-4.064 -0.085,-6.871 3.825,0 1.955,0 L 0,0 z"
             style="fill:#26c64f;fill-opacity:1;fill-rule:nonzero;stroke:none"
             id="path178" /></g><g
           id="g180"
           transform="translate(499.7437,206.165)"><path
             d="m 0,0 c -1.273,0.353 -1.954,-1.53 -2.55,-2.635 -0.595,-1.104 -0.765,-1.87 -1.785,-2.635 -2.04,-1.445 -5.185,-2.464 -5.949,-5.015 -0.511,-1.529 1.359,-1.955 2.72,-2.124 1.359,-0.086 2.294,0.933 3.06,2.04 0.595,0.933 1.105,2.124 2.209,2.55 1.275,0.423 1.445,-0.341 2.04,1.019 0.255,0.595 0.341,1.105 0.596,1.785 0.255,0.595 0.636,0.941 0.51,1.616 C 0.69,-2.539 0.844,-0.234 0,0"
             style="fill:#26c64f;fill-opacity:1;fill-rule:nonzero;stroke:none"
             id="path182" /></g><g
           id="g184"
           transform="translate(109.2539,445.9077)"><path
             d="M 0,0 C 3.188,2.04 1.147,2.295 -1.53,1.785 -2.805,1.53 -3.188,1.913 -3.57,0.638 -4.08,-0.51 -3.188,-1.913 -1.785,-1.02 L 0,0 z"
             style="fill:#f2f2f2;fill-opacity:1;fill-rule:nonzero;stroke:none"
             id="path186" /></g><g
           id="g188"
           transform="translate(122.8965,447.6929)"><path
             d="M 0,0 C -0.765,1.147 -5.737,4.845 -6.502,1.657 -7.268,-1.147 -2.422,-1.02 -1.02,-1.02 L 0,0 z"
             style="fill:#f2f2f2;fill-opacity:1;fill-rule:nonzero;stroke:none"
             id="path190" /></g><g
           id="g192"
           transform="translate(123.1514,434.0503)"><path
             d="m 0,0 c -1.53,1.785 -2.55,0.382 -3.57,-0.383 -0.51,-0.382 -0.765,0.128 -1.402,-0.51 -0.128,-0.382 0.127,-1.785 0.127,-1.912 -0.383,0.255 -1.147,0.255 -1.53,0.51 -0.637,-2.295 1.785,-2.805 3.442,-2.933 2.04,-0.127 2.678,0.128 2.296,2.55 L 0,0 z"
             style="fill:#f2f2f2;fill-opacity:1;fill-rule:nonzero;stroke:none"
             id="path194" /></g><g
           id="g196"
           transform="translate(100.9663,442.4653)"><path
             d="M 0,0 C 3.06,1.53 -0.255,2.167 -1.785,1.913 -3.188,1.785 -5.737,1.02 -6.63,-0.127 c -0.51,-1.02 -0.51,-1.531 0.765,-1.786 1.53,-0.254 1.148,0.893 2.295,1.275 3.188,1.02 -0.765,-1.657 -0.51,-2.55 2.168,0.638 3.315,-0.382 3.187,2.55 L 0,0 z"
             style="fill:#f2f2f2;fill-opacity:1;fill-rule:nonzero;stroke:none"
             id="path198" /></g><g
           id="g200"
           transform="translate(118.1792,422.5752)"><path
             d="m 0,0 c 0.637,1.147 1.53,0.255 2.295,0.638 1.02,0.509 0.765,0.509 1.402,1.784 0.893,1.913 2.933,2.04 3.315,4.208 0.383,2.04 -0.637,3.06 1.275,4.462 0.893,0.638 3.06,2.04 4.208,1.531 2.55,-1.02 0,-1.913 -1.148,-2.295 C 9.307,9.69 8.415,9.563 8.67,7.268 8.925,4.335 11.857,1.402 7.395,1.02 6.885,1.02 5.992,1.402 5.482,1.147 4.59,0.51 5.227,-0.638 4.59,-1.02 3.952,-1.53 2.04,-1.147 1.275,-1.147 L 0,0 z"
             style="fill:#f2f2f2;fill-opacity:1;fill-rule:nonzero;stroke:none"
             id="path202" /></g><g
           id="g204"
           transform="translate(104.9189,441.8276)"><path
             d="M 0,0 C -0.638,0.383 -0.893,0.765 -0.51,1.53 -2.295,1.913 -1.658,-0.893 -2.295,-1.657 -2.805,-2.422 -5.993,-2.805 -5.737,-3.697 -5.482,-5.1 0.382,-2.933 1.53,-4.208 0.51,-4.845 -0.893,-4.335 -1.913,-5.1 0.765,-5.355 2.167,-4.59 4.462,-4.208 5.61,-4.08 6.375,-4.462 7.14,-3.697 8.415,-2.422 7.013,-1.913 6.63,-1.275 5.993,0.255 5.61,2.55 4.335,0.127 3.953,-0.637 4.717,-1.275 3.953,-1.785 c -0.638,-0.51 -2.678,0 -3.06,0.51 L 0,0 z"
             style="fill:#f2f2f2;fill-opacity:1;fill-rule:nonzero;stroke:none"
             id="path206" /></g><g
           id="g208"
           transform="translate(142.4038,316.4951)"><path
             d="m 0,0 c -2.805,0 -3.315,-0.893 -5.737,-1.402 1.402,-0.893 4.972,-0.893 6.63,-1.02 0.892,0 2.677,-0.383 3.442,0.127 1.53,1.02 -0.255,1.402 -1.53,1.275 L 0,0 z"
             style="fill:#26c64f;fill-opacity:1;fill-rule:nonzero;stroke:none"
             id="path210" /></g><g
           id="g212"
           transform="translate(95.229,123.7168)"><path
             d="m 0,0 c -0.34,3.74 3.06,3.06 5.78,2.719 1.02,0 2.38,-1.021 2.72,-1.021 0.68,0 3.4,1.02 2.72,1.361 1.02,-0.341 4.76,-1.362 5.78,-1.021 6.12,0.68 0.241,2.04 2.622,5.441 4.76,6.459 23.482,-6.46 29.482,-4.081 1,0 0,1.02 0,1.02 2,0.681 2.818,1.359 2.138,3.74 2.039,-0.341 4.129,-1.36 5.829,-2.72 0.34,2.041 -2.015,8.16 -2.696,10.2 2.041,0.34 4.433,0 6.473,1.02 2.38,1.7 1.365,4.76 3.066,6.46 1.7,2.04 9.863,7.14 12.923,7.14 0.68,-3.4 -3.058,-4.08 -4.078,-7.14 -1.02,-2.72 0.34,-4.76 0.68,-7.48 C 74.119,11.558 75.14,6.461 74.8,2.381 74.12,-4.76 68.68,-2.717 62.22,-2.717 L 1.7,-2.717 0,0 z"
             style="fill:#f2f2f2;fill-opacity:1;fill-rule:nonzero;stroke:none"
             id="path214" /></g><g
           id="g216"
           transform="translate(222.0493,123.7148)"><path
             d="m 0,0 c -1.02,8.5 17.68,12.24 23.46,13.6 8.16,2.04 19.04,-0.339 27.54,0.339 3.4,0.341 7.141,-0.339 10.2,0 1.699,0 3.061,0 4.42,0.341 0.681,0 2.72,0.34 2.72,0.34 0.34,0 3.06,2.38 2.38,2.72 2.72,-0.34 3.06,-3.06 5.44,-3.74 3.74,-0.339 1.7,2.04 4.42,3.06 3.739,2.04 9.181,1.7 12.24,3.74 2.04,1.36 1.02,2.72 3.4,3.74 1.7,0.68 4.42,0 5.44,0 -0.34,-5.1 8.5,-4.08 11.9,-4.76 5.78,-0.68 9.86,-5.78 14.961,-4.76 1.019,0.34 7.479,3.06 8.16,3.4 1.359,1.36 0,3.74 1.359,4.42 1.02,1.02 3.74,0 5.1,0 5.1,0.34 13.26,-2.04 15.639,3.74 2.721,-2.38 8.501,-1.36 11.561,-2.38 2.38,-0.68 2.38,-2.04 5.44,-2.04 1.36,0 1.02,2.38 2.38,2.38 1.7,0 2.38,-1.36 3.74,-1.36 5.781,-0.68 8.499,1.02 13.6,0 4.42,-1.02 2.04,-0.68 6.12,0.34 3.06,0.68 4.76,0.34 6.46,2.72 1.021,-5.78 6.8,-3.4 10.2,-4.42 2.38,-0.68 3.4,-3.06 6.46,-3.4 2.38,-0.68 4.76,0.68 7.14,-0.34 2.38,-0.68 3.74,-3.4 5.439,-4.419 2.381,-1.021 4.08,-0.681 6.461,-1.362 7.48,-2.379 3.74,-3.739 -0.341,-6.798 -4.08,-2.721 -4.758,-7.481 -10.2,-8.161 C 229.5,-3.4 6.46,-4.08 1.02,-3.06 L 0,0 z"
             style="fill:#f2f2f2;fill-opacity:1;fill-rule:nonzero;stroke:none"
             id="path218" /></g><g
           id="g220"
           transform="translate(893.5093,269.915)"><path
             d="m 0,0 c -2.721,0.68 -5.78,1.36 -7.479,-1.359 4.758,-1.702 11.219,-3.401 15.978,-4.08 4.421,-0.681 14.28,-2.38 16.32,1.7 C 19.38,-2.38 12.92,-4.08 7.479,-2.38 c 0,0.681 0,1.021 0.341,1.7 -2.04,0.34 -4.421,0.34 -6.461,1.021 L 0,0 z"
             style="fill:#26c64f;fill-opacity:1;fill-rule:nonzero;stroke:none"
             id="path222" /></g><g
           id="g224"
           transform="translate(495.7095,388.7461)"><path
             d="M 0,0 C -0.352,-0.117 -0.578,-0.339 -0.764,-0.609 -0.373,-0.36 0.027,-0.147 0.447,0.004 0.298,0.021 0.148,0.021 0,0"
             style="fill:#8e8e8e;fill-opacity:1;fill-rule:nonzero;stroke:none"
             id="path226" /></g><g
           id="g228"
           transform="translate(483.4692,383.1357)"><path
             d="m 0,0 c -3.061,-1.7 -5.951,-1.36 -8.84,-3.74 l 6.119,1.87 c 0.17,0.17 0.341,0.17 0.341,0.34 3.569,3.23 9.35,1.19 12.75,4.76 0.558,0.557 0.753,1.257 1.107,1.771 C 10.523,4.395 9.63,3.594 8.67,3.06 5.779,1.36 2.89,1.7 0,0"
             style="fill:#26c64f;fill-opacity:1;fill-rule:nonzero;stroke:none"
             id="path230" /></g><g
           id="g232"
           transform="translate(605.189,370.7256)"><path
             d="m 0,0 -1.87,-1.02 c -1.02,0.17 -1.529,0.51 -1.87,1.53 -1.7,-0.85 -3.909,-1.36 -5.95,-1.53 0,1.53 1.531,1.87 2.72,2.55 0.85,0.51 2.55,2.55 3.23,2.72 1.02,0.34 2.719,-1.19 3.059,-1.7 C 0,1.7 1.36,2.04 0,0 m 46.069,3.4 c -0.849,2.04 -2.039,1.19 -2.718,2.38 -0.51,0.68 -0.51,1.87 -0.51,2.89 -0.171,0.51 -0.511,0.85 -0.511,1.53 -0.171,0.68 1.021,1.19 0.85,1.7 -0.68,2.89 -3.74,2.55 -5.781,2.55 0.851,0.17 2.891,0.17 3.231,1.19 0.51,1.7 -1.02,0.68 -1.869,1.19 -1.532,1.191 -3.91,2.04 -2.381,4.59 -2.21,1.87 -2.21,6.12 -4.25,8.16 -0.17,-2.55 -2.721,-6.97 -5.609,-3.91 -0.851,1.02 -0.34,2.21 -0.51,3.23 -0.511,2.04 -0.341,1.36 -1.532,2.38 -1.699,1.7 -2.548,3.06 -4.929,3.23 -3.571,0.17 -3.74,-0.68 -4.08,-3.4 C 15.13,29.24 14.45,27.88 13.94,25.84 13.261,23.8 14.62,22.27 14.11,20.4 13.6,17.85 10.88,18.19 10.2,16.15 9.521,14.79 10.88,12.41 10.37,10.88 9.69,8.33 7.819,7.99 7.14,10.54 6.8,11.9 7.31,14.11 7.14,15.47 6.8,17 7.65,16.49 6.46,17.68 5.61,18.36 4.25,18.36 3.399,18.7 1.36,19.38 -0.34,20.4 -2.55,21.25 c -0.17,0 -3.06,0.68 -3.06,0.85 -0.68,0.51 0,1.7 -0.51,2.21 -0.68,1.02 -1.87,0.68 -2.21,1.53 -0.511,1.36 0.51,2.38 1.19,3.4 1.02,1.87 2.72,3.91 4.25,5.44 1.53,1.87 3.571,2.04 5.27,3.57 1.529,1.53 3.23,4.08 3.23,0.68 0,-1.02 -1.53,-1.53 -0.85,-2.89 0.85,-2.04 1.87,-0.51 2.89,0 1.02,0.68 1.19,1.36 2.38,1.7 1.02,0.51 3.231,-0.68 2.38,1.36 -0.511,1.19 -2.38,0.85 -3.059,1.53 -0.851,0.68 -1.362,2.04 -1.872,2.72 1.191,1.36 3.231,0.68 4.42,1.53 0.851,0.68 2.381,4.08 2.211,5.1 -0.17,1.36 -3.06,3.06 -4.42,2.72 -2.55,-0.68 -1.02,-3.74 -3.06,-4.93 0.17,1.36 0,2.89 -1.7,3.23 -1.021,-3.06 -2.38,0.17 -2.72,0.51 -1.189,0.51 -0.17,0.34 -1.699,0.51 -0.341,0 -2.551,-0.68 -2.721,-0.68 -1.189,-1.02 -0.34,-3.4 -1.87,-4.25 -2.89,-1.7 -1.7,1.19 -2.89,1.87 -2.21,1.36 -5.269,-1.53 -7.99,-0.85 -1.7,0.51 -2.721,2.55 -4.76,1.7 -2.04,-0.85 -1.36,-2.21 -2.21,-3.91 -1.19,4.76 -6.29,-0.17 -9.01,2.55 4.419,1.53 -4.93,3.91 -6.799,4.08 -2.381,0.17 -3.571,0 -5.101,0.51 -0.171,0 -0.85,-0.85 -1.36,-0.85 -0.68,0.17 -0.51,1.19 -0.85,1.19 -1.53,0.51 -1.359,0.68 -3.06,0.34 -2.379,-0.51 -4.59,-1.19 -6.97,-1.7 -0.851,-0.17 -2.72,-0.85 -3.569,-0.85 -1.531,0.17 -1.361,0.85 -2.721,1.36 -2.21,0.85 -4.76,0.51 -7.141,1.02 -2.549,0.34 -4.76,1.36 -7.308,1.19 -2.891,-0.17 -4.25,0.68 -6.971,1.19 -1.869,0.17 -4.08,-0.34 -5.949,-0.85 -2.551,-0.68 -4.08,-2.55 -6.291,-3.74 -1.53,-0.85 -2.55,-0.34 -2.72,-2.21 -0.17,-1.36 0.68,-2.55 1.87,-2.89 0,1.19 0.85,1.87 1.869,1.53 -0.51,-1.19 -0.679,-2.55 0.681,-3.229 -2.38,-3.061 -7.82,3.059 -9.521,-1.701 0,0.17 0.68,-3.06 0.68,-2.89 0.852,-1.02 0.852,-0.85 2.211,-1.02 1.53,-0.17 2.72,0.34 3.91,1.02 0,-3.4 -2.721,-3.57 -5.269,-4.08 -2.891,-0.85 -4.761,-2.72 -1.021,-4.42 -2.04,0 -3.229,-2.04 -1.19,-3.57 2.38,-1.7 1.19,2.04 3.23,1.53 -0.17,-1.87 -1.871,-3.74 0.34,-4.59 1.869,-0.68 2.89,1.87 4.59,0.68 -1.529,-2.38 -5.78,-5.78 -8.5,-7.14 -1.87,-0.85 -2.891,0.17 -4.59,-0.17 -0.195,-0.039 -0.385,-0.098 -0.572,-0.165 1.041,-0.115 2.081,-1.025 3.122,-1.025 1.53,0 4.251,1.36 5.61,2.041 2.04,1.019 3.401,2.379 5.61,3.059 2.72,0.85 4.589,1.53 5.951,4.25 0.849,1.36 1.869,6.29 4.08,5.441 2.719,-1.191 -2.891,-3.571 -2.211,-5.101 1.53,0.34 4.93,0.51 6.29,1.53 2.21,2.04 -0.51,5.1 3.57,2.72 1.191,-0.85 2.21,-1.87 3.4,-2.55 1.02,-0.68 2.381,-0.85 3.23,-1.36 2.891,-1.87 2.891,-3.06 5.95,-0.17 l 0.51,-1.02 1.36,-1.7 c 1.87,-4.93 3.741,-9.52 3.741,-14.96 0,-1.02 -0.171,-2.21 0,-3.4 0.34,-2.04 1.529,-2.55 2.379,-4.25 0.68,-1.87 0.85,-6.12 0.509,-7.82 -0.849,-5.95 -3.398,-15.81 2.381,-20.06 2.04,-1.53 2.72,-1.7 3.061,-4.42 0.34,-2.21 0.51,-3.06 1.699,-5.1 2.211,-3.4 3.4,-9.52 7.141,-11.56 0.849,2.38 -1.361,5.44 -2.211,7.48 -0.85,2.21 -3.911,5.78 -3.06,7.82 2.38,-1.19 2.55,-4.08 4.08,-5.95 1.53,-1.53 3.569,-2.89 4.76,-4.76 1.36,-2.21 1.53,-4.76 1.7,-7.31 0.17,-3.23 1.19,-3.57 3.57,-5.44 2.379,-1.7 4.25,-2.89 6.97,-4.08 0.681,-0.34 2.38,-1.87 3.06,-1.7 1.53,0.17 1.02,1.87 2.72,1.87 1.7,-0.17 4.93,-4.08 6.459,-5.1 2.721,-1.359 4.251,-2.72 5.782,-5.27 0.679,-1.19 1.189,-2.891 2.209,-3.74 1.19,-1.361 0.679,-0.681 2.211,-1.02 1.699,-0.341 5.609,-0.341 4.42,2.209 -3.571,-2.55 -3.911,2.721 -3.741,5.101 0.17,2.38 1.02,3.74 -1.19,5.44 -1.87,1.36 -5.95,-0.17 -6.63,0.68 -0.85,1.02 1.53,5.44 1.36,7.14 l 0,2.21 c -1.53,-0.51 -3.23,-0.17 -4.76,-0.85 -0.34,-0.17 -0.17,-1.19 -0.68,-1.53 -0.34,-0.17 -0.85,0.17 -1.19,0 -0.339,-0.17 -1.871,-0.85 -2.55,-0.85 -4.93,-0.68 -3.911,3.57 -4.25,7.14 -0.34,2.72 -0.34,7.31 0.85,9.69 1.19,2.04 2.55,2.21 4.42,2.38 1.7,0.17 4.76,-1.53 5.95,-1.19 1.7,0.34 0.51,1.7 1.869,2.38 0.851,0.51 2.381,-0.17 3.061,-0.34 2.55,-0.17 4.42,-0.17 5.439,-2.89 0.511,-1.7 -0.169,-3.57 0.511,-5.1 1.7,-3.23 3.23,-1.02 2.72,1.87 -0.51,4.93 0.17,8.5 3.23,12.75 1.19,1.36 4.42,3.23 5.1,4.93 0.68,1.7 -1.53,3.91 0.85,5.27 0.17,-0.17 0.339,-0.51 0.509,-0.85 0.511,1.7 3.061,5.27 4.591,6.12 2.38,1.36 5.611,-0.34 2.89,3.91 2.38,0.51 4.42,2.21 6.631,3.06 -0.171,-0.85 0.17,-1.7 0,-2.38 0.849,0.851 2.549,2.89 3.569,3.4 2.04,0.85 4.42,-0.34 5.78,2.04 -1.36,2.04 -2.21,0.17 -4.08,0.51 -2.04,0.51 -1.7,1.87 -2.381,3.4 C 28.05,2.89 28.39,3.23 26.35,3.4 25.16,3.57 23.29,2.72 22.61,1.7 c 2.72,3.571 3.911,4.08 8.5,4.42 3.06,0.34 6.119,1.53 9.18,1.87 0.51,-2.55 -3.91,-4.08 -2.55,-6.29 0.51,-0.68 2.04,0.17 2.55,-0.34 0.85,-0.68 -0.51,-2.04 0.68,-2.72 2.21,3.57 4.08,-2.21 5.269,1.7 0.171,0.68 0,2.38 -0.17,3.06"
             style="fill:#26c64f;fill-opacity:1;fill-rule:nonzero;stroke:none"
             id="path234" /></g><g
           id="g236"
           transform="translate(896.7397,234.0449)"><path
             d="m 0,0 c -0.341,0.17 -1.53,0.34 -1.871,0.51 -0.68,-1.87 1.7,-3.739 2.04,-5.44 0.341,-1.53 0.51,-3.57 0.681,-4.929 0.17,-3.402 -3.061,-9.351 2.889,-6.971 2.21,0.851 3.74,1.019 6.46,1.19 2.89,0.17 3.23,2.21 5.78,2.89 0.85,0.34 1.871,-0.17 2.72,0 1.36,0.34 1.87,1.189 3.571,1.189 3.23,0 4.08,-2.21 5.949,-3.909 3.06,-3.059 1.02,1.19 3.57,1.531 3.231,0.509 -0.68,-5.442 -0.68,-5.611 0.85,0 2.89,0.85 3.571,0.169 0.849,-0.679 -0.171,-2.55 0.849,-3.569 1.7,-1.699 4.08,0.17 5.95,0 1.02,-0.17 1.701,-1.19 2.89,-1.19 1.021,0 2.38,0.85 3.401,1.19 3.059,1.019 2.549,1.36 3.399,4.421 0.851,2.55 3.4,3.399 4.421,5.949 0.51,1.7 0.169,3.74 0.679,5.439 0.85,3.231 4.59,6.461 2.21,9.351 -0.509,0.51 -1.7,0.34 -2.379,1.359 -0.17,0.511 0.169,1.191 0,1.701 -0.341,1.53 0,3.57 -2.381,2.55 -0.34,0.85 -0.34,1.869 -0.679,2.72 -0.171,0.51 -0.171,1.36 -0.511,1.87 -0.341,0.51 -1.36,0.17 -1.7,0.51 -0.85,1.359 -1.019,3.57 -1.19,5.27 -0.169,1.02 -0.34,2.55 -0.85,3.571 -0.34,0.51 -1.359,0.169 -1.53,0.849 -0.339,0.68 0,1.36 -0.17,1.869 -0.51,1.191 0,1.872 -1.36,2.381 -2.21,1.19 -2.04,-0.68 -2.379,-2.04 -0.51,-1.7 -0.341,-3.23 -0.51,-4.93 -0.341,-3.23 -1.021,-3.74 -3.402,-2.72 0.341,-0.17 -1.019,0.85 -1.019,0.85 -0.34,0.17 -1.19,-0.17 -1.53,0.17 -0.51,0.169 -2.209,2.04 -2.209,2.55 0,0.68 1.699,0.34 2.04,1.36 0.34,1.02 -1.531,1.53 -0.171,2.889 -1.191,1.021 -2.04,0.341 -3.4,0.681 -1.19,0.34 -2.21,1.53 -3.4,1.53 0,0 -3.061,-1.02 -2.55,-0.68 -0.511,-0.34 -1.02,0.509 -1.53,-0.68 -0.51,-0.851 1.019,-1.19 1.019,-2.04 C 26.52,22.949 25.329,20.399 24.31,20.23 22.779,20.06 22.439,22.78 20.739,22.1 19.89,21.93 20.059,20.74 19.549,20.23 19.38,20.06 18.019,19.38 17.85,19.21 16.999,18.359 16.659,16.66 15.129,16.66 13.77,20.57 13.26,13.77 13.089,13.26 12.069,11.729 8.67,11.05 6.97,10.54 5.1,10.03 3.569,10.199 2.04,8.84 0.85,7.82 -1.19,5.27 -0.341,3.74 L 0,0 z"
             style="fill:#26c64f;fill-opacity:1;fill-rule:nonzero;stroke:none"
             id="path238" /></g><g
           id="g240"
           transform="translate(908.4692,316.1558)"><path
             d="m 0,0 c 0.17,-2.04 -1.19,-3.57 -0.851,-5.61 0.341,-2.21 1.872,-3.4 1.701,-5.44 0.849,0.68 1.359,0.51 2.211,0.17 -0.171,-1.36 -1.191,-3.74 -0.511,-4.93 2.21,2.89 3.91,1.19 2.38,-2.041 0.34,0.17 1.53,-0.17 1.87,0 0.17,-1.53 -1.53,-3.061 -2.21,-4.42 1.189,-1.359 1.02,-1.359 2.21,-1.19 0.17,0 0.679,3.23 2.04,0.509 0,2.211 -0.34,4.591 -0.85,6.632 -0.511,2.04 -1.87,3.4 -3.06,4.93 -1.02,1.53 -4.25,3.23 -4.25,5.1 0,1.02 1.7,1.53 1.529,3.23 C 2.04,-1.7 0.68,-1.19 0.68,0.34 L 0,0 z"
             style="fill:#26c64f;fill-opacity:1;fill-rule:nonzero;stroke:none"
             id="path242" /></g><g
           id="g244"
           transform="translate(937.1987,364.4355)"><path
             d="m 0,0 c -2.89,-0.85 -4.249,1.7 -6.8,1.53 -0.17,-1.36 -1.36,-3.74 -1.36,-5.1 0,-1.02 0.85,-1.53 0.85,-2.04 0.17,-1.02 0,-1.7 0,-2.89 0,-2.21 1.021,-6.29 -2.04,-6.63 -0.17,0.34 -0.17,0.68 -0.17,0.85 -1.36,-0.85 -1.53,-2.21 -3.06,-3.06 -0.51,-0.34 -1.529,0 -2.21,-0.68 -0.34,-0.34 0,-1.7 -0.51,-2.38 -1.189,-1.19 -2.889,-0.68 -3.57,-2.55 -0.51,-1.19 0.681,-3.74 1.019,-4.93 0.852,1.19 0.681,2.55 0.681,3.74 3.74,0 2.38,4.42 4.761,4.25 0.169,-1.36 1.529,-2.04 3.059,-1.53 1.7,0.68 0.85,1.7 1.871,3.06 1.359,1.87 1.869,0.34 2.04,3.23 0.169,0.34 -0.171,1.02 -0.171,1.53 0.171,0.68 1.02,1.36 1.19,2.04 0.34,1.7 -0.17,3.06 -0.85,4.42 -0.509,0.85 -2.549,2.38 -2.209,3.57 0.679,2.55 2.378,-0.34 3.399,-0.34 1.7,0 2.381,1.87 3.911,2.21 L 0,0 z"
             style="fill:#26c64f;fill-opacity:1;fill-rule:nonzero;stroke:none"
             id="path246" /></g><g
           id="g248"
           transform="translate(903.7095,293.375)"><path
             d="m 0,0 c -0.34,-2.04 -2.891,-3.061 -4.08,-4.59 -0.511,-0.849 -1.021,-1.87 -1.53,-2.551 -0.51,-0.509 -1.36,0 -1.701,-0.509 -0.339,-0.17 -0.339,-1.36 -0.679,-1.53 -0.681,-0.34 -2.381,0.339 -2.891,-0.171 -0.68,-0.509 -0.68,-3.059 -0.51,-3.739 0.17,-1.019 2.55,-4.59 3.401,-4.931 0.679,-0.339 1.53,0.51 2.209,0.341 1.19,-0.341 2.211,-1.53 3.401,-1.19 1.19,0.51 3.23,4.59 3.569,5.439 0.17,0.341 -0.339,1.021 -0.169,1.362 0,0.509 1.019,0.849 1.019,0.849 0.171,1.7 -0.339,1.191 -0.85,2.55 -0.509,2.38 -0.169,4.25 2.04,5.609 -0.509,0.34 -1.36,0.85 -2.04,0.85 L 0,0 z"
             style="fill:#26c64f;fill-opacity:1;fill-rule:nonzero;stroke:none"
             id="path250" /></g><g
           id="g252"
           transform="translate(900.479,440.2554)"><path
             d="m 0,0 c 0.17,-3.91 7.649,-2.89 9.86,-2.72 1.02,0.17 1.36,0.85 2.379,0.85 1.021,-0.17 1.701,-1.19 2.551,-1.19 1.7,-0.34 4.76,0.51 4.931,2.55 C 18.359,0 16.49,-0.34 14.96,-0.34 13.43,-0.51 12.239,-1.19 11.051,-1.36 9.35,-1.53 4.25,-0.17 2.891,1.02 L 0,0 z"
             style="fill:#f2f2f2;fill-opacity:1;fill-rule:nonzero;stroke:none"
             id="path254" /></g><g
           id="g256"
           transform="translate(907.1089,326.6958)"><path
             d="M 0,0 C -1.269,-0.521 -2.04,-4.76 -0.17,-5.44 1.36,-6.12 2.981,-2.912 2.381,-1.87 2.003,-1.215 0.699,0.288 0,0"
             style="fill:#26c64f;fill-opacity:1;fill-rule:nonzero;stroke:none"
             id="path258" /></g><g
           id="g260"
           transform="translate(932.269,276.0352)"><path
             d="M 0,0 C -3.23,-0.85 -1.359,3.74 -4.59,4.08 -5.95,4.25 -7.14,4.25 -6.801,2.72 -6.63,2.04 -5.271,2.55 -5.1,2.21 -4.93,1.7 -4.761,0.34 -4.59,0.17 c 0.85,-1.87 -0.171,-0.851 1.7,-1.87 1.36,-0.68 2.209,-0.851 3.571,-1.87 2.718,-2.21 4.59,-3.231 3.228,-6.801 1.53,-0.339 3.741,-1.359 5.442,-0.85 2.04,0.681 2.549,3.401 5.439,2.04 1.359,-0.509 4.76,-6.12 6.12,-3.059 1.36,2.889 -4.93,2.04 -3.57,4.761 0.849,1.699 4.42,0.509 5.78,2.039 3.23,3.74 -2.381,1.7 -3.74,1.36 -3.4,-1.191 -2.721,0.34 -5.271,2.04 C 12.75,-1.021 10.54,-0.34 8.84,0.51 7.14,1.529 3.74,4.419 2.38,1.7 L 0,0 z"
             style="fill:#26c64f;fill-opacity:1;fill-rule:nonzero;stroke:none"
             id="path262" /></g><g
           id="g264"
           transform="translate(915.9487,288.9551)"><path
             d="m 0,0 c 0,-2.04 0.34,-3.74 -1.529,-4.76 -1.021,-0.68 -2.211,0 -3.231,-0.511 -1.189,-0.509 -0.679,-1.019 -1.36,-1.869 -1.529,-2.04 -2.379,-2.72 -2.55,-5.27 0,-1.7 -0.681,-4.93 0.85,-5.78 0.341,1.19 0.85,2.21 1.02,3.57 2.21,-3.061 3.06,-0.68 2.381,1.87 2.55,-1.02 3.399,-2.04 6.119,-2.21 1.361,0 7.651,-1.7 6.29,0.85 -0.511,0.85 -2.889,0 -3.57,0.679 -2.04,1.361 -0.34,1.531 0.17,3.231 0.511,1.699 1.19,4.76 0.681,6.63 -4.25,-1.19 0.339,-8.159 -4.421,-9.35 -1.53,-0.34 -3.74,0.51 -4.419,1.7 -0.171,0.679 2.21,1.02 0.849,2.04 -0.51,0.34 -2.551,-0.68 -3.06,-0.85 -0.51,2.21 3.74,2.04 5.1,3.059 2.21,1.531 2.21,3.061 2.21,5.611 L 0,0 z"
             style="fill:#26c64f;fill-opacity:1;fill-rule:nonzero;stroke:none"
             id="path266" /></g><g
           id="g268"
           transform="translate(847.9487,297.7949)"><path
             d="m 0,0 c -1.53,-1.699 -1.699,-4.93 0.51,-5.95 3.74,-1.53 2.72,2.889 1.19,4.59 L 0,0 z"
             style="fill:#26c64f;fill-opacity:1;fill-rule:nonzero;stroke:none"
             id="path270" /></g><g
           id="g272"
           transform="translate(801.0298,261.0742)"><path
             d="m 0,0 c -5.028,-2.539 -4.761,-6.289 -7.311,-10.369 -1.7,-2.55 0,-4.421 -0.169,-6.63 -0.17,-1.7 -1.361,-3.23 -1.361,-4.931 0,-1.019 0.34,-4.249 1.191,-4.59 2.21,-1.189 3.57,2.891 4.25,4.25 2.379,3.571 2.549,7.48 3.91,11.56 0.849,2.721 2.52,6.636 1.02,9.351 C 1.283,-0.912 0.456,0.231 0,0"
             style="fill:#26c64f;fill-opacity:1;fill-rule:nonzero;stroke:none"
             id="path274" /></g><g
           id="g276"
           transform="translate(851.8589,445.1855)"><path
             d="M 0,0 C 1.53,1.53 6.291,-0.34 6.12,2.38 4.93,2.89 3.741,2.89 2.721,2.38 3.061,3.23 4.08,6.12 1.53,4.76 0.34,4.08 0.34,1.53 -0.85,0.17 L 0,0 z"
             style="fill:#f2f2f2;fill-opacity:1;fill-rule:nonzero;stroke:none"
             id="path278" /></g><g
           id="g280"
           transform="translate(801.1987,425.8057)"><path
             d="m 0,0 c -0.85,1.53 -2.719,3.74 -1.699,5.61 0.51,1.36 3.91,4.59 5.1,5.44 1.53,1.02 3.74,0.85 5.44,1.7 2.04,1.02 5.439,3.91 1.529,4.25 C 8.501,17.17 6.461,15.64 4.59,15.3 2.04,14.96 1.871,15.13 0,13.43 -2.209,11.22 -7.31,5.78 -6.63,2.21 -6.289,0.51 -4.93,0 -3.06,0.17 L 0,0 z"
             style="fill:#f2f2f2;fill-opacity:1;fill-rule:nonzero;stroke:none"
             id="path282" /></g><g
           id="g284"
           transform="translate(841.4888,451.9858)"><path
             d="M 0,0 C 1.361,-0.17 3.4,-0.17 4.421,0.68 6.291,2.04 5.951,3.57 3.911,3.74 1.021,3.91 -4.08,0.68 -0.34,-1.87 0,-2.21 2.721,-2.72 2.891,-2.72 3.74,-2.89 6.63,-3.57 7.48,-3.23 c 1.871,0.85 1.531,2.72 -0.509,3.06 -0.51,0 -1.531,-1.02 -2.21,-1.02 -0.85,-0.17 -1.87,0.17 -2.721,0.34 L 0,0 z"
             style="fill:#f2f2f2;fill-opacity:1;fill-rule:nonzero;stroke:none"
             id="path286" /></g><g
           id="g288"
           transform="translate(805.9595,455.8955)"><path
             d="m 0,0 c -1.19,-1.36 -3.23,0 -4.761,-0.34 -1.699,-0.34 -2.718,-2.04 -4.419,-1.53 2.379,5.95 -4.08,0.34 -3.91,-1.7 1.19,1.36 2.209,0 3.739,-0.17 0.51,0 1.021,0.51 1.361,0.51 0.34,-0.17 2.21,-1.53 1.87,-1.53 1.53,0.17 1.87,1.36 3.399,2.04 1.191,0.68 2.381,-0.34 3.061,1.53 L 0,0 z"
             style="fill:#f2f2f2;fill-opacity:1;fill-rule:nonzero;stroke:none"
             id="path290" /></g><g
           id="g292"
           transform="translate(748.3296,451.4756)"><path
             d="m 0,0 c -0.511,0.34 -1.36,0.34 -2.04,0.68 -0.171,-1.19 0.17,-2.21 0,-3.23 C -2.89,-1.53 -3.4,0 -4.761,-1.36 -5.78,0.34 -8.16,0.17 -8.16,-1.7 c 0.17,-2.04 3.059,-2.38 3.909,-2.55 0.681,-0.17 1.53,1.19 2.211,-0.17 0.85,-1.87 -1.53,-1.36 -1.7,-1.87 -0.34,-1.53 1.36,-2.72 3.229,-2.55 -0.17,0.68 -0.17,1.7 -0.51,2.55 C 0.85,-5.95 0.51,-4.08 2.21,-3.74 3.399,-3.57 3.399,-6.12 5.1,-4.59 5.609,-5.95 4.08,-6.8 2.72,-6.8 2.55,-9.01 5.78,-8.16 6.63,-6.97 c 0.34,-0.17 0.849,-0.34 1.019,-0.51 1.531,2.89 -1.359,3.4 -2.04,5.44 1.87,0.51 3.401,1.02 4.93,1.7 C 10.71,0.68 7.82,1.36 6.63,1.02 5.439,0.51 4.93,-1.87 3.399,-2.38 -1.7,-3.74 5.609,0.85 2.89,2.38 2.38,1.87 1.869,1.36 1.529,0.68 L 0,0 z"
             style="fill:#f2f2f2;fill-opacity:1;fill-rule:nonzero;stroke:none"
             id="path294" /></g><g
           id="g296"
           transform="translate(785.73,454.7056)"><path
             d="m 0,0 c -1.19,-0.17 -2.211,-1.02 -3.23,-1.36 1.19,-0.85 2.889,0 4.419,0 0,-0.34 0.34,-0.68 0.17,-1.19 0.681,0 0.85,0 1.191,0.51 C 2.719,-2.21 2.89,-2.21 3.06,-2.38 4.08,-0.85 2.379,1.02 1.869,2.04 1.529,1.7 1.699,1.53 1.529,1.36 L 0,0 z"
             style="fill:#f2f2f2;fill-opacity:1;fill-rule:nonzero;stroke:none"
             id="path298" /></g><g
           id="g300"
           transform="translate(704.979,415.0957)"><path
             d="m 0,0 c -1.359,-1.87 -2.21,-1.02 -4.42,-1.02 -1.36,0 -0.68,-1.36 -2.38,-0.68 -1.02,0.34 -1.53,0.51 -1.02,1.869 -2.379,1.361 -1.02,-3.229 -2.55,-4.419 1.53,0.17 2.72,-0.318 2.38,-2.018 1.02,-0.51 2.041,-0.828 3.23,-0.828 l 2.21,0 c 1.021,0 1.021,0.828 1.87,1.168 0.85,0.341 2.89,0.754 3.231,1.604 0.679,1.36 -1.362,2.162 -1.362,3.692 L 0,0 z"
             style="fill:#f2f2f2;fill-opacity:1;fill-rule:nonzero;stroke:none"
             id="path302" /></g><g
           id="g304"
           transform="translate(646.6685,452.6655)"><path
             d="m 0,0 c 0,-3.06 -3.229,-1.7 -4.93,-2.38 -1.189,-0.51 -1.019,-1.36 -2.21,-1.87 -0.85,-0.34 -2.38,0.51 -3.059,0 -4.42,-2.55 6.289,-3.4 6.63,-4.08 -1.701,-0.51 -6.12,1.19 -6.29,-1.53 0.509,-0.17 1.869,-0.17 2.21,-0.34 0.339,-0.34 0.679,-1.36 1.02,-1.53 1.699,-1.02 2.039,-1.02 3.91,-0.68 1.869,0.34 2.379,1.19 4.59,0 1.359,-0.509 2.379,-1.529 3.569,-2.38 1.021,-0.68 2.55,-1.189 3.23,-2.21 0.681,-1.36 0,-3.74 0.341,-5.27 0,-0.17 -0.171,-1.36 0,-1.7 0.679,-0.85 1.02,0.34 1.53,0 1.189,-0.85 2.209,-1.19 2.72,-2.89 -1.7,-0.34 -3.571,1.36 -4.591,-0.51 -2.039,-3.57 2.211,-2.04 3.57,-1.87 1.531,-3.23 -2.039,-3.23 -2.889,-5.61 -0.851,-1.87 -0.17,-4.42 0.509,-6.12 1.021,-2.04 2.04,-4.42 3.231,-6.63 0.68,-1.53 1.02,-1.7 2.21,-2.549 0.34,-0.341 2.209,-1.701 2.889,-1.871 2.55,-1.189 2.89,1.871 4.081,4.08 1.02,2.04 2.04,3.74 3.059,5.61 1.87,4.08 7.311,3.911 10.711,6.8 2.72,2.38 3.909,2.04 7.649,2.72 2.55,0.51 6.29,2.89 7.14,5.44 -2.21,0.681 -4.25,-0.51 -6.119,-0.85 1.019,1.87 1.529,3.06 -1.021,3.91 1.021,0.34 3.06,-1.19 4.081,-1.7 1.02,-0.34 2.549,-0.679 3.57,-1.02 1.7,3.74 -4.761,4.25 -0.171,7.99 2.721,1.87 1.701,1.02 1.53,4.25 0,1.7 1.87,3.91 0.341,5.1 1.02,0.68 1.699,1.53 2.209,2.55 -2.039,0.34 -2.209,1.36 -1.189,2.89 0.339,0.68 1.36,0.85 1.87,1.36 0.509,0.681 0.34,1.701 0.849,2.21 2.04,2.21 5.781,2.21 7.65,4.42 C 59.5,7.65 52.19,3.06 48.281,0 c 0.51,1.36 5.61,2.55 4.08,4.42 -1.191,1.53 -5.611,-1.7 -5.271,1.53 1.871,0.34 4.421,0 5.44,1.36 C 46.58,10.37 38.761,9.35 32.131,9.35 25.67,9.35 18.53,9.86 13.94,4.76 10.201,8.67 9.86,3.4 6.291,2.89 4.76,2.72 -2.209,4.08 -1.02,0.34 L 0,0 z"
             style="fill:#f2f2f2;fill-opacity:1;fill-rule:nonzero;stroke:none"
             id="path306" /></g><g
           id="g308"
           transform="translate(645.3091,457.5952)"><path
             d="M 0,0 C 2.21,0.85 4.42,1.02 6.46,1.701 5.949,3.4 -0.85,3.91 -2.38,3.06 -2.21,3.4 -2.21,4.08 -2.21,4.42 -4.76,5.44 -9.35,3.91 -12.41,3.741 -14.79,3.57 -23.8,3.57 -17.34,1.19 -19.72,0.681 -21.59,2.04 -23.97,2.21 -26.689,2.38 -25.5,2.55 -26.52,0.681 -26.859,0 -27.71,-2.04 -27.88,-2.72 c 2.21,-0.85 6.29,3.06 6.46,-0.509 0.34,-3.401 -1.87,-0.341 -3.4,-0.681 -1.36,-0.34 -0.85,-2.21 -1.869,-2.38 -0.851,-0.34 -2.891,1.871 -3.571,2.55 -0.51,0.341 -1.87,2.381 -2.38,2.551 -2.889,1.359 -2.21,-0.681 -3.059,-2.04 -0.681,-1.19 -2.381,-2.21 -1.871,-4.081 1.53,-0.34 3.06,-0.169 4.25,-0.51 -0.17,-1.02 -1.02,-1.53 -1.869,-2.04 0.339,-0.34 5.609,0.34 6.629,0.68 2.04,0.51 4.419,3.23 6.29,0.68 -0.85,-1.19 -7.48,-0.17 -4.08,-3.4 -1.02,-0.51 -2.21,-0.34 -3.23,0.17 0,-3.74 -6.8,-4.249 -8.67,-2.209 1.189,0.85 0.85,2.039 -0.68,2.039 1.869,2.04 -2.211,5.61 -2.89,2.72 -0.17,-1.02 3.23,-6.12 -0.34,-4.59 -0.85,-2.55 -7.481,1.701 -6.289,-1.87 -0.851,-0.509 -1.871,-0.339 -2.721,0.17 -0.68,-2.38 -0.34,-3.57 2.21,-3.23 0.34,0 2.55,0.68 2.21,0.85 1.36,-0.339 1.699,-1.7 0.34,-2.55 1.359,-0.34 3.23,2.04 4.25,1.36 0.68,-0.68 0,-2.55 -0.34,-3.23 1.529,0 3.23,-0.509 3.91,0.85 1.02,2.211 -1.36,2.55 -2.21,3.4 -1.36,1.19 -2.38,2.38 0.17,2.72 2.04,0.341 2.89,-2.053 4.42,-1.542 1.53,-2.551 -1.7,-3.753 3.399,-3.753 l 6.122,0 c 2.039,0 4.419,-1.517 5.779,0.523 1.7,2.55 -0.85,3.491 -3.06,3.151 -2.21,-0.34 -4.93,-1.74 -7.48,-0.719 -2.89,1.189 -0.51,2.02 1.87,2.19 3.23,0.17 6.12,-0.52 9.18,-1.03 1.02,0 2.72,-1.025 2.72,1.015 0,1.7 -1.53,1.018 -2.21,1.528 -0.68,0.34 -2.72,0.168 -1.19,1.358 1.19,0.68 3.4,-0.68 4.59,-0.171 0.17,0.171 2.89,2.551 2.89,2.721 0.34,1.36 -1.7,1.699 -1.7,3.059 1.361,0.34 2.89,0 4.25,0.34 1.19,0.51 1.87,1.7 2.89,2.04 1.19,0.34 2.21,-0.51 3.23,-0.17 1.02,0.341 2.55,2.551 3.23,3.23 L 0,0 z"
             style="fill:#f2f2f2;fill-opacity:1;fill-rule:nonzero;stroke:none"
             id="path310" /></g><g
           id="g312"
           transform="translate(577.3091,434.1353)"><path
             d="m 0,0 c -1.7,1.87 -4.93,2.04 -7.311,2.21 -0.679,0 -2.548,0.34 -3.059,0 -1.7,-1.02 -0.34,-2.04 -0.851,-3.74 -0.509,-1.36 -2.718,-2.21 -2.039,-3.909 0.51,-1.191 2.55,-1.531 3.74,-1.191 2.379,0.68 1.36,2.72 2.72,3.74 1.19,0.85 2.89,-0.17 4.249,1.19 L 0,0 z"
             style="fill:#f2f2f2;fill-opacity:1;fill-rule:nonzero;stroke:none"
             id="path314" /></g><g
           id="g316"
           transform="translate(611.3091,321.2554)"><path
             d="m 0,0 c -1.7,0.51 -11.22,3.91 -11.051,0 1.531,-0.34 3.401,0.17 4.931,-0.17 0.681,-0.17 3.909,-0.51 4.25,-0.85 1.53,-1.189 0.17,-3.23 2.72,-4.08 1.19,-0.34 3.4,0.34 4.25,1.19 -0.85,0.85 -2.21,1.19 -3.401,1.701 L 0,0 z"
             style="fill:#26c64f;fill-opacity:1;fill-rule:nonzero;stroke:none"
             id="path318" /></g><g
           id="g320"
           transform="translate(656.5298,237.1045)"><path
             d="m 0,0 c 1.869,1.53 3.229,1.19 5.27,1.7 2.379,0.51 3.229,1.87 4.25,4.08 1.869,3.4 2.039,7.14 2.209,10.71 0,2.38 -0.17,3.91 1.361,5.95 1.529,2.379 3.399,3.741 3.91,6.8 0.169,1.36 0.51,4.249 -0.341,5.44 -0.68,1.19 -4.25,2.72 -5.61,3.23 -1.529,0.51 -3.06,1.19 -4.59,1.699 -1.869,0.511 -2.209,0.851 -3.74,1.701 -1.699,0.85 -3.4,1.53 -5.27,1.87 -3.059,0.509 -3.23,-0.169 -5.78,-2.04 1.02,2.72 4.08,4.25 3.741,7.31 -0.171,2.04 -3.06,4.42 -5.1,5.44 -1.871,1.02 -4.081,0.34 -5.951,1.53 -2.21,1.36 -3.4,4.76 -6.46,4.08 -0.339,1.529 -1.02,3.571 -2.379,3.911 -0.85,0.17 -1.531,-1.02 -2.55,-1.02 -1.021,0 -1.7,0.339 -2.721,0.68 -2.89,0.679 -7.14,2.21 -7.31,-1.701 -0.679,1.531 -1.019,3.061 0.68,3.741 -1.529,0.34 -5.949,-2.381 -6.8,-3.741 L -45.9,58.991 c -2.551,1.36 -5.1,2.55 -3.061,-1.19 1.19,-2.38 2.891,-3.741 2.38,-6.631 -0.339,-2.72 -1.7,-4.25 -3.399,-6.119 -1.191,-1.361 -3.231,-4.93 -0.68,-5.78 -0.34,-2.041 -2.041,-3.911 -1.191,-6.121 0.851,-2.379 3.23,-2.719 3.911,-5.1 0.679,-2.55 0.169,-3.739 1.7,-6.12 1.189,-2.04 1.529,-4.59 3.569,-5.95 2.21,-1.359 4.761,-1.359 6.46,-3.91 0.68,-1.36 0.85,-4.25 1.021,-5.78 0.339,-3.569 0.679,-7.14 0.679,-10.71 -0.17,-6.8 -1.02,-13.26 -1.19,-20.059 -0.17,-3.061 -0.85,-6.291 -0.17,-9.01 0.51,-2.04 1.027,-2.551 0.517,-4.761 -0.34,-2.209 -1.843,-3.909 -0.843,-6.289 l 0,-2.891 c 0,-1.53 0.503,-2.89 0.673,-4.421 0,-0.509 -0.173,-1.189 -0.003,-1.53 0.509,-0.849 0.848,-0.679 1.188,-1.019 1.021,-1.361 3.23,-3.571 3.059,-5.951 0.85,1.701 1.7,1.531 2.719,0.34 0.85,-1.189 0.34,-1.869 -0.339,-3.229 1.699,-0.51 8.5,-1.361 8.839,0.17 0.34,1.87 -2.55,2.04 -3.74,2.89 -1.359,1.02 -2.04,2.719 -3.4,3.4 2.211,1.53 0.51,4.08 1.36,6.29 0.851,2.38 2.21,3.229 0.851,5.61 -0.51,1.02 -2.04,0.85 -1.871,2.72 0.17,1.529 1.531,1.529 2.55,2.55 0.51,0.509 2.04,2.04 2.04,3.059 -0.169,1.191 -2.719,1.871 -2.549,3.401 0.34,1.7 1.869,0.51 2.889,1.02 1.531,0.68 0.681,0.34 1.361,1.699 0.509,1.021 -0.511,1.531 0.34,2.381 0.509,0.34 2.379,0.169 2.89,0.34 1.699,0.51 4.249,1.869 4.419,3.909 0.171,2.211 -2.38,3.911 -2.72,5.78 2.04,-0.849 4.76,-2.719 6.63,-0.849 1.87,1.699 1.361,4.93 3.401,6.97 0.17,-0.85 0.339,-1.531 0,-2.55 1.7,1.359 2.719,4.42 3.229,6.29 0.51,2.04 0,4.93 1.7,6.289 L 0,0 z"
             style="fill:#26c64f;fill-opacity:1;fill-rule:nonzero;stroke:none"
             id="path322" /></g><g
           id="g324"
           transform="translate(715.689,386.0249)"><path
             d="m 0,0 c -0.17,2.89 -2.55,0 -2.89,-1.02 -0.339,-1.53 0.68,-2.72 -0.17,-4.419 1.19,-0.681 2.89,0 3.741,0.849 1.529,1.53 1.019,1.87 0.17,3.74 L 0,0 z"
             style="fill:#26c64f;fill-opacity:1;fill-rule:nonzero;stroke:none"
             id="path326" /></g><g
           id="g328"
           transform="translate(617.0884,432.9448)"><path
             d="m 0,0 c 0,-1.36 -1.189,-2.72 -1.869,-3.91 -0.68,1.701 -0.17,3.741 0.849,5.1 -1.87,0.34 -5.439,-1.53 -6.12,-3.399 -0.339,-1.02 0,-1.361 0.17,-2.211 0.171,-0.51 1.021,-1.02 1.191,-1.7 0.17,-0.51 -0.68,-1.36 -0.51,-1.7 0.85,-1.53 4.76,-0.68 6.8,-1.19 2.04,-0.34 4.76,-2.21 5.099,1.36 2.21,-0.51 2.55,-3.74 2.21,-5.78 -0.17,-1.19 -2.04,-3.23 0.17,-3.23 2.041,0 2.041,4.59 3.571,3.06 1.359,-1.19 -0.51,-4.08 -1.36,-4.93 -1.19,-1.02 -5.27,-1.02 -5.78,-2.38 -1.021,-2.55 2.89,-2.21 3.909,-2.38 2.891,-0.339 3.57,-2.21 5.781,-3.74 1.7,-1.02 4.249,-2.55 6.119,-3.23 0.85,2.551 -1.87,3.06 -2.72,5.1 2.211,0 5.271,-2.04 3.741,1.87 -0.511,1.02 -3.23,3.23 -2.04,4.76 1.869,2.38 3.91,-3.06 5.949,-2.38 3.57,1.36 1.191,4.76 -0.849,5.78 -1.02,0.51 -2.38,0.68 -3.231,1.36 -1.869,1.36 -0.85,1.7 -1.019,3.23 -0.17,2.21 -0.17,3.23 -2.38,4.76 -1.531,1.19 -3.91,3.23 -5.611,3.91 -1.019,0.34 -1.529,0.34 -2.719,0.34 -0.34,0 -2.89,-0.679 -3.06,-0.679 -0.17,0 -0.34,0 -0.511,0.169 0,2.891 -1.7,3.06 -4.249,2.55 L 0,0 z"
             style="fill:#f2f2f2;fill-opacity:1;fill-rule:nonzero;stroke:none"
             id="path330" /></g><g
           id="g332"
           transform="translate(572.2095,429.7153)"><path
             d="M 0,0 C -0.851,-2.04 2.039,-1.53 3.399,-1.53 2.89,-2.38 1.699,-2.21 0.68,-2.38 1.699,-4.59 5.609,-2.21 6.459,-3.91 5.1,-4.76 2.89,-3.74 2.719,-5.61 2.549,-7.14 4.93,-8.16 6.289,-8.5 c 2.891,-0.68 5.1,1.53 7.99,1.53 1.361,0 2.551,-0.85 3.91,-0.51 -0.339,-0.17 3.231,1.87 3.401,2.04 0.849,1.87 -1.87,2.719 -2.551,3.739 C 17.51,0.51 18.529,1.87 19.549,3.74 17.85,4.59 14.959,4.59 14.109,2.89 13.77,2.209 14.959,-0.681 13.26,-0.51 12.58,-0.34 12.75,1.7 12.07,2.04 11.05,2.72 10.199,1.53 9.52,1.7 7.479,2.209 6.629,4.93 4.59,2.04 L 0,0 z"
             style="fill:#f2f2f2;fill-opacity:1;fill-rule:nonzero;stroke:none"
             id="path334" /></g><g
           id="g336"
           transform="translate(810.8892,361.8853)"><path
             d="M 0,0 C -1.87,2.55 0.85,7.31 3.909,6.63 L 4.25,5.27 C 3.57,4.42 3.06,-4.25 0,0 m -7.99,-12.07 c -1.02,-0.17 -1.53,-0.85 -2.55,-0.34 -3.231,1.19 -0.51,4.42 -1.53,6.8 -1.53,3.91 -7.821,8.67 -1.87,12.24 1.7,1.02 4.93,1.87 5.27,-1.02 0.17,-1.7 -0.85,-1.19 -1.36,-1.87 -0.51,-0.68 -1.53,-1.36 -2.21,-2.21 L -11.391,0 c 0.171,-0.34 0.851,-1.53 0.851,-1.7 1.189,-1.02 2.38,0.17 3.399,-0.85 1.361,-1.53 -0.17,-1.53 -0.509,-2.21 0,-0.34 -0.85,0.17 -1.02,-0.68 -0.171,-0.68 0.68,-1.02 0.85,-1.53 0.341,-1.02 1.53,-2.04 1.53,-3.23 0.17,-2.72 -0.34,-1.53 -1.7,-1.87 m -17.85,8.16 c -1.19,-0.85 -4.421,-0.85 -5.78,-0.34 -2.38,0.68 -3.06,1.53 -5.78,1.19 -0.68,-0.17 -2.209,-0.17 -2.89,-0.51 -1.19,-0.51 -1.021,-0.68 -1.7,-1.36 -0.17,-0.17 -0.511,-1.19 -0.68,-1.36 -0.341,-0.34 -1.36,0 -1.7,-0.51 -0.681,-1.02 -0.34,-1.19 -0.681,-2.55 -0.51,-2.38 -0.34,-3.23 -3.399,-3.23 -4.761,-0.17 -4.761,3.91 -3.571,7.31 1.871,-1.87 2.721,1.02 4.42,1.19 1.531,0 2.721,-2.38 4.59,0 1.531,1.87 -0.678,2.72 -0.169,4.93 0.34,1.36 2.38,3.4 3.06,4.42 0.849,1.87 0.849,3.06 2.38,0.51 0.849,-1.36 0.51,-4.42 3.06,-3.06 2.379,1.36 -1.19,2.89 0.17,4.59 0.68,0.85 4.08,0.51 4.93,0.34 0.17,-1.7 -1.87,-1.7 -2.721,-2.89 l 2.891,-2.72 c 0.17,0 0.17,-0.17 0.34,-0.34 1.7,-1.36 6.12,-3.23 3.23,-5.61 m -29.24,35.53 c -1.7,-1.02 0.51,-5.27 -0.85,-6.46 -1.19,-1.19 -2.549,0.17 -3.4,0 -1.19,-0.17 -2.04,-1.19 -3.23,-1.53 -0.85,-0.34 -2.38,-0.51 -3.23,-0.34 -1.359,0.34 -1.021,2.72 -3.231,1.02 0,2.72 -2.04,8.5 -0.168,10.71 0.509,-1.02 0.168,-2.21 0.509,-3.4 0.51,-1.19 1.7,-1.701 2.04,-2.55 0.85,-2.38 -0.85,-4.25 2.89,-2.89 2.89,0.85 2.89,2.21 3.23,4.759 0.169,1.191 -0.17,2.04 0.51,3.061 0.85,1.36 1.36,0.85 2.209,1.7 1.362,1.36 1.53,0 -0.169,1.7 -0.85,0.85 -1.53,0.17 -2.21,1.53 -1.02,2.38 1.53,4.759 2.72,6.46 1.021,1.87 1.189,4.76 3.399,5.44 3.231,1.02 3.911,-1.7 2.551,-4.08 -1.19,-2.21 -3.57,-2.72 -3.4,-5.78 0.17,-1.02 1.02,-3.06 1.699,-3.74 1.871,-1.87 0.511,-0.34 2.211,0 1.359,0.17 3.909,1.02 5.1,0.34 3.399,-1.7 -1.36,-2.04 -0.85,-4.25 l -2.04,0.34 c 0.51,2.72 -2.891,1.87 -4.08,1.02 0.511,-0.68 2.38,-2.89 1.189,-4.08 -1.53,-1.53 -2.04,1.7 -3.399,1.02 m -2.243,-37.4 -2.007,1.02 c -0.511,2.21 -2.72,2.55 -3.91,4.08 -1.36,1.36 -1.7,3.4 -2.721,4.93 2.551,1.7 4.251,-2.38 5.781,-3.91 1.869,-2.04 3.707,-3.06 2.857,-6.12 m 217.802,55.93 c 3.06,-0.339 5.441,-2.04 8.161,-3.4 0.34,1.7 0.68,3.4 1.36,5.101 -2.72,2.04 -5.44,1.359 -7.48,2.379 -2.38,1.02 -4.081,3.4 -6.8,4.761 -4.76,2.719 -10.54,1.699 -15.3,4.419 0,-1.359 -0.341,-3.06 0.34,-4.419 -4.42,-1.361 -1.7,3.06 -3.4,3.399 -3.06,1.36 -3.4,-1.359 -6.8,-1.7 -4.081,-0.34 -3.4,2.04 -5.1,3.06 -2.38,0.68 -4.08,0.68 -6.46,1.021 -4.421,0.34 -6.8,3.06 -10.541,3.739 -2.039,0.68 -3.739,0 -5.779,0.341 -2.38,0.339 -4.079,1.699 -6.46,1.02 0.341,-0.681 0.679,-2.721 1.36,-3.401 -2.04,-1.02 -7.48,0 -9.52,0.68 0,-0.68 -0.68,-2.039 -0.68,-2.72 -3.06,1.02 -2.72,5.78 -4.421,7.14 -2.039,1.361 -5.779,0.68 -8.159,1.361 0,-0.681 -0.68,-1.361 -0.68,-2.721 -3.059,-1.02 -3.4,1.701 -6.12,2.38 -1.7,0.341 -4.76,0 -6.8,0 -0.34,0.341 0,0.681 -0.34,1.361 C 59.5,73.271 58.479,72.59 57.8,71.23 l -3.74,0 c 1.36,2.38 7.479,4.76 5.44,7.48 -0.68,1.02 -7.48,1.701 -8.84,2.04 -3.4,0.681 -4.761,1.021 -7.82,-0.339 -1.7,-0.681 -2.721,-2.04 -4.42,-2.721 -1.7,-0.339 -3.74,0 -5.441,-0.339 C 27.88,75.99 17.68,73.61 14.28,68.51 11.9,64.771 15.98,56.61 11.9,54.23 c -1.02,3.4 0.34,11.901 -2.72,14.621 -5.781,5.1 -5.1,-6.461 -4.76,-9.86 -6.46,-0.341 -9.521,2.04 -15.98,-0.681 -6.12,-3.06 -9.18,-4.76 -13.94,-0.68 -0.681,-3.4 -1.021,-6.12 -4.42,-8.16 -3.059,-1.36 -6.8,-1.699 -7.14,2.72 8.839,-0.339 2.04,5.44 -2.38,7.48 -3.74,1.7 -7.48,3.06 -11.9,3.06 -10.88,-0.34 -12.24,-6.459 -18.36,-14.28 -2.38,-2.72 -8.84,-8.839 -6.12,-13.26 1.7,-2.719 4.42,2.04 4.42,-2.719 0,0.339 -2.919,-4.323 -2.72,-4.761 2.04,-4.487 -4.761,-4.487 -7.48,-8.5 -2.041,1.02 -1.7,4.42 -2.38,5.78 -0.68,1.7 -3.741,5.1 -4.081,6.12 -0.339,2.72 6.121,7.82 0,7.481 -3.74,0 -5.779,-6.12 -5.439,-9.18 0.34,-3.06 4.702,-6.373 3.061,-9.52 -2.041,-3.911 -0.341,-5.78 4.759,-5.1 0.34,-3.401 -4.08,-2.72 -4.08,-7.141 0,-1.36 2.38,-2.379 1.699,-4.759 -1.019,-3.06 -3.059,-0.341 -5.099,-1.701 -5.44,-3.399 -5.1,-17.679 3.059,-15.3 2.04,0.34 5.781,5.1 7.14,6.8 2.721,3.06 3.74,4.42 6.801,6.121 4.76,2.379 4.76,2.04 8.5,-1.701 2.72,-2.38 6.12,-5.1 3.06,-8.16 3.4,-1.7 5.44,2.381 6.121,4.76 0.678,-2.04 1.699,-4.76 4.418,-3.399 0.681,-3.74 5.781,-5.441 8.161,-3.061 3.06,-1.36 10.2,0.341 12.58,-1.36 1.019,-1.02 1.36,-5.439 0.679,-6.8 -1.7,-2.719 -2.719,-1.36 -5.78,-1.699 -3.739,-0.341 -6.799,0.679 -10.539,1.359 -2.721,0.34 -3.399,1.021 -5.78,0 -0.68,0 0.341,-2.379 -1.361,-2.72 -1.7,-0.34 -2.719,0.341 -4.079,1.02 -3.4,1.7 -7.48,5.441 -9.52,7.14 -2.38,1.7 0,2.72 -4.42,3.401 -2.04,0.68 -5.101,-0.341 -7.14,-1.02 -2.04,-1.02 -3.06,-2.721 -5.44,-3.401 -2.38,-0.34 -5.78,1.361 -7.82,0.341 -4.08,-2.04 -4.42,-10.2 -6.46,-13.261 -2.38,-4.08 -5.78,-6.119 -7.14,-10.88 -0.68,-3.06 -2.04,-10.2 -1.7,-13.26 0.679,-3.399 4.759,-9.521 6.8,-13.26 2.719,-4.08 5.78,-6.8 10.879,-6.461 3.741,0.341 8.841,3.741 12.58,2.721 1.701,-0.681 2.381,-2.721 4.081,-3.74 1.36,-0.34 3.74,0.68 4.76,-0.34 1.02,-1.7 0,-4.08 0.34,-5.44 0.68,-2.72 2.04,-4.08 3.06,-6.461 1.7,-3.399 3.06,-8.16 3.399,-11.899 1.021,-7.82 -4.08,-14.279 -2.379,-21.761 1.02,-4.759 3.4,-6.799 5.78,-11.559 2.379,-4.419 1.36,-10.539 6.459,-11.56 3.741,-0.68 9.52,2.72 11.56,4.42 4.08,3.06 5.101,7.48 7.821,11.56 2.039,3.4 1.701,6.12 3.06,9.52 2.04,4.42 6.12,6.12 7.14,10.54 1.36,6.459 -1.701,13.941 1.02,20.061 3.74,8.839 19.38,17.34 17.34,27.879 -3.4,0.68 -6.801,-2.039 -10.54,-1.359 -3.74,0.679 -2.04,-0.68 -4.08,3.059 -0.68,0.681 0.679,2.04 0.34,3.06 -0.34,1.02 -2.04,2.38 -2.72,3.4 -2.38,4.08 -3.739,8.16 -6.12,11.9 -1.699,3.06 -3.739,10.541 -6.8,11.56 2.04,0.68 12.24,-14.62 14.28,-18.019 1.699,-2.721 2.04,-8.841 4.08,-10.88 3.74,-3.061 6.799,1.699 9.18,4.079 3.061,2.721 7.141,3.741 9.52,6.46 1.36,1.7 2.72,3.74 2.379,5.78 -0.339,3.74 -1.019,1.36 -3.059,3.401 -1.361,2.04 -0.34,3.399 -3.401,3.739 -1.359,0 -2.719,-2.719 -4.08,-2.379 -2.039,0 -5.439,5.099 -5.78,8.16 3.741,1.02 11.9,-6.121 15.301,-7.821 5.099,-2.379 15.979,2.381 17.34,-4.76 -0.34,0 -1.361,0.341 -1.699,0 -1.362,-3.4 4.08,-5.439 4.758,-1.36 1.7,-5.78 4.08,-12.24 6.12,-18.02 1.021,-2.72 2.04,-7.821 5.1,-5.44 2.04,1.36 1.361,7.821 2.04,9.86 1.021,5.101 5.441,11.9 10.541,13.6 9.52,2.721 7.819,-6.8 9.859,-12.24 7.821,5.1 6.121,-3.399 6.461,-9.521 0.34,-4.758 3.06,-10.2 5.78,-14.279 -2.38,2.38 -6.12,6.8 -9.86,6.8 -1.02,-4.08 7.14,-11.22 9.18,-14.28 1.021,-1.701 2.72,-5.781 4.76,-5.781 4.08,-0.678 3.74,4.421 2.381,6.801 -1.021,3.06 -3.402,2.38 -3.402,6.12 -0.34,3.06 2.721,2.379 0.681,6.8 -1.7,3.739 -10.881,10.201 -4.08,14.281 1.7,-5.101 7.139,-2.041 5.78,-8.502 4.42,-0.339 7.14,6.461 5.779,10.541 -1.359,4.08 -9.519,8.5 -2.719,11.901 1.02,-2.72 1.7,-9.861 5.779,-3.06 -3.739,2.719 1.701,4.08 4.08,5.779 2.721,1.7 6.461,5.101 8.16,7.82 2.04,4.08 1.362,7.48 0,10.881 -2.379,5.439 -2.719,5.1 -1.019,10.2 -5.44,1.019 -8.5,2.379 -2.04,6.459 0,-1.699 0,-3.06 -1.021,-4.759 3.74,-3.061 4.761,4.759 9.181,0.339 1.36,-1.7 2.72,-8.5 2.04,-10.199 4.42,-1.02 4.08,4.08 3.4,7.14 -0.68,3.74 -5.099,6.8 -1.7,10.2 0.34,-1.02 1.359,-1.36 2.04,-2.041 3.399,2.72 7.14,7.141 8.16,11.9 0.68,3.401 -0.34,7.481 0.339,10.88 2.04,-3.06 1.361,-13.599 6.12,-12.579 0.681,2.04 -0.34,4.08 -1.359,5.779 l 1.359,0 c 0,3.74 -1.359,9.52 -4.419,12.24 -0.34,-0.679 -1.36,-2.039 -1.701,-2.72 -1.019,3.4 -4.759,3.061 -7.819,2.041 -2.38,7.14 8.16,12.919 13.939,12.24 4.761,-0.681 4.08,-3.401 8.16,0.679 1.021,1.361 -0.679,3.061 2.04,4.081 1.701,0.34 3.401,-1.361 3.741,-2.381 1.7,1.361 6.46,7.82 4.42,0.681 -0.34,-1.701 -2.38,-2.381 -3.4,-3.401 0,0 -4.08,-4.08 -3.74,-3.4 -1.7,-4.419 2.04,-5.78 3.4,-9.859 0.68,-2.721 0,-5.781 1.02,-8.16 1.699,1.02 4.42,6.459 5.1,8.839 0.679,2.04 1.36,2.721 0.679,5.1 -0.339,1.701 -3.059,3.741 -3.059,4.42 -1.021,5.78 7.82,7.481 11.9,5.1 1.019,5.101 6.12,2.381 8.5,5.44 3.4,4.42 -1.7,6.121 -5.44,5.78 3.74,2.72 2.04,2.72 6.459,1.7"
             style="fill:#26c64f;fill-opacity:1;fill-rule:nonzero;stroke:none"
             id="path338" /></g><g
           id="g340"
           transform="translate(939.1538,205)"><path
             d="M 0,0 C -1.359,0 -2.124,0.455 -1.869,-1.16 -1.785,-1.925 -1.53,-3.471 -1.274,-4.064 -0.085,-6.871 3.825,0 1.955,0 L 0,0 z"
             style="fill:#26c64f;fill-opacity:1;fill-rule:nonzero;stroke:none"
             id="path342" /></g><g
           id="g344"
           transform="translate(587.2544,445.9082)"><path
             d="M 0,0 C 3.188,2.04 1.146,2.295 -1.53,1.785 -2.806,1.53 -3.188,1.913 -3.57,0.638 -4.08,-0.51 -3.188,-1.913 -1.785,-1.02 L 0,0 z"
             style="fill:#f2f2f2;fill-opacity:1;fill-rule:nonzero;stroke:none"
             id="path346" /></g><g
           id="g348"
           transform="translate(600.897,447.6934)"><path
             d="m 0,0 c -0.766,1.147 -5.738,4.845 -6.503,1.657 -0.765,-2.804 4.08,-2.677 5.482,-2.677 L 0,0 z"
             style="fill:#f2f2f2;fill-opacity:1;fill-rule:nonzero;stroke:none"
             id="path350" /></g><g
           id="g352"
           transform="translate(601.1509,434.0508)"><path
             d="m 0,0 c -1.529,1.785 -2.549,0.382 -3.569,-0.383 -0.511,-0.382 -0.765,0.128 -1.403,-0.51 -0.128,-0.382 0.128,-1.785 0.128,-1.912 -0.383,0.255 -1.148,0.255 -1.531,0.51 -0.637,-2.295 1.785,-2.805 3.443,-2.933 2.039,-0.127 2.678,0.128 2.295,2.55 L 0,0 z"
             style="fill:#f2f2f2;fill-opacity:1;fill-rule:nonzero;stroke:none"
             id="path354" /></g><g
           id="g356"
           transform="translate(578.9663,442.4658)"><path
             d="M 0,0 C 3.06,1.53 -0.255,2.167 -1.784,1.913 -3.188,1.785 -5.737,1.02 -6.63,-0.127 c -0.51,-1.02 -0.51,-1.531 0.766,-1.786 1.529,-0.254 1.146,0.893 2.295,1.275 3.187,1.02 -0.766,-1.657 -0.511,-2.55 2.168,0.638 3.315,-0.382 3.187,2.55 L 0,0 z"
             style="fill:#f2f2f2;fill-opacity:1;fill-rule:nonzero;stroke:none"
             id="path358" /></g><g
           id="g360"
           transform="translate(596.1792,422.5757)"><path
             d="m 0,0 c 0.638,1.147 1.53,0.255 2.295,0.638 1.02,0.509 0.765,0.509 1.402,1.784 0.893,1.913 2.933,2.04 3.316,4.208 0.382,2.04 -0.638,3.06 1.274,4.462 0.893,0.638 3.06,2.04 4.208,1.531 2.55,-1.02 0,-1.913 -1.148,-2.295 C 9.308,9.69 8.415,9.563 8.67,7.268 8.925,4.335 11.857,1.402 7.395,1.02 6.885,1.02 5.992,1.402 5.482,1.147 4.59,0.51 5.228,-0.638 4.59,-1.02 3.952,-1.53 2.04,-1.147 1.274,-1.147 L 0,0 z"
             style="fill:#f2f2f2;fill-opacity:1;fill-rule:nonzero;stroke:none"
             id="path362" /></g><g
           id="g364"
           transform="translate(582.9185,441.8281)"><path
             d="m 0,0 c -0.637,0.383 -0.893,0.765 -0.51,1.53 -1.785,0.383 -1.147,-2.423 -1.785,-3.187 -0.51,-0.765 -3.697,-1.148 -3.441,-2.04 0.254,-1.403 6.119,0.764 7.266,-0.511 -1.019,-0.637 -2.423,-0.127 -3.442,-0.892 2.678,-0.255 4.08,0.51 6.375,0.892 1.147,0.128 1.912,-0.254 2.678,0.511 1.275,1.275 -0.127,1.784 -0.51,2.422 C 5.993,0.255 5.61,2.55 4.336,0.127 3.953,-0.637 4.718,-1.275 3.953,-1.785 c -0.638,-0.51 -2.678,0 -3.06,0.51 L 0,0 z"
             style="fill:#f2f2f2;fill-opacity:1;fill-rule:nonzero;stroke:none"
             id="path366" /></g><g
           id="g368"
           transform="translate(620.4038,316.4956)"><path
             d="m 0,0 c -2.805,0 -3.315,-0.893 -5.737,-1.402 1.402,-0.893 4.972,-0.893 6.63,-1.02 0.892,0 2.677,-0.383 3.442,0.127 1.53,1.02 -0.255,1.402 -1.529,1.275 L 0,0 z"
             style="fill:#26c64f;fill-opacity:1;fill-rule:nonzero;stroke:none"
             id="path370" /></g><g
           id="g372"
           transform="translate(573.229,123.7168)"><path
             d="m 0,0 c -0.34,3.74 3.061,3.06 5.78,2.719 1.021,0 2.38,-1.021 2.72,-1.021 0.68,0 3.4,1.02 2.72,1.361 1.02,-0.341 4.76,-1.362 5.78,-1.021 6.12,0.68 0.241,2.04 2.622,5.441 4.76,6.459 23.482,-6.46 29.482,-4.081 1,0 0,1.02 0,1.02 2,0.681 2.817,1.359 2.137,3.74 2.04,-0.341 4.13,-1.36 5.829,-2.72 0.34,2.041 -2.014,8.16 -2.694,10.2 2.039,0.34 4.432,0 6.472,1.02 2.38,1.7 1.366,4.76 3.066,6.46 1.7,2.04 9.863,7.14 12.923,7.14 0.68,-3.4 -3.059,-4.08 -4.079,-7.14 -1.02,-2.72 0.341,-4.76 0.68,-7.48 0.681,-4.08 1.703,-9.177 1.363,-13.257 C 74.12,-4.76 68.68,-2.717 62.22,-2.717 L 1.7,-2.717 0,0 z"
             style="fill:#f2f2f2;fill-opacity:1;fill-rule:nonzero;stroke:none"
             id="path374" /></g><g
           id="g376"
           transform="translate(700.0493,123.7148)"><path
             d="m 0,0 c -1.02,8.5 17.68,12.24 23.46,13.6 8.159,2.04 19.04,-0.339 27.54,0.339 3.4,0.341 7.141,-0.339 10.2,0 1.699,0 3.061,0 4.42,0.341 0.681,0 2.72,0.34 2.72,0.34 0.34,0 3.06,2.38 2.38,2.72 2.72,-0.34 3.06,-3.06 5.44,-3.74 3.74,-0.339 1.7,2.04 4.42,3.06 3.739,2.04 9.181,1.7 12.24,3.74 2.04,1.36 1.02,2.72 3.4,3.74 1.7,0.68 4.42,0 5.44,0 -0.34,-5.1 8.5,-4.08 11.9,-4.76 5.78,-0.68 9.86,-5.78 14.961,-4.76 1.019,0.34 7.479,3.06 8.16,3.4 1.359,1.36 0,3.74 1.359,4.42 1.02,1.02 3.74,0 5.1,0 5.1,0.34 13.26,-2.04 15.639,3.74 2.721,-2.38 8.501,-1.36 11.561,-2.38 2.38,-0.68 2.38,-2.04 5.44,-2.04 1.36,0 1.02,2.38 2.38,2.38 1.7,0 2.38,-1.36 3.74,-1.36 5.781,-0.68 8.499,1.02 13.6,0 4.42,-1.02 2.04,-0.68 6.12,0.34 3.06,0.68 4.76,0.34 6.46,2.72 1.021,-5.78 6.8,-3.4 10.2,-4.42 2.38,-0.68 3.4,-3.06 6.46,-3.4 2.38,-0.68 4.76,0.68 7.14,-0.34 2.38,-0.68 3.74,-3.4 5.439,-4.419 2.381,-1.021 4.08,-0.681 6.461,-1.362 7.48,-2.379 3.74,-3.739 -0.341,-6.798 -4.08,-2.721 -4.758,-7.481 -10.2,-8.161 C 229.5,-3.4 6.46,-4.08 1.02,-3.06 L 0,0 z"
             style="fill:#f2f2f2;fill-opacity:1;fill-rule:nonzero;stroke:none"
             id="path378" /></g><g
           id="g380"><g
             id="g382" /><g
             id="g388"><g
               clip-path="url(#clipPath384)"
               opacity="0.100006"
               id="g390"><g
                 transform="translate(441.8511,299.9229)"
                 id="g392"><path
                   d="m 0,0 c 0,-99.411 -82.611,-172 -184.519,-172 -101.907,0 -184.518,72.589 -184.518,172 0,99.411 82.611,172 184.518,172 C -82.611,172 0,99.411 0,0 z"
                   style="fill:none;stroke:#000000;stroke-opacity:1;stroke-width:2;stroke-linecap:butt;stroke-linejoin:miter;stroke-miterlimit:10;stroke-dasharray:none"
                   id="path394" /></g></g></g></g><g
           id="g396"><g
             id="g398" /><g
             id="g404"><g
               clip-path="url(#clipPath400)"
               opacity="0.300003"
               id="g406"><g
                 transform="translate(441.8511,299.9229)"
                 id="g408"><path
                   d="m 0,0 c 0,-29.913 -7.48,-57.399 -20.716,-81.208 -12.996,-23.379 -31.542,-43.215 -54.003,-58.325 -3.734,19.862 4.96,106.249 -54.599,170.795 -83.117,90.074 -149.098,91.434 -183.866,93.651 12.902,11.483 27.634,21.147 43.759,28.673 25.416,11.862 54.29,18.414 84.906,18.414 C -82.612,172 0,99.411 0,0"
                   style="fill:#000000;fill-opacity:1;fill-rule:nonzero;stroke:none"
                   id="path410" /></g></g></g></g></g></g></g></svg>