<?xml version="1.0" encoding="UTF-8" standalone="no"?>
<!-- Created with Inkscape (http://www.inkscape.org/) -->

<svg
   xmlns:dc="http://purl.org/dc/elements/1.1/"
   xmlns:cc="http://creativecommons.org/ns#"
   xmlns:rdf="http://www.w3.org/1999/02/22-rdf-syntax-ns#"
   xmlns:svg="http://www.w3.org/2000/svg"
   xmlns="http://www.w3.org/2000/svg"
   xmlns:sodipodi="http://sodipodi.sourceforge.net/DTD/sodipodi-0.dtd"
   xmlns:inkscape="http://www.inkscape.org/namespaces/inkscape"
   id="svg2"
   version="1.1"
   inkscape:version="0.48.2 r9819"
   width="200"
   height="280"
   xml:space="preserve"
   sodipodi:docname="tiericons_cs5.svg"><metadata
     id="metadata8"><rdf:RDF><cc:Work
         rdf:about=""><dc:format>image/svg+xml</dc:format><dc:type
           rdf:resource="http://purl.org/dc/dcmitype/StillImage" /><dc:title></dc:title></cc:Work></rdf:RDF></metadata><defs
     id="defs6"><clipPath
       clipPathUnits="userSpaceOnUse"
       id="clipPath66"><path
         d="m 74.868,64.679 151.654,0 0,151.654 -151.654,0 0,-151.654 z"
         id="path68"
         inkscape:connector-curvature="0" /></clipPath><clipPath
       clipPathUnits="userSpaceOnUse"
       id="clipPath74"><path
         d="m 38.291,291 238.666,0 0,-245.0781 -238.666,0 0,245.0781 z"
         id="path76"
         inkscape:connector-curvature="0" /></clipPath><clipPath
       clipPathUnits="userSpaceOnUse"
       id="clipPath206"><path
         d="M 0,768 1024,768 1024,0 0,0 0,768 z"
         id="path208"
         inkscape:connector-curvature="0" /></clipPath><clipPath
       clipPathUnits="userSpaceOnUse"
       id="clipPath222"><path
         d="m 190.829,238.463 12.58,0 0,-50.799 -12.58,0 0,50.799 z"
         id="path224"
         inkscape:connector-curvature="0" /></clipPath><clipPath
       clipPathUnits="userSpaceOnUse"
       id="clipPath238"><path
         d="m 149.195,169.506 14.018,0 0,-13.182 -14.018,0 0,13.182 z"
         id="path240"
         inkscape:connector-curvature="0" /></clipPath><clipPath
       clipPathUnits="userSpaceOnUse"
       id="clipPath254"><path
         d="m 225.112,208.35 30.95,0 0,-26.034 -30.95,0 0,26.034 z"
         id="path256"
         inkscape:connector-curvature="0" /></clipPath><clipPath
       clipPathUnits="userSpaceOnUse"
       id="clipPath270"><path
         d="m 205.906,280.75 62.051,0 0,-90.486 -62.051,0 0,90.486 z"
         id="path272"
         inkscape:connector-curvature="0" /></clipPath><clipPath
       clipPathUnits="userSpaceOnUse"
       id="clipPath286"><path
         d="m 147.45,171.413 12.695,0 0,-12.642 -12.695,0 0,12.642 z"
         id="path288"
         inkscape:connector-curvature="0" /></clipPath><clipPath
       clipPathUnits="userSpaceOnUse"
       id="clipPath302"><path
         d="m 201.823,208.35 54.239,0 0,-22.67 -54.239,0 0,22.67 z"
         id="path304"
         inkscape:connector-curvature="0" /></clipPath><clipPath
       clipPathUnits="userSpaceOnUse"
       id="clipPath318"><path
         d="m 177.189,222.416 12.033,0 0,-38.627 -12.033,0 0,38.627 z"
         id="path320"
         inkscape:connector-curvature="0" /></clipPath><clipPath
       clipPathUnits="userSpaceOnUse"
       id="clipPath334"><path
         d="m 227.42,268.262 2.637,0 0,-7.434 -2.637,0 0,7.434 z"
         id="path336"
         inkscape:connector-curvature="0" /></clipPath><clipPath
       clipPathUnits="userSpaceOnUse"
       id="clipPath350"><path
         d="m 223.5,254.184 1.391,0 0,-4.922 -1.391,0 0,4.922 z"
         id="path352"
         inkscape:connector-curvature="0" /></clipPath><clipPath
       clipPathUnits="userSpaceOnUse"
       id="clipPath366"><path
         d="m 190.829,280.75 57.82,0 0,-93.086 -57.82,0 0,93.086 z"
         id="path368"
         inkscape:connector-curvature="0" /></clipPath><clipPath
       clipPathUnits="userSpaceOnUse"
       id="clipPath390"><path
         d="m 126.166,174.859 12.775,0 0,-14.298 -12.775,0 0,14.298 z"
         id="path392"
         inkscape:connector-curvature="0" /></clipPath><clipPath
       clipPathUnits="userSpaceOnUse"
       id="clipPath406"><path
         d="m 91.1074,247.36 9.3096,0 0,-51.426 -9.3096,0 0,51.426 z"
         id="path408"
         inkscape:connector-curvature="0" /></clipPath><clipPath
       clipPathUnits="userSpaceOnUse"
       id="clipPath422"><path
         d="m 37.5332,223.547 27.9873,0 0,-29.195 -27.9873,0 0,29.195 z"
         id="path424"
         inkscape:connector-curvature="0" /></clipPath><clipPath
       clipPathUnits="userSpaceOnUse"
       id="clipPath438"><path
         d="m 129.313,176.458 11.603,0 0,-13.802 -11.603,0 0,13.802 z"
         id="path440"
         inkscape:connector-curvature="0" /></clipPath><clipPath
       clipPathUnits="userSpaceOnUse"
       id="clipPath454"><path
         d="m 103.689,228.311 9.724,0 0,-39.518 -9.724,0 0,39.518 z"
         id="path456"
         inkscape:connector-curvature="0" /></clipPath><clipPath
       clipPathUnits="userSpaceOnUse"
       id="clipPath470"><path
         d="m 29.291,292.785 55.7886,0 0,-93.411 -55.7886,0 0,93.411 z"
         id="path472"
         inkscape:connector-curvature="0" /></clipPath><clipPath
       clipPathUnits="userSpaceOnUse"
       id="clipPath486"><path
         d="m 49.1211,292.801 50.6167,0 0,-97.61 -50.6167,0 0,97.61 z"
         id="path488"
         inkscape:connector-curvature="0" /></clipPath><clipPath
       clipPathUnits="userSpaceOnUse"
       id="clipPath502"><path
         d="m 37.5332,223.547 51.502,0 0,-28.342 -51.502,0 0,28.342 z"
         id="path504"
         inkscape:connector-curvature="0" /></clipPath><clipPath
       clipPathUnits="userSpaceOnUse"
       id="clipPath520"><path
         d="m 74.857,585.975 151.654,0 0,151.654 -151.654,0 0,-151.654 z"
         id="path522"
         inkscape:connector-curvature="0" /></clipPath><clipPath
       clipPathUnits="userSpaceOnUse"
       id="clipPath576"><path
         d="M 0,768 1024,768 1024,0 0,0 0,768 z"
         id="path578"
         inkscape:connector-curvature="0" /></clipPath><clipPath
       clipPathUnits="userSpaceOnUse"
       id="clipPath584"><path
         d="m 85.9946,727.57 141.7324,0 0,-140.896 -141.7324,0 0,140.896 z"
         id="path586"
         inkscape:connector-curvature="0" /></clipPath><clipPath
       clipPathUnits="userSpaceOnUse"
       id="clipPath986"><path
         d="m 73.548,377.68 151.654,0 0,151.654 -151.654,0 0,-151.654 z"
         id="path988"
         inkscape:connector-curvature="0" /></clipPath><clipPath
       clipPathUnits="userSpaceOnUse"
       id="clipPath1042"><path
         d="M 0,768 1024,768 1024,0 0,0 0,768 z"
         id="path1044"
         inkscape:connector-curvature="0" /></clipPath><clipPath
       clipPathUnits="userSpaceOnUse"
       id="clipPath1050"><path
         d="m 96.0376,519.567 119.0554,0 0,-209.772 -119.0554,0 0,209.772 z"
         id="path1052"
         inkscape:connector-curvature="0" /></clipPath><clipPath
       clipPathUnits="userSpaceOnUse"
       id="clipPath1078"><path
         d="m 97.8003,480.871 38.0487,0 0,-103.108 -38.0487,0 0,103.108 z"
         id="path1080"
         inkscape:connector-curvature="0" /></clipPath><clipPath
       clipPathUnits="userSpaceOnUse"
       id="clipPath1166"><path
         d="m 154.674,443.215 30.767,0 0,-72.513 -30.767,0 0,72.513 z"
         id="path1168"
         inkscape:connector-curvature="0" /></clipPath><clipPath
       clipPathUnits="userSpaceOnUse"
       id="clipPath1204"><path
         d="m 354.857,585.975 151.654,0 0,151.654 -151.654,0 0,-151.654 z"
         id="path1206"
         inkscape:connector-curvature="0" /></clipPath><clipPath
       clipPathUnits="userSpaceOnUse"
       id="clipPath1260"><path
         d="m 382.24,717.757 152.916,0 0,-178.278 -152.916,0 0,178.278 z"
         id="path1262"
         inkscape:connector-curvature="0" /></clipPath><clipPath
       clipPathUnits="userSpaceOnUse"
       id="clipPath1292"><path
         d="m 479.209,739.728 39.795,0 0,-55.163 -39.795,0 0,55.163 z"
         id="path1294"
         inkscape:connector-curvature="0" /></clipPath></defs><sodipodi:namedview
     pagecolor="#ffffff"
     bordercolor="#666666"
     borderopacity="1"
     objecttolerance="10"
     gridtolerance="10"
     guidetolerance="10"
     inkscape:pageopacity="0"
     inkscape:pageshadow="2"
     inkscape:window-width="1600"
     inkscape:window-height="837"
     id="namedview4"
     showgrid="false"
     inkscape:zoom="2.3142857"
     inkscape:cx="48.364198"
     inkscape:cy="140"
     inkscape:window-x="-8"
     inkscape:window-y="-8"
     inkscape:window-maximized="1"
     inkscape:current-layer="g10" /><g
     id="g10"
     inkscape:groupmode="layer"
     inkscape:label="tiericons_cs5"
     transform="matrix(1.25,0,0,-1.25,0,280)"><g
       id="g1048" /><g
       id="g1076" /><g
       id="g1164" /><g
       id="g4651"
       transform="translate(-350.694,-518.363)"><path
         inkscape:connector-curvature="0"
         id="path1198"
         style="fill:#acdef9;fill-opacity:1;fill-rule:nonzero;stroke:#ffffff;stroke-width:5;stroke-linecap:butt;stroke-linejoin:miter;stroke-miterlimit:10;stroke-opacity:1;stroke-dasharray:none"
         d="m 508.647,583.957 -155.906,0 0,155.906 155.906,0 0,-155.906 z" /><g
         id="g1200"><g
           clip-path="url(#clipPath1204)"
           id="g1202"><g
             transform="translate(430.8848,787.833)"
             id="g1208"><path
               id="path1210"
               style="fill:#ffff00;fill-opacity:1;fill-rule:nonzero;stroke:none"
               d="M 0,0 0.007,-126.432 26.992,-4.848 0,0 z"
               inkscape:connector-curvature="0" /></g><g
             transform="translate(367.9336,770.8906)"
             id="g1212"><path
               id="path1214"
               style="fill:#ffff00;fill-opacity:1;fill-rule:nonzero;stroke:none"
               d="M 0,0 62.958,-109.489 25.79,9.354 0,0 z"
               inkscape:connector-curvature="0" /></g><g
             transform="translate(321.8525,724.6108)"
             id="g1216"><path
               id="path1218"
               style="fill:#ffff00;fill-opacity:1;fill-rule:nonzero;stroke:none"
               d="M 0,0 109.04,-63.209 17.677,21.05 0,0 z"
               inkscape:connector-curvature="0" /></g><g
             transform="translate(304.9883,661.394)"
             id="g1220"><path
               id="path1222"
               style="fill:#ffff00;fill-opacity:1;fill-rule:nonzero;stroke:none"
               d="M 0,0 125.904,0.007 4.828,27.105 0,0 z"
               inkscape:connector-curvature="0" /></g><g
             transform="translate(321.8604,598.1802)"
             id="g1224"><path
               id="path1226"
               style="fill:#ffff00;fill-opacity:1;fill-rule:nonzero;stroke:none"
               d="M 0,0 109.032,63.221 -9.316,25.897 0,0 z"
               inkscape:connector-curvature="0" /></g><g
             transform="translate(367.9468,551.9048)"
             id="g1228"><path
               id="path1230"
               style="fill:#ffff00;fill-opacity:1;fill-rule:nonzero;stroke:none"
               d="M 0,0 62.945,109.497 -20.962,17.752 0,0 z"
               inkscape:connector-curvature="0" /></g><g
             transform="translate(430.8994,534.9712)"
             id="g1232"><path
               id="path1234"
               style="fill:#ffff00;fill-opacity:1;fill-rule:nonzero;stroke:none"
               d="M 0,0 -0.007,126.43 -26.993,4.847 0,0 z"
               inkscape:connector-curvature="0" /></g><g
             transform="translate(493.8496,551.9126)"
             id="g1236"><path
               id="path1238"
               style="fill:#ffff00;fill-opacity:1;fill-rule:nonzero;stroke:none"
               d="M 0,0 -62.958,109.489 -25.789,-9.354 0,0 z"
               inkscape:connector-curvature="0" /></g><g
             transform="translate(539.9316,598.1919)"
             id="g1240"><path
               id="path1242"
               style="fill:#ffff00;fill-opacity:1;fill-rule:nonzero;stroke:none"
               d="M 0,0 -109.04,63.209 -17.678,-21.05 0,0 z"
               inkscape:connector-curvature="0" /></g><g
             transform="translate(556.7949,661.4087)"
             id="g1244"><path
               id="path1246"
               style="fill:#ffff00;fill-opacity:1;fill-rule:nonzero;stroke:none"
               d="M 0,0 -125.903,-0.007 -4.827,-27.105 0,0 z"
               inkscape:connector-curvature="0" /></g><g
             transform="translate(539.9238,724.623)"
             id="g1248"><path
               id="path1250"
               style="fill:#ffff00;fill-opacity:1;fill-rule:nonzero;stroke:none"
               d="M 0,0 -109.032,-63.222 9.315,-25.897 0,0 z"
               inkscape:connector-curvature="0" /></g><g
             transform="translate(493.8369,770.8975)"
             id="g1252"><path
               id="path1254"
               style="fill:#ffff00;fill-opacity:1;fill-rule:nonzero;stroke:none"
               d="M 0,0 -62.945,-109.496 20.963,-17.75 0,0 z"
               inkscape:connector-curvature="0" /></g><g
             id="g1256"><g
               id="g1258" /><g
               id="g1264"><g
                 id="g1266"
                 clip-path="url(#clipPath1260)"
                 style="opacity:0.60000598"><g
                   id="g1268"
                   transform="translate(526.7031,566.8281)"><path
                     id="path1270"
                     style="fill:#1b0000;fill-opacity:1;fill-rule:nonzero;stroke:none"
                     d="m 0,0 c -4.199,6.3 -8.699,15 -14.399,19.8 -3,2.7 -6.301,4.2 -9,7.5 -3,3.3 -4.5,7.2 -6.601,10.8 -4.2,6.9 -9.299,13.2 -14.399,19.8 -6.601,8.1 -9.675,25.735 -17.569,32.761 0,0.001 0,0.001 0,0.001 0.674,-0.136 1.335,-0.257 1.968,-0.362 5.701,-0.9 10.275,6.888 5.4,8.809 -6.6,2.6 -11.4,7.51 -16.799,11.71 -6,4.8 -16.201,17.473 -22.201,22.273 -6,4.8 -10.199,0.108 -16.799,4.008 -5.101,3 -24.155,22.102 -26.801,9.667 -0.25,-1.175 0.466,-5.717 0.582,-6.697 0.916,-7.77 1.442,-11.62 0.916,-14.77 -0.299,-5.1 -10.514,-1.5 -8.498,-5.8 5.177,-11.038 9.801,-6.7 10.7,-13.9 0.9,-7.2 -3,-25.5 -3.299,-33 -0.301,-8.4 3.299,-14.4 5.699,-22.2 2.701,-8.1 5.1,-6.3 5.701,-14.7 C -124.2,21.6 -126,7.5 -126.6,-7.2 c 0,-3.9 0,-7.2 0.9,-11.4 1.2,-5.4 0.901,-7.8 6.901,-8.1 7.5,-0.3 15,0.3 22.799,0 11.101,-0.3 22.201,-0.3 33.601,-0.3 12.299,0 24.899,0.3 37.199,0.3 7.2,0 29.1,-3 32.7,3.9 C 11.101,-16.2 3.601,-5.4 0,0"
                     inkscape:connector-curvature="0" /></g></g></g></g><g
             transform="translate(519.0039,712.147)"
             id="g1272"><path
               id="path1274"
               style="fill:#d3cc9b;fill-opacity:1;fill-rule:nonzero;stroke:none"
               d="m 0,0 c 0,-15.233 -12.066,-27.582 -26.949,-27.582 -14.884,0 -26.949,12.349 -26.949,27.582 0,15.232 12.065,27.581 26.949,27.581 C -12.066,27.581 0,15.232 0,0"
               inkscape:connector-curvature="0" /></g><g
             transform="translate(505.2036,701.3281)"
             id="g1276"><path
               id="path1278"
               style="fill:#b5ae83;fill-opacity:1;fill-rule:nonzero;stroke:none"
               d="M 0,0 C -1.5,0.9 -3.9,2.1 -5.4,2.4 -8.1,3 -9.3,1.5 -11.7,1.5 c -2.4,0.3 -3,1.5 -6,1.2 -2.4,-0.3 -3.9,-2.1 -6,0.3 1.5,-5.7 9.6,-5.1 11.4,-10.5 0,0.3 0.9,1.2 1.2,1.5 0.3,-1.2 1.5,-2.4 1.5,-3.6 3,0.6 1.5,3 3,4.5 1.8,1.5 4.2,0.6 5.7,3 L 0,0 z"
               inkscape:connector-curvature="0" /></g><g
             transform="translate(513.168,729.2871)"
             id="g1280"><path
               id="path1282"
               style="fill:#b5ae83;fill-opacity:1;fill-rule:nonzero;stroke:none"
               d="m 0,0 c -2.857,-0.745 -5.877,-1.854 -8.564,-0.959 0.6,-6 -5.7,-3.3 -6.601,-7.5 -0.299,-2.1 3.901,-8.4 6,-4.5 2.401,-2.7 1.801,-5.1 6.301,-4.5 1.199,0.3 1.5,2.7 3,3 1.5,0 2.7,-2.1 4.5,-2.1 0.446,0.043 0.837,0.142 1.185,0.281 C 5.637,-10.135 3.49,-4.497 0,0"
               inkscape:connector-curvature="0" /></g><g
             transform="translate(483.0034,725.6279)"
             id="g1284"><path
               id="path1286"
               style="fill:#b5ae83;fill-opacity:1;fill-rule:nonzero;stroke:none"
               d="m 0,0 c -2.4,-1.5 -3.6,0.9 -6,1.2 -1.5,-3 1.5,-10.5 -4.8,-8.7 -0.9,-4.5 2.7,-3 4.5,-2.7 1.5,0.3 6.9,0 8.1,0.6 1.5,0.9 1.8,2.1 2.7,3.3 -0.3,-0.6 2.7,3.9 2.4,3 0.9,4.2 -1.5,3 -4.2,5.4 C 1.8,2.1 2.1,1.5 1.8,1.2 L 0,0 z"
               inkscape:connector-curvature="0" /></g><g
             id="g1288"><g
               id="g1290" /><g
               id="g1296"><g
                 id="g1298"
                 clip-path="url(#clipPath1292)"
                 style="opacity:0.19999701"><g
                   id="g1300"
                   transform="translate(519.0039,712.147)"><path
                     id="path1302"
                     style="fill:#000000;fill-opacity:1;fill-rule:nonzero;stroke:none"
                     d="m 0,0 c 0,-15.233 -12.066,-27.582 -26.949,-27.582 8.349,7.79 14.499,16.442 10.599,30.563 -2.788,10.095 -8.25,15.3 -23.445,21.271 3.819,2.123 8.194,3.329 12.846,3.329 C -12.066,27.581 0,15.232 0,0"
                     inkscape:connector-curvature="0" /></g></g></g></g><g
             transform="translate(512.7036,571.8281)"
             id="g1304"><path
               id="path1306"
               style="fill:#b7b7b7;fill-opacity:1;fill-rule:nonzero;stroke:none"
               d="m 0,0 c -4.2,6.3 -8.7,15 -14.4,19.8 -3,2.7 -6.3,4.2 -9,7.5 -3,3.3 -4.5,7.2 -6.6,10.8 -4.2,6.9 -9.3,13.2 -14.4,19.8 -6.6,8.1 -9.674,25.735 -17.568,32.761 0,0.001 0,0.001 -10e-4,0.001 0.675,-0.136 1.336,-0.257 1.969,-0.362 5.7,-0.9 10.275,6.888 5.4,8.809 -6.6,2.6 -11.4,7.51 -16.8,11.71 -6,4.8 -16.2,17.473 -22.2,22.273 -6,4.8 -10.2,0.108 -16.8,4.008 -5.1,3 -24.155,22.102 -26.8,9.667 -0.25,-1.175 0.466,-5.717 0.581,-6.697 0.917,-7.77 1.442,-11.62 0.917,-14.77 -0.3,-5.1 -10.515,-1.5 -8.498,-5.8 5.177,-11.038 9.8,-6.7 10.7,-13.9 0.9,-7.2 -3,-25.5 -3.3,-33 -0.3,-8.4 3.3,-14.4 5.7,-22.2 2.7,-8.1 5.1,-6.3 5.7,-14.7 1.2,-14.1 -0.6,-28.2 -1.2,-42.9 0,-3.9 0,-7.2 0.9,-11.4 1.2,-5.4 0.9,-7.8 6.9,-8.1 7.5,-0.3 15,0.3 22.8,0 11.1,-0.3 22.2,-0.3 33.6,-0.3 12.3,0 24.9,0.3 37.2,0.3 7.2,0 29.1,-3 32.7,3.9 C 11.1,-16.2 3.6,-5.4 0,0"
               inkscape:connector-curvature="0" /></g><g
             transform="translate(513.0918,572.0552)"
             id="g1308"><path
               id="path1310"
               style="fill:#a0a0a0;fill-opacity:1;fill-rule:nonzero;stroke:none"
               d="m 0,0 c -3.144,4.8 -5.901,9.918 -9.45,14.441 -4.068,5.183 -9.699,8.129 -14.02,12.95 -4.766,5.317 -7.551,12.621 -11.724,18.456 -4.056,5.671 -9.029,10.841 -12.348,16.99 -4.906,9.088 -6.785,20.55 -14.496,27.915 3.869,-3.695 12.866,3.538 8.834,7.401 -1.602,1.535 -3.945,2.167 -5.868,3.249 -3.162,1.78 -5.948,4.217 -8.726,6.524 -4.389,3.645 -8.442,7.348 -12.35,11.515 -6.314,6.733 -12.466,16.508 -22.623,16.195 -9.015,-0.278 -15.377,8.02 -22.529,12.507 -3.176,1.991 -10.204,5.523 -12.221,0.116 -1.363,-3.65 0.045,-8.254 0.487,-11.989 0.302,-2.56 0.588,-5.119 0.693,-7.694 0.157,-3.83 -1.042,-5.775 -4.867,-6.253 -1.503,-0.188 -3.433,-0.149 -4.064,-1.767 -0.981,-2.515 3.983,-7.458 5.703,-8.886 1.091,-0.905 2.389,-1.513 3.496,-2.399 1.847,-1.478 1.837,-4.331 1.869,-6.465 0.086,-5.666 -0.984,-11.423 -1.792,-17.007 -0.606,-4.192 -1.278,-8.386 -1.599,-12.612 -0.488,-6.433 1.804,-12.415 4.015,-18.326 1.722,-4.606 3.251,-8.644 5.758,-12.853 1.778,-2.984 1.635,-6.872 1.832,-10.214 0.252,-4.296 0.168,-8.61 0.034,-12.909 -0.431,-13.791 -2.797,-27.462 0.121,-41.102 0.548,-2.565 1.627,-4.101 4.177,-4.853 2.522,-0.744 5.519,-0.39 8.1,-0.391 4.432,-0.003 8.861,0.169 13.293,0.167 15.747,-0.009 31.486,-0.469 47.239,-0.331 10.416,0.09 20.921,0.658 31.327,0.102 6.643,-0.355 13.484,-1.045 20.104,-0.064 4.98,0.738 9.283,2.172 10.062,7.662 C 9.454,-12.96 3.594,-5.379 0,0 -0.32,0.48 -1.1,0.03 -0.777,-0.454 2.313,-5.078 5.355,-9.729 7.021,-15.085 9.542,-23.188 3.972,-26.03 -2.783,-26.83 c -9.431,-1.116 -19.175,0.385 -28.652,0.332 -16.09,-0.088 -32.174,-0.338 -48.266,-0.242 -7.495,0.045 -14.991,0.343 -22.486,0.347 -3.79,0.002 -7.581,-0.133 -11.371,-0.169 -3.951,-0.037 -9.691,-0.971 -11.188,3.696 -4.365,13.615 -0.689,29.628 -0.252,43.601 0.195,6.253 0.382,12.906 -0.975,19.05 -0.329,1.489 -1.123,2.811 -1.939,4.073 -1.958,3.033 -3.051,6.292 -4.23,9.68 -2.262,6.504 -4.93,12.584 -4.552,19.649 0.292,5.469 1.372,10.924 2.132,16.342 0.768,5.47 3.869,16.582 -1.36,20.767 -1.766,1.413 -3.632,2.392 -5.182,4.117 -0.888,0.989 -4.695,6.208 -1.471,6.835 1.269,0.247 2.553,0.303 3.82,0.576 4.093,0.884 3.411,5.706 3.197,8.902 -0.28,4.187 -4.741,19.211 2.393,19.525 5.383,0.238 11.628,-5.66 15.527,-8.725 3.242,-2.548 6.765,-6.196 11.087,-6.652 4.841,-0.512 8.838,0.495 12.984,-2.94 2.869,-2.377 5.396,-5.207 7.939,-7.918 5.152,-5.495 10.136,-10.95 15.98,-15.72 3.299,-2.693 6.499,-5.41 10.122,-7.671 2.065,-1.289 6.752,-2.151 5.951,-5.813 -0.882,-4.027 -5.433,-4.564 -8.662,-3.943 -0.426,0.081 -0.775,-0.416 -0.438,-0.753 5.869,-5.868 8.422,-14.109 11.541,-21.608 3.665,-8.813 9.558,-15.463 15.163,-23.116 5.102,-6.966 8.158,-16.506 15.199,-21.819 4.413,-3.33 8.239,-6.466 11.549,-10.94 C -6.137,8.461 -3.618,3.882 -0.777,-0.454 -0.46,-0.938 0.319,-0.487 0,0"
               inkscape:connector-curvature="0" /></g><g
             transform="translate(498.3037,591.6279)"
             id="g1312"><path
               id="path1314"
               style="fill:#4c4c4c;fill-opacity:1;fill-rule:nonzero;stroke:none"
               d="m 0,0 c -2.259,2.034 -4.689,3.387 -6.904,5.34 -0.75,-3.121 -2.592,-5.926 -3.596,-8.94 -1.2,-3.9 -1.8,-8.1 -2.7,-12 -2.4,-8.1 -5.4,-16.2 -7.8,-24.3 -0.743,-3.156 -1.369,-5.163 -0.459,-6.661 3.567,0.036 7.126,0.061 10.659,0.061 7.2,0 29.1,-3 32.699,3.9 C 25.5,-36 18,-25.2 14.4,-19.8 10.2,-13.5 5.7,-4.8 0,0"
               inkscape:connector-curvature="0" /></g><g
             transform="translate(490.2036,570.6279)"
             id="g1316"><path
               id="path1318"
               style="fill:#8c8c8c;fill-opacity:1;fill-rule:nonzero;stroke:none"
               d="m 0,0 c 0.3,1.5 0,3.9 0.3,5.4 0.3,3 2.4,6.9 1.5,10.2 0.9,1.5 0.9,0.9 0.9,3 1.502,0.924 0.734,3.806 -0.897,7.223 C 0.861,26.6 -0.049,27.46 -0.9,28.5 c -3,3.3 -4.5,7.2 -6.6,10.8 -4.032,6.625 -8.895,12.698 -13.791,19.013 0.333,-8.615 2.998,-15.771 3.891,-23.813 0.6,-4.2 0.3,-7.8 -0.3,-12 0,-0.9 -1.2,-1.5 -1.2,-2.1 -0.3,-0.9 0.9,-2.1 0.6,-2.4 -0.3,-1.8 -0.3,-4.5 -1.2,-6.3 -0.3,-1.2 -2.1,-1.5 -2.1,-2.1 -0.3,-0.9 0.6,-2.1 0.3,-3 -0.6,-0.9 0,-1.8 -0.6,-2.7 -0.3,-0.6 -3,0.6 -3.6,-0.6 -0.3,-0.3 0.3,-3.6 0,-4.8 -0.3,-2.4 -2.1,-3.3 -3,-5.1 -1.2,-3 -3.3,-5.7 -4.8,-9.6 -0.9,-1.8 0,-2.4 -1.2,-4.5 -0.6,-1.5 -3,-2.7 -3.6,-4.2 -0.15,-0.299 -0.299,-0.597 -0.448,-0.896 9.646,0.016 19.458,0.199 29.156,0.268 0.507,0.795 0.927,1.809 1.592,3.028 0.9,1.8 1.8,0.6 2.4,3.3 0.6,1.5 0.3,4.2 0.6,5.4 0.9,3.3 1.8,6.9 2.7,9.9 0.6,1.8 1.5,1.8 2.1,3.9"
               inkscape:connector-curvature="0" /></g><g
             transform="translate(487.5034,545.1279)"
             id="g1320"><path
               id="path1322"
               style="fill:#705b45;fill-opacity:1;fill-rule:nonzero;stroke:none"
               d="M 0,0 C 0.628,0 1.371,-0.023 2.2,-0.06 2.143,0.645 2.033,1.271 1.875,1.725 2.1,2.325 1.95,2.925 2.1,3.525 4.8,1.65 2.925,10.275 2.925,10.95 3.15,10.5 3.45,10.05 3.75,9.75 c 0.525,1.575 0.15,3.45 0.225,5.1 0.075,0.825 0.3,1.575 0.375,2.475 0.075,0.825 -0.225,1.8 0,2.625 0.15,-0.075 0.45,-0.075 0.6,-0.15 0.3,0.9 0.3,1.95 -0.075,2.85 -0.45,0.9 -1.2,1.35 -1.05,2.475 0.075,0 0.15,-0.075 0.225,-0.075 -0.225,1.425 -0.525,2.7 -0.525,4.2 1.05,-0.15 0.375,1.95 0.6,2.7 0.225,0.525 0.9,0.675 0.975,1.05 0.075,0.375 -0.6,1.2 -0.6,1.725 0.075,-0.075 0.15,-0.15 0.225,-0.225 0.15,0.6 -0.075,1.35 -0.45,1.8 L 4.52,37.323 C 4.323,36.89 3.791,36.26 3.225,36.3 3.15,35.4 2.925,34.35 2.55,33.525 2.4,33.525 2.325,33.6 2.25,33.6 1.95,32.25 2.475,31.35 1.5,30.075 1.5,30.15 1.425,30.3 1.425,30.3 1.35,29.325 1.05,28.425 0.9,27.45 c -0.45,0.375 -0.675,1.2 -1.125,1.65 -0.6,-1.275 -0.375,-3 -0.9,-4.35 0,0.225 -0.075,0.525 -0.075,0.75 -0.6,-1.8 -0.975,-3.15 -1.875,-4.8 0.075,0.075 0.225,0.075 0.375,0.15 0.75,-1.2 -0.3,-1.65 -0.75,-2.475 -0.3,-0.6 -0.075,-0.9 -0.15,-1.2 -0.15,-0.45 -0.45,-0.75 -0.6,-1.125 -0.75,-1.875 -1.5,-3.225 -2.85,-4.725 0.45,-0.075 0.9,0 1.275,0.15 0.6,-1.95 -2.4,-2.55 -3.075,-3.75 0.15,0 0.525,0 0.675,0.075 0.375,-1.35 -2.7,-3.45 -3.675,-4.125 0.225,0.15 0.6,0.225 0.825,0.3 0,-1.473 -1.246,-2.668 -1.819,-4.058 C -8.543,-0.037 -4.253,0 0,0"
               inkscape:connector-curvature="0" /></g><g
             transform="translate(452.4785,614.9531)"
             id="g1324"><path
               id="path1326"
               style="fill:#4c4c4c;fill-opacity:1;fill-rule:nonzero;stroke:none"
               d="m 0,0 c -0.225,1.2 -0.6,2.325 -0.975,3.45 -0.675,2.1 -1.35,3.675 -1.275,5.925 0,1.05 0.15,2.1 0.45,3.075 0.375,1.425 0.6,1.5 -0.3,2.625 -1.725,2.175 -0.675,3 0.6,5.175 1.35,2.175 0.225,4.35 -1.65,5.7 -2.025,1.425 -3.45,3 -5.1,4.725 l -4.125,0.45 c -0.225,-0.075 -0.45,-0.075 -0.675,-0.075 -3.6,-0.45 -7.05,-0.75 -10.5,-1.875 -2.1,-0.675 -4.275,-1.2 -6.3,-2.025 -2.175,-0.825 -3.375,-2.4 -4.35,-4.5 -1.366,-2.732 -2.586,-5.317 -4.071,-7.833 -11.302,-2.792 -34.43,-1.608 -32.604,-7.542 2.7,-8.1 5.1,-6.3 5.7,-14.7 1.2,-14.1 -0.6,-28.2 -1.2,-42.9 0,-3.9 0,-7.2 0.9,-11.4 1.2,-5.4 0.9,-7.8 6.9,-8.1 7.5,-0.3 15,0.3 22.8,0 l 0.358,9.017 c 0.476,1.719 0.975,3.759 2.417,4.858 1.875,1.425 4.125,1.425 6.15,2.4 1.875,0.825 2.1,2.625 2.175,4.5 0.075,0.9 -0.075,1.8 -0.15,2.625 0,0.375 -0.15,1.575 0.3,1.65 0.225,0 0.75,-0.9 0.975,-1.05 0.525,1.425 0.225,3.6 0.375,5.1 0.15,1.275 0.075,2.55 0.075,3.825 0,3.15 -0.3,6.075 0.3,9.225 0.375,1.95 0.75,3.75 1.575,5.55 0.422,0.998 0.943,1.957 1.471,2.917 3.085,-0.093 6.171,-2.309 9.329,-1.942 2.7,0.3 1.5,3.675 2.325,5.475 0.525,1.05 1.425,1.125 2.175,1.875 0.9,0.825 0.9,1.875 1.5,2.775 0.9,1.575 1.425,0.15 2.775,0.45 1.125,0.225 0.6,1.65 0.6,2.55 0,1.575 -0.15,3.375 0.45,4.875 0.45,1.275 0.825,1.725 0.6,3.15"
               inkscape:connector-curvature="0" /></g><g
             transform="translate(444.7534,646.8281)"
             id="g1328"><path
               id="path1330"
               style="fill:#705b45;fill-opacity:1;fill-rule:nonzero;stroke:none"
               d="m 0,0 c -0.3,1.05 -1.2,1.65 -1.65,2.55 -0.3,0.9 -0.15,2.1 -0.45,3 -0.45,1.8 -1.8,3.6 -2.85,5.1 -1.05,1.5 -2.55,3.3 -4.2,4.05 -0.75,0.45 -2.4,0.45 -3,0.9 -1.35,1.2 0,0.9 -0.45,2.1 -0.9,2.55 -5.4,7.5 -7.95,8.4 l -2.7,-1.65 c -2.85,-2.1 -5.85,-3.6 -8.7,-5.55 -6.75,-4.35 -14.1,-8.55 -19.8,-14.1 -1.35,-1.35 -2.7,-2.55 -4.2,-3.75 -2.4,-1.65 -2.85,-1.8 -1.95,-4.8 1.35,-4.65 1.35,-8.1 1.2,-13.05 0,-1.5 0.3,-3.6 -0.45,-4.95 -1.05,-1.8 -1.95,-1.65 -2.1,-3.75 -0.3,-3.75 1.2,-7.8 2.4,-11.1 0.6,-1.8 -0.3,-3.3 0.6,-4.95 0.45,-0.9 -0.6,-1.95 0.3,-2.55 0.947,-0.829 0.867,-4.366 1.454,-5.969 -0.202,-1.2 -0.498,-2.396 -0.854,-3.731 -0.4,-1.7 0.1,-4.6 0.4,-6.2 0.301,-1.6 -0.099,-3.1 -0.2,-4.6 -0.1,-2 -2.7,-6.9 0.101,-6 1.599,0.5 2.099,1.8 2.799,-0.7 0.3,-1.1 6.201,0.6 6.4,-0.6 0.201,-1.5 0.3,-3.1 0.201,-4.7 -0.101,-1.8 -1.101,-3.1 -1.601,-4.8 2.5,0.8 3.3,-5.7 6.5,-3.3 2.3,1.8 0.6,6.1 2.4,8.1 2.1,2.5 4.701,-1.1 5.201,3.6 0.099,1.5 0.399,2.9 0.799,4.4 0.1,0.5 0.201,1.8 0.6,2.1 0.6,0.5 1.5,-0.1 2.1,0.3 2.2,1.4 0.101,4.3 -0.1,6 -0.3,2.1 0.201,4.6 2,5.8 1.5,1 4.1,0.4 4.9,1.8 0.9,1.4 0.201,4.5 0.1,6 0.6,-0.4 1.2,-0.9 2,-1.1 0.522,1.435 -0.403,2.956 -1.61,4.117 1.277,0.364 2.309,0.467 2.71,0.065 1.5,1.951 -4.95,9.768 -4.05,12.168 0.9,2.4 1.35,5.1 2.1,7.5 2.7,-0.6 3.45,-1.2 4.95,1.65 1.05,2.1 1.35,4.35 1.8,6.6 0,0.6 0.3,3.15 0.6,3.45 0.9,1.05 1.65,0.15 3,0.15 3,-0.15 4.5,1.05 4.65,3.75 0.15,3.15 0.15,3.6 3.15,4.35 C -1.5,-3.45 0.6,-3 0,0"
               inkscape:connector-curvature="0" /></g><g
             transform="translate(396.0034,601.0781)"
             id="g1332"><path
               id="path1334"
               style="fill:#5e4732;fill-opacity:1;fill-rule:nonzero;stroke:none"
               d="m 0,0 c 2.85,-0.75 5.25,-2.55 6.75,-5.25 0.6,0.75 0.45,1.95 1.2,2.4 0.6,0.45 1.5,-0.45 2.4,0.9 1.2,1.8 0.45,5.25 1.05,7.2 C 13.65,3.45 15,7.2 15.6,9 15.6,6.45 14.1,3.9 13.65,1.35 13.35,-0.9 14.4,-4.65 13.35,-6.6 9.9,-4.8 9.3,-18 8.7,-19.5 c -0.75,1.5 -0.6,3.15 -1.5,4.65 -0.9,1.2 -2.1,2.4 -2.85,3.45 -1.35,-1.5 -4.65,6.9 -4.8,8.4 1.2,0 1.2,0.6 0.6,1.5 L 0,0 z"
               inkscape:connector-curvature="0" /></g><g
             transform="translate(423.1538,639.853)"
             id="g1336"><path
               id="path1338"
               style="fill:#5e4732;fill-opacity:1;fill-rule:nonzero;stroke:none"
               d="m 0,0 c 0.6,-0.9 0.375,-1.8 1.275,-2.475 0.075,1.65 2.25,0.45 3.075,0.525 1.425,0.15 1.125,1.5 1.125,2.7 C 5.85,0.75 6.15,0.825 6.45,0.9 6.6,0.75 6.75,0.675 6.9,0.6 7.2,0.9 7.5,1.875 7.8,2.1 8.1,2.325 8.475,1.95 8.775,2.175 9,2.4 9.075,2.85 9.3,3 c 0.675,0.45 1.425,0.075 1.95,0.3 0.675,0.375 0.3,1.2 0.225,1.95 0.6,0.15 1.875,0.45 2.25,0.975 0.6,0.825 -0.15,1.575 0.375,2.475 0.45,0.75 1.2,0.6 1.65,1.5 0.15,0.3 0.3,0.9 0.375,1.2 0.15,0.45 0.375,0.825 0.525,1.275 0.225,0.825 0.225,1.875 0.75,2.625 0.15,0.225 0.825,0.675 0.825,0.75 0.3,0.75 0,0.3 -0.15,0.975 -0.075,0.15 -0.45,0.15 -0.525,0.3 -0.075,0.15 0.225,0.375 0.15,0.525 -0.15,0.15 0,0.375 -0.15,0.6 -0.15,0.225 -0.525,0.075 -0.675,0.225 -0.525,0.525 -0.45,0.075 -0.6,0.975 C 16.2,20.1 16.35,20.625 16.35,21 15.9,20.625 15,19.5 14.85,18.825 14.625,17.85 15.3,17.4 15.6,16.425 15.975,15.3 15.075,11.25 13.5,11.55 13.275,10.425 13.35,9.675 12.675,8.625 12.45,8.25 12,7.95 11.85,7.575 11.55,7.125 11.475,6.6 11.175,6.225 10.425,5.325 9.075,5.4 8.175,5.175 7.2,4.95 6.3,4.5 5.475,3.975 6,4.05 6.675,4.125 7.2,3.975 6.225,2.7 3.15,1.35 1.725,0.975 -0.75,0.3 -2.025,-0.45 -2.175,-3.375 c 0.15,0.375 0.45,0.6 0.75,0.825 1.425,-0.975 0.675,-4.05 1.95,-5.325 1.425,2.025 -1.875,4.8 -0.6,6.9 L 0,0 z"
               inkscape:connector-curvature="0" /></g><g
             transform="translate(375.5034,718.5947)"
             id="g1340"><path
               id="path1342"
               style="fill:#e0e0e0;fill-opacity:1;fill-rule:nonzero;stroke:none"
               d="m 0,0 c -0.25,-1.175 0.466,-5.716 0.582,-6.697 0.032,-0.276 0.064,-0.546 0.096,-0.812 0.337,-0.129 0.735,-0.217 1.222,-0.258 2.9,-0.2 5.2,-0.7 7.5,-2.5 1,-0.799 0.4,-1.906 1.7,-1.806 2.001,0.2 3.1,1.906 2.9,3.406 -0.2,1.4 -0.5,3 -0.8,4.3 -0.2,0.801 -0.7,1 -0.6,2 0.1,0.7 0.5,1.2 0.6,1.9 0.038,0.339 0.031,0.061 -0.013,0.369 C 7.2,3.8 1.377,6.473 0,0"
               inkscape:connector-curvature="0" /></g><g
             transform="translate(374.4038,717.728)"
             id="g1344"><path
               id="path1346"
               style="fill:#707070;fill-opacity:1;fill-rule:nonzero;stroke:none"
               d="m 0,0 c 0.023,-0.815 0.194,-1.636 0.325,-2.439 0.071,-0.436 0.146,-0.87 0.22,-1.305 0.032,-0.19 0.064,-0.381 0.096,-0.571 0.012,-0.076 0.112,-0.744 0.051,-0.285 0.108,-0.81 0.6,-1.5 1.5,-1.5 0.735,0 1.608,0.687 1.5,1.5 C 3.487,-3.064 3.041,-1.433 3,0 2.946,1.931 -0.055,1.936 0,0"
               inkscape:connector-curvature="0" /></g><g
             transform="translate(381.6035,622.5283)"
             id="g1348"><path
               id="path1350"
               style="fill:#8c8c8c;fill-opacity:1;fill-rule:nonzero;stroke:none"
               d="m 0,0 c -2.4,7.8 -6,13.8 -5.7,22.2 0.3,7.5 4.2,25.8 3.3,33 -0.9,7.2 -5.523,2.862 -10.7,13.9 -2.017,4.3 8.198,0.7 8.498,5.8 0.456,2.738 0.12,6.005 -0.579,11.915 0,0 -0.305,1.622 -0.406,3.075 -0.067,0.964 -0.044,0.354 0.217,0.65 0.913,1.03 2.762,1.117 4.32,0.6 1.027,-0.342 0.832,-2.089 1.865,-2.776 C 1.848,87.678 4.159,85.701 5.3,84.8 8.79,82.043 14.388,77.655 12.839,73.312 10.639,67.143 27.404,74.558 31.8,70.13 36.1,65.8 39,63.3 41,58.6 43.1,53.8 47.127,40.445 46,34.4 43.8,22.6 27.601,35.9 19.8,28.6 17.245,26.208 27.557,16.847 27.5,13.399 27.1,-11 20.8,-15.3 18.3,-14 12.303,-10.882 7.4,-15 3.4,-5.8 3.2,-5.341 0,0 0,0"
               inkscape:connector-curvature="0" /></g><g
             transform="translate(382.5034,672.7783)"
             id="g1352"><path
               id="path1354"
               style="fill:#e0e0e0;fill-opacity:1;fill-rule:nonzero;stroke:none"
               d="M 0,0 C 2.25,-0.75 3,-2.55 3.75,0.9 4.95,-1.35 6.6,1.35 7.65,2.25 8.4,3 8.85,2.55 9.6,3.9 10.05,4.8 9.75,6.15 9.9,7.05 12.75,6.3 14.25,5.55 14.4,9.3 15.3,8.55 17.4,5.85 17.7,4.65 17.85,3.9 17.4,2.4 17.1,1.65 16.05,-0.15 16.2,0.9 14.55,0.45 13.05,0 13.35,0.75 12.15,-0.6 11.7,-1.2 11.4,-2.55 11.1,-3.3 10.5,-4.95 10.2,-7.8 8.25,-8.4 6.15,-9.15 4.2,-6.3 2.85,-7.35 1.8,-8.25 1.8,-12.75 1.65,-14.1 1.5,-15.9 1.5,-18 2.4,-19.65 c 0.9,-1.65 3,-2.7 3.6,-4.5 0.3,-0.75 0.15,-1.8 0,-2.4 -1.8,0 -5.1,4.05 -5.4,1.35 -3,2.85 -2.4,8.4 -2.7,12.3 -0.3,4.35 0.6,7.65 1.2,11.85 L 0,0 z"
               inkscape:connector-curvature="0" /></g><g
             transform="translate(425.4038,673.3779)"
             id="g1356"><path
               id="path1358"
               style="fill:#4c4c4c;fill-opacity:1;fill-rule:nonzero;stroke:none"
               d="m 0,0 c 0.6,-1.65 2.1,-1.95 2.4,-3.75 0,-0.15 -0.9,-0.45 -0.9,-0.6 0,-0.6 0.45,-0.6 0.6,-0.9 0.15,-0.75 1.2,-1.2 1.35,-1.95 0,-0.15 -0.6,-1.8 -0.6,-2.25 0,-0.9 0.6,-1.8 0.6,-2.7 0.15,-0.45 -0.15,-1.65 -0.15,-2.4 0,-0.9 0.3,-1.8 0.3,-2.7 C 2.55,-18 2.85,-19.8 1.8,-20.7 c -0.75,-0.6 -1.2,0.3 -1.65,0 -0.6,-0.45 -0.75,-1.05 -1.35,-1.5 -1.8,-1.5 -0.9,-0.9 -3.3,-0.75 -0.75,0 -1.2,-0.75 -2.1,-0.6 -0.6,0.15 -1.05,1.05 -1.8,1.2 1.05,0.6 1.8,0.9 3,0.9 0.6,0.15 1.2,-0.45 1.8,-0.3 1.05,0.15 0.3,0.75 1.05,1.05 1.5,0.75 1.5,0.6 2.4,2.25 1.05,1.65 0.6,1.05 0.6,2.85 0,2.4 1.2,4.8 0.9,7.05 -0.15,1.8 -2.55,4.95 -1.2,6.45 L 0,0 z"
               inkscape:connector-curvature="0" /></g><g
             transform="translate(406.2017,653.1279)"
             id="g1360"><path
               id="path1362"
               style="fill:#4c4c4c;fill-opacity:1;fill-rule:nonzero;stroke:none"
               d="m 0,0 c -0.7,-2.5 -1.202,-1.2 -3.202,-0.7 l 0,-1.6 c 0,-0.2 -0.998,-0.1 -1.598,-0.1 0.1,-0.6 1.051,-1.7 1.351,-2.2 0.5,-0.8 0.726,-1.8 1.126,-2.7 0.5,-1.1 3.512,-4.3 0.613,-4.8 -0.101,0.4 -0.494,0.5 -0.694,0.7 -0.4,-0.6 -0.297,-1.5 -0.697,-2.2 -1.5,1.1 -0.899,4.2 -2.298,5.5 -0.101,-0.3 -0.5,-0.6 -0.7,-0.9 -0.3,1.3 0,2.8 -0.499,4.1 -0.1,-0.1 -0.3,-0.2 -0.4,-0.3 -0.2,1 0,2.3 0.6,3.1 0.3,0.3 0.7,-0.1 1,0.6 0.3,0.5 0.2,1.2 0,1.4 0.6,0.2 1.8,0.4 2.3,0.9 -0.1,0.2 -0.2,0.2 -0.3,0.3 0.7,0.5 1.4,0 2.2,0.3 0.7,0.3 0.9,0.8 1.5,1 1.3,0.2 4,-1.7 4.8,-2.4 -0.8,-0.2 -1.7,-0.3 -2.5,-0.1 0.2,-0.4 -0.6,-0.1 -0.6,-0.6 -0.7,0.2 -1.251,-0.5 -1.651,0 L 0,0 z"
               inkscape:connector-curvature="0" /></g><g
             transform="translate(386,613.3281)"
             id="g1364"><path
               id="path1366"
               style="fill:#4c4c4c;fill-opacity:1;fill-rule:nonzero;stroke:none"
               d="m 0,0 c 2,-1 2.102,-2.7 2.602,-4.3 0.5,0 0.8,-0.1 1.201,-0.2 0.4,0 0.75,0.2 1.15,0.2 0.3,-0.1 0.725,0.2 1.125,0.2 0.4,-0.1 0.813,-0.7 1.213,-0.7 0.9,-0.2 1.306,0.3 2.206,-0.2 0.6,-0.3 1.104,-1.5 1.503,-1.9 0,0.3 0.402,0.6 0.402,0.9 1,-1.2 1.301,-2.4 1.801,-3.9 0.199,0.8 0.3,1.6 0.8,2.2 0.2,-0.1 0.801,-0.3 0.9,-0.5 0,1.2 0.6,0.5 1.001,0.8 0.4,0.4 0.7,0.6 1.099,1.3 0.5,1 0.801,2 1.601,2.9 0.6,-0.9 1.3,-0.4 1.6,0.5 0.2,-0.5 0.2,-1.2 0.299,-1.8 0.901,1 1.201,2.2 1.201,3.6 0,1.5 0.299,2.2 0.5,3.7 0.1,-0.1 0.4,-0.3 0.6,-0.5 0.3,0.9 0,2 -0.2,2.9 -0.3,1.1 -0.201,1.5 -0.1,2.4 0.2,1.6 0.3,3.6 -0.8,5 -1.5,-1.2 -0.4,-4.5 -0.7,-6.2 -0.2,-1.1 -0.9,-1.3 -1.3,-2.2 -0.4,-0.9 -0.1,-1.9 -0.6,-2.8 -0.2,-0.3 -0.7,-0.2 -0.9,-0.6 -0.2,-0.3 0.4,-0.8 0.1,-1.3 -0.3,-0.4 -1.901,-0.9 -2.301,-1.3 -1.699,-1.4 -2.699,-1.3 -5,-0.6 -0.099,0 0.201,-0.2 0.201,-0.2 -0.7,-0.3 -2,0.1 -2.8,0.6 0.2,0.1 0.4,0.3 0.6,0.4 -1.7,0.9 -3.3,0.3 -5.001,0.7 C 2.503,-0.5 0.401,1 -0.698,1.8 -0.798,1.4 0,0.9 0,0.5 L 0,0 z"
               inkscape:connector-curvature="0" /></g><g
             transform="translate(417.2036,696.8281)"
             id="g1368"><path
               id="path1370"
               style="fill:#8c8c8c;fill-opacity:1;fill-rule:nonzero;stroke:none"
               d="M 0,0 C 0,0.2 0.1,0.5 0.1,0.7 0.6,0.5 1.3,0.3 2,0.5 1.9,0.7 1.8,1 1.7,1.2 3.5,1.4 1.2,4.4 0.2,5 c 0.3,1.2 -3,3.3 -4,3.9 -0.578,0.385 -1.434,1.001 -2.334,1.538 -1.253,-0.039 -2.521,-0.109 -3.862,0.028 C -6.848,6.729 -4.531,2.175 0,0"
               inkscape:connector-curvature="0" /></g><g
             transform="translate(405.3037,707.3281)"
             id="g1372"><path
               id="path1374"
               style="fill:#f4f4f4;fill-opacity:1;fill-rule:nonzero;stroke:none"
               d="M 0,0 C 3.7,-1.3 4.7,-9.4 9.2,-9.1 11.4,-9 8.8,-4.9 7.7,-3.9 6.1,-2.2 4.4,-1.4 2.3,-0.5 L 0,0 z"
               inkscape:connector-curvature="0" /></g><g
             transform="translate(409.2041,705.728)"
             id="g1376"><path
               id="path1378"
               style="fill:#4c4c4c;fill-opacity:1;fill-rule:nonzero;stroke:none"
               d="M 0,0 C 2.2,-0.4 5.4,-3.6 5,-6 2.8,-5.2 2.4,-1.2 0,0"
               inkscape:connector-curvature="0" /></g><g
             transform="translate(409.0845,705.2939)"
             id="g1380"><path
               id="path1382"
               style="fill:#3a3a3a;fill-opacity:1;fill-rule:nonzero;stroke:none"
               d="m 0,0 c 2.252,-0.5 4.951,-3.109 4.669,-5.566 0.226,0.129 0.452,0.259 0.677,0.389 C 4.037,-4.624 3.452,-3.16 2.811,-1.988 2.2,-0.871 1.484,0.193 0.347,0.823 -0.162,1.104 -0.615,0.327 -0.107,0.045 c 2.393,-1.323 2.433,-4.916 4.999,-6 0.332,-0.14 0.635,0.026 0.677,0.389 0.326,2.84 -2.72,5.856 -5.33,6.434 C -0.326,0.993 -0.566,0.126 0,0"
               inkscape:connector-curvature="0" /></g><g
             transform="translate(383.7036,723.0283)"
             id="g1384"><path
               id="path1386"
               style="fill:#4c4c4c;fill-opacity:1;fill-rule:nonzero;stroke:none"
               d="m 0,0 c -1.628,1.356 -4.6,1.8 -6.6,0.6 -2.1,-1.3 -2.4,-3.8 -1.2,-5.9 0.9,0.2 1.5,1.7 2.6,2.1 0.4,0.2 1.8,-0.1 1.6,0.8 -0.2,0.7 -1.7,0.2 -2,0.6 -0.9,1.5 2.3,0.3 2.7,0.2 1,-0.4 4.015,-1.01 3.3,0.9 C 0.329,-0.511 0.155,-0.129 0,0"
               inkscape:connector-curvature="0" /></g><g
             transform="translate(383.9307,723.417)"
             id="g1388"><path
               id="path1390"
               style="fill:#3a3a3a;fill-opacity:1;fill-rule:nonzero;stroke:none"
               d="m 0,0 c -2.128,1.606 -5.223,1.874 -7.45,0.324 -2.087,-1.451 -2.02,-4.204 -0.966,-6.24 0.086,-0.165 0.33,-0.276 0.509,-0.207 0.796,0.307 1.263,0.927 1.835,1.538 0.733,0.783 1.783,0.331 2.454,1.002 0.358,0.357 0.329,0.971 -0.022,1.323 -0.191,0.191 -0.459,0.245 -0.709,0.297 -0.2,0.041 -1.553,0.176 -0.604,0.016 1.459,-0.246 2.736,-0.969 4.256,-0.899 1.647,0.077 1.623,1.602 0.859,2.684 -0.332,0.471 -1.113,0.021 -0.778,-0.454 1.486,-2.104 -2.206,-0.997 -3.049,-0.735 -0.661,0.205 -2.198,0.779 -2.682,-0.048 -0.51,-0.871 0.569,-1.384 1.232,-1.421 1.054,-0.059 -0.265,-0.246 -0.539,-0.38 -0.984,-0.482 -1.495,-1.671 -2.492,-2.055 0.169,-0.069 0.338,-0.138 0.508,-0.207 -1.133,2.188 -0.675,4.64 1.777,5.633 1.769,0.717 3.943,0.157 5.407,-0.948 C 0.009,-1.127 0.457,-0.345 0,0"
               inkscape:connector-curvature="0" /></g><g
             transform="translate(394.0034,689.3281)"
             id="g1392"><path
               id="path1394"
               style="fill:#4c4c4c;fill-opacity:1;fill-rule:nonzero;stroke:none"
               d="m 0,0 c -0.2,1.1 -1.3,2.5 -1.6,3.4 -0.4,1 -1,2.7 -1.1,3.9 0,1.2 0.2,2 -1,3.2 -0.9,1 -1.7,1.4 -2.6,2.5 -0.8,1.1 -1.4,2 -2.1,3.1 -1,1.9 -3,3.9 -4.7,5.3 l -2.9,0.5 c -0.884,0.093 -1.397,-0.336 -1.727,-0.95 0.795,-6.7 1.212,-10.227 0.725,-13.15 -0.3,-5.1 -10.515,-1.5 -8.498,-5.8 4.937,-10.528 9.372,-7.068 10.552,-12.974 2.254,0.19 4.215,1.952 6.248,1.274 0.5,0.7 0.9,1.4 1.5,2 0.4,0.4 1.3,1.6 1.7,2 0.6,0.4 0.7,-0.3 1.2,0 0.3,0.1 0.5,0.5 0.8,0.8 0.7,0.5 1,1.2 1.6,1.8 C -1,-2.3 0.3,-1.7 0,0"
               inkscape:connector-curvature="0" /></g><g
             transform="translate(376.6035,711.1284)"
             id="g1396"><path
               id="path1398"
               style="fill:#4c4c4c;fill-opacity:1;fill-rule:nonzero;stroke:none"
               d="m 0,0 c 0.785,1.73 2.2,2.3 3.3,1.1 0.8,-0.9 2.3,-4.7 3,-5.7 1.4,-2.2 1.857,-4.867 2.9,-7.3 0.548,-1.277 2.488,-4.323 1.888,-5.224 C 10.188,-18.423 3.4,-18.6 2.1,-18.4 c -3.4,0.3 -1.3,1.9 -1,6 0.3,3 0.6,3.886 -0.1,7 -0.058,0.259 -1.11,5.158 -1,5.4"
               inkscape:connector-curvature="0" /></g><g
             transform="translate(376.9922,710.9014)"
             id="g1400"><path
               id="path1402"
               style="fill:#3a3a3a;fill-opacity:1;fill-rule:nonzero;stroke:none"
               d="m 0,0 c 2.285,3.789 4.364,-2.36 4.871,-3.414 1.328,-2.76 2.395,-5.522 3.506,-8.379 0.486,-1.249 3.242,-4.546 0.925,-5.358 -1.89,-0.662 -4.126,-0.62 -6.111,-0.641 -2.035,-0.022 -3.126,0.499 -2.545,2.678 0.518,1.943 0.656,3.979 0.822,5.975 0.268,3.211 -1.411,6.204 -1.406,9.366 0,0.581 -0.9,0.581 -0.901,0 -0.002,-1.82 0.632,-3.749 1.016,-5.52 0.867,-3.994 -0.256,-7.516 -0.812,-11.433 -0.479,-3.366 7.993,-1.744 9.506,-1.461 0.909,0.17 2.612,0.63 2.375,1.916 -0.227,1.233 -0.762,2.275 -1.328,3.388 C 8.865,-10.81 8.354,-8.595 7.442,-6.476 6.282,-3.78 2.749,6.3 -0.777,0.454 -1.078,-0.044 -0.299,-0.496 0,0"
               inkscape:connector-curvature="0" /></g><g
             transform="translate(374.0039,693.4282)"
             id="g1404"><path
               id="path1406"
               style="fill:#e0e0e0;fill-opacity:1;fill-rule:nonzero;stroke:none"
               d="M 0,0 C 0.4,1.1 0.8,3.5 1.9,2.2 2.7,1.2 2.5,-1.3 0.8,-0.6 L 0,0 z"
               inkscape:connector-curvature="0" /></g><g
             transform="translate(377.6035,712.228)"
             id="g1408"><path
               id="path1410"
               style="fill:#e0e0e0;fill-opacity:1;fill-rule:nonzero;stroke:none"
               d="m 0,0 c -0.5,-1.2 -0.8,-2.5 0,-3.6 0.3,0.9 2,2.3 0.9,3.1 L 0,0 z"
               inkscape:connector-curvature="0" /></g><g
             transform="translate(376.2036,693.8281)"
             id="g1412"><path
               id="path1414"
               style="fill:#e0e0e0;fill-opacity:1;fill-rule:nonzero;stroke:none"
               d="M 0,0 C 0.5,0.8 1.2,0.5 1.4,-0.4 1.1,-0.6 0.7,-0.7 0.3,-0.6 L 0,0 z"
               inkscape:connector-curvature="0" /></g><g
             transform="translate(387.3037,694.7979)"
             id="g1416"><path
               id="path1418"
               style="fill:#707070;fill-opacity:1;fill-rule:nonzero;stroke:none"
               d="m 0,0 c -0.318,-0.022 -6.16,-1.07 -9.252,-1.17 -5.431,-0.175 -11.439,1.732 -9.548,-2.3 3.525,-7.516 6.793,-7.903 8.804,-9.657 5.646,-0.035 3.836,6.545 6.396,5.957 C -0.449,-7.893 2.302,0.156 0,0"
               inkscape:connector-curvature="0" /></g><g
             transform="translate(378.6035,715.8281)"
             id="g1420"><path
               id="path1422"
               style="fill:#707070;fill-opacity:1;fill-rule:nonzero;stroke:none"
               d="M 0,0 C 0.581,0 0.581,0.9 0,0.9 -0.581,0.9 -0.581,0 0,0"
               inkscape:connector-curvature="0" /></g><g
             transform="translate(380.2534,715.978)"
             id="g1424"><path
               id="path1426"
               style="fill:#707070;fill-opacity:1;fill-rule:nonzero;stroke:none"
               d="M 0,0 C 0.581,0 0.581,0.9 0,0.9 -0.581,0.9 -0.581,0 0,0"
               inkscape:connector-curvature="0" /></g><g
             transform="translate(381.6035,714.0278)"
             id="g1428"><path
               id="path1430"
               style="fill:#707070;fill-opacity:1;fill-rule:nonzero;stroke:none"
               d="M 0,0 C 0.581,0 0.581,0.9 0,0.9 -0.581,0.9 -0.581,0 0,0"
               inkscape:connector-curvature="0" /></g><g
             transform="translate(382.9536,714.6279)"
             id="g1432"><path
               id="path1434"
               style="fill:#707070;fill-opacity:1;fill-rule:nonzero;stroke:none"
               d="M 0,0 C 0.581,0 0.581,0.9 0,0.9 -0.581,0.9 -0.581,0 0,0"
               inkscape:connector-curvature="0" /></g><g
             transform="translate(383.1035,711.0278)"
             id="g1436"><path
               id="path1438"
               style="fill:#707070;fill-opacity:1;fill-rule:nonzero;stroke:none"
               d="M 0,0 C 0.581,0 0.581,0.9 0,0.9 -0.581,0.9 -0.581,0 0,0"
               inkscape:connector-curvature="0" /></g><g
             transform="translate(385.8037,712.8281)"
             id="g1440"><path
               id="path1442"
               style="fill:#707070;fill-opacity:1;fill-rule:nonzero;stroke:none"
               d="M 0,0 C 0.581,0 0.581,0.9 0,0.9 -0.581,0.9 -0.581,0 0,0"
               inkscape:connector-curvature="0" /></g><g
             transform="translate(387.3037,709.3779)"
             id="g1444"><path
               id="path1446"
               style="fill:#707070;fill-opacity:1;fill-rule:nonzero;stroke:none"
               d="M 0,0 C 0.581,0 0.581,0.9 0,0.9 -0.581,0.9 -0.581,0 0,0"
               inkscape:connector-curvature="0" /></g><g
             transform="translate(383.7036,712.6777)"
             id="g1448"><path
               id="path1450"
               style="fill:#707070;fill-opacity:1;fill-rule:nonzero;stroke:none"
               d="M 0,0 C 0.581,0 0.581,0.9 0,0.9 -0.581,0.9 -0.581,0 0,0"
               inkscape:connector-curvature="0" /></g><g
             transform="translate(385.6538,710.1279)"
             id="g1452"><path
               id="path1454"
               style="fill:#707070;fill-opacity:1;fill-rule:nonzero;stroke:none"
               d="M 0,0 C 0.581,0 0.581,0.9 0,0.9 -0.581,0.9 -0.581,0 0,0"
               inkscape:connector-curvature="0" /></g><g
             transform="translate(381.7534,717.478)"
             id="g1456"><path
               id="path1458"
               style="fill:#707070;fill-opacity:1;fill-rule:nonzero;stroke:none"
               d="M 0,0 C 0.581,0 0.581,0.9 0,0.9 -0.581,0.9 -0.581,0 0,0"
               inkscape:connector-curvature="0" /></g><g
             transform="translate(383.2534,718.3779)"
             id="g1460"><path
               id="path1462"
               style="fill:#707070;fill-opacity:1;fill-rule:nonzero;stroke:none"
               d="M 0,0 C 0.581,0 0.581,0.9 0,0.9 -0.581,0.9 -0.581,0 0,0"
               inkscape:connector-curvature="0" /></g><g
             transform="translate(384.3037,716.2778)"
             id="g1464"><path
               id="path1466"
               style="fill:#707070;fill-opacity:1;fill-rule:nonzero;stroke:none"
               d="M 0,0 C 0.581,0 0.581,0.9 0,0.9 -0.581,0.9 -0.581,0 0,0"
               inkscape:connector-curvature="0" /></g><g
             transform="translate(430.8784,675.0283)"
             id="g1468"><path
               id="path1470"
               style="fill:#8c8c8c;fill-opacity:1;fill-rule:nonzero;stroke:none"
               d="m 0,0 c -0.075,-0.9 -0.75,-2.175 -0.6,-3.075 0.15,-0.825 1.2,-1.425 1.8,-1.95 1.35,-1.2 3,-2.4 4.5,-3.375 3.525,-2.1 8.325,-2.7 12.375,-2.85 2.475,-0.075 9.75,0.075 9.225,3.9 -0.3,2.1 -2.325,2.7 -4.05,3.225 -2.025,0.6 -3.9,1.65 -5.775,2.475 -3.15,1.425 -6,3.525 -8.85,5.55 C 7.05,5.025 5.55,6 3.675,6.45 0.9,6.975 1.05,5.025 0.375,3 L 0,0 z"
               inkscape:connector-curvature="0" /></g><g
             transform="translate(458.1035,670.6367)"
             id="g1472"><path
               id="path1474"
               style="fill:#705b45;fill-opacity:1;fill-rule:nonzero;stroke:none"
               d="m 0,0 c -1.321,0.521 -4.65,0.941 -9.83,4.812 -1.754,1.369 -4.071,3.397 -5.833,4.802 -0.129,0.126 -1.758,1.752 -1.887,1.877 -1.595,1.56 -1.19,1.254 -4.6,2.9 -4.366,2.109 -5.9,-0.599 -6.05,-1.95 -0.15,-0.6 1.95,-7.149 0.4,-9.449 0.15,0 3.45,0 3.75,-0.301 0.3,-0.299 2.05,-4.399 2.8,-4.85 0.6,3.6 6.65,-0.65 8.3,-1.549 0.386,0.926 1.726,0.912 3.201,0.721 l 6.373,-0.857 c 0.674,-0.135 -0.182,2.941 0.451,2.835 2.827,-0.446 2.675,-6.103 4.008,-4.2 C 2.438,-3.275 2.458,-0.968 0,0"
               inkscape:connector-curvature="0" /></g><g
             transform="translate(458.6035,667.0283)"
             id="g1476"><path
               id="path1478"
               style="fill:#4c4c4c;fill-opacity:1;fill-rule:nonzero;stroke:none"
               d="m 0,0 c -1.508,0.026 -3.063,-0.696 -4.475,-1.125 -2.928,-0.89 -5.885,-1.176 -9.025,-0.897 -2.951,0.262 -5.606,1.356 -8.175,2.547 -1.402,0.649 -2.547,1.365 -3.727,2.355 -0.531,0.446 -1.603,1.521 -2.499,2.069 0.562,1.57 0.701,3.957 0.701,5.451 0,1.8 -0.1,3.6 -1.2,5.2 l -0.17,0.151 c 0.946,5.14 8.814,-0.173 11.532,-0.907 -2.099,1.349 -3.937,3.956 -6.412,4.856 -1.35,0.45 -3.15,0.375 -4.425,-0.375 -1.645,-0.987 -1.837,-0.952 -1.554,-2.344 0,0 0.103,-0.506 0.129,-0.581 0.37,-1.079 0.4,-4 0.3,-5.2 -0.173,-2.332 -0.641,-4.216 0.2,-6.168 -0.005,-1.877 2.683,-3.793 3.908,-4.827 1.87,-1.58 3.971,-2.967 6.392,-3.505 2.529,-0.633 5.311,-0.37 7.9,-0.818 1.572,-0.272 3.167,-0.733 4.774,-0.535 1.924,0.237 4.072,1.173 5.591,2.354 C 0.66,-1.603 2.108,-0.037 0,0"
               inkscape:connector-curvature="0" /></g><g
             transform="translate(430.3037,673.6284)"
             id="g1480"><path
               id="path1482"
               style="fill:#e0e0e0;fill-opacity:1;fill-rule:nonzero;stroke:none"
               d="m 0,0 c 1.3,0.8 2.9,1.4 4.4,0.6 1.9,-1 1.3,-3.3 2,-4.9 -0.9,2.7 2.3,3.2 4,2 1.4,-0.9 3.4,-2.2 4.4,-3.6 -0.3,0.8 -0.9,1.9 -0.7,2.7 1.3,0 2.8,-0.9 4.2,-1.3 1.4,-0.4 3,-0.5 4.5,-0.8 0.1,1.9 -4,3 -5.3,3.8 -2,1.4 -3.8,2.9 -5.5,4.6 C 9,5.8 3.5,10.3 -1,9.8 -0.1,8.8 1.9,8.9 0.9,7.8 0.1,6.9 -0.9,7.4 -0.4,6 -0.3,5.6 0.4,5.6 0.6,5 0.7,4.6 0.3,3.9 0.1,3.5 -0.2,2.5 -0.7,1.7 -1.1,0.7 c 0.3,-0.1 0.6,-0.1 0.9,0 L 0,0 z"
               inkscape:connector-curvature="0" /></g><g
             transform="translate(432.3037,682)"
             id="g1484"><path
               id="path1486"
               style="fill:#f4f4f4;fill-opacity:1;fill-rule:nonzero;stroke:none"
               d="m 0,0 c 1.65,0 0.975,-1.948 0.225,-2.923 0.6,-0.15 1.65,0.263 2.1,-0.262 0.375,-0.45 0,-1.744 -0.225,-2.193 1.125,0.449 2.25,0.778 3.45,0.328 0.375,-0.15 0.975,-0.811 1.275,-0.886 0.45,-0.075 0.9,0.307 1.5,0.382 1.95,0.225 4.2,-1.796 5.925,-2.621 -0.9,0.9 -1.95,1.576 -3.075,2.176 -1.2,0.75 -1.95,1.919 -2.85,2.894 C 6.225,-1.08 3.375,-1 0.75,0 L 0,0 z"
               inkscape:connector-curvature="0" /></g><g
             transform="translate(420.3037,625.0781)"
             id="g1488"><path
               id="path1490"
               style="fill:#5e4732;fill-opacity:1;fill-rule:nonzero;stroke:none"
               d="M 0,0 C 0.3,1.5 -1.05,4.5 -2.25,5.25 L -3.3,6.15 C -3.6,6.6 -3.9,6.9 -4.5,6.9 -4.411,6.433 -4.343,5.966 -4.295,5.5 -4.479,5.583 -4.612,5.62 -4.636,5.554 -4.917,4.791 -4.988,3.975 -5.1,3.075 -4.8,3.15 -4.575,3 -4.275,3.075 -4.35,2.175 -4.875,1.2 -5.025,0.15 c -0.15,-1.275 0.3,-1.425 -0.225,-2.7 -0.248,-0.579 -0.269,-0.93 -0.287,-1.304 -0.1,-0.315 -0.204,-0.631 -0.313,-0.946 -0.126,-0.398 -0.251,-0.849 -0.365,-1.335 -0.252,-0.515 -0.516,-1.041 -0.685,-1.59 0.113,0.038 0.247,0.037 0.389,0.047 -0.072,-0.49 -0.127,-0.997 -0.154,-1.507 -0.33,-0.608 -0.655,-1.208 -0.535,-1.765 0.134,0.134 0.381,0.21 0.54,0.331 0.007,-0.098 0.015,-0.196 0.024,-0.294 -0.115,-0.867 -0.381,-1.513 -0.114,-2.512 0.193,0.145 0.384,0.294 0.558,0.479 0.166,-0.442 0.383,-0.854 0.654,-1.227 0.092,-0.936 0.325,-1.857 0.588,-2.777 0,0.62 -0.103,1.451 -0.047,2.156 0.196,-0.185 0.41,-0.355 0.647,-0.506 0.093,0.138 0.166,0.283 0.232,0.43 0.208,-0.252 0.43,-0.485 0.668,-0.655 -0.186,0.498 -0.32,0.982 -0.419,1.469 0.297,1.602 -0.288,3.428 0.419,4.606 0.015,0.026 0.03,0.048 0.044,0.072 0.116,-0.084 0.25,-0.227 0.406,-0.447 -0.021,0.233 -0.054,0.56 -0.064,0.889 0.639,0.588 0.974,-0.544 1.534,-0.512 0.03,-0.569 -0.01,-1.158 0.18,-1.652 0.346,0.767 0.437,1.549 0.398,2.34 0.184,0.871 -0.098,2.315 -0.098,2.91 -0.15,1.05 -0.6,2.55 -0.45,3.45 0.118,0.531 0.329,0.876 0.56,1.154 0.206,-0.523 0.355,-1.102 0.49,-1.304 0.142,0.567 0.015,1.134 -0.126,1.701 0.01,0.009 0.019,0.019 0.028,0.028 0.147,-0.201 0.339,-0.403 0.473,-0.604 0.135,0.45 0.126,0.9 0.045,1.349 C -0.02,-0.051 -0.009,-0.027 0,0"
               inkscape:connector-curvature="0" /></g></g></g></g></g></svg>