<?xml version="1.0" encoding="UTF-8" standalone="no"?>
<!-- Created with Inkscape (http://www.inkscape.org/) -->

<svg
   xmlns:dc="http://purl.org/dc/elements/1.1/"
   xmlns:cc="http://creativecommons.org/ns#"
   xmlns:rdf="http://www.w3.org/1999/02/22-rdf-syntax-ns#"
   xmlns:svg="http://www.w3.org/2000/svg"
   xmlns="http://www.w3.org/2000/svg"
   xmlns:sodipodi="http://sodipodi.sourceforge.net/DTD/sodipodi-0.dtd"
   xmlns:inkscape="http://www.inkscape.org/namespaces/inkscape"
   id="svg2"
   version="1.1"
   inkscape:version="0.48.2 r9819"
   width="200"
   height="200"
   xml:space="preserve"
   sodipodi:docname="animalgoose.svg"><metadata
     id="metadata8"><rdf:RDF><cc:Work
         rdf:about=""><dc:format>image/svg+xml</dc:format><dc:type
           rdf:resource="http://purl.org/dc/dcmitype/StillImage" /><dc:title></dc:title></cc:Work></rdf:RDF></metadata><defs
     id="defs6"><clipPath
       clipPathUnits="userSpaceOnUse"
       id="clipPath18"><path
         d="m 48,183.883 c 0,-42.802 34.698,-77.5 77.5,-77.5 l 0,0 c 42.802,0 77.5,34.698 77.5,77.5 l 0,0 c 0,42.802 -34.698,77.499 -77.5,77.499 l 0,0 C 82.698,261.382 48,226.685 48,183.883"
         id="path20"
         inkscape:connector-curvature="0" /></clipPath><clipPath
       clipPathUnits="userSpaceOnUse"
       id="clipPath76"><path
         d="m 28.3701,320.655 214.7989,0 0,-220.57 -214.7989,0 0,220.57 z"
         id="path78"
         inkscape:connector-curvature="0" /></clipPath><clipPath
       clipPathUnits="userSpaceOnUse"
       id="clipPath100"><path
         d="m 165.654,273.372 11.322,0 0,-45.72 -11.322,0 0,45.72 z"
         id="path102"
         inkscape:connector-curvature="0" /></clipPath><clipPath
       clipPathUnits="userSpaceOnUse"
       id="clipPath116"><path
         d="m 128.183,211.311 12.616,0 0,-11.865 -12.616,0 0,11.865 z"
         id="path118"
         inkscape:connector-curvature="0" /></clipPath><clipPath
       clipPathUnits="userSpaceOnUse"
       id="clipPath132"><path
         d="m 196.509,246.27 27.854,0 0,-23.43 -27.854,0 0,23.43 z"
         id="path134"
         inkscape:connector-curvature="0" /></clipPath><clipPath
       clipPathUnits="userSpaceOnUse"
       id="clipPath148"><path
         d="m 179.223,311.43 55.845,0 0,-81.438 -55.845,0 0,81.438 z"
         id="path150"
         inkscape:connector-curvature="0" /></clipPath><clipPath
       clipPathUnits="userSpaceOnUse"
       id="clipPath164"><path
         d="m 126.612,213.026 11.425,0 0,-11.377 -11.425,0 0,11.377 z"
         id="path166"
         inkscape:connector-curvature="0" /></clipPath><clipPath
       clipPathUnits="userSpaceOnUse"
       id="clipPath180"><path
         d="m 175.549,246.27 48.814,0 0,-20.403 -48.814,0 0,20.403 z"
         id="path182"
         inkscape:connector-curvature="0" /></clipPath><clipPath
       clipPathUnits="userSpaceOnUse"
       id="clipPath196"><path
         d="m 153.378,258.93 10.828,0 0,-34.765 -10.828,0 0,34.765 z"
         id="path198"
         inkscape:connector-curvature="0" /></clipPath><clipPath
       clipPathUnits="userSpaceOnUse"
       id="clipPath212"><path
         d="m 198.586,300.19 2.372,0 0,-6.69 -2.372,0 0,6.69 z"
         id="path214"
         inkscape:connector-curvature="0" /></clipPath><clipPath
       clipPathUnits="userSpaceOnUse"
       id="clipPath228"><path
         d="m 195.058,287.521 1.251,0 0,-4.43 -1.251,0 0,4.43 z"
         id="path230"
         inkscape:connector-curvature="0" /></clipPath><clipPath
       clipPathUnits="userSpaceOnUse"
       id="clipPath244"><path
         d="m 165.654,311.43 52.038,0 0,-83.778 -52.038,0 0,83.778 z"
         id="path246"
         inkscape:connector-curvature="0" /></clipPath><clipPath
       clipPathUnits="userSpaceOnUse"
       id="clipPath268"><path
         d="m 107.457,216.128 11.498,0 0,-12.869 -11.498,0 0,12.869 z"
         id="path270"
         inkscape:connector-curvature="0" /></clipPath><clipPath
       clipPathUnits="userSpaceOnUse"
       id="clipPath284"><path
         d="m 75.9043,281.379 8.3789,0 0,-46.284 -8.3789,0 0,46.284 z"
         id="path286"
         inkscape:connector-curvature="0" /></clipPath><clipPath
       clipPathUnits="userSpaceOnUse"
       id="clipPath300"><path
         d="m 27.6875,259.947 25.1895,0 0,-26.276 -25.1895,0 0,26.276 z"
         id="path302"
         inkscape:connector-curvature="0" /></clipPath><clipPath
       clipPathUnits="userSpaceOnUse"
       id="clipPath316"><path
         d="m 110.289,217.567 10.443,0 0,-12.421 -10.443,0 0,12.421 z"
         id="path318"
         inkscape:connector-curvature="0" /></clipPath><clipPath
       clipPathUnits="userSpaceOnUse"
       id="clipPath332"><path
         d="m 87.2285,264.234 8.751,0 0,-35.565 -8.751,0 0,35.565 z"
         id="path334"
         inkscape:connector-curvature="0" /></clipPath><clipPath
       clipPathUnits="userSpaceOnUse"
       id="clipPath348"><path
         d="m 20.2695,322.262 50.21,0 0,-84.071 -50.21,0 0,84.071 z"
         id="path350"
         inkscape:connector-curvature="0" /></clipPath><clipPath
       clipPathUnits="userSpaceOnUse"
       id="clipPath364"><path
         d="m 38.1172,322.275 45.5547,0 0,-87.848 -45.5547,0 0,87.848 z"
         id="path366"
         inkscape:connector-curvature="0" /></clipPath><clipPath
       clipPathUnits="userSpaceOnUse"
       id="clipPath380"><path
         d="m 27.6875,259.947 46.3525,0 0,-25.508 -46.3525,0 0,25.508 z"
         id="path382"
         inkscape:connector-curvature="0" /></clipPath><clipPath
       clipPathUnits="userSpaceOnUse"
       id="clipPath512"><path
         d="M 0,768 1024,768 1024,0 0,0 0,768 z"
         id="path514"
         inkscape:connector-curvature="0" /></clipPath><clipPath
       clipPathUnits="userSpaceOnUse"
       id="clipPath524"><path
         d="m 48,361.117 c 0,-42.801 34.698,-77.5 77.5,-77.5 l 0,0 c 42.802,0 77.5,34.699 77.5,77.5 l 0,0 c 0,42.802 -34.698,77.5 -77.5,77.5 l 0,0 c -42.802,0 -77.5,-34.698 -77.5,-77.5"
         id="path526"
         inkscape:connector-curvature="0" /></clipPath><clipPath
       clipPathUnits="userSpaceOnUse"
       id="clipPath582"><path
         d="m 83.4062,417.107 107.1498,0 0,-188.795 -107.1498,0 0,188.795 z"
         id="path584"
         inkscape:connector-curvature="0" /></clipPath><clipPath
       clipPathUnits="userSpaceOnUse"
       id="clipPath610"><path
         d="m 84.9932,382.28 34.2428,0 0,-99.798 -34.2428,0 0,99.798 z"
         id="path612"
         inkscape:connector-curvature="0" /></clipPath><clipPath
       clipPathUnits="userSpaceOnUse"
       id="clipPath698"><path
         d="m 136.179,348.39 27.69,0 0,-65.261 -27.69,0 0,65.261 z"
         id="path700"
         inkscape:connector-curvature="0" /></clipPath><clipPath
       clipPathUnits="userSpaceOnUse"
       id="clipPath734"><path
         d="M 0,768 1024,768 1024,0 0,0 0,768 z"
         id="path736"
         inkscape:connector-curvature="0" /></clipPath><clipPath
       clipPathUnits="userSpaceOnUse"
       id="clipPath746"><path
         d="m 48,533.883 c 0,-42.802 34.698,-77.5 77.5,-77.5 l 0,0 c 42.802,0 77.5,34.698 77.5,77.5 l 0,0 c 0,42.802 -34.698,77.5 -77.5,77.5 l 0,0 c -42.802,0 -77.5,-34.698 -77.5,-77.5"
         id="path748"
         inkscape:connector-curvature="0" /></clipPath><clipPath
       clipPathUnits="userSpaceOnUse"
       id="clipPath804"><path
         d="m 70.0752,597.154 140.1478,0 0,-172.125 -140.1478,0 0,172.125 z"
         id="path806"
         inkscape:connector-curvature="0" /></clipPath><clipPath
       clipPathUnits="userSpaceOnUse"
       id="clipPath828"><path
         d="m 72.2432,516.053 121.3948,0 0,-80.86 -121.3948,0 0,80.86 z"
         id="path830"
         inkscape:connector-curvature="0" /></clipPath><clipPath
       clipPathUnits="userSpaceOnUse"
       id="clipPath868"><path
         d="m 98,566.655 10.04,0 0,-10.399 -10.04,0 0,10.399 z"
         id="path870"
         inkscape:connector-curvature="0" /></clipPath><clipPath
       clipPathUnits="userSpaceOnUse"
       id="clipPath884"><path
         d="m 116.188,564.133 19.527,0 0,-12.705 -19.527,0 0,12.705 z"
         id="path886"
         inkscape:connector-curvature="0" /></clipPath><clipPath
       clipPathUnits="userSpaceOnUse"
       id="clipPath908"><path
         d="m 107.135,573.487 49.874,0 0,-41.003 -49.874,0 0,41.003 z"
         id="path910"
         inkscape:connector-curvature="0" /></clipPath><clipPath
       clipPathUnits="userSpaceOnUse"
       id="clipPath940"><path
         d="m 117.255,561.123 9.391,0 0,-8.776 -9.391,0 0,8.776 z"
         id="path942"
         inkscape:connector-curvature="0" /></clipPath><clipPath
       clipPathUnits="userSpaceOnUse"
       id="clipPath964"><path
         d="m 117.456,560.869 8.443,0 0,-7.236 -8.443,0 0,7.236 z"
         id="path966"
         inkscape:connector-curvature="0" /></clipPath><clipPath
       clipPathUnits="userSpaceOnUse"
       id="clipPath980"><path
         d="m 117.002,560.869 6.503,0 0,-6.584 -6.503,0 0,6.584 z"
         id="path982"
         inkscape:connector-curvature="0" /></clipPath><clipPath
       clipPathUnits="userSpaceOnUse"
       id="clipPath996"><path
         d="m 97.1562,564.531 7.1068,0 0,-7.397 -7.1068,0 0,7.397 z"
         id="path998"
         inkscape:connector-curvature="0" /></clipPath><clipPath
       clipPathUnits="userSpaceOnUse"
       id="clipPath1020"><path
         d="m 97.7725,564.531 6.0075,0 0,-6.753 -6.0075,0 0,6.753 z"
         id="path1022"
         inkscape:connector-curvature="0" /></clipPath><clipPath
       clipPathUnits="userSpaceOnUse"
       id="clipPath1036"><path
         d="m 97.1562,564.531 4.6348,0 0,-6.592 -4.6348,0 0,6.592 z"
         id="path1038"
         inkscape:connector-curvature="0" /></clipPath><clipPath
       clipPathUnits="userSpaceOnUse"
       id="clipPath1144"><path
         d="m 112.72,573.875 38.467,0 0,-10.892 -38.467,0 0,10.892 z"
         id="path1146"
         inkscape:connector-curvature="0" /></clipPath><clipPath
       clipPathUnits="userSpaceOnUse"
       id="clipPath1164"><path
         d="m 115.91,593.83 37.215,0 0,-25.138 -37.215,0 0,25.138 z"
         id="path1166"
         inkscape:connector-curvature="0" /></clipPath><clipPath
       clipPathUnits="userSpaceOnUse"
       id="clipPath1188"><path
         d="m 114.113,596.642 43.988,0 0,-29.566 -43.988,0 0,29.566 z"
         id="path1190"
         inkscape:connector-curvature="0" /></clipPath><clipPath
       clipPathUnits="userSpaceOnUse"
       id="clipPath1204"><path
         d="m 111.065,596.661 43.954,0 0,-29.375 -43.954,0 0,29.375 z"
         id="path1206"
         inkscape:connector-curvature="0" /></clipPath><clipPath
       clipPathUnits="userSpaceOnUse"
       id="clipPath1228"><path
         d="m 129.643,574.128 5.688,0 0,-7.623 -5.688,0 0,7.623 z"
         id="path1230"
         inkscape:connector-curvature="0" /></clipPath><clipPath
       clipPathUnits="userSpaceOnUse"
       id="clipPath1244"><path
         d="m 130.658,573.875 5.689,0 0,-7.624 -5.689,0 0,7.624 z"
         id="path1246"
         inkscape:connector-curvature="0" /></clipPath><clipPath
       clipPathUnits="userSpaceOnUse"
       id="clipPath1264"><path
         d="m 131.537,574.128 4.302,0 0,-7.265 -4.302,0 0,7.265 z"
         id="path1266"
         inkscape:connector-curvature="0" /></clipPath><clipPath
       clipPathUnits="userSpaceOnUse"
       id="clipPath1280"><path
         d="m 130.15,574.128 3.803,0 0,-7.084 -3.803,0 0,7.084 z"
         id="path1282"
         inkscape:connector-curvature="0" /></clipPath><clipPath
       clipPathUnits="userSpaceOnUse"
       id="clipPath1300"><path
         d="m 132.084,572.698 2.687,0 0,-4.539 -2.687,0 0,4.539 z"
         id="path1302"
         inkscape:connector-curvature="0" /></clipPath><clipPath
       clipPathUnits="userSpaceOnUse"
       id="clipPath1316"><path
         d="m 131.218,572.698 2.476,0 0,-4.763 -2.476,0 0,4.763 z"
         id="path1318"
         inkscape:connector-curvature="0" /></clipPath><clipPath
       clipPathUnits="userSpaceOnUse"
       id="clipPath1332"><path
         d="m 140.12,574.02 5.25,0 0,-6.573 -5.25,0 0,6.573 z"
         id="path1334"
         inkscape:connector-curvature="0" /></clipPath><clipPath
       clipPathUnits="userSpaceOnUse"
       id="clipPath1348"><path
         d="m 141.136,573.766 5.25,0 0,-6.573 -5.25,0 0,6.573 z"
         id="path1350"
         inkscape:connector-curvature="0" /></clipPath><clipPath
       clipPathUnits="userSpaceOnUse"
       id="clipPath1368"><path
         d="m 141.888,574.02 3.992,0 0,-6.05 -3.992,0 0,6.05 z"
         id="path1370"
         inkscape:connector-curvature="0" /></clipPath><clipPath
       clipPathUnits="userSpaceOnUse"
       id="clipPath1384"><path
         d="m 140.628,574.02 3.685,0 0,-6.573 -3.685,0 0,6.573 z"
         id="path1386"
         inkscape:connector-curvature="0" /></clipPath><clipPath
       clipPathUnits="userSpaceOnUse"
       id="clipPath1404"><path
         d="m 142.474,572.774 2.302,0 0,-3.889 -2.302,0 0,3.889 z"
         id="path1406"
         inkscape:connector-curvature="0" /></clipPath><clipPath
       clipPathUnits="userSpaceOnUse"
       id="clipPath1420"><path
         d="m 141.73,572.774 2.124,0 0,-4.081 -2.124,0 0,4.081 z"
         id="path1422"
         inkscape:connector-curvature="0" /></clipPath><clipPath
       clipPathUnits="userSpaceOnUse"
       id="clipPath1436"><path
         d="m 149.369,575.589 3.356,0 0,-5.878 -3.356,0 0,5.878 z"
         id="path1438"
         inkscape:connector-curvature="0" /></clipPath><clipPath
       clipPathUnits="userSpaceOnUse"
       id="clipPath1452"><path
         d="m 150.385,575.335 2.768,0 0,-5.792 -2.768,0 0,5.792 z"
         id="path1454"
         inkscape:connector-curvature="0" /></clipPath><clipPath
       clipPathUnits="userSpaceOnUse"
       id="clipPath1472"><path
         d="m 150.752,575.589 2.48,0 0,-5.58 -2.48,0 0,5.58 z"
         id="path1474"
         inkscape:connector-curvature="0" /></clipPath><clipPath
       clipPathUnits="userSpaceOnUse"
       id="clipPath1488"><path
         d="m 149.876,575.589 2.316,0 0,-5.878 -2.316,0 0,5.878 z"
         id="path1490"
         inkscape:connector-curvature="0" /></clipPath><clipPath
       clipPathUnits="userSpaceOnUse"
       id="clipPath1508"><path
         d="m 150.993,574.426 1.705,0 0,-3.397 -1.705,0 0,3.397 z"
         id="path1510"
         inkscape:connector-curvature="0" /></clipPath><clipPath
       clipPathUnits="userSpaceOnUse"
       id="clipPath1524"><path
         d="m 150.415,574.426 1.564,0 0,-3.553 -1.564,0 0,3.553 z"
         id="path1526"
         inkscape:connector-curvature="0" /></clipPath><clipPath
       clipPathUnits="userSpaceOnUse"
       id="clipPath1540"><path
         d="m 119.9,576 5.254,0 0,-7.104 -5.254,0 0,7.104 z"
         id="path1542"
         inkscape:connector-curvature="0" /></clipPath><clipPath
       clipPathUnits="userSpaceOnUse"
       id="clipPath1556"><path
         d="m 120.91,575.39 5.271,0 0,-6.748 -5.271,0 0,6.748 z"
         id="path1558"
         inkscape:connector-curvature="0" /></clipPath><clipPath
       clipPathUnits="userSpaceOnUse"
       id="clipPath1576"><path
         d="m 121.69,575.644 3.983,0 0,-6.435 -3.983,0 0,6.435 z"
         id="path1578"
         inkscape:connector-curvature="0" /></clipPath><clipPath
       clipPathUnits="userSpaceOnUse"
       id="clipPath1592"><path
         d="m 120.423,575.579 2.282,0 0,-6.09 -2.282,0 0,6.09 z"
         id="path1594"
         inkscape:connector-curvature="0" /></clipPath><clipPath
       clipPathUnits="userSpaceOnUse"
       id="clipPath1612"><path
         d="m 122.217,574.705 2.396,0 0,-4.601 -2.396,0 0,4.601 z"
         id="path1614"
         inkscape:connector-curvature="0" /></clipPath><clipPath
       clipPathUnits="userSpaceOnUse"
       id="clipPath1628"><path
         d="m 121.06,574.705 2.689,0 0,-4.731 -2.689,0 0,4.731 z"
         id="path1630"
         inkscape:connector-curvature="0" /></clipPath><clipPath
       clipPathUnits="userSpaceOnUse"
       id="clipPath1644"><path
         d="m 112.821,578.751 3.345,0 0,-5.879 -3.345,0 0,5.879 z"
         id="path1646"
         inkscape:connector-curvature="0" /></clipPath><clipPath
       clipPathUnits="userSpaceOnUse"
       id="clipPath1660"><path
         d="m 113.766,578.497 3.416,0 0,-5.878 -3.416,0 0,5.878 z"
         id="path1662"
         inkscape:connector-curvature="0" /></clipPath><clipPath
       clipPathUnits="userSpaceOnUse"
       id="clipPath1680"><path
         d="m 114.145,578.751 2.529,0 0,-5.582 -2.529,0 0,5.582 z"
         id="path1682"
         inkscape:connector-curvature="0" /></clipPath><clipPath
       clipPathUnits="userSpaceOnUse"
       id="clipPath1696"><path
         d="m 113.257,578.751 2.354,0 0,-5.581 -2.354,0 0,5.581 z"
         id="path1698"
         inkscape:connector-curvature="0" /></clipPath><clipPath
       clipPathUnits="userSpaceOnUse"
       id="clipPath1716"><path
         d="m 114.337,577.928 1.712,0 0,-3.949 -1.712,0 0,3.949 z"
         id="path1718"
         inkscape:connector-curvature="0" /></clipPath><clipPath
       clipPathUnits="userSpaceOnUse"
       id="clipPath1732"><path
         d="m 113.511,577.928 1.92,0 0,-4.06 -1.92,0 0,4.06 z"
         id="path1734"
         inkscape:connector-curvature="0" /></clipPath><clipPath
       clipPathUnits="userSpaceOnUse"
       id="clipPath1748"><path
         d="M 0,768 1024,768 1024,0 0,0 0,768 z"
         id="path1750"
         inkscape:connector-curvature="0" /></clipPath><clipPath
       clipPathUnits="userSpaceOnUse"
       id="clipPath1760"><path
         d="m 228,536.117 c 0,-42.802 34.698,-77.5 77.5,-77.5 l 0,0 c 42.802,0 77.5,34.698 77.5,77.5 l 0,0 c 0,42.802 -34.698,77.5 -77.5,77.5 l 0,0 c -42.802,0 -77.5,-34.698 -77.5,-77.5"
         id="path1762"
         inkscape:connector-curvature="0" /></clipPath><clipPath
       clipPathUnits="userSpaceOnUse"
       id="clipPath1834"><path
         d="m 319.266,624.217 53.897,0 0,-74.711 -53.897,0 0,74.711 z"
         id="path1836"
         inkscape:connector-curvature="0" /></clipPath><clipPath
       clipPathUnits="userSpaceOnUse"
       id="clipPath1850"><path
         d="m 270.849,584.472 152.916,0 0,-178.278 -152.916,0 0,178.278 z"
         id="path1852"
         inkscape:connector-curvature="0" /></clipPath><clipPath
       clipPathUnits="userSpaceOnUse"
       id="clipPath2054"><path
         d="M 0,768 1024,768 1024,0 0,0 0,768 z"
         id="path2056"
         inkscape:connector-curvature="0" /></clipPath><clipPath
       clipPathUnits="userSpaceOnUse"
       id="clipPath2066"><path
         d="m 228,361.117 c 0,-42.801 34.698,-77.5 77.5,-77.5 l 0,0 c 42.802,0 77.5,34.699 77.5,77.5 l 0,0 c 0,42.802 -34.698,77.5 -77.5,77.5 l 0,0 c -42.802,0 -77.5,-34.698 -77.5,-77.5"
         id="path2068"
         inkscape:connector-curvature="0" /></clipPath><clipPath
       clipPathUnits="userSpaceOnUse"
       id="clipPath2124"><path
         d="m 254.025,411.491 171,0 0,-170.562 -171,0 0,170.562 z"
         id="path2126"
         inkscape:connector-curvature="0" /></clipPath><clipPath
       clipPathUnits="userSpaceOnUse"
       id="clipPath2148"><path
         d="m 338.895,334.943 69.931,0 0,-80.858 -69.931,0 0,80.858 z"
         id="path2150"
         inkscape:connector-curvature="0" /></clipPath><clipPath
       clipPathUnits="userSpaceOnUse"
       id="clipPath2208"><path
         d="m 269.726,385.375 45.75,0 0,-129.289 -45.75,0 0,129.289 z"
         id="path2210"
         inkscape:connector-curvature="0" /></clipPath><clipPath
       clipPathUnits="userSpaceOnUse"
       id="clipPath2248"><path
         d="m 286.077,395.068 15.482,0 0,-10.204 -15.482,0 0,10.204 z"
         id="path2250"
         inkscape:connector-curvature="0" /></clipPath><clipPath
       clipPathUnits="userSpaceOnUse"
       id="clipPath2288"><path
         d="M 0,768 1024,768 1024,0 0,0 0,768 z"
         id="path2290"
         inkscape:connector-curvature="0" /></clipPath><clipPath
       clipPathUnits="userSpaceOnUse"
       id="clipPath2300"><path
         d="m 228,186.116 c 0,-42.802 34.698,-77.499 77.5,-77.499 l 0,0 c 42.802,0 77.5,34.697 77.5,77.499 l 0,0 c 0,42.802 -34.698,77.499 -77.5,77.499 l 0,0 c -42.802,0 -77.5,-34.697 -77.5,-77.499"
         id="path2302"
         inkscape:connector-curvature="0" /></clipPath><clipPath
       clipPathUnits="userSpaceOnUse"
       id="clipPath2358"><path
         d="m 258.341,233.648 142.781,0 0,-148.6353 -142.781,0 0,148.6353 z"
         id="path2360"
         inkscape:connector-curvature="0" /></clipPath><clipPath
       clipPathUnits="userSpaceOnUse"
       id="clipPath2382"><path
         d="m 258.42,173.87 34.287,0 0,-76.0057 -34.287,0 0,76.0057 z"
         id="path2384"
         inkscape:connector-curvature="0" /></clipPath><clipPath
       clipPathUnits="userSpaceOnUse"
       id="clipPath2406"><path
         d="m 257.662,238.148 134.46,0 0,-140.8531 -134.46,0 0,140.8531 z"
         id="path2408"
         inkscape:connector-curvature="0" /></clipPath><clipPath
       clipPathUnits="userSpaceOnUse"
       id="clipPath2422"><path
         d="m 267.864,236.151 124.003,0 0,-136.8453 -124.003,0 0,136.8453 z"
         id="path2424"
         inkscape:connector-curvature="0" /></clipPath><clipPath
       clipPathUnits="userSpaceOnUse"
       id="clipPath2438"><path
         d="m 267.441,220.876 66.413,0 0,-48.466 -66.413,0 0,48.466 z"
         id="path2440"
         inkscape:connector-curvature="0" /></clipPath><clipPath
       clipPathUnits="userSpaceOnUse"
       id="clipPath2470"><path
         d="m 272.204,233.586 74.445,0 0,-41.978 -74.445,0 0,41.978 z"
         id="path2472"
         inkscape:connector-curvature="0" /></clipPath><clipPath
       clipPathUnits="userSpaceOnUse"
       id="clipPath2510"><path
         d="m 285.177,216.011 c -1.979,-0.063 -5.012,-1.992 -5.706,-3.06 l 0,0 c -2.453,-3.78 -3.27,-10.959 -1.664,-13.409 l 0,0 c 1.71,-2.61 5.661,-3.865 8.145,-3.705 l 0,0 c 5.563,0.36 7.515,3.795 8.055,9.015 l 0,0 c 0.27,2.519 0.787,7.2 -2.52,9.54 l 0,0 c -0.826,0.584 -3.228,1.624 -5.967,1.624 l 0,0 c -0.114,0 -0.228,-0.002 -0.343,-0.005"
         id="path2512"
         inkscape:connector-curvature="0" /></clipPath><clipPath
       clipPathUnits="userSpaceOnUse"
       id="clipPath2518"><path
         d="m 284.871,211.291 15.324,0 0,-4.549 -15.324,0 0,4.549 z"
         id="path2520"
         inkscape:connector-curvature="0" /></clipPath><clipPath
       clipPathUnits="userSpaceOnUse"
       id="clipPath2534"><path
         d="m 284.871,217.88 12.083,0 0,-11.138 -12.083,0 0,11.138 z"
         id="path2536"
         inkscape:connector-curvature="0" /></clipPath><clipPath
       clipPathUnits="userSpaceOnUse"
       id="clipPath2550"><path
         d="m 284.871,221.483 5.604,0 0,-14.741 -5.604,0 0,14.741 z"
         id="path2552"
         inkscape:connector-curvature="0" /></clipPath><clipPath
       clipPathUnits="userSpaceOnUse"
       id="clipPath2566"><path
         d="m 280.322,222.064 4.549,0 0,-15.322 -4.549,0 0,15.322 z"
         id="path2568"
         inkscape:connector-curvature="0" /></clipPath><clipPath
       clipPathUnits="userSpaceOnUse"
       id="clipPath2582"><path
         d="m 273.733,218.824 11.138,0 0,-12.082 -11.138,0 0,12.082 z"
         id="path2584"
         inkscape:connector-curvature="0" /></clipPath><clipPath
       clipPathUnits="userSpaceOnUse"
       id="clipPath2598"><path
         d="m 270.13,212.346 14.741,0 0,-5.604 -14.741,0 0,5.604 z"
         id="path2600"
         inkscape:connector-curvature="0" /></clipPath><clipPath
       clipPathUnits="userSpaceOnUse"
       id="clipPath2614"><path
         d="m 269.549,206.742 15.322,0 0,-4.551 -15.322,0 0,4.551 z"
         id="path2616"
         inkscape:connector-curvature="0" /></clipPath><clipPath
       clipPathUnits="userSpaceOnUse"
       id="clipPath2630"><path
         d="m 272.789,206.742 12.082,0 0,-11.138 -12.082,0 0,11.138 z"
         id="path2632"
         inkscape:connector-curvature="0" /></clipPath><clipPath
       clipPathUnits="userSpaceOnUse"
       id="clipPath2646"><path
         d="m 279.268,206.742 5.603,0 0,-14.742 -5.603,0 0,14.742 z"
         id="path2648"
         inkscape:connector-curvature="0" /></clipPath><clipPath
       clipPathUnits="userSpaceOnUse"
       id="clipPath2662"><path
         d="m 284.871,206.742 4.549,0 0,-15.325 -4.549,0 0,15.325 z"
         id="path2664"
         inkscape:connector-curvature="0" /></clipPath><clipPath
       clipPathUnits="userSpaceOnUse"
       id="clipPath2678"><path
         d="m 284.871,206.742 11.138,0 0,-12.083 -11.138,0 0,12.083 z"
         id="path2680"
         inkscape:connector-curvature="0" /></clipPath><clipPath
       clipPathUnits="userSpaceOnUse"
       id="clipPath2694"><path
         d="m 284.871,206.742 14.742,0 0,-5.605 -14.742,0 0,5.605 z"
         id="path2696"
         inkscape:connector-curvature="0" /></clipPath><clipPath
       clipPathUnits="userSpaceOnUse"
       id="clipPath2710"><path
         d="m 228,186.116 c 0,-42.802 34.698,-77.499 77.5,-77.499 l 0,0 c 42.802,0 77.5,34.697 77.5,77.499 l 0,0 c 0,42.802 -34.698,77.499 -77.5,77.499 l 0,0 c -42.802,0 -77.5,-34.697 -77.5,-77.499"
         id="path2712"
         inkscape:connector-curvature="0" /></clipPath><clipPath
       clipPathUnits="userSpaceOnUse"
       id="clipPath2718"><path
         d="m 279.471,216.017 14.737,0 0,-17.02 -14.737,0 0,17.02 z"
         id="path2720"
         inkscape:connector-curvature="0" /></clipPath><clipPath
       clipPathUnits="userSpaceOnUse"
       id="clipPath2734"><path
         d="m 278.073,214.99 12.69,0 0,-11.389 -12.69,0 0,11.389 z"
         id="path2736"
         inkscape:connector-curvature="0" /></clipPath><clipPath
       clipPathUnits="userSpaceOnUse"
       id="clipPath2754"><path
         d="m 300.307,205.661 c -0.72,-2.88 -0.269,-6.589 1.35,-9.017 l 0,0 c 1.35,-1.981 2.879,-2.485 5.131,-3.474 l 0,0 c 3.869,-1.8 10.169,-1.387 12.958,2.123 l 0,0 c 1.981,2.52 3.803,9.895 1.531,13.122 l 0,0 c -1.835,2.603 -3.632,4.299 -7.167,5.02 l 0,0 c -1.074,0.219 -2.101,0.322 -3.075,0.322 l 0,0 c -5.789,0 -9.727,-3.627 -10.728,-8.096"
         id="path2756"
         inkscape:connector-curvature="0" /></clipPath><clipPath
       clipPathUnits="userSpaceOnUse"
       id="clipPath2762"><path
         d="m 309.712,214.639 12.082,0 0,-11.138 -12.082,0 0,11.138 z"
         id="path2764"
         inkscape:connector-curvature="0" /></clipPath><clipPath
       clipPathUnits="userSpaceOnUse"
       id="clipPath2778"><path
         d="m 309.712,218.243 5.602,0 0,-14.742 -5.602,0 0,14.742 z"
         id="path2780"
         inkscape:connector-curvature="0" /></clipPath><clipPath
       clipPathUnits="userSpaceOnUse"
       id="clipPath2794"><path
         d="m 305.162,218.825 4.55,0 0,-15.324 -4.55,0 0,15.324 z"
         id="path2796"
         inkscape:connector-curvature="0" /></clipPath><clipPath
       clipPathUnits="userSpaceOnUse"
       id="clipPath2810"><path
         d="m 298.574,215.584 11.138,0 0,-12.083 -11.138,0 0,12.083 z"
         id="path2812"
         inkscape:connector-curvature="0" /></clipPath><clipPath
       clipPathUnits="userSpaceOnUse"
       id="clipPath2826"><path
         d="m 294.97,209.105 14.742,0 0,-5.604 -14.742,0 0,5.604 z"
         id="path2828"
         inkscape:connector-curvature="0" /></clipPath><clipPath
       clipPathUnits="userSpaceOnUse"
       id="clipPath2842"><path
         d="m 294.388,203.501 15.324,0 0,-4.548 -15.324,0 0,4.548 z"
         id="path2844"
         inkscape:connector-curvature="0" /></clipPath><clipPath
       clipPathUnits="userSpaceOnUse"
       id="clipPath2858"><path
         d="m 297.629,203.501 12.083,0 0,-11.137 -12.083,0 0,11.137 z"
         id="path2860"
         inkscape:connector-curvature="0" /></clipPath><clipPath
       clipPathUnits="userSpaceOnUse"
       id="clipPath2874"><path
         d="m 304.107,203.501 5.605,0 0,-14.741 -5.605,0 0,14.741 z"
         id="path2876"
         inkscape:connector-curvature="0" /></clipPath><clipPath
       clipPathUnits="userSpaceOnUse"
       id="clipPath2890"><path
         d="m 309.712,203.501 4.548,0 0,-15.323 -4.548,0 0,15.323 z"
         id="path2892"
         inkscape:connector-curvature="0" /></clipPath><clipPath
       clipPathUnits="userSpaceOnUse"
       id="clipPath2906"><path
         d="m 309.712,203.501 11.138,0 0,-12.082 -11.138,0 0,12.082 z"
         id="path2908"
         inkscape:connector-curvature="0" /></clipPath><clipPath
       clipPathUnits="userSpaceOnUse"
       id="clipPath2922"><path
         d="m 309.712,203.501 14.741,0 0,-5.604 -14.741,0 0,5.604 z"
         id="path2924"
         inkscape:connector-curvature="0" /></clipPath><clipPath
       clipPathUnits="userSpaceOnUse"
       id="clipPath2938"><path
         d="m 309.712,208.051 15.323,0 0,-4.55 -15.323,0 0,4.55 z"
         id="path2940"
         inkscape:connector-curvature="0" /></clipPath><clipPath
       clipPathUnits="userSpaceOnUse"
       id="clipPath2954"><path
         d="m 228,186.116 c 0,-42.802 34.698,-77.499 77.5,-77.499 l 0,0 c 42.802,0 77.5,34.697 77.5,77.499 l 0,0 c 0,42.802 -34.698,77.499 -77.5,77.499 l 0,0 c -42.802,0 -77.5,-34.697 -77.5,-77.499"
         id="path2956"
         inkscape:connector-curvature="0" /></clipPath><clipPath
       clipPathUnits="userSpaceOnUse"
       id="clipPath2962"><path
         d="m 305.248,213.757 17.082,0 0,-18.464 -17.082,0 0,18.464 z"
         id="path2964"
         inkscape:connector-curvature="0" /></clipPath><clipPath
       clipPathUnits="userSpaceOnUse"
       id="clipPath2978"><path
         d="m 301.837,212.469 13.795,0 0,-13.488 -13.795,0 0,13.488 z"
         id="path2980"
         inkscape:connector-curvature="0" /></clipPath><clipPath
       clipPathUnits="userSpaceOnUse"
       id="clipPath3002"><path
         d="m 303.637,167.831 63.325,0 0,-78.3183 -63.325,0 0,78.3183 z"
         id="path3004"
         inkscape:connector-curvature="0" /></clipPath><clipPath
       clipPathUnits="userSpaceOnUse"
       id="clipPath3026"><path
         d="m 334.314,171.071 36.698,0 0,-71.2683 -36.698,0 0,71.2683 z"
         id="path3028"
         inkscape:connector-curvature="0" /></clipPath><clipPath
       clipPathUnits="userSpaceOnUse"
       id="clipPath3046"><path
         d="M 0,768 1024,768 1024,0 0,0 0,768 z"
         id="path3048"
         inkscape:connector-curvature="0" /></clipPath><clipPath
       clipPathUnits="userSpaceOnUse"
       id="clipPath3058"><path
         d="m 408,536.117 c 0,-42.802 34.698,-77.5 77.5,-77.5 l 0,0 c 42.802,0 77.5,34.698 77.5,77.5 l 0,0 c 0,42.802 -34.698,77.5 -77.5,77.5 l 0,0 c -42.802,0 -77.5,-34.698 -77.5,-77.5"
         id="path3060"
         inkscape:connector-curvature="0" /></clipPath><clipPath
       clipPathUnits="userSpaceOnUse"
       id="clipPath3116"><path
         d="m 438.781,587.971 160.04,0 0,-138.661 -160.04,0 0,138.661 z"
         id="path3118"
         inkscape:connector-curvature="0" /></clipPath><clipPath
       clipPathUnits="userSpaceOnUse"
       id="clipPath3140"><path
         d="m 575.706,528.121 11.135,0 0,-49.987 -11.135,0 0,49.987 z"
         id="path3142"
         inkscape:connector-curvature="0" /></clipPath><clipPath
       clipPathUnits="userSpaceOnUse"
       id="clipPath3188"><path
         d="m 495.493,545.319 93.89,0 0,-39.655 -93.89,0 0,39.655 z"
         id="path3190"
         inkscape:connector-curvature="0" /></clipPath><clipPath
       clipPathUnits="userSpaceOnUse"
       id="clipPath3212"><path
         d="m 527.791,527.143 59.061,0 0,-39.016 -59.061,0 0,39.016 z"
         id="path3214"
         inkscape:connector-curvature="0" /></clipPath><clipPath
       clipPathUnits="userSpaceOnUse"
       id="clipPath3236"><path
         d="m 507.09,487.143 29.179,0 0,-36.931 -29.179,0 0,36.931 z"
         id="path3238"
         inkscape:connector-curvature="0" /></clipPath><clipPath
       clipPathUnits="userSpaceOnUse"
       id="clipPath3272"><path
         d="m 463.675,571.134 2.555,0 0,-4.029 -2.555,0 0,4.029 z"
         id="path3274"
         inkscape:connector-curvature="0" /></clipPath><clipPath
       clipPathUnits="userSpaceOnUse"
       id="clipPath3288"><path
         d="m 466.432,553.293 18.654,0 0,-90.323 -18.654,0 0,90.323 z"
         id="path3290"
         inkscape:connector-curvature="0" /></clipPath><clipPath
       clipPathUnits="userSpaceOnUse"
       id="clipPath3304"><path
         d="m 495.211,535.912 22.394,0 0,-21.68 -22.394,0 0,21.68 z"
         id="path3306"
         inkscape:connector-curvature="0" /></clipPath><clipPath
       clipPathUnits="userSpaceOnUse"
       id="clipPath3320"><path
         d="M 0,768 1024,768 1024,0 0,0 0,768 z"
         id="path3322"
         inkscape:connector-curvature="0" /></clipPath><clipPath
       clipPathUnits="userSpaceOnUse"
       id="clipPath3332"><path
         d="m 408.256,361.117 c 0,-42.801 34.698,-77.5 77.5,-77.5 l 0,0 c 42.801,0 77.5,34.699 77.5,77.5 l 0,0 c 0,42.802 -34.699,77.5 -77.5,77.5 l 0,0 c -42.802,0 -77.5,-34.698 -77.5,-77.5"
         id="path3334"
         inkscape:connector-curvature="0" /></clipPath><clipPath
       clipPathUnits="userSpaceOnUse"
       id="clipPath3390"><path
         d="m 460.505,414.483 179.594,0 0,-183.402 -179.594,0 0,183.402 z"
         id="path3392"
         inkscape:connector-curvature="0" /></clipPath><clipPath
       clipPathUnits="userSpaceOnUse"
       id="clipPath3462"><path
         d="m 462.712,400.909 3.423,0 0,-1.983 -3.423,0 0,1.983 z"
         id="path3464"
         inkscape:connector-curvature="0" /></clipPath><clipPath
       clipPathUnits="userSpaceOnUse"
       id="clipPath3486"><path
         d="m 482.274,388.666 23.055,0 0,-8.095 -23.055,0 0,8.095 z"
         id="path3488"
         inkscape:connector-curvature="0" /></clipPath><clipPath
       clipPathUnits="userSpaceOnUse"
       id="clipPath3506"><path
         d="m 490.869,389.44 13.788,0 0,-8.146 -13.788,0 0,8.146 z"
         id="path3508"
         inkscape:connector-curvature="0" /></clipPath><clipPath
       clipPathUnits="userSpaceOnUse"
       id="clipPath3522"><path
         d="m 525.493,299.603 97.907,0 0,-61.254 -97.907,0 0,61.254 z"
         id="path3524"
         inkscape:connector-curvature="0" /></clipPath><clipPath
       clipPathUnits="userSpaceOnUse"
       id="clipPath3546"><path
         d="m 489.459,322.129 139.97,0 0,-29.732 -139.97,0 0,29.732 z"
         id="path3548"
         inkscape:connector-curvature="0" /></clipPath><clipPath
       clipPathUnits="userSpaceOnUse"
       id="clipPath3570"><path
         d="M 0,768 1024,768 1024,0 0,0 0,768 z"
         id="path3572"
         inkscape:connector-curvature="0" /></clipPath></defs><sodipodi:namedview
     pagecolor="#ffffff"
     bordercolor="#666666"
     borderopacity="1"
     objecttolerance="10"
     gridtolerance="10"
     guidetolerance="10"
     inkscape:pageopacity="0"
     inkscape:pageshadow="2"
     inkscape:window-width="1600"
     inkscape:window-height="837"
     id="namedview4"
     showgrid="false"
     inkscape:zoom="0.675"
     inkscape:cx="462.96296"
     inkscape:cy="240.28777"
     inkscape:window-x="-8"
     inkscape:window-y="-8"
     inkscape:window-maximized="1"
     inkscape:current-layer="g10" /><g
     id="g10"
     inkscape:groupmode="layer"
     inkscape:label="tiericons_cs5"
     transform="matrix(1.25,0,0,-1.25,0,200)"><g
       id="g7155"
       transform="translate(-405.5,-456.1172)"><g
         id="g3054"><g
           clip-path="url(#clipPath3058)"
           id="g3056"><path
             id="path3062"
             style="fill:#acdef9;fill-opacity:1;fill-rule:nonzero;stroke:none"
             d="m 563.512,458.671 -155.906,0 0,155.906 155.906,0 0,-155.906 z"
             inkscape:connector-curvature="0" /><g
             transform="translate(485.749,662.5479)"
             id="g3064"><path
               id="path3066"
               style="fill:#e4f9f7;fill-opacity:1;fill-rule:nonzero;stroke:none"
               d="M 0,0 0.007,-126.432 26.992,-4.848 0,0 z"
               inkscape:connector-curvature="0" /></g><g
             transform="translate(422.7979,645.6055)"
             id="g3068"><path
               id="path3070"
               style="fill:#e4f9f7;fill-opacity:1;fill-rule:nonzero;stroke:none"
               d="M 0,0 62.958,-109.489 25.79,9.354 0,0 z"
               inkscape:connector-curvature="0" /></g><g
             transform="translate(376.7168,599.3252)"
             id="g3072"><path
               id="path3074"
               style="fill:#e4f9f7;fill-opacity:1;fill-rule:nonzero;stroke:none"
               d="M 0,0 109.039,-63.209 17.677,21.051 0,0 z"
               inkscape:connector-curvature="0" /></g><g
             transform="translate(359.8525,536.1084)"
             id="g3076"><path
               id="path3078"
               style="fill:#e4f9f7;fill-opacity:1;fill-rule:nonzero;stroke:none"
               d="M 0,0 125.903,0.008 4.827,27.105 0,0 z"
               inkscape:connector-curvature="0" /></g><g
             transform="translate(376.7246,472.8945)"
             id="g3080"><path
               id="path3082"
               style="fill:#e4f9f7;fill-opacity:1;fill-rule:nonzero;stroke:none"
               d="M 0,0 109.031,63.222 -9.316,25.897 0,0 z"
               inkscape:connector-curvature="0" /></g><g
             transform="translate(422.8105,426.6191)"
             id="g3084"><path
               id="path3086"
               style="fill:#e4f9f7;fill-opacity:1;fill-rule:nonzero;stroke:none"
               d="M 0,0 62.945,109.497 -20.962,17.752 0,0 z"
               inkscape:connector-curvature="0" /></g><g
             transform="translate(485.7637,409.6855)"
             id="g3088"><path
               id="path3090"
               style="fill:#e4f9f7;fill-opacity:1;fill-rule:nonzero;stroke:none"
               d="M 0,0 -0.008,126.431 -26.992,4.847 0,0 z"
               inkscape:connector-curvature="0" /></g><g
             transform="translate(548.7139,426.627)"
             id="g3092"><path
               id="path3094"
               style="fill:#e4f9f7;fill-opacity:1;fill-rule:nonzero;stroke:none"
               d="M 0,0 -62.958,109.489 -25.789,-9.354 0,0 z"
               inkscape:connector-curvature="0" /></g><g
             transform="translate(594.7959,472.9063)"
             id="g3096"><path
               id="path3098"
               style="fill:#e4f9f7;fill-opacity:1;fill-rule:nonzero;stroke:none"
               d="M 0,0 -109.04,63.21 -17.678,-21.05 0,0 z"
               inkscape:connector-curvature="0" /></g><g
             transform="translate(611.6592,536.123)"
             id="g3100"><path
               id="path3102"
               style="fill:#e4f9f7;fill-opacity:1;fill-rule:nonzero;stroke:none"
               d="M 0,0 -125.903,-0.007 -4.827,-27.105 0,0 z"
               inkscape:connector-curvature="0" /></g><g
             transform="translate(594.7881,599.3379)"
             id="g3104"><path
               id="path3106"
               style="fill:#e4f9f7;fill-opacity:1;fill-rule:nonzero;stroke:none"
               d="M 0,0 -109.032,-63.222 9.315,-25.897 0,0 z"
               inkscape:connector-curvature="0" /></g><g
             transform="translate(548.7012,645.6123)"
             id="g3108"><path
               id="path3110"
               style="fill:#e4f9f7;fill-opacity:1;fill-rule:nonzero;stroke:none"
               d="M 0,0 -62.945,-109.496 20.963,-17.751 0,0 z"
               inkscape:connector-curvature="0" /></g><g
             id="g3112"><g
               id="g3114" /><g
               id="g3120"><g
                 id="g3122"
                 clip-path="url(#clipPath3116)"
                 style="opacity:0.60000598"><g
                   id="g3124"
                   transform="translate(597.8984,534.8496)"><path
                     id="path3126"
                     style="fill:#1b0000;fill-opacity:1;fill-rule:nonzero;stroke:none"
                     d="M 0,0 C 0.327,1.04 0.562,2.084 0.623,3.12 0.769,5.313 1.336,7.459 0.316,9.995 l 0,0.001 c -0.024,0.12 -0.037,0.245 -0.068,0.362 -0.003,0.002 -0.184,0.002 -0.187,0.004 -0.165,0.627 0.041,1.209 -0.959,1.744 l 0,0.04 c 0,0.122 0.008,0.242 -0.086,0.357 -0.125,0.147 -0.181,0.26 -0.333,0.356 -0.031,0.02 -0.018,0.041 -0.05,0.059 -0.153,0.084 -0.293,0.148 -0.467,0.189 -0.029,0.007 -0.049,0.002 -0.08,0.008 -0.167,0.031 -0.331,0.035 -0.516,0.035 l -0.075,0 c -0.202,0 -0.414,-0.031 -0.635,-0.076 -0.02,-0.005 -0.038,0 -0.059,-0.005 -0.001,-0.002 -0.003,-0.002 -0.005,-0.004 -3.976,-0.877 -10.771,-7.323 -15.38,-9.072 -9.872,2.425 -21.694,0.557 -31.093,0.139 -8.371,-0.269 -16.2,-1.349 -24.031,-3.24 -7.56,-1.89 -12.15,-12.419 -19.71,-13.769 0,0 -2.163,5.816 -2.605,7.831 -0.837,3.8 -0.124,8.003 -0.363,12.06 -0.107,1.815 -0.033,3.599 0.154,5.356 0.125,0.694 0.268,1.389 0.418,2.083 0.004,0.005 0.012,0.011 0.017,0.016 0.234,1.212 0.523,2.423 0.845,3.63 -0.105,-0.055 -0.217,-0.12 -0.326,-0.178 2.764,10.95 6.625,19.491 -0.489,27.794 -0.005,0.006 -0.009,0.011 -0.014,0.016 -0.304,0.354 -0.621,0.708 -0.967,1.062 -5.129,5.4 -26.098,11.881 -37.438,-1.979 -2.018,-2.464 -2.127,-7.837 -3.979,-12.642 -0.132,0.003 -0.263,0.005 -0.387,-0.004 -0.615,-0.665 -0.87,-1.402 -0.867,-2.177 -0.019,-0.042 -0.037,-0.082 -0.057,-0.124 0.02,0.034 0.038,0.068 0.057,0.101 0.001,-0.098 0.001,-0.195 0.011,-0.293 -0.074,-0.143 -0.143,-0.291 -0.21,-0.44 -0.089,-0.142 -0.168,-0.29 -0.262,-0.429 0.094,0.335 0.236,0.695 0.404,1.061 -0.475,-0.829 -1.194,-1.92 -2.263,-3.237 -0.303,-0.282 -0.572,-0.601 -0.796,-0.944 -0.363,-0.417 -0.75,-0.848 -1.182,-1.303 -3.324,-3.504 -8.407,-6.395 -12.138,-9.537 -1.768,-1.375 -4.345,-5.097 -2.775,-7.846 1.375,-2.357 4.518,-0.394 6.875,0.589 4.909,1.964 6.728,2.014 11.442,4.174 2.392,1.196 6.161,2.387 8.836,4.387 l 0.007,0 c 0.178,0 0.382,-0.067 0.601,-0.095 0.067,-0.009 0.142,-0.016 0.215,-0.025 0.161,-0.019 0.329,-0.037 0.506,-0.053 0.087,-0.008 0.175,-0.016 0.267,-0.023 0.19,-0.016 0.386,-0.031 0.589,-0.045 0.081,-0.006 0.16,-0.012 0.242,-0.017 0.317,-0.021 0.646,-0.041 0.987,-0.063 0.256,-0.016 0.519,-0.031 0.787,-0.049 0.109,-0.007 0.223,-0.014 0.336,-0.021 0.225,-0.016 0.454,-0.031 0.684,-0.048 0.126,-0.009 0.252,-0.019 0.379,-0.028 0.226,-0.018 0.453,-0.037 0.681,-0.057 0.121,-0.011 0.242,-0.022 0.362,-0.032 0.291,-0.029 0.581,-0.06 0.87,-0.093 0.054,-0.006 0.108,-0.011 0.161,-0.018 0.337,-0.041 0.671,-0.087 1.001,-0.137 0.093,-0.015 0.185,-0.033 0.277,-0.048 0.237,-0.039 0.471,-0.081 0.702,-0.127 0.111,-0.023 0.219,-0.046 0.329,-0.07 0.214,-0.046 0.422,-0.098 0.626,-0.151 0.101,-0.027 0.205,-0.053 0.304,-0.082 0.239,-0.068 0.467,-0.142 0.689,-0.222 0.052,-0.019 0.107,-0.035 0.158,-0.054 0.265,-0.101 0.515,-0.212 0.748,-0.332 0.063,-0.031 0.118,-0.068 0.178,-0.101 0.165,-0.092 0.323,-0.188 0.47,-0.292 0.067,-0.048 0.131,-0.097 0.193,-0.148 0.13,-0.104 0.248,-0.215 0.357,-0.33 0.049,-0.052 0.1,-0.101 0.144,-0.155 0.142,-0.172 0.267,-0.353 0.358,-0.55 2.34,-6.417 0.901,-9.498 -2.339,-27.09 -1.828,-9.921 -5.4,-22.501 -1.08,-31.681 l 7.83,-18.899 c 0.193,-0.432 0.393,-0.867 0.594,-1.301 0.049,-0.106 0.098,-0.21 0.148,-0.316 0.037,-0.078 0.073,-0.155 0.108,-0.232 0.131,-0.274 0.264,-0.55 0.396,-0.825 0.068,-0.138 0.133,-0.276 0.202,-0.414 0.052,-0.105 0.104,-0.21 0.156,-0.315 0.028,-0.056 0.057,-0.112 0.085,-0.169 0.133,-0.264 0.266,-0.529 0.402,-0.793 0.062,-0.119 0.125,-0.237 0.188,-0.355 0.061,-0.116 0.123,-0.233 0.185,-0.351 0.03,-0.054 0.058,-0.11 0.088,-0.166 0.077,-0.142 0.155,-0.284 0.232,-0.426 0.094,-0.169 0.186,-0.338 0.281,-0.506 0.113,-0.201 0.469,-0.402 0.584,-0.602 0.024,-0.04 -0.689,-0.082 0.311,-0.123 l 0,0.004 c 0,-0.041 -0.194,-0.08 -0.17,-0.121 0.089,-0.154 0.058,-0.311 0.151,-0.464 0.234,-0.391 0.415,-0.777 0.661,-1.16 0.105,-0.162 0.182,-0.321 0.288,-0.482 0.164,-0.248 0.315,-0.494 0.484,-0.737 0.122,-0.176 0.238,-0.349 0.362,-0.522 0.184,-0.254 0.365,-0.502 0.555,-0.749 0.141,-0.186 0.281,-0.37 0.425,-0.552 0.238,-0.297 0.478,-0.589 0.725,-0.876 0.135,-0.157 0.274,-0.311 0.413,-0.464 0.186,-0.206 0.374,-0.409 0.565,-0.608 0.143,-0.149 0.286,-0.298 0.431,-0.443 0.268,-0.265 0.54,-0.522 0.819,-0.773 0.155,-0.14 0.313,-0.274 0.471,-0.408 0.188,-0.161 0.373,-0.323 0.566,-0.475 0.004,10e-4 0.006,0.003 0.009,0.004 1.786,-1.415 3.775,-2.527 6.026,-3.181 10.529,-3.24 24.029,-0.81 34.558,-0.27 5.401,0.27 10.532,0 15.662,0.27 8.37,0.27 13.5,3.24 19.439,8.91 10.531,9.991 16.471,20.52 19.44,35.64 1.624,8.304 7,20.348 4.628,29.313 0.065,0.046 0.132,0.089 0.201,0.129 -0.211,0.52 -0.454,1.018 -0.692,1.519 0.512,0.349 1.158,0.467 1.894,1.079 C -0.112,-6.597 2.2,-0.965 0,0"
                     inkscape:connector-curvature="0" /></g></g></g></g><g
             transform="translate(495.4805,521.9727)"
             id="g3128"><path
               id="path3130"
               style="fill:#b2b2b2;fill-opacity:1;fill-rule:nonzero;stroke:none"
               d="m 0,0 c 7.56,1.35 12.15,11.88 19.71,13.77 7.831,1.89 15.66,2.97 24.031,3.24 9.399,0.418 21.221,2.286 31.093,-0.139 5.775,2.192 14.984,11.767 17.775,8.509 3.612,-4.46 -1.296,-12.929 -2.9,-19.232 5.146,-9.094 -1.476,-23.236 -3.309,-32.608 -2.969,-15.12 -8.909,-25.649 -19.44,-35.64 -5.939,-5.671 -11.069,-8.64 -19.439,-8.91 -5.13,-0.27 -10.261,0 -15.662,-0.27 -10.529,-0.54 -24.029,-2.97 -34.558,0.27 -8.37,2.43 -13.231,11.07 -16.741,18.901 l -7.83,18.899 c -4.32,9.18 -0.748,21.76 1.08,31.681 3.24,17.592 4.679,20.673 2.339,27.09 -1.62,3.464 -11.12,2.853 -14.201,3.464 -13.115,2.6 -13.005,7.95 -10.261,10.491 5.682,5.26 4.674,14.667 7.545,18.175 11.34,13.86 32.309,7.379 37.438,1.979 C 7.741,48.33 -3.868,35.171 -2.968,19.891 -2.729,15.834 -3.442,11.631 -2.605,7.831 -2.163,5.816 0,0 0,0"
               inkscape:connector-curvature="0" /></g><g
             transform="translate(495.5996,521.5386)"
             id="g3132"><path
               id="path3134"
               style="fill:#545454;fill-opacity:1;fill-rule:nonzero;stroke:none"
               d="m 0,0 c 4.158,1.006 7.098,3.858 10.054,6.798 2.061,2.05 4.092,4.048 6.543,5.643 3.354,2.184 8.313,2.499 12.179,3.15 7.503,1.264 15.12,1.355 22.69,1.93 7.735,0.586 15.493,1.038 23.13,-0.65 2.324,-0.514 7.55,4.407 9.331,5.648 2.052,1.428 4.366,3.185 6.907,3.513 4.907,0.633 1.219,-10.707 0.589,-12.534 -0.696,-2.02 -2.283,-4.756 -2.283,-6.915 0,-0.559 2.226,-5.493 1.067,-2.493 0.626,-1.622 0.746,-3.405 0.845,-5.121 0.382,-6.667 -2.185,-13.512 -3.966,-19.837 -1.594,-5.663 -2.543,-11.412 -4.549,-16.968 -2.411,-6.676 -6.229,-12.695 -10.803,-18.085 -3.919,-4.619 -8.52,-9.04 -13.928,-11.836 -6.733,-3.481 -15.187,-2.451 -22.502,-2.527 -13.503,-0.14 -30.483,-5.28 -42.736,2.391 -7.899,4.948 -11.26,15.292 -14.67,23.52 -2.991,7.222 -6.73,14.269 -6.885,22.226 -0.243,12.417 4.249,25.142 6.191,37.355 0.678,4.264 1.306,11.004 -3.416,13.092 -3.154,1.395 -7.167,1.171 -10.53,1.427 -3.728,0.284 -13.76,2.507 -12.594,8.001 0.347,1.633 2.195,2.671 3.037,4.007 1.207,1.915 2,3.846 2.654,6.001 1.864,6.131 2.205,10.449 7.904,14.464 8.336,5.873 20.817,4.505 29.275,-0.346 C 6.16,54.615 -1.134,38.946 -3.051,28.16 -4.724,18.755 -3.836,9.185 -0.553,0.314 c 0.199,-0.539 1.07,-0.306 0.867,0.24 -4.152,11.223 -3.796,23.16 -0.878,34.714 2.299,9.109 4.633,19.014 -3.504,26.013 -11.184,9.617 -35.554,7.492 -39.308,-8.513 -0.667,-2.846 -1.251,-5.615 -2.407,-8.32 -0.869,-2.035 -2.571,-3.263 -3.712,-5.03 -1.047,-1.62 -1.071,-3.236 -0.142,-4.918 3.803,-6.886 15.866,-5.205 22.157,-6.724 8.727,-2.107 2.053,-21.757 1.089,-26.856 -2.093,-11.068 -5.861,-23.122 -1.338,-34.042 5.194,-12.538 9.832,-31.581 23.391,-37.408 11.463,-4.927 25.924,-1.172 37.869,-0.695 6.128,0.246 12.294,-0.257 18.383,0.652 4.982,0.744 9.253,3.424 13.048,6.589 8.65,7.216 15.133,16.743 18.944,27.296 1.987,5.501 2.847,11.315 4.429,16.932 1.607,5.712 3.305,11.377 3.615,17.336 0.12,2.305 -0.244,4.545 -0.875,6.749 -0.836,2.915 -0.308,4.67 0.712,7.521 1.237,3.456 4.071,9.599 1.704,13.248 -3.672,5.659 -13.653,-4.523 -17.178,-6.546 -2.21,-1.268 -5.581,-0.029 -8.051,0.218 -3.913,0.389 -7.889,0.201 -11.806,-0.006 C 48.431,18.34 40.303,17.954 32.324,17.002 26.159,16.268 19.265,15.646 14.158,11.833 9.284,8.195 6.011,2.38 -0.238,0.868 -0.803,0.731 -0.563,-0.136 0,0"
               inkscape:connector-curvature="0" /></g><g
             id="g3136"><g
               id="g3138" /><g
               id="g3144"><g
                 id="g3146"
                 clip-path="url(#clipPath3140)"
                 style="opacity:0.39999396"><g
                   id="g3148"
                   transform="translate(584.9199,528.1211)"><path
                     id="path3150"
                     style="fill:#000000;fill-opacity:1;fill-rule:nonzero;stroke:none"
                     d="m 0,0 c -0.366,-1.779 -3.512,-7.409 -8.175,-10.348 5.136,-14.004 1.558,-31.171 -1.039,-39.639 0.714,0.801 1.099,1.775 1.597,2.948 1.85,4.359 3.263,9.111 4.308,14.431 C -1.476,-23.236 5.146,-9.095 0,0"
                     inkscape:connector-curvature="0" /></g></g></g></g><g
             transform="translate(493.2363,551.2041)"
             id="g3152"><path
               id="path3154"
               style="fill:#0f7a14;fill-opacity:1;fill-rule:nonzero;stroke:none"
               d="m 0,0 c 2.871,12.196 7.736,21.402 -1.086,30.438 -5.129,5.401 -26.098,11.881 -37.437,-1.978 -2.872,-3.509 -1.864,-12.915 -7.545,-18.176 -2.745,-2.541 -2.855,-7.89 10.26,-10.49 2.477,-0.491 9.104,-0.192 12.448,-1.857 0.815,-0.406 1.435,-0.928 1.754,-1.608 1.01,-1.497 1.473,-3 1.617,-4.466 0,0 7.237,-1.046 9.911,0 C -7.553,-7.148 0,0 0,0"
               inkscape:connector-curvature="0" /></g><g
             transform="translate(493.6699,551.0845)"
             id="g3156"><path
               id="path3158"
               style="fill:#0e4c1e;fill-opacity:1;fill-rule:nonzero;stroke:none"
               d="m 0,0 c 2.709,11.091 8.227,24.613 -3.409,32.663 -8.724,6.035 -21.951,6.286 -30.857,0.768 -5.081,-3.148 -6.47,-7.039 -7.703,-12.557 -0.899,-4.027 -2.273,-7.527 -5.208,-10.516 -0.812,-0.826 -1.174,-1.926 -1.254,-3.054 -0.22,-3.137 3.786,-5.304 6.164,-6.167 2.886,-1.048 5.772,-1.742 8.828,-1.955 5.766,-0.401 11.355,-0.307 12.583,-7.319 0.023,-0.135 0.174,-0.295 0.313,-0.314 3.356,-0.464 7.611,-1.226 10.788,0.3 3.602,1.73 6.766,5.244 9.64,7.952 0.423,0.399 -0.215,1.034 -0.637,0.637 -3.01,-2.837 -6.663,-7.111 -10.713,-8.257 -1.821,-0.515 -8.369,-0.962 -8.782,1.398 -0.323,1.847 -1.608,4.161 -3.427,4.911 -6.177,2.548 -13.069,1.252 -19.357,3.946 -2.58,1.105 -5.548,3.506 -4.032,6.559 1.197,2.407 3.375,4.02 4.496,6.644 0.993,2.325 1.444,4.888 1.989,7.343 0.967,4.355 3.123,7.105 6.766,9.672 6.123,4.313 14.307,4.421 21.328,2.808 C -6.415,34.067 -1.512,31.14 1.535,25.586 5.689,18.015 0.99,7.845 -0.867,0.239 -1.005,-0.325 -0.138,-0.563 0,0"
               inkscape:connector-curvature="0" /></g><g
             transform="translate(496.6279,572.665)"
             id="g3160"><path
               id="path3162"
               style="fill:#105e10;fill-opacity:1;fill-rule:nonzero;stroke:none"
               d="m 0,0 c -0.777,3.173 -2.022,5.917 -4.747,8.708 -5.13,5.399 -25.559,11.881 -36.899,-1.979 -2.165,-2.646 -2.281,-8.526 -4.699,-13.466 -0.012,-0.162 -1.693,-2.464 -1.333,-3.544 0.901,-2.88 3.601,-0.72 5.58,-0.18 l 1.98,1.079 c 3.69,2.645 5.041,7.381 9.72,9.181 4.139,1.62 9,1.439 13.321,1.62 C -13.168,1.563 -5.007,-2.364 0,0"
               inkscape:connector-curvature="0" /></g><g
             transform="translate(460.6504,568.8174)"
             id="g3164"><path
               id="path3166"
               style="fill:#264926;fill-opacity:1;fill-rule:nonzero;stroke:none"
               d="M 0,0 C 1.183,2.405 3.612,4.235 6.211,4.455 9.561,4.738 14.856,5.142 19.575,7.021 16.471,2.296 13.771,-1.271 8.91,-2.892 6.479,-3.725 4.585,-3.222 2.767,-2.922 2.43,-2.866 0.268,-14.927 -0.067,-14.895 c -1.37,0.129 -14.592,8.386 -10.237,13.095 2.565,0.18 6.479,-2.138 7.021,-2.792 C -2.394,-3.921 -1.488,-3.03 0,0"
               inkscape:connector-curvature="0" /></g><g
             transform="translate(473.8174,574.0889)"
             id="g3168"><path
               id="path3170"
               style="fill:#1d261d;fill-opacity:1;fill-rule:nonzero;stroke:none"
               d="m 0,0 c -0.61,-1.755 -2.546,-2.166 -3.807,-2.481 -1.17,-0.36 -3.554,-0.27 -4.634,-0.855 -0.63,-0.36 -1.665,-1.261 -1.576,-2.07 0.09,-0.99 1.396,-1.395 2.115,-1.486 1.035,-0.089 2.25,-0.045 3.331,0.136 1.035,0.225 2.025,0.944 3.059,1.125 0.091,-1.035 -2.25,-1.53 -2.969,-1.665 -1.125,-0.225 -2.25,-0.45 -3.421,-0.45 -0.81,0 -5.992,-1.164 -5.31,0.405 0.9,2.07 1.396,4.589 4.095,5.04 C -7.31,-2 -1.17,-1.35 0,0"
               inkscape:connector-curvature="0" /></g><g
             transform="translate(450.29,566.5518)"
             id="g3172"><path
               id="path3174"
               style="fill:#d8b72e;fill-opacity:1;fill-rule:nonzero;stroke:none"
               d="m 0,0 c -0.393,-0.982 -1.383,-2.558 -1.383,-3.539 0.729,0.453 2.255,1.755 3.576,1.867 1.701,0.146 4.142,-1.327 5.137,-1.769 1.571,-0.589 3.143,-5.892 2.946,-7.463 -0.393,-4.91 -8.052,-7.071 -11.981,-9.035 -4.714,-2.161 -6.532,-2.21 -11.441,-4.174 -2.358,-0.983 -5.5,-2.947 -6.875,-0.589 -1.571,2.749 1.006,6.471 2.774,7.846 3.731,3.142 8.814,6.033 12.139,9.537 C -0.787,-2.768 0,0 0,0"
               inkscape:connector-curvature="0" /></g><g
             transform="translate(449.9014,566.7788)"
             id="g3176"><path
               id="path3178"
               style="fill:#d6a630;fill-opacity:1;fill-rule:nonzero;stroke:none"
               d="m 0,0 c -0.579,-1.234 -1.113,-2.328 -1.428,-3.646 -0.086,-0.358 0.318,-0.745 0.661,-0.509 3.032,2.082 7.692,1.809 9.603,-1.588 2.476,-4.401 1.151,-8.05 -3.064,-10.622 -5.237,-3.197 -11.387,-4.912 -17.12,-6.952 -1.144,-0.408 -1.789,-0.702 -2.87,-1.183 -4.903,1.794 -5.942,3.919 -3.115,6.375 0.962,0.914 1.988,1.752 3.078,2.515 2.541,1.931 5.192,3.696 7.673,5.71 2.867,2.327 6.237,5.92 7.404,9.553 0.179,0.555 -0.69,0.79 -0.867,0.24 -1.62,-5.042 -6.758,-8.984 -10.818,-11.955 -3.045,-2.228 -8.316,-4.877 -9.327,-8.938 -0.418,-1.678 -0.537,-5.876 2.427,-5.493 4.61,0.597 9.391,3.118 13.787,4.721 4.797,1.749 16.491,5.23 14.963,12.268 -0.746,3.44 -1.635,5.533 -4.79,7.08 C 5.233,-1.951 3.579,-1.162 2.462,-1.465 1.19,-1.811 1.542,-1.679 0.345,-2.316 -1.807,-3.461 0.334,-1.398 0.777,-0.454 1.022,0.068 0.246,0.525 0,0"
               inkscape:connector-curvature="0" /></g><g
             transform="translate(430.2686,541.3994)"
             id="g3180"><path
               id="path3182"
               style="fill:#d6a630;fill-opacity:1;fill-rule:nonzero;stroke:none"
               d="m 0,0 c 5.551,0.689 10.407,3.516 15.448,5.744 5.426,2.4 11.047,4.849 15.185,9.233 0.397,0.421 -0.237,1.059 -0.637,0.636 C 26.479,11.887 21.863,9.634 17.266,7.53 11.741,5.003 6.094,1.656 0,0.9 -0.568,0.83 -0.575,-0.071 0,0"
               inkscape:connector-curvature="0" /></g><g
             id="g3184"><g
               id="g3186" /><g
               id="g3192"><g
                 id="g3194"
                 clip-path="url(#clipPath3188)"
                 style="opacity:0.39999396"><g
                   id="g3196"
                   transform="translate(589.1465,545.208)"><path
                     id="path3198"
                     style="fill:#000000;fill-opacity:1;fill-rule:nonzero;stroke:none"
                     d="m 0,0 c -0.447,0.147 -0.97,0.145 -1.557,0.016 -2.179,-2.474 -4.737,-4.342 -7.508,-6.421 -1.621,-1.44 -3.242,-3.781 -5.22,-4.321 -1.981,-0.719 -63.39,-15.029 -74.926,-23.714 -8.06,-6.068 -3.762,-5.748 1.918,-4.006 4.128,0.631 10.72,0.006 14.327,1.26 4.681,1.8 8.46,4.321 12.78,6.481 4.68,2.519 9.901,2.699 14.761,3.779 3.419,0.721 3.779,1.62 5.94,3.601 2.16,1.8 4.86,2.16 7.56,2.34 7.739,0.719 15.839,2.16 23.22,5.58 2.884,1.31 5.806,3.979 7.702,7.14 C -0.035,-5.26 0.605,-2.345 0,0"
                     inkscape:connector-curvature="0" /></g></g></g></g><g
             transform="translate(588.3516,546.9961)"
             id="g3200"><path
               id="path3202"
               style="fill:#202820;fill-opacity:1;fill-rule:nonzero;stroke:none"
               d="m 0,0 c -0.083,0.121 -0.167,0.241 -0.262,0.356 -0.562,0.658 -1.386,0.791 -2.39,0.571 -2.18,-2.474 -4.737,-4.342 -7.509,-6.42 -1.619,-1.441 -3.239,-3.78 -5.219,-4.32 -1.98,-0.721 -7.02,1.349 -9.36,1.169 -7.127,-0.508 -9.272,0.797 -18.49,0.66 -1.661,-0.122 -4.353,-0.231 -5.9,-0.299 -8.371,-0.271 -15.661,-1.35 -23.491,-3.24 -7.56,-1.89 -12.959,-12.42 -20.52,-13.771 l -1.047,3.418 c 0,0 -1.294,3.479 -1.559,4.684 -0.836,3.799 -0.123,8.003 -0.362,12.059 -0.169,2.869 0.468,5.76 1.102,8.636 -3.496,-0.954 -6.87,-3.683 -10.555,-4.856 -3.652,-1.064 -6.264,-2.128 -9.787,-2.868 0.342,-4.332 -1.066,-9.428 -3.442,-22.332 -1.828,-9.921 -5.399,-22.501 -1.08,-31.68 l 7.559,-18.9 c 2.567,-5.723 5.856,-11.876 10.707,-15.723 3.573,1.307 6.193,6.632 7.744,9.423 5.04,9.54 7.019,19.8 9,30.241 0.879,4.638 -0.073,8.868 -1.637,12.958 4.128,0.63 8.829,2.706 12.437,3.961 4.681,1.799 8.46,4.32 12.781,6.479 4.679,2.521 9.9,2.7 14.759,3.78 3.42,0.72 3.781,1.62 5.941,3.601 2.159,1.8 4.859,2.159 7.559,2.34 7.741,0.719 15.841,2.16 23.22,5.58 C -4.817,-12.229 0.29,-5.909 0,0"
               inkscape:connector-curvature="0" /></g><g
             transform="translate(493.9463,552.9482)"
             id="g3204"><path
               id="path3206"
               style="fill:#e0e2e1;fill-opacity:1;fill-rule:nonzero;stroke:none"
               d="m 0,0 c -3.438,-1.782 -8.828,-6.165 -12.056,-7.456 -3.904,-1.528 -5.475,-0.521 -9.427,-0.4 0.309,-1.327 0.615,-2.619 0.586,-4.056 3.177,0.073 5.877,-0.319 9.02,0.918 3.689,1.45 7.793,4.58 11.032,7.364 C -0.61,-2.418 -0.322,-1.207 0,0"
               inkscape:connector-curvature="0" /></g><g
             id="g3208"><g
               id="g3210" /><g
               id="g3216"><g
                 id="g3218"
                 clip-path="url(#clipPath3212)"
                 style="opacity:0.39999396"><g
                   id="g3220"
                   transform="translate(586.709,524.9551)"><path
                     id="path3222"
                     style="fill:#000000;fill-opacity:1;fill-rule:nonzero;stroke:none"
                     d="m 0,0 c -0.304,0.748 -0.634,1.479 -0.995,2.188 -6.113,-8.423 -13.482,-11.84 -22.643,-16.691 -5.58,-3.06 -11.881,-5.04 -17.46,-8.28 -5.939,-3.419 -10.98,-5.579 -17.82,-6.839 l 1.98,-2.521 c 0.901,-1.08 3.24,-3.78 4.5,-4.14 2.16,-0.72 1.08,0.72 2.34,0.72 1.26,0.18 1.98,-0.36 3.42,-0.9 3.42,-1.079 3.96,0.36 5.4,2.7 1.26,1.981 2.34,3.42 1.26,6.3 1.799,-0.899 2.34,0 4.14,0.54 1.08,0.36 3.24,0.54 4.5,1.261 1.44,0.899 1.62,2.519 3.06,3.059 1.44,0.72 3.06,0.18 4.86,1.261 0.721,0.36 0,0.9 1.439,1.44 0.54,0.179 1.621,0 2.161,0 1.44,0.179 2.52,0.899 3.78,1.259 3.06,0.9 7.92,0.72 6.841,5.401 1.619,0.899 6.659,2.88 3.959,5.4 1.08,0.18 1.98,0.72 2.7,1.44 0.541,0.54 0.18,1.439 0.541,1.799 0,-0.179 1.618,1.441 1.618,1.081 0,0.179 0.36,0.719 0.541,1.259 0.18,0.361 -0.9,1.08 -0.9,1.441 C -0.57,-0.405 -0.307,-0.176 0,0"
                     inkscape:connector-curvature="0" /></g></g></g></g><g
             transform="translate(529.2305,494.4326)"
             id="g3224"><path
               id="path3226"
               style="fill:#d6d6d6;fill-opacity:1;fill-rule:nonzero;stroke:none"
               d="m 0,0 c 0.9,-1.08 3.241,-3.78 4.5,-4.14 2.161,-0.72 1.08,0.72 2.341,0.72 1.26,0.18 1.979,-0.36 3.419,-0.899 3.421,-1.081 3.961,0.359 5.4,2.699 1.26,1.98 2.34,3.42 1.26,6.3 1.801,-0.9 2.34,0 4.14,0.54 1.081,0.36 3.241,0.54 4.501,1.26 1.439,0.9 1.62,2.52 3.059,3.06 1.44,0.72 3.061,0.18 4.86,1.26 0.72,0.36 0,0.9 1.44,1.44 0.54,0.18 1.621,0 2.16,0 1.441,0.18 2.521,0.9 3.779,1.26 3.061,0.9 7.921,0.72 6.841,5.4 1.62,0.9 6.659,2.879 3.96,5.4 1.081,0.179 1.981,0.72 2.699,1.44 0.541,0.539 0.182,1.44 0.541,1.8 0,-0.18 1.621,1.439 1.621,1.08 0,0.18 0.36,0.72 0.539,1.26 0.181,0.36 -0.9,1.08 -0.9,1.44 0.54,1.08 1.441,0.9 2.521,1.8 0.899,0.72 3.33,6.659 0.81,7.38 C 58.051,40.86 56.7,35.46 55.98,34.38 49.86,25.92 42.48,22.5 33.301,17.64 27.721,14.58 21.42,12.6 15.841,9.36 9.9,5.94 4.859,3.78 -1.979,2.52 L 0,0 z"
               inkscape:connector-curvature="0" /></g><g
             transform="translate(520.4102,499.7441)"
             id="g3228"><path
               id="path3230"
               style="fill:#202820;fill-opacity:1;fill-rule:nonzero;stroke:none"
               d="m 0,0 c 2.52,0.359 5.22,0.359 7.56,1.26 2.16,0.899 3.96,2.519 5.94,3.42 4.32,1.799 0.72,5.399 5.22,6.299 2.52,0.541 3.78,0.541 6.12,1.981 1.98,1.08 4.319,2.88 6.3,3.6 5.04,1.62 9.9,2.879 14.76,5.219 3.059,1.62 5.94,1.08 9,2.34 2.7,0.901 5.355,3.982 7.516,5.602 4.32,3.42 6.48,12.352 5.399,17.213 2.296,-3.375 1.476,-6.008 1.296,-8.708 C 68.931,35.166 67.32,32.039 65.88,29.159 63.359,24.119 58.14,18.18 52.92,16.2 54.54,12.06 49.68,10.439 46.439,9.539 44.28,8.819 42.12,8.64 39.78,8.46 c -0.36,0 -1.44,0.18 -1.8,0 C 36.359,7.739 37.44,7.739 36.359,6.659 30.239,0.359 29.159,2.7 21.78,-0.54 24.659,-7.2 15.3,-9.001 10.44,-6.841 11.52,-9.001 8.1,-9.54 6.659,-9.36 4.68,-9.181 3.42,-8.28 1.98,-7.021 0.54,-5.761 -6.3,-1.44 -3.06,-0.36 L 0,0 z"
               inkscape:connector-curvature="0" /></g><g
             id="g3232"><g
               id="g3234" /><g
               id="g3240"><g
                 id="g3242"
                 clip-path="url(#clipPath3236)"
                 style="opacity:0.39999396"><g
                   id="g3244"
                   transform="translate(534.3613,476.0723)"><path
                     id="path3246"
                     style="fill:#000000;fill-opacity:1;fill-rule:nonzero;stroke:none"
                     d="M 0,0 C 1.89,2.431 2.97,6.48 -1.08,7.561 L -2.971,8.91 c -1.166,0.389 -2.051,0.356 -2.758,-0.095 -0.788,0.56 -1.714,1.057 -2.282,1.625 l -2.16,0.63 C -9.99,10.53 -7.74,8.641 -7.561,7.92 -7.381,6.84 -7.92,5.58 -7.74,4.86 c 0.359,-1.98 0.09,-0.54 0.09,-2.7 0,-2.52 -0.721,-3.96 -1.621,-5.76 -1.08,-2.16 -1.979,-2.7 -3.419,-4.5 -2.161,-2.52 -2.161,-7.02 -5.581,-9.719 -0.719,-0.54 -1.979,-0.54 -2.519,-1.08 -0.721,-0.721 -0.721,-1.981 -1.261,-2.34 -1.439,-1.261 -3.779,-1.08 -5.22,-2.521 1.621,-3.059 3.781,0.361 5.4,0.18 1.44,-0.18 4.86,-5.04 4.501,0 1.172,-0.251 1.954,0.276 2.474,1.094 3.166,0.228 5.985,2.026 5.985,5.747 7.021,-0.54 4.59,4.05 6.48,7.83 0.81,2.43 7.56,5.13 2.431,8.909"
                     inkscape:connector-curvature="0" /></g></g></g></g><g
             transform="translate(525.8105,487.8623)"
             id="g3248"><path
               id="path3250"
               style="fill:#d6d6d6;fill-opacity:1;fill-rule:nonzero;stroke:none"
               d="m 0,0 c 0.9,-0.9 2.7,-1.62 3.42,-2.7 1.261,-1.799 0.181,-1.98 0.541,-3.96 0.539,-2.159 1.439,-1.619 0.9,-4.14 0,-0.54 -0.72,-1.08 -0.9,-1.8 0,-0.36 0.9,-1.44 0.72,-2.339 C 4.5,-16.2 2.88,-17.64 2.34,-18.72 c -0.539,-1.44 -0.9,-3.059 -1.619,-4.679 -1.081,-2.521 -2.16,-7.021 -6.66,-6.301 -0.18,-1.799 -0.9,-4.86 -3.421,-4.32 0.36,-5.04 -3.06,-0.179 -4.5,0 -1.619,0.18 -3.78,-3.24 -5.4,-0.179 1.44,1.439 3.781,1.259 5.221,2.519 0.539,0.361 0.539,1.62 1.26,2.34 0.54,0.54 1.8,0.54 2.519,1.08 3.421,2.7 3.421,7.2 5.58,9.72 1.441,1.8 2.341,2.34 3.42,4.5 0.9,1.801 1.62,3.24 1.62,5.761 0,2.159 0.271,0.719 -0.089,2.699 -0.181,0.721 0.36,1.98 0.179,3.06 -0.179,0.72 -2.429,2.61 -2.61,3.15 L 0,0 z"
               inkscape:connector-curvature="0" /></g><g
             transform="translate(532.7402,484.9824)"
             id="g3252"><path
               id="path3254"
               style="fill:#202820;fill-opacity:1;fill-rule:nonzero;stroke:none"
               d="m 0,0 c 4.05,-1.08 2.971,-5.13 1.081,-7.56 5.13,-3.78 -1.62,-6.48 -2.431,-8.91 -1.889,-3.78 0.54,-8.37 -6.479,-7.83 0,-5.4 -5.94,-6.75 -10.261,-5.13 2.7,1.35 5.131,2.701 6.75,5.67 0.811,1.891 0.271,2.7 1.89,4.321 1.89,1.889 2.16,0.54 3.241,2.969 0.54,1.351 0.27,2.7 0.809,3.781 0.541,1.62 1.89,2.699 2.431,4.32 1.079,3.779 -1.081,5.399 -2.431,8.909 0.81,1.08 1.89,1.351 3.51,0.811 L 0,0 z"
               inkscape:connector-curvature="0" /></g><g
             transform="translate(450.7959,562.2705)"
             id="g3256"><path
               id="path3258"
               style="fill:#2d230c;fill-opacity:1;fill-rule:nonzero;stroke:none"
               d="m 0,0 c -0.918,-0.427 -3.308,-1.62 -3.24,-2.768 1.08,-0.337 6.228,2.365 4.118,2.97 C 0.661,0.265 0.204,0.095 0,0"
               inkscape:connector-curvature="0" /></g><g
             transform="translate(466.2305,571.1338)"
             id="g3260"><path
               id="path3262"
               style="fill:#0e0f0e;fill-opacity:1;fill-rule:nonzero;stroke:none"
               d="m 0,0 c -0.933,-0.254 -2.114,-1.191 -2.43,-2.001 -0.585,-1.395 0.991,-2.07 2.116,-2.025 0.99,0.045 2.294,0.63 3.059,1.259 0.857,0.676 1.035,2.455 -0.45,2.816 C 1.854,0.155 0.438,0.119 0,0"
               inkscape:connector-curvature="0" /></g><g
             transform="translate(466.2305,571.1338)"
             id="g3264"><path
               id="path3266"
               style="fill:#000000;fill-opacity:1;fill-rule:nonzero;stroke:none"
               d="m 0,0 c -0.531,-0.145 -1.145,-0.512 -1.632,-0.951 1.543,0.66 2.498,0.525 3.343,0.075 0.874,-0.467 0.81,-0.811 1.034,-1.891 0.857,0.676 1.035,2.455 -0.45,2.816 C 1.854,0.155 0.438,0.119 0,0"
               inkscape:connector-curvature="0" /></g><g
             id="g3268"><g
               id="g3270" /><g
               id="g3276"><g
                 id="g3278"
                 clip-path="url(#clipPath3272)"
                 style="opacity:0.5"><g
                   id="g3280"
                   transform="translate(466.2305,571.1338)"><path
                     id="path3282"
                     style="fill:#ffffff;fill-opacity:1;fill-rule:nonzero;stroke:none"
                     d="m 0,0 c -0.933,-0.254 -2.114,-1.191 -2.43,-2.001 -0.585,-1.395 0.991,-2.07 2.116,-2.025 -1.068,0.674 -1.232,1.09 -1.068,2.068 C -1.277,-1.327 -0.496,-0.694 0,0"
                     inkscape:connector-curvature="0" /></g></g></g></g><g
             id="g3284"><g
               id="g3286" /><g
               id="g3292"><g
                 id="g3294"
                 clip-path="url(#clipPath3288)"
                 style="opacity:0.39999396"><g
                   id="g3296"
                   transform="translate(479.0107,548.2979)"><path
                     id="path3298"
                     style="fill:#000000;fill-opacity:1;fill-rule:nonzero;stroke:none"
                     d="M 0,0 C 0.708,1.719 4.823,3.522 6.075,4.995 3.375,4.05 -1.485,2.43 -4.186,1.62 -6.014,1.034 -7.104,0.887 -8.754,0.916 -7.86,0.5 -7.358,-0.257 -7.021,-0.979 c 1.78,-6.661 0.811,-9.284 -2.429,-26.875 -1.828,-9.921 -5.4,-22.501 -1.08,-31.681 l 7.559,-18.9 c 1.027,-2.288 2.168,-4.643 3.478,-6.893 0.228,0.721 0.415,1.558 0.708,2.437 0.54,1.486 -0.811,23.491 -0.944,24.976 -0.271,3.78 -1.082,7.29 -1.621,10.8 -0.54,3.78 -2.025,7.155 -2.564,10.8 -1.081,7.02 1.35,14.714 2.024,21.735 C -1.301,-9.671 -1.888,-4.585 0,0"
                     inkscape:connector-curvature="0" /></g></g></g></g><g
             id="g3300"><g
               id="g3302" /><g
               id="g3308"><g
                 id="g3310"
                 clip-path="url(#clipPath3304)"
                 style="opacity:0.39999396"><g
                   id="g3312"
                   transform="translate(515.292,535.3037)"><path
                     id="path3314"
                     style="fill:#000000;fill-opacity:1;fill-rule:nonzero;stroke:none"
                     d="m 0,0 c -7.561,-1.89 -12.167,-12.184 -19.727,-13.533 0,0 -0.185,-0.034 -0.354,-0.069 0.317,-0.987 0.804,-2.132 1.17,-2.969 0.54,-1.531 1.08,-3.15 1.89,-4.5 1.709,0.45 3.69,3.24 4.679,4.68 1.351,1.98 2.431,4.23 4.051,5.94 3.33,3.511 7.56,6.48 10.17,10.53 C 2.076,0.362 2.092,0.261 2.313,0.608 1.43,0.416 0.884,0.214 0,0"
                     inkscape:connector-curvature="0" /></g></g></g></g></g></g><g
         id="g3316"><g
           clip-path="url(#clipPath3320)"
           id="g3318"><g
             transform="translate(563,536.1172)"
             id="g3324"><path
               id="path3326"
               style="fill:none;stroke:#ffffff;stroke-width:5;stroke-linecap:butt;stroke-linejoin:miter;stroke-miterlimit:10;stroke-opacity:1;stroke-dasharray:none"
               d="m 0,0 c 0,-42.802 -34.698,-77.5 -77.5,-77.5 -42.802,0 -77.5,34.698 -77.5,77.5 0,42.802 34.698,77.5 77.5,77.5 C -34.698,77.5 0,42.802 0,0 z"
               inkscape:connector-curvature="0" /></g></g></g></g></g></svg>