<?xml version="1.0" encoding="UTF-8" standalone="no"?>
<!-- Created with Inkscape (http://www.inkscape.org/) -->

<svg
   xmlns:dc="http://purl.org/dc/elements/1.1/"
   xmlns:cc="http://creativecommons.org/ns#"
   xmlns:rdf="http://www.w3.org/1999/02/22-rdf-syntax-ns#"
   xmlns:svg="http://www.w3.org/2000/svg"
   xmlns="http://www.w3.org/2000/svg"
   xmlns:sodipodi="http://sodipodi.sourceforge.net/DTD/sodipodi-0.dtd"
   xmlns:inkscape="http://www.inkscape.org/namespaces/inkscape"
   id="svg2"
   version="1.1"
   inkscape:version="0.48.2 r9819"
   width="200"
   height="200"
   xml:space="preserve"
   sodipodi:docname="animalowl.svg"><metadata
     id="metadata8"><rdf:RDF><cc:Work
         rdf:about=""><dc:format>image/svg+xml</dc:format><dc:type
           rdf:resource="http://purl.org/dc/dcmitype/StillImage" /><dc:title></dc:title></cc:Work></rdf:RDF></metadata><defs
     id="defs6"><clipPath
       clipPathUnits="userSpaceOnUse"
       id="clipPath18"><path
         d="m 48,183.883 c 0,-42.802 34.698,-77.5 77.5,-77.5 l 0,0 c 42.802,0 77.5,34.698 77.5,77.5 l 0,0 c 0,42.802 -34.698,77.499 -77.5,77.499 l 0,0 C 82.698,261.382 48,226.685 48,183.883"
         id="path20"
         inkscape:connector-curvature="0" /></clipPath><clipPath
       clipPathUnits="userSpaceOnUse"
       id="clipPath76"><path
         d="m 28.3701,320.655 214.7989,0 0,-220.57 -214.7989,0 0,220.57 z"
         id="path78"
         inkscape:connector-curvature="0" /></clipPath><clipPath
       clipPathUnits="userSpaceOnUse"
       id="clipPath100"><path
         d="m 165.654,273.372 11.322,0 0,-45.72 -11.322,0 0,45.72 z"
         id="path102"
         inkscape:connector-curvature="0" /></clipPath><clipPath
       clipPathUnits="userSpaceOnUse"
       id="clipPath116"><path
         d="m 128.183,211.311 12.616,0 0,-11.865 -12.616,0 0,11.865 z"
         id="path118"
         inkscape:connector-curvature="0" /></clipPath><clipPath
       clipPathUnits="userSpaceOnUse"
       id="clipPath132"><path
         d="m 196.509,246.27 27.854,0 0,-23.43 -27.854,0 0,23.43 z"
         id="path134"
         inkscape:connector-curvature="0" /></clipPath><clipPath
       clipPathUnits="userSpaceOnUse"
       id="clipPath148"><path
         d="m 179.223,311.43 55.845,0 0,-81.438 -55.845,0 0,81.438 z"
         id="path150"
         inkscape:connector-curvature="0" /></clipPath><clipPath
       clipPathUnits="userSpaceOnUse"
       id="clipPath164"><path
         d="m 126.612,213.026 11.425,0 0,-11.377 -11.425,0 0,11.377 z"
         id="path166"
         inkscape:connector-curvature="0" /></clipPath><clipPath
       clipPathUnits="userSpaceOnUse"
       id="clipPath180"><path
         d="m 175.549,246.27 48.814,0 0,-20.403 -48.814,0 0,20.403 z"
         id="path182"
         inkscape:connector-curvature="0" /></clipPath><clipPath
       clipPathUnits="userSpaceOnUse"
       id="clipPath196"><path
         d="m 153.378,258.93 10.828,0 0,-34.765 -10.828,0 0,34.765 z"
         id="path198"
         inkscape:connector-curvature="0" /></clipPath><clipPath
       clipPathUnits="userSpaceOnUse"
       id="clipPath212"><path
         d="m 198.586,300.19 2.372,0 0,-6.69 -2.372,0 0,6.69 z"
         id="path214"
         inkscape:connector-curvature="0" /></clipPath><clipPath
       clipPathUnits="userSpaceOnUse"
       id="clipPath228"><path
         d="m 195.058,287.521 1.251,0 0,-4.43 -1.251,0 0,4.43 z"
         id="path230"
         inkscape:connector-curvature="0" /></clipPath><clipPath
       clipPathUnits="userSpaceOnUse"
       id="clipPath244"><path
         d="m 165.654,311.43 52.038,0 0,-83.778 -52.038,0 0,83.778 z"
         id="path246"
         inkscape:connector-curvature="0" /></clipPath><clipPath
       clipPathUnits="userSpaceOnUse"
       id="clipPath268"><path
         d="m 107.457,216.128 11.498,0 0,-12.869 -11.498,0 0,12.869 z"
         id="path270"
         inkscape:connector-curvature="0" /></clipPath><clipPath
       clipPathUnits="userSpaceOnUse"
       id="clipPath284"><path
         d="m 75.9043,281.379 8.3789,0 0,-46.284 -8.3789,0 0,46.284 z"
         id="path286"
         inkscape:connector-curvature="0" /></clipPath><clipPath
       clipPathUnits="userSpaceOnUse"
       id="clipPath300"><path
         d="m 27.6875,259.947 25.1895,0 0,-26.276 -25.1895,0 0,26.276 z"
         id="path302"
         inkscape:connector-curvature="0" /></clipPath><clipPath
       clipPathUnits="userSpaceOnUse"
       id="clipPath316"><path
         d="m 110.289,217.567 10.443,0 0,-12.421 -10.443,0 0,12.421 z"
         id="path318"
         inkscape:connector-curvature="0" /></clipPath><clipPath
       clipPathUnits="userSpaceOnUse"
       id="clipPath332"><path
         d="m 87.2285,264.234 8.751,0 0,-35.565 -8.751,0 0,35.565 z"
         id="path334"
         inkscape:connector-curvature="0" /></clipPath><clipPath
       clipPathUnits="userSpaceOnUse"
       id="clipPath348"><path
         d="m 20.2695,322.262 50.21,0 0,-84.071 -50.21,0 0,84.071 z"
         id="path350"
         inkscape:connector-curvature="0" /></clipPath><clipPath
       clipPathUnits="userSpaceOnUse"
       id="clipPath364"><path
         d="m 38.1172,322.275 45.5547,0 0,-87.848 -45.5547,0 0,87.848 z"
         id="path366"
         inkscape:connector-curvature="0" /></clipPath><clipPath
       clipPathUnits="userSpaceOnUse"
       id="clipPath380"><path
         d="m 27.6875,259.947 46.3525,0 0,-25.508 -46.3525,0 0,25.508 z"
         id="path382"
         inkscape:connector-curvature="0" /></clipPath><clipPath
       clipPathUnits="userSpaceOnUse"
       id="clipPath512"><path
         d="M 0,768 1024,768 1024,0 0,0 0,768 z"
         id="path514"
         inkscape:connector-curvature="0" /></clipPath><clipPath
       clipPathUnits="userSpaceOnUse"
       id="clipPath524"><path
         d="m 48,361.117 c 0,-42.801 34.698,-77.5 77.5,-77.5 l 0,0 c 42.802,0 77.5,34.699 77.5,77.5 l 0,0 c 0,42.802 -34.698,77.5 -77.5,77.5 l 0,0 c -42.802,0 -77.5,-34.698 -77.5,-77.5"
         id="path526"
         inkscape:connector-curvature="0" /></clipPath><clipPath
       clipPathUnits="userSpaceOnUse"
       id="clipPath582"><path
         d="m 83.4062,417.107 107.1498,0 0,-188.795 -107.1498,0 0,188.795 z"
         id="path584"
         inkscape:connector-curvature="0" /></clipPath><clipPath
       clipPathUnits="userSpaceOnUse"
       id="clipPath610"><path
         d="m 84.9932,382.28 34.2428,0 0,-99.798 -34.2428,0 0,99.798 z"
         id="path612"
         inkscape:connector-curvature="0" /></clipPath><clipPath
       clipPathUnits="userSpaceOnUse"
       id="clipPath698"><path
         d="m 136.179,348.39 27.69,0 0,-65.261 -27.69,0 0,65.261 z"
         id="path700"
         inkscape:connector-curvature="0" /></clipPath><clipPath
       clipPathUnits="userSpaceOnUse"
       id="clipPath734"><path
         d="M 0,768 1024,768 1024,0 0,0 0,768 z"
         id="path736"
         inkscape:connector-curvature="0" /></clipPath><clipPath
       clipPathUnits="userSpaceOnUse"
       id="clipPath746"><path
         d="m 48,533.883 c 0,-42.802 34.698,-77.5 77.5,-77.5 l 0,0 c 42.802,0 77.5,34.698 77.5,77.5 l 0,0 c 0,42.802 -34.698,77.5 -77.5,77.5 l 0,0 c -42.802,0 -77.5,-34.698 -77.5,-77.5"
         id="path748"
         inkscape:connector-curvature="0" /></clipPath><clipPath
       clipPathUnits="userSpaceOnUse"
       id="clipPath804"><path
         d="m 70.0752,597.154 140.1478,0 0,-172.125 -140.1478,0 0,172.125 z"
         id="path806"
         inkscape:connector-curvature="0" /></clipPath><clipPath
       clipPathUnits="userSpaceOnUse"
       id="clipPath828"><path
         d="m 72.2432,516.053 121.3948,0 0,-80.86 -121.3948,0 0,80.86 z"
         id="path830"
         inkscape:connector-curvature="0" /></clipPath><clipPath
       clipPathUnits="userSpaceOnUse"
       id="clipPath868"><path
         d="m 98,566.655 10.04,0 0,-10.399 -10.04,0 0,10.399 z"
         id="path870"
         inkscape:connector-curvature="0" /></clipPath><clipPath
       clipPathUnits="userSpaceOnUse"
       id="clipPath884"><path
         d="m 116.188,564.133 19.527,0 0,-12.705 -19.527,0 0,12.705 z"
         id="path886"
         inkscape:connector-curvature="0" /></clipPath><clipPath
       clipPathUnits="userSpaceOnUse"
       id="clipPath908"><path
         d="m 107.135,573.487 49.874,0 0,-41.003 -49.874,0 0,41.003 z"
         id="path910"
         inkscape:connector-curvature="0" /></clipPath><clipPath
       clipPathUnits="userSpaceOnUse"
       id="clipPath940"><path
         d="m 117.255,561.123 9.391,0 0,-8.776 -9.391,0 0,8.776 z"
         id="path942"
         inkscape:connector-curvature="0" /></clipPath><clipPath
       clipPathUnits="userSpaceOnUse"
       id="clipPath964"><path
         d="m 117.456,560.869 8.443,0 0,-7.236 -8.443,0 0,7.236 z"
         id="path966"
         inkscape:connector-curvature="0" /></clipPath><clipPath
       clipPathUnits="userSpaceOnUse"
       id="clipPath980"><path
         d="m 117.002,560.869 6.503,0 0,-6.584 -6.503,0 0,6.584 z"
         id="path982"
         inkscape:connector-curvature="0" /></clipPath><clipPath
       clipPathUnits="userSpaceOnUse"
       id="clipPath996"><path
         d="m 97.1562,564.531 7.1068,0 0,-7.397 -7.1068,0 0,7.397 z"
         id="path998"
         inkscape:connector-curvature="0" /></clipPath><clipPath
       clipPathUnits="userSpaceOnUse"
       id="clipPath1020"><path
         d="m 97.7725,564.531 6.0075,0 0,-6.753 -6.0075,0 0,6.753 z"
         id="path1022"
         inkscape:connector-curvature="0" /></clipPath><clipPath
       clipPathUnits="userSpaceOnUse"
       id="clipPath1036"><path
         d="m 97.1562,564.531 4.6348,0 0,-6.592 -4.6348,0 0,6.592 z"
         id="path1038"
         inkscape:connector-curvature="0" /></clipPath><clipPath
       clipPathUnits="userSpaceOnUse"
       id="clipPath1144"><path
         d="m 112.72,573.875 38.467,0 0,-10.892 -38.467,0 0,10.892 z"
         id="path1146"
         inkscape:connector-curvature="0" /></clipPath><clipPath
       clipPathUnits="userSpaceOnUse"
       id="clipPath1164"><path
         d="m 115.91,593.83 37.215,0 0,-25.138 -37.215,0 0,25.138 z"
         id="path1166"
         inkscape:connector-curvature="0" /></clipPath><clipPath
       clipPathUnits="userSpaceOnUse"
       id="clipPath1188"><path
         d="m 114.113,596.642 43.988,0 0,-29.566 -43.988,0 0,29.566 z"
         id="path1190"
         inkscape:connector-curvature="0" /></clipPath><clipPath
       clipPathUnits="userSpaceOnUse"
       id="clipPath1204"><path
         d="m 111.065,596.661 43.954,0 0,-29.375 -43.954,0 0,29.375 z"
         id="path1206"
         inkscape:connector-curvature="0" /></clipPath><clipPath
       clipPathUnits="userSpaceOnUse"
       id="clipPath1228"><path
         d="m 129.643,574.128 5.688,0 0,-7.623 -5.688,0 0,7.623 z"
         id="path1230"
         inkscape:connector-curvature="0" /></clipPath><clipPath
       clipPathUnits="userSpaceOnUse"
       id="clipPath1244"><path
         d="m 130.658,573.875 5.689,0 0,-7.624 -5.689,0 0,7.624 z"
         id="path1246"
         inkscape:connector-curvature="0" /></clipPath><clipPath
       clipPathUnits="userSpaceOnUse"
       id="clipPath1264"><path
         d="m 131.537,574.128 4.302,0 0,-7.265 -4.302,0 0,7.265 z"
         id="path1266"
         inkscape:connector-curvature="0" /></clipPath><clipPath
       clipPathUnits="userSpaceOnUse"
       id="clipPath1280"><path
         d="m 130.15,574.128 3.803,0 0,-7.084 -3.803,0 0,7.084 z"
         id="path1282"
         inkscape:connector-curvature="0" /></clipPath><clipPath
       clipPathUnits="userSpaceOnUse"
       id="clipPath1300"><path
         d="m 132.084,572.698 2.687,0 0,-4.539 -2.687,0 0,4.539 z"
         id="path1302"
         inkscape:connector-curvature="0" /></clipPath><clipPath
       clipPathUnits="userSpaceOnUse"
       id="clipPath1316"><path
         d="m 131.218,572.698 2.476,0 0,-4.763 -2.476,0 0,4.763 z"
         id="path1318"
         inkscape:connector-curvature="0" /></clipPath><clipPath
       clipPathUnits="userSpaceOnUse"
       id="clipPath1332"><path
         d="m 140.12,574.02 5.25,0 0,-6.573 -5.25,0 0,6.573 z"
         id="path1334"
         inkscape:connector-curvature="0" /></clipPath><clipPath
       clipPathUnits="userSpaceOnUse"
       id="clipPath1348"><path
         d="m 141.136,573.766 5.25,0 0,-6.573 -5.25,0 0,6.573 z"
         id="path1350"
         inkscape:connector-curvature="0" /></clipPath><clipPath
       clipPathUnits="userSpaceOnUse"
       id="clipPath1368"><path
         d="m 141.888,574.02 3.992,0 0,-6.05 -3.992,0 0,6.05 z"
         id="path1370"
         inkscape:connector-curvature="0" /></clipPath><clipPath
       clipPathUnits="userSpaceOnUse"
       id="clipPath1384"><path
         d="m 140.628,574.02 3.685,0 0,-6.573 -3.685,0 0,6.573 z"
         id="path1386"
         inkscape:connector-curvature="0" /></clipPath><clipPath
       clipPathUnits="userSpaceOnUse"
       id="clipPath1404"><path
         d="m 142.474,572.774 2.302,0 0,-3.889 -2.302,0 0,3.889 z"
         id="path1406"
         inkscape:connector-curvature="0" /></clipPath><clipPath
       clipPathUnits="userSpaceOnUse"
       id="clipPath1420"><path
         d="m 141.73,572.774 2.124,0 0,-4.081 -2.124,0 0,4.081 z"
         id="path1422"
         inkscape:connector-curvature="0" /></clipPath><clipPath
       clipPathUnits="userSpaceOnUse"
       id="clipPath1436"><path
         d="m 149.369,575.589 3.356,0 0,-5.878 -3.356,0 0,5.878 z"
         id="path1438"
         inkscape:connector-curvature="0" /></clipPath><clipPath
       clipPathUnits="userSpaceOnUse"
       id="clipPath1452"><path
         d="m 150.385,575.335 2.768,0 0,-5.792 -2.768,0 0,5.792 z"
         id="path1454"
         inkscape:connector-curvature="0" /></clipPath><clipPath
       clipPathUnits="userSpaceOnUse"
       id="clipPath1472"><path
         d="m 150.752,575.589 2.48,0 0,-5.58 -2.48,0 0,5.58 z"
         id="path1474"
         inkscape:connector-curvature="0" /></clipPath><clipPath
       clipPathUnits="userSpaceOnUse"
       id="clipPath1488"><path
         d="m 149.876,575.589 2.316,0 0,-5.878 -2.316,0 0,5.878 z"
         id="path1490"
         inkscape:connector-curvature="0" /></clipPath><clipPath
       clipPathUnits="userSpaceOnUse"
       id="clipPath1508"><path
         d="m 150.993,574.426 1.705,0 0,-3.397 -1.705,0 0,3.397 z"
         id="path1510"
         inkscape:connector-curvature="0" /></clipPath><clipPath
       clipPathUnits="userSpaceOnUse"
       id="clipPath1524"><path
         d="m 150.415,574.426 1.564,0 0,-3.553 -1.564,0 0,3.553 z"
         id="path1526"
         inkscape:connector-curvature="0" /></clipPath><clipPath
       clipPathUnits="userSpaceOnUse"
       id="clipPath1540"><path
         d="m 119.9,576 5.254,0 0,-7.104 -5.254,0 0,7.104 z"
         id="path1542"
         inkscape:connector-curvature="0" /></clipPath><clipPath
       clipPathUnits="userSpaceOnUse"
       id="clipPath1556"><path
         d="m 120.91,575.39 5.271,0 0,-6.748 -5.271,0 0,6.748 z"
         id="path1558"
         inkscape:connector-curvature="0" /></clipPath><clipPath
       clipPathUnits="userSpaceOnUse"
       id="clipPath1576"><path
         d="m 121.69,575.644 3.983,0 0,-6.435 -3.983,0 0,6.435 z"
         id="path1578"
         inkscape:connector-curvature="0" /></clipPath><clipPath
       clipPathUnits="userSpaceOnUse"
       id="clipPath1592"><path
         d="m 120.423,575.579 2.282,0 0,-6.09 -2.282,0 0,6.09 z"
         id="path1594"
         inkscape:connector-curvature="0" /></clipPath><clipPath
       clipPathUnits="userSpaceOnUse"
       id="clipPath1612"><path
         d="m 122.217,574.705 2.396,0 0,-4.601 -2.396,0 0,4.601 z"
         id="path1614"
         inkscape:connector-curvature="0" /></clipPath><clipPath
       clipPathUnits="userSpaceOnUse"
       id="clipPath1628"><path
         d="m 121.06,574.705 2.689,0 0,-4.731 -2.689,0 0,4.731 z"
         id="path1630"
         inkscape:connector-curvature="0" /></clipPath><clipPath
       clipPathUnits="userSpaceOnUse"
       id="clipPath1644"><path
         d="m 112.821,578.751 3.345,0 0,-5.879 -3.345,0 0,5.879 z"
         id="path1646"
         inkscape:connector-curvature="0" /></clipPath><clipPath
       clipPathUnits="userSpaceOnUse"
       id="clipPath1660"><path
         d="m 113.766,578.497 3.416,0 0,-5.878 -3.416,0 0,5.878 z"
         id="path1662"
         inkscape:connector-curvature="0" /></clipPath><clipPath
       clipPathUnits="userSpaceOnUse"
       id="clipPath1680"><path
         d="m 114.145,578.751 2.529,0 0,-5.582 -2.529,0 0,5.582 z"
         id="path1682"
         inkscape:connector-curvature="0" /></clipPath><clipPath
       clipPathUnits="userSpaceOnUse"
       id="clipPath1696"><path
         d="m 113.257,578.751 2.354,0 0,-5.581 -2.354,0 0,5.581 z"
         id="path1698"
         inkscape:connector-curvature="0" /></clipPath><clipPath
       clipPathUnits="userSpaceOnUse"
       id="clipPath1716"><path
         d="m 114.337,577.928 1.712,0 0,-3.949 -1.712,0 0,3.949 z"
         id="path1718"
         inkscape:connector-curvature="0" /></clipPath><clipPath
       clipPathUnits="userSpaceOnUse"
       id="clipPath1732"><path
         d="m 113.511,577.928 1.92,0 0,-4.06 -1.92,0 0,4.06 z"
         id="path1734"
         inkscape:connector-curvature="0" /></clipPath><clipPath
       clipPathUnits="userSpaceOnUse"
       id="clipPath1748"><path
         d="M 0,768 1024,768 1024,0 0,0 0,768 z"
         id="path1750"
         inkscape:connector-curvature="0" /></clipPath><clipPath
       clipPathUnits="userSpaceOnUse"
       id="clipPath1760"><path
         d="m 228,536.117 c 0,-42.802 34.698,-77.5 77.5,-77.5 l 0,0 c 42.802,0 77.5,34.698 77.5,77.5 l 0,0 c 0,42.802 -34.698,77.5 -77.5,77.5 l 0,0 c -42.802,0 -77.5,-34.698 -77.5,-77.5"
         id="path1762"
         inkscape:connector-curvature="0" /></clipPath><clipPath
       clipPathUnits="userSpaceOnUse"
       id="clipPath1834"><path
         d="m 319.266,624.217 53.897,0 0,-74.711 -53.897,0 0,74.711 z"
         id="path1836"
         inkscape:connector-curvature="0" /></clipPath><clipPath
       clipPathUnits="userSpaceOnUse"
       id="clipPath1850"><path
         d="m 270.849,584.472 152.916,0 0,-178.278 -152.916,0 0,178.278 z"
         id="path1852"
         inkscape:connector-curvature="0" /></clipPath><clipPath
       clipPathUnits="userSpaceOnUse"
       id="clipPath2054"><path
         d="M 0,768 1024,768 1024,0 0,0 0,768 z"
         id="path2056"
         inkscape:connector-curvature="0" /></clipPath><clipPath
       clipPathUnits="userSpaceOnUse"
       id="clipPath2066"><path
         d="m 228,361.117 c 0,-42.801 34.698,-77.5 77.5,-77.5 l 0,0 c 42.802,0 77.5,34.699 77.5,77.5 l 0,0 c 0,42.802 -34.698,77.5 -77.5,77.5 l 0,0 c -42.802,0 -77.5,-34.698 -77.5,-77.5"
         id="path2068"
         inkscape:connector-curvature="0" /></clipPath><clipPath
       clipPathUnits="userSpaceOnUse"
       id="clipPath2124"><path
         d="m 254.025,411.491 171,0 0,-170.562 -171,0 0,170.562 z"
         id="path2126"
         inkscape:connector-curvature="0" /></clipPath><clipPath
       clipPathUnits="userSpaceOnUse"
       id="clipPath2148"><path
         d="m 338.895,334.943 69.931,0 0,-80.858 -69.931,0 0,80.858 z"
         id="path2150"
         inkscape:connector-curvature="0" /></clipPath><clipPath
       clipPathUnits="userSpaceOnUse"
       id="clipPath2208"><path
         d="m 269.726,385.375 45.75,0 0,-129.289 -45.75,0 0,129.289 z"
         id="path2210"
         inkscape:connector-curvature="0" /></clipPath><clipPath
       clipPathUnits="userSpaceOnUse"
       id="clipPath2248"><path
         d="m 286.077,395.068 15.482,0 0,-10.204 -15.482,0 0,10.204 z"
         id="path2250"
         inkscape:connector-curvature="0" /></clipPath><clipPath
       clipPathUnits="userSpaceOnUse"
       id="clipPath2288"><path
         d="M 0,768 1024,768 1024,0 0,0 0,768 z"
         id="path2290"
         inkscape:connector-curvature="0" /></clipPath><clipPath
       clipPathUnits="userSpaceOnUse"
       id="clipPath2300"><path
         d="m 228,186.116 c 0,-42.802 34.698,-77.499 77.5,-77.499 l 0,0 c 42.802,0 77.5,34.697 77.5,77.499 l 0,0 c 0,42.802 -34.698,77.499 -77.5,77.499 l 0,0 c -42.802,0 -77.5,-34.697 -77.5,-77.499"
         id="path2302"
         inkscape:connector-curvature="0" /></clipPath><clipPath
       clipPathUnits="userSpaceOnUse"
       id="clipPath2358"><path
         d="m 258.341,233.648 142.781,0 0,-148.6353 -142.781,0 0,148.6353 z"
         id="path2360"
         inkscape:connector-curvature="0" /></clipPath><clipPath
       clipPathUnits="userSpaceOnUse"
       id="clipPath2382"><path
         d="m 258.42,173.87 34.287,0 0,-76.0057 -34.287,0 0,76.0057 z"
         id="path2384"
         inkscape:connector-curvature="0" /></clipPath><clipPath
       clipPathUnits="userSpaceOnUse"
       id="clipPath2406"><path
         d="m 257.662,238.148 134.46,0 0,-140.8531 -134.46,0 0,140.8531 z"
         id="path2408"
         inkscape:connector-curvature="0" /></clipPath><clipPath
       clipPathUnits="userSpaceOnUse"
       id="clipPath2422"><path
         d="m 267.864,236.151 124.003,0 0,-136.8453 -124.003,0 0,136.8453 z"
         id="path2424"
         inkscape:connector-curvature="0" /></clipPath><clipPath
       clipPathUnits="userSpaceOnUse"
       id="clipPath2438"><path
         d="m 267.441,220.876 66.413,0 0,-48.466 -66.413,0 0,48.466 z"
         id="path2440"
         inkscape:connector-curvature="0" /></clipPath><clipPath
       clipPathUnits="userSpaceOnUse"
       id="clipPath2470"><path
         d="m 272.204,233.586 74.445,0 0,-41.978 -74.445,0 0,41.978 z"
         id="path2472"
         inkscape:connector-curvature="0" /></clipPath><clipPath
       clipPathUnits="userSpaceOnUse"
       id="clipPath2510"><path
         d="m 285.177,216.011 c -1.979,-0.063 -5.012,-1.992 -5.706,-3.06 l 0,0 c -2.453,-3.78 -3.27,-10.959 -1.664,-13.409 l 0,0 c 1.71,-2.61 5.661,-3.865 8.145,-3.705 l 0,0 c 5.563,0.36 7.515,3.795 8.055,9.015 l 0,0 c 0.27,2.519 0.787,7.2 -2.52,9.54 l 0,0 c -0.826,0.584 -3.228,1.624 -5.967,1.624 l 0,0 c -0.114,0 -0.228,-0.002 -0.343,-0.005"
         id="path2512"
         inkscape:connector-curvature="0" /></clipPath><clipPath
       clipPathUnits="userSpaceOnUse"
       id="clipPath2518"><path
         d="m 284.871,211.291 15.324,0 0,-4.549 -15.324,0 0,4.549 z"
         id="path2520"
         inkscape:connector-curvature="0" /></clipPath><clipPath
       clipPathUnits="userSpaceOnUse"
       id="clipPath2534"><path
         d="m 284.871,217.88 12.083,0 0,-11.138 -12.083,0 0,11.138 z"
         id="path2536"
         inkscape:connector-curvature="0" /></clipPath><clipPath
       clipPathUnits="userSpaceOnUse"
       id="clipPath2550"><path
         d="m 284.871,221.483 5.604,0 0,-14.741 -5.604,0 0,14.741 z"
         id="path2552"
         inkscape:connector-curvature="0" /></clipPath><clipPath
       clipPathUnits="userSpaceOnUse"
       id="clipPath2566"><path
         d="m 280.322,222.064 4.549,0 0,-15.322 -4.549,0 0,15.322 z"
         id="path2568"
         inkscape:connector-curvature="0" /></clipPath><clipPath
       clipPathUnits="userSpaceOnUse"
       id="clipPath2582"><path
         d="m 273.733,218.824 11.138,0 0,-12.082 -11.138,0 0,12.082 z"
         id="path2584"
         inkscape:connector-curvature="0" /></clipPath><clipPath
       clipPathUnits="userSpaceOnUse"
       id="clipPath2598"><path
         d="m 270.13,212.346 14.741,0 0,-5.604 -14.741,0 0,5.604 z"
         id="path2600"
         inkscape:connector-curvature="0" /></clipPath><clipPath
       clipPathUnits="userSpaceOnUse"
       id="clipPath2614"><path
         d="m 269.549,206.742 15.322,0 0,-4.551 -15.322,0 0,4.551 z"
         id="path2616"
         inkscape:connector-curvature="0" /></clipPath><clipPath
       clipPathUnits="userSpaceOnUse"
       id="clipPath2630"><path
         d="m 272.789,206.742 12.082,0 0,-11.138 -12.082,0 0,11.138 z"
         id="path2632"
         inkscape:connector-curvature="0" /></clipPath><clipPath
       clipPathUnits="userSpaceOnUse"
       id="clipPath2646"><path
         d="m 279.268,206.742 5.603,0 0,-14.742 -5.603,0 0,14.742 z"
         id="path2648"
         inkscape:connector-curvature="0" /></clipPath><clipPath
       clipPathUnits="userSpaceOnUse"
       id="clipPath2662"><path
         d="m 284.871,206.742 4.549,0 0,-15.325 -4.549,0 0,15.325 z"
         id="path2664"
         inkscape:connector-curvature="0" /></clipPath><clipPath
       clipPathUnits="userSpaceOnUse"
       id="clipPath2678"><path
         d="m 284.871,206.742 11.138,0 0,-12.083 -11.138,0 0,12.083 z"
         id="path2680"
         inkscape:connector-curvature="0" /></clipPath><clipPath
       clipPathUnits="userSpaceOnUse"
       id="clipPath2694"><path
         d="m 284.871,206.742 14.742,0 0,-5.605 -14.742,0 0,5.605 z"
         id="path2696"
         inkscape:connector-curvature="0" /></clipPath><clipPath
       clipPathUnits="userSpaceOnUse"
       id="clipPath2710"><path
         d="m 228,186.116 c 0,-42.802 34.698,-77.499 77.5,-77.499 l 0,0 c 42.802,0 77.5,34.697 77.5,77.499 l 0,0 c 0,42.802 -34.698,77.499 -77.5,77.499 l 0,0 c -42.802,0 -77.5,-34.697 -77.5,-77.499"
         id="path2712"
         inkscape:connector-curvature="0" /></clipPath><clipPath
       clipPathUnits="userSpaceOnUse"
       id="clipPath2718"><path
         d="m 279.471,216.017 14.737,0 0,-17.02 -14.737,0 0,17.02 z"
         id="path2720"
         inkscape:connector-curvature="0" /></clipPath><clipPath
       clipPathUnits="userSpaceOnUse"
       id="clipPath2734"><path
         d="m 278.073,214.99 12.69,0 0,-11.389 -12.69,0 0,11.389 z"
         id="path2736"
         inkscape:connector-curvature="0" /></clipPath><clipPath
       clipPathUnits="userSpaceOnUse"
       id="clipPath2754"><path
         d="m 300.307,205.661 c -0.72,-2.88 -0.269,-6.589 1.35,-9.017 l 0,0 c 1.35,-1.981 2.879,-2.485 5.131,-3.474 l 0,0 c 3.869,-1.8 10.169,-1.387 12.958,2.123 l 0,0 c 1.981,2.52 3.803,9.895 1.531,13.122 l 0,0 c -1.835,2.603 -3.632,4.299 -7.167,5.02 l 0,0 c -1.074,0.219 -2.101,0.322 -3.075,0.322 l 0,0 c -5.789,0 -9.727,-3.627 -10.728,-8.096"
         id="path2756"
         inkscape:connector-curvature="0" /></clipPath><clipPath
       clipPathUnits="userSpaceOnUse"
       id="clipPath2762"><path
         d="m 309.712,214.639 12.082,0 0,-11.138 -12.082,0 0,11.138 z"
         id="path2764"
         inkscape:connector-curvature="0" /></clipPath><clipPath
       clipPathUnits="userSpaceOnUse"
       id="clipPath2778"><path
         d="m 309.712,218.243 5.602,0 0,-14.742 -5.602,0 0,14.742 z"
         id="path2780"
         inkscape:connector-curvature="0" /></clipPath><clipPath
       clipPathUnits="userSpaceOnUse"
       id="clipPath2794"><path
         d="m 305.162,218.825 4.55,0 0,-15.324 -4.55,0 0,15.324 z"
         id="path2796"
         inkscape:connector-curvature="0" /></clipPath><clipPath
       clipPathUnits="userSpaceOnUse"
       id="clipPath2810"><path
         d="m 298.574,215.584 11.138,0 0,-12.083 -11.138,0 0,12.083 z"
         id="path2812"
         inkscape:connector-curvature="0" /></clipPath><clipPath
       clipPathUnits="userSpaceOnUse"
       id="clipPath2826"><path
         d="m 294.97,209.105 14.742,0 0,-5.604 -14.742,0 0,5.604 z"
         id="path2828"
         inkscape:connector-curvature="0" /></clipPath><clipPath
       clipPathUnits="userSpaceOnUse"
       id="clipPath2842"><path
         d="m 294.388,203.501 15.324,0 0,-4.548 -15.324,0 0,4.548 z"
         id="path2844"
         inkscape:connector-curvature="0" /></clipPath><clipPath
       clipPathUnits="userSpaceOnUse"
       id="clipPath2858"><path
         d="m 297.629,203.501 12.083,0 0,-11.137 -12.083,0 0,11.137 z"
         id="path2860"
         inkscape:connector-curvature="0" /></clipPath><clipPath
       clipPathUnits="userSpaceOnUse"
       id="clipPath2874"><path
         d="m 304.107,203.501 5.605,0 0,-14.741 -5.605,0 0,14.741 z"
         id="path2876"
         inkscape:connector-curvature="0" /></clipPath><clipPath
       clipPathUnits="userSpaceOnUse"
       id="clipPath2890"><path
         d="m 309.712,203.501 4.548,0 0,-15.323 -4.548,0 0,15.323 z"
         id="path2892"
         inkscape:connector-curvature="0" /></clipPath><clipPath
       clipPathUnits="userSpaceOnUse"
       id="clipPath2906"><path
         d="m 309.712,203.501 11.138,0 0,-12.082 -11.138,0 0,12.082 z"
         id="path2908"
         inkscape:connector-curvature="0" /></clipPath><clipPath
       clipPathUnits="userSpaceOnUse"
       id="clipPath2922"><path
         d="m 309.712,203.501 14.741,0 0,-5.604 -14.741,0 0,5.604 z"
         id="path2924"
         inkscape:connector-curvature="0" /></clipPath><clipPath
       clipPathUnits="userSpaceOnUse"
       id="clipPath2938"><path
         d="m 309.712,208.051 15.323,0 0,-4.55 -15.323,0 0,4.55 z"
         id="path2940"
         inkscape:connector-curvature="0" /></clipPath><clipPath
       clipPathUnits="userSpaceOnUse"
       id="clipPath2954"><path
         d="m 228,186.116 c 0,-42.802 34.698,-77.499 77.5,-77.499 l 0,0 c 42.802,0 77.5,34.697 77.5,77.499 l 0,0 c 0,42.802 -34.698,77.499 -77.5,77.499 l 0,0 c -42.802,0 -77.5,-34.697 -77.5,-77.499"
         id="path2956"
         inkscape:connector-curvature="0" /></clipPath><clipPath
       clipPathUnits="userSpaceOnUse"
       id="clipPath2962"><path
         d="m 305.248,213.757 17.082,0 0,-18.464 -17.082,0 0,18.464 z"
         id="path2964"
         inkscape:connector-curvature="0" /></clipPath><clipPath
       clipPathUnits="userSpaceOnUse"
       id="clipPath2978"><path
         d="m 301.837,212.469 13.795,0 0,-13.488 -13.795,0 0,13.488 z"
         id="path2980"
         inkscape:connector-curvature="0" /></clipPath><clipPath
       clipPathUnits="userSpaceOnUse"
       id="clipPath3002"><path
         d="m 303.637,167.831 63.325,0 0,-78.3183 -63.325,0 0,78.3183 z"
         id="path3004"
         inkscape:connector-curvature="0" /></clipPath><clipPath
       clipPathUnits="userSpaceOnUse"
       id="clipPath3026"><path
         d="m 334.314,171.071 36.698,0 0,-71.2683 -36.698,0 0,71.2683 z"
         id="path3028"
         inkscape:connector-curvature="0" /></clipPath><clipPath
       clipPathUnits="userSpaceOnUse"
       id="clipPath3046"><path
         d="M 0,768 1024,768 1024,0 0,0 0,768 z"
         id="path3048"
         inkscape:connector-curvature="0" /></clipPath><clipPath
       clipPathUnits="userSpaceOnUse"
       id="clipPath3058"><path
         d="m 408,536.117 c 0,-42.802 34.698,-77.5 77.5,-77.5 l 0,0 c 42.802,0 77.5,34.698 77.5,77.5 l 0,0 c 0,42.802 -34.698,77.5 -77.5,77.5 l 0,0 c -42.802,0 -77.5,-34.698 -77.5,-77.5"
         id="path3060"
         inkscape:connector-curvature="0" /></clipPath><clipPath
       clipPathUnits="userSpaceOnUse"
       id="clipPath3116"><path
         d="m 438.781,587.971 160.04,0 0,-138.661 -160.04,0 0,138.661 z"
         id="path3118"
         inkscape:connector-curvature="0" /></clipPath><clipPath
       clipPathUnits="userSpaceOnUse"
       id="clipPath3140"><path
         d="m 575.706,528.121 11.135,0 0,-49.987 -11.135,0 0,49.987 z"
         id="path3142"
         inkscape:connector-curvature="0" /></clipPath><clipPath
       clipPathUnits="userSpaceOnUse"
       id="clipPath3188"><path
         d="m 495.493,545.319 93.89,0 0,-39.655 -93.89,0 0,39.655 z"
         id="path3190"
         inkscape:connector-curvature="0" /></clipPath><clipPath
       clipPathUnits="userSpaceOnUse"
       id="clipPath3212"><path
         d="m 527.791,527.143 59.061,0 0,-39.016 -59.061,0 0,39.016 z"
         id="path3214"
         inkscape:connector-curvature="0" /></clipPath><clipPath
       clipPathUnits="userSpaceOnUse"
       id="clipPath3236"><path
         d="m 507.09,487.143 29.179,0 0,-36.931 -29.179,0 0,36.931 z"
         id="path3238"
         inkscape:connector-curvature="0" /></clipPath><clipPath
       clipPathUnits="userSpaceOnUse"
       id="clipPath3272"><path
         d="m 463.675,571.134 2.555,0 0,-4.029 -2.555,0 0,4.029 z"
         id="path3274"
         inkscape:connector-curvature="0" /></clipPath><clipPath
       clipPathUnits="userSpaceOnUse"
       id="clipPath3288"><path
         d="m 466.432,553.293 18.654,0 0,-90.323 -18.654,0 0,90.323 z"
         id="path3290"
         inkscape:connector-curvature="0" /></clipPath><clipPath
       clipPathUnits="userSpaceOnUse"
       id="clipPath3304"><path
         d="m 495.211,535.912 22.394,0 0,-21.68 -22.394,0 0,21.68 z"
         id="path3306"
         inkscape:connector-curvature="0" /></clipPath><clipPath
       clipPathUnits="userSpaceOnUse"
       id="clipPath3320"><path
         d="M 0,768 1024,768 1024,0 0,0 0,768 z"
         id="path3322"
         inkscape:connector-curvature="0" /></clipPath><clipPath
       clipPathUnits="userSpaceOnUse"
       id="clipPath3332"><path
         d="m 408.256,361.117 c 0,-42.801 34.698,-77.5 77.5,-77.5 l 0,0 c 42.801,0 77.5,34.699 77.5,77.5 l 0,0 c 0,42.802 -34.699,77.5 -77.5,77.5 l 0,0 c -42.802,0 -77.5,-34.698 -77.5,-77.5"
         id="path3334"
         inkscape:connector-curvature="0" /></clipPath><clipPath
       clipPathUnits="userSpaceOnUse"
       id="clipPath3390"><path
         d="m 460.505,414.483 179.594,0 0,-183.402 -179.594,0 0,183.402 z"
         id="path3392"
         inkscape:connector-curvature="0" /></clipPath><clipPath
       clipPathUnits="userSpaceOnUse"
       id="clipPath3462"><path
         d="m 462.712,400.909 3.423,0 0,-1.983 -3.423,0 0,1.983 z"
         id="path3464"
         inkscape:connector-curvature="0" /></clipPath><clipPath
       clipPathUnits="userSpaceOnUse"
       id="clipPath3486"><path
         d="m 482.274,388.666 23.055,0 0,-8.095 -23.055,0 0,8.095 z"
         id="path3488"
         inkscape:connector-curvature="0" /></clipPath><clipPath
       clipPathUnits="userSpaceOnUse"
       id="clipPath3506"><path
         d="m 490.869,389.44 13.788,0 0,-8.146 -13.788,0 0,8.146 z"
         id="path3508"
         inkscape:connector-curvature="0" /></clipPath><clipPath
       clipPathUnits="userSpaceOnUse"
       id="clipPath3522"><path
         d="m 525.493,299.603 97.907,0 0,-61.254 -97.907,0 0,61.254 z"
         id="path3524"
         inkscape:connector-curvature="0" /></clipPath><clipPath
       clipPathUnits="userSpaceOnUse"
       id="clipPath3546"><path
         d="m 489.459,322.129 139.97,0 0,-29.732 -139.97,0 0,29.732 z"
         id="path3548"
         inkscape:connector-curvature="0" /></clipPath><clipPath
       clipPathUnits="userSpaceOnUse"
       id="clipPath3570"><path
         d="M 0,768 1024,768 1024,0 0,0 0,768 z"
         id="path3572"
         inkscape:connector-curvature="0" /></clipPath></defs><sodipodi:namedview
     pagecolor="#ffffff"
     bordercolor="#666666"
     borderopacity="1"
     objecttolerance="10"
     gridtolerance="10"
     guidetolerance="10"
     inkscape:pageopacity="0"
     inkscape:pageshadow="2"
     inkscape:window-width="1600"
     inkscape:window-height="837"
     id="namedview4"
     showgrid="false"
     inkscape:zoom="0.675"
     inkscape:cx="462.96296"
     inkscape:cy="240.28777"
     inkscape:window-x="-8"
     inkscape:window-y="-8"
     inkscape:window-maximized="1"
     inkscape:current-layer="g10" /><g
     id="g10"
     inkscape:groupmode="layer"
     inkscape:label="tiericons_cs5"
     transform="matrix(1.25,0,0,-1.25,0,200)"><g
       id="g7377"
       transform="translate(-225.5,-281.1172)"><g
         id="g2062"><g
           clip-path="url(#clipPath2066)"
           id="g2064"><path
             id="path2070"
             style="fill:#acdef9;fill-opacity:1;fill-rule:nonzero;stroke:none"
             d="m 383.256,283.419 -155.906,0 0,155.906 155.906,0 0,-155.906 z"
             inkscape:connector-curvature="0" /><g
             transform="translate(305.4932,487.5479)"
             id="g2072"><path
               id="path2074"
               style="fill:#e4f9f7;fill-opacity:1;fill-rule:nonzero;stroke:none"
               d="M 0,0 0.007,-126.432 26.992,-4.848 0,0 z"
               inkscape:connector-curvature="0" /></g><g
             transform="translate(242.542,470.6055)"
             id="g2076"><path
               id="path2078"
               style="fill:#e4f9f7;fill-opacity:1;fill-rule:nonzero;stroke:none"
               d="M 0,0 62.958,-109.489 25.79,9.354 0,0 z"
               inkscape:connector-curvature="0" /></g><g
             transform="translate(196.4609,424.3252)"
             id="g2080"><path
               id="path2082"
               style="fill:#e4f9f7;fill-opacity:1;fill-rule:nonzero;stroke:none"
               d="M 0,0 109.039,-63.209 17.678,21.051 0,0 z"
               inkscape:connector-curvature="0" /></g><g
             transform="translate(179.5977,361.1084)"
             id="g2084"><path
               id="path2086"
               style="fill:#e4f9f7;fill-opacity:1;fill-rule:nonzero;stroke:none"
               d="M 0,0 125.902,0.008 4.826,27.106 0,0 z"
               inkscape:connector-curvature="0" /></g><g
             transform="translate(196.4688,297.8945)"
             id="g2088"><path
               id="path2090"
               style="fill:#e4f9f7;fill-opacity:1;fill-rule:nonzero;stroke:none"
               d="M 0,0 109.031,63.222 -9.316,25.897 0,0 z"
               inkscape:connector-curvature="0" /></g><g
             transform="translate(242.5557,251.6201)"
             id="g2092"><path
               id="path2094"
               style="fill:#e4f9f7;fill-opacity:1;fill-rule:nonzero;stroke:none"
               d="M 0,0 62.944,109.496 -20.964,17.751 0,0 z"
               inkscape:connector-curvature="0" /></g><g
             transform="translate(305.5078,234.6855)"
             id="g2096"><path
               id="path2098"
               style="fill:#e4f9f7;fill-opacity:1;fill-rule:nonzero;stroke:none"
               d="M 0,0 -0.008,126.431 -26.992,4.847 0,0 z"
               inkscape:connector-curvature="0" /></g><g
             transform="translate(368.458,251.627)"
             id="g2100"><path
               id="path2102"
               style="fill:#e4f9f7;fill-opacity:1;fill-rule:nonzero;stroke:none"
               d="M 0,0 -62.958,109.489 -25.789,-9.354 0,0 z"
               inkscape:connector-curvature="0" /></g><g
             transform="translate(414.5391,297.9063)"
             id="g2104"><path
               id="path2106"
               style="fill:#e4f9f7;fill-opacity:1;fill-rule:nonzero;stroke:none"
               d="M 0,0 -109.039,63.21 -17.677,-21.05 0,0 z"
               inkscape:connector-curvature="0" /></g><g
             transform="translate(431.4033,361.123)"
             id="g2108"><path
               id="path2110"
               style="fill:#e4f9f7;fill-opacity:1;fill-rule:nonzero;stroke:none"
               d="M 0,0 -125.903,-0.007 -4.827,-27.105 0,0 z"
               inkscape:connector-curvature="0" /></g><g
             transform="translate(414.5322,424.3379)"
             id="g2112"><path
               id="path2114"
               style="fill:#e4f9f7;fill-opacity:1;fill-rule:nonzero;stroke:none"
               d="M 0,0 -109.032,-63.222 9.315,-25.897 0,0 z"
               inkscape:connector-curvature="0" /></g><g
             transform="translate(368.4453,470.6123)"
             id="g2116"><path
               id="path2118"
               style="fill:#e4f9f7;fill-opacity:1;fill-rule:nonzero;stroke:none"
               d="M 0,0 -62.945,-109.496 20.963,-17.751 0,0 z"
               inkscape:connector-curvature="0" /></g><g
             id="g2120"><g
               id="g2122" /><g
               id="g2128"><g
                 id="g2130"
                 clip-path="url(#clipPath2124)"
                 style="opacity:0.60000598"><g
                   id="g2132"
                   transform="translate(268.7617,371.9248)"><path
                     id="path2134"
                     style="fill:#1b0000;fill-opacity:1;fill-rule:nonzero;stroke:none"
                     d="M 0,0 C 0.087,0.01 0.165,0.018 0.252,0.032 0.178,0.017 0.116,0.008 0.08,0.005 0.053,0.002 0.03,0.002 0,0 m 153.131,-101.254 c -1.432,3.726 -2.578,8.031 -4.875,11.474 -2.297,3.439 -5.164,5.738 -6.6,9.464 0.287,0 0.862,-0.286 1.148,-0.286 -1.431,2.294 -3.439,4.302 -4.876,6.311 -0.571,0.861 -2.296,2.294 -2.579,3.154 -0.578,1.723 1.145,2.296 0.57,3.444 -2.008,4.302 -8.319,7.171 -10.897,11.188 4.015,2.294 -6.603,7.458 -8.321,9.466 -1.721,2.008 -2.296,5.164 -4.304,6.884 -2.007,1.433 -6.01,2.16 -8.317,2.009 -0.69,-0.045 -1.535,-0.163 -2.455,-0.322 -3.409,3.239 -6.641,6.572 -9.436,10.139 0.018,0.874 -0.211,1.793 -0.35,2.612 3.636,-0.381 1.34,6.313 0.765,8.415 l 1.339,0 c 1.532,4.591 -3.442,6.503 -4.97,9.755 -1.151,2.292 0.954,2.485 0.381,4.779 -0.381,1.723 -2.677,3.062 -3.059,4.974 5.164,1.719 -4.208,8.032 -5.356,9.371 4.782,2.103 -1.911,8.606 -4.398,9.944 1.338,3.062 -5.354,4.589 -6.884,6.118 3.823,2.102 -6.695,6.692 -8.415,8.226 0.382,0.19 0.764,0.379 1.338,0.574 -4.206,1.908 -9.943,1.338 -14.533,2.103 -4.401,0.764 -8.99,0.38 -13.961,-0.385 0.191,0.19 0.191,0.765 0.191,1.149 -2.296,0.575 -6.619,0.085 -9.18,-0.384 -0.376,-0.066 -1.148,-0.084 -1.528,-0.095 -5.546,-0.174 -4.59,-2.103 -9.755,-3.441 C 8.65,34.047 8.87,31.621 6.809,26.333 5.466,22.878 4.528,20.212 4.12,17.756 1.187,17.46 -2.165,16.867 -3.875,15.852 -14.788,9.356 -17.55,4.541 -11.833,-16.02 c 0.633,5.078 -0.846,11.847 4.65,15.235 0.203,0.117 0.499,0.196 0.855,0.259 -2.426,-1.666 -6.102,-6.696 -3.393,-5.338 2.967,1.485 5.278,2.407 7.83,2.751 3.983,0.535 8.416,0.251 12.699,0.288 2.657,-5.387 5.512,-11.512 5.874,-13.817 0.672,-4.186 -2.108,-7.855 -1.777,-11.918 -7.863,-8.842 -6.349,-28.943 -6.349,-39.707 0,-14.343 5.164,-24.097 12.046,-36.433 4.015,-6.883 8.612,-21.227 16.358,-21.227 1.405,0 5.948,-0.147 12.467,-0.371 0.994,-0.066 1.977,-0.134 3.018,-0.199 0.076,0.021 0.141,0.055 0.214,0.082 12.254,-0.432 29.838,-1.079 46.931,-1.626 4.167,-3.146 9.51,-0.914 15.39,-1.895 7.456,-1.434 28.112,-1.669 35.573,0.914 0.106,0.036 0.209,0.082 0.316,0.12 1.332,0.068 2.26,0.154 2.69,0.278 1.564,0.436 2.083,2.499 2,5.275 1.958,6.706 -0.594,17.203 -2.428,22.095"
                     inkscape:connector-curvature="0" /></g></g></g></g><g
             transform="translate(279.9072,349.7754)"
             id="g2136"><path
               id="path2138"
               style="fill:#333333;fill-opacity:1;fill-rule:nonzero;stroke:none"
               d="m 0,0 c -9.18,-7.291 -7.56,-28.08 -7.56,-38.88 0,-13.5 4.861,-22.681 11.34,-34.29 3.78,-6.48 8.106,-19.98 15.397,-19.98 7.289,0 104.072,-4.161 109.743,-2.54 4.859,1.35 -0.94,19.28 -2.83,23.33 -1.62,3.509 -3.239,6.48 -4.86,9.72 -3.24,6.209 -5.399,12.69 -9.179,18.36 C 108,-38.341 102.87,-33.21 98.28,-28.08 89.101,-18.091 76.95,-9.72 69.391,1.08 68.041,2.97 66.69,6.75 64.801,7.83 63.181,8.909 59.131,8.1 56.97,8.1 52.381,8.1 47.521,7.83 42.931,7.56 30.78,7.29 19.44,6.209 7.56,4.859 L 0,0 z"
               inkscape:connector-curvature="0" /></g><g
             transform="translate(279.6953,349.9873)"
             id="g2140"><path
               id="path2142"
               style="fill:#1c1c1c;fill-opacity:1;fill-rule:nonzero;stroke:none"
               d="m 0,0 c -6.687,-5.778 -7.354,-15.897 -7.682,-24.127 -0.429,-10.761 -0.5,-21.913 3.026,-32.188 1.886,-5.498 4.754,-10.648 7.553,-15.717 2.53,-4.578 4.621,-9.382 7.217,-13.922 2.847,-4.975 5.966,-7.605 11.601,-7.753 29.501,-0.778 58.979,-2.271 88.49,-2.775 4.979,-0.085 9.963,-0.164 14.941,-0.036 2.493,0.065 4.992,-0.229 5.913,2.557 1.955,5.913 -1.886,15.027 -4.026,20.442 -2.108,5.337 -5.188,10.305 -7.601,15.509 -2.678,5.777 -5.098,11.586 -9.065,16.636 -8.133,10.353 -17.646,19.277 -27.33,28.134 -4.998,4.571 -10.1,9.425 -13.756,15.172 C 67.732,4.368 66.632,8.345 63.13,8.443 49.763,8.82 35.91,7.611 22.592,6.469 18.893,6.151 15.199,5.763 11.507,5.364 10.125,5.215 8.414,5.417 7.201,4.638 4.821,3.107 2.44,1.577 0.061,0.047 -0.264,-0.161 0.037,-0.681 0.363,-0.471 c 2.381,1.531 4.761,3.06 7.141,4.59 2.12,1.362 7.04,0.972 9.559,1.229 4.298,0.437 8.603,0.795 12.913,1.098 7.303,0.515 14.641,0.757 21.958,1.042 2.916,0.114 5.816,0.107 8.727,0.333 5.443,0.423 6.347,-3.43 8.683,-7.104 7.009,-11.023 18.831,-18.755 27.821,-28.03 5.263,-5.43 10.482,-11.146 14.839,-17.331 4.247,-6.031 6.674,-13.405 9.989,-19.96 4.273,-8.448 9.099,-18.074 8.699,-27.851 -0.2,-4.895 -7.546,-3.52 -10.941,-3.522 -15.315,-0.008 -30.64,0.574 -45.945,1.072 -18.118,0.59 -36.288,1.778 -54.417,1.842 -7.505,0.028 -11.423,12.65 -14.18,18.078 -4.376,8.615 -9.276,16.584 -11.333,26.17 -1.681,7.836 -1.187,16.694 -0.958,24.688 0.23,8.027 1,18.08 7.506,23.703 C 0.717,-0.171 0.291,0.252 0,0"
               inkscape:connector-curvature="0" /></g><g
             id="g2144"><g
               id="g2146" /><g
               id="g2152"><g
                 id="g2154"
                 clip-path="url(#clipPath2148)"
                 style="opacity:0.39999396"><g
                   id="g2156"
                   transform="translate(347.4072,331.9551)"><path
                     id="path2158"
                     style="fill:#000000;fill-opacity:1;fill-rule:nonzero;stroke:none"
                     d="M 0,0 C -6.179,-3.104 -7.02,-14.31 -7.83,-20.521 -8.369,-26.46 -8.909,-32.67 -8.1,-38.88 c 0.81,-6.75 0.27,-15.66 3.241,-21.87 0.269,-0.54 0.269,-1.08 0.269,-1.35 0.271,0 0.54,0.54 0.81,0.54 2.7,-2.97 3.51,-11.07 4.861,-15.12 0,1.08 1.079,2.16 1.35,3.24 4.59,-7.019 24.84,-2.429 32.939,-3.78 7.02,-1.349 14.311,-0.539 21.33,1.89 8.64,2.7 3.24,12.421 0.811,18.9 -1.35,3.511 -2.43,7.561 -4.591,10.8 -2.159,3.24 -4.859,5.401 -6.209,8.909 0.269,0 0.81,-0.268 1.079,-0.268 -1.35,2.159 -3.239,4.05 -4.59,5.939 -0.539,0.811 -2.16,2.16 -2.429,2.97 -0.541,1.62 1.08,2.16 0.54,3.241 -1.891,4.05 -7.831,6.75 -10.26,10.529 3.78,2.161 -6.21,7.021 -7.831,8.911 -1.619,1.889 -2.16,4.86 -4.05,6.479 C 17.28,2.43 13.513,3.113 11.341,2.97 8.416,2.777 2.618,1.315 0,0"
                     inkscape:connector-curvature="0" /></g></g></g></g><g
             transform="translate(350.917,336.2754)"
             id="g2160"><path
               id="path2162"
               style="fill:#333333;fill-opacity:1;fill-rule:nonzero;stroke:none"
               d="m 0,0 c -6.179,-3.104 -7.019,-14.31 -7.829,-20.52 -0.54,-5.94 -1.08,-12.15 -0.271,-18.36 0.81,-6.75 0.271,-15.66 3.241,-21.87 0.269,-0.54 0.269,-1.079 0.269,-1.351 0.271,0 0.54,0.54 0.811,0.54 2.7,-2.968 3.51,-11.069 4.86,-15.119 0,1.079 1.079,2.16 1.35,3.241 4.05,-13.771 11.069,-8.635 19.17,-9.985 7.019,-1.35 26.46,-1.571 33.479,0.86 8.641,2.7 4.86,19.654 2.431,26.134 -1.351,3.51 -2.431,7.56 -4.59,10.8 -2.16,3.239 -4.86,5.4 -6.211,8.91 0.27,0 0.811,-0.27 1.081,-0.27 -1.351,2.16 -3.24,4.05 -4.59,5.94 -0.541,0.81 -2.16,2.159 -2.43,2.97 -0.541,1.62 1.08,2.16 0.54,3.239 -1.89,4.05 -7.831,6.75 -10.26,10.531 3.779,2.16 -6.21,7.019 -7.83,8.91 -1.62,1.89 -2.16,4.859 -4.05,6.48 -1.89,1.35 -5.658,2.034 -7.83,1.89 C 8.417,2.776 2.619,1.315 0,0"
               inkscape:connector-curvature="0" /></g><g
             transform="translate(350.7656,336.5342)"
             id="g2164"><path
               id="path2166"
               style="fill:#1c1c1c;fill-opacity:1;fill-rule:nonzero;stroke:none"
               d="m 0,0 c -7.138,-4.22 -7.479,-15.216 -8.139,-22.568 -0.679,-7.575 -0.107,-14.791 0.343,-22.339 0.153,-2.58 0.251,-5.182 0.608,-7.744 0.445,-3.184 2.267,-6.596 2.45,-9.708 0.011,-0.212 0.25,-0.393 0.451,-0.259 1.88,1.252 4.685,-12.598 5.23,-14.401 0.084,-0.279 0.5,-0.292 0.578,0 1.182,4.402 2.521,-1.448 3.704,-3.205 0.913,-1.358 2.219,-2.271 3.678,-2.936 3.237,-1.477 7.429,-0.485 10.847,-0.606 4.932,-0.174 9.825,-1.097 14.798,-1.198 5.448,-0.11 10.933,0.091 16.333,0.85 9.47,1.332 10.73,8.274 9.678,16.88 -0.585,4.778 -2.138,9.225 -3.731,13.734 -1.149,3.255 -2.426,6.269 -4.45,9.092 -0.591,0.824 -1.372,1.71 -2.02,2.493 -0.002,0.003 -3.995,4.752 -2.496,4.377 0.24,-0.061 0.495,0.213 0.339,0.44 -1.294,1.891 -7.848,7.876 -6.75,10.43 0.866,2.016 -0.695,3.37 -2.074,4.842 -1.004,1.073 -8.293,5.978 -7.387,7.514 0.695,1.177 0.062,2.049 -0.746,3.001 -1.625,1.918 -4.171,3.248 -6.203,4.664 -3.07,2.139 -3.241,6.361 -6.482,8.264 C 13.18,4.776 5.137,2.311 0,0 c -0.353,-0.158 -0.047,-0.675 0.303,-0.518 7.206,3.242 17.283,5.467 21.46,-3.132 0.758,-1.561 1.626,-2.525 2.975,-3.515 1.02,-0.748 8.803,-5.223 6.313,-7.145 -0.118,-0.09 -0.214,-0.266 -0.108,-0.41 2.735,-3.698 11.012,-7.449 9.622,-12.502 -0.324,-1.177 0.576,-2.037 1.258,-2.814 0.778,-0.886 1.407,-1.676 2.183,-2.621 0.601,-0.732 4.122,-4.329 2.935,-4.032 -0.272,0.068 -0.446,-0.207 -0.338,-0.441 2.48,-5.403 6.901,-9.249 9.077,-14.934 1.495,-3.91 2.841,-7.845 3.722,-11.939 0.904,-4.192 1.3,-8.623 0.408,-12.848 -1.193,-5.642 -6.395,-6.38 -11.206,-6.96 -8.486,-1.022 -17.571,-0.987 -26.03,0.287 -2.853,0.429 -5.612,0.357 -8.492,0.27 -6.541,-0.199 -9.326,3.765 -11.211,9.636 -0.071,0.221 -0.436,0.327 -0.548,0.071 -1.914,-4.398 -1.679,0.015 -2.258,2.636 -0.706,3.201 -1.405,6.591 -3.434,9.243 -0.094,0.124 -0.262,0.206 -0.41,0.107 -1.368,-0.911 -3.031,10.998 -3.123,12.055 -0.518,5.884 -1.126,11.901 -1.157,17.802 -0.029,5.811 0.665,11.693 1.551,17.431 0.777,5.03 2.117,10.981 6.811,13.755 C 0.636,-0.321 0.334,0.197 0,0"
               inkscape:connector-curvature="0" /></g><g
             transform="translate(286.4775,411.6953)"
             id="g2168"><path
               id="path2170"
               style="fill:#b7b7b7;fill-opacity:1;fill-rule:nonzero;stroke:none"
               d="m 0,0 c -5.218,-0.163 -4.32,-1.979 -9.18,-3.239 -4.86,-1.261 -4.654,-3.544 -6.592,-8.523 -3.332,-8.553 -4.028,-11.992 0.113,-20.183 2.273,-4.494 8.64,-16.844 9.18,-20.264 0.72,-4.5 -2.79,-8.361 -1.35,-12.861 2.34,2.52 7.649,-1.259 9.449,-3.06 0.18,3.601 8.641,-0.181 9.721,-1.081 1.08,6.121 4.68,0.541 7.558,-0.898 0.541,5.219 7.201,0.359 9.54,-1.08 0.361,1.799 0.181,4.139 2.161,4.139 1.621,0.18 3.24,-3.059 4.681,-2.7 0.899,0.18 3.868,1.979 4.589,2.341 1.26,0.539 5.04,-2.431 6.301,-2.431 1.619,0 7.47,2.97 8.728,1.17 1.442,1.981 2.881,-0.9 4.862,-0.181 1.619,0.721 2.52,4.141 2.699,5.58 0.36,-0.179 1.62,-0.54 1.98,-0.899 0.36,1.08 0,2.408 -0.179,3.486 3.42,-0.359 1.26,5.989 0.72,7.989 l 1.258,0 c 1.442,4 -3.239,6.052 -4.678,9.113 -1.081,2.16 0.899,2.306 0.36,4.466 -0.36,1.62 -2.522,2.863 -2.881,4.663 4.859,1.62 -3.96,7.551 -5.04,8.812 4.5,1.979 -1.8,8.096 -4.14,9.355 1.26,2.88 -5.04,4.318 -6.479,5.759 3.599,1.979 -6.301,6.298 -7.921,7.738 0.36,0.18 0.72,0.36 1.261,0.539 -3.96,1.8 -9.361,1.261 -13.681,1.98 C 18.899,0.45 14.58,0.09 9.899,-0.63 10.08,-0.45 10.08,0.09 10.08,0.45 7.921,0.99 3.849,0.53 1.439,0.09 1.085,0.025 0.36,0.012 0,0"
               inkscape:connector-curvature="0" /></g><g
             transform="translate(286.4775,411.9951)"
             id="g2172"><path
               id="path2174"
               style="fill:#919191;fill-opacity:1;fill-rule:nonzero;stroke:none"
               d="m 0,0 c -3.214,-0.236 -4.938,-1.592 -7.837,-2.813 -2.016,-0.848 -4.519,-0.98 -5.767,-3.084 -2.825,-4.768 -5.964,-12.615 -5.132,-18.248 1.009,-6.845 5.395,-13.202 8.335,-19.368 1.576,-3.307 3.477,-6.758 3.718,-10.474 0.261,-4.022 -2.301,-7.324 -1.435,-11.463 0.037,-0.177 0.288,-0.29 0.44,-0.179 3.015,2.211 7.028,-1.107 9.086,-3.013 0.159,-0.148 0.446,-0.095 0.501,0.132 0.773,3.206 8.074,-0.428 9.28,-1.26 0.16,-0.11 0.396,10e-4 0.441,0.179 1.224,4.8 5.403,-0.042 7.118,-1.077 0.16,-0.097 0.398,-0.01 0.44,0.179 1.034,4.659 7.355,-0.157 9.1,-1.259 0.15,-0.096 0.411,-0.012 0.441,0.179 0.403,2.612 2.268,4.211 4.846,1.887 0.274,-0.246 0.598,-0.536 0.972,-0.58 1.788,-0.214 3.452,1.165 4.947,2.007 2.192,1.236 4.57,-2.184 6.677,-2.184 2.379,0 6.261,3.058 8.517,1.257 0.134,-0.108 0.29,-0.116 0.423,0 1.309,1.13 3.861,-0.934 5.551,0.336 1.572,1.182 1.072,5.451 3.627,4.117 0.209,-0.109 0.437,0.029 0.451,0.259 0.027,0.392 0.03,2.949 0.472,3.22 0.469,0.286 0.902,0.475 1.037,1.089 0.357,1.636 -1.187,6.732 -0.01,6.732 0.127,0 0.262,0.091 0.289,0.22 0.248,1.176 0.498,2.412 -0.132,3.541 -1.201,2.147 -5.741,5.416 -4.421,8.172 1.398,2.92 -2.913,4.874 -1.453,7.367 1.166,1.989 -1.758,4.353 -2.959,5.474 -0.634,0.592 -3.5,2.394 -2.607,2.931 0.8,0.482 0.894,1.462 0.9,2.276 0.023,2.666 -3.392,5.395 -5.288,6.776 -0.333,0.242 -0.58,1.886 -0.853,2.298 -0.854,1.287 -2.866,1.961 -4.172,2.596 -2.499,1.214 -0.123,1.728 -1.724,3.382 -1.044,1.08 -2.248,1.884 -3.515,2.686 -0.803,0.509 -1.635,0.975 -2.457,1.453 -1.031,0.598 -2.489,0.799 -0.975,1.448 0.266,0.114 0.139,0.469 -0.071,0.548 C 31.96,-0.429 26.626,-0.775 21.559,-0.06 19.398,0.246 17.188,0.122 15.022,-0.01 13.969,-0.073 10.329,-1.224 10.38,0.15 10.385,0.273 10.286,0.418 10.16,0.439 6.688,1.022 3.445,0.12 0,0 c -0.386,-0.013 -0.387,-0.613 0,-0.6 1.151,0.04 10.075,1.14 9.61,-0.25 -0.081,-0.24 0.161,-0.399 0.369,-0.369 4.427,0.641 8.613,0.947 13.061,0.35 2.056,-0.277 4.109,-0.405 6.18,-0.53 1.141,-0.069 6.198,-1.385 6.089,-1.432 -0.234,-0.1 -0.154,-0.399 0,-0.518 1.019,-0.785 10.171,-5.542 7.92,-7.221 -0.136,-0.102 -0.227,-0.341 -0.06,-0.471 1.594,-1.247 7.016,-2.687 6.402,-5.469 -0.03,-0.135 0.019,-0.266 0.138,-0.339 1.807,-1.107 8.281,-6.348 4.14,-8.841 -0.166,-0.1 -0.199,-0.333 -0.061,-0.471 1.131,-1.136 8.855,-6.601 5.101,-8.35 -0.112,-0.052 -0.184,-0.223 -0.138,-0.339 0.609,-1.545 1.502,-2.46 2.508,-3.815 2.629,-3.541 -0.914,-2.262 -0.314,-4.273 0.361,-1.206 0.804,-1.957 1.581,-2.939 0.706,-0.892 6.345,-6.952 2.455,-6.952 -0.193,0 -0.342,-0.192 -0.289,-0.38 0.427,-1.499 2.615,-7.317 -0.431,-7.541 -0.207,-0.015 -0.323,-0.179 -0.289,-0.38 0.565,-3.31 -0.019,-2.697 -1.432,-2.151 -0.143,0.054 -0.344,-0.06 -0.369,-0.209 -0.419,-2.415 -1.039,-6.295 -4.963,-4.808 -0.468,0.177 -1.308,0.588 -1.798,0.164 -0.634,-0.547 -1.096,0.054 -1.746,0.033 -1.817,-0.057 -3.489,-0.602 -5.212,-1.157 -3.562,-1.146 -5.334,2.13 -8.582,1.849 -1.004,-0.087 -2.432,-1.308 -3.311,-1.776 -2.153,-1.144 -3.99,1.745 -5.879,2.124 -1.56,0.314 -3.21,-3.46 -2.701,-3.783 -2.27,1.435 -5.089,3.614 -7.935,2.893 -0.615,-0.155 -0.898,-0.805 -1.175,-1.275 -0.721,-1.227 -2.986,1.451 -3.887,2.118 -1.334,0.988 -3.096,0.952 -3.576,-0.932 -0.409,-1.604 -1.1,-0.447 -2.353,0.057 -1.483,0.595 -3.159,1.32 -4.784,1.354 -2.058,0.042 -2.339,-1.448 -3.947,-0.29 -1.538,1.108 -5.412,3.928 -7.518,2.383 -1.274,-0.934 0.149,5.809 0.265,6.214 0.242,0.834 0.621,2.028 0.706,2.894 0.183,1.859 0.058,3.233 -0.524,4.962 -2.924,8.692 -9.168,16.33 -11.23,25.273 -1.286,5.57 1.968,11.456 3.75,16.558 1.378,3.949 4.172,4.243 7.646,5.705 2.431,1.023 3.694,2.117 6.583,2.33 0.384,0.028 0.386,0.629 0,0.6"
               inkscape:connector-curvature="0" /></g><g
             transform="translate(279.458,406.2959)"
             id="g2176"><path
               id="path2178"
               style="fill:#919191;fill-opacity:1;fill-rule:nonzero;stroke:none"
               d="m 0,0 c 1.44,0.359 2.79,1.26 4.229,1.62 0,-0.181 0.09,-0.36 0.18,-0.54 1.8,0.09 3.781,1.8 5.671,2.069 2.16,0.271 4.41,0.09 6.66,0.361 2.159,0.179 4.409,0.179 6.57,0.09 1.799,-0.09 3.509,-0.09 5.13,-0.72 -1.621,-0.901 -4.231,-0.811 -6.031,-0.72 -1.26,0.089 -2.43,0 -3.599,0.089 C 17.459,2.34 16.83,2.069 15.479,1.979 13.05,1.89 10.8,2.249 8.369,2.16 6.03,2.069 4.05,0.81 1.709,0.359 L 0,0 z"
               inkscape:connector-curvature="0" /></g><g
             transform="translate(300.6982,405.126)"
             id="g2180"><path
               id="path2182"
               style="fill:#919191;fill-opacity:1;fill-rule:nonzero;stroke:none"
               d="m 0,0 c 1.89,-0.541 4.05,-0.9 5.849,-0.631 1.8,0.271 4.411,0.09 5.851,-0.989 -0.181,0 -0.451,-0.09 -0.721,-0.09 1.89,-0.54 4.5,-1.621 6.39,-1.621 -0.18,0.27 -0.359,0.9 -0.54,1.261 1.711,0.09 3.33,-1.35 4.771,-1.71 0.359,-0.54 0.719,-1.08 0.9,-1.62 -0.36,0.179 -0.811,0.179 -1.171,0.359 -0.269,-0.989 -5.939,1.44 -6.93,1.891 -1.259,-1.08 -4.41,0.719 -5.85,1.08 -0.72,-1.08 -2.7,-0.18 -3.78,0.09 -1.35,0.36 -2.16,-0.09 -3.419,0.719 L 0,0 z"
               inkscape:connector-curvature="0" /></g><g
             transform="translate(303.5771,386.2256)"
             id="g2184"><path
               id="path2186"
               style="fill:#919191;fill-opacity:1;fill-rule:nonzero;stroke:none"
               d="M 0,0 C 0.721,0.45 1.171,1.35 1.8,1.8 2.34,2.16 2.7,1.98 3.15,2.25 3.33,2.34 3.871,2.88 4.14,2.97 5.761,3.69 7.83,2.43 9.631,1.89 8.73,4.05 15.39,0.9 16.2,0.271 c -0.539,0 -1.17,0.269 -1.8,0.359 0.18,-0.72 0.811,-1.26 0.99,-1.98 -0.36,0 -0.81,-0.18 -1.169,-0.09 1.71,-1.89 3.24,-3.78 4.41,-6.21 -0.811,0.54 -1.351,1.62 -2.161,2.34 0,-0.18 0.091,-0.36 0.091,-0.54 -1.081,0.27 -1.981,1.53 -2.88,2.25 -0.991,0.81 -2.071,1.35 -3.241,1.98 0.09,-0.18 0.271,-0.271 0.271,-0.36 C 9,-2.07 6.121,-0.72 4.5,0.18 4.32,-0.45 2.79,0.09 1.98,0.18 L 0,0 z"
               inkscape:connector-curvature="0" /></g><g
             transform="translate(272.4375,399.8154)"
             id="g2188"><path
               id="path2190"
               style="fill:#919191;fill-opacity:1;fill-rule:nonzero;stroke:none"
               d="m 0,0 c -0.449,-1.53 -0.63,-2.88 -1.62,-4.23 0.809,0.36 1.081,-0.45 1.891,-0.45 0.54,0 1.258,0.72 1.708,0.991 1.261,0.719 2.701,1.529 4.05,1.799 0,-0.18 0.091,-0.45 0,-0.719 C 7.109,-2.43 9.99,-0.81 10.711,0.09 9.18,0.54 7.65,-0.54 6.12,-0.99 6.301,-0.63 6.39,-0.09 6.66,0.181 5.13,0.27 3.511,-0.99 1.89,-0.99 2.07,0 2.7,0.45 3.33,1.26 c -0.27,-0.09 -0.63,0 -0.809,0 0,0.99 3.33,2.79 1.44,3.6 C 2.79,5.311 0.45,2.97 0.54,1.891 L 0,0 z"
               inkscape:connector-curvature="0" /></g><g
             transform="translate(338.6777,369.2158)"
             id="g2192"><path
               id="path2194"
               style="fill:#919191;fill-opacity:1;fill-rule:nonzero;stroke:none"
               d="m 0,0 c 1.17,-0.99 1.35,-2.791 2.16,-4.051 0.72,-1.08 1.62,-2.79 2.611,-3.96 0.719,-0.809 1.168,-0.539 1.889,-1.17 0.629,-0.45 0.989,-1.529 1.35,-2.069 1.17,-1.621 1.801,-2.881 2.071,-4.771 -0.27,0.271 -0.721,0.63 -0.991,0.9 0,-1.079 0.809,-2.97 1.08,-4.229 -0.089,0.089 -0.089,0.179 -0.181,0.179 -0.718,-1.259 0.631,-2.7 -0.359,-3.87 -0.72,0.541 -0.99,1.62 -1.71,2.16 -0.18,-0.63 -0.271,-1.169 -0.271,-1.8 -1.079,3.06 -1.799,6.12 -3.239,9.09 0.811,0.631 -1.439,5.22 -2.07,6.03 -1.08,1.26 -0.99,1.441 -1.35,2.97 -0.179,0.99 -0.719,2.07 -1.349,2.79 0.088,0.09 0.179,0 0.269,0.09 C -0.719,-0.54 -1.17,1.08 -1.439,2.34 -1.17,2.16 -0.9,1.89 -0.719,1.619 L 0,0 z"
               inkscape:connector-curvature="0" /></g><g
             transform="translate(307.9883,362.1055)"
             id="g2196"><path
               id="path2198"
               style="fill:#919191;fill-opacity:1;fill-rule:nonzero;stroke:none"
               d="m 0,0 c 0.899,-0.9 1.169,-3.061 1.26,-4.32 0.09,0.09 0.36,0.18 0.45,0.27 0.629,-1.35 0.359,-3.421 1.35,-4.59 0.089,0.18 0.179,0.269 0.359,0.36 1.081,-1.531 0.72,-4.499 1.17,-6.3 0.181,0 0.36,0 0.541,0.091 0.359,-0.811 -0.454,-7.167 0.895,-6.537 0,-0.09 1,-0.003 0.635,-0.213 0.51,1.251 0.672,2.127 1.044,3.067 0.352,0.889 0.666,0.262 0.935,1.433 0.18,0.629 -0.36,1.259 -0.179,1.889 0.09,-0.089 0.179,-0.18 0.359,-0.18 0.54,1.44 -1.798,4.68 -2.25,6.21 C 5.85,-6.931 4.77,-4.771 4.5,-2.79 4.68,-2.971 5.13,-3.061 5.31,-3.239 4.77,-1.89 3.6,-0.63 2.789,0.54 1.889,1.8 1.26,3.42 0.271,4.5 0.179,3.33 0.449,2.52 -0.09,1.44 -0.271,0.99 -1.351,-0.989 -0.721,-1.08 L 0,0 z"
               inkscape:connector-curvature="0" /></g><g
             transform="translate(333.8174,387.8457)"
             id="g2200"><path
               id="path2202"
               style="fill:#919191;fill-opacity:1;fill-rule:nonzero;stroke:none"
               d="M 0,0 C 1.081,-0.72 2.521,-1.261 2.34,-2.7 5.04,-3.78 6.301,-5.04 7.74,-7.561 7.021,-7.2 6.301,-6.84 5.581,-6.301 5.94,-6.48 6.301,-6.84 6.66,-7.2 3.421,-5.761 1.62,-3.061 -0.54,-0.54 L 0,0 z"
               inkscape:connector-curvature="0" /></g><g
             id="g2204"><g
               id="g2206" /><g
               id="g2212"><g
                 id="g2214"
                 clip-path="url(#clipPath2208)"
                 style="opacity:0.39999396"><g
                   id="g2216"
                   transform="translate(310.417,277.415)"><path
                     id="path2218"
                     style="fill:#000000;fill-opacity:1;fill-rule:nonzero;stroke:none"
                     d="m 0,0 c -1.619,3.51 -3.239,6.48 -4.859,9.721 -3.241,6.209 6.236,19.648 4.346,33.329 -0.832,6.018 -4.031,20.874 -4.136,21.227 -1.629,5.49 -3.493,10.92 -5.497,16.283 -1.599,4.273 -3.32,8.512 -5.319,12.615 -1.519,3.117 -3.21,6.444 -5.713,8.902 -3.397,3.215 -8.12,5.16 -12.721,5.774 -2.542,0.339 -7.299,0.078 -6.748,-3.647 0.281,-1.904 3.16,-3.726 4.014,-5.418 1.257,-2.488 2.496,-4.986 3.695,-7.503 1.119,-2.351 2.223,-4.722 3.123,-7.168 1.009,-2.744 0.61,-5.203 -0.205,-7.974 -0.542,-1.844 -1.521,-4.685 -1.772,-6.548 -6.841,-8.44 -3.577,-26.075 -3.577,-36.113 0,-13.5 4.859,-22.68 11.34,-34.29 3.779,-6.48 5.405,-19.98 12.696,-19.98 7.289,0 10.434,-0.27 14.573,-0.539 C 8.101,-19.979 1.891,-4.05 0,0"
                     inkscape:connector-curvature="0" /></g></g></g></g><g
             transform="translate(273.248,391.6309)"
             id="g2220"><path
               id="path2222"
               style="fill:#7a7a7a;fill-opacity:1;fill-rule:nonzero;stroke:none"
               d="m 0,0 c -4.771,-2.61 5.99,-11.525 11.299,-11.255 2.36,0.119 0.851,-2.902 1.93,-4.883 1.35,-2.519 4.771,-2.317 7.291,-3.217 0.809,-0.27 1.62,-0.541 2.34,-0.63 -0.09,0.54 -0.54,1.08 -0.81,1.62 1.889,0 3.779,-0.81 5.76,-0.63 -0.09,0.54 -0.451,0.99 -0.72,1.53 1.349,0.54 2.88,0.18 4.23,0.54 -0.091,0.18 -0.18,0.36 -0.27,0.449 0.809,0 1.71,-0.179 2.429,0 -1.079,1.71 1.71,1.17 2.701,1.351 1.08,0.18 2.07,0.27 2.881,1.079 -0.721,0.45 -1.711,0.631 -2.521,0.811 0.539,0.9 1.8,1.62 2.61,2.07 -0.541,0.45 -1.26,0.54 -1.98,0.72 0.09,0.179 0.09,0.54 0.18,0.719 -0.721,0 -1.53,-0.089 -2.161,0.091 0.181,0.27 0.361,0.72 0.72,0.989 -4.5,1.621 -10.169,2.521 -15.3,2.971 -2.069,0.18 -2.25,0.09 -4.139,1.26 -2.43,1.439 -2.16,4.05 -0.54,5.85 0.54,0.629 1.62,1.259 1.89,1.89 0.72,1.529 -3.51,0.9 -4.68,0.9 C 11.25,4.135 5.579,2.74 3.869,2.2 L 0,0 z"
               inkscape:connector-curvature="0" /></g><g
             transform="translate(289.9316,393.2461)"
             id="g2224"><path
               id="path2226"
               style="fill:#2d2c29;fill-opacity:1;fill-rule:nonzero;stroke:none"
               d="m 0,0 c -1.485,-1.182 -2.228,-2.937 -0.911,-4.557 1.046,-1.282 2.902,-1.923 4.521,-1.62 1.857,0.338 3.679,0.911 5.266,1.924 0.709,0.473 1.519,0.911 1.957,1.688 0.236,0.438 0.271,0.911 0.439,1.383 0.101,0.304 0.641,0.81 0.574,1.114 C 11.711,0.607 9.889,0.844 9.382,1.079 8.504,1.451 7.694,1.822 6.75,2.058 5.063,2.531 3.408,2.227 1.822,1.519 1.654,1.451 1.485,1.35 1.316,1.282 L 0,0 z"
               inkscape:connector-curvature="0" /></g><g
             transform="translate(294.3086,395.3203)"
             id="g2228"><path
               id="path2230"
               style="fill:#9aa1af;fill-opacity:1;fill-rule:nonzero;stroke:none"
               d="M 0,0 C -4.062,0.037 -5.423,-3.96 -1.979,-6.48 -0.355,-7.669 1.98,-7.83 3.6,-6.03 4.86,-4.771 5.154,-1.433 3.24,-0.811 2.459,-0.557 0.821,-0.008 0,0"
               inkscape:connector-curvature="0" /></g><g
             transform="translate(294.3086,395.6201)"
             id="g2232"><path
               id="path2234"
               style="fill:#333333;fill-opacity:1;fill-rule:nonzero;stroke:none"
               d="M 0,0 C -2.2,-0.046 -4.321,-1.276 -4.231,-3.71 -4.14,-6.169 -1.446,-7.965 0.812,-7.976 3.319,-7.988 4.925,-5.64 4.907,-3.342 4.888,-0.804 2.09,-0.138 0,0 -0.387,0.026 -0.384,-0.575 0,-0.6 0.892,-0.659 1.756,-0.951 2.603,-1.219 3.724,-1.573 4.22,-2.167 4.307,-3.342 4.463,-5.434 2.88,-7.212 0.812,-7.376 -1.228,-7.537 -3.387,-5.714 -3.631,-3.71 -3.885,-1.621 -1.739,-0.636 0,-0.6 0.387,-0.592 0.387,0.008 0,0"
               inkscape:connector-curvature="0" /></g><g
             transform="translate(296.5127,391.6934)"
             id="g2236"><path
               id="path2238"
               style="fill:#333333;fill-opacity:1;fill-rule:nonzero;stroke:none"
               d="m 0,0 c 0,-1.007 -0.815,-1.822 -1.823,-1.822 -1.006,0 -1.823,0.815 -1.823,1.822 0,1.006 0.817,1.822 1.823,1.822 C -0.815,1.822 0,1.006 0,0"
               inkscape:connector-curvature="0" /></g><g
             transform="translate(296.5127,391.6934)"
             id="g2240"><path
               id="path2242"
               style="fill:none;stroke:#333333;stroke-width:1;stroke-linecap:butt;stroke-linejoin:miter;stroke-miterlimit:10;stroke-opacity:1;stroke-dasharray:none"
               d="m 0,0 c 0,-1.007 -0.815,-1.822 -1.823,-1.822 -1.006,0 -1.823,0.815 -1.823,1.822 0,1.006 0.817,1.822 1.823,1.822 C -0.815,1.822 0,1.006 0,0 z"
               inkscape:connector-curvature="0" /></g><g
             id="g2244"><g
               id="g2246" /><g
               id="g2252"><g
                 id="g2254"
                 clip-path="url(#clipPath2248)"
                 style="opacity:0.39999396"><g
                   id="g2256"
                   transform="translate(290.791,395.0684)"><path
                     id="path2258"
                     style="fill:#000000;fill-opacity:1;fill-rule:nonzero;stroke:none"
                     d="m 0,0 c 0,0 -2.454,-0.473 -3.469,-1.729 -1.222,-1.513 -1.695,-5.551 -0.728,-6.741 0.592,-0.723 4.338,-1.758 5.601,-1.686 1.33,-0.207 3.104,0.297 4.122,0.656 1.338,0.408 2.291,1.3 3.516,2.006 0.372,0.186 0.483,0.409 0.817,0.706 0.246,0.205 0.448,0.455 0.472,0.632 0.111,0.483 0.757,1.709 0.235,2.044 C 10.167,-4.778 10.332,-5.22 9.561,-5.812 9.149,-6.127 7.928,-7.077 7.445,-7.345 5.586,-8.312 3.469,-9.129 1.314,-9.018 c -1.041,0.15 -1.635,0.15 -2.527,0.818 -1.709,1.338 -2.007,2.379 -1.041,4.236 L 0,0 z"
                     inkscape:connector-curvature="0" /></g></g></g></g><g
             transform="translate(292.9355,394.8652)"
             id="g2260"><path
               id="path2262"
               style="fill:#473a1c;fill-opacity:1;fill-rule:nonzero;stroke:none"
               d="m 0,0 c 1.619,0.271 3.645,-0.067 5.197,-0.675 2.632,-0.944 7.695,-3.307 10.193,-0.877 -0.136,-0.067 -0.337,-0.136 -0.473,-0.203 -1.755,-0.135 -2.97,-0.473 -4.726,0 -1.822,0.473 -3.576,1.215 -5.263,2.026 -3.24,1.552 -6.886,0.405 -9.114,-2.228 l -0.945,-1.08 c -1.281,-1.215 -0.066,-2.835 0.811,-3.915 0.537,-0.657 2.714,-1.842 3.862,-1.777 1.208,-0.188 2.819,0.269 3.743,0.595 1.215,0.372 2.081,1.182 3.194,1.822 0.337,0.169 0.44,0.373 0.743,0.642 0.224,0.187 0.405,0.413 0.427,0.574 0.101,0.439 0.687,1.553 0.214,1.857 C 7.501,-3.845 7.651,-4.246 6.95,-4.783 6.577,-5.069 5.467,-5.933 5.028,-6.176 3.341,-7.054 1.417,-7.796 -0.54,-7.694 c -0.945,0.134 -1.485,0.134 -2.295,0.742 -1.553,1.215 -1.823,2.16 -0.946,3.848 C -2.835,-1.417 -2.16,-0.337 0,0"
               inkscape:connector-curvature="0" /></g><g
             transform="translate(292.9355,394.5654)"
             id="g2264"><path
               id="path2266"
               style="fill:#473a1c;fill-opacity:1;fill-rule:nonzero;stroke:none"
               d="m 0,0 c 4.864,0.358 11.049,-4.837 15.541,-1.511 0.313,0.232 0.053,0.671 -0.303,0.518 -5.61,-2.411 -10.466,4.43 -15.925,2.118 -1.606,-0.68 -6.423,-3.548 -5.107,-6.022 1.771,-3.326 4.753,-4.358 8.355,-3.483 2.059,0.5 6.555,2.696 5.591,5.52 -0.101,0.299 -0.466,0.271 -0.578,0 -0.9,-2.178 -3.312,-3.121 -5.308,-3.853 -5.61,-2.057 -7.364,5.49 -2.186,6.724 0.376,0.089 0.217,0.668 -0.16,0.578 -3.421,-0.815 -5.972,-4.735 -2.967,-7.453 1.805,-1.634 4.942,-0.622 6.848,0.077 1.261,0.462 2.253,1.242 3.301,2.045 1.074,0.823 0.591,1.139 0.463,0.635 -0.55,-2.164 -4.278,-3.479 -6.125,-3.928 -3.017,-0.733 -8.832,2.26 -5.659,5.886 4.521,5.165 9.133,1.947 14.33,0.405 1.568,-0.465 3.221,-0.17 4.806,-0.011 C 13.893,-1.857 11.454,-1.998 9.903,-1.669 6.43,-0.935 3.677,0.871 0,0.6 -0.384,0.571 -0.387,-0.029 0,0"
               inkscape:connector-curvature="0" /></g><g
             transform="translate(280,394.6631)"
             id="g2268"><path
               id="path2270"
               style="fill:#919191;fill-opacity:1;fill-rule:nonzero;stroke:none"
               d="m 0,0 c 0,0.067 1.372,0.878 2.114,1.282 1.148,0.54 1.226,0.271 2.374,0.202 0.877,-0.066 1.76,0.541 2.704,0.676 1.081,0.135 1.86,-0.27 2.94,-0.405 0.877,-0.135 2.009,-0.202 2.886,-0.067 0.405,0.067 0.938,0.472 1.41,0.472 0.607,0 0.537,-0.338 1.143,-0.676 0.81,-0.471 2.023,-0.471 2.969,-0.337 0.404,0.068 1.012,0.271 1.484,0.271 0.607,-0.068 0.539,-0.203 1.08,-0.54 1.687,-1.148 3.644,-1.351 5.669,-1.485 0.877,-0.068 1.754,-0.135 2.7,-0.203 0.203,0 0.607,0 0.878,-0.068 0.472,-0.202 0.269,-0.404 0.674,-0.675 2.701,-1.687 6.278,-0.135 9.113,-0.404 0.135,0 0.269,0.066 0.338,0.066 0,-0.066 -0.069,-0.134 -0.069,-0.202 1.486,-0.54 3.241,-0.135 4.793,-0.135 -1.349,-0.809 -3.78,-1.687 -5.399,-1.62 -0.878,0 -1.756,0.473 -2.634,0.811 -1.079,0.404 -1.619,0.202 -2.7,0 -1.688,-0.271 -3.644,0.135 -5.196,0.54 -0.946,0.202 -1.823,0.675 -2.701,0.877 -1.147,0.338 -1.756,-0.405 -2.835,-0.337 -0.743,0.066 -2.092,0.039 -2.903,0.309 -0.877,0.27 -1.484,0.973 -2.43,1.108 -0.877,0.135 -1.822,0.607 -2.7,0.675 -1.013,0.067 -1.957,0 -3.037,0.136 C 9.763,0.675 6.117,1.35 3.215,0.473 2.136,0.202 2,-0.473 1.258,-1.215 0.717,-1.822 -0.093,-2.295 -0.633,-2.97 c 0.069,0.405 0.135,0.945 0,1.35 -0.269,0 -0.357,0 -0.695,-0.135 C -1.261,-1.215 -1,-0.607 0,-0.338 L 0,0 z"
               inkscape:connector-curvature="0" /></g><g
             transform="translate(284.0186,380.6875)"
             id="g2272"><path
               id="path2274"
               style="fill:#d8b72e;fill-opacity:1;fill-rule:nonzero;stroke:none"
               d="m 0,0 c -0.611,0.021 -3.181,0.142 -4.289,0.593 -1.317,0.534 -3.062,8.591 -4.681,9.63 -0.775,0.498 -2.596,1.186 -3.534,1.165 -2.919,-0.067 -8.526,-0.613 -10.866,-2.005 -10.27,-6.112 -12.869,-10.648 -7.491,-29.997 0.597,4.778 -0.797,11.15 4.38,14.337 0.92,0.552 3.689,0.296 7.183,0.792 0.314,0.045 0.631,0.089 0.956,0.132 7.788,1.046 18.484,2.618 20.891,2.521 -2.578,-1.011 -8.857,-0.932 -16.299,-1.508 -0.512,-0.039 -5.418,-1.148 -5.896,-1.192 -2.533,-0.231 -4.53,0.258 -5.441,-0.148 -2.191,-0.995 -6.569,-6.772 -3.785,-5.377 2.79,1.398 4.967,2.265 7.368,2.589 8.366,1.129 18.848,-1.62 25.153,3.855 C 5.437,-3.062 6.869,-0.222 0,0"
               inkscape:connector-curvature="0" /></g><g
             transform="translate(284.0186,380.9873)"
             id="g2276"><path
               id="path2278"
               style="fill:#d6a630;fill-opacity:1;fill-rule:nonzero;stroke:none"
               d="m 0,0 c -5.013,0.246 -5.25,2.384 -6.788,6.517 -0.704,1.89 -1.261,3.279 -3.083,4.193 -4.765,2.391 -12.192,-0.341 -16.261,-3.008 -10.529,-6.901 -7.906,-18.066 -5.018,-28.696 0.093,-0.345 0.558,-0.244 0.588,0.08 0.37,3.911 -0.104,7.898 1.701,11.529 1.991,4.005 9.505,3.292 13.45,3.83 4.266,0.583 8.531,1.183 12.806,1.699 1.324,0.16 2.649,0.293 3.978,0.392 1.757,0.133 -2.894,-0.111 -3.791,-0.19 -3.769,-0.331 -7.677,-0.101 -11.412,-0.697 -3.136,-0.499 -5.92,-1.304 -9.145,-1.189 -2.775,0.1 -7.106,-2.845 -7.061,-5.939 0.002,-0.137 0.091,-0.247 0.22,-0.289 0.849,-0.277 2.08,0.626 2.703,0.927 3.658,1.764 7.446,2.048 11.43,2.084 5.143,0.047 11.176,-0.78 16.012,1.477 C 6.056,-4.607 7.229,-0.503 0,0 -0.387,0.027 -0.384,-0.573 0,-0.6 1.674,-0.716 6.177,-1.63 3.872,-4.288 2.618,-5.734 0.54,-6.574 -1.184,-7.188 c -3.571,-1.271 -7.748,-1.033 -11.482,-0.995 -2.961,0.03 -5.891,0.037 -8.838,-0.285 -1.047,-0.114 -1.899,-0.381 -2.907,-0.659 -0.343,-0.095 -4.759,-1.488 -4.438,-0.961 2.854,4.673 9.21,3.942 14.109,4.962 5.668,1.181 11.8,-0.081 17.369,1.705 0.318,0.102 0.267,0.589 -0.08,0.589 -4.042,0.002 -8.134,-0.786 -12.13,-1.323 -5.444,-0.734 -10.945,-1.154 -16.371,-1.916 -3.177,-0.448 -4.441,-5.103 -4.802,-7.599 -0.292,-2.01 -0.199,-4.09 -0.301,-6.115 0.128,2.541 -1.196,5.598 -1.661,8.135 -1.829,9.968 2.203,18.879 12.634,21.567 2.924,0.754 9.504,2.081 11.607,-1.07 C -7.243,7.001 -6.7,4.486 -5.899,2.419 -4.753,-0.54 -3.039,-0.451 0,-0.6 0.387,-0.619 0.385,-0.019 0,0"
               inkscape:connector-curvature="0" /></g><g
             transform="translate(274.2715,387.6367)"
             id="g2280"><path
               id="path2282"
               style="fill:#2d230c;fill-opacity:1;fill-rule:nonzero;stroke:none"
               d="m 0,0 c -1.562,1.249 -4.998,2.916 -2.915,-0.417 0.833,-1.354 5.519,-3.748 3.852,-0.729 L 0,0 z"
               inkscape:connector-curvature="0" /></g></g></g><g
         id="g2284"><g
           clip-path="url(#clipPath2288)"
           id="g2286"><g
             transform="translate(383,361.1172)"
             id="g2292"><path
               id="path2294"
               style="fill:none;stroke:#ffffff;stroke-width:5;stroke-linecap:butt;stroke-linejoin:miter;stroke-miterlimit:10;stroke-opacity:1;stroke-dasharray:none"
               d="m 0,0 c 0,-42.802 -34.698,-77.5 -77.5,-77.5 -42.802,0 -77.5,34.698 -77.5,77.5 0,42.802 34.698,77.5 77.5,77.5 C -34.698,77.5 0,42.802 0,0 z"
               inkscape:connector-curvature="0" /></g></g></g></g></g></svg>