<?xml version="1.0" encoding="UTF-8" standalone="no"?>
<!-- Created with Inkscape (http://www.inkscape.org/) -->

<svg
   xmlns:dc="http://purl.org/dc/elements/1.1/"
   xmlns:cc="http://creativecommons.org/ns#"
   xmlns:rdf="http://www.w3.org/1999/02/22-rdf-syntax-ns#"
   xmlns:svg="http://www.w3.org/2000/svg"
   xmlns="http://www.w3.org/2000/svg"
   xmlns:sodipodi="http://sodipodi.sourceforge.net/DTD/sodipodi-0.dtd"
   xmlns:inkscape="http://www.inkscape.org/namespaces/inkscape"
   id="svg2"
   version="1.1"
   inkscape:version="0.48.2 r9819"
   width="200"
   height="280"
   xml:space="preserve"
   sodipodi:docname="screen__wald_cs5.svg"><metadata
     id="metadata8"><rdf:RDF><cc:Work
         rdf:about=""><dc:format>image/svg+xml</dc:format><dc:type
           rdf:resource="http://purl.org/dc/dcmitype/StillImage" /><dc:title></dc:title></cc:Work></rdf:RDF></metadata><defs
     id="defs6"><clipPath
       clipPathUnits="userSpaceOnUse"
       id="clipPath18"><path
         d="m 0,1536 2048,0 L 2048,0 0,0 0,1536 z"
         id="path20"
         inkscape:connector-curvature="0" /></clipPath><clipPath
       clipPathUnits="userSpaceOnUse"
       id="clipPath1344"><path
         d="m 0,1536 2048,0 L 2048,0 0,0 0,1536 z"
         id="path1346"
         inkscape:connector-curvature="0" /></clipPath><clipPath
       clipPathUnits="userSpaceOnUse"
       id="clipPath1368"><path
         d="m 0,1536 2048,0 L 2048,0 0,0 0,1536 z"
         id="path1370"
         inkscape:connector-curvature="0" /></clipPath><clipPath
       clipPathUnits="userSpaceOnUse"
       id="clipPath1424"><path
         d="m 0,1536 2048,0 L 2048,0 0,0 0,1536 z"
         id="path1426"
         inkscape:connector-curvature="0" /></clipPath><clipPath
       clipPathUnits="userSpaceOnUse"
       id="clipPath3004"><path
         d="m 0,1536 2048,0 L 2048,0 0,0 0,1536 z"
         id="path3006"
         inkscape:connector-curvature="0" /></clipPath><clipPath
       clipPathUnits="userSpaceOnUse"
       id="clipPath3064"><path
         d="m 611.262,1266.5 30.647,0 0,-34.39 -30.647,0 0,34.39 z"
         id="path3066"
         inkscape:connector-curvature="0" /></clipPath><clipPath
       clipPathUnits="userSpaceOnUse"
       id="clipPath3096"><path
         d="m 767.558,1245.81 30.647,0 0,-34.39 -30.647,0 0,34.39 z"
         id="path3098"
         inkscape:connector-curvature="0" /></clipPath><clipPath
       clipPathUnits="userSpaceOnUse"
       id="clipPath3128"><path
         d="m 1107.38,1247.01 30.65,0 0,-34.39 -30.65,0 0,34.39 z"
         id="path3130"
         inkscape:connector-curvature="0" /></clipPath><clipPath
       clipPathUnits="userSpaceOnUse"
       id="clipPath3160"><path
         d="m 919.184,1250.86 30.647,0 0,-34.39 -30.647,0 0,34.39 z"
         id="path3162"
         inkscape:connector-curvature="0" /></clipPath><clipPath
       clipPathUnits="userSpaceOnUse"
       id="clipPath3192"><path
         d="m 1277.88,1248.99 25.91,0 0,-36.93 -25.91,0 0,36.93 z"
         id="path3194"
         inkscape:connector-curvature="0" /></clipPath><clipPath
       clipPathUnits="userSpaceOnUse"
       id="clipPath3224"><path
         d="m 1439.02,1258.03 25.91,0 0,-36.93 -25.91,0 0,36.93 z"
         id="path3226"
         inkscape:connector-curvature="0" /></clipPath><clipPath
       clipPathUnits="userSpaceOnUse"
       id="clipPath3388"><path
         d="m 0,1536 2048,0 L 2048,0 0,0 0,1536 z"
         id="path3390"
         inkscape:connector-curvature="0" /></clipPath><clipPath
       clipPathUnits="userSpaceOnUse"
       id="clipPath3424"><path
         d="m 1761.68,1506.2 30.64,0 0,-34.4 -30.64,0 0,34.4 z"
         id="path3426"
         inkscape:connector-curvature="0" /></clipPath><clipPath
       clipPathUnits="userSpaceOnUse"
       id="clipPath3444"><path
         d="m 1815.85,1526.96 30.65,0 0,-34.4 -30.65,0 0,34.4 z"
         id="path3446"
         inkscape:connector-curvature="0" /></clipPath><clipPath
       clipPathUnits="userSpaceOnUse"
       id="clipPath3464"><path
         d="m 1867.85,1550.5 30.65,0 0,-34.39 -30.65,0 0,34.39 z"
         id="path3466"
         inkscape:connector-curvature="0" /></clipPath><clipPath
       clipPathUnits="userSpaceOnUse"
       id="clipPath3484"><path
         d="m 1912.11,1476.5 30.65,0 0,-34.39 -30.65,0 0,34.39 z"
         id="path3486"
         inkscape:connector-curvature="0" /></clipPath><clipPath
       clipPathUnits="userSpaceOnUse"
       id="clipPath3504"><path
         d="m 1864.17,1450.46 30.65,0 0,-34.4 -30.65,0 0,34.4 z"
         id="path3506"
         inkscape:connector-curvature="0" /></clipPath><clipPath
       clipPathUnits="userSpaceOnUse"
       id="clipPath3524"><path
         d="m 1815.85,1427.5 30.65,0 0,-34.39 -30.65,0 0,34.39 z"
         id="path3526"
         inkscape:connector-curvature="0" /></clipPath><clipPath
       clipPathUnits="userSpaceOnUse"
       id="clipPath3544"><path
         d="m 1768.76,1411.38 30.65,0 0,-34.4 -30.65,0 0,34.4 z"
         id="path3546"
         inkscape:connector-curvature="0" /></clipPath><clipPath
       clipPathUnits="userSpaceOnUse"
       id="clipPath3564"><path
         d="m 1746.35,1363 30.65,0 0,-34.39 -30.65,0 0,34.39 z"
         id="path3566"
         inkscape:connector-curvature="0" /></clipPath><clipPath
       clipPathUnits="userSpaceOnUse"
       id="clipPath3584"><path
         d="m 1797.17,1339.78 30.65,0 0,-34.39 -30.65,0 0,34.39 z"
         id="path3586"
         inkscape:connector-curvature="0" /></clipPath><clipPath
       clipPathUnits="userSpaceOnUse"
       id="clipPath3604"><path
         d="m 1855.65,1330.5 30.65,0 0,-34.39 -30.65,0 0,34.39 z"
         id="path3606"
         inkscape:connector-curvature="0" /></clipPath><clipPath
       clipPathUnits="userSpaceOnUse"
       id="clipPath3624"><path
         d="m 1912.11,1323.5 30.65,0 0,-34.39 -30.65,0 0,34.39 z"
         id="path3626"
         inkscape:connector-curvature="0" /></clipPath><clipPath
       clipPathUnits="userSpaceOnUse"
       id="clipPath3644"><path
         d="m 1962.35,1323.5 30.65,0 0,-34.39 -30.65,0 0,34.39 z"
         id="path3646"
         inkscape:connector-curvature="0" /></clipPath><clipPath
       clipPathUnits="userSpaceOnUse"
       id="clipPath3664"><path
         d="m 1971.35,1266.5 30.65,0 0,-34.39 -30.65,0 0,34.39 z"
         id="path3666"
         inkscape:connector-curvature="0" /></clipPath><clipPath
       clipPathUnits="userSpaceOnUse"
       id="clipPath3684"><path
         d="m 1927.75,1235 30.65,0 0,-34.39 -30.65,0 0,34.39 z"
         id="path3686"
         inkscape:connector-curvature="0" /></clipPath><clipPath
       clipPathUnits="userSpaceOnUse"
       id="clipPath3704"><path
         d="m 1874.29,1206.5 30.64,0 0,-34.39 -30.64,0 0,34.39 z"
         id="path3706"
         inkscape:connector-curvature="0" /></clipPath><clipPath
       clipPathUnits="userSpaceOnUse"
       id="clipPath3724"><path
         d="m 1822.02,1177 30.64,0 0,-34.39 -30.64,0 0,34.39 z"
         id="path3726"
         inkscape:connector-curvature="0" /></clipPath><clipPath
       clipPathUnits="userSpaceOnUse"
       id="clipPath3744"><path
         d="m 1822.02,1008.75 30.64,0 0,-34.393 -30.64,0 0,34.393 z"
         id="path3746"
         inkscape:connector-curvature="0" /></clipPath><clipPath
       clipPathUnits="userSpaceOnUse"
       id="clipPath3764"><path
         d="m 1868.85,1043 30.65,0 0,-34.39 -30.65,0 0,34.39 z"
         id="path3766"
         inkscape:connector-curvature="0" /></clipPath><clipPath
       clipPathUnits="userSpaceOnUse"
       id="clipPath3784"><path
         d="m 1916.35,1076.89 30.65,0 0,-34.39 -30.65,0 0,34.39 z"
         id="path3786"
         inkscape:connector-curvature="0" /></clipPath><clipPath
       clipPathUnits="userSpaceOnUse"
       id="clipPath3804"><path
         d="m 1962.35,1110 30.65,0 0,-34.39 -30.65,0 0,34.39 z"
         id="path3806"
         inkscape:connector-curvature="0" /></clipPath><clipPath
       clipPathUnits="userSpaceOnUse"
       id="clipPath3824"><path
         d="m 2000.35,1142 30.65,0 0,-34.39 -30.65,0 0,34.39 z"
         id="path3826"
         inkscape:connector-curvature="0" /></clipPath><clipPath
       clipPathUnits="userSpaceOnUse"
       id="clipPath3844"><path
         d="m 1981.35,942.5 30.65,0 0,-34.395 -30.65,0 0,34.395 z"
         id="path3846"
         inkscape:connector-curvature="0" /></clipPath><clipPath
       clipPathUnits="userSpaceOnUse"
       id="clipPath3864"><path
         d="m 1932.85,920.5 30.65,0 0,-34.395 -30.65,0 0,34.395 z"
         id="path3866"
         inkscape:connector-curvature="0" /></clipPath><clipPath
       clipPathUnits="userSpaceOnUse"
       id="clipPath3884"><path
         d="m 1887.85,901.5 30.65,0 0,-34.395 -30.65,0 0,34.395 z"
         id="path3886"
         inkscape:connector-curvature="0" /></clipPath><clipPath
       clipPathUnits="userSpaceOnUse"
       id="clipPath3904"><path
         d="m 1836.85,882 30.65,0 0,-34.395 -30.65,0 0,34.395 z"
         id="path3906"
         inkscape:connector-curvature="0" /></clipPath><clipPath
       clipPathUnits="userSpaceOnUse"
       id="clipPath3944"><path
         d="m 186.853,1503.5 30.647,0 0,-34.39 -30.647,0 0,34.39 z"
         id="path3946"
         inkscape:connector-curvature="0" /></clipPath><clipPath
       clipPathUnits="userSpaceOnUse"
       id="clipPath3964"><path
         d="m 122.353,1531 30.647,0 0,-34.39 -30.647,0 0,34.39 z"
         id="path3966"
         inkscape:connector-curvature="0" /></clipPath><clipPath
       clipPathUnits="userSpaceOnUse"
       id="clipPath3984"><path
         d="m 63.3525,1546.39 30.6475,0 0,-34.39 -30.6475,0 0,34.39 z"
         id="path3986"
         inkscape:connector-curvature="0" /></clipPath><clipPath
       clipPathUnits="userSpaceOnUse"
       id="clipPath4004"><path
         d="m 195.349,1385.5 30.647,0 0,-34.39 -30.647,0 0,34.39 z"
         id="path4006"
         inkscape:connector-curvature="0" /></clipPath><clipPath
       clipPathUnits="userSpaceOnUse"
       id="clipPath4024"><path
         d="m 147.6,1359.5 30.647,0 0,-34.39 -30.647,0 0,34.39 z"
         id="path4026"
         inkscape:connector-curvature="0" /></clipPath><clipPath
       clipPathUnits="userSpaceOnUse"
       id="clipPath4044"><path
         d="m 79.3525,1332.47 30.6475,0 0,-34.39 -30.6475,0 0,34.39 z"
         id="path4046"
         inkscape:connector-curvature="0" /></clipPath><clipPath
       clipPathUnits="userSpaceOnUse"
       id="clipPath4064"><path
         d="m 84.8525,1207.3 30.6475,0 0,-34.39 -30.6475,0 0,34.39 z"
         id="path4066"
         inkscape:connector-curvature="0" /></clipPath><clipPath
       clipPathUnits="userSpaceOnUse"
       id="clipPath4084"><path
         d="m 147.6,1193.5 30.647,0 0,-34.39 -30.647,0 0,34.39 z"
         id="path4086"
         inkscape:connector-curvature="0" /></clipPath><clipPath
       clipPathUnits="userSpaceOnUse"
       id="clipPath4104"><path
         d="m 219.493,1184.98 30.647,0 0,-34.39 -30.647,0 0,34.39 z"
         id="path4106"
         inkscape:connector-curvature="0" /></clipPath><clipPath
       clipPathUnits="userSpaceOnUse"
       id="clipPath4124"><path
         d="m 223.353,1039.5 30.647,0 0,-34.39 -30.647,0 0,34.39 z"
         id="path4126"
         inkscape:connector-curvature="0" /></clipPath><clipPath
       clipPathUnits="userSpaceOnUse"
       id="clipPath4144"><path
         d="m 164.125,1058.5 30.647,0 0,-34.39 -30.647,0 0,34.39 z"
         id="path4146"
         inkscape:connector-curvature="0" /></clipPath><clipPath
       clipPathUnits="userSpaceOnUse"
       id="clipPath4164"><path
         d="m 103.853,1075.7 30.647,0 0,-34.4 -30.647,0 0,34.4 z"
         id="path4166"
         inkscape:connector-curvature="0" /></clipPath><clipPath
       clipPathUnits="userSpaceOnUse"
       id="clipPath4184"><path
         d="m 52.8213,1104.77 30.6475,0 0,-34.4 -30.6475,0 0,34.4 z"
         id="path4186"
         inkscape:connector-curvature="0" /></clipPath><clipPath
       clipPathUnits="userSpaceOnUse"
       id="clipPath4204"><path
         d="m 67.7275,979.697 30.6475,0 0,-34.394 -30.6475,0 0,34.394 z"
         id="path4206"
         inkscape:connector-curvature="0" /></clipPath><clipPath
       clipPathUnits="userSpaceOnUse"
       id="clipPath4224"><path
         d="m 122.853,951.5 30.647,0 0,-34.395 -30.647,0 0,34.395 z"
         id="path4226"
         inkscape:connector-curvature="0" /></clipPath><clipPath
       clipPathUnits="userSpaceOnUse"
       id="clipPath4244"><path
         d="m 188.853,941.5 30.647,0 0,-34.395 -30.647,0 0,34.395 z"
         id="path4246"
         inkscape:connector-curvature="0" /></clipPath><clipPath
       clipPathUnits="userSpaceOnUse"
       id="clipPath4264"><path
         d="m 249.853,941.5 30.647,0 0,-34.395 -30.647,0 0,34.395 z"
         id="path4266"
         inkscape:connector-curvature="0" /></clipPath><clipPath
       clipPathUnits="userSpaceOnUse"
       id="clipPath4280"><path
         d="m 0,1536 2048,0 L 2048,0 0,0 0,1536 z"
         id="path4282"
         inkscape:connector-curvature="0" /></clipPath><clipPath
       clipPathUnits="userSpaceOnUse"
       id="clipPath4296"><path
         d="m 1559.35,1313.59 110.5,0 0,-122.02 -110.5,0 0,122.02 z"
         id="path4298"
         inkscape:connector-curvature="0" /></clipPath><clipPath
       clipPathUnits="userSpaceOnUse"
       id="clipPath4312"><path
         d="m 1610.37,1351.76 49.6,0 0,-62.56 -49.6,0 0,62.56 z"
         id="path4314"
         inkscape:connector-curvature="0" /></clipPath><clipPath
       clipPathUnits="userSpaceOnUse"
       id="clipPath4336"><path
         d="m 362.812,1344.69 111.164,0 0,-119.41 -111.164,0 0,119.41 z"
         id="path4338"
         inkscape:connector-curvature="0" /></clipPath><clipPath
       clipPathUnits="userSpaceOnUse"
       id="clipPath4352"><path
         d="m 414.101,1391.91 42.049,0 0,-69.16 -42.049,0 0,69.16 z"
         id="path4354"
         inkscape:connector-curvature="0" /></clipPath><clipPath
       clipPathUnits="userSpaceOnUse"
       id="clipPath4368"><path
         d="m 0,1536 2048,0 L 2048,0 0,0 0,1536 z"
         id="path4370"
         inkscape:connector-curvature="0" /></clipPath><clipPath
       clipPathUnits="userSpaceOnUse"
       id="clipPath4408"><path
         d="m 925.334,1463.92 313.186,0 0,-311.53 -313.186,0 0,311.53 z"
         id="path4410"
         inkscape:connector-curvature="0" /></clipPath><clipPath
       clipPathUnits="userSpaceOnUse"
       id="clipPath4428"><path
         d="m 0,1536 2048,0 L 2048,0 0,0 0,1536 z"
         id="path4430"
         inkscape:connector-curvature="0" /></clipPath><clipPath
       clipPathUnits="userSpaceOnUse"
       id="clipPath8244"><path
         d="m 0,1536 2048,0 L 2048,0 0,0 0,1536 z"
         id="path8246"
         inkscape:connector-curvature="0" /></clipPath><clipPath
       clipPathUnits="userSpaceOnUse"
       id="clipPath8670"><path
         d="m 0,1536 2048,0 L 2048,0 0,0 0,1536 z"
         id="path8672"
         inkscape:connector-curvature="0" /></clipPath><clipPath
       clipPathUnits="userSpaceOnUse"
       id="clipPath8678"><path
         d="m 60.0376,1304.57 119.0554,0 0,-209.78 -119.0554,0 0,209.78 z"
         id="path8680"
         inkscape:connector-curvature="0" /></clipPath><clipPath
       clipPathUnits="userSpaceOnUse"
       id="clipPath8706"><path
         d="m 61.8003,1265.87 38.0488,0 0,-103.11 -38.0488,0 0,103.11 z"
         id="path8708"
         inkscape:connector-curvature="0" /></clipPath><clipPath
       clipPathUnits="userSpaceOnUse"
       id="clipPath8794"><path
         d="m 118.674,1228.21 30.767,0 0,-72.51 -30.767,0 0,72.51 z"
         id="path8796"
         inkscape:connector-curvature="0" /></clipPath><clipPath
       clipPathUnits="userSpaceOnUse"
       id="clipPath8832"><path
         d="m 37.548,1346.68 151.654,0 0,151.653 -151.654,0 0,-151.653 z"
         id="path8834"
         inkscape:connector-curvature="0" /></clipPath><clipPath
       clipPathUnits="userSpaceOnUse"
       id="clipPath8888"><path
         d="m 0,1536 2048,0 L 2048,0 0,0 0,1536 z"
         id="path8890"
         inkscape:connector-curvature="0" /></clipPath><clipPath
       clipPathUnits="userSpaceOnUse"
       id="clipPath8896"><path
         d="m 48.686,1488.27 141.732,0 0,-140.89 -141.732,0 0,140.89 z"
         id="path8898"
         inkscape:connector-curvature="0" /></clipPath></defs><sodipodi:namedview
     pagecolor="#ffffff"
     bordercolor="#666666"
     borderopacity="1"
     objecttolerance="10"
     gridtolerance="10"
     guidetolerance="10"
     inkscape:pageopacity="0"
     inkscape:pageshadow="2"
     inkscape:window-width="1600"
     inkscape:window-height="837"
     id="namedview4"
     showgrid="false"
     inkscape:zoom="2.16"
     inkscape:cx="88.657407"
     inkscape:cy="150"
     inkscape:window-x="-8"
     inkscape:window-y="-8"
     inkscape:window-maximized="1"
     inkscape:current-layer="g10" /><g
     id="g10"
     inkscape:groupmode="layer"
     inkscape:label="screen__wald_cs5"
     transform="matrix(1.25,0,0,-1.25,0,280)"><g
       id="g8450"
       transform="translate(-33.386,-1094.815)"><path
         id="path8616"
         style="fill:#acdef9;fill-opacity:1;fill-rule:nonzero;stroke:#ffffff;stroke-width:5;stroke-linecap:butt;stroke-linejoin:miter;stroke-miterlimit:10;stroke-opacity:1;stroke-dasharray:none"
         d="m 191.339,1160.409 -155.906,0 0,155.906 155.906,0 0,-155.906 z"
         inkscape:connector-curvature="0" /><g
         transform="translate(113.5789,1314.333)"
         id="g8618"><path
           id="path8620"
           style="fill:#ffff00;fill-opacity:1;fill-rule:nonzero;stroke:none"
           d="M 0,0 0.004,-76.227 16.922,0 0,0 z"
           inkscape:connector-curvature="0" /></g><g
         transform="translate(69.7511,1314.333)"
         id="g8622"><path
           id="path8624"
           style="fill:#ffff00;fill-opacity:1;fill-rule:nonzero;stroke:none"
           d="M 0,0 43.832,-76.227 19.992,0 0,0 z"
           inkscape:connector-curvature="0" /></g><g
         transform="translate(37.548,1282.183)"
         id="g8626"><path
           id="path8628"
           style="fill:#ffff00;fill-opacity:1;fill-rule:nonzero;stroke:none"
           d="M 0,0 76.035,-44.077 0,26.047 0,0 z"
           inkscape:connector-curvature="0" /></g><g
         transform="translate(37.548,1238.1013)"
         id="g8630"><path
           id="path8632"
           style="fill:#ffff00;fill-opacity:1;fill-rule:nonzero;stroke:none"
           d="M 0,0 76.035,0.004 0,17.022 0,0 z"
           inkscape:connector-curvature="0" /></g><g
         transform="translate(37.548,1214.1261)"
         id="g8634"><path
           id="path8636"
           style="fill:#ffff00;fill-opacity:1;fill-rule:nonzero;stroke:none"
           d="M 0,0 0,-20.109 76.035,23.98 0,0 z"
           inkscape:connector-curvature="0" /></g><g
         transform="translate(44.6003,1162.6793)"
         id="g8638"><path
           id="path8640"
           style="fill:#ffff00;fill-opacity:1;fill-rule:nonzero;stroke:none"
           d="M 0,0 25.623,0 68.982,75.426 0,0 z"
           inkscape:connector-curvature="0" /></g><g
         transform="translate(96.8429,1162.6793)"
         id="g8642"><path
           id="path8644"
           style="fill:#ffff00;fill-opacity:1;fill-rule:nonzero;stroke:none"
           d="M 0,0 16.744,0 16.74,75.426 0,0 z"
           inkscape:connector-curvature="0" /></g><g
         transform="translate(137.1728,1162.6793)"
         id="g8646"><path
           id="path8648"
           style="fill:#ffff00;fill-opacity:1;fill-rule:nonzero;stroke:none"
           d="M 0,0 19.782,0 -23.59,75.426 0,0 z"
           inkscape:connector-curvature="0" /></g><g
         transform="translate(189.2016,1168.3671)"
         id="g8650"><path
           id="path8652"
           style="fill:#ffff00;fill-opacity:1;fill-rule:nonzero;stroke:none"
           d="M 0,0 0,25.903 -75.619,69.739 0,0 z"
           inkscape:connector-curvature="0" /></g><g
         transform="translate(113.5827,1238.1057)"
         id="g8654"><path
           id="path8656"
           style="fill:#ffff00;fill-opacity:1;fill-rule:nonzero;stroke:none"
           d="m 0,0 75.619,-16.924 0,16.928 L 0,0 z"
           inkscape:connector-curvature="0" /></g><g
         transform="translate(113.5827,1238.1057)"
         id="g8658"><path
           id="path8660"
           style="fill:#ffff00;fill-opacity:1;fill-rule:nonzero;stroke:none"
           d="m 0,0 75.619,23.849 0,19.999 L 0,0 z"
           inkscape:connector-curvature="0" /></g><g
         transform="translate(157.4032,1314.333)"
         id="g8662"><path
           id="path8664"
           style="fill:#ffff00;fill-opacity:1;fill-rule:nonzero;stroke:none"
           d="M 0,0 -43.821,-76.227 25.895,0 0,0 z"
           inkscape:connector-curvature="0" /></g><g
         id="g8674"><g
           id="g8676" /><g
           id="g8682"><g
             style="opacity:0.60000598"
             id="g8684"
             clip-path="url(#clipPath8678)"><g
               id="g8686"
               transform="translate(177.7783,1180.998)"><path
                 inkscape:connector-curvature="0"
                 id="path8688"
                 style="fill:#1b0000;fill-opacity:1;fill-rule:nonzero;stroke:none"
                 d="m 0,0 c -2.354,9.332 -7.515,24.831 -12.775,33.195 -2.614,4.295 -5.486,8.396 -9.973,10.884 -1.637,1.034 -2.665,1.574 -3.356,1.722 -1.526,0.613 -3.042,0.983 -4.48,1.085 -1.238,4.046 -2.187,8.095 -2.802,11.598 0.072,-0.076 0.138,-0.159 0.215,-0.228 0.495,1.312 -0.666,2.863 -0.946,4.133 0.43,-0.216 1.033,-0.302 1.464,-0.517 0.861,1.721 -0.753,4.413 -1.247,6.328 1.571,0.236 3.294,0.451 4.929,0.064 -0.365,0.667 -1.205,1.248 -1.743,1.786 0.625,0.065 1.55,0.086 2.282,-0.173 -0.883,0.281 -1.743,0.711 -2.281,1.249 1.011,0.624 2.26,0.753 3.508,0.882 -1.226,1.098 -5.617,0.497 -2.925,3.187 -0.646,-0.216 -1.551,-0.086 -2.326,-0.129 -0.365,1.744 -1.399,-0.107 -2.065,0.603 -0.495,0.84 -0.021,2.002 0.108,2.906 -3.208,0.152 -2.28,4.478 -1.677,6.544 -1.098,-0.15 -2.196,-1.377 -3.23,-2.151 0.023,1.226 1.077,2.152 1.81,2.97 -0.754,0.107 -1.873,-0.194 -2.626,-0.086 0.259,2.884 4.047,3.572 5.426,5.681 -2.626,0.991 -3.746,-0.386 -5.899,-1.462 0.388,0.559 0.517,1.464 0.905,2.023 -1.141,-0.451 -2.325,-1.205 -3.638,-1.785 -1.076,2.153 -2.561,0.367 -3.595,-0.408 -0.451,1.141 -1.226,2.175 -2.41,2.498 -0.009,-0.069 -0.04,-0.146 -0.076,-0.224 -0.013,-0.028 -0.028,-0.057 -0.043,-0.086 -0.125,-0.238 -0.304,-0.495 -0.333,-0.702 -0.43,0.106 -0.839,0.251 -1.239,0.408 -0.135,1.815 -0.626,3.273 -1.688,3.854 -0.993,0.469 -2.694,-0.153 -4.618,-1.162 -0.926,0.71 -1.907,1.365 -3.13,1.811 -0.027,-1.084 0.876,-1.82 1.901,-2.484 -0.888,-0.509 -1.799,-1.063 -2.696,-1.61 -0.897,0.231 -1.767,0.297 -2.564,-0.038 0.376,-0.336 0.8,-0.575 1.232,-0.77 -0.112,-0.067 -0.227,-0.137 -0.337,-0.203 -0.96,0.202 -2,0.433 -3.049,0.616 2.91,5.306 6.932,9.27 6.71,16.079 -0.32,9.041 -10.33,3.555 -14.335,-0.253 1.099,4.455 4.233,11.847 -2.547,11.204 -4.682,-0.483 -7.815,-3.033 -11.011,-6.034 -1.453,4.359 -1.578,14.755 -9.07,9.14 -2.325,-1.743 -4.07,-4.261 -5.362,-6.843 -1.228,-2.131 -1.746,-5.747 -3.554,-7.102 -3.291,6.006 -9.748,7.623 -11.946,0.326 -0.998,-3.415 -0.339,-7.988 0.231,-12.414 -1.174,-7.521 -1.129,-15.544 -0.048,-21.745 0.253,-1.554 0.521,-3.105 0.799,-4.654 1.084,-10.41 4.567,-21.137 7.94,-30.961 3.58,-10.429 16.286,-23.165 22.386,-32.111 0.983,-1.393 1.812,-2.767 2.56,-4.122 -1.082,-5.653 -1.607,-12.461 -0.237,-20.554 l 4.333,1.165 c 0.07,-0.482 0.14,-0.966 0.224,-1.458 l 0.225,0.008 c 10e-4,-0.007 10e-4,-0.015 0.003,-0.022 L -71.551,-19 c 0.118,0.261 0.219,0.5 0.328,0.75 l 8.871,0.319 c 0.045,-0.088 0.089,-0.174 0.13,-0.259 0.981,-1.893 4.254,-2.967 6.697,-4.261 -5.997,-5.104 -12.875,-10.805 -14.709,-12.235 -3.508,-2.734 -4.959,-8.861 1.901,-10.881 1.224,-0.445 2.235,-0.696 3.06,-0.816 -4.971,-4.137 -12.005,-11.173 -2.548,-14.94 3.035,-1.02 6.824,0.11 9.74,1.508 -6.874,-7.383 -2.315,-18.303 4.182,-15.417 0.698,0.341 1.357,0.685 1.979,1.033 -0.448,-0.53 -0.825,-0.958 -1.086,-1.238 -3.133,-3.357 -1.167,-12.979 5.905,-10.301 3.307,1.623 11.012,10.911 17.435,18.987 3.59,3.344 6.373,8.313 9.34,11.773 4.102,4.487 10.626,8.165 14.114,13.201 C 0.604,-31.221 3.096,-12.205 0,0" /></g></g></g></g><g
         transform="translate(101.9194,1199.4224)"
         id="g8690"><path
           inkscape:connector-curvature="0"
           id="path8692"
           style="fill:#aa3188;fill-opacity:1;fill-rule:nonzero;stroke:none"
           d="m 0,0 c -0.222,12.947 -1.187,25.539 -2.797,38.455 -0.144,1.085 -0.288,2.176 -0.434,3.269 0.63,3.718 1.616,7.285 4.216,10.257 3.327,3.906 9.429,4.646 11.755,9.618 1.325,2.809 3.814,13.753 0.393,15.626 -2.809,1.325 -11.238,-6.001 -14.531,-6.452 2.811,6.747 8.236,10.813 7.98,18.691 -0.32,9.04 -10.331,3.555 -14.335,-0.254 1.099,4.456 4.233,11.848 -2.547,11.205 -4.682,-0.483 -7.815,-3.033 -11.012,-6.035 -1.452,4.36 -1.577,14.756 -9.069,9.141 -2.326,-1.743 -4.07,-4.261 -5.362,-6.844 -1.228,-2.131 -1.746,-5.746 -3.554,-7.101 -3.291,6.006 -9.748,7.622 -11.946,0.326 -0.998,-3.416 -0.34,-7.988 0.231,-12.415 -1.175,-7.521 -1.129,-15.543 -0.048,-21.744 1.966,-12.044 4.642,-23.958 8.739,-35.615 3.58,-10.43 16.286,-23.166 22.386,-32.111 6.519,-9.236 6.688,-17.717 16.146,-24.144 2.391,3.808 12.476,7.132 13.123,11.652 C 10.435,-16.792 0.321,-7.426 0,0" /></g><g
         transform="translate(102.6694,1199.4224)"
         id="g8694"><path
           inkscape:connector-curvature="0"
           id="path8696"
           style="fill:#930628;fill-opacity:1;fill-rule:nonzero;stroke:none"
           d="m 0,0 c -0.258,12.868 -1.234,25.68 -2.797,38.455 -0.89,7.276 2.269,13.044 8.541,16.647 2.913,1.674 5.988,3.502 7.2,6.838 1.254,3.454 4.099,12.674 0.334,15.539 -4.12,3.136 -11.66,-5.056 -15.625,-5.983 L -1.5,70.395 c 2.876,6.364 11.861,15.652 6.851,23.145 -3.235,4.836 -11.737,-1.401 -14.384,-3.799 0.418,-0.243 0.835,-0.487 1.253,-0.73 0.845,3.229 3.465,8.913 0.107,11.521 -4.432,3.441 -11.934,-2.872 -14.919,-5.621 0.418,-0.111 0.836,-0.221 1.254,-0.331 -1.083,3.61 -1.033,9.666 -5.22,11.217 -5.584,2.069 -10.671,-8.501 -12.004,-12.183 -0.883,-2.443 -0.906,-2.969 -2.422,-1.35 -1.133,1.208 -2.181,2.063 -3.679,2.77 -1.604,0.758 -3.966,0.645 -5.335,-0.58 -2.585,-2.317 -3.148,-5.479 -3.261,-8.814 -0.109,-3.226 0.985,-6.479 0.524,-9.697 -0.343,-2.395 -0.489,-4.81 -0.601,-7.224 -0.485,-10.466 1.99,-21.012 4.373,-31.128 2.414,-10.25 5.274,-20.087 11.284,-28.814 5.673,-8.238 12.844,-15.373 18.127,-23.885 4.847,-7.809 6.854,-16.026 14.635,-21.667 0.357,-0.259 0.801,-0.032 1.025,0.269 3.655,4.894 12.784,6.132 13.309,13.14 C 10.057,-14.841 0.851,-8.291 0,0 c -0.098,0.953 -1.599,0.962 -1.5,0 0.589,-5.743 4.317,-10.587 6.973,-15.541 2.157,-4.021 3.871,-8.628 -0.004,-12.124 -2.534,-2.287 -5.784,-3.767 -8.496,-5.835 -0.57,-0.434 -1.049,-0.917 -1.544,-1.43 -0.501,-0.519 -3.57,2.838 -4.123,3.426 -2.788,2.962 -4.465,6.899 -6.161,10.535 -3.161,6.774 -7.377,12.525 -12.053,18.307 -5.051,6.249 -10.281,12.451 -14.006,19.615 -4.392,8.447 -6.255,18.942 -8.192,28.188 -1.89,9.019 -3.169,17.863 -2.526,27.088 0.165,2.378 0.711,4.555 0.405,6.923 -0.278,2.161 -0.472,4.309 -0.532,6.488 -0.087,3.142 0.773,7.978 4.871,8.363 2.775,0.262 4.977,-2.817 6.194,-4.806 0.25,-0.41 0.832,-0.501 1.177,-0.152 1.2,1.211 1.8,2.595 2.402,4.17 1.287,3.368 2.848,6.241 5.399,8.843 6.591,6.723 7.642,-3.58 8.931,-7.877 0.166,-0.554 0.836,-0.716 1.254,-0.331 2.05,1.888 11.717,9.768 13.833,4.277 0.931,-2.415 -0.906,-6.342 -1.528,-8.717 -0.196,-0.748 0.705,-1.227 1.253,-0.73 3.185,2.885 12.307,8.908 13.055,0.784 0.63,-6.842 -5.246,-12.488 -7.877,-18.313 -0.268,-0.592 0.164,-1.261 0.846,-1.101 2.225,0.52 4.183,1.873 6.109,3.045 3.111,1.893 8.682,6.069 9.186,-0.13 0.269,-3.307 -0.605,-6.821 -1.604,-9.953 C 10.281,58.432 5.323,56.853 1.721,54.352 -0.383,52.891 -2.141,50.453 -3.041,48.066 -4.897,43.143 -4.436,39.717 -3.833,34.589 -2.483,23.105 -1.732,11.56 -1.5,0 -1.48,-0.966 0.02,-0.968 0,0" /></g><g
         transform="translate(95.5151,1265.8379)"
         id="g8698"><path
           inkscape:connector-curvature="0"
           id="path8700"
           style="fill:#7f246a;fill-opacity:1;fill-rule:nonzero;stroke:none"
           d="m 0,0 c 0.396,3.523 -0.427,7.549 -0.528,11.123 -3.91,-3.49 -7.218,-7.83 -11.062,-11.457 1.201,7.551 4.263,14.379 4.972,22.002 -2.384,0.118 -12.88,-6.491 -14.76,-8.696 -3.532,-4.14 -6.739,-9.84 -9.105,-14.587 -2.819,2.533 -3.379,9.522 -3.919,12.981 -2.963,-5.001 -5.015,-10.17 -6.927,-15.632 -1.239,-3.538 -2.968,-6.444 -2.609,-10.301 0.988,-10.646 4.566,-21.658 8.021,-31.721 3.581,-10.429 16.286,-23.165 22.386,-32.11 6.519,-9.237 6.689,-17.717 16.146,-24.145 2.391,3.809 12.476,7.133 13.124,11.652 1.1,7.684 -9.014,17.05 -9.335,24.475 -0.222,12.947 -1.186,25.54 -2.797,38.455 -0.144,1.086 -0.288,2.176 -0.434,3.27 C 3.803,-20.974 0,0 0,0" /></g><g
         id="g8702"><g
           id="g8704" /><g
           id="g8710"><g
             style="opacity:0.30000299"
             id="g8712"
             clip-path="url(#clipPath8706)"><g
               id="g8714"
               transform="translate(95.126,1165.6724)"><path
                 inkscape:connector-curvature="0"
                 id="path8716"
                 style="fill:#000000;fill-opacity:1;fill-rule:nonzero;stroke:none"
                 d="m 0,0 c 9.732,16.135 1.407,100.198 1.407,100.198 -3.12,0.03 -8.898,-1.143 -12.537,-3.894 -0.488,-0.369 -2.022,-2.735 -2.421,-3.161 -0.897,-0.957 -12.617,4.933 -13.287,3.803 -0.76,-1.283 -1.071,-6.804 -0.102,-8.714 2.255,-4.446 8.573,-7.063 8.495,-10.038 -0.036,-1.418 -15.014,-15.307 -14.88,-16.432 0.528,-3.511 19.01,5.153 21.497,2.656 3.079,-3.091 5.347,-4.689 6.549,-8.773 2.129,-6.609 -1.242,-13.507 -1.159,-20.438 0.171,-6.328 -7.716,-18.42 -4.38,-38.117" /></g></g></g></g><g
         transform="translate(168.7666,1165.3506)"
         id="g8718"><path
           inkscape:connector-curvature="0"
           id="path8720"
           style="fill:#ce5fa9;fill-opacity:1;fill-rule:nonzero;stroke:none"
           d="m 0,0 c -1.247,4.176 -4.304,11.817 -6.563,15.369 -2.367,3.876 -3.937,7.944 -6.325,11.669 -4.088,6.889 -7.648,13.702 -12.079,20.334 -4.669,7.126 -8.066,18.836 -9.484,27.188 -1.654,8.847 -3.654,15.283 -11.875,20.15 -6.543,3.705 -9.389,4.226 -16.772,5.283 l -4.578,0.235 c -3.54,0.033 -10.496,-1.479 -13.875,-5.087 -5.416,-5.782 -6.466,-15.374 -5.818,-20.769 1.181,-7.857 10.834,-11.314 13.006,-18.698 2.129,-6.609 -1.242,-13.506 -1.158,-20.437 0.17,-6.329 -7.717,-18.421 -4.381,-38.117" /></g><g
         transform="translate(169.4897,1165.5498)"
         id="g8722"><path
           inkscape:connector-curvature="0"
           id="path8724"
           style="fill:#930628;fill-opacity:1;fill-rule:nonzero;stroke:none"
           d="m 0,0 c -7.685,24.644 -27.159,43.735 -33.299,68.913 -2.184,8.956 -2.731,18.854 -10.976,24.656 -7.294,5.133 -16.197,7.41 -25.077,7.185 -9.826,-0.249 -16.169,-6.374 -18.669,-15.472 -1.09,-3.967 -1.39,-8.485 -0.54,-12.514 0.943,-4.46 5.263,-7.815 8.295,-10.845 6.334,-6.329 5.122,-13.343 3.744,-21.498 -0.689,-4.073 -0.628,-7.928 -1.785,-11.937 -3.07,-10.636 -4.747,-20.675 -3.042,-31.767 0.147,-0.953 1.592,-0.547 1.447,0.399 -1.652,10.745 0.015,20.67 3.042,30.97 0.866,2.949 1.331,5.616 1.412,8.68 0.156,5.908 2.312,11.273 1.508,17.246 -1.264,9.381 -13.027,12.406 -13.556,22.222 -0.633,11.75 6.36,23.694 19.35,23.027 9.45,-0.484 18.947,-2.478 25.871,-9.468 3.741,-3.776 5.075,-9.229 6.112,-14.259 1.132,-5.489 2.28,-10.864 4.046,-16.197 3.539,-10.685 10.435,-20.01 16.004,-29.707 C -10.575,19.991 -4.775,10.276 -1.446,-0.398 -1.159,-1.319 0.289,-0.926 0,0" /></g><g
         transform="translate(96.2271,1161.998)"
         id="g8726"><path
           inkscape:connector-curvature="0"
           id="path8728"
           style="fill:#993477;fill-opacity:1;fill-rule:nonzero;stroke:none"
           d="m 0,0 c 7.431,16.355 -3.67,9.478 -2.38,25.282 0.186,2.276 4.012,24.207 4.301,26.642 0.089,0.748 1.195,2.439 1.773,3.898 1.208,3.052 8.478,6.58 8.532,6.956 -0.65,0.189 1.403,3.722 -3.114,0.2 -1,-0.78 -6.079,-4.415 -10.708,-3.966 C 0.533,52.403 -2.837,45.505 -2.754,38.575 -2.583,32.247 -10.47,20.154 -7.135,0.458" /></g><g
         transform="translate(120.9863,1248.853)"
         id="g8730"><path
           inkscape:connector-curvature="0"
           id="path8732"
           style="fill:#9b2962;fill-opacity:1;fill-rule:nonzero;stroke:none"
           d="m 0,0 c 1.053,-1.351 1.803,-2.821 2.429,-4.538 0.505,-1.302 2.429,-7.19 -0.422,-5.628 0.129,-1.249 0.957,-2.443 1.021,-3.606 0.161,-2.099 -1.517,-0.397 -2.27,0.249 0.172,-0.948 0.774,-2.11 0.72,-3.025 -0.012,-1.69 -0.948,-1.248 -1.658,-0.301 -0.033,-1.302 0.742,-3.411 0.031,-4.616 -0.905,-1.486 -1.818,1.259 -2.539,2.131 0.193,-1.334 1.774,-3.713 -0.056,-4.682 -1.496,-0.785 -2.851,1.561 -3.895,2.327 -0.387,-1.099 6.16,-6.978 4.74,-7.774 -1.023,-0.699 -2.647,2.455 -3.228,3.23 -0.453,-1.55 0.461,-3.218 -0.303,-4.8 -1.195,-2.443 -2.249,1.475 -2.733,2.39 -0.168,-0.504 -0.723,-2.032 -1.37,-2.792 0.407,-1.353 0.872,-2.542 1.24,-2.955 0.925,-1.055 -4.323,-0.589 -6.26,0.38 1.184,-0.862 3.153,-1.067 4.132,-2.283 0.398,-0.441 0.699,-1.561 0.538,-2.153 -0.216,-0.968 -0.668,-0.904 -1.625,-1.151 1.398,-0.968 3.045,-1.281 4.401,-2.552 1.279,-1.26 1.634,-3.078 -0.755,-3.121 1.614,-0.538 3.508,-1.271 4.099,-3.047 0.753,-2.26 -0.485,-3.39 -2.519,-3.636 1.086,-1.54 3.41,-1.949 4.508,-3.414 1.732,-2.4 -1.389,-2.722 -2.831,-3.13 1.162,-1.012 3.25,-1.465 3.959,-2.951 0.958,-1.904 -0.84,-3.185 -2.412,-3.421 0.829,-1.195 3.196,-1.303 3.993,-2.724 1.387,-2.659 -2.412,-0.731 -3.143,-0.472 0.752,-1.185 2.539,-1.594 3.303,-2.703 1,-1.604 -0.216,-2.583 -1.755,-2.593 1.065,-1.152 3.518,-1.734 4.045,-3.424 0.162,-0.484 -0.151,-2.131 -0.722,-2.357 -0.581,-0.301 -1.603,0.614 -2.184,0.851 1,-1.065 2.561,-1.443 3.658,-2.368 0.979,-0.678 1.958,-2.971 0.817,-3.961 0.197,-0.185 0.459,-0.38 0.74,-0.584 l 41.828,1.508 c -1.247,4.176 -4.304,11.817 -6.564,15.369 -2.366,3.875 -3.936,7.944 -6.324,11.669 -4.088,6.888 -7.647,13.703 -12.079,20.333 -4.669,7.126 -8.066,18.837 -9.484,27.189 -1.654,8.846 -3.654,15.283 -11.875,20.15 -6.543,3.704 -9.389,4.225 -16.772,5.282 l -4.579,0.235 c -2.218,0.022 -5.779,-0.565 -8.96,-1.894 C -9.083,13.444 -1.931,6.673 0,0" /></g><g
         transform="translate(102.0493,1267.4395)"
         id="g8734"><path
           inkscape:connector-curvature="0"
           id="path8736"
           style="fill:#cc85b4;fill-opacity:1;fill-rule:nonzero;stroke:none"
           d="m 0,0 c -0.646,-0.215 -4.305,-1.075 -4.025,-2.345 0.408,-1.442 4.52,-0.647 5.596,-0.647 -0.044,-0.302 -0.216,-0.43 -0.238,-0.581 1.916,-0.582 4.068,0.493 5.984,-0.088 0.431,-0.216 0,-1.076 0.151,-1.098 0.301,-0.043 1.507,-0.216 1.657,-0.238 0.667,-0.71 2.002,0.021 1.398,-2.045 0.71,-0.409 0.99,-0.603 1.83,-1.184 0.279,-0.194 1.076,-10e-4 1.356,-0.194 0.28,-0.194 0.43,-1.292 0.43,-1.292 1.872,-0.883 3.121,0.322 3.163,-2.605 1.098,0.15 2.217,0.451 3.272,0.3 0.043,-0.775 -0.087,-1.679 -0.217,-2.583 0.345,0.258 1.098,0.15 1.422,0.258 -0.087,-0.603 0.085,-1.55 -0.002,-2.153 0.345,0.259 1.421,0.258 2.089,0.624 0.172,-0.947 -0.108,-1.83 -0.388,-2.712 0.452,-0.064 1.334,-0.345 1.808,-0.259 0.021,-0.925 -0.303,-2.109 0.021,-3.078 0.322,0.107 0.946,0.172 1.269,0.279 0.452,-1.14 0.107,-2.475 0.559,-3.616 1.334,0.732 1.873,2.346 2.648,3.465 -0.086,-0.603 -0.237,-1.658 -0.345,-2.411 0.172,0.129 0.366,0.409 0.539,0.538 0.882,-1.356 1.354,-3.423 2.581,-4.521 0.495,1.313 -0.666,2.863 -0.946,4.133 0.43,-0.216 1.033,-0.301 1.464,-0.516 0.861,1.721 -0.753,4.412 -1.247,6.328 1.571,0.236 3.294,0.451 4.929,0.063 -0.365,0.667 -1.205,1.249 -1.743,1.787 0.625,0.064 1.55,0.086 2.282,-0.173 -0.883,0.28 -1.743,0.711 -2.281,1.249 1.011,0.624 2.26,0.753 3.508,0.881 -1.226,1.099 -5.617,0.497 -2.925,3.187 -0.646,-0.215 -1.551,-0.086 -2.326,-0.128 -0.365,1.744 -1.399,-0.107 -2.065,0.603 -0.495,0.839 -0.021,2.002 0.108,2.906 -3.208,0.152 -2.28,4.477 -1.677,6.543 -1.098,-0.15 -2.196,-1.376 -3.23,-2.151 0.023,1.227 1.077,2.152 1.81,2.97 -0.754,0.108 -1.873,-0.193 -2.626,-0.085 0.259,2.884 4.047,3.571 5.426,5.68 C 28.393,6.083 27.273,4.706 25.12,3.63 25.508,4.189 25.637,5.093 26.025,5.652 24.884,5.201 23.7,4.448 22.387,3.868 21.311,6.021 19.826,4.234 18.792,3.459 18.341,4.601 17.566,5.634 16.382,5.958 16.339,5.656 15.973,5.247 15.93,4.946 14.445,5.312 13.175,6.109 11.841,6.454 11.97,6.281 11.884,5.679 11.991,5.356 9.581,6.777 8.031,8.844 5.255,9.856 5.19,7.252 10.485,6.647 9.989,4.259 7.492,4.001 4.35,6.757 1.896,5.725 2.714,4.993 3.747,4.691 4.629,4.411 1.465,4.864 -3.657,6.674 -6.52,4.931 -6.219,4.888 -5.939,4.694 -5.638,4.651 -6.8,4.049 -8.178,4.092 -9.318,3.641 c 0.3,-0.043 0.86,-0.432 1.29,-0.647 -0.365,-0.409 -0.473,-1.161 -1.141,-1.528 1.27,0.28 3.035,0.796 4.241,0.623 -0.517,-0.387 -1.055,-0.925 -1.701,-1.14 1.549,0.086 3.143,0.473 4.692,0.558 -1.549,-1.161 -3.358,-1.979 -4.93,-3.291 2.153,-10e-4 4.413,0.751 6.458,1.074 L 0,0 z" /></g><g
         transform="translate(101.8501,1268.1626)"
         id="g8738"><path
           inkscape:connector-curvature="0"
           id="path8740"
           style="fill:#d34f81;fill-opacity:1;fill-rule:nonzero;stroke:none"
           d="m 0,0 c -1.211,-0.358 -5.124,-1.178 -4.549,-3.268 0.219,-0.796 0.95,-1.03 1.623,-1.282 0.607,-0.227 1.549,-0.123 2.17,-0.115 1.411,0.019 1.366,0.08 1.566,0.568 -0.204,-0.499 0.295,-0.898 0.723,-0.949 0.585,-0.071 5.431,0.328 5.384,-0.436 -0.019,-0.3 0.24,-0.679 0.551,-0.724 0.989,-0.141 2.679,-0.09 2.505,-1.559 -0.031,-0.257 0.165,-0.522 0.371,-0.648 0.678,-0.413 3.114,-1.407 3.271,-2.221 0.05,-0.262 0.287,-0.445 0.524,-0.524 1.091,-0.367 2.44,-0.223 2.612,-1.883 0.054,-0.52 0.435,-0.805 0.949,-0.723 2.066,0.568 2.768,0.048 2.107,-1.559 -0.065,-0.5 0.525,-0.833 0.949,-0.723 0.666,0.025 0.823,-0.365 0.471,-1.172 -0.001,-0.481 0.48,-0.861 0.949,-0.723 1.11,0.636 1.369,0.248 0.778,-1.165 -0.103,-0.375 0.123,-0.84 0.524,-0.923 1.638,-0.34 1.137,-0.844 1.278,-2.614 0.04,-0.5 0.447,-0.834 0.949,-0.723 0.42,0.092 0.858,-2.579 0.906,-2.813 0.125,-0.608 0.85,-0.653 1.253,-0.331 1.268,1.011 1.926,2.234 2.766,3.616 -0.457,0.193 -0.914,0.386 -1.371,0.578 -0.115,-0.803 -0.23,-1.607 -0.345,-2.411 -0.1,-0.696 0.673,-1.309 1.253,-0.729 -0.677,-0.677 1.57,-3.381 2.06,-3.983 0.438,-0.538 1.264,-0.067 1.28,0.53 0.046,1.683 -0.399,2.724 -0.973,4.332 l -0.922,-0.922 c 0.488,-0.172 0.975,-0.344 1.464,-0.517 0.37,-0.13 0.839,0.145 0.922,0.524 0.315,1.437 0.278,1.315 0.076,2.818 -0.258,0.911 -0.564,1.804 -0.92,2.68 -0.386,1.031 3.656,0.362 3.804,0.343 0.715,-0.09 0.901,0.848 0.53,1.28 -0.505,0.67 -1.086,1.266 -1.743,1.787 l -0.531,-1.28 c 0.695,-0.049 1.389,-0.097 2.083,-0.146 0.968,-0.171 1.284,1.078 0.398,1.446 l -2.102,1.173 0,-1.295 c 1.044,0.26 2.087,0.519 3.131,0.779 0.696,0.083 1.079,0.99 0.378,1.398 -0.529,0.308 -3.573,1.019 -2.774,2.009 0.355,0.439 0.198,1.365 -0.53,1.28 -0.729,-0.257 -1.416,-0.18 -2.061,0.23 -0.114,0.218 -0.399,0.39 -0.648,0.371 -1.098,-0.083 -1.282,-0.381 -0.851,1.83 0.075,0.382 -0.102,0.833 -0.524,0.923 -2.727,0.581 -1.578,4.051 -1.153,5.621 0.135,0.499 -0.373,1.149 -0.922,0.922 -1.404,-0.579 -2.393,-1.38 -3.561,-2.344 0.418,-0.243 0.836,-0.486 1.254,-0.729 0.539,0.879 1.077,1.759 1.616,2.639 0.424,0.461 0.153,1.302 -0.53,1.28 -2.945,-0.096 -0.189,1.492 0.924,2.234 0.925,0.617 1.683,1.226 2.406,2.081 0.344,0.407 0.258,1.115 -0.331,1.253 -2.713,0.637 -4.111,-0.223 -6.476,-1.537 l 1.026,-1.026 c 0.302,0.674 0.603,1.348 0.905,2.023 0.313,0.7 -0.319,1.352 -1.026,1.026 C 24.597,5.001 23.485,3.931 22.094,4.746 21.667,4.996 21.016,4.883 20.574,4.762 20.124,4.638 19.4,3.575 19.077,4.198 18.595,5.125 17.82,5.442 16.96,5.882 16.627,6.052 16.107,6 15.934,5.613 15.497,4.635 13.223,6.11 12.239,6.454 11.648,6.661 11.23,6.046 11.317,5.531 11.358,5.231 11.399,4.932 11.44,4.633 11.816,4.849 12.193,5.064 12.569,5.28 10.268,6.804 8.366,8.635 5.833,9.781 5.226,10.056 4.593,9.614 4.731,8.934 5.106,7.077 6.488,6.301 8.018,5.348 9.348,4.52 4.885,5.741 4.536,5.841 3.547,6.124 2.852,5.927 1.896,5.725 1.235,5.585 1.194,4.676 1.717,4.354 3.28,3.392 2.94,3.557 4.629,2.965 4.762,3.447 4.895,3.929 5.028,4.411 1.112,5.09 -2.876,6.545 -6.699,4.855 -7.335,4.575 -7.078,3.662 -6.52,3.485 -6.226,3.392 -5.932,3.298 -5.638,3.205 l 0,1.446 C -6.854,4.222 -8.076,3.98 -9.318,3.641 -9.892,3.484 -10.12,2.54 -9.498,2.27 -8.672,2.14 -8.673,1.808 -9.5,1.273 -10.011,0.714 -9.512,-0.152 -8.771,0.02 c 1.319,0.368 2.667,0.566 4.042,0.596 l -0.53,1.28 C -5.776,1.556 -6.292,1.215 -6.808,0.874 -7.424,0.527 -7.193,-0.604 -6.43,-0.524 c 1.568,0.165 3.125,0.394 4.693,0.558 -0.126,0.466 -0.253,0.932 -0.379,1.398 -1.637,-1.116 -3.339,-2.108 -4.93,-3.292 -0.535,-0.398 -0.445,-1.459 0.379,-1.397 2.332,0.174 6.237,-0.06 7.514,2.155 0.484,0.84 -0.813,1.595 -1.295,0.757 -0.66,-1.144 -5.359,-1.348 -6.219,-1.412 0.125,-0.466 0.252,-0.932 0.378,-1.398 1.591,1.184 3.292,2.176 4.93,3.292 0.555,0.378 0.427,1.482 -0.378,1.397 C -3.305,1.37 -4.862,1.141 -6.43,0.976 c 0.126,-0.466 0.253,-0.932 0.379,-1.397 0.905,0.509 1.039,0.613 1.852,1.257 0.531,0.419 0.074,1.29 -0.53,1.28 -1.554,-0.026 -2.916,-0.296 -4.44,-0.65 0.243,-0.418 0.486,-0.835 0.73,-1.253 0.709,0.775 0.743,0.802 1.258,1.68 0.203,0.347 0.087,0.826 -0.269,1.025 -0.409,0.26 -0.839,0.475 -1.291,0.647 C -8.8,3.108 -8.86,2.651 -8.92,2.194 c 1.243,0.34 2.464,0.582 3.681,1.011 0.697,0.245 0.731,1.214 0,1.446 -0.294,0.093 -0.588,0.187 -0.883,0.28 0.06,-0.457 0.12,-0.914 0.18,-1.37 C -2.589,5.042 1.243,3.552 4.629,2.965 5.577,2.8 5.949,4.088 5.028,4.411 4.177,4.824 3.326,5.236 2.474,5.649 2.415,5.192 2.355,4.735 2.295,4.278 4.986,4.847 7.532,2.916 10.188,2.786 c 0.395,-0.02 0.768,0.356 0.75,0.75 -0.143,3.108 -4.18,2.923 -4.761,5.797 L 5.076,8.486 C 7.584,7.351 9.536,5.492 11.812,3.985 12.255,3.691 13.003,4.071 12.94,4.633 12.891,5.078 12.837,5.49 12.763,5.93 12.456,5.623 12.148,5.315 11.841,5.007 13.359,4.476 14.465,3.99 15.93,3.5 c 0.291,-0.098 0.716,0.053 0.846,0.344 0.375,1.221 0.898,0.726 1.568,-1.486 0.24,-0.463 0.824,-0.441 1.178,-0.152 0.845,0.136 1.689,0.272 2.534,0.408 0.238,-0.261 0.613,-0.261 0.908,-0.117 1.217,0.592 2.411,1.218 3.639,1.785 L 25.577,5.308 C 25.275,4.634 24.973,3.959 24.672,3.285 24.376,2.625 24.994,1.868 25.698,2.259 27.266,3.3 29.04,3.762 31.019,3.645 30.908,4.063 30.798,4.48 30.688,4.898 28.758,2.616 25.859,1.989 25.069,-1.113 c -0.117,-0.46 0.226,-0.966 0.723,-0.95 0.875,0.029 1.75,0.058 2.626,0.086 l -0.53,1.28 c -0.991,-1.079 -1.606,-1.88 -2.003,-3.301 -0.216,-0.774 0.703,-1.183 1.254,-0.729 0.966,0.653 1.932,1.305 2.898,1.958 -0.307,0.308 -0.615,0.615 -0.922,0.922 -0.514,-1.895 -0.85,-3.716 -0.318,-5.637 0.113,-0.404 0.412,-0.859 0.765,-1.104 1.186,-0.823 0.908,-1.424 1.095,-2.907 0.042,-0.336 0.198,-0.629 0.551,-0.723 0.088,-0.024 1.623,-0.27 1.617,-0.259 0.121,-0.231 0.393,-0.372 0.648,-0.372 0.78,-0.046 1.555,-0.003 2.325,0.129 l -0.53,1.281 c -2.601,-3.223 0.792,-3.037 3.077,-4.365 0.126,0.466 0.253,0.931 0.379,1.397 -1.424,-0.168 -2.574,-0.404 -3.888,-0.984 -0.565,-0.249 -0.404,-1.006 0,-1.295 1.218,-0.868 1.029,-0.73 2.461,-1.324 0.133,0.482 0.266,0.964 0.398,1.446 -1.266,0.223 -1.228,0.239 -2.481,0.2 -0.62,-0.02 -1.037,-0.823 -0.53,-1.281 0.657,-0.521 1.238,-1.116 1.743,-1.786 l 0.531,1.28 c -1.732,0.218 -3.201,0.159 -4.93,-0.063 -0.454,-0.059 -0.89,-0.439 -0.723,-0.95 0.09,-0.273 1.942,-5.325 0.705,-4.889 -0.521,0.184 -1.109,-0.399 -0.922,-0.922 0.534,-1.252 0.841,-2.563 0.919,-3.934 l 1.281,0.531 c -1.085,1.331 -1.666,2.881 -2.465,4.368 -0.23,0.429 -0.845,0.484 -1.177,0.152 -0.18,-0.179 -0.359,-0.358 -0.539,-0.538 0.418,-0.243 0.835,-0.486 1.253,-0.729 0.116,0.803 0.23,1.607 0.346,2.411 0.115,0.802 -0.899,1.355 -1.371,0.577 -0.775,-1.276 -1.305,-2.334 -2.531,-3.313 0.418,-0.11 0.835,-0.22 1.253,-0.331 -0.246,1.196 -0.311,2.418 -0.558,3.616 -0.086,0.416 -0.545,0.608 -0.923,0.524 -0.631,0.53 -0.744,1.222 -0.341,2.076 0.029,0.432 -0.365,0.719 -0.75,0.75 -1.075,0.086 -0.678,1.764 -0.67,2.221 0.008,0.48 -0.487,0.864 -0.949,0.723 -1.52,-0.459 -1.139,-0.681 -1.138,0.806 10e-4,0.377 -0.343,0.792 -0.75,0.75 -1.395,-0.144 -0.506,0.112 -0.455,1.575 0.014,0.402 -0.352,0.759 -0.75,0.75 -2.529,-0.058 -4.615,1.657 -6.335,3.377 -0.512,0.512 -1.873,0.56 -2.471,0.968 -0.366,0.25 -0.276,1.118 -0.584,1.502 -1.013,1.263 -2.766,0.655 -3.143,1.958 -0.102,0.351 -0.383,0.51 -0.723,0.551 -0.671,0.08 -4.694,0.527 -5.024,-0.281 0.18,0.441 -0.273,0.978 -0.723,0.95 -0.843,-0.054 -1.683,-0.137 -2.526,-0.2 -2.622,-0.194 0.294,1.464 1.154,1.719 C 1.324,-1.172 0.93,0.275 0,0" /></g><g
         transform="translate(107.6401,1252.8013)"
         id="g8742"><path
           inkscape:connector-curvature="0"
           id="path8744"
           style="fill:#44300f;fill-opacity:1;fill-rule:nonzero;stroke:none"
           d="m 0,0 c 3.401,0.128 7.576,-2.93 5.637,-6.804 -1.892,3.961 -3.463,5.877 -8.306,6.417 L 0,0 z" /></g><g
         transform="translate(107.6401,1252.0513)"
         id="g8746"><path
           inkscape:connector-curvature="0"
           id="path8748"
           style="fill:#33310e;fill-opacity:1;fill-rule:nonzero;stroke:none"
           d="m 0,0 c 2.978,0.006 6.458,-2.369 4.99,-5.675 l 1.295,0 C 5.437,-3.923 4.5,-2.198 2.992,-0.926 1.401,0.416 -0.658,0.863 -2.669,1.113 -2.603,0.622 -2.536,0.131 -2.47,-0.36 L 0.199,0.027 C 1.154,0.165 0.747,1.61 -0.199,1.473 L -2.868,1.086 c -0.913,-0.132 -0.558,-1.378 0.199,-1.473 1.756,-0.218 3.478,-0.653 4.856,-1.815 1.298,-1.095 2.078,-2.732 2.803,-4.23 0.231,-0.479 1.072,-0.503 1.295,0 C 8.214,-2.089 4.263,1.508 0,1.5 -0.967,1.498 -0.967,-0.002 0,0" /></g><g
         transform="translate(84.1152,1258.168)"
         id="g8750"><path
           inkscape:connector-curvature="0"
           id="path8752"
           style="fill:#44300f;fill-opacity:1;fill-rule:nonzero;stroke:none"
           d="M 0,0 C 3.144,1.549 6.437,2 8.61,-1.079 5.381,-0.001 3.531,1.032 0.022,0.151 L 0,0 z" /></g><g
         transform="translate(84.4937,1257.5205)"
         id="g8754"><path
           inkscape:connector-curvature="0"
           id="path8756"
           style="fill:#33310e;fill-opacity:1;fill-rule:nonzero;stroke:none"
           d="M 0,0 C 2.634,1.248 5.583,1.799 7.584,-0.81 L 8.431,0.292 C 5.34,1.345 2.725,2.257 -0.555,1.521 -0.784,1.47 -1.043,1.238 -1.079,0.998 -1.086,0.947 -1.094,0.897 -1.102,0.847 -1.243,-0.099 0.203,-0.506 0.345,0.448 0.352,0.499 0.36,0.549 0.367,0.599 0.193,0.424 0.018,0.25 -0.157,0.075 2.837,0.746 5.239,-0.203 8.032,-1.154 8.617,-1.354 9.283,-0.579 8.879,-0.053 6.333,3.266 2.728,2.946 -0.757,1.295 -1.631,0.881 -0.869,-0.412 0,0" /></g><g
         transform="translate(99.6421,1245.7476)"
         id="g8758"><path
           inkscape:connector-curvature="0"
           id="path8760"
           style="fill:#993477;fill-opacity:1;fill-rule:nonzero;stroke:none"
           d="m 0,0 c -2.292,3.707 -18.649,-0.417 -18.002,-5.812 0.596,-3.96 3.344,-6.803 6.201,-9.594 3.934,0.917 7.56,0.856 9.983,1.281 3.864,0.676 6.714,3.304 6.9,5.235 C 5.708,-2.364 0.966,-1.561 0,0" /></g><g
         transform="translate(70.2168,1260.1582)"
         id="g8762"><path
           inkscape:connector-curvature="0"
           id="path8764"
           style="fill:#d8b72e;fill-opacity:1;fill-rule:nonzero;stroke:none"
           d="m 0,0 c 3.34,-0.797 7.105,-3.855 10.131,-5.562 2.92,-1.564 5.73,-3.341 8.615,-4.973 0.554,-0.314 1.52,0.05 2.146,-0.067 8.792,-1.643 10.037,-6.066 9.917,-9.128 -0.218,-5.54 -6.586,-5.772 -9.788,-6.346 -4.118,-0.716 -8.222,-0.216 -12.19,-1.237 -4.275,-1.173 -8.404,-2.954 -12.816,-2.754 0.175,2.129 15.981,7.889 16.628,11.382 C 13.446,-14.736 0,0 0,0" /></g><g
         transform="translate(70.0176,1259.4351)"
         id="g8766"><path
           inkscape:connector-curvature="0"
           id="path8768"
           style="fill:#841e71;fill-opacity:1;fill-rule:nonzero;stroke:none"
           d="m 0,0 c 6.491,-2.034 12.679,-7.073 18.567,-10.459 0.339,-0.196 1.257,-0.193 1.424,-0.21 2.424,-0.249 4.062,-0.623 6.262,-1.686 2.67,-1.292 4.023,-3.789 4.005,-6.652 -0.047,-7.158 -15.51,-5.982 -19.52,-6.481 -3.343,-0.415 -6.587,-1.862 -9.857,-2.658 -6.18,-1.506 -2.114,0.145 0.235,1.426 3.643,1.986 14.523,5.373 12.001,11.231 C 10.432,-9.253 5.255,-3.725 0.729,1.253 0.078,1.971 -0.98,0.907 -0.331,0.193 c 1.836,-2.02 3.597,-4.109 5.321,-6.225 2.449,-3.006 6.684,-7.426 7.135,-11.5 0.308,-2.77 -8.987,-6.422 -10.902,-7.432 -1.727,-0.911 -5.034,-2.101 -5.732,-4.181 -0.157,-0.464 0.255,-0.953 0.723,-0.949 3.996,0.031 7.622,1.147 11.418,2.317 4.739,1.462 9.725,1.039 14.578,1.83 4.67,0.761 9.516,1.96 9.552,7.57 0.033,5.069 -4.545,7.605 -8.812,8.857 -1.845,0.541 -3.297,0.166 -5.063,1.182 -2.397,1.379 -4.755,2.815 -7.179,4.147 C 7.234,-2.281 4.234,0.245 0.398,1.446 -0.527,1.736 -0.92,0.288 0,0" /></g><g
         transform="translate(101.0254,1240.4282)"
         id="g8770"><path
           inkscape:connector-curvature="0"
           id="path8772"
           style="fill:#d8983d;fill-opacity:1;fill-rule:nonzero;stroke:none"
           d="m 0,0 c -0.217,-5.54 -6.585,-5.772 -9.788,-6.346 -4.118,-0.717 -8.222,-0.216 -12.19,-1.237 -4.275,-1.173 -8.404,-2.954 -12.816,-2.754 0.145,1.764 17.56,4.458 25.163,7.283 1.573,0.584 5.313,0.767 5.49,1.514 C -3.171,2.55 0.12,3.062 0,0" /></g><g
         transform="translate(71.3677,1254.7725)"
         id="g8774"><path
           inkscape:connector-curvature="0"
           id="path8776"
           style="fill:#ce527c;fill-opacity:1;fill-rule:nonzero;stroke:none"
           d="m 0,0 c 1.912,-2.779 11.195,-9.878 9.397,-12.941 -1.077,-1.611 -5.88,-4.621 -7.482,-5.902 -2.136,-1.599 -4.977,-3.192 -6.589,-5.283 4.241,0.44 8.5,2.504 12.574,3.92 4.076,1.416 15.44,1.774 14.614,6.975 -0.498,2.926 -10.562,8.558 -13.01,10.694 C 6.882,-0.075 2.86,3.376 -0.653,4.875 L 0,0 z" /></g><g
         transform="translate(70.7202,1254.394)"
         id="g8778"><path
           inkscape:connector-curvature="0"
           id="path8780"
           style="fill:#a86311;fill-opacity:1;fill-rule:nonzero;stroke:none"
           d="m 0,0 c 2.865,-3.748 7.515,-6.48 9.382,-10.933 1.101,-2.627 -12.088,-10.213 -13.939,-12.285 -0.532,-0.595 0,-1.362 0.73,-1.253 6.531,0.972 12.572,4.022 19.073,5.35 2.515,0.513 8.851,1.733 8.697,5.487 -0.147,3.61 -4.514,5.912 -7.144,7.748 C 11.326,-2.065 6.39,2.988 0.373,5.9 -0.072,6.116 -0.838,5.87 -0.755,5.253 c 0.217,-1.625 0.435,-3.25 0.652,-4.875 0.127,-0.944 1.628,-0.956 1.5,0 C 1.18,2.003 0.962,3.628 0.745,5.253 0.369,5.037 -0.008,4.821 -0.384,4.605 4.181,2.396 7.483,-1.262 11.552,-4.137 c 3.434,-2.425 7.191,-4.519 10.113,-7.586 4.213,-4.424 -8.963,-6.373 -10.917,-6.766 -5.149,-1.038 -9.726,-3.754 -14.974,-4.536 0.244,-0.418 0.487,-0.835 0.73,-1.253 2.725,3.049 6.526,5.263 9.862,7.624 1.347,0.953 4.584,2.678 4.629,4.637 0.118,5.199 -6.893,9.103 -9.7,12.774 C 0.716,1.514 -0.588,0.769 0,0" /></g><g
         transform="translate(91.2876,1244.1875)"
         id="g8782"><path
           inkscape:connector-curvature="0"
           id="path8784"
           style="fill:#6b0f27;fill-opacity:1;fill-rule:nonzero;stroke:none"
           d="m 0,0 c -1.125,1.172 -4.754,3.352 -6.432,4.784 -0.25,0.213 2.575,-4.59 2.887,-7.221 0.072,-0.617 -3.674,-2.782 -5.22,-4.189 -0.765,-0.696 -0.797,-2.183 0.304,-1.807 1.103,0.376 2.23,0.149 3.632,0.672 4.317,1.607 8.325,2.686 6.733,5.528 0,0 -1.396,1.704 -1.904,2.233" /></g><g
         transform="translate(69.5127,1259.7119)"
         id="g8786"><path
           inkscape:connector-curvature="0"
           id="path8788"
           style="fill:#841e71;fill-opacity:1;fill-rule:nonzero;stroke:none"
           d="m 0,0 c 0.221,-1.647 0.24,-3.473 0.68,-5.074 0.577,-2.098 4.034,-4.383 5.49,-5.863 1.524,-1.549 3.117,-3.22 3.968,-5.249 0.867,-2.068 -3.542,-4.262 -4.786,-5.143 -3.137,-2.22 -6.579,-4.26 -9.152,-7.142 -0.642,-0.718 0.415,-1.783 1.06,-1.06 3.265,3.655 7.963,6.142 11.856,9.106 1.754,1.335 2.981,2.394 2.468,4.638 -0.665,2.909 -3.987,5.562 -5.965,7.533 C 4.58,-7.219 2.251,-5.602 2.051,-4.113 1.868,-2.742 1.684,-1.371 1.5,0 1.374,0.944 -0.128,0.957 0,0" /></g><g
         id="g8790"><g
           id="g8792" /><g
           id="g8798"><g
             style="opacity:0.30000299"
             id="g8800"
             clip-path="url(#clipPath8794)"><g
               id="g8802"
               transform="translate(135.9102,1159.4536)"><path
                 inkscape:connector-curvature="0"
                 id="path8804"
                 style="fill:#000000;fill-opacity:1;fill-rule:nonzero;stroke:none"
                 d="m 0,0 c 5.421,9.618 17.493,43.317 12.233,51.681 -2.614,4.295 -3.183,11.747 -7.67,14.234 -6.133,3.877 -13.092,4.161 -15.659,-1.448 -0.578,-1.262 3.7,-8.027 3.497,-9.401 -0.892,-6.016 -0.08,-14.392 -0.414,-16.729 -0.72,-5.026 -5.4,-18.496 -8.635,-26.213 C -20.274,4.904 -6.183,-10.97 0,0" /></g></g></g></g><g
         transform="translate(167.7783,1180.998)"
         id="g8806"><path
           inkscape:connector-curvature="0"
           id="path8808"
           style="fill:#aa3188;fill-opacity:1;fill-rule:nonzero;stroke:none"
           d="m 0,0 c -2.354,9.332 -7.515,24.831 -12.775,33.195 -2.614,4.295 -5.486,8.396 -9.973,10.884 -6.134,3.876 -13.092,4.16 -15.66,-1.449 -0.577,-1.262 3.701,-8.027 3.497,-9.401 -0.891,-6.016 -0.079,-14.391 -0.414,-16.729 -0.719,-5.025 -5.4,-18.496 -8.635,-26.212 -3.262,0.279 -7.852,0.162 -10.11,1.464 -2.664,1.534 -3.788,7.653 -7.551,4.386 -7.013,-6.088 -2.021,-11.357 -0.601,-14.328 0.981,-1.893 4.254,-2.967 6.697,-4.261 -5.997,-5.104 -12.875,-10.805 -14.709,-12.235 -3.508,-2.734 -4.959,-8.861 1.901,-10.881 1.224,-0.445 2.235,-0.696 3.06,-0.816 -4.971,-4.137 -12.005,-11.173 -2.548,-14.94 3.035,-1.02 6.824,0.11 9.74,1.508 -6.874,-7.383 -2.315,-18.303 4.182,-15.417 0.698,0.341 1.357,0.685 1.979,1.033 -0.448,-0.53 -0.825,-0.958 -1.086,-1.238 -3.133,-3.357 -1.167,-12.979 5.905,-10.301 5.457,2.678 22.9,26.241 26.775,30.76 4.102,4.487 10.626,8.165 14.114,13.201 C 0.604,-31.221 3.096,-12.205 0,0" /></g><g
         transform="translate(168.5015,1181.1973)"
         id="g8810"><path
           inkscape:connector-curvature="0"
           id="path8812"
           style="fill:#930628;fill-opacity:1;fill-rule:nonzero;stroke:none"
           d="m 0,0 c -2.758,10.707 -6.326,21.482 -11.591,31.237 -4.347,8.051 -12.014,17.262 -22.23,16.089 -2.319,-0.266 -5.72,-2.349 -6.06,-4.895 -0.366,-2.739 2.396,-6.187 3.334,-8.623 0.797,-2.07 -0.253,-6.022 -0.272,-8.288 -0.021,-2.582 0.105,-5.162 0.105,-7.742 -0.001,-4.46 -2.05,-9.21 -3.432,-13.375 -0.905,-2.73 -1.889,-5.434 -2.894,-8.129 -0.948,-2.542 -1.131,-5.443 -4.281,-5.272 -3.894,0.212 -6.925,0.312 -9.321,3.75 -0.773,1.109 -1.529,2.074 -2.749,2.696 -2.716,1.388 -5.614,-3.147 -6.609,-4.917 -1.663,-2.961 -0.328,-6.403 1.156,-9.087 0.858,-1.552 1.609,-2.903 2.998,-4.022 2.009,-1.62 5.401,-1.264 2.46,-3.752 -3.997,-3.381 -7.994,-6.777 -12.102,-10.025 -1.974,-1.561 -3.856,-4.721 -3.024,-7.341 1.192,-3.753 4.746,-4.869 8.316,-5.61 -0.11,0.418 -0.221,0.836 -0.331,1.254 -2.79,-2.364 -9.257,-7.588 -7.126,-12.085 2.883,-6.086 10.269,-4.73 15.228,-2.525 -0.303,0.393 -0.606,0.786 -0.909,1.178 -2.958,-3.537 -5.109,-8.957 -2.665,-13.415 2.335,-4.258 5.791,-4.278 9.734,-2.146 -0.302,0.392 -0.606,0.785 -0.908,1.177 -2.462,-2.861 -3.386,-5.629 -2.154,-9.381 1.03,-3.136 4.844,-5.006 7.882,-3.336 3.236,1.778 5.771,5.017 8.177,7.731 4.1,4.622 7.929,9.486 11.753,14.335 2.602,3.301 5.059,6.807 7.984,9.834 5.213,5.397 11.544,8.742 15.099,15.619 C 1.474,-27.643 2.921,-12.441 0,0 c -0.221,0.942 -1.667,0.542 -1.446,-0.398 2.647,-11.277 1.225,-23.617 -2.75,-34.41 -3.747,-10.171 -13.241,-14.557 -19.66,-22.648 -5.197,-6.549 -10.288,-13.18 -15.75,-19.512 -2.184,-2.531 -4.437,-5.046 -6.982,-7.221 -2.882,-2.463 -6.408,-1.355 -7.573,2.193 -0.894,2.723 0.319,5.058 2.048,7.068 0.55,0.638 -0.135,1.595 -0.908,1.178 -3.437,-1.857 -6.405,-1.591 -7.983,2.376 -1.504,3.781 0.322,7.95 2.731,10.83 0.563,0.673 -0.126,1.525 -0.909,1.177 -2.263,-1.006 -4.133,-1.596 -6.614,-1.797 -4.402,-0.357 -7.817,3.466 -5.774,7.511 1.313,2.6 3.917,4.688 6.104,6.54 0.421,0.357 0.199,1.144 -0.331,1.254 -3.645,0.756 -8.14,2.226 -7.124,6.888 0.495,2.271 2.635,3.655 4.31,5.015 4.346,3.532 8.624,7.15 12.893,10.776 0.355,0.302 0.261,0.973 -0.152,1.178 -3.26,1.617 -5.801,2.997 -7.679,6.203 -1.241,2.119 -1.933,4.023 -1.506,6.555 0.758,3.126 2.781,4.66 6.069,4.602 0.576,-0.704 1.118,-1.434 1.624,-2.189 2.866,-4.113 8.195,-3.516 12.679,-3.831 0.359,-0.025 0.6,0.255 0.723,0.551 3.453,8.344 7.15,17.26 8.635,26.213 0.666,4.009 -0.05,8.432 0.061,12.489 0.11,4.023 0.335,5.511 -1.386,9.094 -1.112,2.314 -2.487,3.867 -0.597,6.266 2.904,3.684 8.735,1.7 12.072,0.055 5.717,-2.817 9.227,-8.167 12.288,-13.527 5.388,-9.433 8.742,-20.4 11.441,-30.877 C -1.205,-1.335 0.242,-0.938 0,0" /></g><g
         transform="translate(147.9111,1194.4575)"
         id="g8814"><path
           inkscape:connector-curvature="0"
           id="path8816"
           style="fill:#7f246a;fill-opacity:1;fill-rule:nonzero;stroke:none"
           d="m 0,0 c -1.088,-5.052 -0.637,-11.446 -4.543,-18.844 -1.65,-3.124 -21.997,-22.167 -22.98,-26.806 -0.876,-4.125 18.549,4.838 17.87,1.592 -1.137,-5.442 -20.851,-14.312 -17.906,-28.955 6.329,0.708 18.256,11.262 23.648,13.488 0.161,-5.327 -7.786,-18.143 -9.434,-23.211 5.457,2.678 9.011,9.78 12.887,14.299 4.102,4.486 10.625,8.165 14.113,13.201 6.816,10.555 9.308,29.571 6.212,41.777 C 17.513,-4.127 12.352,11.372 7.092,19.735 4.478,24.03 1.606,28.131 -2.881,30.619 -9.015,34.495 -6.74,31.613 -9.307,26.004 -9.885,24.742 0.497,2.309 0,0" /></g><g
         transform="translate(119.7095,1255.2432)"
         id="g8818"><path
           inkscape:connector-curvature="0"
           id="path8820"
           style="fill:#aa729a;fill-opacity:1;fill-rule:nonzero;stroke:none"
           d="m 0,0 c -0.003,-0.023 0,-0.044 -0.001,-0.067 0.05,0.007 0.1,0.016 0.15,0.024 C 0.1,-0.028 0.05,-0.012 0,0" /></g><g
         transform="translate(139.3462,1250.8755)"
         id="g8822"><path
           inkscape:connector-curvature="0"
           id="path8824"
           style="fill:#aa729a;fill-opacity:1;fill-rule:nonzero;stroke:none"
           d="M 0,0 C -0.883,0.28 -1.743,0.711 -2.281,1.249 -1.27,1.873 -0.021,2.002 1.228,2.13 0.001,3.229 -4.39,2.627 -1.698,5.317 -2.344,5.102 -3.249,5.231 -4.023,5.188 c -0.366,1.745 -1.4,-0.106 -2.066,0.604 -0.495,0.839 -0.021,2.002 0.108,2.906 -3.207,0.152 -2.28,4.477 -1.677,6.543 -1.098,-0.15 -2.196,-1.376 -3.23,-2.151 0.023,1.227 1.077,2.152 1.81,2.97 -0.754,0.108 -1.873,-0.193 -2.626,-0.085 0.259,2.884 4.047,3.571 5.426,5.68 -2.626,0.991 -3.745,-0.385 -5.899,-1.461 0.388,0.559 0.517,1.463 0.905,2.022 -1.141,-0.451 -2.325,-1.204 -3.638,-1.784 -1.076,2.152 -2.561,0.366 -3.594,-0.409 -0.452,1.142 -1.227,2.175 -2.411,2.498 -0.016,-0.114 -0.079,-0.244 -0.153,-0.377 0.352,-1.028 0.562,-2.098 0.615,-3.159 -0.807,0.509 -1.627,0.791 -2.619,0.778 0.762,-1.192 3.804,-1.311 3.916,-3.148 0.088,-0.997 -1.117,-0.768 -2.053,-1.089 -0.86,-0.326 -1.8,-0.723 -2.437,-1.14 1.612,-1.018 3.597,-0.993 5.219,-1.86 -0.752,-1.02 -2.651,-0.898 -3.478,-1.912 1.291,-0.083 2.687,0.285 3.968,0.051 3.09,-0.58 0.876,-1.811 -0.052,-3.2 0.806,-0.509 1.946,-0.582 2.927,-0.721 1.21,-0.155 2.445,0.071 1.887,-1.494 -0.19,-0.598 -1.812,-2.095 -1.694,-2.637 0.184,-0.698 -0.973,-0.499 -0.649,-0.391 -0.087,-0.603 0.085,-1.55 -0.002,-2.153 0.345,0.259 1.421,0.258 2.089,0.624 0.172,-0.947 -0.108,-1.83 -0.388,-2.712 0.452,-0.064 1.334,-0.345 1.808,-0.259 0.021,-0.925 -0.302,-2.109 0.021,-3.078 0.323,0.107 0.947,0.172 1.269,0.279 0.452,-1.14 0.107,-2.475 0.559,-3.616 1.334,0.732 1.873,2.346 2.648,3.465 -0.086,-0.603 -0.237,-1.658 -0.345,-2.411 0.172,0.129 0.366,0.409 0.539,0.538 0.882,-1.357 1.354,-3.423 2.581,-4.521 0.495,1.313 -0.666,2.863 -0.946,4.133 0.431,-0.216 1.033,-0.302 1.464,-0.516 0.861,1.721 -0.753,4.412 -1.247,6.328 1.572,0.236 3.294,0.451 4.929,0.063 -0.365,0.667 -1.205,1.249 -1.743,1.787 C -1.657,0.237 -0.732,0.259 0,0" /></g></g></g></svg>