<?xml version="1.0" encoding="UTF-8" standalone="no"?>
<!-- Created with Inkscape (http://www.inkscape.org/) -->

<svg
   xmlns:dc="http://purl.org/dc/elements/1.1/"
   xmlns:cc="http://creativecommons.org/ns#"
   xmlns:rdf="http://www.w3.org/1999/02/22-rdf-syntax-ns#"
   xmlns:svg="http://www.w3.org/2000/svg"
   xmlns="http://www.w3.org/2000/svg"
   xmlns:sodipodi="http://sodipodi.sourceforge.net/DTD/sodipodi-0.dtd"
   xmlns:inkscape="http://www.inkscape.org/namespaces/inkscape"
   id="svg2"
   version="1.1"
   inkscape:version="0.48.2 r9819"
   width="200"
   height="200"
   xml:space="preserve"
   sodipodi:docname="tiericons_cs5.pdf"><metadata
     id="metadata8"><rdf:RDF><cc:Work
         rdf:about=""><dc:format>image/svg+xml</dc:format><dc:type
           rdf:resource="http://purl.org/dc/dcmitype/StillImage" /><dc:title></dc:title></cc:Work></rdf:RDF></metadata><defs
     id="defs6"><clipPath
       clipPathUnits="userSpaceOnUse"
       id="clipPath18"><path
         d="m 48,183.883 c 0,-42.802 34.698,-77.5 77.5,-77.5 l 0,0 c 42.802,0 77.5,34.698 77.5,77.5 l 0,0 c 0,42.802 -34.698,77.499 -77.5,77.499 l 0,0 C 82.698,261.382 48,226.685 48,183.883"
         id="path20"
         inkscape:connector-curvature="0" /></clipPath><clipPath
       clipPathUnits="userSpaceOnUse"
       id="clipPath76"><path
         d="m 28.3701,320.655 214.7989,0 0,-220.57 -214.7989,0 0,220.57 z"
         id="path78"
         inkscape:connector-curvature="0" /></clipPath><clipPath
       clipPathUnits="userSpaceOnUse"
       id="clipPath100"><path
         d="m 165.654,273.372 11.322,0 0,-45.72 -11.322,0 0,45.72 z"
         id="path102"
         inkscape:connector-curvature="0" /></clipPath><clipPath
       clipPathUnits="userSpaceOnUse"
       id="clipPath116"><path
         d="m 128.183,211.311 12.616,0 0,-11.865 -12.616,0 0,11.865 z"
         id="path118"
         inkscape:connector-curvature="0" /></clipPath><clipPath
       clipPathUnits="userSpaceOnUse"
       id="clipPath132"><path
         d="m 196.509,246.27 27.854,0 0,-23.43 -27.854,0 0,23.43 z"
         id="path134"
         inkscape:connector-curvature="0" /></clipPath><clipPath
       clipPathUnits="userSpaceOnUse"
       id="clipPath148"><path
         d="m 179.223,311.43 55.845,0 0,-81.438 -55.845,0 0,81.438 z"
         id="path150"
         inkscape:connector-curvature="0" /></clipPath><clipPath
       clipPathUnits="userSpaceOnUse"
       id="clipPath164"><path
         d="m 126.612,213.026 11.425,0 0,-11.377 -11.425,0 0,11.377 z"
         id="path166"
         inkscape:connector-curvature="0" /></clipPath><clipPath
       clipPathUnits="userSpaceOnUse"
       id="clipPath180"><path
         d="m 175.549,246.27 48.814,0 0,-20.403 -48.814,0 0,20.403 z"
         id="path182"
         inkscape:connector-curvature="0" /></clipPath><clipPath
       clipPathUnits="userSpaceOnUse"
       id="clipPath196"><path
         d="m 153.378,258.93 10.828,0 0,-34.765 -10.828,0 0,34.765 z"
         id="path198"
         inkscape:connector-curvature="0" /></clipPath><clipPath
       clipPathUnits="userSpaceOnUse"
       id="clipPath212"><path
         d="m 198.586,300.19 2.372,0 0,-6.69 -2.372,0 0,6.69 z"
         id="path214"
         inkscape:connector-curvature="0" /></clipPath><clipPath
       clipPathUnits="userSpaceOnUse"
       id="clipPath228"><path
         d="m 195.058,287.521 1.251,0 0,-4.43 -1.251,0 0,4.43 z"
         id="path230"
         inkscape:connector-curvature="0" /></clipPath><clipPath
       clipPathUnits="userSpaceOnUse"
       id="clipPath244"><path
         d="m 165.654,311.43 52.038,0 0,-83.778 -52.038,0 0,83.778 z"
         id="path246"
         inkscape:connector-curvature="0" /></clipPath><clipPath
       clipPathUnits="userSpaceOnUse"
       id="clipPath268"><path
         d="m 107.457,216.128 11.498,0 0,-12.869 -11.498,0 0,12.869 z"
         id="path270"
         inkscape:connector-curvature="0" /></clipPath><clipPath
       clipPathUnits="userSpaceOnUse"
       id="clipPath284"><path
         d="m 75.9043,281.379 8.3789,0 0,-46.284 -8.3789,0 0,46.284 z"
         id="path286"
         inkscape:connector-curvature="0" /></clipPath><clipPath
       clipPathUnits="userSpaceOnUse"
       id="clipPath300"><path
         d="m 27.6875,259.947 25.1895,0 0,-26.276 -25.1895,0 0,26.276 z"
         id="path302"
         inkscape:connector-curvature="0" /></clipPath><clipPath
       clipPathUnits="userSpaceOnUse"
       id="clipPath316"><path
         d="m 110.289,217.567 10.443,0 0,-12.421 -10.443,0 0,12.421 z"
         id="path318"
         inkscape:connector-curvature="0" /></clipPath><clipPath
       clipPathUnits="userSpaceOnUse"
       id="clipPath332"><path
         d="m 87.2285,264.234 8.751,0 0,-35.565 -8.751,0 0,35.565 z"
         id="path334"
         inkscape:connector-curvature="0" /></clipPath><clipPath
       clipPathUnits="userSpaceOnUse"
       id="clipPath348"><path
         d="m 20.2695,322.262 50.21,0 0,-84.071 -50.21,0 0,84.071 z"
         id="path350"
         inkscape:connector-curvature="0" /></clipPath><clipPath
       clipPathUnits="userSpaceOnUse"
       id="clipPath364"><path
         d="m 38.1172,322.275 45.5547,0 0,-87.848 -45.5547,0 0,87.848 z"
         id="path366"
         inkscape:connector-curvature="0" /></clipPath><clipPath
       clipPathUnits="userSpaceOnUse"
       id="clipPath380"><path
         d="m 27.6875,259.947 46.3525,0 0,-25.508 -46.3525,0 0,25.508 z"
         id="path382"
         inkscape:connector-curvature="0" /></clipPath><clipPath
       clipPathUnits="userSpaceOnUse"
       id="clipPath512"><path
         d="M 0,768 1024,768 1024,0 0,0 0,768 z"
         id="path514"
         inkscape:connector-curvature="0" /></clipPath><clipPath
       clipPathUnits="userSpaceOnUse"
       id="clipPath524"><path
         d="m 48,361.117 c 0,-42.801 34.698,-77.5 77.5,-77.5 l 0,0 c 42.802,0 77.5,34.699 77.5,77.5 l 0,0 c 0,42.802 -34.698,77.5 -77.5,77.5 l 0,0 c -42.802,0 -77.5,-34.698 -77.5,-77.5"
         id="path526"
         inkscape:connector-curvature="0" /></clipPath><clipPath
       clipPathUnits="userSpaceOnUse"
       id="clipPath582"><path
         d="m 83.4062,417.107 107.1498,0 0,-188.795 -107.1498,0 0,188.795 z"
         id="path584"
         inkscape:connector-curvature="0" /></clipPath><clipPath
       clipPathUnits="userSpaceOnUse"
       id="clipPath610"><path
         d="m 84.9932,382.28 34.2428,0 0,-99.798 -34.2428,0 0,99.798 z"
         id="path612"
         inkscape:connector-curvature="0" /></clipPath><clipPath
       clipPathUnits="userSpaceOnUse"
       id="clipPath698"><path
         d="m 136.179,348.39 27.69,0 0,-65.261 -27.69,0 0,65.261 z"
         id="path700"
         inkscape:connector-curvature="0" /></clipPath><clipPath
       clipPathUnits="userSpaceOnUse"
       id="clipPath734"><path
         d="M 0,768 1024,768 1024,0 0,0 0,768 z"
         id="path736"
         inkscape:connector-curvature="0" /></clipPath><clipPath
       clipPathUnits="userSpaceOnUse"
       id="clipPath746"><path
         d="m 48,533.883 c 0,-42.802 34.698,-77.5 77.5,-77.5 l 0,0 c 42.802,0 77.5,34.698 77.5,77.5 l 0,0 c 0,42.802 -34.698,77.5 -77.5,77.5 l 0,0 c -42.802,0 -77.5,-34.698 -77.5,-77.5"
         id="path748"
         inkscape:connector-curvature="0" /></clipPath><clipPath
       clipPathUnits="userSpaceOnUse"
       id="clipPath804"><path
         d="m 70.0752,597.154 140.1478,0 0,-172.125 -140.1478,0 0,172.125 z"
         id="path806"
         inkscape:connector-curvature="0" /></clipPath><clipPath
       clipPathUnits="userSpaceOnUse"
       id="clipPath828"><path
         d="m 72.2432,516.053 121.3948,0 0,-80.86 -121.3948,0 0,80.86 z"
         id="path830"
         inkscape:connector-curvature="0" /></clipPath><clipPath
       clipPathUnits="userSpaceOnUse"
       id="clipPath868"><path
         d="m 98,566.655 10.04,0 0,-10.399 -10.04,0 0,10.399 z"
         id="path870"
         inkscape:connector-curvature="0" /></clipPath><clipPath
       clipPathUnits="userSpaceOnUse"
       id="clipPath884"><path
         d="m 116.188,564.133 19.527,0 0,-12.705 -19.527,0 0,12.705 z"
         id="path886"
         inkscape:connector-curvature="0" /></clipPath><clipPath
       clipPathUnits="userSpaceOnUse"
       id="clipPath908"><path
         d="m 107.135,573.487 49.874,0 0,-41.003 -49.874,0 0,41.003 z"
         id="path910"
         inkscape:connector-curvature="0" /></clipPath><clipPath
       clipPathUnits="userSpaceOnUse"
       id="clipPath940"><path
         d="m 117.255,561.123 9.391,0 0,-8.776 -9.391,0 0,8.776 z"
         id="path942"
         inkscape:connector-curvature="0" /></clipPath><clipPath
       clipPathUnits="userSpaceOnUse"
       id="clipPath964"><path
         d="m 117.456,560.869 8.443,0 0,-7.236 -8.443,0 0,7.236 z"
         id="path966"
         inkscape:connector-curvature="0" /></clipPath><clipPath
       clipPathUnits="userSpaceOnUse"
       id="clipPath980"><path
         d="m 117.002,560.869 6.503,0 0,-6.584 -6.503,0 0,6.584 z"
         id="path982"
         inkscape:connector-curvature="0" /></clipPath><clipPath
       clipPathUnits="userSpaceOnUse"
       id="clipPath996"><path
         d="m 97.1562,564.531 7.1068,0 0,-7.397 -7.1068,0 0,7.397 z"
         id="path998"
         inkscape:connector-curvature="0" /></clipPath><clipPath
       clipPathUnits="userSpaceOnUse"
       id="clipPath1020"><path
         d="m 97.7725,564.531 6.0075,0 0,-6.753 -6.0075,0 0,6.753 z"
         id="path1022"
         inkscape:connector-curvature="0" /></clipPath><clipPath
       clipPathUnits="userSpaceOnUse"
       id="clipPath1036"><path
         d="m 97.1562,564.531 4.6348,0 0,-6.592 -4.6348,0 0,6.592 z"
         id="path1038"
         inkscape:connector-curvature="0" /></clipPath><clipPath
       clipPathUnits="userSpaceOnUse"
       id="clipPath1144"><path
         d="m 112.72,573.875 38.467,0 0,-10.892 -38.467,0 0,10.892 z"
         id="path1146"
         inkscape:connector-curvature="0" /></clipPath><clipPath
       clipPathUnits="userSpaceOnUse"
       id="clipPath1164"><path
         d="m 115.91,593.83 37.215,0 0,-25.138 -37.215,0 0,25.138 z"
         id="path1166"
         inkscape:connector-curvature="0" /></clipPath><clipPath
       clipPathUnits="userSpaceOnUse"
       id="clipPath1188"><path
         d="m 114.113,596.642 43.988,0 0,-29.566 -43.988,0 0,29.566 z"
         id="path1190"
         inkscape:connector-curvature="0" /></clipPath><clipPath
       clipPathUnits="userSpaceOnUse"
       id="clipPath1204"><path
         d="m 111.065,596.661 43.954,0 0,-29.375 -43.954,0 0,29.375 z"
         id="path1206"
         inkscape:connector-curvature="0" /></clipPath><clipPath
       clipPathUnits="userSpaceOnUse"
       id="clipPath1228"><path
         d="m 129.643,574.128 5.688,0 0,-7.623 -5.688,0 0,7.623 z"
         id="path1230"
         inkscape:connector-curvature="0" /></clipPath><clipPath
       clipPathUnits="userSpaceOnUse"
       id="clipPath1244"><path
         d="m 130.658,573.875 5.689,0 0,-7.624 -5.689,0 0,7.624 z"
         id="path1246"
         inkscape:connector-curvature="0" /></clipPath><clipPath
       clipPathUnits="userSpaceOnUse"
       id="clipPath1264"><path
         d="m 131.537,574.128 4.302,0 0,-7.265 -4.302,0 0,7.265 z"
         id="path1266"
         inkscape:connector-curvature="0" /></clipPath><clipPath
       clipPathUnits="userSpaceOnUse"
       id="clipPath1280"><path
         d="m 130.15,574.128 3.803,0 0,-7.084 -3.803,0 0,7.084 z"
         id="path1282"
         inkscape:connector-curvature="0" /></clipPath><clipPath
       clipPathUnits="userSpaceOnUse"
       id="clipPath1300"><path
         d="m 132.084,572.698 2.687,0 0,-4.539 -2.687,0 0,4.539 z"
         id="path1302"
         inkscape:connector-curvature="0" /></clipPath><clipPath
       clipPathUnits="userSpaceOnUse"
       id="clipPath1316"><path
         d="m 131.218,572.698 2.476,0 0,-4.763 -2.476,0 0,4.763 z"
         id="path1318"
         inkscape:connector-curvature="0" /></clipPath><clipPath
       clipPathUnits="userSpaceOnUse"
       id="clipPath1332"><path
         d="m 140.12,574.02 5.25,0 0,-6.573 -5.25,0 0,6.573 z"
         id="path1334"
         inkscape:connector-curvature="0" /></clipPath><clipPath
       clipPathUnits="userSpaceOnUse"
       id="clipPath1348"><path
         d="m 141.136,573.766 5.25,0 0,-6.573 -5.25,0 0,6.573 z"
         id="path1350"
         inkscape:connector-curvature="0" /></clipPath><clipPath
       clipPathUnits="userSpaceOnUse"
       id="clipPath1368"><path
         d="m 141.888,574.02 3.992,0 0,-6.05 -3.992,0 0,6.05 z"
         id="path1370"
         inkscape:connector-curvature="0" /></clipPath><clipPath
       clipPathUnits="userSpaceOnUse"
       id="clipPath1384"><path
         d="m 140.628,574.02 3.685,0 0,-6.573 -3.685,0 0,6.573 z"
         id="path1386"
         inkscape:connector-curvature="0" /></clipPath><clipPath
       clipPathUnits="userSpaceOnUse"
       id="clipPath1404"><path
         d="m 142.474,572.774 2.302,0 0,-3.889 -2.302,0 0,3.889 z"
         id="path1406"
         inkscape:connector-curvature="0" /></clipPath><clipPath
       clipPathUnits="userSpaceOnUse"
       id="clipPath1420"><path
         d="m 141.73,572.774 2.124,0 0,-4.081 -2.124,0 0,4.081 z"
         id="path1422"
         inkscape:connector-curvature="0" /></clipPath><clipPath
       clipPathUnits="userSpaceOnUse"
       id="clipPath1436"><path
         d="m 149.369,575.589 3.356,0 0,-5.878 -3.356,0 0,5.878 z"
         id="path1438"
         inkscape:connector-curvature="0" /></clipPath><clipPath
       clipPathUnits="userSpaceOnUse"
       id="clipPath1452"><path
         d="m 150.385,575.335 2.768,0 0,-5.792 -2.768,0 0,5.792 z"
         id="path1454"
         inkscape:connector-curvature="0" /></clipPath><clipPath
       clipPathUnits="userSpaceOnUse"
       id="clipPath1472"><path
         d="m 150.752,575.589 2.48,0 0,-5.58 -2.48,0 0,5.58 z"
         id="path1474"
         inkscape:connector-curvature="0" /></clipPath><clipPath
       clipPathUnits="userSpaceOnUse"
       id="clipPath1488"><path
         d="m 149.876,575.589 2.316,0 0,-5.878 -2.316,0 0,5.878 z"
         id="path1490"
         inkscape:connector-curvature="0" /></clipPath><clipPath
       clipPathUnits="userSpaceOnUse"
       id="clipPath1508"><path
         d="m 150.993,574.426 1.705,0 0,-3.397 -1.705,0 0,3.397 z"
         id="path1510"
         inkscape:connector-curvature="0" /></clipPath><clipPath
       clipPathUnits="userSpaceOnUse"
       id="clipPath1524"><path
         d="m 150.415,574.426 1.564,0 0,-3.553 -1.564,0 0,3.553 z"
         id="path1526"
         inkscape:connector-curvature="0" /></clipPath><clipPath
       clipPathUnits="userSpaceOnUse"
       id="clipPath1540"><path
         d="m 119.9,576 5.254,0 0,-7.104 -5.254,0 0,7.104 z"
         id="path1542"
         inkscape:connector-curvature="0" /></clipPath><clipPath
       clipPathUnits="userSpaceOnUse"
       id="clipPath1556"><path
         d="m 120.91,575.39 5.271,0 0,-6.748 -5.271,0 0,6.748 z"
         id="path1558"
         inkscape:connector-curvature="0" /></clipPath><clipPath
       clipPathUnits="userSpaceOnUse"
       id="clipPath1576"><path
         d="m 121.69,575.644 3.983,0 0,-6.435 -3.983,0 0,6.435 z"
         id="path1578"
         inkscape:connector-curvature="0" /></clipPath><clipPath
       clipPathUnits="userSpaceOnUse"
       id="clipPath1592"><path
         d="m 120.423,575.579 2.282,0 0,-6.09 -2.282,0 0,6.09 z"
         id="path1594"
         inkscape:connector-curvature="0" /></clipPath><clipPath
       clipPathUnits="userSpaceOnUse"
       id="clipPath1612"><path
         d="m 122.217,574.705 2.396,0 0,-4.601 -2.396,0 0,4.601 z"
         id="path1614"
         inkscape:connector-curvature="0" /></clipPath><clipPath
       clipPathUnits="userSpaceOnUse"
       id="clipPath1628"><path
         d="m 121.06,574.705 2.689,0 0,-4.731 -2.689,0 0,4.731 z"
         id="path1630"
         inkscape:connector-curvature="0" /></clipPath><clipPath
       clipPathUnits="userSpaceOnUse"
       id="clipPath1644"><path
         d="m 112.821,578.751 3.345,0 0,-5.879 -3.345,0 0,5.879 z"
         id="path1646"
         inkscape:connector-curvature="0" /></clipPath><clipPath
       clipPathUnits="userSpaceOnUse"
       id="clipPath1660"><path
         d="m 113.766,578.497 3.416,0 0,-5.878 -3.416,0 0,5.878 z"
         id="path1662"
         inkscape:connector-curvature="0" /></clipPath><clipPath
       clipPathUnits="userSpaceOnUse"
       id="clipPath1680"><path
         d="m 114.145,578.751 2.529,0 0,-5.582 -2.529,0 0,5.582 z"
         id="path1682"
         inkscape:connector-curvature="0" /></clipPath><clipPath
       clipPathUnits="userSpaceOnUse"
       id="clipPath1696"><path
         d="m 113.257,578.751 2.354,0 0,-5.581 -2.354,0 0,5.581 z"
         id="path1698"
         inkscape:connector-curvature="0" /></clipPath><clipPath
       clipPathUnits="userSpaceOnUse"
       id="clipPath1716"><path
         d="m 114.337,577.928 1.712,0 0,-3.949 -1.712,0 0,3.949 z"
         id="path1718"
         inkscape:connector-curvature="0" /></clipPath><clipPath
       clipPathUnits="userSpaceOnUse"
       id="clipPath1732"><path
         d="m 113.511,577.928 1.92,0 0,-4.06 -1.92,0 0,4.06 z"
         id="path1734"
         inkscape:connector-curvature="0" /></clipPath><clipPath
       clipPathUnits="userSpaceOnUse"
       id="clipPath1748"><path
         d="M 0,768 1024,768 1024,0 0,0 0,768 z"
         id="path1750"
         inkscape:connector-curvature="0" /></clipPath><clipPath
       clipPathUnits="userSpaceOnUse"
       id="clipPath1760"><path
         d="m 228,536.117 c 0,-42.802 34.698,-77.5 77.5,-77.5 l 0,0 c 42.802,0 77.5,34.698 77.5,77.5 l 0,0 c 0,42.802 -34.698,77.5 -77.5,77.5 l 0,0 c -42.802,0 -77.5,-34.698 -77.5,-77.5"
         id="path1762"
         inkscape:connector-curvature="0" /></clipPath><clipPath
       clipPathUnits="userSpaceOnUse"
       id="clipPath1834"><path
         d="m 319.266,624.217 53.897,0 0,-74.711 -53.897,0 0,74.711 z"
         id="path1836"
         inkscape:connector-curvature="0" /></clipPath><clipPath
       clipPathUnits="userSpaceOnUse"
       id="clipPath1850"><path
         d="m 270.849,584.472 152.916,0 0,-178.278 -152.916,0 0,178.278 z"
         id="path1852"
         inkscape:connector-curvature="0" /></clipPath><clipPath
       clipPathUnits="userSpaceOnUse"
       id="clipPath2054"><path
         d="M 0,768 1024,768 1024,0 0,0 0,768 z"
         id="path2056"
         inkscape:connector-curvature="0" /></clipPath><clipPath
       clipPathUnits="userSpaceOnUse"
       id="clipPath2066"><path
         d="m 228,361.117 c 0,-42.801 34.698,-77.5 77.5,-77.5 l 0,0 c 42.802,0 77.5,34.699 77.5,77.5 l 0,0 c 0,42.802 -34.698,77.5 -77.5,77.5 l 0,0 c -42.802,0 -77.5,-34.698 -77.5,-77.5"
         id="path2068"
         inkscape:connector-curvature="0" /></clipPath><clipPath
       clipPathUnits="userSpaceOnUse"
       id="clipPath2124"><path
         d="m 254.025,411.491 171,0 0,-170.562 -171,0 0,170.562 z"
         id="path2126"
         inkscape:connector-curvature="0" /></clipPath><clipPath
       clipPathUnits="userSpaceOnUse"
       id="clipPath2148"><path
         d="m 338.895,334.943 69.931,0 0,-80.858 -69.931,0 0,80.858 z"
         id="path2150"
         inkscape:connector-curvature="0" /></clipPath><clipPath
       clipPathUnits="userSpaceOnUse"
       id="clipPath2208"><path
         d="m 269.726,385.375 45.75,0 0,-129.289 -45.75,0 0,129.289 z"
         id="path2210"
         inkscape:connector-curvature="0" /></clipPath><clipPath
       clipPathUnits="userSpaceOnUse"
       id="clipPath2248"><path
         d="m 286.077,395.068 15.482,0 0,-10.204 -15.482,0 0,10.204 z"
         id="path2250"
         inkscape:connector-curvature="0" /></clipPath><clipPath
       clipPathUnits="userSpaceOnUse"
       id="clipPath2288"><path
         d="M 0,768 1024,768 1024,0 0,0 0,768 z"
         id="path2290"
         inkscape:connector-curvature="0" /></clipPath><clipPath
       clipPathUnits="userSpaceOnUse"
       id="clipPath2300"><path
         d="m 228,186.116 c 0,-42.802 34.698,-77.499 77.5,-77.499 l 0,0 c 42.802,0 77.5,34.697 77.5,77.499 l 0,0 c 0,42.802 -34.698,77.499 -77.5,77.499 l 0,0 c -42.802,0 -77.5,-34.697 -77.5,-77.499"
         id="path2302"
         inkscape:connector-curvature="0" /></clipPath><clipPath
       clipPathUnits="userSpaceOnUse"
       id="clipPath2358"><path
         d="m 258.341,233.648 142.781,0 0,-148.6353 -142.781,0 0,148.6353 z"
         id="path2360"
         inkscape:connector-curvature="0" /></clipPath><clipPath
       clipPathUnits="userSpaceOnUse"
       id="clipPath2382"><path
         d="m 258.42,173.87 34.287,0 0,-76.0057 -34.287,0 0,76.0057 z"
         id="path2384"
         inkscape:connector-curvature="0" /></clipPath><clipPath
       clipPathUnits="userSpaceOnUse"
       id="clipPath2406"><path
         d="m 257.662,238.148 134.46,0 0,-140.8531 -134.46,0 0,140.8531 z"
         id="path2408"
         inkscape:connector-curvature="0" /></clipPath><clipPath
       clipPathUnits="userSpaceOnUse"
       id="clipPath2422"><path
         d="m 267.864,236.151 124.003,0 0,-136.8453 -124.003,0 0,136.8453 z"
         id="path2424"
         inkscape:connector-curvature="0" /></clipPath><clipPath
       clipPathUnits="userSpaceOnUse"
       id="clipPath2438"><path
         d="m 267.441,220.876 66.413,0 0,-48.466 -66.413,0 0,48.466 z"
         id="path2440"
         inkscape:connector-curvature="0" /></clipPath><clipPath
       clipPathUnits="userSpaceOnUse"
       id="clipPath2470"><path
         d="m 272.204,233.586 74.445,0 0,-41.978 -74.445,0 0,41.978 z"
         id="path2472"
         inkscape:connector-curvature="0" /></clipPath><clipPath
       clipPathUnits="userSpaceOnUse"
       id="clipPath2510"><path
         d="m 285.177,216.011 c -1.979,-0.063 -5.012,-1.992 -5.706,-3.06 l 0,0 c -2.453,-3.78 -3.27,-10.959 -1.664,-13.409 l 0,0 c 1.71,-2.61 5.661,-3.865 8.145,-3.705 l 0,0 c 5.563,0.36 7.515,3.795 8.055,9.015 l 0,0 c 0.27,2.519 0.787,7.2 -2.52,9.54 l 0,0 c -0.826,0.584 -3.228,1.624 -5.967,1.624 l 0,0 c -0.114,0 -0.228,-0.002 -0.343,-0.005"
         id="path2512"
         inkscape:connector-curvature="0" /></clipPath><clipPath
       clipPathUnits="userSpaceOnUse"
       id="clipPath2518"><path
         d="m 284.871,211.291 15.324,0 0,-4.549 -15.324,0 0,4.549 z"
         id="path2520"
         inkscape:connector-curvature="0" /></clipPath><clipPath
       clipPathUnits="userSpaceOnUse"
       id="clipPath2534"><path
         d="m 284.871,217.88 12.083,0 0,-11.138 -12.083,0 0,11.138 z"
         id="path2536"
         inkscape:connector-curvature="0" /></clipPath><clipPath
       clipPathUnits="userSpaceOnUse"
       id="clipPath2550"><path
         d="m 284.871,221.483 5.604,0 0,-14.741 -5.604,0 0,14.741 z"
         id="path2552"
         inkscape:connector-curvature="0" /></clipPath><clipPath
       clipPathUnits="userSpaceOnUse"
       id="clipPath2566"><path
         d="m 280.322,222.064 4.549,0 0,-15.322 -4.549,0 0,15.322 z"
         id="path2568"
         inkscape:connector-curvature="0" /></clipPath><clipPath
       clipPathUnits="userSpaceOnUse"
       id="clipPath2582"><path
         d="m 273.733,218.824 11.138,0 0,-12.082 -11.138,0 0,12.082 z"
         id="path2584"
         inkscape:connector-curvature="0" /></clipPath><clipPath
       clipPathUnits="userSpaceOnUse"
       id="clipPath2598"><path
         d="m 270.13,212.346 14.741,0 0,-5.604 -14.741,0 0,5.604 z"
         id="path2600"
         inkscape:connector-curvature="0" /></clipPath><clipPath
       clipPathUnits="userSpaceOnUse"
       id="clipPath2614"><path
         d="m 269.549,206.742 15.322,0 0,-4.551 -15.322,0 0,4.551 z"
         id="path2616"
         inkscape:connector-curvature="0" /></clipPath><clipPath
       clipPathUnits="userSpaceOnUse"
       id="clipPath2630"><path
         d="m 272.789,206.742 12.082,0 0,-11.138 -12.082,0 0,11.138 z"
         id="path2632"
         inkscape:connector-curvature="0" /></clipPath><clipPath
       clipPathUnits="userSpaceOnUse"
       id="clipPath2646"><path
         d="m 279.268,206.742 5.603,0 0,-14.742 -5.603,0 0,14.742 z"
         id="path2648"
         inkscape:connector-curvature="0" /></clipPath><clipPath
       clipPathUnits="userSpaceOnUse"
       id="clipPath2662"><path
         d="m 284.871,206.742 4.549,0 0,-15.325 -4.549,0 0,15.325 z"
         id="path2664"
         inkscape:connector-curvature="0" /></clipPath><clipPath
       clipPathUnits="userSpaceOnUse"
       id="clipPath2678"><path
         d="m 284.871,206.742 11.138,0 0,-12.083 -11.138,0 0,12.083 z"
         id="path2680"
         inkscape:connector-curvature="0" /></clipPath><clipPath
       clipPathUnits="userSpaceOnUse"
       id="clipPath2694"><path
         d="m 284.871,206.742 14.742,0 0,-5.605 -14.742,0 0,5.605 z"
         id="path2696"
         inkscape:connector-curvature="0" /></clipPath><clipPath
       clipPathUnits="userSpaceOnUse"
       id="clipPath2710"><path
         d="m 228,186.116 c 0,-42.802 34.698,-77.499 77.5,-77.499 l 0,0 c 42.802,0 77.5,34.697 77.5,77.499 l 0,0 c 0,42.802 -34.698,77.499 -77.5,77.499 l 0,0 c -42.802,0 -77.5,-34.697 -77.5,-77.499"
         id="path2712"
         inkscape:connector-curvature="0" /></clipPath><clipPath
       clipPathUnits="userSpaceOnUse"
       id="clipPath2718"><path
         d="m 279.471,216.017 14.737,0 0,-17.02 -14.737,0 0,17.02 z"
         id="path2720"
         inkscape:connector-curvature="0" /></clipPath><clipPath
       clipPathUnits="userSpaceOnUse"
       id="clipPath2734"><path
         d="m 278.073,214.99 12.69,0 0,-11.389 -12.69,0 0,11.389 z"
         id="path2736"
         inkscape:connector-curvature="0" /></clipPath><clipPath
       clipPathUnits="userSpaceOnUse"
       id="clipPath2754"><path
         d="m 300.307,205.661 c -0.72,-2.88 -0.269,-6.589 1.35,-9.017 l 0,0 c 1.35,-1.981 2.879,-2.485 5.131,-3.474 l 0,0 c 3.869,-1.8 10.169,-1.387 12.958,2.123 l 0,0 c 1.981,2.52 3.803,9.895 1.531,13.122 l 0,0 c -1.835,2.603 -3.632,4.299 -7.167,5.02 l 0,0 c -1.074,0.219 -2.101,0.322 -3.075,0.322 l 0,0 c -5.789,0 -9.727,-3.627 -10.728,-8.096"
         id="path2756"
         inkscape:connector-curvature="0" /></clipPath><clipPath
       clipPathUnits="userSpaceOnUse"
       id="clipPath2762"><path
         d="m 309.712,214.639 12.082,0 0,-11.138 -12.082,0 0,11.138 z"
         id="path2764"
         inkscape:connector-curvature="0" /></clipPath><clipPath
       clipPathUnits="userSpaceOnUse"
       id="clipPath2778"><path
         d="m 309.712,218.243 5.602,0 0,-14.742 -5.602,0 0,14.742 z"
         id="path2780"
         inkscape:connector-curvature="0" /></clipPath><clipPath
       clipPathUnits="userSpaceOnUse"
       id="clipPath2794"><path
         d="m 305.162,218.825 4.55,0 0,-15.324 -4.55,0 0,15.324 z"
         id="path2796"
         inkscape:connector-curvature="0" /></clipPath><clipPath
       clipPathUnits="userSpaceOnUse"
       id="clipPath2810"><path
         d="m 298.574,215.584 11.138,0 0,-12.083 -11.138,0 0,12.083 z"
         id="path2812"
         inkscape:connector-curvature="0" /></clipPath><clipPath
       clipPathUnits="userSpaceOnUse"
       id="clipPath2826"><path
         d="m 294.97,209.105 14.742,0 0,-5.604 -14.742,0 0,5.604 z"
         id="path2828"
         inkscape:connector-curvature="0" /></clipPath><clipPath
       clipPathUnits="userSpaceOnUse"
       id="clipPath2842"><path
         d="m 294.388,203.501 15.324,0 0,-4.548 -15.324,0 0,4.548 z"
         id="path2844"
         inkscape:connector-curvature="0" /></clipPath><clipPath
       clipPathUnits="userSpaceOnUse"
       id="clipPath2858"><path
         d="m 297.629,203.501 12.083,0 0,-11.137 -12.083,0 0,11.137 z"
         id="path2860"
         inkscape:connector-curvature="0" /></clipPath><clipPath
       clipPathUnits="userSpaceOnUse"
       id="clipPath2874"><path
         d="m 304.107,203.501 5.605,0 0,-14.741 -5.605,0 0,14.741 z"
         id="path2876"
         inkscape:connector-curvature="0" /></clipPath><clipPath
       clipPathUnits="userSpaceOnUse"
       id="clipPath2890"><path
         d="m 309.712,203.501 4.548,0 0,-15.323 -4.548,0 0,15.323 z"
         id="path2892"
         inkscape:connector-curvature="0" /></clipPath><clipPath
       clipPathUnits="userSpaceOnUse"
       id="clipPath2906"><path
         d="m 309.712,203.501 11.138,0 0,-12.082 -11.138,0 0,12.082 z"
         id="path2908"
         inkscape:connector-curvature="0" /></clipPath><clipPath
       clipPathUnits="userSpaceOnUse"
       id="clipPath2922"><path
         d="m 309.712,203.501 14.741,0 0,-5.604 -14.741,0 0,5.604 z"
         id="path2924"
         inkscape:connector-curvature="0" /></clipPath><clipPath
       clipPathUnits="userSpaceOnUse"
       id="clipPath2938"><path
         d="m 309.712,208.051 15.323,0 0,-4.55 -15.323,0 0,4.55 z"
         id="path2940"
         inkscape:connector-curvature="0" /></clipPath><clipPath
       clipPathUnits="userSpaceOnUse"
       id="clipPath2954"><path
         d="m 228,186.116 c 0,-42.802 34.698,-77.499 77.5,-77.499 l 0,0 c 42.802,0 77.5,34.697 77.5,77.499 l 0,0 c 0,42.802 -34.698,77.499 -77.5,77.499 l 0,0 c -42.802,0 -77.5,-34.697 -77.5,-77.499"
         id="path2956"
         inkscape:connector-curvature="0" /></clipPath><clipPath
       clipPathUnits="userSpaceOnUse"
       id="clipPath2962"><path
         d="m 305.248,213.757 17.082,0 0,-18.464 -17.082,0 0,18.464 z"
         id="path2964"
         inkscape:connector-curvature="0" /></clipPath><clipPath
       clipPathUnits="userSpaceOnUse"
       id="clipPath2978"><path
         d="m 301.837,212.469 13.795,0 0,-13.488 -13.795,0 0,13.488 z"
         id="path2980"
         inkscape:connector-curvature="0" /></clipPath><clipPath
       clipPathUnits="userSpaceOnUse"
       id="clipPath3002"><path
         d="m 303.637,167.831 63.325,0 0,-78.3183 -63.325,0 0,78.3183 z"
         id="path3004"
         inkscape:connector-curvature="0" /></clipPath><clipPath
       clipPathUnits="userSpaceOnUse"
       id="clipPath3026"><path
         d="m 334.314,171.071 36.698,0 0,-71.2683 -36.698,0 0,71.2683 z"
         id="path3028"
         inkscape:connector-curvature="0" /></clipPath><clipPath
       clipPathUnits="userSpaceOnUse"
       id="clipPath3046"><path
         d="M 0,768 1024,768 1024,0 0,0 0,768 z"
         id="path3048"
         inkscape:connector-curvature="0" /></clipPath><clipPath
       clipPathUnits="userSpaceOnUse"
       id="clipPath3058"><path
         d="m 408,536.117 c 0,-42.802 34.698,-77.5 77.5,-77.5 l 0,0 c 42.802,0 77.5,34.698 77.5,77.5 l 0,0 c 0,42.802 -34.698,77.5 -77.5,77.5 l 0,0 c -42.802,0 -77.5,-34.698 -77.5,-77.5"
         id="path3060"
         inkscape:connector-curvature="0" /></clipPath><clipPath
       clipPathUnits="userSpaceOnUse"
       id="clipPath3116"><path
         d="m 438.781,587.971 160.04,0 0,-138.661 -160.04,0 0,138.661 z"
         id="path3118"
         inkscape:connector-curvature="0" /></clipPath><clipPath
       clipPathUnits="userSpaceOnUse"
       id="clipPath3140"><path
         d="m 575.706,528.121 11.135,0 0,-49.987 -11.135,0 0,49.987 z"
         id="path3142"
         inkscape:connector-curvature="0" /></clipPath><clipPath
       clipPathUnits="userSpaceOnUse"
       id="clipPath3188"><path
         d="m 495.493,545.319 93.89,0 0,-39.655 -93.89,0 0,39.655 z"
         id="path3190"
         inkscape:connector-curvature="0" /></clipPath><clipPath
       clipPathUnits="userSpaceOnUse"
       id="clipPath3212"><path
         d="m 527.791,527.143 59.061,0 0,-39.016 -59.061,0 0,39.016 z"
         id="path3214"
         inkscape:connector-curvature="0" /></clipPath><clipPath
       clipPathUnits="userSpaceOnUse"
       id="clipPath3236"><path
         d="m 507.09,487.143 29.179,0 0,-36.931 -29.179,0 0,36.931 z"
         id="path3238"
         inkscape:connector-curvature="0" /></clipPath><clipPath
       clipPathUnits="userSpaceOnUse"
       id="clipPath3272"><path
         d="m 463.675,571.134 2.555,0 0,-4.029 -2.555,0 0,4.029 z"
         id="path3274"
         inkscape:connector-curvature="0" /></clipPath><clipPath
       clipPathUnits="userSpaceOnUse"
       id="clipPath3288"><path
         d="m 466.432,553.293 18.654,0 0,-90.323 -18.654,0 0,90.323 z"
         id="path3290"
         inkscape:connector-curvature="0" /></clipPath><clipPath
       clipPathUnits="userSpaceOnUse"
       id="clipPath3304"><path
         d="m 495.211,535.912 22.394,0 0,-21.68 -22.394,0 0,21.68 z"
         id="path3306"
         inkscape:connector-curvature="0" /></clipPath><clipPath
       clipPathUnits="userSpaceOnUse"
       id="clipPath3320"><path
         d="M 0,768 1024,768 1024,0 0,0 0,768 z"
         id="path3322"
         inkscape:connector-curvature="0" /></clipPath><clipPath
       clipPathUnits="userSpaceOnUse"
       id="clipPath3332"><path
         d="m 408.256,361.117 c 0,-42.801 34.698,-77.5 77.5,-77.5 l 0,0 c 42.801,0 77.5,34.699 77.5,77.5 l 0,0 c 0,42.802 -34.699,77.5 -77.5,77.5 l 0,0 c -42.802,0 -77.5,-34.698 -77.5,-77.5"
         id="path3334"
         inkscape:connector-curvature="0" /></clipPath><clipPath
       clipPathUnits="userSpaceOnUse"
       id="clipPath3390"><path
         d="m 460.505,414.483 179.594,0 0,-183.402 -179.594,0 0,183.402 z"
         id="path3392"
         inkscape:connector-curvature="0" /></clipPath><clipPath
       clipPathUnits="userSpaceOnUse"
       id="clipPath3462"><path
         d="m 462.712,400.909 3.423,0 0,-1.983 -3.423,0 0,1.983 z"
         id="path3464"
         inkscape:connector-curvature="0" /></clipPath><clipPath
       clipPathUnits="userSpaceOnUse"
       id="clipPath3486"><path
         d="m 482.274,388.666 23.055,0 0,-8.095 -23.055,0 0,8.095 z"
         id="path3488"
         inkscape:connector-curvature="0" /></clipPath><clipPath
       clipPathUnits="userSpaceOnUse"
       id="clipPath3506"><path
         d="m 490.869,389.44 13.788,0 0,-8.146 -13.788,0 0,8.146 z"
         id="path3508"
         inkscape:connector-curvature="0" /></clipPath><clipPath
       clipPathUnits="userSpaceOnUse"
       id="clipPath3522"><path
         d="m 525.493,299.603 97.907,0 0,-61.254 -97.907,0 0,61.254 z"
         id="path3524"
         inkscape:connector-curvature="0" /></clipPath><clipPath
       clipPathUnits="userSpaceOnUse"
       id="clipPath3546"><path
         d="m 489.459,322.129 139.97,0 0,-29.732 -139.97,0 0,29.732 z"
         id="path3548"
         inkscape:connector-curvature="0" /></clipPath><clipPath
       clipPathUnits="userSpaceOnUse"
       id="clipPath3570"><path
         d="M 0,768 1024,768 1024,0 0,0 0,768 z"
         id="path3572"
         inkscape:connector-curvature="0" /></clipPath></defs><sodipodi:namedview
     pagecolor="#ffffff"
     bordercolor="#666666"
     borderopacity="1"
     objecttolerance="10"
     gridtolerance="10"
     guidetolerance="10"
     inkscape:pageopacity="0"
     inkscape:pageshadow="2"
     inkscape:window-width="1600"
     inkscape:window-height="837"
     id="namedview4"
     showgrid="false"
     inkscape:zoom="0.675"
     inkscape:cx="462.96296"
     inkscape:cy="240.28777"
     inkscape:window-x="-8"
     inkscape:window-y="-8"
     inkscape:window-maximized="1"
     inkscape:current-layer="g10" /><g
     id="g10"
     inkscape:groupmode="layer"
     inkscape:label="tiericons_cs5"
     transform="matrix(1.25,0,0,-1.25,0,200)"><g
       id="g7698"
       transform="translate(-405.7559,-281.1172)"><g
         id="g3328"><g
           clip-path="url(#clipPath3332)"
           id="g3330"><path
             id="path3336"
             style="fill:#acdef9;fill-opacity:1;fill-rule:nonzero;stroke:none"
             d="m 563.512,283.671 -155.906,0 0,155.906 155.906,0 0,-155.906 z"
             inkscape:connector-curvature="0" /><g
             transform="translate(485.749,487.5479)"
             id="g3338"><path
               id="path3340"
               style="fill:#e4f9f7;fill-opacity:1;fill-rule:nonzero;stroke:none"
               d="M 0,0 0.007,-126.432 26.992,-4.848 0,0 z"
               inkscape:connector-curvature="0" /></g><g
             transform="translate(422.7979,470.6055)"
             id="g3342"><path
               id="path3344"
               style="fill:#e4f9f7;fill-opacity:1;fill-rule:nonzero;stroke:none"
               d="M 0,0 62.958,-109.489 25.79,9.354 0,0 z"
               inkscape:connector-curvature="0" /></g><g
             transform="translate(376.7168,424.3252)"
             id="g3346"><path
               id="path3348"
               style="fill:#e4f9f7;fill-opacity:1;fill-rule:nonzero;stroke:none"
               d="M 0,0 109.039,-63.209 17.677,21.051 0,0 z"
               inkscape:connector-curvature="0" /></g><g
             transform="translate(359.8525,361.1084)"
             id="g3350"><path
               id="path3352"
               style="fill:#e4f9f7;fill-opacity:1;fill-rule:nonzero;stroke:none"
               d="M 0,0 125.903,0.008 4.827,27.105 0,0 z"
               inkscape:connector-curvature="0" /></g><g
             transform="translate(376.7246,297.8945)"
             id="g3354"><path
               id="path3356"
               style="fill:#e4f9f7;fill-opacity:1;fill-rule:nonzero;stroke:none"
               d="M 0,0 109.031,63.222 -9.316,25.897 0,0 z"
               inkscape:connector-curvature="0" /></g><g
             transform="translate(422.8105,251.6191)"
             id="g3358"><path
               id="path3360"
               style="fill:#e4f9f7;fill-opacity:1;fill-rule:nonzero;stroke:none"
               d="M 0,0 62.945,109.497 -20.962,17.752 0,0 z"
               inkscape:connector-curvature="0" /></g><g
             transform="translate(485.7637,234.6855)"
             id="g3362"><path
               id="path3364"
               style="fill:#e4f9f7;fill-opacity:1;fill-rule:nonzero;stroke:none"
               d="M 0,0 -0.008,126.431 -26.992,4.847 0,0 z"
               inkscape:connector-curvature="0" /></g><g
             transform="translate(548.7139,251.627)"
             id="g3366"><path
               id="path3368"
               style="fill:#e4f9f7;fill-opacity:1;fill-rule:nonzero;stroke:none"
               d="M 0,0 -62.958,109.489 -25.789,-9.354 0,0 z"
               inkscape:connector-curvature="0" /></g><g
             transform="translate(594.7959,297.9063)"
             id="g3370"><path
               id="path3372"
               style="fill:#e4f9f7;fill-opacity:1;fill-rule:nonzero;stroke:none"
               d="M 0,0 -109.04,63.21 -17.678,-21.05 0,0 z"
               inkscape:connector-curvature="0" /></g><g
             transform="translate(611.6592,361.123)"
             id="g3374"><path
               id="path3376"
               style="fill:#e4f9f7;fill-opacity:1;fill-rule:nonzero;stroke:none"
               d="M 0,0 -125.903,-0.007 -4.827,-27.105 0,0 z"
               inkscape:connector-curvature="0" /></g><g
             transform="translate(594.7881,424.3379)"
             id="g3378"><path
               id="path3380"
               style="fill:#e4f9f7;fill-opacity:1;fill-rule:nonzero;stroke:none"
               d="M 0,0 -109.032,-63.222 9.315,-25.897 0,0 z"
               inkscape:connector-curvature="0" /></g><g
             transform="translate(548.7012,470.6123)"
             id="g3382"><path
               id="path3384"
               style="fill:#e4f9f7;fill-opacity:1;fill-rule:nonzero;stroke:none"
               d="M 0,0 -62.945,-109.496 20.963,-17.751 0,0 z"
               inkscape:connector-curvature="0" /></g><g
             id="g3386"><g
               id="g3388" /><g
               id="g3394"><g
                 id="g3396"
                 clip-path="url(#clipPath3390)"
                 style="opacity:0.60000598"><g
                   id="g3398"
                   transform="translate(638.0781,318.3291)"><path
                     id="path3400"
                     style="fill:#1b0000;fill-opacity:1;fill-rule:nonzero;stroke:none"
                     d="m 0,0 c -0.285,0.018 -0.551,-0.094 -0.806,-0.269 -1.1,-0.243 -1.938,-2.114 -2.88,-2.52 -0.023,-0.014 -0.044,-0.022 -0.068,-0.033 -1.685,-0.616 -2.543,0.409 -3.708,0.037 -5.629,-1.654 -10.716,-6.613 -17.081,-7.715 -7.122,-1.551 -14.902,2.646 -21.862,3.852 -6.714,1.187 -31.001,6.4 -38.038,6.348 -23.37,-0.01 -30.696,-8.417 -51.168,5.446 l -4.838,1.874 c 0.062,-0.198 -6.431,9.724 -8.63,19.348 -1.692,8.118 -3.691,32.302 -3.985,35.938 -0.008,0.204 -0.016,0.4 -0.025,0.592 0.038,0.487 0.118,0.917 0.228,1.311 l 1.492,2.103 c -0.164,-0.106 -0.341,-0.201 -0.529,-0.286 0.5,0.551 1.123,0.942 1.837,1.217 0.088,-0.056 0.174,-0.114 0.272,-0.163 1.582,-1.453 4.774,-1.793 6.791,-2.53 2.333,-0.901 4.929,-1.573 7.404,-2.232 4.563,-1.423 14.18,-4.336 15.27,-2.859 1.669,2.446 -6.33,8.063 -8.576,10.47 0.943,0.182 1.879,0.368 2.855,0.516 4.524,0.778 9.859,2.243 10.766,3.142 1.144,1.321 -4.422,3.469 -12.133,5.71 -1.922,0.555 -4.134,2.498 -6.184,3.323 -2.377,0.928 -4.547,0.76 -6.101,1.672 -0.9,0.516 -1.813,1.217 -3.099,1.705 -4.698,5.528 -12.349,11.397 -21.201,9.928 -0.574,-0.1 -1.12,-0.217 -1.649,-0.345 -0.167,-0.041 -0.326,-0.089 -0.489,-0.132 -0.356,-0.095 -0.707,-0.195 -1.041,-0.303 -0.174,-0.057 -0.342,-0.116 -0.51,-0.175 -0.314,-0.112 -0.621,-0.23 -0.918,-0.354 -0.15,-0.062 -0.3,-0.125 -0.447,-0.19 -0.32,-0.145 -0.627,-0.298 -0.925,-0.456 -0.1,-0.053 -0.205,-0.104 -0.301,-0.157 -0.796,-0.447 -1.51,-0.943 -2.151,-1.482 -0.06,-0.051 -0.115,-0.104 -0.174,-0.155 -0.255,-0.225 -0.502,-0.455 -0.734,-0.694 -0.064,-0.066 -0.129,-0.134 -0.191,-0.203 -0.223,-0.239 -0.436,-0.484 -0.636,-0.735 -0.048,-0.062 -0.099,-0.121 -0.146,-0.183 -0.227,-0.297 -0.442,-0.6 -0.642,-0.914 -0.01,-0.014 -0.021,-0.029 -0.03,-0.045 -0.437,-0.691 -0.808,-1.418 -1.12,-2.175 -0.014,-0.036 -0.027,-0.071 -0.042,-0.106 -0.132,-0.329 -0.253,-0.664 -0.365,-1.004 -0.025,-0.077 -0.05,-0.154 -0.074,-0.231 -0.094,-0.303 -0.182,-0.61 -0.261,-0.919 -0.024,-0.096 -0.05,-0.191 -0.073,-0.286 -0.071,-0.298 -0.135,-0.6 -0.193,-0.904 -0.02,-0.103 -0.043,-0.206 -0.062,-0.31 -0.054,-0.301 -0.099,-0.604 -0.14,-0.908 -0.058,-0.422 -0.107,-0.848 -0.146,-1.277 -0.001,-0.019 -0.004,-0.038 -0.005,-0.056 -0.009,-0.093 -0.02,-0.185 -0.028,-0.278 0.004,0.014 0.008,0.026 0.011,0.039 -0.359,-4.671 0.382,-9.705 0.949,-14.026 0.147,-1.278 3.137,-8.633 5.259,-14.797 2.327,-6.688 5.284,-29.945 5.949,-36.318 1.343,-12.854 -4.953,-26.319 -2.283,-39.305 0.148,-0.789 0.324,-1.568 0.513,-2.342 0.037,-0.148 0.072,-0.297 0.11,-0.445 0.193,-0.755 0.402,-1.504 0.631,-2.246 0.032,-0.101 0.065,-0.199 0.097,-0.3 0.233,-0.738 0.481,-1.47 0.748,-2.196 0.016,-0.041 0.029,-0.085 0.045,-0.127 0.283,-0.766 0.586,-1.524 0.902,-2.278 0.038,-0.089 0.077,-0.179 0.116,-0.27 0.656,-1.54 1.377,-3.054 2.15,-4.548 0.02,-0.039 0.039,-0.076 0.059,-0.114 0.389,-0.749 0.791,-1.493 1.205,-2.234 0.027,-0.048 0.054,-0.096 0.082,-0.144 0.799,-1.424 1.638,-2.83 2.507,-4.227 0.118,-0.191 0.238,-0.383 0.358,-0.574 0.295,-0.469 0.593,-0.937 0.893,-1.404 3.017,-4.697 6.283,-9.302 9.318,-14.006 6.6,-10.724 21.48,-17.455 32.865,-20.192 11.369,-2.987 39.485,-7.551 50.153,-5.722 5.074,0.686 26.136,7.879 31.863,11.032 11.483,6.556 27.166,31.762 23.133,44.593 -0.371,1.396 0.247,3.471 0.587,4.835 0.054,0.132 0.109,0.264 0.166,0.398 0.972,0.384 1.741,1.007 2.097,2.074 0.044,0.038 0.083,0.082 0.125,0.121 0.096,0.087 0.191,0.177 0.282,0.273 0.056,0.059 0.11,0.119 0.163,0.18 0.087,0.099 0.172,0.202 0.255,0.308 0.036,0.044 0.073,0.087 0.107,0.133 2.112,-0.07 4.791,0.169 4.913,2.11 0.069,0.78 -0.388,1.671 -1.036,2.494 0.047,0.142 0.082,0.293 0.093,0.459 0.044,0.498 -0.125,1.041 -0.42,1.582 0.228,0.326 0.449,0.654 0.662,0.988 0.089,0.141 0.179,0.281 0.266,0.423 0.284,0.46 0.551,0.929 0.803,1.405 0.066,0.127 0.129,0.256 0.193,0.385 0.236,0.467 0.458,0.941 0.663,1.424 0.025,0.059 0.052,0.117 0.077,0.175 0.227,0.554 0.426,1.12 0.609,1.693 0.015,0.047 0.035,0.091 0.05,0.139 0.005,0.018 0.008,0.038 0.012,0.055 0.169,0.553 0.324,1.111 0.449,1.682 C 1.673,-5.384 3.287,0.291 0,0"
                     inkscape:connector-curvature="0" /></g></g></g></g><g
             transform="translate(628.0986,318.9678)"
             id="g3402"><path
               id="path3404"
               style="fill:#f4f4f4;fill-opacity:1;fill-rule:nonzero;stroke:none"
               d="m 0,0 c -1.241,0.079 -2.135,-2.135 -3.173,-2.564 -2.087,-1.122 -2.997,0.191 -4.289,-0.222 -5.629,-1.654 -10.716,-6.613 -17.081,-7.715 -7.122,-1.551 -14.902,2.647 -21.862,3.852 -6.714,1.188 -31.001,6.401 -38.038,6.348 -23.37,-0.01 -30.697,-8.416 -51.169,5.447 l -4.838,1.874 c 0.063,-0.199 -6.43,9.724 -8.629,19.347 -1.832,8.787 -4.024,36.416 -4.024,36.416 0.672,10.509 18.512,-1.257 15.207,15.236 -0.75,3.68 -11.875,20.265 -26.101,17.906 -16.488,-2.846 -13.951,-18.142 -12.533,-28.965 0.147,-1.278 3.136,-8.633 5.258,-14.796 2.328,-6.689 5.285,-29.946 5.949,-36.319 1.344,-12.853 -4.952,-26.319 -2.281,-39.304 2.625,-13.995 11.952,-25.397 19.734,-37.455 6.599,-10.725 21.48,-17.455 32.864,-20.193 11.37,-2.987 39.485,-7.551 50.153,-5.721 5.074,0.686 26.136,7.878 31.863,11.032 11.482,6.555 27.165,31.762 23.132,44.593 -0.582,1.861 0.122,4.078 1.305,6.408 0.152,0.056 0.309,0.108 0.447,0.186 2.854,1.316 3.604,5.286 5.288,7.952 1.922,2.637 3.375,5.564 4.077,8.79 C 1.673,-5.385 3.287,0.291 0,0"
               inkscape:connector-curvature="0" /></g><g
             transform="translate(627.9785,319.4014)"
             id="g3406"><path
               id="path3408"
               style="fill:#cecece;fill-opacity:1;fill-rule:nonzero;stroke:none"
               d="m 0,0 c -2.531,-0.89 -2.577,-3.563 -6.301,-2.734 -1.228,0.273 -2.813,-0.576 -3.834,-1.07 -7.46,-3.61 -13.183,-8.03 -21.983,-6.556 -5.402,0.904 -10.551,3.043 -15.949,4.063 -4.447,0.841 -8.882,1.743 -13.327,2.596 -8.639,1.657 -17.402,3.59 -26.238,3.359 -10.406,-0.272 -20.913,-3.71 -31.302,-1.959 -5.96,1.004 -11.361,4.116 -16.331,7.403 -0.949,0.627 -2.359,0.917 -3.415,1.325 -1.713,0.664 -2.047,1.575 -2.982,3.176 -5.759,9.858 -7.616,19.72 -8.831,30.838 -0.79,7.23 -1.441,14.477 -2.025,21.726 -0.554,6.879 9.907,3.729 13.409,6.556 4.506,3.637 1.554,10.509 -1.059,14.334 -4.588,6.714 -11.64,12.286 -19.911,13.082 -20.248,1.949 -19.663,-22.383 -14.876,-35.298 3.545,-9.565 5.658,-18.66 7.151,-28.748 1.706,-11.531 2.836,-21.942 0.952,-33.584 -1.023,-6.326 -2.04,-12.572 -1.586,-19.004 0.426,-6.063 2.737,-11.946 5.358,-17.36 2.866,-5.919 6.664,-11.379 10.339,-16.813 3.425,-5.064 6.423,-10.161 10.991,-14.292 14.249,-12.887 35.962,-15.659 54.249,-17.957 7.77,-0.977 16.169,-2.093 23.943,-0.592 8.378,1.617 16.718,4.964 24.626,8.086 15.223,6.008 26.076,21.937 29.659,37.619 0.773,3.389 0.892,6.925 -0.032,10.287 -1.896,6.904 1.476,4.827 3.501,7.67 1.448,2.032 2.275,4.365 3.494,6.529 1.331,2.36 9.228,16.671 2.43,17.335 -0.577,0.056 -0.572,-0.845 0,-0.901 5.512,-0.538 -3.629,-16.676 -4.342,-18.162 -1.354,-2.822 -2.14,-3.475 -4.529,-5.864 -0.951,-0.951 -1.82,-4.048 -1.629,-5.388 0.75,-5.264 0.87,-9.482 -0.656,-14.69 -1.693,-5.774 -4.68,-11.172 -7.958,-16.181 -5.783,-8.837 -12.498,-14.422 -22.232,-18.189 -7.948,-3.077 -16.577,-6.664 -25.105,-7.668 -10.404,-1.225 -21.647,0.893 -31.875,2.556 -10.528,1.711 -21.05,3.879 -30.774,8.393 -5.648,2.622 -10.862,6.175 -15.151,10.696 -4.871,5.134 -8.573,12.14 -12.427,18.068 -3.838,5.903 -7.174,12.068 -9.329,18.794 -2.666,8.322 -1.752,16.618 -0.38,25.069 1.02,6.277 2.021,12.48 1.514,18.861 -0.289,3.635 -0.848,7.271 -1.337,10.882 -1.223,9.031 -2.151,18.475 -5.175,27.118 -3.423,9.787 -6.987,18.883 -5.357,29.484 0.893,5.814 4.654,9.709 10.148,11.534 6.911,2.296 13.689,-0.45 19.074,-4.79 4.116,-3.318 16.451,-18.029 5.652,-21.112 -4.24,-1.211 -10.297,0.375 -11.577,-5.254 -0.355,-1.561 0.098,-3.439 0.231,-4.995 0.373,-4.387 0.779,-8.772 1.214,-13.153 0.917,-9.229 1.594,-18.5 5.081,-27.177 1.221,-3.037 2.749,-5.954 4.361,-8.8 0.402,-0.71 1.117,-2.659 1.989,-2.996 6.208,-2.404 11.521,-6.413 17.894,-8.488 13.185,-4.291 27.509,2.143 40.987,1.004 12.666,-1.07 25.841,-3.837 38.192,-6.858 7.871,-1.926 15.42,-5.493 23.405,-1.842 3.795,1.734 10.069,7.178 14.356,6.223 3.025,-0.673 3.446,2.095 5.855,2.942 C 0.783,-0.677 0.55,0.193 0,0"
               inkscape:connector-curvature="0" /></g><g
             transform="translate(618.2402,287.7646)"
             id="g3410"><path
               id="path3412"
               style="fill:#c1c1c1;fill-opacity:1;fill-rule:nonzero;stroke:none"
               d="M 0,0 C -0.578,2.184 1.26,6.031 0.677,6.216 -0.139,6.473 -3.904,7.937 -7.035,5.402 -0.7,-4.295 -13.541,-34.144 -23.132,-44.593 -11.649,-38.038 3.445,-13.002 0,0"
               inkscape:connector-curvature="0" /></g><g
             transform="translate(466.1777,360.7275)"
             id="g3414"><path
               id="path3416"
               style="fill:#c1c1c1;fill-opacity:1;fill-rule:nonzero;stroke:none"
               d="m 0,0 c -1.083,4.239 -3.041,8.356 -9.352,10.404 2.329,-6.689 5.286,-29.946 5.95,-36.319 1.344,-12.853 -4.952,-26.318 -2.282,-39.304 1.623,-8.657 5.804,-16.319 10.61,-23.754 5.679,-0.764 7.586,28.03 5.834,41.855 -0.847,6.464 -6.043,10.715 -6.995,15.513 C 0.686,-16.152 1.577,-6.967 0,0"
               inkscape:connector-curvature="0" /></g><g
             transform="translate(477.6768,391.5313)"
             id="g3418"><path
               id="path3420"
               style="fill:#c1c1c1;fill-opacity:1;fill-rule:nonzero;stroke:none"
               d="m 0,0 c -0.901,2.861 -0.708,8.667 -1.566,8.901 -4.945,1.313 -5.283,4.115 -11.349,4.701 -4.504,0.436 -7.494,-3.289 -5.432,-8.524 C -16.529,0.533 -6.573,4.802 0,0"
               inkscape:connector-curvature="0" /></g><g
             transform="translate(466.1191,412.1689)"
             id="g3422"><path
               id="path3424"
               style="fill:#c1c1c1;fill-opacity:1;fill-rule:nonzero;stroke:none"
               d="M 0,0 C 9.406,0.939 23.334,-11.812 20.168,-8.409 14.846,-2.747 6.892,4.188 -2.018,2.724 -11.932,1.013 -14.96,-5.207 -15.512,-12.253 -13.338,-4.347 -6.862,-0.685 0,0"
               inkscape:connector-curvature="0" /></g><g
             transform="translate(512.8203,392.5537)"
             id="g3426"><path
               id="path3428"
               style="fill:#d18f30;fill-opacity:1;fill-rule:nonzero;stroke:none"
               d="m 0,0 c 1.143,1.321 -4.422,3.47 -12.135,5.71 -1.921,0.555 -4.133,2.498 -6.181,3.323 -2.379,0.929 -4.549,0.761 -6.102,1.672 -1.088,0.624 -2.186,1.523 -3.948,1.982 0,0 -5.364,-3.819 -8.271,-4.975 -0.28,-3.774 0.157,-5.265 1.041,-8.252 -0.347,-1.034 -0.961,-1.368 -0.877,-2.378 0.255,-1.876 0.776,-2.997 1.962,-3.589 1.582,-1.453 4.775,-1.793 6.791,-2.529 2.333,-0.902 4.929,-1.574 7.405,-2.233 4.562,-1.422 14.178,-4.335 15.27,-2.859 1.668,2.447 -6.331,8.064 -8.576,10.471 0.941,0.182 1.878,0.367 2.854,0.515 C -6.244,-2.364 -0.907,-0.897 0,0"
               inkscape:connector-curvature="0" /></g><g
             transform="translate(513.209,392.3267)"
             id="g3430"><path
               id="path3432"
               style="fill:#c97c2f;fill-opacity:1;fill-rule:nonzero;stroke:none"
               d="m 0,0 c 0.561,1.219 -0.605,1.882 -1.561,2.465 -4.459,2.728 -9.952,3.036 -14.409,5.817 -1.962,1.224 -3.7,1.809 -5.976,2.255 -2.247,0.44 -4.517,2.827 -6.809,2.827 -0.677,0 -1.803,-1.145 -2.302,-1.48 -1.98,-1.33 -4.016,-2.58 -6.196,-3.556 -0.144,-0.065 -0.216,-0.242 -0.223,-0.389 -0.093,-1.977 -0.042,-3.808 0.332,-5.743 0.349,-1.81 -0.168,-3.185 -0.168,-4.887 0,-2.726 1.981,-4.115 4.201,-5.115 3.754,-1.692 8.314,-2.611 12.287,-3.669 4.062,-1.082 7.994,-2.479 12.164,-3.138 3.525,-0.556 5.134,1.288 2.561,4.298 -1.228,1.437 -2.589,2.707 -4.001,3.962 -0.796,0.708 -3.694,2.507 -2.377,2.76 3.922,0.75 8.932,1.085 12.316,3.431 0.473,0.329 0.023,1.109 -0.455,0.778 -3.637,-2.523 -9.282,-2.803 -13.513,-3.612 -0.341,-0.066 -0.424,-0.527 -0.199,-0.753 2.226,-2.23 4.745,-4.135 6.925,-6.42 2.475,-2.596 0.714,-3.849 -2.02,-3.417 -1.965,0.31 -3.901,0.865 -5.818,1.387 -3.783,1.031 -7.586,2.116 -11.32,3.309 -4.736,1.513 -10.78,1.948 -8.99,8.457 0.173,0.628 -0.557,2.223 -0.724,2.868 -0.878,3.388 -0.346,5.05 2.545,6.7 1.361,0.777 2.665,1.661 3.965,2.534 1.941,1.303 2.918,-0.394 4.839,-1.171 C -23.165,9.786 -0.296,1.502 -0.777,0.454 -1.018,-0.069 -0.242,-0.527 0,0"
               inkscape:connector-curvature="0" /></g><g
             transform="translate(476.209,389.7295)"
             id="g3434"><path
               id="path3436"
               style="fill:#c97c2f;fill-opacity:1;fill-rule:nonzero;stroke:none"
               d="m 0,0 c 2.585,-2.078 4.134,-1.771 7.19,-0.769 5.053,1.658 10.646,-0.727 15.8,-0.514 0.578,0.024 0.58,0.924 0,0.9 C 19.438,-0.53 15.811,0.29 12.269,0.54 8.514,0.806 3.877,-1.969 0.637,0.637 0.188,0.997 -0.452,0.364 0,0"
               inkscape:connector-curvature="0" /></g><g
             transform="translate(486.8115,397.5098)"
             id="g3438"><path
               id="path3440"
               style="fill:#2d230c;fill-opacity:1;fill-rule:nonzero;stroke:none"
               d="M 0,0 C 0.989,0.673 2.226,0.306 3.16,0.246 3.807,0.205 4.622,-0.347 4.985,-1.096 3.944,-1.795 2.493,-1.005 1.732,-0.82 1.183,-0.637 0,0 0,0"
               inkscape:connector-curvature="0" /></g><g
             transform="translate(462.9873,401.1406)"
             id="g3442"><path
               id="path3444"
               style="fill:#d18f30;fill-opacity:1;fill-rule:nonzero;stroke:none"
               d="M 0,0 C 1.344,0.327 2.46,0.768 3.782,0.255 5.099,-0.326 6.11,-1.563 5.415,-3.021 4.356,-5.216 -0.366,-4.171 -1.06,-2.112 0.03,-2.1 2.104,-3.735 3.112,-2.462 4.384,-0.869 1.775,-0.274 0.839,-0.098 0.694,-0.065 0,0 0,0"
               inkscape:connector-curvature="0" /></g><g
             transform="translate(476.7285,385.2793)"
             id="g3446"><path
               id="path3448"
               style="fill:#c1c1c1;fill-opacity:1;fill-rule:nonzero;stroke:none"
               d="m 0,0 c -2.617,-1.681 -8.447,-0.728 -11.459,-0.865 5.879,-0.793 5.063,-4.767 6.277,-6.439 1.164,-1.585 2.332,-4.334 3.922,-5.443 -0.354,2.119 -0.324,7.389 -0.508,10.255 L 0,0 z"
               inkscape:connector-curvature="0" /></g><g
             transform="translate(464.6836,400.8994)"
             id="g3450"><path
               id="path3452"
               style="fill:#262826;fill-opacity:1;fill-rule:nonzero;stroke:none"
               d="m 0,0 c -0.708,0.046 -2.006,-0.132 -1.971,-1.063 0.129,-2.318 4.315,-2.429 4.698,-0.912 0,0 0.323,1.781 -2.727,1.975"
               inkscape:connector-curvature="0" /></g><g
             transform="translate(464.6836,400.8994)"
             id="g3454"><path
               id="path3456"
               style="fill:#000000;fill-opacity:1;fill-rule:nonzero;stroke:none"
               d="m 0,0 c -0.264,0.018 -0.637,0.01 -0.979,-0.076 2.01,-0.485 2.34,-0.737 2.631,-1.228 0.166,-0.274 -0.291,-1.157 -0.371,-1.635 0.726,0.098 1.309,0.492 1.446,0.964 0,0 0.323,1.781 -2.727,1.975"
               inkscape:connector-curvature="0" /></g><g
             id="g3458"><g
               id="g3460" /><g
               id="g3466"><g
                 id="g3468"
                 clip-path="url(#clipPath3462)"
                 style="opacity:0.5"><g
                   id="g3470"
                   transform="translate(464.6836,400.9023)"><path
                     id="path3472"
                     style="fill:#ffffff;fill-opacity:1;fill-rule:nonzero;stroke:none"
                     d="m 0,0 c -0.708,0.046 -2.006,-0.135 -1.971,-1.065 0.013,-0.355 0.131,-0.653 0.31,-0.912 0.013,0.311 0.223,0.604 0.76,1.195 0.366,0.393 1.13,0.488 2.352,0.502 C 1.08,-0.141 0.617,-0.039 0,0"
                     inkscape:connector-curvature="0" /></g></g></g></g><g
             transform="translate(476.623,389.2881)"
             id="g3474"><path
               id="path3476"
               style="fill:#c97c2f;fill-opacity:1;fill-rule:nonzero;stroke:none"
               d="m 0,0 c 3.523,-4.378 11.207,-5.428 16.312,-6.747 3.165,-0.818 13.61,-7.59 14.472,-1.173 0.077,0.574 -0.824,0.566 -0.9,0 -0.53,-3.945 -7.095,-0.129 -8.804,0.562 -2.247,0.908 -4.577,1.489 -6.915,2.093 C 9.795,-4.136 3.605,-3.054 0.637,0.637 0.272,1.089 -0.36,0.448 0,0"
               inkscape:connector-curvature="0" /></g><g
             transform="translate(479.6045,387.4531)"
             id="g3478"><path
               id="path3480"
               style="fill:#bf722c;fill-opacity:1;fill-rule:nonzero;stroke:none"
               d="m 0,0 c 1.53,-1.069 10.678,-3.452 11.383,-3.713 1.728,-0.617 8.75,-2.727 10.398,-3.556 0.787,-0.392 2.877,-0.782 3.791,-0.84 1.654,-0.107 1.517,1.534 1.507,2.232 -0.019,0.82 -6.344,6.023 -7.785,7.116 C 17.418,0.73 7.466,2.643 5.831,2.215 4.528,1.897 2.866,1.421 1.618,0.91 0.311,0.293 -0.962,0.812 -2.124,1.608 -2.124,1.608 -0.218,0.141 0,0"
               inkscape:connector-curvature="0" /></g><g
             id="g3482"><g
               id="g3484" /><g
               id="g3490"><g
                 id="g3492"
                 clip-path="url(#clipPath3486)"
                 style="opacity:0.30000299"><g
                   id="g3494"
                   transform="translate(504.0879,382.6172)"><path
                     id="path3496"
                     style="fill:#000000;fill-opacity:1;fill-rule:nonzero;stroke:none"
                     d="m 0,0 c 0.135,-1.01 -2.516,0.025 -6.243,1.312 -4.794,1.665 -11.228,3.938 -14.257,4.737 -0.506,-0.207 -0.964,-0.383 -1.313,-0.463 1.274,-0.855 2.408,-1.015 3.818,-1.57 1.661,-0.667 3.322,-1.574 5.046,-1.991 3.455,-0.917 6.783,-2.129 10.197,-3.484 0.626,-0.229 3.139,-0.783 3.74,-0.516 C 1.813,-1.646 0.395,-0.595 0,0"
                     inkscape:connector-curvature="0" /></g></g></g></g><g
             transform="translate(504.0342,382.9355)"
             id="g3498"><path
               id="path3500"
               style="fill:#ea83ad;fill-opacity:1;fill-rule:nonzero;stroke:none"
               d="m 0,0 c -0.903,1.378 -2.563,2.111 -3.897,2.955 -1.364,0.903 -2.032,1.685 -3.264,2.715 0,0 -8.506,1.4 -11.276,1.105 -1.433,-0.168 -2.905,-0.904 -3.868,-1.163 1.239,-0.836 3.192,-1.16 4.603,-1.716 1.633,-0.673 3.347,-1.278 5.086,-1.711 3.467,-0.908 6.86,-1.817 10.287,-3.168 C -1.709,-1.214 -0.36,-1.927 0.2,-1.642 1.055,-1.325 0.417,-0.59 0,0"
               inkscape:connector-curvature="0" /></g><g
             id="g3502"><g
               id="g3504" /><g
               id="g3510"><g
                 id="g3512"
                 clip-path="url(#clipPath3506)"
                 style="opacity:0.19999701"><g
                   id="g3514"
                   transform="translate(504.0342,382.9355)"><path
                     id="path3516"
                     style="fill:#000000;fill-opacity:1;fill-rule:nonzero;stroke:none"
                     d="m 0,0 c -0.903,1.378 -2.563,2.111 -3.897,2.955 -1.364,0.903 -2.032,1.685 -3.264,2.715 0,0 -3.081,0.53 -6.004,0.835 C -7.085,4.423 0.335,0.067 0.2,-1.642 1.055,-1.325 0.417,-0.59 0,0"
                     inkscape:connector-curvature="0" /></g></g></g></g><g
             id="g3518"><g
               id="g3520" /><g
               id="g3526"><g
                 id="g3528"
                 clip-path="url(#clipPath3522)"
                 style="opacity:0.19999701"><g
                   id="g3530"
                   transform="translate(622.9658,299.6025)"><path
                     id="path3532"
                     style="fill:#000000;fill-opacity:1;fill-rule:nonzero;stroke:none"
                     d="m 0,0 c -1.191,-0.904 -2.991,-1.12 -4.551,-1.783 -2.884,-1.41 -4.302,-3.063 -7.815,-3.378 -1.402,-0.21 -3.135,0.218 -4.544,0.01 -2.283,-0.603 -1.508,-0.962 -3.273,-1.953 -2.371,-1.564 -4.165,-2.314 -6.99,-2.529 -2.363,-0.119 -6.643,1.347 -8.868,0.285 -2.409,-1.341 -1.474,-4.293 -4.619,-5.5 -5.449,-1.804 -11.334,2.278 -16.134,2.483 0.597,-6.832 -10.046,-2.781 -13.477,-3.791 -1.361,-0.455 -1.167,-1.617 -2.754,-2.102 -1.183,-0.181 -2.643,0.061 -3.842,0.113 -1.699,0.208 -4.754,1.399 -6.584,0.875 -2.788,-0.437 -2.259,-2.261 -5.819,-2.345 -2.64,0.06 -5.254,1.564 -7.398,1.461 -2.624,0.064 1.808,-6.864 4.212,-6.968 2.855,-0.027 10.342,-8.158 10.603,-0.714 2.576,-1.263 5.702,-2.928 8.669,-3.654 1.738,-0.435 3.026,-0.954 4.573,-0.237 1.786,0.764 1.717,2.657 2.827,3.307 2.799,1.874 3.443,-0.654 6.711,-1.803 4.285,-1.474 4.971,0.301 7.124,3.256 4.558,-3.326 7.928,-3.515 9.845,2.467 2.234,-3.15 -2.433,-7.424 -5.762,-8.734 7.485,-6.704 -7.291,-8.304 -10.203,-9.471 7.786,-5.463 -18.915,-7.029 -19.861,-7.174 4.135,-1.978 -0.726,-4.41 -2.799,-4.975 -3.449,-0.774 -12.241,-0.965 -15.798,-1.044 l 6.376,-4.248 c 5.946,-1.451 10.814,-3.548 17.178,-3.026 1.39,0.221 5.182,0.336 6.467,1.256 2.94,2.603 -1.149,4.348 -3.694,5.38 2.673,-0.298 24.914,-2.29 17.902,4.481 3.648,1.051 7.44,1.162 10.779,2.639 1.142,0.418 5.248,1.541 5.455,3.244 -0.017,1.667 -3.529,2.783 -4.646,3.799 4.2,2.093 12.216,5.733 7.038,11.361 2.561,0.408 4.452,3.559 3.772,6.319 -0.444,1.918 -1.745,2.331 -3.356,2.578 0.235,1.461 0.241,2.848 1.712,3.368 4.902,2.19 12.147,-5.97 11.815,3.753 1.608,-1.18 4.589,-1.902 6.613,-1.108 3.577,1.516 1.147,3.284 2.765,5.202 1.054,1.302 3.738,1.191 6.084,1.586 0.236,0.617 0.523,1.246 0.847,1.884 0.151,0.056 0.309,0.109 0.446,0.186 1.638,0.756 2.583,2.385 3.409,4.14 C 0.302,-0.725 0.159,-0.354 0,0"
                     inkscape:connector-curvature="0" /></g></g></g></g><g
             transform="translate(622.7988,303.2686)"
             id="g3534"><path
               id="path3536"
               style="fill:#ffffff;fill-opacity:1;fill-rule:nonzero;stroke:none"
               d="m 0,0 c 0.194,-4.257 -3.168,-4.071 -5.861,-5.207 -2.871,-1.407 -4.287,-3.064 -7.812,-3.377 -1.407,-0.217 -3.143,0.227 -4.538,0.007 -2.297,-0.591 -1.518,-0.956 -3.268,-1.948 -2.374,-1.559 -4.167,-2.324 -6.992,-2.524 -2.363,-0.137 -6.647,1.338 -8.867,0.274 -2.426,-1.324 -1.483,-4.274 -4.619,-5.495 -5.451,-1.803 -11.336,2.276 -16.136,2.477 0.602,-6.814 -10.053,-2.77 -13.483,-3.783 -1.351,-0.447 -1.178,-1.612 -2.764,-2.102 -1.161,-0.185 -2.62,0.065 -3.836,0.11 -1.706,0.215 -4.738,1.406 -6.573,0.88 -2.787,-0.439 -2.263,-2.267 -5.841,-2.337 -2.617,0.058 -5.253,1.556 -7.371,1.456 -2.648,0.061 1.783,-6.875 4.187,-6.978 2.873,-0.027 10.349,-8.151 10.604,-0.719 2.596,-1.263 5.701,-2.918 8.686,-3.64 1.741,-0.448 3.011,-0.963 4.562,-0.236 1.804,0.753 1.735,2.65 2.823,3.298 2.804,1.876 3.44,-0.643 6.733,-1.803 4.281,-1.475 4.948,0.299 7.116,3.26 4.566,-3.328 7.929,-3.519 9.842,2.465 2.238,-3.142 -2.425,-7.425 -5.755,-8.736 7.482,-6.694 -7.287,-8.3 -10.206,-9.473 7.772,-5.449 -18.924,-7.022 -19.853,-7.17 4.113,-1.975 -0.754,-4.404 -2.803,-4.969 -3.446,-0.779 -12.245,-0.962 -15.821,-1.053 l 6.397,-4.237 c 5.949,-1.451 10.821,-3.548 17.174,-3.035 1.4,0.226 5.187,0.337 6.474,1.258 2.918,2.608 -1.151,4.347 -3.699,5.384 2.654,-0.302 24.91,-2.297 17.89,4.474 3.651,1.05 7.459,1.172 10.793,2.647 1.123,0.414 5.249,1.539 5.454,3.238 -0.031,1.664 -3.544,2.791 -4.658,3.803 4.203,2.087 12.229,5.732 7.046,11.355 2.564,0.404 4.444,3.567 3.78,6.317 -0.461,1.932 -1.753,2.336 -3.36,2.583 0.238,1.472 0.224,2.849 1.712,3.362 4.904,2.197 12.146,-5.965 11.82,3.761 1.604,-1.169 4.587,-1.894 6.608,-1.11 3.577,1.515 1.149,3.285 2.749,5.203 2.006,2.465 9.803,-0.134 10.172,5.174 2.162,-0.141 5.495,-0.096 5.632,2.074 C 4.308,-3.141 1.278,-0.512 0,0"
               inkscape:connector-curvature="0" /></g><g
             transform="translate(621.8535,306.2217)"
             id="g3538"><path
               id="path3540"
               style="fill:#dddddd;fill-opacity:1;fill-rule:nonzero;stroke:none"
               d="m 0,0 c 0.201,-4.26 -3.166,-4.068 -5.853,-5.202 -2.874,-1.411 -4.29,-3.069 -7.813,-3.384 -1.406,-0.21 -3.147,0.227 -4.541,0.012 -2.164,-0.563 -1.594,-0.918 -2.994,-1.787 -2.201,-0.348 -4.396,-0.858 -6.315,-1.848 -5.664,-2.947 -12.982,-3.365 -19.169,-3.814 -3.801,-0.223 -8.335,1.325 -11.556,-0.544 -3.346,-2.019 -6.383,-1.315 -10.184,-1.537 -3.379,-0.186 -6.732,-0.648 -9.865,-1.935 -0.825,-0.307 -1.621,-0.635 -2.4,-0.979 -1.416,0.338 -2.952,0.642 -4.059,0.327 -2.784,-0.437 -2.261,-2.263 -5.834,-2.338 -2.612,0.06 -5.253,1.56 -7.376,1.455 -2.639,0.066 1.793,-6.868 4.192,-6.969 2.872,-0.031 10.35,-8.155 10.605,-0.717 2.598,-1.266 5.703,-2.926 8.684,-3.649 1.738,-0.445 3.015,-0.962 4.557,-0.237 1.807,0.755 1.739,2.651 2.835,3.301 2.79,1.879 3.433,-0.645 6.726,-1.803 4.276,-1.472 4.949,0.3 7.121,3.262 2.04,-1.505 3.852,-2.362 5.406,-2.305 -1.048,-2.228 -3.743,-4.317 -5.913,-5.163 7.485,-6.695 -7.292,-8.296 -10.203,-9.47 7.785,-5.457 -18.918,-7.026 -19.856,-7.17 4.133,-1.973 -0.733,-4.409 -2.802,-4.973 -3.451,-0.782 -12.245,-0.967 -15.801,-1.045 l 6.379,-4.251 c 5.944,-1.452 10.816,-3.548 17.175,-3.023 1.395,0.216 5.183,0.338 6.47,1.252 2.94,2.604 -1.15,4.352 -3.695,5.38 2.671,-0.293 24.916,-2.288 17.903,4.479 3.648,1.051 7.438,1.169 10.777,2.649 1.141,0.419 5.25,1.535 5.455,3.239 -0.017,1.668 -3.531,2.783 -4.646,3.807 4.2,2.088 12.215,5.73 7.038,11.355 2.565,0.4 4.454,3.557 3.775,6.314 -0.072,0.305 -0.164,0.575 -0.27,0.815 0.039,0.041 0.084,0.074 0.127,0.112 2.307,2.037 0.589,5.342 3.083,6.211 4.899,2.197 12.145,-5.965 11.815,3.757 1.609,-1.173 4.592,-1.895 6.61,-1.109 3.579,1.519 1.145,3.292 2.758,5.205 1.998,2.461 9.794,-0.133 10.163,5.175 2.161,-0.138 5.493,-0.097 5.63,2.073 C 4.315,-3.139 1.283,-0.516 0,0"
               inkscape:connector-curvature="0" /></g><g
             id="g3542"><g
               id="g3544" /><g
               id="g3550"><g
                 id="g3552"
                 clip-path="url(#clipPath3546)"
                 style="opacity:0.19999701"><g
                   id="g3554"
                   transform="translate(627.4121,315.9854)"><path
                     id="path3556"
                     style="fill:#000000;fill-opacity:1;fill-rule:nonzero;stroke:none"
                     d="m 0,0 c -1.252,0.08 -2.15,-2.113 -3.174,-2.549 -2.086,-1.127 -3.014,0.192 -4.286,-0.239 -5.641,-1.645 -10.736,-6.589 -17.081,-7.703 -7.145,-1.555 -14.742,-2.569 -21.702,-1.374 -6.714,1.179 -12.293,4.306 -19.319,4.261 -23.38,-0.024 -49.575,-1.114 -70.057,12.77 l -2.334,0.978 c 2.496,-7.95 3.777,-9.873 11.447,-11.865 6.918,-1.698 13.358,-11.144 20.278,-12.843 7.168,-1.715 14.369,-3.18 21.559,-4.895 6.2,-1.156 13.688,5.896 19.347,4.016 6.16,-1.898 11.338,-3.487 18.101,-3.668 2.777,0.082 5.552,0.145 8.371,1.222 4.119,1.5 5.121,1.436 9.811,0.125 4.613,-1.462 25.224,5.423 26.907,8.089 1.576,2.152 2.831,4.509 3.616,7.052 C 2.025,-3.872 2.82,0.258 0,0"
                     inkscape:connector-curvature="0" /></g></g></g></g><g
             transform="translate(488.3418,325.374)"
             id="g3558"><path
               id="path3560"
               style="fill:#ffffff;fill-opacity:1;fill-rule:nonzero;stroke:none"
               d="m 0,0 c 2.521,-7.949 4.959,-12.113 12.628,-14.118 6.917,-1.699 13.358,-11.132 20.279,-12.83 7.168,-1.714 14.368,-3.185 21.558,-4.902 6.201,-1.147 13.687,5.889 19.348,4.025 6.16,-1.901 11.337,-3.487 18.101,-3.673 2.775,0.072 5.552,0.155 8.372,1.232 4.116,1.489 5.119,1.424 9.81,0.12 4.923,-1.573 16.596,3.941 21.508,6.137 2.848,1.323 8.074,4.536 8.79,7.76 0.409,2.483 2.027,8.161 -1.259,7.873 -1.252,0.08 -2.152,-2.136 -3.175,-2.569 -2.086,-1.122 -3.014,0.193 -4.285,-0.222 -5.642,-1.653 -10.737,-6.611 -17.081,-7.706 -7.145,-1.547 -14.742,-2.578 -21.702,-1.374 -6.714,1.186 -12.294,4.296 -19.32,4.241 -23.381,-0.008 -49.574,-1.09 -70.057,12.772 L 0,0 z"
               inkscape:connector-curvature="0" /></g><g
             transform="translate(487.793,325.5986)"
             id="g3562"><path
               id="path3564"
               style="fill:#dddddd;fill-opacity:1;fill-rule:nonzero;stroke:none"
               d="m 0,0 c 2.5,-7.942 5.619,-10.594 13.289,-12.585 6.917,-1.7 13.357,-11.144 20.278,-12.844 7.168,-1.714 14.37,-3.167 21.56,-4.885 6.2,-1.151 13.686,5.883 19.347,4.021 6.159,-1.913 11.337,-3.5 18.101,-3.668 2.776,0.062 5.552,0.141 8.371,1.215 4.117,1.492 5.12,1.428 9.811,0.133 4.924,-1.571 16.596,3.927 21.508,6.124 2.848,1.337 8.073,4.536 8.789,7.759 0.41,2.485 2.027,8.164 -1.259,7.875 -1.252,0.08 -2.15,-2.124 -3.175,-2.566 -2.086,-1.124 -3.013,0.192 -4.285,-0.226 -5.641,-1.654 -8.391,-8.712 -14.735,-9.802 -7.147,-1.554 -16.384,2.654 -23.351,3.848 -6.696,1.177 -34.046,6.565 -41.093,6.521 C 29.778,-9.104 24.658,-15.577 4.176,-1.7 L 0,0 z"
               inkscape:connector-curvature="0" /></g></g></g><g
         transform="translate(563.2559,361.1172)"
         id="g3574"><path
           inkscape:connector-curvature="0"
           id="path3576"
           style="fill:none;stroke:#ffffff;stroke-width:5;stroke-linecap:butt;stroke-linejoin:miter;stroke-miterlimit:10;stroke-opacity:1;stroke-dasharray:none"
           d="m 0,0 c 0,-42.802 -34.698,-77.5 -77.5,-77.5 -42.802,0 -77.5,34.698 -77.5,77.5 0,42.802 34.698,77.5 77.5,77.5 C -34.698,77.5 0,42.802 0,0 z" /></g></g></g></svg>