<?xml version="1.0" encoding="UTF-8" standalone="no"?>
<!-- Created with Inkscape (http://www.inkscape.org/) -->

<svg
   xmlns:dc="http://purl.org/dc/elements/1.1/"
   xmlns:cc="http://creativecommons.org/ns#"
   xmlns:rdf="http://www.w3.org/1999/02/22-rdf-syntax-ns#"
   xmlns:svg="http://www.w3.org/2000/svg"
   xmlns="http://www.w3.org/2000/svg"
   xmlns:sodipodi="http://sodipodi.sourceforge.net/DTD/sodipodi-0.dtd"
   xmlns:inkscape="http://www.inkscape.org/namespaces/inkscape"
   id="svg2"
   version="1.1"
   inkscape:version="0.48.2 r9819"
   width="200"
   height="200"
   xml:space="preserve"
   sodipodi:docname="animalswift.svg"><metadata
     id="metadata8"><rdf:RDF><cc:Work
         rdf:about=""><dc:format>image/svg+xml</dc:format><dc:type
           rdf:resource="http://purl.org/dc/dcmitype/StillImage" /><dc:title></dc:title></cc:Work></rdf:RDF></metadata><defs
     id="defs6"><clipPath
       clipPathUnits="userSpaceOnUse"
       id="clipPath18"><path
         d="m 48,183.883 c 0,-42.802 34.698,-77.5 77.5,-77.5 l 0,0 c 42.802,0 77.5,34.698 77.5,77.5 l 0,0 c 0,42.802 -34.698,77.499 -77.5,77.499 l 0,0 C 82.698,261.382 48,226.685 48,183.883"
         id="path20"
         inkscape:connector-curvature="0" /></clipPath><clipPath
       clipPathUnits="userSpaceOnUse"
       id="clipPath76"><path
         d="m 28.3701,320.655 214.7989,0 0,-220.57 -214.7989,0 0,220.57 z"
         id="path78"
         inkscape:connector-curvature="0" /></clipPath><clipPath
       clipPathUnits="userSpaceOnUse"
       id="clipPath100"><path
         d="m 165.654,273.372 11.322,0 0,-45.72 -11.322,0 0,45.72 z"
         id="path102"
         inkscape:connector-curvature="0" /></clipPath><clipPath
       clipPathUnits="userSpaceOnUse"
       id="clipPath116"><path
         d="m 128.183,211.311 12.616,0 0,-11.865 -12.616,0 0,11.865 z"
         id="path118"
         inkscape:connector-curvature="0" /></clipPath><clipPath
       clipPathUnits="userSpaceOnUse"
       id="clipPath132"><path
         d="m 196.509,246.27 27.854,0 0,-23.43 -27.854,0 0,23.43 z"
         id="path134"
         inkscape:connector-curvature="0" /></clipPath><clipPath
       clipPathUnits="userSpaceOnUse"
       id="clipPath148"><path
         d="m 179.223,311.43 55.845,0 0,-81.438 -55.845,0 0,81.438 z"
         id="path150"
         inkscape:connector-curvature="0" /></clipPath><clipPath
       clipPathUnits="userSpaceOnUse"
       id="clipPath164"><path
         d="m 126.612,213.026 11.425,0 0,-11.377 -11.425,0 0,11.377 z"
         id="path166"
         inkscape:connector-curvature="0" /></clipPath><clipPath
       clipPathUnits="userSpaceOnUse"
       id="clipPath180"><path
         d="m 175.549,246.27 48.814,0 0,-20.403 -48.814,0 0,20.403 z"
         id="path182"
         inkscape:connector-curvature="0" /></clipPath><clipPath
       clipPathUnits="userSpaceOnUse"
       id="clipPath196"><path
         d="m 153.378,258.93 10.828,0 0,-34.765 -10.828,0 0,34.765 z"
         id="path198"
         inkscape:connector-curvature="0" /></clipPath><clipPath
       clipPathUnits="userSpaceOnUse"
       id="clipPath212"><path
         d="m 198.586,300.19 2.372,0 0,-6.69 -2.372,0 0,6.69 z"
         id="path214"
         inkscape:connector-curvature="0" /></clipPath><clipPath
       clipPathUnits="userSpaceOnUse"
       id="clipPath228"><path
         d="m 195.058,287.521 1.251,0 0,-4.43 -1.251,0 0,4.43 z"
         id="path230"
         inkscape:connector-curvature="0" /></clipPath><clipPath
       clipPathUnits="userSpaceOnUse"
       id="clipPath244"><path
         d="m 165.654,311.43 52.038,0 0,-83.778 -52.038,0 0,83.778 z"
         id="path246"
         inkscape:connector-curvature="0" /></clipPath><clipPath
       clipPathUnits="userSpaceOnUse"
       id="clipPath268"><path
         d="m 107.457,216.128 11.498,0 0,-12.869 -11.498,0 0,12.869 z"
         id="path270"
         inkscape:connector-curvature="0" /></clipPath><clipPath
       clipPathUnits="userSpaceOnUse"
       id="clipPath284"><path
         d="m 75.9043,281.379 8.3789,0 0,-46.284 -8.3789,0 0,46.284 z"
         id="path286"
         inkscape:connector-curvature="0" /></clipPath><clipPath
       clipPathUnits="userSpaceOnUse"
       id="clipPath300"><path
         d="m 27.6875,259.947 25.1895,0 0,-26.276 -25.1895,0 0,26.276 z"
         id="path302"
         inkscape:connector-curvature="0" /></clipPath><clipPath
       clipPathUnits="userSpaceOnUse"
       id="clipPath316"><path
         d="m 110.289,217.567 10.443,0 0,-12.421 -10.443,0 0,12.421 z"
         id="path318"
         inkscape:connector-curvature="0" /></clipPath><clipPath
       clipPathUnits="userSpaceOnUse"
       id="clipPath332"><path
         d="m 87.2285,264.234 8.751,0 0,-35.565 -8.751,0 0,35.565 z"
         id="path334"
         inkscape:connector-curvature="0" /></clipPath><clipPath
       clipPathUnits="userSpaceOnUse"
       id="clipPath348"><path
         d="m 20.2695,322.262 50.21,0 0,-84.071 -50.21,0 0,84.071 z"
         id="path350"
         inkscape:connector-curvature="0" /></clipPath><clipPath
       clipPathUnits="userSpaceOnUse"
       id="clipPath364"><path
         d="m 38.1172,322.275 45.5547,0 0,-87.848 -45.5547,0 0,87.848 z"
         id="path366"
         inkscape:connector-curvature="0" /></clipPath><clipPath
       clipPathUnits="userSpaceOnUse"
       id="clipPath380"><path
         d="m 27.6875,259.947 46.3525,0 0,-25.508 -46.3525,0 0,25.508 z"
         id="path382"
         inkscape:connector-curvature="0" /></clipPath><clipPath
       clipPathUnits="userSpaceOnUse"
       id="clipPath512"><path
         d="M 0,768 1024,768 1024,0 0,0 0,768 z"
         id="path514"
         inkscape:connector-curvature="0" /></clipPath><clipPath
       clipPathUnits="userSpaceOnUse"
       id="clipPath524"><path
         d="m 48,361.117 c 0,-42.801 34.698,-77.5 77.5,-77.5 l 0,0 c 42.802,0 77.5,34.699 77.5,77.5 l 0,0 c 0,42.802 -34.698,77.5 -77.5,77.5 l 0,0 c -42.802,0 -77.5,-34.698 -77.5,-77.5"
         id="path526"
         inkscape:connector-curvature="0" /></clipPath><clipPath
       clipPathUnits="userSpaceOnUse"
       id="clipPath582"><path
         d="m 83.4062,417.107 107.1498,0 0,-188.795 -107.1498,0 0,188.795 z"
         id="path584"
         inkscape:connector-curvature="0" /></clipPath><clipPath
       clipPathUnits="userSpaceOnUse"
       id="clipPath610"><path
         d="m 84.9932,382.28 34.2428,0 0,-99.798 -34.2428,0 0,99.798 z"
         id="path612"
         inkscape:connector-curvature="0" /></clipPath><clipPath
       clipPathUnits="userSpaceOnUse"
       id="clipPath698"><path
         d="m 136.179,348.39 27.69,0 0,-65.261 -27.69,0 0,65.261 z"
         id="path700"
         inkscape:connector-curvature="0" /></clipPath><clipPath
       clipPathUnits="userSpaceOnUse"
       id="clipPath734"><path
         d="M 0,768 1024,768 1024,0 0,0 0,768 z"
         id="path736"
         inkscape:connector-curvature="0" /></clipPath><clipPath
       clipPathUnits="userSpaceOnUse"
       id="clipPath746"><path
         d="m 48,533.883 c 0,-42.802 34.698,-77.5 77.5,-77.5 l 0,0 c 42.802,0 77.5,34.698 77.5,77.5 l 0,0 c 0,42.802 -34.698,77.5 -77.5,77.5 l 0,0 c -42.802,0 -77.5,-34.698 -77.5,-77.5"
         id="path748"
         inkscape:connector-curvature="0" /></clipPath><clipPath
       clipPathUnits="userSpaceOnUse"
       id="clipPath804"><path
         d="m 70.0752,597.154 140.1478,0 0,-172.125 -140.1478,0 0,172.125 z"
         id="path806"
         inkscape:connector-curvature="0" /></clipPath><clipPath
       clipPathUnits="userSpaceOnUse"
       id="clipPath828"><path
         d="m 72.2432,516.053 121.3948,0 0,-80.86 -121.3948,0 0,80.86 z"
         id="path830"
         inkscape:connector-curvature="0" /></clipPath><clipPath
       clipPathUnits="userSpaceOnUse"
       id="clipPath868"><path
         d="m 98,566.655 10.04,0 0,-10.399 -10.04,0 0,10.399 z"
         id="path870"
         inkscape:connector-curvature="0" /></clipPath><clipPath
       clipPathUnits="userSpaceOnUse"
       id="clipPath884"><path
         d="m 116.188,564.133 19.527,0 0,-12.705 -19.527,0 0,12.705 z"
         id="path886"
         inkscape:connector-curvature="0" /></clipPath><clipPath
       clipPathUnits="userSpaceOnUse"
       id="clipPath908"><path
         d="m 107.135,573.487 49.874,0 0,-41.003 -49.874,0 0,41.003 z"
         id="path910"
         inkscape:connector-curvature="0" /></clipPath><clipPath
       clipPathUnits="userSpaceOnUse"
       id="clipPath940"><path
         d="m 117.255,561.123 9.391,0 0,-8.776 -9.391,0 0,8.776 z"
         id="path942"
         inkscape:connector-curvature="0" /></clipPath><clipPath
       clipPathUnits="userSpaceOnUse"
       id="clipPath964"><path
         d="m 117.456,560.869 8.443,0 0,-7.236 -8.443,0 0,7.236 z"
         id="path966"
         inkscape:connector-curvature="0" /></clipPath><clipPath
       clipPathUnits="userSpaceOnUse"
       id="clipPath980"><path
         d="m 117.002,560.869 6.503,0 0,-6.584 -6.503,0 0,6.584 z"
         id="path982"
         inkscape:connector-curvature="0" /></clipPath><clipPath
       clipPathUnits="userSpaceOnUse"
       id="clipPath996"><path
         d="m 97.1562,564.531 7.1068,0 0,-7.397 -7.1068,0 0,7.397 z"
         id="path998"
         inkscape:connector-curvature="0" /></clipPath><clipPath
       clipPathUnits="userSpaceOnUse"
       id="clipPath1020"><path
         d="m 97.7725,564.531 6.0075,0 0,-6.753 -6.0075,0 0,6.753 z"
         id="path1022"
         inkscape:connector-curvature="0" /></clipPath><clipPath
       clipPathUnits="userSpaceOnUse"
       id="clipPath1036"><path
         d="m 97.1562,564.531 4.6348,0 0,-6.592 -4.6348,0 0,6.592 z"
         id="path1038"
         inkscape:connector-curvature="0" /></clipPath><clipPath
       clipPathUnits="userSpaceOnUse"
       id="clipPath1144"><path
         d="m 112.72,573.875 38.467,0 0,-10.892 -38.467,0 0,10.892 z"
         id="path1146"
         inkscape:connector-curvature="0" /></clipPath><clipPath
       clipPathUnits="userSpaceOnUse"
       id="clipPath1164"><path
         d="m 115.91,593.83 37.215,0 0,-25.138 -37.215,0 0,25.138 z"
         id="path1166"
         inkscape:connector-curvature="0" /></clipPath><clipPath
       clipPathUnits="userSpaceOnUse"
       id="clipPath1188"><path
         d="m 114.113,596.642 43.988,0 0,-29.566 -43.988,0 0,29.566 z"
         id="path1190"
         inkscape:connector-curvature="0" /></clipPath><clipPath
       clipPathUnits="userSpaceOnUse"
       id="clipPath1204"><path
         d="m 111.065,596.661 43.954,0 0,-29.375 -43.954,0 0,29.375 z"
         id="path1206"
         inkscape:connector-curvature="0" /></clipPath><clipPath
       clipPathUnits="userSpaceOnUse"
       id="clipPath1228"><path
         d="m 129.643,574.128 5.688,0 0,-7.623 -5.688,0 0,7.623 z"
         id="path1230"
         inkscape:connector-curvature="0" /></clipPath><clipPath
       clipPathUnits="userSpaceOnUse"
       id="clipPath1244"><path
         d="m 130.658,573.875 5.689,0 0,-7.624 -5.689,0 0,7.624 z"
         id="path1246"
         inkscape:connector-curvature="0" /></clipPath><clipPath
       clipPathUnits="userSpaceOnUse"
       id="clipPath1264"><path
         d="m 131.537,574.128 4.302,0 0,-7.265 -4.302,0 0,7.265 z"
         id="path1266"
         inkscape:connector-curvature="0" /></clipPath><clipPath
       clipPathUnits="userSpaceOnUse"
       id="clipPath1280"><path
         d="m 130.15,574.128 3.803,0 0,-7.084 -3.803,0 0,7.084 z"
         id="path1282"
         inkscape:connector-curvature="0" /></clipPath><clipPath
       clipPathUnits="userSpaceOnUse"
       id="clipPath1300"><path
         d="m 132.084,572.698 2.687,0 0,-4.539 -2.687,0 0,4.539 z"
         id="path1302"
         inkscape:connector-curvature="0" /></clipPath><clipPath
       clipPathUnits="userSpaceOnUse"
       id="clipPath1316"><path
         d="m 131.218,572.698 2.476,0 0,-4.763 -2.476,0 0,4.763 z"
         id="path1318"
         inkscape:connector-curvature="0" /></clipPath><clipPath
       clipPathUnits="userSpaceOnUse"
       id="clipPath1332"><path
         d="m 140.12,574.02 5.25,0 0,-6.573 -5.25,0 0,6.573 z"
         id="path1334"
         inkscape:connector-curvature="0" /></clipPath><clipPath
       clipPathUnits="userSpaceOnUse"
       id="clipPath1348"><path
         d="m 141.136,573.766 5.25,0 0,-6.573 -5.25,0 0,6.573 z"
         id="path1350"
         inkscape:connector-curvature="0" /></clipPath><clipPath
       clipPathUnits="userSpaceOnUse"
       id="clipPath1368"><path
         d="m 141.888,574.02 3.992,0 0,-6.05 -3.992,0 0,6.05 z"
         id="path1370"
         inkscape:connector-curvature="0" /></clipPath><clipPath
       clipPathUnits="userSpaceOnUse"
       id="clipPath1384"><path
         d="m 140.628,574.02 3.685,0 0,-6.573 -3.685,0 0,6.573 z"
         id="path1386"
         inkscape:connector-curvature="0" /></clipPath><clipPath
       clipPathUnits="userSpaceOnUse"
       id="clipPath1404"><path
         d="m 142.474,572.774 2.302,0 0,-3.889 -2.302,0 0,3.889 z"
         id="path1406"
         inkscape:connector-curvature="0" /></clipPath><clipPath
       clipPathUnits="userSpaceOnUse"
       id="clipPath1420"><path
         d="m 141.73,572.774 2.124,0 0,-4.081 -2.124,0 0,4.081 z"
         id="path1422"
         inkscape:connector-curvature="0" /></clipPath><clipPath
       clipPathUnits="userSpaceOnUse"
       id="clipPath1436"><path
         d="m 149.369,575.589 3.356,0 0,-5.878 -3.356,0 0,5.878 z"
         id="path1438"
         inkscape:connector-curvature="0" /></clipPath><clipPath
       clipPathUnits="userSpaceOnUse"
       id="clipPath1452"><path
         d="m 150.385,575.335 2.768,0 0,-5.792 -2.768,0 0,5.792 z"
         id="path1454"
         inkscape:connector-curvature="0" /></clipPath><clipPath
       clipPathUnits="userSpaceOnUse"
       id="clipPath1472"><path
         d="m 150.752,575.589 2.48,0 0,-5.58 -2.48,0 0,5.58 z"
         id="path1474"
         inkscape:connector-curvature="0" /></clipPath><clipPath
       clipPathUnits="userSpaceOnUse"
       id="clipPath1488"><path
         d="m 149.876,575.589 2.316,0 0,-5.878 -2.316,0 0,5.878 z"
         id="path1490"
         inkscape:connector-curvature="0" /></clipPath><clipPath
       clipPathUnits="userSpaceOnUse"
       id="clipPath1508"><path
         d="m 150.993,574.426 1.705,0 0,-3.397 -1.705,0 0,3.397 z"
         id="path1510"
         inkscape:connector-curvature="0" /></clipPath><clipPath
       clipPathUnits="userSpaceOnUse"
       id="clipPath1524"><path
         d="m 150.415,574.426 1.564,0 0,-3.553 -1.564,0 0,3.553 z"
         id="path1526"
         inkscape:connector-curvature="0" /></clipPath><clipPath
       clipPathUnits="userSpaceOnUse"
       id="clipPath1540"><path
         d="m 119.9,576 5.254,0 0,-7.104 -5.254,0 0,7.104 z"
         id="path1542"
         inkscape:connector-curvature="0" /></clipPath><clipPath
       clipPathUnits="userSpaceOnUse"
       id="clipPath1556"><path
         d="m 120.91,575.39 5.271,0 0,-6.748 -5.271,0 0,6.748 z"
         id="path1558"
         inkscape:connector-curvature="0" /></clipPath><clipPath
       clipPathUnits="userSpaceOnUse"
       id="clipPath1576"><path
         d="m 121.69,575.644 3.983,0 0,-6.435 -3.983,0 0,6.435 z"
         id="path1578"
         inkscape:connector-curvature="0" /></clipPath><clipPath
       clipPathUnits="userSpaceOnUse"
       id="clipPath1592"><path
         d="m 120.423,575.579 2.282,0 0,-6.09 -2.282,0 0,6.09 z"
         id="path1594"
         inkscape:connector-curvature="0" /></clipPath><clipPath
       clipPathUnits="userSpaceOnUse"
       id="clipPath1612"><path
         d="m 122.217,574.705 2.396,0 0,-4.601 -2.396,0 0,4.601 z"
         id="path1614"
         inkscape:connector-curvature="0" /></clipPath><clipPath
       clipPathUnits="userSpaceOnUse"
       id="clipPath1628"><path
         d="m 121.06,574.705 2.689,0 0,-4.731 -2.689,0 0,4.731 z"
         id="path1630"
         inkscape:connector-curvature="0" /></clipPath><clipPath
       clipPathUnits="userSpaceOnUse"
       id="clipPath1644"><path
         d="m 112.821,578.751 3.345,0 0,-5.879 -3.345,0 0,5.879 z"
         id="path1646"
         inkscape:connector-curvature="0" /></clipPath><clipPath
       clipPathUnits="userSpaceOnUse"
       id="clipPath1660"><path
         d="m 113.766,578.497 3.416,0 0,-5.878 -3.416,0 0,5.878 z"
         id="path1662"
         inkscape:connector-curvature="0" /></clipPath><clipPath
       clipPathUnits="userSpaceOnUse"
       id="clipPath1680"><path
         d="m 114.145,578.751 2.529,0 0,-5.582 -2.529,0 0,5.582 z"
         id="path1682"
         inkscape:connector-curvature="0" /></clipPath><clipPath
       clipPathUnits="userSpaceOnUse"
       id="clipPath1696"><path
         d="m 113.257,578.751 2.354,0 0,-5.581 -2.354,0 0,5.581 z"
         id="path1698"
         inkscape:connector-curvature="0" /></clipPath><clipPath
       clipPathUnits="userSpaceOnUse"
       id="clipPath1716"><path
         d="m 114.337,577.928 1.712,0 0,-3.949 -1.712,0 0,3.949 z"
         id="path1718"
         inkscape:connector-curvature="0" /></clipPath><clipPath
       clipPathUnits="userSpaceOnUse"
       id="clipPath1732"><path
         d="m 113.511,577.928 1.92,0 0,-4.06 -1.92,0 0,4.06 z"
         id="path1734"
         inkscape:connector-curvature="0" /></clipPath><clipPath
       clipPathUnits="userSpaceOnUse"
       id="clipPath1748"><path
         d="M 0,768 1024,768 1024,0 0,0 0,768 z"
         id="path1750"
         inkscape:connector-curvature="0" /></clipPath><clipPath
       clipPathUnits="userSpaceOnUse"
       id="clipPath1760"><path
         d="m 228,536.117 c 0,-42.802 34.698,-77.5 77.5,-77.5 l 0,0 c 42.802,0 77.5,34.698 77.5,77.5 l 0,0 c 0,42.802 -34.698,77.5 -77.5,77.5 l 0,0 c -42.802,0 -77.5,-34.698 -77.5,-77.5"
         id="path1762"
         inkscape:connector-curvature="0" /></clipPath><clipPath
       clipPathUnits="userSpaceOnUse"
       id="clipPath1834"><path
         d="m 319.266,624.217 53.897,0 0,-74.711 -53.897,0 0,74.711 z"
         id="path1836"
         inkscape:connector-curvature="0" /></clipPath><clipPath
       clipPathUnits="userSpaceOnUse"
       id="clipPath1850"><path
         d="m 270.849,584.472 152.916,0 0,-178.278 -152.916,0 0,178.278 z"
         id="path1852"
         inkscape:connector-curvature="0" /></clipPath><clipPath
       clipPathUnits="userSpaceOnUse"
       id="clipPath2054"><path
         d="M 0,768 1024,768 1024,0 0,0 0,768 z"
         id="path2056"
         inkscape:connector-curvature="0" /></clipPath><clipPath
       clipPathUnits="userSpaceOnUse"
       id="clipPath2066"><path
         d="m 228,361.117 c 0,-42.801 34.698,-77.5 77.5,-77.5 l 0,0 c 42.802,0 77.5,34.699 77.5,77.5 l 0,0 c 0,42.802 -34.698,77.5 -77.5,77.5 l 0,0 c -42.802,0 -77.5,-34.698 -77.5,-77.5"
         id="path2068"
         inkscape:connector-curvature="0" /></clipPath><clipPath
       clipPathUnits="userSpaceOnUse"
       id="clipPath2124"><path
         d="m 254.025,411.491 171,0 0,-170.562 -171,0 0,170.562 z"
         id="path2126"
         inkscape:connector-curvature="0" /></clipPath><clipPath
       clipPathUnits="userSpaceOnUse"
       id="clipPath2148"><path
         d="m 338.895,334.943 69.931,0 0,-80.858 -69.931,0 0,80.858 z"
         id="path2150"
         inkscape:connector-curvature="0" /></clipPath><clipPath
       clipPathUnits="userSpaceOnUse"
       id="clipPath2208"><path
         d="m 269.726,385.375 45.75,0 0,-129.289 -45.75,0 0,129.289 z"
         id="path2210"
         inkscape:connector-curvature="0" /></clipPath><clipPath
       clipPathUnits="userSpaceOnUse"
       id="clipPath2248"><path
         d="m 286.077,395.068 15.482,0 0,-10.204 -15.482,0 0,10.204 z"
         id="path2250"
         inkscape:connector-curvature="0" /></clipPath><clipPath
       clipPathUnits="userSpaceOnUse"
       id="clipPath2288"><path
         d="M 0,768 1024,768 1024,0 0,0 0,768 z"
         id="path2290"
         inkscape:connector-curvature="0" /></clipPath><clipPath
       clipPathUnits="userSpaceOnUse"
       id="clipPath2300"><path
         d="m 228,186.116 c 0,-42.802 34.698,-77.499 77.5,-77.499 l 0,0 c 42.802,0 77.5,34.697 77.5,77.499 l 0,0 c 0,42.802 -34.698,77.499 -77.5,77.499 l 0,0 c -42.802,0 -77.5,-34.697 -77.5,-77.499"
         id="path2302"
         inkscape:connector-curvature="0" /></clipPath><clipPath
       clipPathUnits="userSpaceOnUse"
       id="clipPath2358"><path
         d="m 258.341,233.648 142.781,0 0,-148.6353 -142.781,0 0,148.6353 z"
         id="path2360"
         inkscape:connector-curvature="0" /></clipPath><clipPath
       clipPathUnits="userSpaceOnUse"
       id="clipPath2382"><path
         d="m 258.42,173.87 34.287,0 0,-76.0057 -34.287,0 0,76.0057 z"
         id="path2384"
         inkscape:connector-curvature="0" /></clipPath><clipPath
       clipPathUnits="userSpaceOnUse"
       id="clipPath2406"><path
         d="m 257.662,238.148 134.46,0 0,-140.8531 -134.46,0 0,140.8531 z"
         id="path2408"
         inkscape:connector-curvature="0" /></clipPath><clipPath
       clipPathUnits="userSpaceOnUse"
       id="clipPath2422"><path
         d="m 267.864,236.151 124.003,0 0,-136.8453 -124.003,0 0,136.8453 z"
         id="path2424"
         inkscape:connector-curvature="0" /></clipPath><clipPath
       clipPathUnits="userSpaceOnUse"
       id="clipPath2438"><path
         d="m 267.441,220.876 66.413,0 0,-48.466 -66.413,0 0,48.466 z"
         id="path2440"
         inkscape:connector-curvature="0" /></clipPath><clipPath
       clipPathUnits="userSpaceOnUse"
       id="clipPath2470"><path
         d="m 272.204,233.586 74.445,0 0,-41.978 -74.445,0 0,41.978 z"
         id="path2472"
         inkscape:connector-curvature="0" /></clipPath><clipPath
       clipPathUnits="userSpaceOnUse"
       id="clipPath2510"><path
         d="m 285.177,216.011 c -1.979,-0.063 -5.012,-1.992 -5.706,-3.06 l 0,0 c -2.453,-3.78 -3.27,-10.959 -1.664,-13.409 l 0,0 c 1.71,-2.61 5.661,-3.865 8.145,-3.705 l 0,0 c 5.563,0.36 7.515,3.795 8.055,9.015 l 0,0 c 0.27,2.519 0.787,7.2 -2.52,9.54 l 0,0 c -0.826,0.584 -3.228,1.624 -5.967,1.624 l 0,0 c -0.114,0 -0.228,-0.002 -0.343,-0.005"
         id="path2512"
         inkscape:connector-curvature="0" /></clipPath><clipPath
       clipPathUnits="userSpaceOnUse"
       id="clipPath2518"><path
         d="m 284.871,211.291 15.324,0 0,-4.549 -15.324,0 0,4.549 z"
         id="path2520"
         inkscape:connector-curvature="0" /></clipPath><clipPath
       clipPathUnits="userSpaceOnUse"
       id="clipPath2534"><path
         d="m 284.871,217.88 12.083,0 0,-11.138 -12.083,0 0,11.138 z"
         id="path2536"
         inkscape:connector-curvature="0" /></clipPath><clipPath
       clipPathUnits="userSpaceOnUse"
       id="clipPath2550"><path
         d="m 284.871,221.483 5.604,0 0,-14.741 -5.604,0 0,14.741 z"
         id="path2552"
         inkscape:connector-curvature="0" /></clipPath><clipPath
       clipPathUnits="userSpaceOnUse"
       id="clipPath2566"><path
         d="m 280.322,222.064 4.549,0 0,-15.322 -4.549,0 0,15.322 z"
         id="path2568"
         inkscape:connector-curvature="0" /></clipPath><clipPath
       clipPathUnits="userSpaceOnUse"
       id="clipPath2582"><path
         d="m 273.733,218.824 11.138,0 0,-12.082 -11.138,0 0,12.082 z"
         id="path2584"
         inkscape:connector-curvature="0" /></clipPath><clipPath
       clipPathUnits="userSpaceOnUse"
       id="clipPath2598"><path
         d="m 270.13,212.346 14.741,0 0,-5.604 -14.741,0 0,5.604 z"
         id="path2600"
         inkscape:connector-curvature="0" /></clipPath><clipPath
       clipPathUnits="userSpaceOnUse"
       id="clipPath2614"><path
         d="m 269.549,206.742 15.322,0 0,-4.551 -15.322,0 0,4.551 z"
         id="path2616"
         inkscape:connector-curvature="0" /></clipPath><clipPath
       clipPathUnits="userSpaceOnUse"
       id="clipPath2630"><path
         d="m 272.789,206.742 12.082,0 0,-11.138 -12.082,0 0,11.138 z"
         id="path2632"
         inkscape:connector-curvature="0" /></clipPath><clipPath
       clipPathUnits="userSpaceOnUse"
       id="clipPath2646"><path
         d="m 279.268,206.742 5.603,0 0,-14.742 -5.603,0 0,14.742 z"
         id="path2648"
         inkscape:connector-curvature="0" /></clipPath><clipPath
       clipPathUnits="userSpaceOnUse"
       id="clipPath2662"><path
         d="m 284.871,206.742 4.549,0 0,-15.325 -4.549,0 0,15.325 z"
         id="path2664"
         inkscape:connector-curvature="0" /></clipPath><clipPath
       clipPathUnits="userSpaceOnUse"
       id="clipPath2678"><path
         d="m 284.871,206.742 11.138,0 0,-12.083 -11.138,0 0,12.083 z"
         id="path2680"
         inkscape:connector-curvature="0" /></clipPath><clipPath
       clipPathUnits="userSpaceOnUse"
       id="clipPath2694"><path
         d="m 284.871,206.742 14.742,0 0,-5.605 -14.742,0 0,5.605 z"
         id="path2696"
         inkscape:connector-curvature="0" /></clipPath><clipPath
       clipPathUnits="userSpaceOnUse"
       id="clipPath2710"><path
         d="m 228,186.116 c 0,-42.802 34.698,-77.499 77.5,-77.499 l 0,0 c 42.802,0 77.5,34.697 77.5,77.499 l 0,0 c 0,42.802 -34.698,77.499 -77.5,77.499 l 0,0 c -42.802,0 -77.5,-34.697 -77.5,-77.499"
         id="path2712"
         inkscape:connector-curvature="0" /></clipPath><clipPath
       clipPathUnits="userSpaceOnUse"
       id="clipPath2718"><path
         d="m 279.471,216.017 14.737,0 0,-17.02 -14.737,0 0,17.02 z"
         id="path2720"
         inkscape:connector-curvature="0" /></clipPath><clipPath
       clipPathUnits="userSpaceOnUse"
       id="clipPath2734"><path
         d="m 278.073,214.99 12.69,0 0,-11.389 -12.69,0 0,11.389 z"
         id="path2736"
         inkscape:connector-curvature="0" /></clipPath><clipPath
       clipPathUnits="userSpaceOnUse"
       id="clipPath2754"><path
         d="m 300.307,205.661 c -0.72,-2.88 -0.269,-6.589 1.35,-9.017 l 0,0 c 1.35,-1.981 2.879,-2.485 5.131,-3.474 l 0,0 c 3.869,-1.8 10.169,-1.387 12.958,2.123 l 0,0 c 1.981,2.52 3.803,9.895 1.531,13.122 l 0,0 c -1.835,2.603 -3.632,4.299 -7.167,5.02 l 0,0 c -1.074,0.219 -2.101,0.322 -3.075,0.322 l 0,0 c -5.789,0 -9.727,-3.627 -10.728,-8.096"
         id="path2756"
         inkscape:connector-curvature="0" /></clipPath><clipPath
       clipPathUnits="userSpaceOnUse"
       id="clipPath2762"><path
         d="m 309.712,214.639 12.082,0 0,-11.138 -12.082,0 0,11.138 z"
         id="path2764"
         inkscape:connector-curvature="0" /></clipPath><clipPath
       clipPathUnits="userSpaceOnUse"
       id="clipPath2778"><path
         d="m 309.712,218.243 5.602,0 0,-14.742 -5.602,0 0,14.742 z"
         id="path2780"
         inkscape:connector-curvature="0" /></clipPath><clipPath
       clipPathUnits="userSpaceOnUse"
       id="clipPath2794"><path
         d="m 305.162,218.825 4.55,0 0,-15.324 -4.55,0 0,15.324 z"
         id="path2796"
         inkscape:connector-curvature="0" /></clipPath><clipPath
       clipPathUnits="userSpaceOnUse"
       id="clipPath2810"><path
         d="m 298.574,215.584 11.138,0 0,-12.083 -11.138,0 0,12.083 z"
         id="path2812"
         inkscape:connector-curvature="0" /></clipPath><clipPath
       clipPathUnits="userSpaceOnUse"
       id="clipPath2826"><path
         d="m 294.97,209.105 14.742,0 0,-5.604 -14.742,0 0,5.604 z"
         id="path2828"
         inkscape:connector-curvature="0" /></clipPath><clipPath
       clipPathUnits="userSpaceOnUse"
       id="clipPath2842"><path
         d="m 294.388,203.501 15.324,0 0,-4.548 -15.324,0 0,4.548 z"
         id="path2844"
         inkscape:connector-curvature="0" /></clipPath><clipPath
       clipPathUnits="userSpaceOnUse"
       id="clipPath2858"><path
         d="m 297.629,203.501 12.083,0 0,-11.137 -12.083,0 0,11.137 z"
         id="path2860"
         inkscape:connector-curvature="0" /></clipPath><clipPath
       clipPathUnits="userSpaceOnUse"
       id="clipPath2874"><path
         d="m 304.107,203.501 5.605,0 0,-14.741 -5.605,0 0,14.741 z"
         id="path2876"
         inkscape:connector-curvature="0" /></clipPath><clipPath
       clipPathUnits="userSpaceOnUse"
       id="clipPath2890"><path
         d="m 309.712,203.501 4.548,0 0,-15.323 -4.548,0 0,15.323 z"
         id="path2892"
         inkscape:connector-curvature="0" /></clipPath><clipPath
       clipPathUnits="userSpaceOnUse"
       id="clipPath2906"><path
         d="m 309.712,203.501 11.138,0 0,-12.082 -11.138,0 0,12.082 z"
         id="path2908"
         inkscape:connector-curvature="0" /></clipPath><clipPath
       clipPathUnits="userSpaceOnUse"
       id="clipPath2922"><path
         d="m 309.712,203.501 14.741,0 0,-5.604 -14.741,0 0,5.604 z"
         id="path2924"
         inkscape:connector-curvature="0" /></clipPath><clipPath
       clipPathUnits="userSpaceOnUse"
       id="clipPath2938"><path
         d="m 309.712,208.051 15.323,0 0,-4.55 -15.323,0 0,4.55 z"
         id="path2940"
         inkscape:connector-curvature="0" /></clipPath><clipPath
       clipPathUnits="userSpaceOnUse"
       id="clipPath2954"><path
         d="m 228,186.116 c 0,-42.802 34.698,-77.499 77.5,-77.499 l 0,0 c 42.802,0 77.5,34.697 77.5,77.499 l 0,0 c 0,42.802 -34.698,77.499 -77.5,77.499 l 0,0 c -42.802,0 -77.5,-34.697 -77.5,-77.499"
         id="path2956"
         inkscape:connector-curvature="0" /></clipPath><clipPath
       clipPathUnits="userSpaceOnUse"
       id="clipPath2962"><path
         d="m 305.248,213.757 17.082,0 0,-18.464 -17.082,0 0,18.464 z"
         id="path2964"
         inkscape:connector-curvature="0" /></clipPath><clipPath
       clipPathUnits="userSpaceOnUse"
       id="clipPath2978"><path
         d="m 301.837,212.469 13.795,0 0,-13.488 -13.795,0 0,13.488 z"
         id="path2980"
         inkscape:connector-curvature="0" /></clipPath><clipPath
       clipPathUnits="userSpaceOnUse"
       id="clipPath3002"><path
         d="m 303.637,167.831 63.325,0 0,-78.3183 -63.325,0 0,78.3183 z"
         id="path3004"
         inkscape:connector-curvature="0" /></clipPath><clipPath
       clipPathUnits="userSpaceOnUse"
       id="clipPath3026"><path
         d="m 334.314,171.071 36.698,0 0,-71.2683 -36.698,0 0,71.2683 z"
         id="path3028"
         inkscape:connector-curvature="0" /></clipPath><clipPath
       clipPathUnits="userSpaceOnUse"
       id="clipPath3046"><path
         d="M 0,768 1024,768 1024,0 0,0 0,768 z"
         id="path3048"
         inkscape:connector-curvature="0" /></clipPath><clipPath
       clipPathUnits="userSpaceOnUse"
       id="clipPath3058"><path
         d="m 408,536.117 c 0,-42.802 34.698,-77.5 77.5,-77.5 l 0,0 c 42.802,0 77.5,34.698 77.5,77.5 l 0,0 c 0,42.802 -34.698,77.5 -77.5,77.5 l 0,0 c -42.802,0 -77.5,-34.698 -77.5,-77.5"
         id="path3060"
         inkscape:connector-curvature="0" /></clipPath><clipPath
       clipPathUnits="userSpaceOnUse"
       id="clipPath3116"><path
         d="m 438.781,587.971 160.04,0 0,-138.661 -160.04,0 0,138.661 z"
         id="path3118"
         inkscape:connector-curvature="0" /></clipPath><clipPath
       clipPathUnits="userSpaceOnUse"
       id="clipPath3140"><path
         d="m 575.706,528.121 11.135,0 0,-49.987 -11.135,0 0,49.987 z"
         id="path3142"
         inkscape:connector-curvature="0" /></clipPath><clipPath
       clipPathUnits="userSpaceOnUse"
       id="clipPath3188"><path
         d="m 495.493,545.319 93.89,0 0,-39.655 -93.89,0 0,39.655 z"
         id="path3190"
         inkscape:connector-curvature="0" /></clipPath><clipPath
       clipPathUnits="userSpaceOnUse"
       id="clipPath3212"><path
         d="m 527.791,527.143 59.061,0 0,-39.016 -59.061,0 0,39.016 z"
         id="path3214"
         inkscape:connector-curvature="0" /></clipPath><clipPath
       clipPathUnits="userSpaceOnUse"
       id="clipPath3236"><path
         d="m 507.09,487.143 29.179,0 0,-36.931 -29.179,0 0,36.931 z"
         id="path3238"
         inkscape:connector-curvature="0" /></clipPath><clipPath
       clipPathUnits="userSpaceOnUse"
       id="clipPath3272"><path
         d="m 463.675,571.134 2.555,0 0,-4.029 -2.555,0 0,4.029 z"
         id="path3274"
         inkscape:connector-curvature="0" /></clipPath><clipPath
       clipPathUnits="userSpaceOnUse"
       id="clipPath3288"><path
         d="m 466.432,553.293 18.654,0 0,-90.323 -18.654,0 0,90.323 z"
         id="path3290"
         inkscape:connector-curvature="0" /></clipPath><clipPath
       clipPathUnits="userSpaceOnUse"
       id="clipPath3304"><path
         d="m 495.211,535.912 22.394,0 0,-21.68 -22.394,0 0,21.68 z"
         id="path3306"
         inkscape:connector-curvature="0" /></clipPath><clipPath
       clipPathUnits="userSpaceOnUse"
       id="clipPath3320"><path
         d="M 0,768 1024,768 1024,0 0,0 0,768 z"
         id="path3322"
         inkscape:connector-curvature="0" /></clipPath><clipPath
       clipPathUnits="userSpaceOnUse"
       id="clipPath3332"><path
         d="m 408.256,361.117 c 0,-42.801 34.698,-77.5 77.5,-77.5 l 0,0 c 42.801,0 77.5,34.699 77.5,77.5 l 0,0 c 0,42.802 -34.699,77.5 -77.5,77.5 l 0,0 c -42.802,0 -77.5,-34.698 -77.5,-77.5"
         id="path3334"
         inkscape:connector-curvature="0" /></clipPath><clipPath
       clipPathUnits="userSpaceOnUse"
       id="clipPath3390"><path
         d="m 460.505,414.483 179.594,0 0,-183.402 -179.594,0 0,183.402 z"
         id="path3392"
         inkscape:connector-curvature="0" /></clipPath><clipPath
       clipPathUnits="userSpaceOnUse"
       id="clipPath3462"><path
         d="m 462.712,400.909 3.423,0 0,-1.983 -3.423,0 0,1.983 z"
         id="path3464"
         inkscape:connector-curvature="0" /></clipPath><clipPath
       clipPathUnits="userSpaceOnUse"
       id="clipPath3486"><path
         d="m 482.274,388.666 23.055,0 0,-8.095 -23.055,0 0,8.095 z"
         id="path3488"
         inkscape:connector-curvature="0" /></clipPath><clipPath
       clipPathUnits="userSpaceOnUse"
       id="clipPath3506"><path
         d="m 490.869,389.44 13.788,0 0,-8.146 -13.788,0 0,8.146 z"
         id="path3508"
         inkscape:connector-curvature="0" /></clipPath><clipPath
       clipPathUnits="userSpaceOnUse"
       id="clipPath3522"><path
         d="m 525.493,299.603 97.907,0 0,-61.254 -97.907,0 0,61.254 z"
         id="path3524"
         inkscape:connector-curvature="0" /></clipPath><clipPath
       clipPathUnits="userSpaceOnUse"
       id="clipPath3546"><path
         d="m 489.459,322.129 139.97,0 0,-29.732 -139.97,0 0,29.732 z"
         id="path3548"
         inkscape:connector-curvature="0" /></clipPath><clipPath
       clipPathUnits="userSpaceOnUse"
       id="clipPath3570"><path
         d="M 0,768 1024,768 1024,0 0,0 0,768 z"
         id="path3572"
         inkscape:connector-curvature="0" /></clipPath></defs><sodipodi:namedview
     pagecolor="#ffffff"
     bordercolor="#666666"
     borderopacity="1"
     objecttolerance="10"
     gridtolerance="10"
     guidetolerance="10"
     inkscape:pageopacity="0"
     inkscape:pageshadow="2"
     inkscape:window-width="1600"
     inkscape:window-height="837"
     id="namedview4"
     showgrid="false"
     inkscape:zoom="0.675"
     inkscape:cx="462.96296"
     inkscape:cy="240.28777"
     inkscape:window-x="-8"
     inkscape:window-y="-8"
     inkscape:window-maximized="1"
     inkscape:current-layer="g10" /><g
     id="g10"
     inkscape:groupmode="layer"
     inkscape:label="tiericons_cs5"
     transform="matrix(1.25,0,0,-1.25,0,200)"><g
       id="g7807"
       transform="translate(-45.5,-103.8828)"><g
         id="g14"><g
           clip-path="url(#clipPath18)"
           id="g16"><path
             id="path22"
             style="fill:#acdef9;fill-opacity:1;fill-rule:nonzero;stroke:none"
             d="m 203.255,106.438 -155.906,0 0,155.905 155.906,0 0,-155.905 z"
             inkscape:connector-curvature="0" /><g
             transform="translate(125.4912,310.3135)"
             id="g24"><path
               id="path26"
               style="fill:#e4f9f7;fill-opacity:1;fill-rule:nonzero;stroke:none"
               d="M 0,0 0.008,-126.432 26.992,-4.848 0,0 z"
               inkscape:connector-curvature="0" /></g><g
             transform="translate(62.54,293.3721)"
             id="g28"><path
               id="path30"
               style="fill:#e4f9f7;fill-opacity:1;fill-rule:nonzero;stroke:none"
               d="M 0,0 62.959,-109.49 25.79,9.354 0,0 z"
               inkscape:connector-curvature="0" /></g><g
             transform="translate(16.46,247.0918)"
             id="g32"><path
               id="path34"
               style="fill:#e4f9f7;fill-opacity:1;fill-rule:nonzero;stroke:none"
               d="M 0,0 109.039,-63.21 17.676,21.05 0,0 z"
               inkscape:connector-curvature="0" /></g><g
             transform="translate(-0.4053,183.875)"
             id="g36"><path
               id="path38"
               style="fill:#e4f9f7;fill-opacity:1;fill-rule:nonzero;stroke:none"
               d="M 0,0 125.904,0.007 4.828,27.105 0,0 z"
               inkscape:connector-curvature="0" /></g><g
             transform="translate(16.4678,120.6611)"
             id="g40"><path
               id="path42"
               style="fill:#e4f9f7;fill-opacity:1;fill-rule:nonzero;stroke:none"
               d="M 0,0 109.031,63.221 -9.316,25.897 0,0 z"
               inkscape:connector-curvature="0" /></g><g
             transform="translate(62.5537,74.3857)"
             id="g44"><path
               id="path46"
               style="fill:#e4f9f7;fill-opacity:1;fill-rule:nonzero;stroke:none"
               d="M 0,0 62.945,109.496 -20.963,17.752 0,0 z"
               inkscape:connector-curvature="0" /></g><g
             transform="translate(125.5068,57.4521)"
             id="g48"><path
               id="path50"
               style="fill:#e4f9f7;fill-opacity:1;fill-rule:nonzero;stroke:none"
               d="M 0,0 -0.008,126.43 -26.993,4.847 0,0 z"
               inkscape:connector-curvature="0" /></g><g
             transform="translate(188.4561,74.3936)"
             id="g52"><path
               id="path54"
               style="fill:#e4f9f7;fill-opacity:1;fill-rule:nonzero;stroke:none"
               d="M 0,0 -62.957,109.488 -25.789,-9.354 0,0 z"
               inkscape:connector-curvature="0" /></g><g
             transform="translate(234.5381,120.6729)"
             id="g56"><path
               id="path58"
               style="fill:#e4f9f7;fill-opacity:1;fill-rule:nonzero;stroke:none"
               d="M 0,0 -109.039,63.209 -17.678,-21.05 0,0 z"
               inkscape:connector-curvature="0" /></g><g
             transform="translate(251.4014,183.8896)"
             id="g60"><path
               id="path62"
               style="fill:#e4f9f7;fill-opacity:1;fill-rule:nonzero;stroke:none"
               d="M 0,0 -125.902,-0.008 -4.826,-27.105 0,0 z"
               inkscape:connector-curvature="0" /></g><g
             transform="translate(234.5303,247.1045)"
             id="g64"><path
               id="path66"
               style="fill:#e4f9f7;fill-opacity:1;fill-rule:nonzero;stroke:none"
               d="M 0,0 -109.031,-63.223 9.316,-25.898 0,0 z"
               inkscape:connector-curvature="0" /></g><g
             transform="translate(188.4443,293.3779)"
             id="g68"><path
               id="path70"
               style="fill:#e4f9f7;fill-opacity:1;fill-rule:nonzero;stroke:none"
               d="M 0,0 -62.945,-109.496 20.963,-17.75 0,0 z"
               inkscape:connector-curvature="0" /></g><g
             id="g72"><g
               id="g74" /><g
               id="g80"><g
                 id="g82"
                 clip-path="url(#clipPath76)"
                 style="opacity:0.39999396"><g
                   id="g84"
                   transform="translate(58.0938,319.7256)"><path
                     id="path86"
                     style="fill:#1b0000;fill-opacity:1;fill-rule:nonzero;stroke:none"
                     d="m 0,0 c -0.493,-0.224 -0.967,-0.477 -1.424,-0.756 0.101,0.096 0.203,0.188 0.305,0.281 C -0.745,-0.299 -0.373,-0.144 0,0 m 173.579,-78.615 c 0.1,0.303 0.192,0.617 0.284,0.927 -0.092,-0.31 -0.184,-0.624 -0.284,-0.927 m -28.823,-72.176 c -3.239,3.645 -6.682,6.682 -10.936,9.314 -4.049,2.633 -7.087,6.683 -11.137,9.518 -1.956,1.441 -4.331,2.36 -6.646,3.367 6.676,3.658 11.497,9.211 8.915,17.458 -0.681,2.257 -1.154,2.858 -3.647,2.476 -1.807,-0.326 -3.63,-0.788 -5.586,-1.234 -3.63,-0.789 -7.409,-1.695 -10.938,-2.768 -2.7,-0.793 -5.322,-1.262 -7.569,-2.464 -0.152,0.071 -0.246,0.108 -0.246,0.108 -1.737,0.919 -4.351,1.7 -7.006,2.25 0.501,0.786 1.037,1.511 1.644,2.103 3.752,3.662 10.092,5.028 14.79,6.388 11.722,3.123 26.934,2.485 40.122,5.005 l 0,-0.001 c 0.17,0.032 0.338,0.068 0.509,0.102 0.199,0.038 0.398,0.077 0.596,0.117 0.206,0.043 0.411,0.088 0.617,0.133 0.197,0.043 0.396,0.085 0.592,0.13 0.204,0.045 0.406,0.095 0.61,0.142 0.196,0.046 0.391,0.091 0.584,0.139 0.203,0.05 0.405,0.103 0.605,0.154 0.193,0.049 0.387,0.099 0.578,0.15 0.197,0.053 0.391,0.108 0.587,0.163 0.193,0.055 0.387,0.107 0.578,0.164 0.195,0.057 0.387,0.116 0.58,0.176 0.189,0.057 0.38,0.114 0.569,0.175 0.191,0.06 0.379,0.126 0.569,0.188 0.188,0.062 0.376,0.123 0.562,0.189 0.189,0.065 0.373,0.133 0.559,0.2 0.185,0.066 0.369,0.133 0.554,0.202 0.184,0.07 0.368,0.144 0.552,0.216 0.179,0.071 0.362,0.14 0.541,0.215 0.183,0.076 0.363,0.154 0.543,0.232 0.176,0.075 0.354,0.15 0.528,0.229 0.181,0.08 0.358,0.165 0.536,0.248 0.173,0.08 0.347,0.159 0.516,0.242 0.176,0.086 0.349,0.176 0.521,0.263 0.171,0.086 0.341,0.17 0.508,0.258 0.173,0.092 0.34,0.187 0.509,0.281 0.167,0.091 0.334,0.181 0.497,0.275 0.171,0.099 0.336,0.2 0.505,0.302 0.158,0.095 0.317,0.189 0.475,0.287 0.166,0.103 0.329,0.214 0.492,0.321 0.156,0.101 0.312,0.201 0.465,0.305 0.159,0.109 0.317,0.223 0.475,0.336 0.15,0.108 0.305,0.214 0.455,0.325 0.154,0.116 0.307,0.237 0.46,0.355 0.148,0.115 0.298,0.227 0.441,0.344 0.152,0.122 0.297,0.25 0.446,0.376 0.143,0.12 0.288,0.238 0.428,0.362 0.148,0.13 0.288,0.265 0.433,0.398 0.138,0.127 0.277,0.251 0.413,0.382 0.142,0.136 0.279,0.279 0.418,0.42 0.132,0.133 0.266,0.263 0.395,0.4 0.139,0.146 0.273,0.298 0.409,0.447 0.124,0.139 0.253,0.274 0.374,0.415 0.131,0.153 0.259,0.312 0.388,0.468 0.121,0.147 0.244,0.29 0.364,0.441 0.125,0.158 0.245,0.324 0.368,0.487 0.115,0.154 0.235,0.305 0.349,0.465 0.121,0.169 0.238,0.344 0.355,0.517 0.109,0.16 0.222,0.318 0.329,0.482 0.118,0.18 0.23,0.369 0.345,0.554 0.099,0.164 0.204,0.325 0.301,0.492 0.112,0.187 0.217,0.383 0.325,0.576 0.096,0.174 0.196,0.343 0.29,0.52 0.103,0.197 0.202,0.402 0.301,0.602 0.09,0.18 0.185,0.358 0.273,0.543 0.099,0.211 0.191,0.428 0.288,0.644 0.083,0.185 0.169,0.365 0.248,0.554 0.095,0.222 0.182,0.452 0.271,0.681 0.076,0.19 0.155,0.374 0.227,0.568 0.084,0.227 0.161,0.461 0.242,0.691 l 0,-0.001 c 0.009,0.027 0.018,0.051 0.027,0.078 -0.009,-0.027 -0.018,-0.051 -0.027,-0.077 0.477,1.123 0.823,2.26 1.006,3.386 -1.937,-3.536 -3.853,-6.156 -5.805,-8.134 -4.535,-3.252 -10.735,-5.184 -15.113,-5.61 -4.304,-0.467 -8.652,-0.67 -12.91,-1.403 -4.79,-0.826 -8.816,-2.891 -13.34,-3.671 11.705,7.027 24.731,12.262 36.095,20.298 0.461,0.319 0.909,0.637 1.338,0.952 11.183,8.231 21.111,18.984 20.405,34.205 -0.892,16.286 -12.26,25.011 -26.839,28.524 6.112,-5.247 8.791,-16.019 3.727,-23.193 -3.303,-4.68 -5.799,-2.918 -8.441,1.284 -0.144,0.267 -0.307,0.545 -0.48,0.827 -0.044,0.073 -0.088,0.146 -0.134,0.218 -0.159,0.256 -0.323,0.514 -0.497,0.778 -0.448,0.689 -0.934,1.407 -1.404,2.146 -0.002,0.004 -0.006,0.007 -0.007,0.011 0,0.002 -0.002,0.005 -0.002,0.006 -0.171,0.557 -0.349,1.111 -0.533,1.659 -0.021,0.066 -0.044,0.132 -0.067,0.198 -0.167,0.495 -0.336,0.985 -0.508,1.472 -0.024,0.071 -0.049,0.141 -0.076,0.212 -0.175,0.497 -0.352,0.987 -0.53,1.469 -0.018,0.047 -0.033,0.094 -0.051,0.141 -0.192,0.519 -0.382,1.032 -0.566,1.533 -0.031,-0.256 -0.04,-0.512 -0.033,-0.77 0.002,-0.082 0.01,-0.164 0.015,-0.248 0.013,-0.177 0.031,-0.355 0.058,-0.535 0.015,-0.093 0.032,-0.187 0.052,-0.282 0.035,-0.173 0.075,-0.347 0.123,-0.52 0.024,-0.09 0.047,-0.18 0.075,-0.27 0.059,-0.195 0.128,-0.391 0.204,-0.586 0.024,-0.065 0.046,-0.129 0.07,-0.194 0.216,-0.536 0.477,-1.071 0.765,-1.602 0.024,-0.046 0.051,-0.091 0.077,-0.136 0.125,-0.226 0.253,-0.451 0.387,-0.674 0.028,-0.046 0.054,-0.091 0.083,-0.137 0.147,-0.243 0.297,-0.483 0.448,-0.723 0.003,-0.005 0.005,-0.009 0.009,-0.013 0,-0.002 0,-0.003 0.001,-0.004 0.074,-0.246 0.146,-0.494 0.219,-0.741 0.052,-0.182 0.103,-0.363 0.154,-0.544 0.063,-0.227 0.127,-0.455 0.184,-0.682 0.099,-0.369 0.19,-0.74 0.277,-1.111 0.04,-0.17 0.073,-0.342 0.11,-0.513 0.058,-0.265 0.112,-0.529 0.163,-0.795 0.034,-0.176 0.068,-0.352 0.097,-0.528 0.06,-0.339 0.113,-0.678 0.158,-1.016 0.018,-0.131 0.035,-0.262 0.052,-0.394 0.044,-0.361 0.077,-0.722 0.103,-1.082 0.011,-0.141 0.018,-0.283 0.027,-0.423 0.017,-0.329 0.026,-0.657 0.028,-0.982 0,-0.098 0.003,-0.198 10e-4,-0.297 -0.005,-0.409 -0.026,-0.814 -0.06,-1.216 -0.008,-0.109 -0.022,-0.216 -0.035,-0.325 -0.033,-0.322 -0.079,-0.641 -0.134,-0.958 -0.018,-0.103 -0.035,-0.209 -0.055,-0.313 -0.079,-0.397 -0.173,-0.787 -0.288,-1.172 -0.022,-0.07 -0.048,-0.14 -0.071,-0.21 -0.104,-0.323 -0.221,-0.642 -0.353,-0.956 -0.044,-0.103 -0.086,-0.205 -0.132,-0.308 -0.171,-0.372 -0.353,-0.741 -0.568,-1.099 -0.205,0.113 -0.411,0.246 -0.615,0.389 -0.063,0.045 -0.126,0.097 -0.188,0.145 -0.143,0.105 -0.283,0.214 -0.422,0.333 -0.068,0.058 -0.136,0.12 -0.202,0.182 -0.136,0.121 -0.27,0.247 -0.399,0.378 -0.062,0.062 -0.123,0.124 -0.183,0.188 -0.143,0.149 -0.283,0.305 -0.42,0.465 -0.044,0.051 -0.09,0.1 -0.132,0.153 -0.173,0.206 -0.341,0.419 -0.505,0.639 -0.005,0.009 -0.011,0.017 -0.019,0.026 -0.545,0.738 -1.033,1.541 -1.442,2.358 0,0.001 -0.001,0.002 -0.001,0.002 0.245,-1.065 0.471,-2.188 0.669,-3.325 0.004,-0.024 0.008,-0.049 0.013,-0.072 0.095,-0.548 0.183,-1.098 0.264,-1.647 0.002,-0.017 0.005,-0.034 0.007,-0.05 0.081,-0.55 0.153,-1.098 0.217,-1.64 0.009,-0.063 0.015,-0.127 0.024,-0.191 0.053,-0.457 0.098,-0.908 0.138,-1.352 0.009,-0.1 0.018,-0.201 0.027,-0.301 0.042,-0.492 0.075,-0.974 0.098,-1.441 0.003,-0.065 0.005,-0.125 0.007,-0.189 0.02,-0.396 0.029,-0.78 0.032,-1.151 0.002,-0.116 0.002,-0.231 0.002,-0.346 -0.002,-0.419 -0.011,-0.828 -0.034,-1.206 -0.668,-7.238 -4.733,-10.679 -9.008,-16.075 -7.542,-8.697 -14.9,-18.46 -23.111,-26.451 1.734,7.422 8.138,13.185 10.358,20.964 2.309,9.253 0.03,14.996 -2.266,23.419 1.473,-6.196 1.218,-16.273 -2.716,-21.538 -2.203,-3.119 -5.156,-6.642 -7.662,-3.239 -2.192,3.184 -0.624,8.386 -0.642,11.67 -5.706,-11.394 0.276,-25.431 -9.348,-34.763 -4.459,-4.331 -9.991,-7.202 -15.478,-10.341 -1.742,-0.935 -4.426,-2.157 -6.818,-3.623 -3.129,0.005 -6.351,0.029 -9.435,0.2 -0.506,0.019 -0.99,0.003 -1.464,-0.032 -2.039,3.241 -7.373,6.224 -10.124,8.105 -5.12,3.707 -10.314,7.155 -14.283,11.938 -2.403,2.889 -3.547,6.015 -4.047,9.282 -0.559,6.36 0.845,13.174 -0.124,19.756 -0.195,2.202 -0.606,4.387 -1.405,6.525 -0.37,-3.262 0.634,-8.603 -1.888,-11.534 -2.446,-2.672 -4.676,-0.245 -6.432,2.606 -0.159,0.57 -0.324,1.026 -0.497,1.336 -3.348,5.657 -2.526,15.702 -0.397,21.706 -0.435,-1.111 -0.864,-2.174 -1.278,-3.202 0.269,1.184 0.584,2.298 0.937,3.299 -3.183,-8.13 -6.065,-13.597 -4.757,-23.042 1.375,-7.973 7.125,-14.388 8.054,-21.953 -7.308,8.824 -13.58,19.318 -20.147,28.773 -3.674,5.822 -7.348,9.677 -7.238,16.946 0.159,3.392 1.396,8.512 2.836,12.68 -1.317,-2.053 -3.207,-3.965 -5.064,-4.744 -1.735,3.775 -1.136,8.102 0.301,12.341 0.303,0.835 0.633,1.665 0.983,2.486 -0.03,-0.038 -0.06,-0.073 -0.091,-0.11 0.119,0.292 0.24,0.584 0.363,0.875 -1.057,-1.322 -2.167,-2.567 -2.933,-3.687 -3.076,-3.896 -5.746,-5.379 -8.53,-0.374 -2.279,4.098 -2.238,8.974 -0.708,13.331 1.372,3.453 3.691,6.513 6.535,8.5 C 0.301,0.113 0.347,0.134 0.392,0.15 0.364,0.147 0.336,0.142 0.309,0.139 0.32,0.146 0.33,0.156 0.343,0.165 0.32,0.156 0.302,0.144 0.28,0.135 -0.013,0.096 -0.303,0.053 -0.593,0.01 -0.202,0.338 0.2,0.645 0.613,0.93 c -13.695,-1.782 -25.148,-8.254 -28.927,-21.839 -0.429,-1.398 -0.775,-2.873 -1.029,-4.431 -2.331,-15.056 6.389,-26.811 16.627,-36.191 7.936,-7.269 22.389,-16.085 29.306,-20.143 1.988,-1.369 3.95,-2.764 5.862,-4.211 -4.254,1.214 -7.928,3.554 -12.369,4.916 -0.128,0.039 -0.248,0.089 -0.376,0.125 -0.024,0.007 -0.048,0.012 -0.07,0.019 -0.02,0.005 -0.037,0.012 -0.056,0.017 -4.154,1.186 -8.457,1.852 -12.685,2.778 -0.448,0.092 -0.913,0.202 -1.392,0.331 -0.004,0.002 -0.008,0.002 -0.011,0.004 -0.195,0.051 -0.393,0.108 -0.593,0.166 -4.001,1.186 -8.792,3.516 -12.304,6.655 0.063,-0.081 0.128,-0.165 0.191,-0.243 -2.09,1.801 -3.763,3.879 -4.615,6.168 -0.066,0.309 -0.123,0.627 -0.182,0.943 0.666,-2.557 2.375,-4.876 4.606,-6.868 -1.729,2.175 -3.354,4.984 -4.903,8.71 0.044,-0.802 0.166,-1.618 0.357,-2.437 -0.071,0.209 -0.131,0.421 -0.186,0.633 5.414,-29.497 42.183,-25.206 64.248,-33.704 4.526,-1.852 10.682,-3.889 14.022,-7.931 1.484,-1.796 2.359,-4.476 3.387,-6.947 -2.06,2.486 -5.108,3.644 -8.17,5.309 -3.222,1.792 -6.725,3.475 -10.108,5.012 -1.819,0.846 -3.503,1.682 -5.201,2.383 -2.356,0.898 -2.944,0.409 -4.085,-1.652 -4.382,-7.728 -0.523,-14.324 5.515,-19.362 3.104,-2.627 7.412,-4.377 11.856,-5.341 -1.283,-0.688 -0.467,-1.057 -2.18,-1.688 -0.374,-0.205 -2.619,-0.687 -2.744,-1.123 -0.239,-0.935 2.031,-0.587 2.494,-0.501 1.739,0.251 0.79,0.277 1.965,1.424 0.272,0.263 0.602,0.439 0.964,0.565 -0.265,-0.314 -0.482,-0.67 -0.648,-1.055 -0.07,-0.048 -0.134,-0.09 -0.204,-0.14 -3.444,-2.43 -0.407,-3.644 -0.811,-7.088 0,-2.429 -2.431,-4.859 -3.848,-6.884 -3.24,-4.05 -6.479,-7.898 -10.327,-11.34 -3.645,-3.444 -10.53,-4.455 -13.77,-8.101 -0.238,-0.259 -0.447,-0.517 -0.644,-0.775 -0.05,-0.066 -0.098,-0.131 -0.146,-0.197 -0.177,-0.243 -0.341,-0.487 -0.485,-0.728 -0.008,-0.015 -0.019,-0.03 -0.028,-0.045 -0.01,-0.018 -0.018,-0.034 -0.028,-0.052 -0.414,0.127 -0.83,0.053 -1.44,-0.557 l -0.631,-2.7 c 0.271,-1.53 1.08,-2.611 1.8,-3.871 0.45,-0.809 0.99,-2.429 2.16,-2.339 0.07,0.008 0.15,0.015 0.229,0.023 0.664,-0.713 1.415,-1.421 2.25,-2.124 4.86,-4.05 8.91,-4.05 14.378,-1.013 0.247,0.114 0.462,0.257 0.675,0.4 -0.597,-2.367 -0.413,-4.818 1.042,-6.668 0.155,-0.199 0.386,-0.332 0.65,-0.436 1.622,-2.77 11.085,-2.2 14.238,-2.002 5.063,0.404 9.517,4.86 13.973,7.29 10.125,5.872 18.629,12.352 30.375,8.302 0.743,-0.259 1.784,-0.897 2.934,-1.492 2.1,-1.609 2.583,-3.919 2.735,-7.62 0.295,-7.223 7.223,-35.64 8.64,-40.905 4.86,0.203 22.275,4.454 26.325,7.087 4.456,3.038 8.708,5.265 11.947,9.517 3.038,4.051 24.369,-0.473 24.571,4.388 0.204,2.047 -12.363,24.423 -14.95,28.294 -5.089,7.609 -13.349,16.745 -16.033,19.564"
                     inkscape:connector-curvature="0" /></g></g></g></g><g
             transform="translate(126.8721,201.5117)"
             id="g88"><path
               id="path90"
               style="fill:#513d2a;fill-opacity:1;fill-rule:nonzero;stroke:none"
               d="m 0,0 c -4.354,5.533 6.514,9.891 11.028,12.313 5.487,3.139 11.018,6.01 15.478,10.34 9.624,9.332 3.641,23.369 9.348,34.765 0.017,-3.285 -1.55,-8.487 0.641,-11.671 2.507,-3.402 5.46,0.12 7.662,3.239 4.23,5.661 4.21,16.892 2.358,22.874 2.405,-9.175 5.055,-15.02 2.625,-24.755 -2.221,-7.78 -8.624,-13.542 -10.358,-20.964 8.211,7.992 15.57,17.754 23.111,26.452 4.274,5.395 8.34,8.836 9.008,16.075 0.285,4.706 -1.137,12.955 -2.715,17.341 -0.027,-3.019 2.752,-8.02 5.779,-9.69 3.827,6.414 0.358,15.405 -2.211,22.36 -0.468,-3.643 3.239,-7.66 4.854,-10.67 2.643,-4.202 5.139,-5.963 8.442,-1.284 5.064,7.174 2.385,17.946 -3.727,23.193 14.579,-3.513 25.948,-12.237 26.838,-28.523 C 108.868,66.173 98.939,55.421 87.757,47.188 76.087,38.602 62.49,33.242 50.324,25.938 c 4.523,0.782 8.55,2.846 13.34,3.672 4.258,0.734 8.607,0.936 12.909,1.404 7.276,0.706 19.588,5.57 20.918,13.744 C 89.941,13.866 52.829,22.536 29.515,16.323 24.818,14.965 18.478,13.598 14.725,9.937 10.972,6.276 9.813,-2.171 3.918,-2.064 2.811,-2.044 0.685,-0.87 0,0"
               inkscape:connector-curvature="0" /></g><g
             transform="translate(127.5195,201.8906)"
             id="g92"><path
               id="path94"
               style="fill:#49392e;fill-opacity:1;fill-rule:nonzero;stroke:none"
               d="m 0,0 c -3.561,5.451 7.111,9.38 10.76,11.287 5.95,3.11 12.014,6.654 16.672,11.555 8.42,8.86 3.647,23.406 8.422,33.818 -0.466,0.127 -0.932,0.253 -1.398,0.379 -0.129,-3.287 -1.97,-9.48 0.861,-12.201 3.004,-2.887 5.377,-0.915 7.737,1.899 5.538,6.606 5.769,16.988 3.537,24.944 -0.262,0.93 -1.698,0.537 -1.447,-0.399 2.332,-8.672 5.049,-16.841 2.162,-25.792 -2.264,-7.017 -7.916,-12.335 -9.895,-19.529 -0.2,-0.728 0.721,-1.257 1.254,-0.73 10,9.889 19.046,21.115 27.769,32.138 6.529,8.251 4.97,19.072 1.828,28.46 -0.256,0.764 -1.549,0.685 -1.474,-0.199 0.357,-4.174 2.692,-8.002 6.15,-10.337 0.326,-0.22 0.85,-0.078 1.027,0.269 3.8,7.456 0.556,15.653 -2.135,22.937 -0.285,0.771 -1.467,0.687 -1.474,-0.199 -0.036,-4.445 3.268,-9.154 5.952,-12.505 2.344,-2.929 4.583,-3.874 7.552,-1.306 7.586,6.56 3.529,19.812 -2.654,25.58 l -0.729,-1.254 c 8.909,-2.258 17.161,-6.418 22.275,-14.325 6.064,-9.376 4.835,-21.729 -0.502,-31.048 C 91.333,44.379 67.15,36.767 49.298,26.207 c -0.756,-0.447 -0.238,-1.54 0.578,-1.371 6.36,1.322 12.117,3.665 18.654,4.358 4.78,0.507 9.413,0.709 14.033,2.104 6.331,1.911 13.456,5.966 15.004,12.882 0.21,0.939 -1.201,1.338 -1.447,0.398 C 90.502,23.134 69.044,21.03 50.245,19.569 41.471,18.887 33.03,17.916 24.544,15.508 20.478,14.354 15.42,12.744 12.755,9.197 9.863,5.35 6.462,-5.911 -0.117,0.151 c -0.71,0.655 -1.774,-0.403 -1.061,-1.06 2.414,-2.225 5.957,-3.302 8.627,-0.749 4.33,4.14 5.038,9.882 10.569,13.097 9.898,5.758 23.413,5.938 34.501,6.807 18.977,1.488 39.495,4.738 45.048,25.934 L 96.12,44.578 C 94.339,36.619 84.888,33.036 77.729,31.636 73.434,30.796 68.972,30.91 64.647,30.238 59.434,29.43 54.622,27.353 49.478,26.283 c 0.192,-0.457 0.384,-0.914 0.578,-1.371 19.693,11.649 46.436,20.095 56.047,42.966 3.837,9.134 2.612,20.153 -2.72,28.396 -4.987,7.71 -13.914,11.809 -22.508,13.989 -0.705,0.178 -1.295,-0.727 -0.729,-1.254 C 85,104.479 87.167,97.994 85.889,91.47 85.448,89.225 84.215,87.3 82.8,85.55 c -2.914,-3.606 -5.933,2.016 -6.799,3.497 -1.752,2.997 -4.175,5.549 -4.145,9.253 l -1.473,-0.199 c 1.635,-4.424 3.222,-8.814 3.8,-13.522 0.108,-0.888 -0.093,-8.569 -2.288,-6.559 -2.023,1.85 -3.378,4.929 -3.607,7.61 L 66.814,85.431 C 68.406,80.678 69.249,75.684 69.52,70.686 69.895,63.76 65.853,58.949 61.696,53.957 53.887,44.576 46.295,34.886 37.604,26.292 l 1.254,-0.729 c 2.265,8.236 8.876,14.328 10.755,22.746 1.788,8.012 -0.965,15.719 -3.022,23.372 l -1.447,-0.399 c 1.554,-5.539 1.52,-11.476 0.143,-17.046 -0.377,-1.523 -1.037,-2.945 -1.792,-4.311 -0.211,-0.314 -0.422,-0.626 -0.633,-0.939 -1.586,-3.652 -4.052,-3.622 -7.401,0.093 -0.338,2.598 0.393,5.358 0.495,7.96 0.028,0.716 -1.082,1.066 -1.397,0.379 C 31.848,51.506 31.658,45.271 31.252,38.883 30.994,34.839 30.376,30.957 28.644,27.268 26.448,22.591 21.621,19.51 17.406,16.858 12.012,13.464 5.813,11.125 0.739,7.26 -2.031,5.148 -3.302,2.314 -1.295,-0.758 -0.769,-1.563 0.531,-0.813 0,0"
               inkscape:connector-curvature="0" /></g><g
             id="g96"><g
               id="g98" /><g
               id="g104"><g
                 id="g106"
                 clip-path="url(#clipPath100)"
                 style="opacity:0.19999701"><g
                   id="g108"
                   transform="translate(171.0293,250.498)"><path
                     id="path110"
                     style="fill:#000000;fill-opacity:1;fill-rule:nonzero;stroke:none"
                     d="m 0,0 c 4.229,5.661 4.21,16.892 2.357,22.874 2.406,-9.176 5.056,-15.02 2.625,-24.755 -2.22,-7.78 -8.624,-13.542 -10.357,-20.965 0,0 3.173,19.727 5.375,22.846"
                     inkscape:connector-curvature="0" /></g></g></g></g><g
             id="g112"><g
               id="g114" /><g
               id="g120"><g
                 id="g122"
                 clip-path="url(#clipPath116)"
                 style="opacity:0.19999701"><g
                   id="g124"
                   transform="translate(140.7988,211.3105)"><path
                     id="path126"
                     style="fill:#000000;fill-opacity:1;fill-rule:nonzero;stroke:none"
                     d="m 0,0 c -3.753,-3.66 -4.113,-11.97 -10.009,-11.863 -1.107,0.02 -3.412,2.151 -2.321,2.339 C -4.539,-8.181 0,0 0,0"
                     inkscape:connector-curvature="0" /></g></g></g></g><g
             id="g128"><g
               id="g130" /><g
               id="g136"><g
                 id="g138"
                 clip-path="url(#clipPath132)"
                 style="opacity:0.19999701"><g
                   id="g140"
                   transform="translate(203.8584,230.1309)"><path
                     id="path142"
                     style="fill:#000000;fill-opacity:1;fill-rule:nonzero;stroke:none"
                     d="M 0,0 C 9.591,-0.738 19.175,7.965 20.505,16.139 16.752,0.78 5.69,-4.8 -7.35,-7.291 c 0,0 4.768,7.49 7.35,7.291"
                     inkscape:connector-curvature="0" /></g></g></g></g><g
             id="g144"><g
               id="g146" /><g
               id="g152"><g
                 id="g154"
                 clip-path="url(#clipPath148)"
                 style="opacity:0.19999701"><g
                   id="g156"
                   transform="translate(208.1953,311.4297)"><path
                     id="path158"
                     style="fill:#000000;fill-opacity:1;fill-rule:nonzero;stroke:none"
                     d="m 0,0 c 8.299,-3.979 16.135,-17.101 16.636,-21.79 1.492,-14.033 -5.544,-22.231 -10.753,-27.719 -0.265,4.977 -3.099,11.611 -5.336,15.439 1.539,-9.271 -1.792,-19.436 -4.535,-25.721 -7.98,-7.371 -18.621,-15.454 -24.985,-21.647 0,0 23.737,10.122 35.407,18.709 11.182,8.232 21.111,18.984 20.404,34.206 C 25.947,-12.237 14.579,-3.513 0,0"
                     inkscape:connector-curvature="0" /></g></g></g></g><g
             id="g160"><g
               id="g162" /><g
               id="g168"><g
                 id="g170"
                 clip-path="url(#clipPath164)"
                 style="opacity:0.10000598"><g
                   id="g172"
                   transform="translate(129.2178,206.4365)"><path
                     id="path174"
                     style="fill:#ffffff;fill-opacity:1;fill-rule:nonzero;stroke:none"
                     d="M 0,0 C -0.631,-0.909 -0.662,-2.357 -1.548,-4.787 -5.902,0.746 4.306,4.168 8.819,6.59 8.819,6.59 1.021,1.475 0,0"
                     inkscape:connector-curvature="0" /></g></g></g></g><g
             id="g176"><g
               id="g178" /><g
               id="g184"><g
                 id="g186"
                 clip-path="url(#clipPath180)"
                 style="opacity:0.10000598"><g
                   id="g188"
                   transform="translate(177.3721,226.4346)"><path
                     id="path190"
                     style="fill:#ffffff;fill-opacity:1;fill-rule:nonzero;stroke:none"
                     d="m 0,0 c 4.382,1.364 8.374,3.861 13.164,4.688 4.258,0.733 8.607,0.935 12.909,1.403 7.276,0.706 19.588,5.57 20.918,13.744 C 37.545,2.589 28.648,6.898 13.393,3.356 2.067,0.726 -5.473,-1.704 0,0"
                     inkscape:connector-curvature="0" /></g></g></g></g><g
             id="g192"><g
               id="g194" /><g
               id="g200"><g
                 id="g202"
                 clip-path="url(#clipPath196)"
                 style="opacity:0.10000598"><g
                   id="g204"
                   transform="translate(153.3779,224.165)"><path
                     id="path206"
                     style="fill:#ffffff;fill-opacity:1;fill-rule:nonzero;stroke:none"
                     d="M 0,0 C 9.624,9.332 3.642,23.369 9.348,34.765 9.365,31.479 7.798,26.277 9.989,23.094 11.809,20.623 10.404,14.166 8.308,9.015 7.027,5.872 0,0 0,0"
                     inkscape:connector-curvature="0" /></g></g></g></g><g
             id="g208"><g
               id="g210" /><g
               id="g216"><g
                 id="g218"
                 clip-path="url(#clipPath212)"
                 style="opacity:0.10000598"><g
                   id="g220"
                   transform="translate(200.958,293.5)"><path
                     id="path222"
                     style="fill:#ffffff;fill-opacity:1;fill-rule:nonzero;stroke:none"
                     d="M 0,0 C -0.71,2.329 -1.561,4.603 -2.332,6.69 -2.613,4.495 -1.378,2.165 0,0"
                     inkscape:connector-curvature="0" /></g></g></g></g><g
             id="g224"><g
               id="g226" /><g
               id="g232"><g
                 id="g234"
                 clip-path="url(#clipPath228)"
                 style="opacity:0.10000598"><g
                   id="g236"
                   transform="translate(196.3086,283.0908)"><path
                     id="path238"
                     style="fill:#ffffff;fill-opacity:1;fill-rule:nonzero;stroke:none"
                     d="M 0,0 C -0.383,1.669 -0.811,3.202 -1.251,4.43 -1.264,3.169 -0.78,1.564 0,0"
                     inkscape:connector-curvature="0" /></g></g></g></g><g
             id="g240"><g
               id="g242" /><g
               id="g248"><g
                 id="g250"
                 clip-path="url(#clipPath244)"
                 style="opacity:0.10000598"><g
                   id="g252"
                   transform="translate(208.1953,311.4297)"><path
                     id="path254"
                     style="fill:#ffffff;fill-opacity:1;fill-rule:nonzero;stroke:none"
                     d="m 0,0 c 6.111,-5.247 8.791,-16.019 3.727,-23.193 -3.303,-4.679 -5.799,-2.918 -8.442,1.284 -0.641,1.195 -1.611,2.552 -2.522,3.979 1.659,-5.431 2.557,-11.18 -0.121,-15.669 -1.763,0.973 -3.439,3.077 -4.529,5.26 0.989,-4.298 1.67,-9.521 1.465,-12.911 -0.668,-7.239 -4.734,-10.68 -9.009,-16.075 -7.541,-8.698 -14.899,-18.46 -23.11,-26.452 0,0 20.134,19.733 31.698,26.357 1.744,1 3.548,1.968 5.355,2.94 1.746,2.422 3.834,7.633 4.067,9.398 0.784,5.912 0.219,10.998 0.38,15.663 2.846,-3.197 4.72,-5.919 7,-10.168 C 9.949,-35.771 13.289,-7.297 0,0"
                     inkscape:connector-curvature="0" /></g></g></g></g><g
             transform="translate(119.7061,205.0527)"
             id="g256"><path
               id="path258"
               style="fill:#513d2a;fill-opacity:1;fill-rule:nonzero;stroke:none"
               d="m 0,0 c 4.921,5.036 -5.419,10.53 -9.647,13.423 -5.12,3.707 -10.314,7.154 -14.283,11.936 -8.571,10.308 -1.122,23.624 -5.576,35.565 -0.37,-3.264 0.634,-8.604 -1.888,-11.535 -2.854,-3.116 -5.414,0.703 -7.27,4.041 -3.6,6.081 -2.38,17.245 0.103,22.994 -3.372,-8.865 -6.633,-14.393 -5.258,-24.331 1.376,-7.974 7.126,-14.388 8.055,-21.953 -7.308,8.824 -13.581,19.318 -20.148,28.772 -3.674,5.821 -7.348,9.678 -7.237,16.946 0.22,4.711 2.517,12.76 4.555,16.951 -0.296,-3.004 -3.594,-7.678 -6.784,-9.014 -3.118,6.785 1.293,15.354 4.592,21.993 0.074,-3.671 -4.041,-7.269 -5.968,-10.09 -3.076,-3.894 -5.746,-5.379 -8.53,-0.373 -4.269,7.676 -0.452,18.099 6.185,22.662 -14.871,-1.933 -27.107,-9.392 -29.735,-25.49 -2.331,-15.057 6.39,-26.81 16.628,-36.191 10.685,-9.787 23.631,-16.569 34.946,-25.132 -4.415,1.259 -8.198,3.743 -12.872,5.076 -4.154,1.186 -8.456,1.853 -12.684,2.777 -7.159,1.481 -18.88,7.634 -19.329,15.904 4.203,-31.524 42.031,-26.873 64.544,-35.544 4.526,-1.853 10.683,-3.89 14.023,-7.932 3.34,-4.041 3.588,-12.562 9.462,-13.088 C -3.014,-1.731 -0.772,-0.791 0,0"
               inkscape:connector-curvature="0" /></g><g
             transform="translate(120.2363,204.5225)"
             id="g260"><path
               id="path262"
               style="fill:#49392e;fill-opacity:1;fill-rule:nonzero;stroke:none"
               d="m 0,0 c 5.945,7.344 -9.5,14.374 -13.979,17.608 -8.132,5.874 -13.887,11.936 -14.121,22.416 -0.165,7.366 1.161,14.465 -1.213,21.629 -0.271,0.82 -1.416,0.648 -1.473,-0.199 -0.209,-3.059 0.08,-6.058 -0.649,-9.074 -1.726,-7.152 -6.573,1.027 -7.112,1.959 -0.842,1.457 -1.259,2.907 -1.649,4.513 -1.395,5.741 -0.328,12.497 1.829,17.903 l -1.447,0.398 c -2.927,-7.551 -5.982,-14.456 -5.491,-22.716 0.516,-8.646 6.895,-15.532 8.287,-23.966 l 1.254,0.729 c -7.655,9.394 -14.31,19.758 -20.877,29.932 -3.181,4.929 -6.137,9.133 -6.289,15.257 -0.133,5.369 2.244,11.758 4.453,16.571 -0.457,0.193 -0.914,0.386 -1.371,0.578 -0.498,-2.561 -1.773,-4.488 -3.48,-6.42 -3.1,-3.508 -2.856,0.357 -2.882,2.945 -0.059,5.542 3.151,11.069 5.541,15.876 -0.466,0.127 -0.932,0.253 -1.397,0.379 -0.351,-3.519 -2.943,-6.004 -5.034,-8.591 -0.919,-1.137 -1.701,-2.147 -2.711,-3.163 -3.869,-3.891 -6.265,3.624 -6.718,5.298 -1.795,6.631 2.071,14.102 7.279,18.008 0.699,0.526 0.275,1.492 -0.578,1.371 -9.006,-1.28 -17.559,-4.477 -23.724,-11.399 -6.472,-7.269 -8.06,-17.887 -6.05,-27.133 2.363,-10.86 10.823,-19.689 18.941,-26.697 10.052,-8.676 21.877,-15.031 32.492,-22.955 0.193,0.457 0.386,0.914 0.578,1.371 -4.404,1.419 -8.463,3.663 -12.872,5.076 -4.435,1.421 -9.156,1.966 -13.687,3.008 -7.139,1.641 -16.84,6.912 -17.775,14.949 l -1.473,-0.199 c 3.259,-21.737 23.509,-27.04 42.213,-30.567 10.824,-2.04 21.501,-4.091 31.377,-9.217 6.444,-3.344 6.778,-9.105 10.389,-14.504 2.276,-3.404 6.222,-3.346 9.268,-1.091 0.767,0.568 0.021,1.871 -0.758,1.295 -7.033,-5.208 -9.204,5.078 -11.427,9.485 -2.032,4.026 -6.602,6.204 -10.512,7.92 -8.271,3.631 -16.889,5.491 -25.727,7.146 -18.687,3.497 -40.057,7.789 -43.376,29.931 -0.125,0.833 -1.571,0.639 -1.474,-0.199 0.876,-7.534 7.88,-12.069 14.298,-14.848 4.081,-1.766 8.534,-2.378 12.86,-3.257 6.464,-1.312 12.071,-4.376 18.278,-6.376 0.872,-0.28 1.213,0.898 0.578,1.372 -16.962,12.663 -38.373,22.364 -48.36,42.125 -4.893,9.684 -4.088,21.528 1.896,30.513 5.382,8.079 15.279,11.501 24.445,12.804 -0.192,0.457 -0.384,0.914 -0.578,1.371 -7.784,-5.839 -10.99,-16.654 -5.529,-25.122 4.933,-7.65 14.528,7.84 14.971,12.275 0.074,0.742 -1.076,1.028 -1.398,0.379 -3.432,-6.908 -7.634,-14.786 -4.668,-22.571 0.177,-0.462 0.645,-0.69 1.103,-0.448 3.593,1.9 6.347,5.449 7.129,9.462 0.152,0.783 -0.996,1.396 -1.371,0.578 -4.231,-9.216 -6.699,-19.339 -1.342,-28.503 7.061,-12.083 15.451,-24.231 24.289,-35.075 0.527,-0.648 1.361,0.077 1.254,0.729 -1.204,7.29 -5.749,13.328 -7.726,20.379 -2.475,8.833 1.822,17.493 4.929,25.507 0.35,0.906 -1.094,1.283 -1.447,0.398 -3.203,-8.027 -3.979,-19.007 1.607,-26.201 2.073,-2.67 4.048,-3.81 6.813,-1.563 3.024,2.456 1.884,8.794 2.108,12.065 l -1.474,-0.199 c 3.75,-11.317 -1.956,-23.875 4.662,-34.44 2.996,-4.782 8.258,-8.26 12.75,-11.503 C -10.067,12.942 3.3,6.446 -1.061,1.061 -1.663,0.316 -0.608,-0.752 0,0"
               inkscape:connector-curvature="0" /></g><g
             id="g264"><g
               id="g266" /><g
               id="g272"><g
                 id="g274"
                 clip-path="url(#clipPath268)"
                 style="opacity:0.19999701"><g
                   id="g276"
                   transform="translate(107.457,216.1279)"><path
                     id="path278"
                     style="fill:#000000;fill-opacity:1;fill-rule:nonzero;stroke:none"
                     d="m 0,0 c 3.34,-4.041 2.809,-12.34 8.684,-12.865 1.101,-0.098 3.622,1.773 2.557,2.078 C 3.639,-8.618 0,0 0,0"
                     inkscape:connector-curvature="0" /></g></g></g></g><g
             id="g280"><g
               id="g282" /><g
               id="g288"><g
                 id="g290"
                 clip-path="url(#clipPath284)"
                 style="opacity:0.19999701"><g
                   id="g292"
                   transform="translate(81.3818,258.3848)"><path
                     id="path294"
                     style="fill:#000000;fill-opacity:1;fill-rule:nonzero;stroke:none"
                     d="M 0,0 C -3.6,6.082 -2.379,17.245 0.104,22.994 -3.269,14.129 -6.531,8.603 -5.154,-1.337 -3.78,-9.31 1.972,-15.724 2.901,-23.29 2.901,-23.29 1.855,-3.337 0,0"
                     inkscape:connector-curvature="0" /></g></g></g></g><g
             id="g296"><g
               id="g298" /><g
               id="g304"><g
                 id="g306"
                 clip-path="url(#clipPath300)"
                 style="opacity:0.19999701"><g
                   id="g308"
                   transform="translate(46.3477,241.708)"><path
                     id="path310"
                     style="fill:#000000;fill-opacity:1;fill-rule:nonzero;stroke:none"
                     d="M 0,0 C -9.613,0.292 -18.212,9.97 -18.66,18.239 -16.572,2.566 -6.171,-4.164 6.529,-8.037 6.529,-8.037 2.588,-0.079 0,0"
                     inkscape:connector-curvature="0" /></g></g></g></g><g
             id="g312"><g
               id="g314" /><g
               id="g320"><g
                 id="g322"
                 clip-path="url(#clipPath316)"
                 style="opacity:0.10000598"><g
                   id="g324"
                   transform="translate(119.3799,205.1455)"><path
                     id="path326"
                     style="fill:#ffffff;fill-opacity:1;fill-rule:nonzero;stroke:none"
                     d="m 0,0 c 4.922,5.036 -4.862,9.531 -9.091,12.422 0,0 7.445,-5.813 8.065,-7.496 C -0.593,3.746 0,0 0,0"
                     inkscape:connector-curvature="0" /></g></g></g></g><g
             id="g328"><g
               id="g330" /><g
               id="g336"><g
                 id="g338"
                 clip-path="url(#clipPath332)"
                 style="opacity:0.10000598"><g
                   id="g340"
                   transform="translate(95.9795,228.6689)"><path
                     id="path342"
                     style="fill:#ffffff;fill-opacity:1;fill-rule:nonzero;stroke:none"
                     d="M 0,0 C -8.57,10.308 -1.121,23.625 -5.575,35.565 -5.945,32.301 -4.941,26.961 -7.463,24.031 -9.536,21.769 -8.829,15.198 -7.296,9.853 -6.36,6.591 0,0 0,0"
                     inkscape:connector-curvature="0" /></g></g></g></g><g
             id="g344"><g
               id="g346" /><g
               id="g352"><g
                 id="g354"
                 clip-path="url(#clipPath348)"
                 style="opacity:0.19999701"><g
                   id="g356"
                   transform="translate(50.3857,322.2617)"><path
                     id="path358"
                     style="fill:#000000;fill-opacity:1;fill-rule:nonzero;stroke:none"
                     d="m 0,0 c -8.679,-3.07 -17.873,-15.277 -18.871,-19.886 -2.985,-13.794 3.134,-22.697 7.725,-28.711 0.796,4.92 4.322,11.212 6.958,14.78 -2.523,-9.053 -0.298,-19.516 1.758,-26.059 7.144,-8.184 16.86,-17.356 22.524,-24.194 0,0 -22.516,12.6 -33.202,22.388 -10.239,9.38 -18.958,21.134 -16.627,36.192 C -27.107,-9.394 -14.871,-1.934 0,0"
                     inkscape:connector-curvature="0" /></g></g></g></g><g
             id="g360"><g
               id="g362" /><g
               id="g368"><g
                 id="g370"
                 clip-path="url(#clipPath364)"
                 style="opacity:0.10000598"><g
                   id="g372"
                   transform="translate(50.3369,322.2754)"><path
                     id="path374"
                     style="fill:#ffffff;fill-opacity:1;fill-rule:nonzero;stroke:none"
                     d="m 0,0 c -6.639,-4.564 -10.454,-14.987 -6.187,-22.662 2.784,-5.006 5.454,-3.523 8.53,0.373 0.766,1.12 1.876,2.365 2.932,3.688 -2.23,-5.223 -3.737,-10.843 -1.554,-15.591 1.856,0.777 3.747,2.689 5.064,4.744 -1.441,-4.168 -2.678,-9.288 -2.837,-12.681 -0.109,-7.268 3.564,-11.125 7.237,-16.946 6.569,-9.455 12.839,-19.949 20.15,-28.774 0,0 -17.909,21.775 -28.698,29.599 -1.627,1.18 -3.318,2.335 -5.009,3.494 -1.478,2.596 -2.994,8 -3.04,9.779 -0.147,5.962 0.961,10.959 1.298,15.615 -3.17,-2.874 -5.325,-5.381 -8.046,-9.361 C -13.719,-34.502 -13.994,-5.834 0,0"
                     inkscape:connector-curvature="0" /></g></g></g></g><g
             id="g376"><g
               id="g378" /><g
               id="g384"><g
                 id="g386"
                 clip-path="url(#clipPath380)"
                 style="opacity:0.10000598"><g
                   id="g388"
                   transform="translate(72.2881,235.1992)"><path
                     id="path390"
                     style="fill:#ffffff;fill-opacity:1;fill-rule:nonzero;stroke:none"
                     d="m 0,0 c -4.212,1.824 -7.915,4.735 -12.588,6.067 -4.153,1.186 -8.457,1.852 -12.684,2.778 -7.16,1.48 -18.88,7.634 -19.329,15.903 C -37.052,6.59 -27.747,9.924 -12.959,4.77 -1.978,0.943 5.258,-2.28 0,0"
                     inkscape:connector-curvature="0" /></g></g></g></g><g
             transform="translate(116.0361,199.3975)"
             id="g392"><path
               id="path394"
               style="fill:#664c37;fill-opacity:1;fill-rule:nonzero;stroke:none"
               d="m 0,0 c -0.791,1.701 -4.702,7.115 -5.505,8.682 -1.971,3.574 -5.572,4.826 -9.186,6.791 -3.222,1.792 -6.726,3.474 -10.108,5.011 -1.819,0.847 -3.503,1.682 -5.201,2.383 -2.356,0.898 -2.944,0.41 -4.085,-1.652 -4.383,-7.727 -0.524,-14.324 5.514,-19.362 4.252,-3.597 10.757,-5.558 16.785,-6.09 1.632,-0.144 3.752,1.26 4.565,2.334"
               inkscape:connector-curvature="0" /></g><g
             transform="translate(116.6836,199.7764)"
             id="g396"><path
               id="path398"
               style="fill:#564437;fill-opacity:1;fill-rule:nonzero;stroke:none"
               d="m 0,0 c -1.497,2.856 -3.517,5.426 -5.213,8.164 -2.404,3.88 -5.787,5.499 -9.747,7.577 -5.019,2.634 -10.103,5.15 -15.309,7.395 -2.504,1.08 -3.798,0.244 -5.111,-1.921 -4.886,-8.059 0.242,-16.065 6.739,-21.137 5.098,-3.979 16.025,-8.237 21.303,-2.891 0.68,0.689 -0.38,1.75 -1.06,1.061 -5.304,-5.371 -16.905,0.797 -21.467,4.784 -3.145,2.748 -5.46,6.276 -5.978,10.47 -0.301,2.438 0.696,4.84 1.758,6.955 1.393,2.773 5.3,0.395 6.919,-0.368 6.159,-2.904 13.502,-5.552 18.725,-10.024 C -5.635,7.661 -3,2.496 -1.295,-0.758 -0.846,-1.614 0.448,-0.856 0,0"
               inkscape:connector-curvature="0" /></g><g
             transform="translate(115.499,199.4473)"
             id="g400"><path
               id="path402"
               style="fill:#896852;fill-opacity:1;fill-rule:nonzero;stroke:none"
               d="m 0,0 c -0.791,1.701 -4.458,6.822 -5.262,8.389 -1.971,3.573 -5.303,4.8 -8.917,6.764 -3.222,1.793 -6.725,3.476 -10.107,5.012 -1.819,0.848 -3.505,1.683 -5.201,2.384 -2.358,0.897 -2.652,0.653 -3.793,-1.409 -0.162,-1.748 2.677,-0.321 4.052,-0.65 1.841,-0.439 8.109,-3.074 15.509,-7.187 C -8.349,10.317 -9.598,7.088 -3.676,3.235 -1.326,1.708 0,0 0,0"
               inkscape:connector-curvature="0" /></g><g
             transform="translate(108.8711,198.168)"
             id="g404"><path
               id="path406"
               style="fill:#3f2e25;fill-opacity:1;fill-rule:nonzero;stroke:none"
               d="m 0,0 c -0.097,1.873 -7.054,8.388 -10.666,10.351 -3.222,1.793 -6.319,2.329 -9.701,3.864 -1.82,0.848 -6.159,-5.616 -0.121,-10.654 5.402,-4.573 10.021,-6.45 17.097,-6.162 0,0 3.456,1.318 3.391,2.601"
               inkscape:connector-curvature="0" /></g><g
             transform="translate(89.3438,139.332)"
             id="g408"><path
               id="path410"
               style="fill:#441915;fill-opacity:1;fill-rule:nonzero;stroke:none"
               d="m 0,0 c -2.974,3.787 -0.66,10.089 2.865,13.032 3.72,3.104 1.692,0.401 3.717,2.965 4.456,5.671 5.131,12.15 9.181,18.091 4.994,7.425 12.554,6.884 20.79,7.966 5.669,0.808 18.493,0.808 15.928,-8.507 -0.81,-3.105 -4.318,-5.94 -6.614,-8.1 -2.564,-2.564 -5.939,-4.319 -9.179,-6.21 C 30.612,15.593 25.481,10.192 19.406,6.817 14.413,3.982 9.667,0.683 4.017,-0.472 3.012,-0.678 0.744,-0.944 0,0"
               inkscape:connector-curvature="0" /></g><g
             transform="translate(146.96,207.0947)"
             id="g412"><path
               id="path414"
               style="fill:#664c37;fill-opacity:1;fill-rule:nonzero;stroke:none"
               d="m 0,0 c -3.441,1.822 -10.327,3.104 -14.175,3.104 -3.645,0 -7.492,0 -11.138,0.203 -5.264,0.203 -8.707,-2.631 -12.15,-6.278 -1.822,-1.822 -3.037,-3.847 -4.454,-6.074 -2.024,-3.24 -3.24,-2.633 -6.075,-4.658 -3.444,-2.43 -0.405,-3.645 -0.81,-7.087 0,-2.431 -2.43,-4.859 -3.848,-6.885 -3.24,-4.05 -6.479,-7.897 -10.328,-11.341 -3.645,-3.442 -10.53,-4.455 -13.77,-8.099 -4.252,-4.657 -2.024,-9.113 3.038,-13.365 4.86,-4.051 8.91,-4.051 14.378,-1.013 2.632,1.216 3.195,4.162 5.805,5.536 2.677,1.407 4.049,2.97 7.29,4.185 4.893,1.834 9.585,2.834 14.445,5.062 4.656,2.429 10.935,3.037 15.39,5.873 3.644,2.631 4.252,6.48 5.264,10.327 3.241,-9.517 -11.542,-18.834 -18.426,-22.68 -8.708,-4.86 -20.048,-8.1 -27.54,-14.783 1.214,-3.037 11.137,-2.429 14.376,-2.226 5.063,0.404 9.518,4.859 13.974,7.289 10.125,5.873 18.629,12.352 30.375,8.303 4.656,-1.621 5.465,-4.087 5.669,-9.114 0.295,-7.222 7.223,-35.639 8.64,-40.904 4.86,0.202 22.274,4.455 26.324,7.088 4.456,3.037 8.709,5.265 11.948,9.516 3.037,4.05 24.368,-0.472 24.57,4.388 0.205,2.048 -12.362,24.424 -14.95,28.294 -5.089,7.61 -13.348,16.745 -16.032,19.565 -3.24,3.643 -6.682,6.68 -10.936,9.314 -4.049,2.632 -7.087,6.683 -11.137,9.517 -3.846,2.836 -9.315,3.645 -12.757,7.088 -3.037,3.24 -6.75,5.805 -10.8,8.033 L 0,0 z"
               inkscape:connector-curvature="0" /></g><g
             transform="translate(147.1875,207.4834)"
             id="g416"><path
               id="path418"
               style="fill:#564437;fill-opacity:1;fill-rule:nonzero;stroke:none"
               d="m 0,0 c -4.142,1.963 -8.736,2.8 -13.282,3.135 -5.56,0.409 -12.647,1.215 -17.937,-0.855 -3.984,-1.558 -7.284,-5.524 -9.659,-8.911 -1.922,-2.741 -3.487,-4.765 -6.446,-6.347 -1.433,-0.765 -2.688,-1.76 -2.992,-3.397 -0.346,-1.855 0.993,-3.771 0.667,-5.897 -0.482,-3.131 -4.852,-7.113 -6.809,-9.448 -4.472,-5.336 -8.962,-9.008 -15.294,-11.844 -3.076,-1.378 -7.359,-3.892 -7.78,-7.706 -0.539,-4.874 3.088,-8.235 6.675,-10.993 9.162,-7.046 16.968,4.033 23.884,8.401 3.121,1.972 7.16,2.796 10.66,3.906 3.143,0.997 6.041,2.373 9.093,3.592 5.265,2.103 11.224,2.489 15.126,7.003 1.291,1.493 1.881,3.632 2.425,5.476 0.33,1.117 0.249,3.724 0.302,-0.172 0.023,-1.732 -0.791,-3.399 -1.579,-4.884 -2.814,-5.309 -8.642,-9.097 -13.577,-12.197 -10.033,-6.3 -21.993,-9.156 -31.127,-16.905 -0.15,-0.127 -0.17,-0.385 -0.071,-0.546 2.801,-4.531 14.973,-3.29 19.012,-1.276 12.829,6.397 24.355,19.229 39.982,14.435 5.735,-1.758 5.04,-7.253 5.696,-12.017 0.611,-4.45 1.582,-8.861 2.52,-13.251 1.749,-8.178 3.626,-16.353 5.78,-24.436 0.048,-0.183 0.237,-0.343 0.433,-0.33 7.414,0.488 15.061,2.772 22.049,5.171 3.601,1.237 6.545,3.305 9.7,5.416 3.362,2.249 5.933,6.67 9.877,7.501 6.465,1.361 13.64,-0.988 19.927,1.295 3.631,1.319 0.319,5.963 -0.687,8 -7.171,14.532 -15.469,27.618 -26.333,39.688 -2.916,3.241 -5.868,6.539 -9.376,9.158 -2.572,1.919 -5.285,3.582 -7.702,5.712 -2.07,1.825 -3.911,3.933 -6.126,5.593 -4.84,3.629 -10.824,4.81 -15.15,9.188 C 8.4,-5.219 3.83,-3.226 0.091,-0.07 -0.35,0.301 -0.99,-0.332 -0.546,-0.707 c 3.759,-3.17 8.123,-5.316 11.79,-8.671 4.944,-4.523 11.378,-6.017 16.499,-10.312 9.203,-7.722 18.278,-15.056 26.139,-24.216 6.308,-7.352 11.294,-15.059 15.977,-23.475 2.048,-3.68 4.043,-7.39 5.933,-11.155 0.719,-1.433 1.418,-2.882 2.003,-4.375 1.004,-2.559 -2.5,-2.821 -4.157,-2.994 -3.964,-0.412 -8.01,-0.104 -11.989,-0.197 -2.117,-0.049 -6.036,0.085 -7.668,-1.644 -8.044,-8.531 -16.801,-12.255 -27.96,-14.953 -1.989,-0.482 -9.648,-3.131 -10.248,-0.81 -0.98,3.791 -1.886,7.601 -2.785,11.41 -2.085,8.837 -4.433,17.831 -5.395,26.877 -0.326,3.063 -0.031,7.075 -2.955,9.065 -4.535,3.088 -10.432,3.317 -15.646,2.255 -6.596,-1.345 -12.506,-5.669 -18.201,-9.008 -2.96,-1.736 -5.69,-3.817 -8.662,-5.533 -3.02,-1.745 -6.244,-1.817 -9.609,-1.88 -1.083,-0.021 -11.379,0.308 -7.268,3.479 2.894,2.233 6.234,3.893 9.505,5.486 6.092,2.967 12.385,5.404 18.23,8.868 7.146,4.235 18.752,11.887 16.081,21.712 -0.115,0.424 -0.756,0.434 -0.867,0 -1.447,-5.673 -3.101,-9.593 -8.932,-11.919 -3.296,-1.315 -6.799,-2.029 -10.101,-3.347 -6.832,-2.729 -14.645,-4.329 -20.79,-8.473 -2.579,-1.739 -4.222,-2.908 -6.161,-5.377 -4.649,-5.915 -12.497,-3.631 -17.144,0.508 -5.649,5.032 -3.797,11.161 2.378,14.448 2.824,1.503 6.194,2.323 8.688,4.403 5.31,4.429 9.788,9.946 13.828,15.535 1.012,1.4 1.785,3.377 1.447,5.134 -0.513,2.67 -1.941,3.748 1.717,6.111 1.104,0.715 2.298,1.146 3.357,1.946 2.174,1.642 3.463,4.922 5.113,7.014 3.237,4.103 7.523,7.165 12.859,7.263 8.229,0.15 17.48,0.359 25.085,-3.245 C 0.066,-1.024 0.523,-0.249 0,0"
               inkscape:connector-curvature="0" /></g><g
             transform="translate(146.96,207.0947)"
             id="g420"><path
               id="path422"
               style="fill:#896852;fill-opacity:1;fill-rule:nonzero;stroke:none"
               d="m 0,0 c -3.441,1.822 -10.327,3.104 -14.175,3.104 -3.645,0 -7.492,0 -11.138,0.203 -5.264,0.203 -8.707,-2.631 -12.15,-6.278 -1.822,-1.822 -3.037,-3.847 -4.454,-6.074 -2.024,-3.24 -3.24,-2.633 -6.075,-4.658 -3.444,-2.43 -0.405,-3.645 -0.81,-7.087 0,-2.431 -2.43,-4.859 -3.848,-6.885 -3.24,-4.05 -6.479,-7.897 -10.328,-11.341 -3.645,-3.442 -10.53,-4.455 -13.77,-8.099 -2.868,-3.143 -2.788,-6.194 -0.875,-9.153 0.921,-1.425 9.557,1.018 11.203,-0.365 3.594,2.014 14.782,16.403 28.476,17.213 8.549,0.506 15.666,13.686 14.168,13.332 -6.97,-1.642 -8.775,1.298 -10.965,2.867 -1.703,1.222 -6.651,1.575 -9.196,1.129 -1.462,-0.257 1.871,1.039 3.664,1.86 4.658,2.431 3.526,13.578 8.358,15.709 1.661,0.732 1.876,1.367 5.046,1.672 0.735,0.072 -5.06,-5.973 -5.835,-8.417 -0.383,-1.207 2.826,-1.701 3.443,-1.422 4.093,1.855 11.138,10.226 20.159,9.121 5.013,-0.615 6.801,-1.252 9.44,-2.304 7.038,-2.53 7.975,-4.002 4.547,1.667 C 3.057,-1.187 0,0 0,0"
               inkscape:connector-curvature="0" /></g><g
             transform="translate(154.5449,176.7432)"
             id="g424"><path
               id="path426"
               style="fill:#564030;fill-opacity:1;fill-rule:nonzero;stroke:none"
               d="m 0,0 c -4.346,4.564 -16.996,6.706 -29.522,0 -5.362,-2.871 -7.248,-7.756 -12.96,-10.994 -5.976,-3.386 -13.552,-4.38 -18.765,-7.592 -5.469,-3.369 -8.844,-9.962 -12.959,-9.721 -4.592,0.271 -8.031,-1.031 -7.089,-1.822 4.86,-4.051 8.91,-4.051 14.378,-1.013 2.632,1.216 3.195,4.163 5.805,5.537 2.677,1.407 4.049,2.969 7.29,4.184 4.893,1.835 9.585,2.835 14.445,5.063 4.656,2.428 10.935,3.037 15.39,5.873 3.644,2.631 4.252,6.479 5.264,10.327 15.455,-11.388 -6.827,-21.465 -13.713,-25.313 -4.188,-2.338 -7.317,-7.749 -14.841,-6.885 -6.446,0.74 -13.524,-1.796 -17.412,-5.265 1.214,-3.037 11.137,-2.43 14.376,-2.227 5.063,0.405 9.518,4.86 13.974,7.289 10.125,5.873 18.629,12.353 30.375,8.303 2.761,-0.961 9.592,-7.155 11.002,3.105 C 5.706,-16.293 1.536,-1.616 0,0"
               inkscape:connector-curvature="0" /></g><g
             transform="translate(124.752,192.9873)"
             id="g428"><path
               id="path430"
               style="fill:#896852;fill-opacity:1;fill-rule:nonzero;stroke:none"
               d="m 0,0 c 2.728,-0.551 4.065,-5.126 2.946,-7.561 -1.486,-3.224 -6.907,-4.419 -9.425,-0.944 2.16,0.944 2.025,3.239 1.484,5.265 -0.27,1.215 -1.216,1.215 -0.27,2.429 0.54,0.54 2.129,0.673 2.971,0.811 0.565,0.091 1.731,0.113 2.294,0"
               inkscape:connector-curvature="0" /></g><g
             transform="translate(99.2715,189.6455)"
             id="g432"><path
               id="path434"
               style="fill:#282d35;fill-opacity:1;fill-rule:nonzero;stroke:none"
               d="M 0,0 C 1.078,-2.16 2.43,-3.442 5.063,-2.43 6.885,-1.721 8.403,0.912 7.896,2.938 7.492,4.86 4.961,6.277 3.037,6.177 0.506,6.074 -0.858,3.4 -0.405,1.114 -0.348,0.822 -0.133,0.266 0,0"
               inkscape:connector-curvature="0" /></g><g
             transform="translate(98.8828,189.418)"
             id="g436"><path
               id="path438"
               style="fill:#22252b;fill-opacity:1;fill-rule:nonzero;stroke:none"
               d="M 0,0 C 1.158,-2.214 3.095,-3.801 5.679,-2.591 8.142,-1.437 9.538,1.656 8.378,4.183 7.295,6.542 3.795,7.448 1.614,6.332 -0.663,5.167 -0.915,2.07 0,0 0.234,-0.529 1.01,-0.071 0.777,0.455 0.059,2.079 0.295,3.839 1.528,5.146 3.107,6.819 5.824,5.691 7.163,4.348 8.979,2.525 7.4,-0.508 5.609,-1.633 3.447,-2.991 1.734,-1.376 0.777,0.455 0.508,0.969 -0.269,0.514 0,0"
               inkscape:connector-curvature="0" /></g><g
             transform="translate(118.9141,192.1768)"
             id="g440"><path
               id="path442"
               style="fill:#282d35;fill-opacity:1;fill-rule:nonzero;stroke:none"
               d="m 0,0 c -2.428,-0.109 -3.442,-2.835 -3.442,-4.859 0.1,-2.937 2.126,-3.444 4.758,-3.444 2.532,0 3.544,0.709 3.645,3.444 C 5.063,-2.835 4.79,0.115 2.228,0.203 1.668,0.221 0.558,0.026 0,0"
               inkscape:connector-curvature="0" /></g><g
             transform="translate(118.9141,192.627)"
             id="g444"><path
               id="path446"
               style="fill:#22252b;fill-opacity:1;fill-rule:nonzero;stroke:none"
               d="m 0,0 c -2.821,-0.313 -4.048,-3.193 -3.858,-5.776 0.231,-3.148 3.476,-3.546 6.005,-3.395 2.995,0.179 3.386,2.786 3.255,5.307 -0.062,1.206 -0.39,2.375 -1.21,3.28 C 3.131,0.588 1.348,0.113 0,0 -0.574,-0.049 -0.578,-0.949 0,-0.9 0.961,-0.819 1.925,-0.577 2.88,-0.812 3.932,-1.068 4.262,-2.34 4.433,-3.236 4.762,-4.962 4.765,-7.648 2.739,-8.184 0.946,-8.658 -2.048,-8.418 -2.804,-6.465 -3.601,-4.405 -2.331,-1.158 0,-0.9 0.57,-0.837 0.576,0.063 0,0"
               inkscape:connector-curvature="0" /></g><g
             transform="translate(155.2617,136.4893)"
             id="g448"><path
               id="path450"
               style="fill:#564030;fill-opacity:1;fill-rule:nonzero;stroke:none"
               d="M 0,0 C 3.646,-1.215 10.327,-0.404 11.138,4.253 13.163,-1.822 5.721,-6.214 1.215,-4.455 L 0,0 z"
               inkscape:connector-curvature="0" /></g><g
             transform="translate(105.7129,191.8477)"
             id="g452"><path
               id="path454"
               style="fill:#cde7f9;fill-opacity:1;fill-rule:nonzero;stroke:none"
               d="m 0,0 c -0.135,1.619 -1.89,3.442 -3.577,3.442 -1.89,0 -3.105,-2.429 -2.7,-4.117 0.624,-2.914 3.995,-2.953 5.774,-1.779 1.107,0.729 0.301,3.264 0.301,3.331 L 0,0 z"
               inkscape:connector-curvature="0" /></g><g
             transform="translate(118.2549,190.9355)"
             id="g456"><path
               id="path458"
               style="fill:#cde7f9;fill-opacity:1;fill-rule:nonzero;stroke:none"
               d="m 0,0 c 0.877,0.529 2.336,0.33 2.983,0.102 1.823,-0.675 2.431,-3.038 1.215,-4.523 -1.08,-1.282 -3.442,-1.957 -4.927,-0.877 -1.282,1.012 -1.444,3.666 0,4.657 0.2,0.138 0.522,0.516 0.729,0.641"
               inkscape:connector-curvature="0" /></g><g
             transform="translate(106.2715,189.8848)"
             id="g460"><path
               id="path462"
               style="fill:#111111;fill-opacity:1;fill-rule:nonzero;stroke:none"
               d="m 0,0 c -0.166,1.76 -2.33,6.142 -5.3,2.495 -0.797,-0.976 -0.118,-3.772 0.962,-4.718 0.404,-0.37 1.627,-0.921 2.371,-0.497 C -1.237,-2.305 0.09,-0.942 0,0"
               inkscape:connector-curvature="0" /></g><g
             transform="translate(118.6064,184.9619)"
             id="g464"><path
               id="path466"
               style="fill:#111111;fill-opacity:1;fill-rule:nonzero;stroke:none"
               d="M 0,0 C -1.419,0.404 -1.013,3.578 -0.136,4.32 0.81,5.13 1.89,5.198 3.104,5.13 4.656,4.995 5.603,2.43 4.59,1.08 3.915,0.136 2.228,-0.271 1.013,-0.135 L 0,0 z"
               inkscape:connector-curvature="0" /></g><g
             transform="translate(105.3965,196.5293)"
             id="g468"><path
               id="path470"
               style="fill:#513d2a;fill-opacity:1;fill-rule:nonzero;stroke:none"
               d="m 0,0 c -1.644,0.728 -4.076,0.282 -5.687,-0.43 -1.842,-0.815 -0.703,-1.19 -2.568,-1.877 -0.373,-0.206 -2.618,-0.688 -2.744,-1.123 -0.238,-0.936 2.03,-0.587 2.495,-0.501 1.738,0.251 0.789,0.276 1.965,1.424 0.967,0.942 2.661,0.832 4.092,0.89 1.92,0.01 3.794,-1.223 5.593,-1.303 -0.147,0.796 -1.665,1.958 -2.318,2.524 L 0,0 z"
               inkscape:connector-curvature="0" /></g><g
             transform="translate(105.4766,196.8184)"
             id="g472"><path
               id="path474"
               style="fill:#49392e;fill-opacity:1;fill-rule:nonzero;stroke:none"
               d="m 0,0 c -2.176,0.706 -5.845,0.505 -7.302,-1.554 -0.66,-0.934 -4.455,-1.017 -4.028,-2.572 0.284,-1.032 3.319,-0.478 3.918,-0.127 0.104,0.061 0.221,0.15 0.28,0.257 0.914,1.633 2.284,1.713 3.872,1.769 2.232,0.08 4.156,-1.008 6.326,-1.282 0.181,-0.022 0.36,0.212 0.289,0.38 -0.587,1.404 -1.94,2.457 -3.284,3.099 -0.346,0.166 -0.651,-0.352 -0.302,-0.518 0.819,-0.391 1.447,-0.915 2.116,-1.525 0.803,-0.733 -1.949,-0.008 -1.892,-0.028 -0.497,0.168 -1.175,0.388 -1.7,0.43 -2.007,0.158 -4.138,0.195 -5.558,-1.399 -0.657,-0.74 -1.047,-0.829 -2.058,-0.951 -0.823,-0.1 -0.894,0.498 -0.129,0.745 0.401,0.13 0.805,0.235 1.197,0.391 0.418,0.166 0.977,0.36 1.265,0.748 1.449,1.956 4.715,2.244 6.83,1.559 C 0.209,-0.698 0.366,-0.119 0,0"
               inkscape:connector-curvature="0" /></g><g
             transform="translate(113.6338,192.5986)"
             id="g476"><path
               id="path478"
               style="fill:#513d2a;fill-opacity:1;fill-rule:nonzero;stroke:none"
               d="m 0,0 c 3.114,1.68 7.014,1.91 10.479,1.308 1.667,-0.261 3.723,-0.702 5.263,-1.491 0.505,-0.33 1.994,-0.976 1.901,-1.781 C 17.535,-2.902 15.874,-2.575 15.211,-2.432 12.283,-1.89 9.627,-0.769 6.603,-0.489 4.516,-0.316 3.012,0.196 0.954,0.026 L 0,0 z"
               inkscape:connector-curvature="0" /></g><g
             transform="translate(113.7852,192.3398)"
             id="g480"><path
               id="path482"
               style="fill:#49392e;fill-opacity:1;fill-rule:nonzero;stroke:none"
               d="m 0,0 c 3.273,1.577 6.689,1.803 10.247,1.277 1.805,-0.266 3.519,-0.719 5.192,-1.46 0.774,-0.265 1.018,-0.884 0.732,-1.857 -0.765,0.096 -1.523,0.235 -2.272,0.42 -4.729,1.006 -9.154,2.314 -14.05,2.179 -0.386,-0.011 -0.387,-0.611 0,-0.6 4.755,0.131 9.313,-0.993 13.891,-2.157 0.681,-0.174 4.051,-1.205 4.051,0.493 0,2.251 -4.921,3.08 -6.344,3.382 C 7.451,2.521 3.399,2.302 -0.303,0.518 -0.651,0.35 -0.347,-0.167 0,0"
               inkscape:connector-curvature="0" /></g><g
             transform="translate(210.5029,152.0596)"
             id="g484"><path
               id="path486"
               style="fill:#564030;fill-opacity:1;fill-rule:nonzero;stroke:none"
               d="m 0,0 c -2.932,4.386 -7.35,9.276 -11.079,13.174 -1.039,1.69 -2.654,3.156 -4.674,5.276 -3.24,3.645 -6.682,6.683 -10.935,9.315 -4.05,2.633 -7.088,6.683 -11.138,9.517 -3.846,2.835 -9.315,3.646 -12.757,7.088 -1.299,1.384 4.253,-12.556 -0.265,-18.067 14.437,-16.97 20.637,-27.884 23.054,-37.416 -0.615,-2.616 -1.41,-6.184 -1.186,-6.7 2.173,-5.027 8.614,-23.58 9.09,-23.268 3.836,2.515 7.44,4.684 10.27,8.399 3.037,4.051 24.368,-0.472 24.57,4.388 C 15.156,-26.246 2.588,-3.871 0,0"
               inkscape:connector-curvature="0" /></g><g
             transform="translate(67.4414,157.625)"
             id="g488"><path
               id="path490"
               style="fill:#111111;fill-opacity:1;fill-rule:nonzero;stroke:none"
               d="m 0,0 c 1.44,1.439 1.8,-0.09 3.6,-0.271 1.259,-0.179 5.67,0.45 6.66,-0.54 0.541,-0.54 1.89,-3.149 1.53,-3.87 C 11.159,-5.851 8.999,-4.59 8.009,-4.771 6.659,-5.04 6.93,-7.471 5.94,-8.371 5.4,-8.821 4.051,-8.821 3.33,-8.91 2.16,-9 1.619,-7.38 1.169,-6.571 0.449,-5.311 -0.36,-4.23 -0.631,-2.7 L 0,0 z"
               inkscape:connector-curvature="0" /></g><g
             transform="translate(137.1553,197.4219)"
             id="g492"><path
               id="path494"
               style="fill:#664c37;fill-opacity:1;fill-rule:nonzero;stroke:none"
               d="m 0,0 c 1.13,1.496 6.094,5.965 7.21,7.327 2.679,3.078 6.464,3.543 10.41,4.701 3.527,1.074 7.307,1.981 10.937,2.769 1.957,0.446 3.779,0.907 5.587,1.234 2.492,0.382 2.964,-0.218 3.647,-2.475 C 40.445,5.079 35.282,-0.558 28.319,-4.209 23.405,-6.83 16.632,-7.377 10.627,-6.625 9.003,-6.423 7.226,-4.603 6.656,-3.382"
               inkscape:connector-curvature="0" /></g><g
             transform="translate(137.6855,196.8916)"
             id="g496"><path
               id="path498"
               style="fill:#564437;fill-opacity:1;fill-rule:nonzero;stroke:none"
               d="m 0,0 c 2.604,3.126 5.962,6.688 9.26,9.08 2.638,1.913 6.742,2.378 9.812,3.278 3.491,1.025 7.057,1.759 10.598,2.581 1.665,0.386 3.324,0.812 5.031,0.978 2.152,0.21 2.459,-5.134 2.518,-6.058 C 37.452,6.186 35.276,3.036 32.782,0.61 30.182,-1.92 26.619,-3.609 23.207,-4.653 18.877,-5.977 9.745,-7.143 6.773,-2.473 6.256,-1.66 4.957,-2.411 5.479,-3.23 9.9,-10.178 22.004,-7.282 28.168,-4.326 c 7.478,3.587 12.009,10.334 9.816,18.611 -0.502,1.896 -1.324,2.948 -3.283,3.132 -1.729,0.163 -3.784,-0.648 -5.43,-1.031 C 25.727,15.562 22.185,14.767 18.673,13.805 14.175,12.573 9.569,11.755 6.149,8.388 3.731,6.007 1.112,3.67 -1.061,1.061 -1.675,0.323 -0.619,-0.744 0,0"
               inkscape:connector-curvature="0" /></g><g
             transform="translate(137.6914,197.3574)"
             id="g500"><path
               id="path502"
               style="fill:#896852;fill-opacity:1;fill-rule:nonzero;stroke:none"
               d="m 0,0 c 1.13,1.496 5.795,5.729 6.909,7.092 2.681,3.077 6.196,3.575 10.143,4.733 3.528,1.073 7.307,1.981 10.937,2.769 1.956,0.445 3.78,0.907 5.586,1.234 2.493,0.381 2.729,0.081 3.41,-2.176 -0.209,-1.743 -2.683,0.249 -4.096,0.218 C 30.995,13.829 24.313,12.575 16.212,10.114 10.334,8.326 10.875,4.905 4.272,2.388 1.655,1.39 0,0 0,0"
               inkscape:connector-curvature="0" /></g><g
             transform="translate(143.8994,194.71)"
             id="g504"><path
               id="path506"
               style="fill:#3f2e25;fill-opacity:1;fill-rule:nonzero;stroke:none"
               d="m 0,0 c 0.489,1.811 8.661,6.713 12.607,7.871 3.528,1.073 6.669,0.943 10.299,1.733 1.956,0.445 4.838,-6.789 -2.127,-10.441 C 14.534,-4.167 9.624,-5.029 2.766,-3.256 2.766,-3.256 -0.336,-1.24 0,0"
               inkscape:connector-curvature="0" /></g></g></g><g
         id="g508"><g
           clip-path="url(#clipPath512)"
           id="g510"><g
             transform="translate(203,183.8828)"
             id="g516"><path
               id="path518"
               style="fill:none;stroke:#ffffff;stroke-width:5;stroke-linecap:butt;stroke-linejoin:miter;stroke-miterlimit:10;stroke-opacity:1;stroke-dasharray:none"
               d="m 0,0 c 0,-42.802 -34.698,-77.5 -77.5,-77.5 -42.802,0 -77.5,34.698 -77.5,77.5 0,42.802 34.698,77.5 77.5,77.5 C -34.698,77.5 0,42.802 0,0 z"
               inkscape:connector-curvature="0" /></g></g></g></g></g></svg>