<?xml version="1.0" encoding="UTF-8" standalone="no"?>
<!-- Created with Inkscape (http://www.inkscape.org/) -->

<svg
   xmlns:dc="http://purl.org/dc/elements/1.1/"
   xmlns:cc="http://creativecommons.org/ns#"
   xmlns:rdf="http://www.w3.org/1999/02/22-rdf-syntax-ns#"
   xmlns:svg="http://www.w3.org/2000/svg"
   xmlns="http://www.w3.org/2000/svg"
   xmlns:sodipodi="http://sodipodi.sourceforge.net/DTD/sodipodi-0.dtd"
   xmlns:inkscape="http://www.inkscape.org/namespaces/inkscape"
   id="svg2"
   version="1.1"
   inkscape:version="0.48.2 r9819"
   width="200"
   height="200"
   xml:space="preserve"
   sodipodi:docname="animalmallard.svg"><metadata
     id="metadata8"><rdf:RDF><cc:Work
         rdf:about=""><dc:format>image/svg+xml</dc:format><dc:type
           rdf:resource="http://purl.org/dc/dcmitype/StillImage" /><dc:title></dc:title></cc:Work></rdf:RDF></metadata><defs
     id="defs6"><clipPath
       clipPathUnits="userSpaceOnUse"
       id="clipPath18"><path
         d="m 48,183.883 c 0,-42.802 34.698,-77.5 77.5,-77.5 l 0,0 c 42.802,0 77.5,34.698 77.5,77.5 l 0,0 c 0,42.802 -34.698,77.499 -77.5,77.499 l 0,0 C 82.698,261.382 48,226.685 48,183.883"
         id="path20"
         inkscape:connector-curvature="0" /></clipPath><clipPath
       clipPathUnits="userSpaceOnUse"
       id="clipPath76"><path
         d="m 28.3701,320.655 214.7989,0 0,-220.57 -214.7989,0 0,220.57 z"
         id="path78"
         inkscape:connector-curvature="0" /></clipPath><clipPath
       clipPathUnits="userSpaceOnUse"
       id="clipPath100"><path
         d="m 165.654,273.372 11.322,0 0,-45.72 -11.322,0 0,45.72 z"
         id="path102"
         inkscape:connector-curvature="0" /></clipPath><clipPath
       clipPathUnits="userSpaceOnUse"
       id="clipPath116"><path
         d="m 128.183,211.311 12.616,0 0,-11.865 -12.616,0 0,11.865 z"
         id="path118"
         inkscape:connector-curvature="0" /></clipPath><clipPath
       clipPathUnits="userSpaceOnUse"
       id="clipPath132"><path
         d="m 196.509,246.27 27.854,0 0,-23.43 -27.854,0 0,23.43 z"
         id="path134"
         inkscape:connector-curvature="0" /></clipPath><clipPath
       clipPathUnits="userSpaceOnUse"
       id="clipPath148"><path
         d="m 179.223,311.43 55.845,0 0,-81.438 -55.845,0 0,81.438 z"
         id="path150"
         inkscape:connector-curvature="0" /></clipPath><clipPath
       clipPathUnits="userSpaceOnUse"
       id="clipPath164"><path
         d="m 126.612,213.026 11.425,0 0,-11.377 -11.425,0 0,11.377 z"
         id="path166"
         inkscape:connector-curvature="0" /></clipPath><clipPath
       clipPathUnits="userSpaceOnUse"
       id="clipPath180"><path
         d="m 175.549,246.27 48.814,0 0,-20.403 -48.814,0 0,20.403 z"
         id="path182"
         inkscape:connector-curvature="0" /></clipPath><clipPath
       clipPathUnits="userSpaceOnUse"
       id="clipPath196"><path
         d="m 153.378,258.93 10.828,0 0,-34.765 -10.828,0 0,34.765 z"
         id="path198"
         inkscape:connector-curvature="0" /></clipPath><clipPath
       clipPathUnits="userSpaceOnUse"
       id="clipPath212"><path
         d="m 198.586,300.19 2.372,0 0,-6.69 -2.372,0 0,6.69 z"
         id="path214"
         inkscape:connector-curvature="0" /></clipPath><clipPath
       clipPathUnits="userSpaceOnUse"
       id="clipPath228"><path
         d="m 195.058,287.521 1.251,0 0,-4.43 -1.251,0 0,4.43 z"
         id="path230"
         inkscape:connector-curvature="0" /></clipPath><clipPath
       clipPathUnits="userSpaceOnUse"
       id="clipPath244"><path
         d="m 165.654,311.43 52.038,0 0,-83.778 -52.038,0 0,83.778 z"
         id="path246"
         inkscape:connector-curvature="0" /></clipPath><clipPath
       clipPathUnits="userSpaceOnUse"
       id="clipPath268"><path
         d="m 107.457,216.128 11.498,0 0,-12.869 -11.498,0 0,12.869 z"
         id="path270"
         inkscape:connector-curvature="0" /></clipPath><clipPath
       clipPathUnits="userSpaceOnUse"
       id="clipPath284"><path
         d="m 75.9043,281.379 8.3789,0 0,-46.284 -8.3789,0 0,46.284 z"
         id="path286"
         inkscape:connector-curvature="0" /></clipPath><clipPath
       clipPathUnits="userSpaceOnUse"
       id="clipPath300"><path
         d="m 27.6875,259.947 25.1895,0 0,-26.276 -25.1895,0 0,26.276 z"
         id="path302"
         inkscape:connector-curvature="0" /></clipPath><clipPath
       clipPathUnits="userSpaceOnUse"
       id="clipPath316"><path
         d="m 110.289,217.567 10.443,0 0,-12.421 -10.443,0 0,12.421 z"
         id="path318"
         inkscape:connector-curvature="0" /></clipPath><clipPath
       clipPathUnits="userSpaceOnUse"
       id="clipPath332"><path
         d="m 87.2285,264.234 8.751,0 0,-35.565 -8.751,0 0,35.565 z"
         id="path334"
         inkscape:connector-curvature="0" /></clipPath><clipPath
       clipPathUnits="userSpaceOnUse"
       id="clipPath348"><path
         d="m 20.2695,322.262 50.21,0 0,-84.071 -50.21,0 0,84.071 z"
         id="path350"
         inkscape:connector-curvature="0" /></clipPath><clipPath
       clipPathUnits="userSpaceOnUse"
       id="clipPath364"><path
         d="m 38.1172,322.275 45.5547,0 0,-87.848 -45.5547,0 0,87.848 z"
         id="path366"
         inkscape:connector-curvature="0" /></clipPath><clipPath
       clipPathUnits="userSpaceOnUse"
       id="clipPath380"><path
         d="m 27.6875,259.947 46.3525,0 0,-25.508 -46.3525,0 0,25.508 z"
         id="path382"
         inkscape:connector-curvature="0" /></clipPath><clipPath
       clipPathUnits="userSpaceOnUse"
       id="clipPath512"><path
         d="M 0,768 1024,768 1024,0 0,0 0,768 z"
         id="path514"
         inkscape:connector-curvature="0" /></clipPath><clipPath
       clipPathUnits="userSpaceOnUse"
       id="clipPath524"><path
         d="m 48,361.117 c 0,-42.801 34.698,-77.5 77.5,-77.5 l 0,0 c 42.802,0 77.5,34.699 77.5,77.5 l 0,0 c 0,42.802 -34.698,77.5 -77.5,77.5 l 0,0 c -42.802,0 -77.5,-34.698 -77.5,-77.5"
         id="path526"
         inkscape:connector-curvature="0" /></clipPath><clipPath
       clipPathUnits="userSpaceOnUse"
       id="clipPath582"><path
         d="m 83.4062,417.107 107.1498,0 0,-188.795 -107.1498,0 0,188.795 z"
         id="path584"
         inkscape:connector-curvature="0" /></clipPath><clipPath
       clipPathUnits="userSpaceOnUse"
       id="clipPath610"><path
         d="m 84.9932,382.28 34.2428,0 0,-99.798 -34.2428,0 0,99.798 z"
         id="path612"
         inkscape:connector-curvature="0" /></clipPath><clipPath
       clipPathUnits="userSpaceOnUse"
       id="clipPath698"><path
         d="m 136.179,348.39 27.69,0 0,-65.261 -27.69,0 0,65.261 z"
         id="path700"
         inkscape:connector-curvature="0" /></clipPath><clipPath
       clipPathUnits="userSpaceOnUse"
       id="clipPath734"><path
         d="M 0,768 1024,768 1024,0 0,0 0,768 z"
         id="path736"
         inkscape:connector-curvature="0" /></clipPath><clipPath
       clipPathUnits="userSpaceOnUse"
       id="clipPath746"><path
         d="m 48,533.883 c 0,-42.802 34.698,-77.5 77.5,-77.5 l 0,0 c 42.802,0 77.5,34.698 77.5,77.5 l 0,0 c 0,42.802 -34.698,77.5 -77.5,77.5 l 0,0 c -42.802,0 -77.5,-34.698 -77.5,-77.5"
         id="path748"
         inkscape:connector-curvature="0" /></clipPath><clipPath
       clipPathUnits="userSpaceOnUse"
       id="clipPath804"><path
         d="m 70.0752,597.154 140.1478,0 0,-172.125 -140.1478,0 0,172.125 z"
         id="path806"
         inkscape:connector-curvature="0" /></clipPath><clipPath
       clipPathUnits="userSpaceOnUse"
       id="clipPath828"><path
         d="m 72.2432,516.053 121.3948,0 0,-80.86 -121.3948,0 0,80.86 z"
         id="path830"
         inkscape:connector-curvature="0" /></clipPath><clipPath
       clipPathUnits="userSpaceOnUse"
       id="clipPath868"><path
         d="m 98,566.655 10.04,0 0,-10.399 -10.04,0 0,10.399 z"
         id="path870"
         inkscape:connector-curvature="0" /></clipPath><clipPath
       clipPathUnits="userSpaceOnUse"
       id="clipPath884"><path
         d="m 116.188,564.133 19.527,0 0,-12.705 -19.527,0 0,12.705 z"
         id="path886"
         inkscape:connector-curvature="0" /></clipPath><clipPath
       clipPathUnits="userSpaceOnUse"
       id="clipPath908"><path
         d="m 107.135,573.487 49.874,0 0,-41.003 -49.874,0 0,41.003 z"
         id="path910"
         inkscape:connector-curvature="0" /></clipPath><clipPath
       clipPathUnits="userSpaceOnUse"
       id="clipPath940"><path
         d="m 117.255,561.123 9.391,0 0,-8.776 -9.391,0 0,8.776 z"
         id="path942"
         inkscape:connector-curvature="0" /></clipPath><clipPath
       clipPathUnits="userSpaceOnUse"
       id="clipPath964"><path
         d="m 117.456,560.869 8.443,0 0,-7.236 -8.443,0 0,7.236 z"
         id="path966"
         inkscape:connector-curvature="0" /></clipPath><clipPath
       clipPathUnits="userSpaceOnUse"
       id="clipPath980"><path
         d="m 117.002,560.869 6.503,0 0,-6.584 -6.503,0 0,6.584 z"
         id="path982"
         inkscape:connector-curvature="0" /></clipPath><clipPath
       clipPathUnits="userSpaceOnUse"
       id="clipPath996"><path
         d="m 97.1562,564.531 7.1068,0 0,-7.397 -7.1068,0 0,7.397 z"
         id="path998"
         inkscape:connector-curvature="0" /></clipPath><clipPath
       clipPathUnits="userSpaceOnUse"
       id="clipPath1020"><path
         d="m 97.7725,564.531 6.0075,0 0,-6.753 -6.0075,0 0,6.753 z"
         id="path1022"
         inkscape:connector-curvature="0" /></clipPath><clipPath
       clipPathUnits="userSpaceOnUse"
       id="clipPath1036"><path
         d="m 97.1562,564.531 4.6348,0 0,-6.592 -4.6348,0 0,6.592 z"
         id="path1038"
         inkscape:connector-curvature="0" /></clipPath><clipPath
       clipPathUnits="userSpaceOnUse"
       id="clipPath1144"><path
         d="m 112.72,573.875 38.467,0 0,-10.892 -38.467,0 0,10.892 z"
         id="path1146"
         inkscape:connector-curvature="0" /></clipPath><clipPath
       clipPathUnits="userSpaceOnUse"
       id="clipPath1164"><path
         d="m 115.91,593.83 37.215,0 0,-25.138 -37.215,0 0,25.138 z"
         id="path1166"
         inkscape:connector-curvature="0" /></clipPath><clipPath
       clipPathUnits="userSpaceOnUse"
       id="clipPath1188"><path
         d="m 114.113,596.642 43.988,0 0,-29.566 -43.988,0 0,29.566 z"
         id="path1190"
         inkscape:connector-curvature="0" /></clipPath><clipPath
       clipPathUnits="userSpaceOnUse"
       id="clipPath1204"><path
         d="m 111.065,596.661 43.954,0 0,-29.375 -43.954,0 0,29.375 z"
         id="path1206"
         inkscape:connector-curvature="0" /></clipPath><clipPath
       clipPathUnits="userSpaceOnUse"
       id="clipPath1228"><path
         d="m 129.643,574.128 5.688,0 0,-7.623 -5.688,0 0,7.623 z"
         id="path1230"
         inkscape:connector-curvature="0" /></clipPath><clipPath
       clipPathUnits="userSpaceOnUse"
       id="clipPath1244"><path
         d="m 130.658,573.875 5.689,0 0,-7.624 -5.689,0 0,7.624 z"
         id="path1246"
         inkscape:connector-curvature="0" /></clipPath><clipPath
       clipPathUnits="userSpaceOnUse"
       id="clipPath1264"><path
         d="m 131.537,574.128 4.302,0 0,-7.265 -4.302,0 0,7.265 z"
         id="path1266"
         inkscape:connector-curvature="0" /></clipPath><clipPath
       clipPathUnits="userSpaceOnUse"
       id="clipPath1280"><path
         d="m 130.15,574.128 3.803,0 0,-7.084 -3.803,0 0,7.084 z"
         id="path1282"
         inkscape:connector-curvature="0" /></clipPath><clipPath
       clipPathUnits="userSpaceOnUse"
       id="clipPath1300"><path
         d="m 132.084,572.698 2.687,0 0,-4.539 -2.687,0 0,4.539 z"
         id="path1302"
         inkscape:connector-curvature="0" /></clipPath><clipPath
       clipPathUnits="userSpaceOnUse"
       id="clipPath1316"><path
         d="m 131.218,572.698 2.476,0 0,-4.763 -2.476,0 0,4.763 z"
         id="path1318"
         inkscape:connector-curvature="0" /></clipPath><clipPath
       clipPathUnits="userSpaceOnUse"
       id="clipPath1332"><path
         d="m 140.12,574.02 5.25,0 0,-6.573 -5.25,0 0,6.573 z"
         id="path1334"
         inkscape:connector-curvature="0" /></clipPath><clipPath
       clipPathUnits="userSpaceOnUse"
       id="clipPath1348"><path
         d="m 141.136,573.766 5.25,0 0,-6.573 -5.25,0 0,6.573 z"
         id="path1350"
         inkscape:connector-curvature="0" /></clipPath><clipPath
       clipPathUnits="userSpaceOnUse"
       id="clipPath1368"><path
         d="m 141.888,574.02 3.992,0 0,-6.05 -3.992,0 0,6.05 z"
         id="path1370"
         inkscape:connector-curvature="0" /></clipPath><clipPath
       clipPathUnits="userSpaceOnUse"
       id="clipPath1384"><path
         d="m 140.628,574.02 3.685,0 0,-6.573 -3.685,0 0,6.573 z"
         id="path1386"
         inkscape:connector-curvature="0" /></clipPath><clipPath
       clipPathUnits="userSpaceOnUse"
       id="clipPath1404"><path
         d="m 142.474,572.774 2.302,0 0,-3.889 -2.302,0 0,3.889 z"
         id="path1406"
         inkscape:connector-curvature="0" /></clipPath><clipPath
       clipPathUnits="userSpaceOnUse"
       id="clipPath1420"><path
         d="m 141.73,572.774 2.124,0 0,-4.081 -2.124,0 0,4.081 z"
         id="path1422"
         inkscape:connector-curvature="0" /></clipPath><clipPath
       clipPathUnits="userSpaceOnUse"
       id="clipPath1436"><path
         d="m 149.369,575.589 3.356,0 0,-5.878 -3.356,0 0,5.878 z"
         id="path1438"
         inkscape:connector-curvature="0" /></clipPath><clipPath
       clipPathUnits="userSpaceOnUse"
       id="clipPath1452"><path
         d="m 150.385,575.335 2.768,0 0,-5.792 -2.768,0 0,5.792 z"
         id="path1454"
         inkscape:connector-curvature="0" /></clipPath><clipPath
       clipPathUnits="userSpaceOnUse"
       id="clipPath1472"><path
         d="m 150.752,575.589 2.48,0 0,-5.58 -2.48,0 0,5.58 z"
         id="path1474"
         inkscape:connector-curvature="0" /></clipPath><clipPath
       clipPathUnits="userSpaceOnUse"
       id="clipPath1488"><path
         d="m 149.876,575.589 2.316,0 0,-5.878 -2.316,0 0,5.878 z"
         id="path1490"
         inkscape:connector-curvature="0" /></clipPath><clipPath
       clipPathUnits="userSpaceOnUse"
       id="clipPath1508"><path
         d="m 150.993,574.426 1.705,0 0,-3.397 -1.705,0 0,3.397 z"
         id="path1510"
         inkscape:connector-curvature="0" /></clipPath><clipPath
       clipPathUnits="userSpaceOnUse"
       id="clipPath1524"><path
         d="m 150.415,574.426 1.564,0 0,-3.553 -1.564,0 0,3.553 z"
         id="path1526"
         inkscape:connector-curvature="0" /></clipPath><clipPath
       clipPathUnits="userSpaceOnUse"
       id="clipPath1540"><path
         d="m 119.9,576 5.254,0 0,-7.104 -5.254,0 0,7.104 z"
         id="path1542"
         inkscape:connector-curvature="0" /></clipPath><clipPath
       clipPathUnits="userSpaceOnUse"
       id="clipPath1556"><path
         d="m 120.91,575.39 5.271,0 0,-6.748 -5.271,0 0,6.748 z"
         id="path1558"
         inkscape:connector-curvature="0" /></clipPath><clipPath
       clipPathUnits="userSpaceOnUse"
       id="clipPath1576"><path
         d="m 121.69,575.644 3.983,0 0,-6.435 -3.983,0 0,6.435 z"
         id="path1578"
         inkscape:connector-curvature="0" /></clipPath><clipPath
       clipPathUnits="userSpaceOnUse"
       id="clipPath1592"><path
         d="m 120.423,575.579 2.282,0 0,-6.09 -2.282,0 0,6.09 z"
         id="path1594"
         inkscape:connector-curvature="0" /></clipPath><clipPath
       clipPathUnits="userSpaceOnUse"
       id="clipPath1612"><path
         d="m 122.217,574.705 2.396,0 0,-4.601 -2.396,0 0,4.601 z"
         id="path1614"
         inkscape:connector-curvature="0" /></clipPath><clipPath
       clipPathUnits="userSpaceOnUse"
       id="clipPath1628"><path
         d="m 121.06,574.705 2.689,0 0,-4.731 -2.689,0 0,4.731 z"
         id="path1630"
         inkscape:connector-curvature="0" /></clipPath><clipPath
       clipPathUnits="userSpaceOnUse"
       id="clipPath1644"><path
         d="m 112.821,578.751 3.345,0 0,-5.879 -3.345,0 0,5.879 z"
         id="path1646"
         inkscape:connector-curvature="0" /></clipPath><clipPath
       clipPathUnits="userSpaceOnUse"
       id="clipPath1660"><path
         d="m 113.766,578.497 3.416,0 0,-5.878 -3.416,0 0,5.878 z"
         id="path1662"
         inkscape:connector-curvature="0" /></clipPath><clipPath
       clipPathUnits="userSpaceOnUse"
       id="clipPath1680"><path
         d="m 114.145,578.751 2.529,0 0,-5.582 -2.529,0 0,5.582 z"
         id="path1682"
         inkscape:connector-curvature="0" /></clipPath><clipPath
       clipPathUnits="userSpaceOnUse"
       id="clipPath1696"><path
         d="m 113.257,578.751 2.354,0 0,-5.581 -2.354,0 0,5.581 z"
         id="path1698"
         inkscape:connector-curvature="0" /></clipPath><clipPath
       clipPathUnits="userSpaceOnUse"
       id="clipPath1716"><path
         d="m 114.337,577.928 1.712,0 0,-3.949 -1.712,0 0,3.949 z"
         id="path1718"
         inkscape:connector-curvature="0" /></clipPath><clipPath
       clipPathUnits="userSpaceOnUse"
       id="clipPath1732"><path
         d="m 113.511,577.928 1.92,0 0,-4.06 -1.92,0 0,4.06 z"
         id="path1734"
         inkscape:connector-curvature="0" /></clipPath><clipPath
       clipPathUnits="userSpaceOnUse"
       id="clipPath1748"><path
         d="M 0,768 1024,768 1024,0 0,0 0,768 z"
         id="path1750"
         inkscape:connector-curvature="0" /></clipPath><clipPath
       clipPathUnits="userSpaceOnUse"
       id="clipPath1760"><path
         d="m 228,536.117 c 0,-42.802 34.698,-77.5 77.5,-77.5 l 0,0 c 42.802,0 77.5,34.698 77.5,77.5 l 0,0 c 0,42.802 -34.698,77.5 -77.5,77.5 l 0,0 c -42.802,0 -77.5,-34.698 -77.5,-77.5"
         id="path1762"
         inkscape:connector-curvature="0" /></clipPath><clipPath
       clipPathUnits="userSpaceOnUse"
       id="clipPath1834"><path
         d="m 319.266,624.217 53.897,0 0,-74.711 -53.897,0 0,74.711 z"
         id="path1836"
         inkscape:connector-curvature="0" /></clipPath><clipPath
       clipPathUnits="userSpaceOnUse"
       id="clipPath1850"><path
         d="m 270.849,584.472 152.916,0 0,-178.278 -152.916,0 0,178.278 z"
         id="path1852"
         inkscape:connector-curvature="0" /></clipPath><clipPath
       clipPathUnits="userSpaceOnUse"
       id="clipPath2054"><path
         d="M 0,768 1024,768 1024,0 0,0 0,768 z"
         id="path2056"
         inkscape:connector-curvature="0" /></clipPath><clipPath
       clipPathUnits="userSpaceOnUse"
       id="clipPath2066"><path
         d="m 228,361.117 c 0,-42.801 34.698,-77.5 77.5,-77.5 l 0,0 c 42.802,0 77.5,34.699 77.5,77.5 l 0,0 c 0,42.802 -34.698,77.5 -77.5,77.5 l 0,0 c -42.802,0 -77.5,-34.698 -77.5,-77.5"
         id="path2068"
         inkscape:connector-curvature="0" /></clipPath><clipPath
       clipPathUnits="userSpaceOnUse"
       id="clipPath2124"><path
         d="m 254.025,411.491 171,0 0,-170.562 -171,0 0,170.562 z"
         id="path2126"
         inkscape:connector-curvature="0" /></clipPath><clipPath
       clipPathUnits="userSpaceOnUse"
       id="clipPath2148"><path
         d="m 338.895,334.943 69.931,0 0,-80.858 -69.931,0 0,80.858 z"
         id="path2150"
         inkscape:connector-curvature="0" /></clipPath><clipPath
       clipPathUnits="userSpaceOnUse"
       id="clipPath2208"><path
         d="m 269.726,385.375 45.75,0 0,-129.289 -45.75,0 0,129.289 z"
         id="path2210"
         inkscape:connector-curvature="0" /></clipPath><clipPath
       clipPathUnits="userSpaceOnUse"
       id="clipPath2248"><path
         d="m 286.077,395.068 15.482,0 0,-10.204 -15.482,0 0,10.204 z"
         id="path2250"
         inkscape:connector-curvature="0" /></clipPath><clipPath
       clipPathUnits="userSpaceOnUse"
       id="clipPath2288"><path
         d="M 0,768 1024,768 1024,0 0,0 0,768 z"
         id="path2290"
         inkscape:connector-curvature="0" /></clipPath><clipPath
       clipPathUnits="userSpaceOnUse"
       id="clipPath2300"><path
         d="m 228,186.116 c 0,-42.802 34.698,-77.499 77.5,-77.499 l 0,0 c 42.802,0 77.5,34.697 77.5,77.499 l 0,0 c 0,42.802 -34.698,77.499 -77.5,77.499 l 0,0 c -42.802,0 -77.5,-34.697 -77.5,-77.499"
         id="path2302"
         inkscape:connector-curvature="0" /></clipPath><clipPath
       clipPathUnits="userSpaceOnUse"
       id="clipPath2358"><path
         d="m 258.341,233.648 142.781,0 0,-148.6353 -142.781,0 0,148.6353 z"
         id="path2360"
         inkscape:connector-curvature="0" /></clipPath><clipPath
       clipPathUnits="userSpaceOnUse"
       id="clipPath2382"><path
         d="m 258.42,173.87 34.287,0 0,-76.0057 -34.287,0 0,76.0057 z"
         id="path2384"
         inkscape:connector-curvature="0" /></clipPath><clipPath
       clipPathUnits="userSpaceOnUse"
       id="clipPath2406"><path
         d="m 257.662,238.148 134.46,0 0,-140.8531 -134.46,0 0,140.8531 z"
         id="path2408"
         inkscape:connector-curvature="0" /></clipPath><clipPath
       clipPathUnits="userSpaceOnUse"
       id="clipPath2422"><path
         d="m 267.864,236.151 124.003,0 0,-136.8453 -124.003,0 0,136.8453 z"
         id="path2424"
         inkscape:connector-curvature="0" /></clipPath><clipPath
       clipPathUnits="userSpaceOnUse"
       id="clipPath2438"><path
         d="m 267.441,220.876 66.413,0 0,-48.466 -66.413,0 0,48.466 z"
         id="path2440"
         inkscape:connector-curvature="0" /></clipPath><clipPath
       clipPathUnits="userSpaceOnUse"
       id="clipPath2470"><path
         d="m 272.204,233.586 74.445,0 0,-41.978 -74.445,0 0,41.978 z"
         id="path2472"
         inkscape:connector-curvature="0" /></clipPath><clipPath
       clipPathUnits="userSpaceOnUse"
       id="clipPath2510"><path
         d="m 285.177,216.011 c -1.979,-0.063 -5.012,-1.992 -5.706,-3.06 l 0,0 c -2.453,-3.78 -3.27,-10.959 -1.664,-13.409 l 0,0 c 1.71,-2.61 5.661,-3.865 8.145,-3.705 l 0,0 c 5.563,0.36 7.515,3.795 8.055,9.015 l 0,0 c 0.27,2.519 0.787,7.2 -2.52,9.54 l 0,0 c -0.826,0.584 -3.228,1.624 -5.967,1.624 l 0,0 c -0.114,0 -0.228,-0.002 -0.343,-0.005"
         id="path2512"
         inkscape:connector-curvature="0" /></clipPath><clipPath
       clipPathUnits="userSpaceOnUse"
       id="clipPath2518"><path
         d="m 284.871,211.291 15.324,0 0,-4.549 -15.324,0 0,4.549 z"
         id="path2520"
         inkscape:connector-curvature="0" /></clipPath><clipPath
       clipPathUnits="userSpaceOnUse"
       id="clipPath2534"><path
         d="m 284.871,217.88 12.083,0 0,-11.138 -12.083,0 0,11.138 z"
         id="path2536"
         inkscape:connector-curvature="0" /></clipPath><clipPath
       clipPathUnits="userSpaceOnUse"
       id="clipPath2550"><path
         d="m 284.871,221.483 5.604,0 0,-14.741 -5.604,0 0,14.741 z"
         id="path2552"
         inkscape:connector-curvature="0" /></clipPath><clipPath
       clipPathUnits="userSpaceOnUse"
       id="clipPath2566"><path
         d="m 280.322,222.064 4.549,0 0,-15.322 -4.549,0 0,15.322 z"
         id="path2568"
         inkscape:connector-curvature="0" /></clipPath><clipPath
       clipPathUnits="userSpaceOnUse"
       id="clipPath2582"><path
         d="m 273.733,218.824 11.138,0 0,-12.082 -11.138,0 0,12.082 z"
         id="path2584"
         inkscape:connector-curvature="0" /></clipPath><clipPath
       clipPathUnits="userSpaceOnUse"
       id="clipPath2598"><path
         d="m 270.13,212.346 14.741,0 0,-5.604 -14.741,0 0,5.604 z"
         id="path2600"
         inkscape:connector-curvature="0" /></clipPath><clipPath
       clipPathUnits="userSpaceOnUse"
       id="clipPath2614"><path
         d="m 269.549,206.742 15.322,0 0,-4.551 -15.322,0 0,4.551 z"
         id="path2616"
         inkscape:connector-curvature="0" /></clipPath><clipPath
       clipPathUnits="userSpaceOnUse"
       id="clipPath2630"><path
         d="m 272.789,206.742 12.082,0 0,-11.138 -12.082,0 0,11.138 z"
         id="path2632"
         inkscape:connector-curvature="0" /></clipPath><clipPath
       clipPathUnits="userSpaceOnUse"
       id="clipPath2646"><path
         d="m 279.268,206.742 5.603,0 0,-14.742 -5.603,0 0,14.742 z"
         id="path2648"
         inkscape:connector-curvature="0" /></clipPath><clipPath
       clipPathUnits="userSpaceOnUse"
       id="clipPath2662"><path
         d="m 284.871,206.742 4.549,0 0,-15.325 -4.549,0 0,15.325 z"
         id="path2664"
         inkscape:connector-curvature="0" /></clipPath><clipPath
       clipPathUnits="userSpaceOnUse"
       id="clipPath2678"><path
         d="m 284.871,206.742 11.138,0 0,-12.083 -11.138,0 0,12.083 z"
         id="path2680"
         inkscape:connector-curvature="0" /></clipPath><clipPath
       clipPathUnits="userSpaceOnUse"
       id="clipPath2694"><path
         d="m 284.871,206.742 14.742,0 0,-5.605 -14.742,0 0,5.605 z"
         id="path2696"
         inkscape:connector-curvature="0" /></clipPath><clipPath
       clipPathUnits="userSpaceOnUse"
       id="clipPath2710"><path
         d="m 228,186.116 c 0,-42.802 34.698,-77.499 77.5,-77.499 l 0,0 c 42.802,0 77.5,34.697 77.5,77.499 l 0,0 c 0,42.802 -34.698,77.499 -77.5,77.499 l 0,0 c -42.802,0 -77.5,-34.697 -77.5,-77.499"
         id="path2712"
         inkscape:connector-curvature="0" /></clipPath><clipPath
       clipPathUnits="userSpaceOnUse"
       id="clipPath2718"><path
         d="m 279.471,216.017 14.737,0 0,-17.02 -14.737,0 0,17.02 z"
         id="path2720"
         inkscape:connector-curvature="0" /></clipPath><clipPath
       clipPathUnits="userSpaceOnUse"
       id="clipPath2734"><path
         d="m 278.073,214.99 12.69,0 0,-11.389 -12.69,0 0,11.389 z"
         id="path2736"
         inkscape:connector-curvature="0" /></clipPath><clipPath
       clipPathUnits="userSpaceOnUse"
       id="clipPath2754"><path
         d="m 300.307,205.661 c -0.72,-2.88 -0.269,-6.589 1.35,-9.017 l 0,0 c 1.35,-1.981 2.879,-2.485 5.131,-3.474 l 0,0 c 3.869,-1.8 10.169,-1.387 12.958,2.123 l 0,0 c 1.981,2.52 3.803,9.895 1.531,13.122 l 0,0 c -1.835,2.603 -3.632,4.299 -7.167,5.02 l 0,0 c -1.074,0.219 -2.101,0.322 -3.075,0.322 l 0,0 c -5.789,0 -9.727,-3.627 -10.728,-8.096"
         id="path2756"
         inkscape:connector-curvature="0" /></clipPath><clipPath
       clipPathUnits="userSpaceOnUse"
       id="clipPath2762"><path
         d="m 309.712,214.639 12.082,0 0,-11.138 -12.082,0 0,11.138 z"
         id="path2764"
         inkscape:connector-curvature="0" /></clipPath><clipPath
       clipPathUnits="userSpaceOnUse"
       id="clipPath2778"><path
         d="m 309.712,218.243 5.602,0 0,-14.742 -5.602,0 0,14.742 z"
         id="path2780"
         inkscape:connector-curvature="0" /></clipPath><clipPath
       clipPathUnits="userSpaceOnUse"
       id="clipPath2794"><path
         d="m 305.162,218.825 4.55,0 0,-15.324 -4.55,0 0,15.324 z"
         id="path2796"
         inkscape:connector-curvature="0" /></clipPath><clipPath
       clipPathUnits="userSpaceOnUse"
       id="clipPath2810"><path
         d="m 298.574,215.584 11.138,0 0,-12.083 -11.138,0 0,12.083 z"
         id="path2812"
         inkscape:connector-curvature="0" /></clipPath><clipPath
       clipPathUnits="userSpaceOnUse"
       id="clipPath2826"><path
         d="m 294.97,209.105 14.742,0 0,-5.604 -14.742,0 0,5.604 z"
         id="path2828"
         inkscape:connector-curvature="0" /></clipPath><clipPath
       clipPathUnits="userSpaceOnUse"
       id="clipPath2842"><path
         d="m 294.388,203.501 15.324,0 0,-4.548 -15.324,0 0,4.548 z"
         id="path2844"
         inkscape:connector-curvature="0" /></clipPath><clipPath
       clipPathUnits="userSpaceOnUse"
       id="clipPath2858"><path
         d="m 297.629,203.501 12.083,0 0,-11.137 -12.083,0 0,11.137 z"
         id="path2860"
         inkscape:connector-curvature="0" /></clipPath><clipPath
       clipPathUnits="userSpaceOnUse"
       id="clipPath2874"><path
         d="m 304.107,203.501 5.605,0 0,-14.741 -5.605,0 0,14.741 z"
         id="path2876"
         inkscape:connector-curvature="0" /></clipPath><clipPath
       clipPathUnits="userSpaceOnUse"
       id="clipPath2890"><path
         d="m 309.712,203.501 4.548,0 0,-15.323 -4.548,0 0,15.323 z"
         id="path2892"
         inkscape:connector-curvature="0" /></clipPath><clipPath
       clipPathUnits="userSpaceOnUse"
       id="clipPath2906"><path
         d="m 309.712,203.501 11.138,0 0,-12.082 -11.138,0 0,12.082 z"
         id="path2908"
         inkscape:connector-curvature="0" /></clipPath><clipPath
       clipPathUnits="userSpaceOnUse"
       id="clipPath2922"><path
         d="m 309.712,203.501 14.741,0 0,-5.604 -14.741,0 0,5.604 z"
         id="path2924"
         inkscape:connector-curvature="0" /></clipPath><clipPath
       clipPathUnits="userSpaceOnUse"
       id="clipPath2938"><path
         d="m 309.712,208.051 15.323,0 0,-4.55 -15.323,0 0,4.55 z"
         id="path2940"
         inkscape:connector-curvature="0" /></clipPath><clipPath
       clipPathUnits="userSpaceOnUse"
       id="clipPath2954"><path
         d="m 228,186.116 c 0,-42.802 34.698,-77.499 77.5,-77.499 l 0,0 c 42.802,0 77.5,34.697 77.5,77.499 l 0,0 c 0,42.802 -34.698,77.499 -77.5,77.499 l 0,0 c -42.802,0 -77.5,-34.697 -77.5,-77.499"
         id="path2956"
         inkscape:connector-curvature="0" /></clipPath><clipPath
       clipPathUnits="userSpaceOnUse"
       id="clipPath2962"><path
         d="m 305.248,213.757 17.082,0 0,-18.464 -17.082,0 0,18.464 z"
         id="path2964"
         inkscape:connector-curvature="0" /></clipPath><clipPath
       clipPathUnits="userSpaceOnUse"
       id="clipPath2978"><path
         d="m 301.837,212.469 13.795,0 0,-13.488 -13.795,0 0,13.488 z"
         id="path2980"
         inkscape:connector-curvature="0" /></clipPath><clipPath
       clipPathUnits="userSpaceOnUse"
       id="clipPath3002"><path
         d="m 303.637,167.831 63.325,0 0,-78.3183 -63.325,0 0,78.3183 z"
         id="path3004"
         inkscape:connector-curvature="0" /></clipPath><clipPath
       clipPathUnits="userSpaceOnUse"
       id="clipPath3026"><path
         d="m 334.314,171.071 36.698,0 0,-71.2683 -36.698,0 0,71.2683 z"
         id="path3028"
         inkscape:connector-curvature="0" /></clipPath><clipPath
       clipPathUnits="userSpaceOnUse"
       id="clipPath3046"><path
         d="M 0,768 1024,768 1024,0 0,0 0,768 z"
         id="path3048"
         inkscape:connector-curvature="0" /></clipPath><clipPath
       clipPathUnits="userSpaceOnUse"
       id="clipPath3058"><path
         d="m 408,536.117 c 0,-42.802 34.698,-77.5 77.5,-77.5 l 0,0 c 42.802,0 77.5,34.698 77.5,77.5 l 0,0 c 0,42.802 -34.698,77.5 -77.5,77.5 l 0,0 c -42.802,0 -77.5,-34.698 -77.5,-77.5"
         id="path3060"
         inkscape:connector-curvature="0" /></clipPath><clipPath
       clipPathUnits="userSpaceOnUse"
       id="clipPath3116"><path
         d="m 438.781,587.971 160.04,0 0,-138.661 -160.04,0 0,138.661 z"
         id="path3118"
         inkscape:connector-curvature="0" /></clipPath><clipPath
       clipPathUnits="userSpaceOnUse"
       id="clipPath3140"><path
         d="m 575.706,528.121 11.135,0 0,-49.987 -11.135,0 0,49.987 z"
         id="path3142"
         inkscape:connector-curvature="0" /></clipPath><clipPath
       clipPathUnits="userSpaceOnUse"
       id="clipPath3188"><path
         d="m 495.493,545.319 93.89,0 0,-39.655 -93.89,0 0,39.655 z"
         id="path3190"
         inkscape:connector-curvature="0" /></clipPath><clipPath
       clipPathUnits="userSpaceOnUse"
       id="clipPath3212"><path
         d="m 527.791,527.143 59.061,0 0,-39.016 -59.061,0 0,39.016 z"
         id="path3214"
         inkscape:connector-curvature="0" /></clipPath><clipPath
       clipPathUnits="userSpaceOnUse"
       id="clipPath3236"><path
         d="m 507.09,487.143 29.179,0 0,-36.931 -29.179,0 0,36.931 z"
         id="path3238"
         inkscape:connector-curvature="0" /></clipPath><clipPath
       clipPathUnits="userSpaceOnUse"
       id="clipPath3272"><path
         d="m 463.675,571.134 2.555,0 0,-4.029 -2.555,0 0,4.029 z"
         id="path3274"
         inkscape:connector-curvature="0" /></clipPath><clipPath
       clipPathUnits="userSpaceOnUse"
       id="clipPath3288"><path
         d="m 466.432,553.293 18.654,0 0,-90.323 -18.654,0 0,90.323 z"
         id="path3290"
         inkscape:connector-curvature="0" /></clipPath><clipPath
       clipPathUnits="userSpaceOnUse"
       id="clipPath3304"><path
         d="m 495.211,535.912 22.394,0 0,-21.68 -22.394,0 0,21.68 z"
         id="path3306"
         inkscape:connector-curvature="0" /></clipPath><clipPath
       clipPathUnits="userSpaceOnUse"
       id="clipPath3320"><path
         d="M 0,768 1024,768 1024,0 0,0 0,768 z"
         id="path3322"
         inkscape:connector-curvature="0" /></clipPath><clipPath
       clipPathUnits="userSpaceOnUse"
       id="clipPath3332"><path
         d="m 408.256,361.117 c 0,-42.801 34.698,-77.5 77.5,-77.5 l 0,0 c 42.801,0 77.5,34.699 77.5,77.5 l 0,0 c 0,42.802 -34.699,77.5 -77.5,77.5 l 0,0 c -42.802,0 -77.5,-34.698 -77.5,-77.5"
         id="path3334"
         inkscape:connector-curvature="0" /></clipPath><clipPath
       clipPathUnits="userSpaceOnUse"
       id="clipPath3390"><path
         d="m 460.505,414.483 179.594,0 0,-183.402 -179.594,0 0,183.402 z"
         id="path3392"
         inkscape:connector-curvature="0" /></clipPath><clipPath
       clipPathUnits="userSpaceOnUse"
       id="clipPath3462"><path
         d="m 462.712,400.909 3.423,0 0,-1.983 -3.423,0 0,1.983 z"
         id="path3464"
         inkscape:connector-curvature="0" /></clipPath><clipPath
       clipPathUnits="userSpaceOnUse"
       id="clipPath3486"><path
         d="m 482.274,388.666 23.055,0 0,-8.095 -23.055,0 0,8.095 z"
         id="path3488"
         inkscape:connector-curvature="0" /></clipPath><clipPath
       clipPathUnits="userSpaceOnUse"
       id="clipPath3506"><path
         d="m 490.869,389.44 13.788,0 0,-8.146 -13.788,0 0,8.146 z"
         id="path3508"
         inkscape:connector-curvature="0" /></clipPath><clipPath
       clipPathUnits="userSpaceOnUse"
       id="clipPath3522"><path
         d="m 525.493,299.603 97.907,0 0,-61.254 -97.907,0 0,61.254 z"
         id="path3524"
         inkscape:connector-curvature="0" /></clipPath><clipPath
       clipPathUnits="userSpaceOnUse"
       id="clipPath3546"><path
         d="m 489.459,322.129 139.97,0 0,-29.732 -139.97,0 0,29.732 z"
         id="path3548"
         inkscape:connector-curvature="0" /></clipPath><clipPath
       clipPathUnits="userSpaceOnUse"
       id="clipPath3570"><path
         d="M 0,768 1024,768 1024,0 0,0 0,768 z"
         id="path3572"
         inkscape:connector-curvature="0" /></clipPath></defs><sodipodi:namedview
     pagecolor="#ffffff"
     bordercolor="#666666"
     borderopacity="1"
     objecttolerance="10"
     gridtolerance="10"
     guidetolerance="10"
     inkscape:pageopacity="0"
     inkscape:pageshadow="2"
     inkscape:window-width="1600"
     inkscape:window-height="837"
     id="namedview4"
     showgrid="false"
     inkscape:zoom="0.675"
     inkscape:cx="462.96296"
     inkscape:cy="240.28777"
     inkscape:window-x="-8"
     inkscape:window-y="-8"
     inkscape:window-maximized="1"
     inkscape:current-layer="g10" /><g
     id="g10"
     inkscape:groupmode="layer"
     inkscape:label="tiericons_cs5"
     transform="matrix(1.25,0,0,-1.25,0,200)"><g
       id="g8020"
       transform="translate(-225.5,-106.1157)"><g
         id="g2296"><g
           clip-path="url(#clipPath2300)"
           id="g2298"><path
             id="path2304"
             style="fill:#acdef9;fill-opacity:1;fill-rule:nonzero;stroke:none"
             d="m 383.256,108.419 -155.906,0 0,155.905 155.906,0 0,-155.905 z"
             inkscape:connector-curvature="0" /><g
             transform="translate(305.4932,312.5469)"
             id="g2306"><path
               id="path2308"
               style="fill:#e4f9f7;fill-opacity:1;fill-rule:nonzero;stroke:none"
               d="M 0,0 0.007,-126.432 26.992,-4.848 0,0 z"
               inkscape:connector-curvature="0" /></g><g
             transform="translate(242.542,295.6055)"
             id="g2310"><path
               id="path2312"
               style="fill:#e4f9f7;fill-opacity:1;fill-rule:nonzero;stroke:none"
               d="M 0,0 62.958,-109.49 25.79,9.354 0,0 z"
               inkscape:connector-curvature="0" /></g><g
             transform="translate(196.4609,249.3252)"
             id="g2314"><path
               id="path2316"
               style="fill:#e4f9f7;fill-opacity:1;fill-rule:nonzero;stroke:none"
               d="M 0,0 109.039,-63.21 17.678,21.05 0,0 z"
               inkscape:connector-curvature="0" /></g><g
             transform="translate(179.5977,186.1084)"
             id="g2318"><path
               id="path2320"
               style="fill:#e4f9f7;fill-opacity:1;fill-rule:nonzero;stroke:none"
               d="M 0,0 125.902,0.007 4.826,27.106 0,0 z"
               inkscape:connector-curvature="0" /></g><g
             transform="translate(196.4688,122.8945)"
             id="g2322"><path
               id="path2324"
               style="fill:#e4f9f7;fill-opacity:1;fill-rule:nonzero;stroke:none"
               d="M 0,0 109.031,63.221 -9.316,25.897 0,0 z"
               inkscape:connector-curvature="0" /></g><g
             transform="translate(242.5557,76.6201)"
             id="g2326"><path
               id="path2328"
               style="fill:#e4f9f7;fill-opacity:1;fill-rule:nonzero;stroke:none"
               d="M 0,0 62.944,109.495 -20.964,17.751 0,0 z"
               inkscape:connector-curvature="0" /></g><g
             transform="translate(305.5078,59.6855)"
             id="g2330"><path
               id="path2332"
               style="fill:#e4f9f7;fill-opacity:1;fill-rule:nonzero;stroke:none"
               d="M 0,0 -0.008,126.43 -26.992,4.847 0,0 z"
               inkscape:connector-curvature="0" /></g><g
             transform="translate(368.458,76.627)"
             id="g2334"><path
               id="path2336"
               style="fill:#e4f9f7;fill-opacity:1;fill-rule:nonzero;stroke:none"
               d="M 0,0 -62.958,109.488 -25.789,-9.354 0,0 z"
               inkscape:connector-curvature="0" /></g><g
             transform="translate(414.5391,122.9063)"
             id="g2338"><path
               id="path2340"
               style="fill:#e4f9f7;fill-opacity:1;fill-rule:nonzero;stroke:none"
               d="M 0,0 -109.039,63.209 -17.677,-21.05 0,0 z"
               inkscape:connector-curvature="0" /></g><g
             transform="translate(431.4033,186.123)"
             id="g2342"><path
               id="path2344"
               style="fill:#e4f9f7;fill-opacity:1;fill-rule:nonzero;stroke:none"
               d="M 0,0 -125.903,-0.008 -4.827,-27.105 0,0 z"
               inkscape:connector-curvature="0" /></g><g
             transform="translate(414.5322,249.3379)"
             id="g2346"><path
               id="path2348"
               style="fill:#e4f9f7;fill-opacity:1;fill-rule:nonzero;stroke:none"
               d="M 0,0 -109.032,-63.223 9.315,-25.898 0,0 z"
               inkscape:connector-curvature="0" /></g><g
             transform="translate(368.4453,295.6113)"
             id="g2350"><path
               id="path2352"
               style="fill:#e4f9f7;fill-opacity:1;fill-rule:nonzero;stroke:none"
               d="M 0,0 -62.945,-109.496 20.963,-17.75 0,0 z"
               inkscape:connector-curvature="0" /></g><g
             id="g2354"><g
               id="g2356" /><g
               id="g2362"><g
                 id="g2364"
                 clip-path="url(#clipPath2358)"
                 style="opacity:0.60000598"><g
                   id="g2366"
                   transform="translate(400.8291,122.4336)"><path
                     id="path2368"
                     style="fill:#1b0000;fill-opacity:1;fill-rule:nonzero;stroke:none"
                     d="M 0,0 C 0.01,0.035 0.029,0.068 0.038,0.103 -1.93,0.541 -4.554,0.321 -6.96,0.76 c -3.628,0.846 -6.849,2.343 -9.731,4.336 -2.228,1.565 -4.251,3.427 -6.1,5.52 -0.093,0.225 -0.2,0.468 -0.331,0.746 -1.215,2.296 -1.351,2.431 -0.271,4.455 3.51,6.346 -3.644,13.906 -8.235,18.091 0.675,0.54 1.485,0.81 2.16,1.079 -1.515,2.937 -5.213,4.957 -8.738,6.45 -1.973,5.96 -3.683,11.739 -5.407,16.687 -0.868,2.503 -1.333,5.09 -1.606,7.715 -0.072,1.608 -0.237,4.498 -0.427,7.519 -0.108,3.214 -0.217,6.425 -0.688,9.56 -0.052,0.554 -0.097,0.95 -0.131,1.13 -0.13,0.674 -0.292,1.32 -0.468,1.952 -0.463,1.899 -1.106,3.761 -2.022,5.566 -1.105,2.175 -3.452,4.606 -6.247,6.817 0.05,-0.01 0.098,-0.018 0.147,-0.028 0.1,-0.018 0.199,-0.036 0.299,-0.054 0.392,-0.074 0.784,-0.149 1.174,-0.221 0.023,-0.005 0.048,-0.009 0.07,-0.014 0.248,-0.045 0.496,-0.088 0.743,-0.13 0.045,-0.008 0.088,-0.015 0.133,-0.023 0.27,-0.045 0.539,-0.086 0.808,-0.124 0.032,-0.004 0.063,-0.007 0.096,-0.012 0.229,-0.03 0.458,-0.056 0.686,-0.08 0.066,-0.007 0.131,-0.044 0.197,-0.049 0.251,-0.023 0.502,-0.082 0.752,-0.082 l 0.034,0 c 0.257,0 0.515,0.02 0.772,0.024 0.065,0.002 0.13,0.021 0.196,0.022 0.208,0.009 0.416,0.031 0.624,0.05 0.057,0.006 0.114,0.014 0.17,0.021 0.254,0.028 0.507,0.07 0.761,0.12 0.051,0.01 0.102,0.025 0.152,0.036 0.208,0.046 0.413,0.1 0.619,0.161 0.071,0.02 0.14,0.042 0.209,0.065 0.253,0.082 0.506,0.173 0.757,0.283 1.826,0.781 5.165,3.567 6.034,5.875 0.1,0.223 0.184,0.443 0.237,0.657 -2.399,-0.767 -4.595,-1.975 -7.29,-2.307 -2.335,-0.31 -4.776,-0.356 -7.212,-0.492 -3.171,-0.176 -6.124,0.625 -9.141,1.331 -0.691,0.332 -1.371,0.631 -2.024,0.886 -5.964,2.328 -14.271,3.382 -22.393,4.391 -5.526,0.687 -15.423,1.638 -21.461,-0.681 -1.491,0.078 -2.989,0.07 -4.486,-0.013 -4.419,-0.246 -11.375,-0.653 -20.628,3.22 1.252,-1.867 1.287,-3.767 3.458,-5.821 0.737,-0.751 1.736,-1.521 3.185,-2.319 0.123,-0.067 0.274,-0.121 0.443,-0.167 0.022,-0.006 0.052,-0.009 0.075,-0.014 2.256,-0.549 8.081,0.597 11.134,0.955 -2.967,-2.156 -5.524,-4.478 -8.309,-7.6 -5.831,-6.535 -10.302,-28.76 -3.933,-39.194 0,0 -0.969,-5.433 -1.775,-11.879 -0.086,-0.073 -0.167,-0.154 -0.249,-0.232 -0.074,-0.07 -0.148,-0.14 -0.218,-0.215 -0.131,-0.136 -0.253,-0.283 -0.372,-0.434 -0.055,-0.07 -0.114,-0.137 -0.167,-0.211 -0.165,-0.229 -0.318,-0.468 -0.455,-0.725 0.095,-0.022 0.153,-0.049 0.197,-0.082 0.009,-0.006 0.02,-0.012 0.027,-0.02 0.033,-0.032 0.049,-0.068 0.044,-0.106 0,-0.007 -0.005,-0.016 -0.007,-0.023 -0.01,-0.037 -0.032,-0.077 -0.065,-0.12 -0.007,-0.01 -0.013,-0.019 -0.021,-0.029 -0.043,-0.048 -0.096,-0.101 -0.158,-0.155 -0.021,-0.019 -0.043,-0.038 -0.065,-0.058 -0.049,-0.04 -0.099,-0.082 -0.154,-0.126 -0.101,-0.083 -0.212,-0.172 -0.323,-0.266 -0.005,-0.004 -0.011,-0.009 -0.016,-0.014 -0.094,-0.08 -0.19,-0.164 -0.281,-0.252 l -0.005,-0.004 c -0.084,-0.082 -0.361,-0.166 -0.431,-0.253 -0.007,-0.008 -0.221,-0.015 -0.221,-0.023 l 0,-0.003 c 0,-0.197 -0.067,-0.408 -0.082,-0.631 0.135,-0.216 -0.725,-2.824 -0.549,-2.866 -0.082,-0.35 0.019,-0.917 -0.28,-1.4 0.328,-0.079 0.564,0.16 0.78,0.281 0.056,0.031 0.127,0.048 0.186,0.057 0.014,0.002 0.037,0.002 0.053,0.002 0.064,-0.002 0.131,-0.015 0.203,-0.064 1.612,-1.078 0.68,-0.406 0.098,-2.257 -0.081,-0.259 -0.157,-0.507 -0.233,-0.747 -0.165,-0.518 -0.315,-0.998 -0.458,-1.454 -0.004,-0.011 -0.007,-0.018 -0.01,-0.029 -0.062,-0.195 -0.121,-0.386 -0.18,-0.571 -0.006,-0.022 -0.012,-0.043 -0.018,-0.062 l 0,-0.001 c -0.718,-2.306 -1.21,-4.064 -1.776,-7.037 4.658,0.934 -2.718,-9.16 -3.181,-10.346 0.834,-0.383 1.751,-0.414 2.884,-0.31 0.461,-5.104 -5.325,-10.026 -6.265,-14.797 0.567,0.051 1.834,-0.064 2.443,0.163 -0.26,-3.452 -2.447,-6.45 -3.274,-9.954 1.608,0.545 3.257,1.265 4.649,1.677 -0.292,-4.371 -2.583,-9.377 0.959,-13.173 0.259,0.308 0.651,0.402 0.734,0.752 0.843,-1.123 1.564,-2.774 2.667,-3.589 2.03,-1.588 1.978,-1.022 3.968,0.358 1.732,1.071 0.805,1.845 3.134,0.74 1.359,-0.505 2.656,-2.846 4.315,-2.867 1.876,0.112 1.672,2.379 3.064,2.79 0.524,0.262 1.192,0.16 1.886,-0.087 0.201,-0.071 0.403,-0.152 0.605,-0.244 0.056,-0.025 0.111,-0.052 0.167,-0.078 0.193,-0.093 0.384,-0.188 0.572,-0.288 0.053,-0.028 0.107,-0.055 0.16,-0.084 0.214,-0.115 0.426,-0.232 0.627,-0.343 0.222,-0.124 0.436,-0.242 0.63,-0.343 0.196,-0.104 0.401,-0.218 0.61,-0.336 0.072,-0.041 0.144,-0.083 0.218,-0.125 0.127,-0.073 0.26,-0.149 0.391,-0.225 2.353,-1.361 5.319,-3.203 7.611,-3.432 0.004,0.008 0.006,0.018 0.01,0.026 0.008,0.019 0.013,0.041 0.02,0.06 0.199,0.537 0.313,1.124 0.488,1.649 0.011,0.034 0.021,0.07 0.033,0.103 0.032,0.091 0.073,0.174 0.11,0.26 0.022,0.05 0.041,0.104 0.066,0.153 0.035,0.071 0.082,0.132 0.125,0.198 0.035,0.054 0.065,0.114 0.106,0.164 0.045,0.058 0.107,0.104 0.16,0.156 0.024,0.023 0.047,0.048 0.071,0.069 6.135,-1.695 13.462,-2.69 20.804,-3.123 -1.09,-2.071 -2.435,-4.076 -3.584,-6.102 2.969,0.81 5.67,3.375 8.909,3.78 0.27,-0.811 0.136,-1.891 0.405,-2.835 0.811,-2.566 3.375,-2.566 5.535,-0.81 2.16,1.619 2.16,2.295 4.861,0.405 3.24,-2.43 5.399,-3.645 9.179,-0.946 1.08,0.946 0.675,1.486 2.295,1.62 0.811,0 1.891,-0.674 2.566,-0.944 2.429,-0.809 4.859,-1.351 7.424,-1.351 2.566,0 6.48,-0.405 7.56,2.295 0.157,0.367 0.172,0.794 0.147,1.244 1.66,0.123 3.225,0.55 3.982,1.881 1.671,0.141 0.992,2.863 0.883,5.129 0.715,0.712 1.637,-1.532 3.223,-1.638 2.195,-0.105 0.998,3.508 1.095,5.963 0.15,0.208 0.283,0.463 0.39,0.787 0.087,0.215 0.087,0.516 0.065,0.841 0.026,0.033 0.042,0.074 0.071,0.104 1.214,1.35 3.375,0.134 4.185,2.565 0.27,0.675 -0.271,2.16 0.134,2.701 0.316,0.442 0.694,0.525 1.088,0.534 0.151,-0.005 0.302,-0.009 0.453,-0.003 0.301,-0.007 0.603,0 0.89,0.143 0.931,0.466 1.228,1.597 1.216,2.976 2.001,0.503 4.01,1.169 6.141,1.988 3.951,1.536 13.61,4.611 14.708,9.001 C 0.199,-0.03 0.098,-0.018 0,0"
                     inkscape:connector-curvature="0" /></g></g></g></g><g
             transform="translate(259.4111,161.8809)"
             id="g2370"><path
               id="path2372"
               style="fill:#704a28;fill-opacity:1;fill-rule:nonzero;stroke:none"
               d="m 0,0 c -1.268,-4.042 -1.902,-5.831 -2.678,-9.901 4.658,0.934 -2.717,-9.161 -3.181,-10.346 0.835,-0.383 1.752,-0.414 2.885,-0.311 0.461,-5.103 -5.325,-10.025 -6.265,-14.796 0.567,0.05 1.834,-0.064 2.443,0.163 -0.26,-3.453 -2.447,-6.451 -3.274,-9.955 1.608,0.545 3.257,1.266 4.649,1.677 -0.292,-4.37 -2.583,-9.377 0.959,-13.173 0.259,0.309 0.65,0.403 0.733,0.752 0.844,-1.123 1.565,-2.773 2.667,-3.589 2.031,-1.587 1.979,-1.021 3.969,0.359 1.732,1.071 0.805,1.845 3.134,0.74 1.359,-0.506 2.656,-2.847 4.315,-2.867 1.876,0.111 1.672,2.379 3.064,2.79 1.258,0.628 3.328,-0.785 4.647,-1.467 2.462,-1.32 6.121,-3.847 8.83,-4.118 0.465,1.186 0.446,2.67 1.663,3.122 1.041,0.494 3.246,-1.136 4.419,-0.858 3.527,0.833 2.045,3.957 2.84,6.543 0.754,2.411 3.155,2.398 4.476,4.861 1.28,2.287 1.024,5.123 0.684,7.606 -0.47,2.701 -1.592,5 -1.89,7.66 -0.514,2.525 -0.243,5.236 -0.324,8.029 -0.194,4.669 -1.737,9.101 -2.321,13.679 -0.625,4.401 -2.932,4.465 -4.858,8.063 -1.965,3.423 -3.107,4.506 -4.898,7.889 C 27.739,2.303 28.666,1.529 29.675,1.106 27.96,8.724 5.754,17.293 1.068,8.412 2.12,8.164 -0.22,7.339 -0.293,6.247 -0.158,6.03 -1.117,3.423 -0.942,3.381 -1.025,3.03 -0.974,2.464 -1.272,1.98 -0.747,1.856 -0.521,2.541 -0.097,2.257 1.515,1.179 0.582,1.851 0,0"
               inkscape:connector-curvature="0" /></g><g
             transform="translate(258.9775,162)"
             id="g2374"><path
               id="path2376"
               style="fill:#4c321b;fill-opacity:1;fill-rule:nonzero;stroke:none"
               d="m 0,0 c -1.034,-3.279 -1.998,-6.526 -2.678,-9.9 -0.053,-0.263 0.123,-0.599 0.434,-0.571 2.584,0.239 -3.074,-8.668 -3.57,-9.668 -0.126,-0.254 -0.029,-0.586 0.268,-0.661 5.46,-1.386 -2.711,-10.988 -3.693,-14.554 -0.077,-0.28 0.14,-0.574 0.433,-0.57 3.689,0.048 -0.645,-7.089 -1.264,-9.221 -0.091,-0.311 0.225,-0.672 0.553,-0.553 1.068,0.387 4.221,2.588 3.744,-0.454 -0.223,-1.418 -0.467,-2.811 -0.623,-4.238 -0.278,-2.55 0.456,-4.601 1.979,-6.598 0.186,-0.243 0.465,-0.292 0.707,-0.091 1.042,0.869 0.938,-0.919 1.77,-1.794 0.974,-1.022 1.756,-1.867 3.192,-2.092 0.75,-0.118 1.871,1.011 2.316,1.337 2.003,1.47 3.381,-0.03 5.151,-1.255 1.267,-0.877 2.967,-1.486 3.948,0.201 2.179,3.749 11.312,-3.263 14.545,-3.913 0.244,-0.05 0.479,0.067 0.553,0.314 1.177,3.963 4.185,1.355 6.87,2.364 1.012,0.381 1.59,1.631 1.673,2.634 0.328,3.989 2.773,5.671 4.809,8.562 1.819,2.582 1.003,6.717 0.381,9.532 -1.906,8.626 -2.272,17.344 -3.927,26.079 -0.563,2.975 -0.979,4.79 -3.014,7.001 -1.57,1.704 -2.645,3.759 -3.894,5.695 -0.748,1.158 -4.305,4.891 -0.782,3.013 0.338,-0.18 0.778,0.115 0.661,0.508 C 27.872,10.076 6.89,17.921 1.113,8.521 1.001,8.337 1.055,8.129 1.184,7.975 0.474,8.826 -1.176,2.275 -1.272,1.98 -1.378,1.659 -1.038,1.326 -0.72,1.428 c 1.296,0.41 1.233,-0.316 0.765,-1.32 -0.243,-0.523 0.532,-0.98 0.777,-0.455 0.511,1.099 1.57,2.386 -0.366,2.918 -0.871,0.241 -0.681,-0.593 -0.515,0.691 0.227,1.756 0.824,3.187 2.121,4.424 0.189,0.18 0.154,0.451 0,0.636 -1.408,1.688 7.086,3.288 7.558,3.299 2.801,0.065 5.6,-0.704 8.234,-1.577 2.678,-0.888 5.18,-2.241 7.493,-3.841 1.148,-0.795 6.48,-5.332 2.002,-3.382 -0.396,0.172 -0.854,-0.19 -0.617,-0.616 2.264,-4.058 4.732,-8.283 7.886,-11.71 2.175,-2.361 2.139,-6.273 2.766,-9.243 0.832,-3.94 1.4,-7.726 1.365,-11.756 -0.055,-6.278 3.359,-12.194 2.141,-18.438 -0.806,-4.13 -3.317,-2.689 -4.524,-5.16 -0.707,-1.445 -0.824,-2.629 -0.881,-4.24 -0.24,-6.796 -6.394,0.414 -7.795,-3.324 -1.277,-3.411 -4.421,-0.583 -6.609,0.665 -1.971,1.125 -3.856,2.327 -6.037,2.99 -0.817,0.249 -1.479,-0.217 -2.091,-0.614 -1.858,-1.208 -3.422,-1.195 -5.439,0.024 -0.872,0.527 -1.874,1.278 -2.951,0.982 -0.25,-0.069 -0.544,-0.473 -0.648,-0.579 -2.806,-2.887 -4.999,-0.354 -6.821,2.417 -0.201,0.305 -0.57,0.269 -0.778,0 -1.524,-1.985 -1.527,7.599 -1.461,8.018 0.221,1.398 0.459,2.769 0.608,4.175 0.029,0.284 -0.312,0.522 -0.569,0.434 -1.756,-0.594 -4.268,-2.35 -3.131,0.672 0.896,2.384 1.924,4.505 2.308,7.052 0.039,0.255 -0.113,0.608 -0.433,0.57 -3.844,-0.458 1.393,6.079 2.336,7.669 1.218,2.056 1.92,4.128 1.936,6.514 10e-4,0.242 -0.206,0.454 -0.45,0.45 -3.006,-0.052 -2.562,-0.381 -1.462,1.381 0.619,0.992 1.227,1.989 1.814,3 0.716,1.237 1.928,3.128 1.917,4.635 -0.004,0.542 -0.073,1.414 -0.76,1.576 -1.531,0.361 1.47,8.038 1.898,9.397 C 1.042,0.316 0.174,0.552 0,0"
               inkscape:connector-curvature="0" /></g><g
             id="g2378"><g
               id="g2380" /><g
               id="g2386"><g
                 id="g2388"
                 clip-path="url(#clipPath2382)"
                 style="opacity:0.39999396"><g
                   id="g2390"
                   transform="translate(287.9707,100.9609)"><path
                     id="path2392"
                     style="fill:#000000;fill-opacity:1;fill-rule:nonzero;stroke:none"
                     d="m 0,0 c 1.041,0.494 3.246,-1.136 4.42,-0.858 3.526,0.833 -23.569,51.132 -22.774,53.718 0.754,2.412 3.917,21.822 -4.266,19.918 -2.155,-0.501 -3.894,-1.594 -4.871,-3.446 0.837,-0.197 -0.472,-0.761 -1.079,-1.531 -0.185,-1.512 -0.358,-3.071 -0.506,-4.619 0.13,0.072 0.261,0.101 0.42,-0.005 1.611,-1.078 0.678,-0.406 0.096,-2.257 -0.34,-1.09 -0.636,-2.013 -0.902,-2.863 -0.167,-3.333 -0.119,-6.293 0.314,-8.218 1.749,-7.778 5.242,-14.68 10.279,-19.465 7.734,-7.349 3.285,-22.585 5.517,-27.959 0.999,-0.335 2.066,-1.008 2.86,-1.419 1.738,-0.932 4.07,-2.462 6.246,-3.379 0.841,-0.252 1.705,-0.49 2.594,-0.714 C -1.197,-1.916 -1.208,-0.45 0,0"
                     inkscape:connector-curvature="0" /></g></g></g></g><g
             transform="translate(384.8691,127.6934)"
             id="g2394"><path
               id="path2396"
               style="fill:#84572f;fill-opacity:1;fill-rule:nonzero;stroke:none"
               d="m 0,0 c -23.401,5.467 -29.961,37.835 -36.741,57.299 -3.718,10.716 -0.058,22.952 -5.322,33.315 -1.149,2.262 -3.641,4.805 -6.589,7.083 3.321,-0.587 6.623,-1.503 9.809,-0.109 1.938,0.829 5.578,3.913 6.167,6.29 -2.39,-0.765 -4.577,-1.968 -7.262,-2.298 -2.328,-0.31 -4.758,-0.354 -7.185,-0.49 -3.158,-0.176 -6.101,0.621 -9.107,1.325 -0.688,0.33 -1.364,0.629 -2.016,0.884 -5.941,2.317 -14.216,3.368 -22.309,4.374 -5.504,0.683 -15.364,1.631 -21.379,-0.679 -1.485,0.077 -2.977,0.069 -4.467,-0.014 -4.404,-0.245 -11.333,-0.65 -20.551,3.208 1.657,-2.471 1.17,-5 6.388,-7.873 1.824,-1.003 9.199,0.564 12.25,0.835 -3.136,-2.231 -5.787,-4.615 -8.691,-7.87 -5.808,-6.512 -10.263,-28.652 -3.918,-39.047 0,0 -4.1,-22.974 -2.424,-30.427 1.749,-7.778 5.243,-14.679 10.28,-19.464 8.748,-8.311 1.91,-26.714 6.78,-29.525 13.558,-7.829 45.037,-8.22 59.252,-5.205 11.157,2.368 11.606,16.14 22.76,15.702 6.123,-0.218 10.934,0.874 16.621,3.063 3.936,1.53 13.559,4.592 14.652,8.966 C 5.03,-0.219 2.406,-0.438 0,0"
               inkscape:connector-curvature="0" /></g><g
             transform="translate(384.9883,128.127)"
             id="g2398"><path
               id="path2400"
               style="fill:#563a1d;fill-opacity:1;fill-rule:nonzero;stroke:none"
               d="m 0,0 c -22.274,5.695 -28.643,32.879 -34.727,51.873 -2.154,6.728 -3.46,12.951 -3.706,20.073 -0.222,6.413 -0.632,12.558 -3.361,18.462 -1.104,2.388 -3.317,4.311 -5.227,6.015 0.583,-0.521 5.238,-0.651 6.577,-0.219 3.509,1.131 6.722,3.596 8.083,7.12 0.121,0.314 -0.246,0.663 -0.553,0.554 -9.242,-3.27 -17.475,-3.435 -26.742,-0.065 -7.315,2.657 -15.582,3.275 -23.27,4.138 -3.227,0.362 -6.465,0.528 -9.711,0.516 -3.652,-0.015 -7.342,-1.525 -10.903,-1.407 -8.312,0.275 -15.412,-0.031 -23.411,3.128 -0.384,0.152 -0.693,-0.346 -0.509,-0.661 1.793,-3.062 2.891,-6.751 6.657,-8.079 1.478,-0.521 3.039,-0.339 4.576,-0.212 0.849,0.071 1.719,0.193 2.562,0.313 0.803,0.111 1.604,0.227 2.406,0.347 2.214,0.252 2.641,0.333 1.282,0.242 -8.263,-6.075 -11.974,-13.386 -13.795,-23.285 -0.873,-4.746 -1.039,-9.623 -0.491,-14.412 0.23,-2.003 0.735,-3.944 1.388,-5.846 0.415,-1.21 1.475,-2.229 1.261,-3.474 -1.298,-7.564 -2.368,-15.229 -2.672,-22.903 -0.39,-9.855 3.85,-19.686 10.781,-26.628 7.658,-7.67 2.566,-18.428 5.306,-27.514 0.682,-2.264 3.367,-3.126 5.333,-3.897 4.977,-1.954 10.178,-3.062 15.454,-3.861 10.558,-1.598 21.444,-1.726 32.068,-0.776 4.573,0.409 9.976,0.73 13.74,3.645 5.016,3.881 7.645,10.876 13.978,12.915 3.599,1.158 8.035,0.328 11.825,0.973 3.756,0.64 7.318,2.129 10.867,3.455 4.314,1.612 10.479,3.538 12.247,8.259 0.078,0.21 -0.086,0.522 -0.315,0.554 -2.366,0.338 -4.744,0.381 -7.117,0.674 -0.575,0.07 -0.569,-0.83 0,-0.901 0.174,-0.021 6.833,-0.381 5.259,-2.209 -0.947,-1.1 -2.388,-1.862 -3.63,-2.578 -2.412,-1.392 -5.087,-2.335 -7.688,-3.307 -2.728,-1.019 -5.437,-1.995 -8.259,-2.731 -4.115,-1.074 -8.127,-0.649 -12.268,-1.086 -8.631,-0.912 -11.411,-12.465 -19.372,-15.283 -4.349,-1.54 -9.551,-1.569 -14.111,-1.837 -5.836,-0.342 -11.7,-0.235 -17.533,0.124 -5.76,0.355 -11.496,1.134 -17.123,2.415 -4.17,0.949 -11.826,2.241 -12.839,7.077 -1.685,8.054 1.967,17.668 -3.679,24.798 -4.624,5.838 -8.489,10.418 -10.814,17.717 -1.509,4.735 -1.323,9.467 -0.957,14.357 0.345,4.61 0.973,9.2 1.658,13.771 0.213,1.423 1.26,4.145 0.867,5.576 -0.58,2.11 -1.835,4.038 -2.359,6.243 -0.672,2.827 -0.74,5.786 -0.709,8.678 0.063,5.875 1.305,11.796 3.328,17.298 2.239,6.087 7.02,10.424 12.142,14.189 0.315,0.233 0.268,0.893 -0.228,0.839 -5.125,-0.561 -10.216,-2.563 -14.651,0.9 -1.642,1.283 -2.273,3.29 -3.114,5.088 0.839,-1.793 7.181,-2.386 8.956,-2.701 4.048,-0.716 8.135,-0.457 12.213,-0.3 5.144,0.2 10.062,1.494 15.317,1.389 6.075,-0.122 12.203,-1.092 18.195,-1.987 5.899,-0.883 11.147,-3.086 16.847,-4.434 5.342,-1.262 10.905,-1.128 16.29,-0.117 0.984,0.26 1.946,0.58 2.89,0.962 3.015,1.11 0.707,-0.991 -0.2,-1.93 -3.674,-3.803 -8.228,-3.221 -12.961,-2.34 -0.395,0.074 -0.823,-0.44 -0.438,-0.752 6.641,-5.373 8.892,-11.511 9.534,-19.882 0.44,-5.718 0.259,-11.404 1.351,-17.06 1.648,-8.539 5.329,-17.364 8.25,-25.548 5.257,-14.73 13.279,-31.12 29.717,-35.322 C 0.324,-1.012 0.563,-0.144 0,0"
               inkscape:connector-curvature="0" /></g><g
             id="g2402"><g
               id="g2404" /><g
               id="g2410"><g
                 id="g2412"
                 clip-path="url(#clipPath2406)"
                 style="opacity:0.30000299"><g
                   id="g2414"
                   transform="translate(385.0977,127.54)"><path
                     id="path2416"
                     style="fill:#000000;fill-opacity:1;fill-rule:nonzero;stroke:none"
                     d="m 0,0 c -23.49,5.489 -30.076,37.979 -36.882,57.518 -3.731,10.756 -0.057,23.039 -5.342,33.442 -1.153,2.269 -3.655,4.823 -6.614,7.11 3.334,-0.59 6.65,-1.508 9.847,-0.11 1.944,0.833 5.6,3.929 6.19,6.313 -2.398,-0.766 -4.595,-1.974 -7.29,-2.306 -2.335,-0.311 -4.775,-0.357 -7.212,-0.492 -3.171,-0.176 -6.124,0.625 -9.14,1.331 -0.692,0.332 -1.371,0.631 -2.025,0.885 -5.964,2.328 -14.27,3.382 -22.392,4.392 -5.527,0.687 -15.423,1.638 -21.461,-0.682 -1.492,0.078 -2.99,0.071 -4.487,-0.012 -4.419,-0.246 -11.375,-0.654 -20.628,3.219 1.665,-2.481 1.174,-5.018 6.413,-7.903 1.831,-1.007 9.234,0.566 12.295,0.839 -3.146,-2.24 -5.807,-4.634 -8.721,-7.901 -5.831,-6.536 -10.303,-28.76 -3.934,-39.195 0,0 -4.116,-23.061 -2.433,-30.543 1.755,-7.807 5.262,-14.736 10.318,-19.538 8.781,-8.343 1.918,-26.815 6.806,-29.637 13.61,-7.858 45.208,-8.251 59.477,-5.224 11.2,2.378 11.651,16.201 22.847,15.762 6.147,-0.219 10.976,0.878 16.684,3.073 3.952,1.536 13.611,4.61 14.708,9.001 C 5.049,-0.22 2.415,-0.438 0,0"
                     inkscape:connector-curvature="0" /></g></g></g></g><g
             id="g2418"><g
               id="g2420" /><g
               id="g2426"><g
                 id="g2428"
                 clip-path="url(#clipPath2422)"
                 style="opacity:0.39999396"><g
                   id="g2430"
                   transform="translate(384.8691,127.6934)"><path
                     id="path2432"
                     style="fill:#000000;fill-opacity:1;fill-rule:nonzero;stroke:none"
                     d="m 0,0 c -23.401,5.467 -29.961,37.835 -36.741,57.299 -1.191,3.43 -1.624,7.014 -1.837,10.643 -0.452,7.712 0.095,15.625 -3.485,22.672 -1.149,2.262 -3.641,4.805 -6.589,7.083 3.321,-0.587 6.623,-1.503 9.809,-0.109 1.938,0.829 5.578,3.913 6.167,6.29 -2.39,-0.765 -4.577,-1.968 -7.262,-2.298 -2.328,-0.31 -4.758,-0.354 -7.185,-0.49 -3.158,-0.176 -6.101,0.621 -9.107,1.325 -0.688,0.33 -1.364,0.629 -2.016,0.884 -5.941,2.317 -14.216,3.368 -22.309,4.374 -5.504,0.683 -15.364,1.631 -21.379,-0.679 -1.485,0.077 -12.167,-8.459 -15.071,-11.714 33.702,4.469 61.501,-4.864 63.178,-12.317 1.749,-7.778 2.683,-15.363 0.428,-21.989 -4.888,-14.357 26.976,-61.576 6.364,-89.362 11.157,2.368 11.606,16.14 22.76,15.702 6.123,-0.218 10.934,0.874 16.621,3.063 3.936,1.53 13.559,4.592 14.652,8.966 C 5.03,-0.219 2.406,-0.438 0,0"
                     inkscape:connector-curvature="0" /></g></g></g></g><g
             id="g2434"><g
               id="g2436" /><g
               id="g2442"><g
                 id="g2444"
                 clip-path="url(#clipPath2438)"
                 style="opacity:0.39999396"><g
                   id="g2446"
                   transform="translate(331.042,210.6563)"><path
                     id="path2448"
                     style="fill:#000000;fill-opacity:1;fill-rule:nonzero;stroke:none"
                     d="m 0,0 c -3.738,5.504 -12.421,8.775 -22.681,6.479 5.095,-1.29 14.309,-3.33 16.278,-10.598 1.854,-6.843 -1.119,-14.595 -7.233,-17.449 -6.23,-2.907 -15.461,3.708 -21.979,4.812 -2.413,0.409 -15.652,-3.091 -17.8,-1.716 -8.833,5.639 -5.296,17.629 -2.431,22.027 3.062,4.686 12.375,3.87 20.532,4.68 -6.266,3.375 -19.132,2.434 -23.893,-2.731 -4.617,-4.89 -6.175,-16.95 -1.828,-22.521 4.759,-6.386 8.751,-9.707 15.364,-5.751 1.706,1.021 3.18,1.734 4.495,2.205 -1.706,-1.234 -2.892,-3.215 -3.265,-5.983 -0.546,-4.265 1.968,-10.607 6.78,-11.7 0,0 -0.232,1.111 -0.438,1.421 -1.892,2.845 3.281,4.047 4.375,4.594 2.405,1.092 4.811,2.623 4.592,5.685 l 0.145,1.531 c -0.01,0.595 -0.142,1.2 -0.372,1.784 0.983,-0.629 2.047,-1.293 3.253,-1.949 11.143,-6.047 22.183,-1.838 26.534,3.191 C 4.231,-17.776 3.026,-4.461 0,0"
                     inkscape:connector-curvature="0" /></g></g></g></g><g
             transform="translate(300.7051,186.1807)"
             id="g2450"><path
               id="path2452"
               style="fill:#d8b72e;fill-opacity:1;fill-rule:nonzero;stroke:none"
               d="m 0,0 c -0.042,2.446 -2.089,5.047 -4.957,5.796 -0.108,0.028 -0.324,0.097 -0.437,0.109 -5.1,0.629 -9.294,-1.75 -10.06,-7.435 -0.547,-4.265 1.969,-10.608 6.78,-11.7 0,0 -0.231,1.112 -0.438,1.421 -1.892,2.844 3.281,4.045 4.376,4.592 2.404,1.095 4.81,2.625 4.59,5.687 L 0,0 z"
               inkscape:connector-curvature="0" /></g><g
             transform="translate(301.1553,186.1807)"
             id="g2454"><path
               id="path2456"
               style="fill:#d6a630;fill-opacity:1;fill-rule:nonzero;stroke:none"
               d="m 0,0 c -0.849,7.273 -10.069,8.252 -14.407,3.382 -4.649,-5.22 -1.172,-15.131 5.164,-17.046 0.342,-0.104 0.626,0.23 0.553,0.554 -0.372,1.644 -1.019,3.285 1.044,4.409 1.434,0.781 3.01,1.207 4.449,2.015 C -0.418,-5.123 -0.27,-2.833 0,0 0.055,0.578 -0.846,0.572 -0.9,0 -1.123,-2.346 -1.562,-4.471 -3.651,-5.908 -4.816,-6.71 -6.187,-7.051 -7.455,-7.63 c -1.251,-0.57 -3.731,-1.889 -2.828,-3.728 0.878,-1.791 1.089,-1.485 -0.309,-0.842 -1.313,0.603 -2.295,1.883 -3.076,3.032 -1.339,1.969 -1.843,4.48 -1.853,6.815 C -15.558,5.839 -1.988,9.326 -0.9,0 -0.834,-0.569 0.067,-0.576 0,0"
               inkscape:connector-curvature="0" /></g><g
             transform="translate(292.4199,173.1777)"
             id="g2458"><path
               id="path2460"
               style="fill:#d6a630;fill-opacity:1;fill-rule:nonzero;stroke:none"
               d="m 0,0 c -1.594,2.445 -1.899,6.433 1.481,7.667 1.198,0.437 2.594,0.359 3.828,0.748 2.091,0.659 3.31,2.487 3.426,4.588 0.033,0.58 -0.868,0.577 -0.9,0 C 7.563,8.05 2.143,9.807 -0.559,7.469 -2.901,5.441 -2.241,1.792 -0.777,-0.455 -0.462,-0.938 0.317,-0.488 0,0"
               inkscape:connector-curvature="0" /></g><g
             transform="translate(296.7109,188.749)"
             id="g2462"><path
               id="path2464"
               style="fill:#2d230c;fill-opacity:1;fill-rule:nonzero;stroke:none"
               d="M 0,0 C 0.607,-0.561 1.35,-1.325 1.529,-2.158 1.842,-1.483 2.027,-0.637 1.33,0.149 0.883,0.652 0,0 0,0"
               inkscape:connector-curvature="0" /></g><g
             id="g2466"><g
               id="g2468" /><g
               id="g2474"><g
                 id="g2476"
                 clip-path="url(#clipPath2470)"
                 style="opacity:0.39999396"><g
                   id="g2478"
                   transform="translate(333.8262,227.1152)"><path
                     id="path2480"
                     style="fill:#000000;fill-opacity:1;fill-rule:nonzero;stroke:none"
                     d="m 0,0 c -3.537,0.536 -12.514,7.054 -25.78,3.206 -2.409,-0.699 -5.197,-2.02 -6.48,-2.879 -4.239,3.753 -4.83,3.613 -9.259,5.44 -3.813,1.528 -8.71,0.118 -12.772,-0.047 -2.105,-1.329 -5.576,-4.029 -7.331,-5.469 2.07,0.772 4.88,1.844 5.546,2.055 8.765,2.786 14.115,-0.164 17.111,-3.15 3.536,-3.524 2.044,-5.715 4.229,-10.62 3.84,5.358 12.321,9.074 14.672,9.856 12.352,4.103 21.258,-2.786 23.125,-4.896 5.809,-6.58 8.33,-18.053 9.762,-29.003 0,1.697 -0.999,17.879 -1.285,19.373 C 9.805,-7.083 3.44,-1.738 0,0"
                     inkscape:connector-curvature="0" /></g></g></g></g><g
             transform="translate(323.9453,207.375)"
             id="g2482"><path
               id="path2484"
               style="fill:#5e3f28;fill-opacity:1;fill-rule:nonzero;stroke:none"
               d="m 0,0 c 1.804,-6.65 0.483,-15.38 -5.391,-18.287 -6.75,-3.34 -16.789,3.74 -23.128,4.812 -2.342,0.398 -12.85,-2.954 -17.081,0.331 -8.041,6.247 -4.404,14.627 -1.618,18.901 2.835,4.345 13.773,7.497 21.791,2.05 0.391,-0.34 4.579,10e-4 4.577,0 C -13.356,8.983 -1.916,7.064 0,0 m 20.985,21.898 c -2.327,-0.31 -4.757,-0.354 -7.184,-0.49 -5.031,-0.28 -9.514,1.909 -14.579,2.259 -2.986,0.193 -11.068,0.142 -16.291,-2.521 -2.029,-1.034 -5.652,-3.893 -6.229,-3.69 -0.638,0.127 -1.128,5.738 -9.116,8.317 -4.252,1.374 -8.66,1.772 -13.064,1.526 -4.403,-0.245 -11.333,-0.651 -20.55,3.208 1.657,-2.472 1.17,-5 6.387,-7.873 2.015,-1.109 10.811,1.062 13.054,0.873 4.733,-0.4 7.082,-1.715 10.078,-4.7 1.676,-1.67 3.589,-3.692 5.505,-6.183 -7.226,3.705 -17.038,-0.279 -20.565,-4.107 -4.487,-4.754 -6.602,-15.485 -2.375,-20.899 4.622,-6.205 9.352,-9.588 15.78,-5.743 9.771,5.841 11.849,1.545 19.015,-2.344 10.832,-5.878 20.27,-2.178 24.496,2.706 3.697,4.094 3.607,16.397 0.66,20.733 -2.656,3.911 -15.536,9.028 -23.166,7.647 2.292,1.828 5.338,4.567 6.39,5.039 10.889,4.889 15.998,2.66 18.969,2.736 4.678,0.171 9.394,-2.448 13.881,-0.486 1.938,0.829 5.578,3.913 6.167,6.29 -2.391,-0.764 -4.577,-1.967 -7.263,-2.298"
               inkscape:connector-curvature="0" /></g><g
             transform="translate(322.7168,211.8711)"
             id="g2486"><path
               id="path2488"
               style="fill:#422c1c;fill-opacity:1;fill-rule:nonzero;stroke:none"
               d="m 0,0 c -1.35,1.53 -3.607,4.015 -7.2,4.5 -4.479,0.605 -9.989,-0.36 -13.771,-2.61 -1.506,-0.925 -2.595,-2.267 -3.342,-3.823 -1.073,3.913 -3.799,8.811 -10.697,10.304 -3.345,0.723 -8.64,-1.35 -10.529,-2.52 C -49.68,3.33 -52.2,-2.25 -52.2,-7.11 c 0,-4.769 2.88,-9.539 7.2,-11.879 3.6,-2.072 9,-0.631 12.6,0.449 3.027,0.881 5.564,3.276 7.119,6.095 0.748,-4.122 2.686,-7.545 7.01,-9.244 4.141,-1.622 8.732,-1.261 13.141,-1.081 C 5.579,-22.319 5.311,-6.12 0,0"
               inkscape:connector-curvature="0" /></g><g
             transform="translate(321.1992,211.501)"
             id="g2490"><path
               id="path2492"
               style="fill:#281b13;fill-opacity:1;fill-rule:nonzero;stroke:none"
               d="m 0,0 c -1.282,1.451 -3.423,3.809 -6.83,4.27 -4.25,0.574 -9.477,-0.342 -13.064,-2.476 -1.43,-0.878 -2.463,-2.151 -3.171,-3.628 -1.017,3.713 -3.604,8.358 -10.149,9.775 -3.172,0.687 -8.196,-1.281 -9.988,-2.39 -3.928,-2.391 -6.319,-7.686 -6.319,-12.296 0,-4.525 2.732,-9.05 6.832,-11.27 3.415,-1.964 8.537,-0.597 11.951,0.427 2.872,0.835 5.277,3.109 6.756,5.781 0.708,-3.91 2.545,-7.158 6.649,-8.769 3.929,-1.537 8.282,-1.195 12.466,-1.025 C 5.293,-21.174 5.037,-5.805 0,0"
               inkscape:connector-curvature="0" /></g><g
             transform="translate(281.3047,216.5791)"
             id="g2494"><path
               id="path2496"
               style="fill:#bcb7b3;fill-opacity:1;fill-rule:nonzero;stroke:none"
               d="m 0,0 c -4.601,-2.21 -6.176,-9.967 -6.086,-14.293 0.068,-3.24 2.7,-6.007 5.288,-6.885 2.326,-0.788 5.76,-0.809 8.19,-0.719 2.25,0.089 5.13,0.628 7.379,0.269 2.341,-0.359 4.681,-1.53 6.931,-2.25 4.41,-1.44 10.237,-3.802 14.737,-1.553 3.6,1.71 5.692,5.495 6.233,10.73 0.286,2.775 -0.138,7.681 -2.723,9.857 5.24,-2.68 5.423,-10.393 4.072,-14.984 -1.349,-4.59 -6.569,-12.861 -17.73,-8.191 -2.362,0.991 -11.339,4.322 -13.679,4.591 -2.43,0.36 -5.041,-0.091 -7.38,-0.269 -4.68,-0.361 -10.089,1.771 -12.735,6.099 -2.091,3.42 -1.598,11.608 3.015,16.311 C -3.245,-0.02 0,0 0,0"
               inkscape:connector-curvature="0" /></g><g
             transform="translate(322.2666,220.8711)"
             id="g2498"><path
               id="path2500"
               style="fill:#bcb7b3;fill-opacity:1;fill-rule:nonzero;stroke:none"
               d="m 0,0 c -3.492,0.763 -12.149,0.721 -18.728,-3.294 -2.558,-1.561 -5.915,-1.596 -7.928,0.511 -2.747,2.873 -8.538,5.714 -14.213,5.802 -7.646,0.119 -14.935,-3.458 -12.973,-6.425 1.376,-2.081 9.577,2.559 12.786,2.118 5.916,-0.816 10.805,-3.021 12.952,-5.968 1.48,-2.032 1.437,-5.717 1.194,-9.034 -0.372,-5.101 -3.15,-9.539 -5.854,-9.852 1.531,-0.27 5.678,-0.047 7.208,-0.498 1.62,-0.36 5.224,-1.347 6.844,-1.709 -1.264,0.844 -6.398,4.121 -5.036,12.78 0.881,5.593 4.096,7.56 6.525,9 4.4,2.083 9.786,1.88 12.633,1.755 C 1.546,-5.085 6.885,-11.503 11.104,-9.083 13.981,-7.434 6.128,-1.339 0,0"
               inkscape:connector-curvature="0" /></g><g
             transform="translate(279.4707,212.9512)"
             id="g2502"><path
               id="path2504"
               style="fill:#9b511f;fill-opacity:1;fill-rule:nonzero;stroke:none"
               d="m 0,0 c -2.452,-3.78 -3.27,-10.959 -1.664,-13.409 1.71,-2.611 5.661,-3.865 8.144,-3.705 5.565,0.36 7.516,3.795 8.056,9.014 0.27,2.52 0.787,7.201 -2.52,9.54 C 11.155,2.049 8.586,3.152 5.706,3.06 3.727,2.997 0.694,1.068 0,0"
               inkscape:connector-curvature="0" /></g></g></g><g
         id="g2506"><g
           clip-path="url(#clipPath2510)"
           id="g2508"><g
             id="g2514"><g
               id="g2516" /><g
               id="g2522"><g
                 id="g2524"
                 clip-path="url(#clipPath2518)"
                 style="opacity:0.39999396"><g
                   id="g2526"
                   transform="translate(300.1953,209.1172)"><path
                     id="path2528"
                     style="fill:#000000;fill-opacity:1;fill-rule:nonzero;stroke:none"
                     d="M 0,0 -0.929,2.174 -15.324,-2.375 0,0 z"
                     inkscape:connector-curvature="0" /></g></g></g></g><g
             id="g2530"><g
               id="g2532" /><g
               id="g2538"><g
                 id="g2540"
                 clip-path="url(#clipPath2534)"
                 style="opacity:0.39999396"><g
                   id="g2542"
                   transform="translate(296.9541,216.4609)"><path
                     id="path2544"
                     style="fill:#000000;fill-opacity:1;fill-rule:nonzero;stroke:none"
                     d="M 0,0 -1.891,1.419 -12.083,-9.719 0,0 z"
                     inkscape:connector-curvature="0" /></g></g></g></g><g
             id="g2546"><g
               id="g2548" /><g
               id="g2554"><g
                 id="g2556"
                 clip-path="url(#clipPath2550)"
                 style="opacity:0.39999396"><g
                   id="g2558"
                   transform="translate(290.4746,221.2002)"><path
                     id="path2560"
                     style="fill:#000000;fill-opacity:1;fill-rule:nonzero;stroke:none"
                     d="M 0,0 -2.346,0.283 -5.604,-14.458 0,0 z"
                     inkscape:connector-curvature="0" /></g></g></g></g><g
             id="g2562"><g
               id="g2564" /><g
               id="g2570"><g
                 id="g2572"
                 clip-path="url(#clipPath2566)"
                 style="opacity:0.39999396"><g
                   id="g2574"
                   transform="translate(282.4951,222.0645)"><path
                     id="path2576"
                     style="fill:#000000;fill-opacity:1;fill-rule:nonzero;stroke:none"
                     d="M 0,0 -2.173,-0.928 2.376,-15.322 0,0 z"
                     inkscape:connector-curvature="0" /></g></g></g></g><g
             id="g2578"><g
               id="g2580" /><g
               id="g2586"><g
                 id="g2588"
                 clip-path="url(#clipPath2582)"
                 style="opacity:0.39999396"><g
                   id="g2590"
                   transform="translate(275.1523,218.8242)"><path
                     id="path2592"
                     style="fill:#000000;fill-opacity:1;fill-rule:nonzero;stroke:none"
                     d="M 0,0 -1.419,-1.891 9.719,-12.082 0,0 z"
                     inkscape:connector-curvature="0" /></g></g></g></g><g
             id="g2594"><g
               id="g2596" /><g
               id="g2602"><g
                 id="g2604"
                 clip-path="url(#clipPath2598)"
                 style="opacity:0.39999396"><g
                   id="g2606"
                   transform="translate(270.4131,212.3457)"><path
                     id="path2608"
                     style="fill:#000000;fill-opacity:1;fill-rule:nonzero;stroke:none"
                     d="M 0,0 -0.283,-2.347 14.458,-5.604 0,0 z"
                     inkscape:connector-curvature="0" /></g></g></g></g><g
             id="g2610"><g
               id="g2612" /><g
               id="g2618"><g
                 id="g2620"
                 clip-path="url(#clipPath2614)"
                 style="opacity:0.39999396"><g
                   id="g2622"
                   transform="translate(269.5488,204.3652)"><path
                     id="path2624"
                     style="fill:#000000;fill-opacity:1;fill-rule:nonzero;stroke:none"
                     d="M 0,0 0.928,-2.174 15.322,2.377 0,0 z"
                     inkscape:connector-curvature="0" /></g></g></g></g><g
             id="g2626"><g
               id="g2628" /><g
               id="g2634"><g
                 id="g2636"
                 clip-path="url(#clipPath2630)"
                 style="opacity:0.39999396"><g
                   id="g2638"
                   transform="translate(272.7891,197.0215)"><path
                     id="path2640"
                     style="fill:#000000;fill-opacity:1;fill-rule:nonzero;stroke:none"
                     d="M 0,0 1.891,-1.417 12.082,9.721 0,0 z"
                     inkscape:connector-curvature="0" /></g></g></g></g><g
             id="g2642"><g
               id="g2644" /><g
               id="g2650"><g
                 id="g2652"
                 clip-path="url(#clipPath2646)"
                 style="opacity:0.39999396"><g
                   id="g2654"
                   transform="translate(279.2676,192.2822)"><path
                     id="path2656"
                     style="fill:#000000;fill-opacity:1;fill-rule:nonzero;stroke:none"
                     d="M 0,0 2.347,-0.282 5.604,14.46 0,0 z"
                     inkscape:connector-curvature="0" /></g></g></g></g><g
             id="g2658"><g
               id="g2660" /><g
               id="g2666"><g
                 id="g2668"
                 clip-path="url(#clipPath2662)"
                 style="opacity:0.39999396"><g
                   id="g2670"
                   transform="translate(287.248,191.417)"><path
                     id="path2672"
                     style="fill:#000000;fill-opacity:1;fill-rule:nonzero;stroke:none"
                     d="M 0,0 2.172,0.93 -2.377,15.325 0,0 z"
                     inkscape:connector-curvature="0" /></g></g></g></g><g
             id="g2674"><g
               id="g2676" /><g
               id="g2682"><g
                 id="g2684"
                 clip-path="url(#clipPath2678)"
                 style="opacity:0.39999396"><g
                   id="g2686"
                   transform="translate(294.5918,194.6592)"><path
                     id="path2688"
                     style="fill:#000000;fill-opacity:1;fill-rule:nonzero;stroke:none"
                     d="M 0,0 1.417,1.89 -9.721,12.083 0,0 z"
                     inkscape:connector-curvature="0" /></g></g></g></g><g
             id="g2690"><g
               id="g2692" /><g
               id="g2698"><g
                 id="g2700"
                 clip-path="url(#clipPath2694)"
                 style="opacity:0.39999396"><g
                   id="g2702"
                   transform="translate(299.3311,201.1367)"><path
                     id="path2704"
                     style="fill:#000000;fill-opacity:1;fill-rule:nonzero;stroke:none"
                     d="M 0,0 0.282,2.347 -14.46,5.605 0,0 z"
                     inkscape:connector-curvature="0" /></g></g></g></g></g></g><g
         id="g2706"><g
           clip-path="url(#clipPath2710)"
           id="g2708"><g
             id="g2714"><g
               id="g2716" /><g
               id="g2722"><g
                 id="g2724"
                 clip-path="url(#clipPath2718)"
                 style="opacity:0.39999396"><g
                   id="g2726"
                   transform="translate(279.4707,212.9512)"><path
                     id="path2728"
                     style="fill:#000000;fill-opacity:1;fill-rule:nonzero;stroke:none"
                     d="m 0,0 c 6.695,-0.354 8.25,-1.419 9.855,-3.87 1.71,-2.609 2.611,-7.203 2.888,-10.084 1.019,1.51 1.548,3.5 1.793,5.854 0.27,2.52 0.787,7.201 -2.52,9.54 C 11.155,2.049 8.586,3.152 5.706,3.06 3.727,2.997 0.694,1.068 0,0"
                     inkscape:connector-curvature="0" /></g></g></g></g><g
             id="g2730"><g
               id="g2732" /><g
               id="g2738"><g
                 id="g2740"
                 clip-path="url(#clipPath2734)"
                 style="opacity:0.80000299"><g
                   id="g2742"
                   transform="translate(279.0313,205.3252)"><path
                     id="path2744"
                     style="fill:#ffffff;fill-opacity:1;fill-rule:nonzero;stroke:none"
                     d="m 0,0 c 1.206,-1.584 3.393,-1.885 5.277,-1.658 1.508,0.15 4.449,1.054 5.504,2.261 1.583,1.809 1.055,5.202 -0.603,6.71 C 9.35,8.143 6.977,10.403 3.771,9.424 -1.321,7.867 -1.809,2.563 0,0"
                     inkscape:connector-curvature="0" /></g></g></g></g><g
             transform="translate(300.3066,205.6611)"
             id="g2746"><path
               id="path2748"
               style="fill:#9b511f;fill-opacity:1;fill-rule:nonzero;stroke:none"
               d="m 0,0 c -0.72,-2.88 -0.27,-6.589 1.35,-9.018 1.35,-1.98 2.879,-2.484 5.13,-3.473 3.87,-1.8 10.17,-1.387 12.959,2.123 1.981,2.519 3.803,9.895 1.531,13.122 C 19.136,5.357 17.339,7.053 13.804,7.773 6.35,9.293 1.17,5.221 0,0"
               inkscape:connector-curvature="0" /></g></g></g><g
         id="g2750"><g
           clip-path="url(#clipPath2754)"
           id="g2752"><g
             id="g2758"><g
               id="g2760" /><g
               id="g2766"><g
                 id="g2768"
                 clip-path="url(#clipPath2762)"
                 style="opacity:0.39999396"><g
                   id="g2770"
                   transform="translate(321.7939,213.2217)"><path
                     id="path2772"
                     style="fill:#000000;fill-opacity:1;fill-rule:nonzero;stroke:none"
                     d="M 0,0 -1.89,1.417 -12.082,-9.721 0,0 z"
                     inkscape:connector-curvature="0" /></g></g></g></g><g
             id="g2774"><g
               id="g2776" /><g
               id="g2782"><g
                 id="g2784"
                 clip-path="url(#clipPath2778)"
                 style="opacity:0.39999396"><g
                   id="g2786"
                   transform="translate(315.3145,217.96)"><path
                     id="path2788"
                     style="fill:#000000;fill-opacity:1;fill-rule:nonzero;stroke:none"
                     d="M 0,0 -2.345,0.283 -5.603,-14.459 0,0 z"
                     inkscape:connector-curvature="0" /></g></g></g></g><g
             id="g2790"><g
               id="g2792" /><g
               id="g2798"><g
                 id="g2800"
                 clip-path="url(#clipPath2794)"
                 style="opacity:0.39999396"><g
                   id="g2802"
                   transform="translate(307.335,218.8252)"><path
                     id="path2804"
                     style="fill:#000000;fill-opacity:1;fill-rule:nonzero;stroke:none"
                     d="M 0,0 -2.173,-0.928 2.377,-15.324 0,0 z"
                     inkscape:connector-curvature="0" /></g></g></g></g><g
             id="g2806"><g
               id="g2808" /><g
               id="g2814"><g
                 id="g2816"
                 clip-path="url(#clipPath2810)"
                 style="opacity:0.39999396"><g
                   id="g2818"
                   transform="translate(299.9922,215.584)"><path
                     id="path2820"
                     style="fill:#000000;fill-opacity:1;fill-rule:nonzero;stroke:none"
                     d="M 0,0 -1.418,-1.89 9.72,-12.083 0,0 z"
                     inkscape:connector-curvature="0" /></g></g></g></g><g
             id="g2822"><g
               id="g2824" /><g
               id="g2830"><g
                 id="g2832"
                 clip-path="url(#clipPath2826)"
                 style="opacity:0.39999396"><g
                   id="g2834"
                   transform="translate(295.2529,209.1055)"><path
                     id="path2836"
                     style="fill:#000000;fill-opacity:1;fill-rule:nonzero;stroke:none"
                     d="M 0,0 -0.283,-2.346 14.459,-5.604 0,0 z"
                     inkscape:connector-curvature="0" /></g></g></g></g><g
             id="g2838"><g
               id="g2840" /><g
               id="g2846"><g
                 id="g2848"
                 clip-path="url(#clipPath2842)"
                 style="opacity:0.39999396"><g
                   id="g2850"
                   transform="translate(294.3877,201.126)"><path
                     id="path2852"
                     style="fill:#000000;fill-opacity:1;fill-rule:nonzero;stroke:none"
                     d="M 0,0 0.929,-2.173 15.324,2.375 0,0 z"
                     inkscape:connector-curvature="0" /></g></g></g></g><g
             id="g2854"><g
               id="g2856" /><g
               id="g2862"><g
                 id="g2864"
                 clip-path="url(#clipPath2858)"
                 style="opacity:0.39999396"><g
                   id="g2866"
                   transform="translate(297.6289,193.7813)"><path
                     id="path2868"
                     style="fill:#000000;fill-opacity:1;fill-rule:nonzero;stroke:none"
                     d="M 0,0 1.891,-1.417 12.083,9.72 0,0 z"
                     inkscape:connector-curvature="0" /></g></g></g></g><g
             id="g2870"><g
               id="g2872" /><g
               id="g2878"><g
                 id="g2880"
                 clip-path="url(#clipPath2874)"
                 style="opacity:0.39999396"><g
                   id="g2882"
                   transform="translate(304.1074,189.042)"><path
                     id="path2884"
                     style="fill:#000000;fill-opacity:1;fill-rule:nonzero;stroke:none"
                     d="M 0,0 2.346,-0.282 5.604,14.459 0,0 z"
                     inkscape:connector-curvature="0" /></g></g></g></g><g
             id="g2886"><g
               id="g2888" /><g
               id="g2894"><g
                 id="g2896"
                 clip-path="url(#clipPath2890)"
                 style="opacity:0.39999396"><g
                   id="g2898"
                   transform="translate(312.0879,188.1777)"><path
                     id="path2900"
                     style="fill:#000000;fill-opacity:1;fill-rule:nonzero;stroke:none"
                     d="M 0,0 2.172,0.928 -2.376,15.323 0,0 z"
                     inkscape:connector-curvature="0" /></g></g></g></g><g
             id="g2902"><g
               id="g2904" /><g
               id="g2910"><g
                 id="g2912"
                 clip-path="url(#clipPath2906)"
                 style="opacity:0.39999396"><g
                   id="g2914"
                   transform="translate(319.4316,191.4189)"><path
                     id="path2916"
                     style="fill:#000000;fill-opacity:1;fill-rule:nonzero;stroke:none"
                     d="M 0,0 1.418,1.89 -9.72,12.082 0,0 z"
                     inkscape:connector-curvature="0" /></g></g></g></g><g
             id="g2918"><g
               id="g2920" /><g
               id="g2926"><g
                 id="g2928"
                 clip-path="url(#clipPath2922)"
                 style="opacity:0.39999396"><g
                   id="g2930"
                   transform="translate(324.1709,197.8975)"><path
                     id="path2932"
                     style="fill:#000000;fill-opacity:1;fill-rule:nonzero;stroke:none"
                     d="M 0,0 0.282,2.346 -14.459,5.604 0,0 z"
                     inkscape:connector-curvature="0" /></g></g></g></g><g
             id="g2934"><g
               id="g2936" /><g
               id="g2942"><g
                 id="g2944"
                 clip-path="url(#clipPath2938)"
                 style="opacity:0.39999396"><g
                   id="g2946"
                   transform="translate(325.0352,205.877)"><path
                     id="path2948"
                     style="fill:#000000;fill-opacity:1;fill-rule:nonzero;stroke:none"
                     d="M 0,0 -0.928,2.174 -15.323,-2.376 0,0 z"
                     inkscape:connector-curvature="0" /></g></g></g></g></g></g><g
         id="g2950"><g
           clip-path="url(#clipPath2954)"
           id="g2952"><g
             id="g2958"><g
               id="g2960" /><g
               id="g2966"><g
                 id="g2968"
                 clip-path="url(#clipPath2962)"
                 style="opacity:0.39999396"><g
                   id="g2970"
                   transform="translate(317.3662,205.9199)"><path
                     id="path2972"
                     style="fill:#000000;fill-opacity:1;fill-rule:nonzero;stroke:none"
                     d="M 0,0 C 1.35,-1.979 2.65,-7.368 2.38,-10.627 4.36,-8.107 6.183,-0.731 3.91,2.495 2.076,5.099 0.279,6.794 -3.256,7.515 -6.779,8.233 -9.795,7.702 -12.118,6.391 -3.755,4.965 -1.621,2.431 0,0"
                     inkscape:connector-curvature="0" /></g></g></g></g><g
             id="g2974"><g
               id="g2976" /><g
               id="g2982"><g
                 id="g2984"
                 clip-path="url(#clipPath2978)"
                 style="opacity:0.80000299"><g
                   id="g2986"
                   transform="translate(305.2998,211.833)"><path
                     id="path2988"
                     style="fill:#ffffff;fill-opacity:1;fill-rule:nonzero;stroke:none"
                     d="m 0,0 c -2.989,-2.863 -3.664,-3.391 -3.415,-6.431 0.269,-3.282 3.398,-6.199 5.972,-6.413 3.001,-0.215 8.209,4.184 7.747,7.113 C 9.749,-2.196 8.183,-0.755 5.527,0.17 4.819,0.417 1.221,1.168 0,0"
                     inkscape:connector-curvature="0" /></g></g></g></g><g
             transform="translate(288.3828,211.0557)"
             id="g2990"><path
               id="path2992"
               style="fill:#1e1007;fill-opacity:1;fill-rule:nonzero;stroke:none"
               d="M 0,0 C -2.073,0.369 -5.553,0.14 -7.451,-1.175 -9.788,-2.927 -9.085,-9.648 -7.014,-10.813 -2.461,-13.37 3.71,-11.995 3.209,-3.804 3.148,-2.822 1.749,-0.312 0,0"
               inkscape:connector-curvature="0" /></g><g
             transform="translate(307.5068,208.208)"
             id="g2994"><path
               id="path2996"
               style="fill:#1e1007;fill-opacity:1;fill-rule:nonzero;stroke:none"
               d="m 0,0 c -5.221,-3.27 -4.064,-10.046 1.086,-12.049 2.432,-1.001 6.723,-0.143 8.439,2.003 2.004,2.431 1.394,8.157 -0.714,9.583 C 6.361,1.194 2.73,1.709 0,0"
               inkscape:connector-curvature="0" /></g><g
             id="g2998"><g
               id="g3000" /><g
               id="g3006"><g
                 id="g3008"
                 clip-path="url(#clipPath3002)"
                 style="opacity:0.39999396"><g
                   id="g3010"
                   transform="translate(340.626,167.1855)"><path
                     id="path3012"
                     style="fill:#000000;fill-opacity:1;fill-rule:nonzero;stroke:none"
                     d="m 0,0 c -17.763,4.999 -19.305,-20.384 -24.164,-29.969 -0.945,-1.89 -1.891,-3.781 -2.836,-5.671 -1.08,-2.16 -0.944,-4.049 1.62,-2.16 0.945,-3.104 -3.239,-10.125 -4.454,-13.229 -1.755,-4.321 -5.266,-7.56 -7.155,-11.611 2.159,-0.404 4.455,2.026 6.344,2.836 1.621,-6.075 -2.429,-10.935 -5.264,-15.93 2.97,0.81 5.67,3.375 8.909,3.78 0.271,-0.811 0.136,-1.891 0.405,-2.835 0.811,-2.565 3.375,-2.565 5.535,-0.81 2.161,1.62 2.161,2.295 4.861,0.405 3.24,-2.43 5.399,-3.645 9.179,-0.946 1.081,0.946 0.675,1.486 2.295,1.62 0.811,0 1.891,-0.674 2.566,-0.944 2.43,-0.809 4.859,-1.35 7.425,-1.35 2.565,0 6.479,-0.406 7.559,2.294 0.405,0.946 -0.135,2.296 0.136,3.375 0.81,3.511 1.755,-0.134 3.78,-0.269 2.834,-0.135 0,5.939 1.619,7.695 1.215,1.351 3.375,0.135 4.185,2.565 0.27,0.675 -0.27,2.161 0.136,2.7 0.674,0.945 1.62,0.269 2.429,0.675 2.701,1.35 0.135,8.235 -0.134,10.8 -0.406,3.375 -3.915,7.02 -1.89,10.125 1.35,1.89 1.89,1.89 0.675,4.455 -1.216,2.295 -1.35,2.43 -0.27,4.456 3.509,6.343 -3.646,13.904 -8.235,18.089 0.675,0.54 1.485,0.81 2.16,1.08 -2.16,4.185 -8.756,6.513 -12.96,8.099 C 3.401,-0.276 1.085,-0.304 0,0"
                     inkscape:connector-curvature="0" /></g></g></g></g><g
             transform="translate(344.9463,170.6963)"
             id="g3014"><path
               id="path3016"
               style="fill:#704a28;fill-opacity:1;fill-rule:nonzero;stroke:none"
               d="m 0,0 c -17.764,4.998 -19.305,-20.386 -24.165,-29.97 -0.944,-1.89 -1.89,-3.78 -2.835,-5.67 -1.079,-2.16 -0.945,-4.049 1.62,-2.16 0.945,-3.104 -3.24,-10.125 -4.455,-13.229 -1.755,-4.321 -5.266,-7.561 -7.154,-11.611 2.16,-0.405 4.455,2.025 6.344,2.835 1.62,-6.074 -2.43,-10.935 -5.264,-15.929 2.97,0.809 5.67,3.374 8.909,3.78 0.271,-0.811 0.136,-1.891 0.405,-2.836 0.811,-2.565 3.375,-2.565 5.535,-0.81 2.16,1.62 2.16,2.295 4.86,0.405 3.24,-2.43 5.4,-3.645 9.18,-0.945 1.081,0.945 0.675,1.485 2.294,1.62 0.811,0 1.891,-0.675 2.567,-0.945 2.43,-0.81 4.859,-1.349 7.425,-1.349 2.564,0 6.479,-0.406 7.559,2.294 0.405,0.945 -0.135,2.295 0.135,3.375 0.811,3.509 1.756,-0.134 3.78,-0.27 2.835,-0.135 0,5.94 1.62,7.695 1.215,1.35 3.375,0.134 4.186,2.566 0.269,0.675 -0.272,2.159 0.134,2.7 0.675,0.943 1.62,0.268 2.43,0.675 2.701,1.349 0.135,8.234 -0.135,10.8 -0.405,3.375 -3.914,7.018 -1.89,10.125 1.351,1.889 1.89,1.889 0.676,4.454 -1.215,2.296 -1.351,2.43 -0.271,4.455 3.51,6.345 -3.644,13.905 -8.235,18.091 0.675,0.54 1.485,0.809 2.16,1.079 -2.16,4.185 -8.756,6.513 -12.96,8.1 C 3.401,-0.277 1.085,-0.305 0,0"
               inkscape:connector-curvature="0" /></g><g
             transform="translate(345.0664,171.1299)"
             id="g3018"><path
               id="path3020"
               style="fill:#4c321b;fill-opacity:1;fill-rule:nonzero;stroke:none"
               d="m 0,0 c -15.102,3.778 -19.014,-13.291 -22.43,-24.244 -0.697,-2.238 -7.502,-14.492 -4.99,-15.183 0.94,-0.259 1.852,1.207 1.42,-1.365 -0.455,-2.713 -1.95,-5.307 -3.128,-7.766 -2.421,-5.053 -5.81,-9.347 -8.37,-14.288 -0.153,-0.296 0.033,-0.681 0.389,-0.677 2.241,0.027 3.745,1.179 5.595,2.377 0.847,-1.684 0.902,-3.412 0.164,-5.183 -0.466,-1.448 -1.075,-2.833 -1.825,-4.151 -0.977,-1.872 -2.175,-3.64 -3.243,-5.46 -0.189,-0.325 0.125,-0.796 0.508,-0.662 1.36,0.479 2.566,1.056 3.842,1.746 1.181,0.691 2.419,1.271 3.71,1.74 1.212,0.455 1.188,-2.203 1.254,-2.335 0.714,-1.414 1.99,-2.84 3.829,-2.156 1.073,0.398 1.471,0.514 2.414,1.255 3.626,2.851 5.328,-1.411 8.205,-1.953 3.822,-0.72 6.742,3.604 10.149,2.018 2.857,-1.329 12.865,-3.405 15.07,0.233 0.465,0.766 0.818,1.185 0.748,2.156 -0.295,1.129 0.007,2.129 0.909,3 0.695,-0.565 0.621,-0.571 1.369,-1.097 0.702,-0.495 2.166,-0.426 2.51,0.506 1.058,2.87 -1.611,6.863 2.973,7.902 1.93,0.439 1.865,4.742 3.078,4.778 4.635,0.138 1.723,8.503 1.249,10.789 -0.921,4.454 -3.758,7.796 -0.875,12.15 0.4,0.603 0.186,1.257 0.076,1.889 -0.408,2.351 -0.88,4.2 -0.26,6.685 0.707,2.83 0.193,5.163 -0.99,7.786 -0.79,1.75 -2.052,3.281 -3.246,4.768 -0.896,1.116 -5.222,4.072 -2.69,5.099 0.259,0.105 0.438,0.392 0.27,0.662 C 14.016,-3.097 6.355,-1.125 0,0 c -0.568,0.101 -0.811,-0.767 -0.24,-0.867 2.794,-0.495 5.293,-0.967 7.95,-2.022 1.894,-0.752 11.175,-4.65 7.197,-7.01 -0.242,-0.144 -0.305,-0.508 -0.091,-0.707 2.322,-2.153 4.453,-4.388 6.32,-6.956 1.061,-1.459 1.791,-3.066 2.37,-4.772 0.946,-2.785 -0.758,-4.632 -1.154,-7.152 -0.375,-2.39 2.387,-4.431 0.929,-6.632 -1.232,-1.862 -1.526,-2.775 -1.148,-4.969 0.381,-2.214 7.105,-16.671 1.177,-16.847 -1.023,-0.03 -1.197,-0.894 -1.339,-1.625 -0.556,-2.837 -2.404,-2.63 -4.049,-4.276 -1.983,-1.983 1.765,-9.126 -3.664,-5.945 -0.65,0.381 -0.949,0.063 -1.378,-0.383 -0.25,-0.261 -0.525,-1.451 -0.474,-1.295 -0.808,-2.475 -2.07,-5.265 -5.149,-5.361 -3.857,-0.121 -7.011,0.915 -10.65,1.928 -1.42,0.396 -2.288,0.581 -3.35,-0.554 -6.498,-6.953 -7.131,1.407 -11.832,1.407 -0.318,0 -0.703,-0.04 -0.966,-0.221 -2.437,-1.667 -6.663,-1.255 -7.146,1.99 -0.037,0.253 -0.336,0.362 -0.553,0.315 -1.964,-0.426 -3.524,-1.168 -5.283,-2.125 -4.011,-2.183 -1.012,1.17 0.126,3.144 1.986,3.45 2.804,6.895 2.066,10.817 -0.056,0.297 -0.422,0.395 -0.661,0.268 -1.066,-0.567 -2.056,-1.218 -3.071,-1.874 -4.012,-2.589 0.108,2.922 0.525,3.509 1.88,2.645 3.366,5.27 4.714,8.207 1.636,3.569 4.443,7.793 3.758,11.894 -0.048,0.291 -0.43,0.406 -0.662,0.269 -1.933,0.295 -2.032,1.282 -0.294,2.962 0.709,1.417 1.417,2.835 2.126,4.252 0.589,1.181 1.059,2.408 1.506,3.648 1.292,3.573 2.245,7.267 3.435,10.876 2.921,8.861 7.898,17.946 18.715,15.24 C 0.323,-1.009 0.563,-0.141 0,0"
               inkscape:connector-curvature="0" /></g><g
             id="g3022"><g
               id="g3024" /><g
               id="g3030"><g
                 id="g3032"
                 clip-path="url(#clipPath3026)"
                 style="opacity:0.19999701"><g
                   id="g3034"
                   transform="translate(344.9463,170.4268)"><path
                     id="path3036"
                     style="fill:#000000;fill-opacity:1;fill-rule:nonzero;stroke:none"
                     d="m 0,0 c -4.614,1.298 -7.864,0.546 -10.632,-1.446 2.667,-9.22 17.879,-24.339 23.053,-19.209 9.595,-4.59 -0.272,-51.03 0,-49.95 0.809,3.509 2.295,0.134 4.319,0 2.835,-0.136 -0.54,5.67 1.08,7.424 1.215,1.351 3.646,-0.135 4.454,2.296 0.272,0.675 -0.269,2.159 0.136,2.7 0.675,0.944 1.62,0.269 2.431,0.675 2.699,1.35 0.134,8.235 -0.136,10.8 -0.405,3.375 -3.915,7.019 -1.89,10.125 1.35,1.89 1.621,1.89 0.406,4.454 -1.216,2.296 -1.08,2.431 0,4.455 3.509,6.346 -3.916,13.905 -8.505,18.091 0.675,0.54 1.484,1.079 2.159,1.351 -2.159,4.183 -8.216,5.972 -12.42,7.558 C 3.401,-0.277 1.085,-0.306 0,0"
                     inkscape:connector-curvature="0" /></g></g></g></g><g
             transform="translate(321.2773,171.5518)"
             id="g3038"><path
               id="path3040"
               style="fill:#7a5536;fill-opacity:1;fill-rule:nonzero;stroke:none"
               d="M 0,0 C 0.719,1.44 2.519,2.159 2.7,3.779 1.439,4.5 -0.541,4.859 -1.981,4.5 -3.6,3.779 -4.32,1.8 -6.3,2.699 -6.841,1.44 -9.182,-0.54 -10.621,-0.721 c -2.34,-0.179 -2.52,1.261 -3.6,3.061 -2.34,-0.721 -3.15,-0.811 -5.31,-1.891 -1.619,-0.899 -1.89,-3.24 -3.51,-3.058 -1.259,0 -1.259,-0.451 -2.52,-1.891 -0.36,0.359 -0.9,0.72 -1.08,0.899 -1.259,-2.519 -1.799,0.181 -3.059,0.541 -1.441,0.539 -2.521,-0.36 -4.321,-0.541 -3.419,-0.179 -4.5,2.161 -6.479,4.321 -1.261,-5.04 -4.32,1.62 -5.761,3.239 -2.339,-3.959 -2.88,-1.8 -4.139,1.44 -1.981,-2.159 -1.8,2.431 -2.881,3.691 0,0 -3.699,2.493 -3.98,0.753 -1.025,-6.359 -3.269,-21.775 -1.955,-27.625 1.75,-7.778 5.243,-14.681 10.28,-19.465 8.748,-8.311 1.911,-26.713 6.78,-29.524 4.591,-2.651 16.606,-5.819 23.968,-5.819 0.051,2.011 -3.782,4.379 -2.873,6.349 0.54,-0.36 1.261,-0.36 1.621,-0.9 2.159,4.141 -1.8,9.721 0,13.681 0.389,0 0.761,-0.07 1.085,-0.196 -0.83,2.483 -2.452,6.331 -2.166,8.475 0.361,3.061 0.361,7.921 3.96,3.24 0.54,3.42 1.98,6.84 2.34,10.441 0.18,-0.181 0.721,-0.359 1.08,-0.541 2.52,2.7 1.981,6.66 1.62,9.901 0,0.899 -0.54,2.52 -0.36,3.24 0.54,1.62 1.081,0.719 1.62,1.44 0.54,0.359 0.901,0 1.8,1.079 0.361,0.721 0,1.981 0.54,2.7 1.44,1.981 3.239,0.721 4.5,2.88 0.9,1.62 0.9,3.96 1.44,5.58 0.541,1.62 0.9,3.78 1.981,5.221"
               inkscape:connector-curvature="0" /></g></g></g><g
         id="g3042"><g
           clip-path="url(#clipPath3046)"
           id="g3044"><g
             transform="translate(383,186.1162)"
             id="g3050"><path
               id="path3052"
               style="fill:none;stroke:#ffffff;stroke-width:5;stroke-linecap:butt;stroke-linejoin:miter;stroke-miterlimit:10;stroke-opacity:1;stroke-dasharray:none"
               d="m 0,0 c 0,-42.802 -34.698,-77.5 -77.5,-77.5 -42.802,0 -77.5,34.698 -77.5,77.5 0,42.802 34.698,77.499 77.5,77.499 C -34.698,77.499 0,42.802 0,0 z"
               inkscape:connector-curvature="0" /></g></g></g></g></g></svg>