<?xml version="1.0" encoding="UTF-8" standalone="no"?>
<!-- Created with Inkscape (http://www.inkscape.org/) -->

<svg
   xmlns:dc="http://purl.org/dc/elements/1.1/"
   xmlns:cc="http://creativecommons.org/ns#"
   xmlns:rdf="http://www.w3.org/1999/02/22-rdf-syntax-ns#"
   xmlns:svg="http://www.w3.org/2000/svg"
   xmlns="http://www.w3.org/2000/svg"
   xmlns:sodipodi="http://sodipodi.sourceforge.net/DTD/sodipodi-0.dtd"
   xmlns:inkscape="http://www.inkscape.org/namespaces/inkscape"
   id="svg2"
   version="1.1"
   inkscape:version="0.48.2 r9819"
   width="200"
   height="200"
   xml:space="preserve"
   sodipodi:docname="animaleagle.svg"><metadata
     id="metadata8"><rdf:RDF><cc:Work
         rdf:about=""><dc:format>image/svg+xml</dc:format><dc:type
           rdf:resource="http://purl.org/dc/dcmitype/StillImage" /><dc:title></dc:title></cc:Work></rdf:RDF></metadata><defs
     id="defs6"><clipPath
       clipPathUnits="userSpaceOnUse"
       id="clipPath18"><path
         d="m 48,183.883 c 0,-42.802 34.698,-77.5 77.5,-77.5 l 0,0 c 42.802,0 77.5,34.698 77.5,77.5 l 0,0 c 0,42.802 -34.698,77.499 -77.5,77.499 l 0,0 C 82.698,261.382 48,226.685 48,183.883"
         id="path20"
         inkscape:connector-curvature="0" /></clipPath><clipPath
       clipPathUnits="userSpaceOnUse"
       id="clipPath76"><path
         d="m 28.3701,320.655 214.7989,0 0,-220.57 -214.7989,0 0,220.57 z"
         id="path78"
         inkscape:connector-curvature="0" /></clipPath><clipPath
       clipPathUnits="userSpaceOnUse"
       id="clipPath100"><path
         d="m 165.654,273.372 11.322,0 0,-45.72 -11.322,0 0,45.72 z"
         id="path102"
         inkscape:connector-curvature="0" /></clipPath><clipPath
       clipPathUnits="userSpaceOnUse"
       id="clipPath116"><path
         d="m 128.183,211.311 12.616,0 0,-11.865 -12.616,0 0,11.865 z"
         id="path118"
         inkscape:connector-curvature="0" /></clipPath><clipPath
       clipPathUnits="userSpaceOnUse"
       id="clipPath132"><path
         d="m 196.509,246.27 27.854,0 0,-23.43 -27.854,0 0,23.43 z"
         id="path134"
         inkscape:connector-curvature="0" /></clipPath><clipPath
       clipPathUnits="userSpaceOnUse"
       id="clipPath148"><path
         d="m 179.223,311.43 55.845,0 0,-81.438 -55.845,0 0,81.438 z"
         id="path150"
         inkscape:connector-curvature="0" /></clipPath><clipPath
       clipPathUnits="userSpaceOnUse"
       id="clipPath164"><path
         d="m 126.612,213.026 11.425,0 0,-11.377 -11.425,0 0,11.377 z"
         id="path166"
         inkscape:connector-curvature="0" /></clipPath><clipPath
       clipPathUnits="userSpaceOnUse"
       id="clipPath180"><path
         d="m 175.549,246.27 48.814,0 0,-20.403 -48.814,0 0,20.403 z"
         id="path182"
         inkscape:connector-curvature="0" /></clipPath><clipPath
       clipPathUnits="userSpaceOnUse"
       id="clipPath196"><path
         d="m 153.378,258.93 10.828,0 0,-34.765 -10.828,0 0,34.765 z"
         id="path198"
         inkscape:connector-curvature="0" /></clipPath><clipPath
       clipPathUnits="userSpaceOnUse"
       id="clipPath212"><path
         d="m 198.586,300.19 2.372,0 0,-6.69 -2.372,0 0,6.69 z"
         id="path214"
         inkscape:connector-curvature="0" /></clipPath><clipPath
       clipPathUnits="userSpaceOnUse"
       id="clipPath228"><path
         d="m 195.058,287.521 1.251,0 0,-4.43 -1.251,0 0,4.43 z"
         id="path230"
         inkscape:connector-curvature="0" /></clipPath><clipPath
       clipPathUnits="userSpaceOnUse"
       id="clipPath244"><path
         d="m 165.654,311.43 52.038,0 0,-83.778 -52.038,0 0,83.778 z"
         id="path246"
         inkscape:connector-curvature="0" /></clipPath><clipPath
       clipPathUnits="userSpaceOnUse"
       id="clipPath268"><path
         d="m 107.457,216.128 11.498,0 0,-12.869 -11.498,0 0,12.869 z"
         id="path270"
         inkscape:connector-curvature="0" /></clipPath><clipPath
       clipPathUnits="userSpaceOnUse"
       id="clipPath284"><path
         d="m 75.9043,281.379 8.3789,0 0,-46.284 -8.3789,0 0,46.284 z"
         id="path286"
         inkscape:connector-curvature="0" /></clipPath><clipPath
       clipPathUnits="userSpaceOnUse"
       id="clipPath300"><path
         d="m 27.6875,259.947 25.1895,0 0,-26.276 -25.1895,0 0,26.276 z"
         id="path302"
         inkscape:connector-curvature="0" /></clipPath><clipPath
       clipPathUnits="userSpaceOnUse"
       id="clipPath316"><path
         d="m 110.289,217.567 10.443,0 0,-12.421 -10.443,0 0,12.421 z"
         id="path318"
         inkscape:connector-curvature="0" /></clipPath><clipPath
       clipPathUnits="userSpaceOnUse"
       id="clipPath332"><path
         d="m 87.2285,264.234 8.751,0 0,-35.565 -8.751,0 0,35.565 z"
         id="path334"
         inkscape:connector-curvature="0" /></clipPath><clipPath
       clipPathUnits="userSpaceOnUse"
       id="clipPath348"><path
         d="m 20.2695,322.262 50.21,0 0,-84.071 -50.21,0 0,84.071 z"
         id="path350"
         inkscape:connector-curvature="0" /></clipPath><clipPath
       clipPathUnits="userSpaceOnUse"
       id="clipPath364"><path
         d="m 38.1172,322.275 45.5547,0 0,-87.848 -45.5547,0 0,87.848 z"
         id="path366"
         inkscape:connector-curvature="0" /></clipPath><clipPath
       clipPathUnits="userSpaceOnUse"
       id="clipPath380"><path
         d="m 27.6875,259.947 46.3525,0 0,-25.508 -46.3525,0 0,25.508 z"
         id="path382"
         inkscape:connector-curvature="0" /></clipPath><clipPath
       clipPathUnits="userSpaceOnUse"
       id="clipPath512"><path
         d="M 0,768 1024,768 1024,0 0,0 0,768 z"
         id="path514"
         inkscape:connector-curvature="0" /></clipPath><clipPath
       clipPathUnits="userSpaceOnUse"
       id="clipPath524"><path
         d="m 48,361.117 c 0,-42.801 34.698,-77.5 77.5,-77.5 l 0,0 c 42.802,0 77.5,34.699 77.5,77.5 l 0,0 c 0,42.802 -34.698,77.5 -77.5,77.5 l 0,0 c -42.802,0 -77.5,-34.698 -77.5,-77.5"
         id="path526"
         inkscape:connector-curvature="0" /></clipPath><clipPath
       clipPathUnits="userSpaceOnUse"
       id="clipPath582"><path
         d="m 83.4062,417.107 107.1498,0 0,-188.795 -107.1498,0 0,188.795 z"
         id="path584"
         inkscape:connector-curvature="0" /></clipPath><clipPath
       clipPathUnits="userSpaceOnUse"
       id="clipPath610"><path
         d="m 84.9932,382.28 34.2428,0 0,-99.798 -34.2428,0 0,99.798 z"
         id="path612"
         inkscape:connector-curvature="0" /></clipPath><clipPath
       clipPathUnits="userSpaceOnUse"
       id="clipPath698"><path
         d="m 136.179,348.39 27.69,0 0,-65.261 -27.69,0 0,65.261 z"
         id="path700"
         inkscape:connector-curvature="0" /></clipPath><clipPath
       clipPathUnits="userSpaceOnUse"
       id="clipPath734"><path
         d="M 0,768 1024,768 1024,0 0,0 0,768 z"
         id="path736"
         inkscape:connector-curvature="0" /></clipPath><clipPath
       clipPathUnits="userSpaceOnUse"
       id="clipPath746"><path
         d="m 48,533.883 c 0,-42.802 34.698,-77.5 77.5,-77.5 l 0,0 c 42.802,0 77.5,34.698 77.5,77.5 l 0,0 c 0,42.802 -34.698,77.5 -77.5,77.5 l 0,0 c -42.802,0 -77.5,-34.698 -77.5,-77.5"
         id="path748"
         inkscape:connector-curvature="0" /></clipPath><clipPath
       clipPathUnits="userSpaceOnUse"
       id="clipPath804"><path
         d="m 70.0752,597.154 140.1478,0 0,-172.125 -140.1478,0 0,172.125 z"
         id="path806"
         inkscape:connector-curvature="0" /></clipPath><clipPath
       clipPathUnits="userSpaceOnUse"
       id="clipPath828"><path
         d="m 72.2432,516.053 121.3948,0 0,-80.86 -121.3948,0 0,80.86 z"
         id="path830"
         inkscape:connector-curvature="0" /></clipPath><clipPath
       clipPathUnits="userSpaceOnUse"
       id="clipPath868"><path
         d="m 98,566.655 10.04,0 0,-10.399 -10.04,0 0,10.399 z"
         id="path870"
         inkscape:connector-curvature="0" /></clipPath><clipPath
       clipPathUnits="userSpaceOnUse"
       id="clipPath884"><path
         d="m 116.188,564.133 19.527,0 0,-12.705 -19.527,0 0,12.705 z"
         id="path886"
         inkscape:connector-curvature="0" /></clipPath><clipPath
       clipPathUnits="userSpaceOnUse"
       id="clipPath908"><path
         d="m 107.135,573.487 49.874,0 0,-41.003 -49.874,0 0,41.003 z"
         id="path910"
         inkscape:connector-curvature="0" /></clipPath><clipPath
       clipPathUnits="userSpaceOnUse"
       id="clipPath940"><path
         d="m 117.255,561.123 9.391,0 0,-8.776 -9.391,0 0,8.776 z"
         id="path942"
         inkscape:connector-curvature="0" /></clipPath><clipPath
       clipPathUnits="userSpaceOnUse"
       id="clipPath964"><path
         d="m 117.456,560.869 8.443,0 0,-7.236 -8.443,0 0,7.236 z"
         id="path966"
         inkscape:connector-curvature="0" /></clipPath><clipPath
       clipPathUnits="userSpaceOnUse"
       id="clipPath980"><path
         d="m 117.002,560.869 6.503,0 0,-6.584 -6.503,0 0,6.584 z"
         id="path982"
         inkscape:connector-curvature="0" /></clipPath><clipPath
       clipPathUnits="userSpaceOnUse"
       id="clipPath996"><path
         d="m 97.1562,564.531 7.1068,0 0,-7.397 -7.1068,0 0,7.397 z"
         id="path998"
         inkscape:connector-curvature="0" /></clipPath><clipPath
       clipPathUnits="userSpaceOnUse"
       id="clipPath1020"><path
         d="m 97.7725,564.531 6.0075,0 0,-6.753 -6.0075,0 0,6.753 z"
         id="path1022"
         inkscape:connector-curvature="0" /></clipPath><clipPath
       clipPathUnits="userSpaceOnUse"
       id="clipPath1036"><path
         d="m 97.1562,564.531 4.6348,0 0,-6.592 -4.6348,0 0,6.592 z"
         id="path1038"
         inkscape:connector-curvature="0" /></clipPath><clipPath
       clipPathUnits="userSpaceOnUse"
       id="clipPath1144"><path
         d="m 112.72,573.875 38.467,0 0,-10.892 -38.467,0 0,10.892 z"
         id="path1146"
         inkscape:connector-curvature="0" /></clipPath><clipPath
       clipPathUnits="userSpaceOnUse"
       id="clipPath1164"><path
         d="m 115.91,593.83 37.215,0 0,-25.138 -37.215,0 0,25.138 z"
         id="path1166"
         inkscape:connector-curvature="0" /></clipPath><clipPath
       clipPathUnits="userSpaceOnUse"
       id="clipPath1188"><path
         d="m 114.113,596.642 43.988,0 0,-29.566 -43.988,0 0,29.566 z"
         id="path1190"
         inkscape:connector-curvature="0" /></clipPath><clipPath
       clipPathUnits="userSpaceOnUse"
       id="clipPath1204"><path
         d="m 111.065,596.661 43.954,0 0,-29.375 -43.954,0 0,29.375 z"
         id="path1206"
         inkscape:connector-curvature="0" /></clipPath><clipPath
       clipPathUnits="userSpaceOnUse"
       id="clipPath1228"><path
         d="m 129.643,574.128 5.688,0 0,-7.623 -5.688,0 0,7.623 z"
         id="path1230"
         inkscape:connector-curvature="0" /></clipPath><clipPath
       clipPathUnits="userSpaceOnUse"
       id="clipPath1244"><path
         d="m 130.658,573.875 5.689,0 0,-7.624 -5.689,0 0,7.624 z"
         id="path1246"
         inkscape:connector-curvature="0" /></clipPath><clipPath
       clipPathUnits="userSpaceOnUse"
       id="clipPath1264"><path
         d="m 131.537,574.128 4.302,0 0,-7.265 -4.302,0 0,7.265 z"
         id="path1266"
         inkscape:connector-curvature="0" /></clipPath><clipPath
       clipPathUnits="userSpaceOnUse"
       id="clipPath1280"><path
         d="m 130.15,574.128 3.803,0 0,-7.084 -3.803,0 0,7.084 z"
         id="path1282"
         inkscape:connector-curvature="0" /></clipPath><clipPath
       clipPathUnits="userSpaceOnUse"
       id="clipPath1300"><path
         d="m 132.084,572.698 2.687,0 0,-4.539 -2.687,0 0,4.539 z"
         id="path1302"
         inkscape:connector-curvature="0" /></clipPath><clipPath
       clipPathUnits="userSpaceOnUse"
       id="clipPath1316"><path
         d="m 131.218,572.698 2.476,0 0,-4.763 -2.476,0 0,4.763 z"
         id="path1318"
         inkscape:connector-curvature="0" /></clipPath><clipPath
       clipPathUnits="userSpaceOnUse"
       id="clipPath1332"><path
         d="m 140.12,574.02 5.25,0 0,-6.573 -5.25,0 0,6.573 z"
         id="path1334"
         inkscape:connector-curvature="0" /></clipPath><clipPath
       clipPathUnits="userSpaceOnUse"
       id="clipPath1348"><path
         d="m 141.136,573.766 5.25,0 0,-6.573 -5.25,0 0,6.573 z"
         id="path1350"
         inkscape:connector-curvature="0" /></clipPath><clipPath
       clipPathUnits="userSpaceOnUse"
       id="clipPath1368"><path
         d="m 141.888,574.02 3.992,0 0,-6.05 -3.992,0 0,6.05 z"
         id="path1370"
         inkscape:connector-curvature="0" /></clipPath><clipPath
       clipPathUnits="userSpaceOnUse"
       id="clipPath1384"><path
         d="m 140.628,574.02 3.685,0 0,-6.573 -3.685,0 0,6.573 z"
         id="path1386"
         inkscape:connector-curvature="0" /></clipPath><clipPath
       clipPathUnits="userSpaceOnUse"
       id="clipPath1404"><path
         d="m 142.474,572.774 2.302,0 0,-3.889 -2.302,0 0,3.889 z"
         id="path1406"
         inkscape:connector-curvature="0" /></clipPath><clipPath
       clipPathUnits="userSpaceOnUse"
       id="clipPath1420"><path
         d="m 141.73,572.774 2.124,0 0,-4.081 -2.124,0 0,4.081 z"
         id="path1422"
         inkscape:connector-curvature="0" /></clipPath><clipPath
       clipPathUnits="userSpaceOnUse"
       id="clipPath1436"><path
         d="m 149.369,575.589 3.356,0 0,-5.878 -3.356,0 0,5.878 z"
         id="path1438"
         inkscape:connector-curvature="0" /></clipPath><clipPath
       clipPathUnits="userSpaceOnUse"
       id="clipPath1452"><path
         d="m 150.385,575.335 2.768,0 0,-5.792 -2.768,0 0,5.792 z"
         id="path1454"
         inkscape:connector-curvature="0" /></clipPath><clipPath
       clipPathUnits="userSpaceOnUse"
       id="clipPath1472"><path
         d="m 150.752,575.589 2.48,0 0,-5.58 -2.48,0 0,5.58 z"
         id="path1474"
         inkscape:connector-curvature="0" /></clipPath><clipPath
       clipPathUnits="userSpaceOnUse"
       id="clipPath1488"><path
         d="m 149.876,575.589 2.316,0 0,-5.878 -2.316,0 0,5.878 z"
         id="path1490"
         inkscape:connector-curvature="0" /></clipPath><clipPath
       clipPathUnits="userSpaceOnUse"
       id="clipPath1508"><path
         d="m 150.993,574.426 1.705,0 0,-3.397 -1.705,0 0,3.397 z"
         id="path1510"
         inkscape:connector-curvature="0" /></clipPath><clipPath
       clipPathUnits="userSpaceOnUse"
       id="clipPath1524"><path
         d="m 150.415,574.426 1.564,0 0,-3.553 -1.564,0 0,3.553 z"
         id="path1526"
         inkscape:connector-curvature="0" /></clipPath><clipPath
       clipPathUnits="userSpaceOnUse"
       id="clipPath1540"><path
         d="m 119.9,576 5.254,0 0,-7.104 -5.254,0 0,7.104 z"
         id="path1542"
         inkscape:connector-curvature="0" /></clipPath><clipPath
       clipPathUnits="userSpaceOnUse"
       id="clipPath1556"><path
         d="m 120.91,575.39 5.271,0 0,-6.748 -5.271,0 0,6.748 z"
         id="path1558"
         inkscape:connector-curvature="0" /></clipPath><clipPath
       clipPathUnits="userSpaceOnUse"
       id="clipPath1576"><path
         d="m 121.69,575.644 3.983,0 0,-6.435 -3.983,0 0,6.435 z"
         id="path1578"
         inkscape:connector-curvature="0" /></clipPath><clipPath
       clipPathUnits="userSpaceOnUse"
       id="clipPath1592"><path
         d="m 120.423,575.579 2.282,0 0,-6.09 -2.282,0 0,6.09 z"
         id="path1594"
         inkscape:connector-curvature="0" /></clipPath><clipPath
       clipPathUnits="userSpaceOnUse"
       id="clipPath1612"><path
         d="m 122.217,574.705 2.396,0 0,-4.601 -2.396,0 0,4.601 z"
         id="path1614"
         inkscape:connector-curvature="0" /></clipPath><clipPath
       clipPathUnits="userSpaceOnUse"
       id="clipPath1628"><path
         d="m 121.06,574.705 2.689,0 0,-4.731 -2.689,0 0,4.731 z"
         id="path1630"
         inkscape:connector-curvature="0" /></clipPath><clipPath
       clipPathUnits="userSpaceOnUse"
       id="clipPath1644"><path
         d="m 112.821,578.751 3.345,0 0,-5.879 -3.345,0 0,5.879 z"
         id="path1646"
         inkscape:connector-curvature="0" /></clipPath><clipPath
       clipPathUnits="userSpaceOnUse"
       id="clipPath1660"><path
         d="m 113.766,578.497 3.416,0 0,-5.878 -3.416,0 0,5.878 z"
         id="path1662"
         inkscape:connector-curvature="0" /></clipPath><clipPath
       clipPathUnits="userSpaceOnUse"
       id="clipPath1680"><path
         d="m 114.145,578.751 2.529,0 0,-5.582 -2.529,0 0,5.582 z"
         id="path1682"
         inkscape:connector-curvature="0" /></clipPath><clipPath
       clipPathUnits="userSpaceOnUse"
       id="clipPath1696"><path
         d="m 113.257,578.751 2.354,0 0,-5.581 -2.354,0 0,5.581 z"
         id="path1698"
         inkscape:connector-curvature="0" /></clipPath><clipPath
       clipPathUnits="userSpaceOnUse"
       id="clipPath1716"><path
         d="m 114.337,577.928 1.712,0 0,-3.949 -1.712,0 0,3.949 z"
         id="path1718"
         inkscape:connector-curvature="0" /></clipPath><clipPath
       clipPathUnits="userSpaceOnUse"
       id="clipPath1732"><path
         d="m 113.511,577.928 1.92,0 0,-4.06 -1.92,0 0,4.06 z"
         id="path1734"
         inkscape:connector-curvature="0" /></clipPath><clipPath
       clipPathUnits="userSpaceOnUse"
       id="clipPath1748"><path
         d="M 0,768 1024,768 1024,0 0,0 0,768 z"
         id="path1750"
         inkscape:connector-curvature="0" /></clipPath><clipPath
       clipPathUnits="userSpaceOnUse"
       id="clipPath1760"><path
         d="m 228,536.117 c 0,-42.802 34.698,-77.5 77.5,-77.5 l 0,0 c 42.802,0 77.5,34.698 77.5,77.5 l 0,0 c 0,42.802 -34.698,77.5 -77.5,77.5 l 0,0 c -42.802,0 -77.5,-34.698 -77.5,-77.5"
         id="path1762"
         inkscape:connector-curvature="0" /></clipPath><clipPath
       clipPathUnits="userSpaceOnUse"
       id="clipPath1834"><path
         d="m 319.266,624.217 53.897,0 0,-74.711 -53.897,0 0,74.711 z"
         id="path1836"
         inkscape:connector-curvature="0" /></clipPath><clipPath
       clipPathUnits="userSpaceOnUse"
       id="clipPath1850"><path
         d="m 270.849,584.472 152.916,0 0,-178.278 -152.916,0 0,178.278 z"
         id="path1852"
         inkscape:connector-curvature="0" /></clipPath><clipPath
       clipPathUnits="userSpaceOnUse"
       id="clipPath2054"><path
         d="M 0,768 1024,768 1024,0 0,0 0,768 z"
         id="path2056"
         inkscape:connector-curvature="0" /></clipPath><clipPath
       clipPathUnits="userSpaceOnUse"
       id="clipPath2066"><path
         d="m 228,361.117 c 0,-42.801 34.698,-77.5 77.5,-77.5 l 0,0 c 42.802,0 77.5,34.699 77.5,77.5 l 0,0 c 0,42.802 -34.698,77.5 -77.5,77.5 l 0,0 c -42.802,0 -77.5,-34.698 -77.5,-77.5"
         id="path2068"
         inkscape:connector-curvature="0" /></clipPath><clipPath
       clipPathUnits="userSpaceOnUse"
       id="clipPath2124"><path
         d="m 254.025,411.491 171,0 0,-170.562 -171,0 0,170.562 z"
         id="path2126"
         inkscape:connector-curvature="0" /></clipPath><clipPath
       clipPathUnits="userSpaceOnUse"
       id="clipPath2148"><path
         d="m 338.895,334.943 69.931,0 0,-80.858 -69.931,0 0,80.858 z"
         id="path2150"
         inkscape:connector-curvature="0" /></clipPath><clipPath
       clipPathUnits="userSpaceOnUse"
       id="clipPath2208"><path
         d="m 269.726,385.375 45.75,0 0,-129.289 -45.75,0 0,129.289 z"
         id="path2210"
         inkscape:connector-curvature="0" /></clipPath><clipPath
       clipPathUnits="userSpaceOnUse"
       id="clipPath2248"><path
         d="m 286.077,395.068 15.482,0 0,-10.204 -15.482,0 0,10.204 z"
         id="path2250"
         inkscape:connector-curvature="0" /></clipPath><clipPath
       clipPathUnits="userSpaceOnUse"
       id="clipPath2288"><path
         d="M 0,768 1024,768 1024,0 0,0 0,768 z"
         id="path2290"
         inkscape:connector-curvature="0" /></clipPath><clipPath
       clipPathUnits="userSpaceOnUse"
       id="clipPath2300"><path
         d="m 228,186.116 c 0,-42.802 34.698,-77.499 77.5,-77.499 l 0,0 c 42.802,0 77.5,34.697 77.5,77.499 l 0,0 c 0,42.802 -34.698,77.499 -77.5,77.499 l 0,0 c -42.802,0 -77.5,-34.697 -77.5,-77.499"
         id="path2302"
         inkscape:connector-curvature="0" /></clipPath><clipPath
       clipPathUnits="userSpaceOnUse"
       id="clipPath2358"><path
         d="m 258.341,233.648 142.781,0 0,-148.6353 -142.781,0 0,148.6353 z"
         id="path2360"
         inkscape:connector-curvature="0" /></clipPath><clipPath
       clipPathUnits="userSpaceOnUse"
       id="clipPath2382"><path
         d="m 258.42,173.87 34.287,0 0,-76.0057 -34.287,0 0,76.0057 z"
         id="path2384"
         inkscape:connector-curvature="0" /></clipPath><clipPath
       clipPathUnits="userSpaceOnUse"
       id="clipPath2406"><path
         d="m 257.662,238.148 134.46,0 0,-140.8531 -134.46,0 0,140.8531 z"
         id="path2408"
         inkscape:connector-curvature="0" /></clipPath><clipPath
       clipPathUnits="userSpaceOnUse"
       id="clipPath2422"><path
         d="m 267.864,236.151 124.003,0 0,-136.8453 -124.003,0 0,136.8453 z"
         id="path2424"
         inkscape:connector-curvature="0" /></clipPath><clipPath
       clipPathUnits="userSpaceOnUse"
       id="clipPath2438"><path
         d="m 267.441,220.876 66.413,0 0,-48.466 -66.413,0 0,48.466 z"
         id="path2440"
         inkscape:connector-curvature="0" /></clipPath><clipPath
       clipPathUnits="userSpaceOnUse"
       id="clipPath2470"><path
         d="m 272.204,233.586 74.445,0 0,-41.978 -74.445,0 0,41.978 z"
         id="path2472"
         inkscape:connector-curvature="0" /></clipPath><clipPath
       clipPathUnits="userSpaceOnUse"
       id="clipPath2510"><path
         d="m 285.177,216.011 c -1.979,-0.063 -5.012,-1.992 -5.706,-3.06 l 0,0 c -2.453,-3.78 -3.27,-10.959 -1.664,-13.409 l 0,0 c 1.71,-2.61 5.661,-3.865 8.145,-3.705 l 0,0 c 5.563,0.36 7.515,3.795 8.055,9.015 l 0,0 c 0.27,2.519 0.787,7.2 -2.52,9.54 l 0,0 c -0.826,0.584 -3.228,1.624 -5.967,1.624 l 0,0 c -0.114,0 -0.228,-0.002 -0.343,-0.005"
         id="path2512"
         inkscape:connector-curvature="0" /></clipPath><clipPath
       clipPathUnits="userSpaceOnUse"
       id="clipPath2518"><path
         d="m 284.871,211.291 15.324,0 0,-4.549 -15.324,0 0,4.549 z"
         id="path2520"
         inkscape:connector-curvature="0" /></clipPath><clipPath
       clipPathUnits="userSpaceOnUse"
       id="clipPath2534"><path
         d="m 284.871,217.88 12.083,0 0,-11.138 -12.083,0 0,11.138 z"
         id="path2536"
         inkscape:connector-curvature="0" /></clipPath><clipPath
       clipPathUnits="userSpaceOnUse"
       id="clipPath2550"><path
         d="m 284.871,221.483 5.604,0 0,-14.741 -5.604,0 0,14.741 z"
         id="path2552"
         inkscape:connector-curvature="0" /></clipPath><clipPath
       clipPathUnits="userSpaceOnUse"
       id="clipPath2566"><path
         d="m 280.322,222.064 4.549,0 0,-15.322 -4.549,0 0,15.322 z"
         id="path2568"
         inkscape:connector-curvature="0" /></clipPath><clipPath
       clipPathUnits="userSpaceOnUse"
       id="clipPath2582"><path
         d="m 273.733,218.824 11.138,0 0,-12.082 -11.138,0 0,12.082 z"
         id="path2584"
         inkscape:connector-curvature="0" /></clipPath><clipPath
       clipPathUnits="userSpaceOnUse"
       id="clipPath2598"><path
         d="m 270.13,212.346 14.741,0 0,-5.604 -14.741,0 0,5.604 z"
         id="path2600"
         inkscape:connector-curvature="0" /></clipPath><clipPath
       clipPathUnits="userSpaceOnUse"
       id="clipPath2614"><path
         d="m 269.549,206.742 15.322,0 0,-4.551 -15.322,0 0,4.551 z"
         id="path2616"
         inkscape:connector-curvature="0" /></clipPath><clipPath
       clipPathUnits="userSpaceOnUse"
       id="clipPath2630"><path
         d="m 272.789,206.742 12.082,0 0,-11.138 -12.082,0 0,11.138 z"
         id="path2632"
         inkscape:connector-curvature="0" /></clipPath><clipPath
       clipPathUnits="userSpaceOnUse"
       id="clipPath2646"><path
         d="m 279.268,206.742 5.603,0 0,-14.742 -5.603,0 0,14.742 z"
         id="path2648"
         inkscape:connector-curvature="0" /></clipPath><clipPath
       clipPathUnits="userSpaceOnUse"
       id="clipPath2662"><path
         d="m 284.871,206.742 4.549,0 0,-15.325 -4.549,0 0,15.325 z"
         id="path2664"
         inkscape:connector-curvature="0" /></clipPath><clipPath
       clipPathUnits="userSpaceOnUse"
       id="clipPath2678"><path
         d="m 284.871,206.742 11.138,0 0,-12.083 -11.138,0 0,12.083 z"
         id="path2680"
         inkscape:connector-curvature="0" /></clipPath><clipPath
       clipPathUnits="userSpaceOnUse"
       id="clipPath2694"><path
         d="m 284.871,206.742 14.742,0 0,-5.605 -14.742,0 0,5.605 z"
         id="path2696"
         inkscape:connector-curvature="0" /></clipPath><clipPath
       clipPathUnits="userSpaceOnUse"
       id="clipPath2710"><path
         d="m 228,186.116 c 0,-42.802 34.698,-77.499 77.5,-77.499 l 0,0 c 42.802,0 77.5,34.697 77.5,77.499 l 0,0 c 0,42.802 -34.698,77.499 -77.5,77.499 l 0,0 c -42.802,0 -77.5,-34.697 -77.5,-77.499"
         id="path2712"
         inkscape:connector-curvature="0" /></clipPath><clipPath
       clipPathUnits="userSpaceOnUse"
       id="clipPath2718"><path
         d="m 279.471,216.017 14.737,0 0,-17.02 -14.737,0 0,17.02 z"
         id="path2720"
         inkscape:connector-curvature="0" /></clipPath><clipPath
       clipPathUnits="userSpaceOnUse"
       id="clipPath2734"><path
         d="m 278.073,214.99 12.69,0 0,-11.389 -12.69,0 0,11.389 z"
         id="path2736"
         inkscape:connector-curvature="0" /></clipPath><clipPath
       clipPathUnits="userSpaceOnUse"
       id="clipPath2754"><path
         d="m 300.307,205.661 c -0.72,-2.88 -0.269,-6.589 1.35,-9.017 l 0,0 c 1.35,-1.981 2.879,-2.485 5.131,-3.474 l 0,0 c 3.869,-1.8 10.169,-1.387 12.958,2.123 l 0,0 c 1.981,2.52 3.803,9.895 1.531,13.122 l 0,0 c -1.835,2.603 -3.632,4.299 -7.167,5.02 l 0,0 c -1.074,0.219 -2.101,0.322 -3.075,0.322 l 0,0 c -5.789,0 -9.727,-3.627 -10.728,-8.096"
         id="path2756"
         inkscape:connector-curvature="0" /></clipPath><clipPath
       clipPathUnits="userSpaceOnUse"
       id="clipPath2762"><path
         d="m 309.712,214.639 12.082,0 0,-11.138 -12.082,0 0,11.138 z"
         id="path2764"
         inkscape:connector-curvature="0" /></clipPath><clipPath
       clipPathUnits="userSpaceOnUse"
       id="clipPath2778"><path
         d="m 309.712,218.243 5.602,0 0,-14.742 -5.602,0 0,14.742 z"
         id="path2780"
         inkscape:connector-curvature="0" /></clipPath><clipPath
       clipPathUnits="userSpaceOnUse"
       id="clipPath2794"><path
         d="m 305.162,218.825 4.55,0 0,-15.324 -4.55,0 0,15.324 z"
         id="path2796"
         inkscape:connector-curvature="0" /></clipPath><clipPath
       clipPathUnits="userSpaceOnUse"
       id="clipPath2810"><path
         d="m 298.574,215.584 11.138,0 0,-12.083 -11.138,0 0,12.083 z"
         id="path2812"
         inkscape:connector-curvature="0" /></clipPath><clipPath
       clipPathUnits="userSpaceOnUse"
       id="clipPath2826"><path
         d="m 294.97,209.105 14.742,0 0,-5.604 -14.742,0 0,5.604 z"
         id="path2828"
         inkscape:connector-curvature="0" /></clipPath><clipPath
       clipPathUnits="userSpaceOnUse"
       id="clipPath2842"><path
         d="m 294.388,203.501 15.324,0 0,-4.548 -15.324,0 0,4.548 z"
         id="path2844"
         inkscape:connector-curvature="0" /></clipPath><clipPath
       clipPathUnits="userSpaceOnUse"
       id="clipPath2858"><path
         d="m 297.629,203.501 12.083,0 0,-11.137 -12.083,0 0,11.137 z"
         id="path2860"
         inkscape:connector-curvature="0" /></clipPath><clipPath
       clipPathUnits="userSpaceOnUse"
       id="clipPath2874"><path
         d="m 304.107,203.501 5.605,0 0,-14.741 -5.605,0 0,14.741 z"
         id="path2876"
         inkscape:connector-curvature="0" /></clipPath><clipPath
       clipPathUnits="userSpaceOnUse"
       id="clipPath2890"><path
         d="m 309.712,203.501 4.548,0 0,-15.323 -4.548,0 0,15.323 z"
         id="path2892"
         inkscape:connector-curvature="0" /></clipPath><clipPath
       clipPathUnits="userSpaceOnUse"
       id="clipPath2906"><path
         d="m 309.712,203.501 11.138,0 0,-12.082 -11.138,0 0,12.082 z"
         id="path2908"
         inkscape:connector-curvature="0" /></clipPath><clipPath
       clipPathUnits="userSpaceOnUse"
       id="clipPath2922"><path
         d="m 309.712,203.501 14.741,0 0,-5.604 -14.741,0 0,5.604 z"
         id="path2924"
         inkscape:connector-curvature="0" /></clipPath><clipPath
       clipPathUnits="userSpaceOnUse"
       id="clipPath2938"><path
         d="m 309.712,208.051 15.323,0 0,-4.55 -15.323,0 0,4.55 z"
         id="path2940"
         inkscape:connector-curvature="0" /></clipPath><clipPath
       clipPathUnits="userSpaceOnUse"
       id="clipPath2954"><path
         d="m 228,186.116 c 0,-42.802 34.698,-77.499 77.5,-77.499 l 0,0 c 42.802,0 77.5,34.697 77.5,77.499 l 0,0 c 0,42.802 -34.698,77.499 -77.5,77.499 l 0,0 c -42.802,0 -77.5,-34.697 -77.5,-77.499"
         id="path2956"
         inkscape:connector-curvature="0" /></clipPath><clipPath
       clipPathUnits="userSpaceOnUse"
       id="clipPath2962"><path
         d="m 305.248,213.757 17.082,0 0,-18.464 -17.082,0 0,18.464 z"
         id="path2964"
         inkscape:connector-curvature="0" /></clipPath><clipPath
       clipPathUnits="userSpaceOnUse"
       id="clipPath2978"><path
         d="m 301.837,212.469 13.795,0 0,-13.488 -13.795,0 0,13.488 z"
         id="path2980"
         inkscape:connector-curvature="0" /></clipPath><clipPath
       clipPathUnits="userSpaceOnUse"
       id="clipPath3002"><path
         d="m 303.637,167.831 63.325,0 0,-78.3183 -63.325,0 0,78.3183 z"
         id="path3004"
         inkscape:connector-curvature="0" /></clipPath><clipPath
       clipPathUnits="userSpaceOnUse"
       id="clipPath3026"><path
         d="m 334.314,171.071 36.698,0 0,-71.2683 -36.698,0 0,71.2683 z"
         id="path3028"
         inkscape:connector-curvature="0" /></clipPath><clipPath
       clipPathUnits="userSpaceOnUse"
       id="clipPath3046"><path
         d="M 0,768 1024,768 1024,0 0,0 0,768 z"
         id="path3048"
         inkscape:connector-curvature="0" /></clipPath><clipPath
       clipPathUnits="userSpaceOnUse"
       id="clipPath3058"><path
         d="m 408,536.117 c 0,-42.802 34.698,-77.5 77.5,-77.5 l 0,0 c 42.802,0 77.5,34.698 77.5,77.5 l 0,0 c 0,42.802 -34.698,77.5 -77.5,77.5 l 0,0 c -42.802,0 -77.5,-34.698 -77.5,-77.5"
         id="path3060"
         inkscape:connector-curvature="0" /></clipPath><clipPath
       clipPathUnits="userSpaceOnUse"
       id="clipPath3116"><path
         d="m 438.781,587.971 160.04,0 0,-138.661 -160.04,0 0,138.661 z"
         id="path3118"
         inkscape:connector-curvature="0" /></clipPath><clipPath
       clipPathUnits="userSpaceOnUse"
       id="clipPath3140"><path
         d="m 575.706,528.121 11.135,0 0,-49.987 -11.135,0 0,49.987 z"
         id="path3142"
         inkscape:connector-curvature="0" /></clipPath><clipPath
       clipPathUnits="userSpaceOnUse"
       id="clipPath3188"><path
         d="m 495.493,545.319 93.89,0 0,-39.655 -93.89,0 0,39.655 z"
         id="path3190"
         inkscape:connector-curvature="0" /></clipPath><clipPath
       clipPathUnits="userSpaceOnUse"
       id="clipPath3212"><path
         d="m 527.791,527.143 59.061,0 0,-39.016 -59.061,0 0,39.016 z"
         id="path3214"
         inkscape:connector-curvature="0" /></clipPath><clipPath
       clipPathUnits="userSpaceOnUse"
       id="clipPath3236"><path
         d="m 507.09,487.143 29.179,0 0,-36.931 -29.179,0 0,36.931 z"
         id="path3238"
         inkscape:connector-curvature="0" /></clipPath><clipPath
       clipPathUnits="userSpaceOnUse"
       id="clipPath3272"><path
         d="m 463.675,571.134 2.555,0 0,-4.029 -2.555,0 0,4.029 z"
         id="path3274"
         inkscape:connector-curvature="0" /></clipPath><clipPath
       clipPathUnits="userSpaceOnUse"
       id="clipPath3288"><path
         d="m 466.432,553.293 18.654,0 0,-90.323 -18.654,0 0,90.323 z"
         id="path3290"
         inkscape:connector-curvature="0" /></clipPath><clipPath
       clipPathUnits="userSpaceOnUse"
       id="clipPath3304"><path
         d="m 495.211,535.912 22.394,0 0,-21.68 -22.394,0 0,21.68 z"
         id="path3306"
         inkscape:connector-curvature="0" /></clipPath><clipPath
       clipPathUnits="userSpaceOnUse"
       id="clipPath3320"><path
         d="M 0,768 1024,768 1024,0 0,0 0,768 z"
         id="path3322"
         inkscape:connector-curvature="0" /></clipPath><clipPath
       clipPathUnits="userSpaceOnUse"
       id="clipPath3332"><path
         d="m 408.256,361.117 c 0,-42.801 34.698,-77.5 77.5,-77.5 l 0,0 c 42.801,0 77.5,34.699 77.5,77.5 l 0,0 c 0,42.802 -34.699,77.5 -77.5,77.5 l 0,0 c -42.802,0 -77.5,-34.698 -77.5,-77.5"
         id="path3334"
         inkscape:connector-curvature="0" /></clipPath><clipPath
       clipPathUnits="userSpaceOnUse"
       id="clipPath3390"><path
         d="m 460.505,414.483 179.594,0 0,-183.402 -179.594,0 0,183.402 z"
         id="path3392"
         inkscape:connector-curvature="0" /></clipPath><clipPath
       clipPathUnits="userSpaceOnUse"
       id="clipPath3462"><path
         d="m 462.712,400.909 3.423,0 0,-1.983 -3.423,0 0,1.983 z"
         id="path3464"
         inkscape:connector-curvature="0" /></clipPath><clipPath
       clipPathUnits="userSpaceOnUse"
       id="clipPath3486"><path
         d="m 482.274,388.666 23.055,0 0,-8.095 -23.055,0 0,8.095 z"
         id="path3488"
         inkscape:connector-curvature="0" /></clipPath><clipPath
       clipPathUnits="userSpaceOnUse"
       id="clipPath3506"><path
         d="m 490.869,389.44 13.788,0 0,-8.146 -13.788,0 0,8.146 z"
         id="path3508"
         inkscape:connector-curvature="0" /></clipPath><clipPath
       clipPathUnits="userSpaceOnUse"
       id="clipPath3522"><path
         d="m 525.493,299.603 97.907,0 0,-61.254 -97.907,0 0,61.254 z"
         id="path3524"
         inkscape:connector-curvature="0" /></clipPath><clipPath
       clipPathUnits="userSpaceOnUse"
       id="clipPath3546"><path
         d="m 489.459,322.129 139.97,0 0,-29.732 -139.97,0 0,29.732 z"
         id="path3548"
         inkscape:connector-curvature="0" /></clipPath><clipPath
       clipPathUnits="userSpaceOnUse"
       id="clipPath3570"><path
         d="M 0,768 1024,768 1024,0 0,0 0,768 z"
         id="path3572"
         inkscape:connector-curvature="0" /></clipPath></defs><sodipodi:namedview
     pagecolor="#ffffff"
     bordercolor="#666666"
     borderopacity="1"
     objecttolerance="10"
     gridtolerance="10"
     guidetolerance="10"
     inkscape:pageopacity="0"
     inkscape:pageshadow="2"
     inkscape:window-width="1600"
     inkscape:window-height="837"
     id="namedview4"
     showgrid="false"
     inkscape:zoom="0.675"
     inkscape:cx="462.96296"
     inkscape:cy="240.28777"
     inkscape:window-x="-8"
     inkscape:window-y="-8"
     inkscape:window-maximized="1"
     inkscape:current-layer="g10" /><g
     id="g10"
     inkscape:groupmode="layer"
     inkscape:label="tiericons_cs5"
     transform="matrix(1.25,0,0,-1.25,0,200)"><g
       id="g7008"
       transform="translate(-225.5,-456.1172)"><g
         id="g1756"><g
           clip-path="url(#clipPath1760)"
           id="g1758"><path
             id="path1764"
             style="fill:#acdef9;fill-opacity:1;fill-rule:nonzero;stroke:none"
             d="m 383.256,458.671 -155.906,0 0,155.906 155.906,0 0,-155.906 z"
             inkscape:connector-curvature="0" /><g
             transform="translate(305.4932,662.5479)"
             id="g1766"><path
               id="path1768"
               style="fill:#e4f9f7;fill-opacity:1;fill-rule:nonzero;stroke:none"
               d="M 0,0 0.007,-126.432 26.992,-4.848 0,0 z"
               inkscape:connector-curvature="0" /></g><g
             transform="translate(242.542,645.6055)"
             id="g1770"><path
               id="path1772"
               style="fill:#e4f9f7;fill-opacity:1;fill-rule:nonzero;stroke:none"
               d="M 0,0 62.958,-109.489 25.79,9.354 0,0 z"
               inkscape:connector-curvature="0" /></g><g
             transform="translate(196.4609,599.3252)"
             id="g1774"><path
               id="path1776"
               style="fill:#e4f9f7;fill-opacity:1;fill-rule:nonzero;stroke:none"
               d="M 0,0 109.039,-63.209 17.677,21.051 0,0 z"
               inkscape:connector-curvature="0" /></g><g
             transform="translate(179.5967,536.1084)"
             id="g1778"><path
               id="path1780"
               style="fill:#e4f9f7;fill-opacity:1;fill-rule:nonzero;stroke:none"
               d="M 0,0 125.903,0.008 4.827,27.105 0,0 z"
               inkscape:connector-curvature="0" /></g><g
             transform="translate(196.4688,472.8945)"
             id="g1782"><path
               id="path1784"
               style="fill:#e4f9f7;fill-opacity:1;fill-rule:nonzero;stroke:none"
               d="M 0,0 109.031,63.222 -9.316,25.897 0,0 z"
               inkscape:connector-curvature="0" /></g><g
             transform="translate(242.5547,426.6191)"
             id="g1786"><path
               id="path1788"
               style="fill:#e4f9f7;fill-opacity:1;fill-rule:nonzero;stroke:none"
               d="M 0,0 62.945,109.497 -20.962,17.752 0,0 z"
               inkscape:connector-curvature="0" /></g><g
             transform="translate(305.5078,409.6855)"
             id="g1790"><path
               id="path1792"
               style="fill:#e4f9f7;fill-opacity:1;fill-rule:nonzero;stroke:none"
               d="M 0,0 -0.008,126.431 -26.992,4.847 0,0 z"
               inkscape:connector-curvature="0" /></g><g
             transform="translate(368.458,426.627)"
             id="g1794"><path
               id="path1796"
               style="fill:#e4f9f7;fill-opacity:1;fill-rule:nonzero;stroke:none"
               d="M 0,0 -62.958,109.489 -25.789,-9.354 0,0 z"
               inkscape:connector-curvature="0" /></g><g
             transform="translate(414.54,472.9063)"
             id="g1798"><path
               id="path1800"
               style="fill:#e4f9f7;fill-opacity:1;fill-rule:nonzero;stroke:none"
               d="M 0,0 -109.04,63.21 -17.678,-21.05 0,0 z"
               inkscape:connector-curvature="0" /></g><g
             transform="translate(431.4033,536.123)"
             id="g1802"><path
               id="path1804"
               style="fill:#e4f9f7;fill-opacity:1;fill-rule:nonzero;stroke:none"
               d="M 0,0 -125.903,-0.007 -4.827,-27.105 0,0 z"
               inkscape:connector-curvature="0" /></g><g
             transform="translate(414.5322,599.3379)"
             id="g1806"><path
               id="path1808"
               style="fill:#e4f9f7;fill-opacity:1;fill-rule:nonzero;stroke:none"
               d="M 0,0 -109.032,-63.222 9.315,-25.897 0,0 z"
               inkscape:connector-curvature="0" /></g><g
             transform="translate(368.4453,645.6123)"
             id="g1810"><path
               id="path1812"
               style="fill:#e4f9f7;fill-opacity:1;fill-rule:nonzero;stroke:none"
               d="M 0,0 -62.945,-109.496 20.963,-17.751 0,0 z"
               inkscape:connector-curvature="0" /></g><g
             transform="translate(373.1631,586.8613)"
             id="g1814"><path
               id="path1816"
               style="fill:#d3cc9b;fill-opacity:1;fill-rule:nonzero;stroke:none"
               d="M 0,0 C 0,-20.633 -16.337,-37.355 -36.5,-37.355 -56.663,-37.355 -73,-20.633 -73,0 -73,20.633 -56.663,37.355 -36.5,37.355 -16.337,37.355 0,20.633 0,0"
               inkscape:connector-curvature="0" /></g><g
             transform="translate(354.4756,572.209)"
             id="g1818"><path
               id="path1820"
               style="fill:#b5ae83;fill-opacity:1;fill-rule:nonzero;stroke:none"
               d="m 0,0 c -2.041,1.218 -5.28,2.847 -7.321,3.249 -3.652,0.814 -5.282,-1.217 -8.522,-1.217 -3.257,0.403 -4.062,2.031 -8.127,1.629 -3.256,-0.412 -5.297,-2.846 -8.125,0.402 2.023,-7.723 12.995,-6.909 15.43,-14.221 0,0.402 1.217,1.63 1.629,2.032 0.412,-1.63 2.022,-3.249 2.022,-4.878 4.064,0.815 2.041,4.064 4.064,6.095 2.452,2.031 5.692,0.814 7.733,4.063 L 0,0 z"
               inkscape:connector-curvature="0" /></g><g
             transform="translate(365.2568,610.0732)"
             id="g1822"><path
               id="path1824"
               style="fill:#b5ae83;fill-opacity:1;fill-rule:nonzero;stroke:none"
               d="m 0,0 c -3.864,-1.006 -7.968,-2.507 -11.605,-1.295 0.824,-8.126 -7.715,-4.475 -8.933,-10.158 -0.41,-2.846 5.281,-11.375 8.127,-6.095 3.259,-3.66 2.435,-6.909 8.539,-6.095 1.629,0.403 2.022,3.652 4.063,4.064 2.023,0 3.652,-2.847 6.086,-2.847 0.615,0.062 1.135,0.189 1.615,0.384 C 7.633,-13.726 4.721,-6.092 0,0"
               inkscape:connector-curvature="0" /></g><g
             transform="translate(324.4033,605.1182)"
             id="g1826"><path
               id="path1828"
               style="fill:#b5ae83;fill-opacity:1;fill-rule:nonzero;stroke:none"
               d="m 0,0 c -3.258,-2.032 -4.868,1.217 -8.127,1.629 -2.022,-4.064 2.041,-14.222 -6.496,-11.787 -1.218,-6.095 3.65,-4.064 6.085,-3.652 2.041,0.403 9.344,0 10.973,0.815 2.041,1.217 2.433,2.837 3.668,4.466 -0.41,-0.815 3.653,5.28 3.241,4.063 1.218,5.683 -2.023,4.064 -5.692,7.312 -1.217,0 -0.805,-0.815 -1.217,-1.217 L 0,0 z"
               inkscape:connector-curvature="0" /></g><g
             id="g1830"><g
               id="g1832" /><g
               id="g1838"><g
                 id="g1840"
                 clip-path="url(#clipPath1834)"
                 style="opacity:0.19999701"><g
                   id="g1842"
                   transform="translate(373.1631,586.8613)"><path
                     id="path1844"
                     style="fill:#000000;fill-opacity:1;fill-rule:nonzero;stroke:none"
                     d="m 0,0 c 0,-20.633 -16.337,-37.355 -36.5,-37.355 11.314,10.549 19.629,22.27 14.348,41.39 -3.776,13.676 -11.16,20.729 -31.745,28.818 5.181,2.869 11.104,4.502 17.397,4.502 C -16.337,37.355 0,20.633 0,0"
                     inkscape:connector-curvature="0" /></g></g></g></g><g
             id="g1846"><g
               id="g1848" /><g
               id="g1854"><g
                 id="g1856"
                 clip-path="url(#clipPath1850)"
                 style="opacity:0.60000598"><g
                   id="g1858"
                   transform="translate(415.3115,433.543)"><path
                     id="path1860"
                     style="fill:#1b0000;fill-opacity:1;fill-rule:nonzero;stroke:none"
                     d="m 0,0 c -4.199,6.3 -8.699,15 -14.399,19.8 -3,2.7 -6.301,4.2 -9,7.5 -3,3.3 -4.5,7.2 -6.6,10.8 -4.201,6.9 -9.301,13.2 -14.4,19.799 -6.6,8.101 -9.674,25.736 -17.569,32.762 0.674,-0.135 1.335,-0.256 1.969,-0.361 5.699,-0.901 10.274,6.888 5.399,8.808 -6.6,2.601 -11.399,7.511 -16.799,11.71 -6,4.801 -16.201,17.474 -22.201,22.274 -6,4.8 -10.2,0.108 -16.799,4.008 -5.1,3 -24.155,22.101 -26.801,9.667 -0.25,-1.175 0.467,-5.717 0.582,-6.698 0.916,-7.769 1.441,-11.619 0.916,-14.769 -0.299,-5.1 -10.514,-1.5 -8.498,-5.8 5.178,-11.038 9.801,-6.7 10.701,-13.9 0.899,-7.201 -3,-25.5 -3.301,-33 -0.3,-8.4 3.301,-14.4 5.7,-22.201 2.701,-8.099 5.101,-6.299 5.701,-14.699 1.199,-14.1 -0.6,-28.2 -1.201,-42.9 0,-3.901 0,-7.2 0.9,-11.401 1.201,-5.399 0.9,-7.799 6.9,-8.099 7.5,-0.3 15,0.3 22.801,0 11.1,-0.3 22.199,-0.3 33.6,-0.3 12.299,0 24.9,0.3 37.199,0.3 7.201,0 29.1,-3 32.7,3.9 C 11.101,-16.2 3.601,-5.4 0,0"
                     inkscape:connector-curvature="0" /></g></g></g></g><g
             transform="translate(401.3125,438.543)"
             id="g1862"><path
               id="path1864"
               style="fill:#b7b7b7;fill-opacity:1;fill-rule:nonzero;stroke:none"
               d="m 0,0 c -4.201,6.3 -8.701,15 -14.4,19.8 -3,2.7 -6.301,4.2 -9,7.5 -3,3.3 -4.5,7.2 -6.6,10.8 -4.201,6.9 -9.301,13.2 -14.4,19.799 -6.6,8.101 -9.674,25.736 -17.569,32.762 0.674,-0.135 1.335,-0.256 1.969,-0.361 5.699,-0.901 10.274,6.888 5.399,8.808 -6.6,2.601 -11.399,7.511 -16.799,11.71 -6,4.801 -16.201,17.474 -22.201,22.274 -6,4.8 -10.2,0.108 -16.799,4.008 -5.1,3 -24.155,22.101 -26.801,9.667 -0.25,-1.175 0.467,-5.717 0.582,-6.698 0.916,-7.769 1.441,-11.619 0.916,-14.769 -0.299,-5.1 -10.514,-1.5 -8.498,-5.8 5.178,-11.038 9.801,-6.7 10.701,-13.9 0.899,-7.201 -3,-25.5 -3.301,-33 -0.3,-8.4 3.301,-14.4 5.7,-22.201 C -128.4,42.3 -126,44.1 -125.4,35.7 c 1.199,-14.1 -0.6,-28.2 -1.201,-42.9 0,-3.901 0,-7.2 0.9,-11.401 1.201,-5.399 0.9,-7.799 6.9,-8.099 7.5,-0.3 15,0.3 22.801,0 11.1,-0.3 22.199,-0.3 33.6,-0.3 12.299,0 24.9,0.3 37.199,0.3 7.201,0 29.1,-3 32.7,3.9 C 11.1,-16.2 3.6,-5.4 0,0"
               inkscape:connector-curvature="0" /></g><g
             transform="translate(401.7012,438.77)"
             id="g1866"><path
               id="path1868"
               style="fill:#a0a0a0;fill-opacity:1;fill-rule:nonzero;stroke:none"
               d="m 0,0 c -3.146,4.8 -5.902,9.918 -9.451,14.441 -4.069,5.183 -9.699,8.129 -14.02,12.95 -4.766,5.318 -7.551,12.62 -11.724,18.455 -4.056,5.671 -9.029,10.842 -12.348,16.99 -2.597,4.811 -4.373,10.059 -6.511,15.081 -1.191,2.798 -4.266,11.286 -7.424,11.892 4.461,-0.856 12.469,4.323 7.659,8.933 -1.574,1.507 -4.692,2.309 -6.594,3.496 -3.077,1.921 -5.814,4.385 -8.6,6.694 -4.341,3.599 -8.254,7.415 -12.102,11.546 -3.608,3.871 -7.142,7.824 -11.039,11.41 -3.661,3.367 -7.039,3.831 -11.846,3.719 -8.236,-0.192 -15.451,9.049 -22.134,13.032 -3.948,2.353 -9.608,4.389 -11.667,-1.125 -1.297,-3.474 0.543,-9.319 0.947,-12.814 0.271,-2.356 0.5,-4.711 0.52,-7.083 0.033,-4.136 -2.082,-4.963 -5.64,-5.385 -6.936,-0.823 -0.648,-8.337 2.495,-10.632 1.407,-1.027 3.092,-1.784 4.167,-3.19 1.332,-1.74 1.123,-4.528 1.093,-6.593 -0.082,-5.793 -1.136,-11.606 -1.968,-17.324 -0.584,-4.022 -1.235,-8.058 -1.453,-12.12 -0.358,-6.686 2.388,-12.937 4.63,-19.075 0.91,-2.493 1.645,-5.003 2.812,-7.394 0.914,-1.872 2.262,-3.436 3.055,-5.38 2.711,-6.65 1.391,-16.456 1.113,-23.492 -0.531,-13.423 -2.888,-26.912 0.416,-40.138 0.665,-2.662 2.445,-3.706 5.028,-4.148 7.125,-1.22 15.041,0.031 22.253,-0.066 15.76,-0.212 31.504,-0.443 47.268,-0.286 10.084,0.1 20.234,0.6 30.308,0.029 6.723,-0.381 13.503,-0.849 20.194,0.143 C 15.57,-25.042 5.485,-8.212 0,0 c -0.32,0.48 -1.101,0.03 -0.777,-0.454 3.089,-4.624 6.132,-9.275 7.798,-14.631 2.52,-8.103 -3.05,-10.945 -9.804,-11.745 -9.433,-1.116 -19.176,0.385 -28.653,0.332 -16.09,-0.088 -32.173,-0.338 -48.265,-0.242 -7.496,0.045 -14.992,0.343 -22.487,0.347 -3.791,0.002 -7.582,-0.133 -11.372,-0.169 -3.95,-0.037 -9.69,-0.971 -11.186,3.695 -4.365,13.616 -0.69,29.629 -0.253,43.601 0.195,6.254 0.382,12.907 -0.975,19.051 -0.329,1.489 -1.124,2.811 -1.938,4.073 -1.959,3.033 -3.052,6.292 -4.231,9.679 -2.261,6.505 -4.931,12.585 -4.552,19.649 0.293,5.469 1.373,10.924 2.132,16.342 0.768,5.471 3.87,16.583 -1.36,20.768 -1.765,1.413 -3.632,2.392 -5.181,4.117 -0.889,0.989 -4.696,6.207 -1.471,6.835 1.268,0.247 2.553,0.303 3.819,0.576 4.093,0.884 3.41,5.706 3.196,8.901 -0.279,4.188 -4.74,19.212 2.394,19.526 5.383,0.238 11.628,-5.661 15.527,-8.725 3.243,-2.548 6.765,-6.196 11.087,-6.653 4.84,-0.511 8.838,0.496 12.984,-2.939 2.869,-2.377 5.396,-5.207 7.939,-7.918 5.152,-5.495 10.137,-10.951 15.981,-15.721 3.298,-2.692 6.498,-5.409 10.121,-7.67 2.064,-1.289 6.752,-2.151 5.951,-5.813 -0.882,-4.027 -5.433,-4.563 -8.662,-3.944 -0.418,0.08 -0.785,-0.42 -0.438,-0.752 5.998,-5.729 8.426,-14.292 11.586,-21.716 3.727,-8.752 9.524,-15.37 15.117,-23.008 5.103,-6.966 8.16,-16.506 15.2,-21.819 4.413,-3.33 8.239,-6.466 11.548,-10.94 C -6.139,8.46 -3.619,3.882 -0.777,-0.454 -0.461,-0.938 0.319,-0.487 0,0"
               inkscape:connector-curvature="0" /></g><g
             transform="translate(386.9121,458.3428)"
             id="g1870"><path
               id="path1872"
               style="fill:#4c4c4c;fill-opacity:1;fill-rule:nonzero;stroke:none"
               d="m 0,0 c -2.26,2.033 -4.689,3.387 -6.904,5.34 -0.75,-3.121 -2.592,-5.926 -3.596,-8.94 -1.2,-3.9 -1.801,-8.1 -2.7,-12 -2.4,-8.1 -5.4,-16.2 -7.8,-24.3 -0.742,-3.157 -1.369,-5.163 -0.459,-6.662 3.567,0.037 7.127,0.062 10.658,0.062 7.201,0 29.101,-3 32.7,3.9 C 25.5,-36 18,-25.2 14.4,-19.8 10.199,-13.5 5.699,-4.8 0,0"
               inkscape:connector-curvature="0" /></g><g
             transform="translate(378.8125,437.3428)"
             id="g1874"><path
               id="path1876"
               style="fill:#8c8c8c;fill-opacity:1;fill-rule:nonzero;stroke:none"
               d="m 0,0 c 0.299,1.5 0,3.9 0.299,5.4 0.301,3 2.4,6.9 1.5,10.2 0.9,1.5 0.9,0.9 0.9,3 1.502,0.924 0.735,3.806 -0.896,7.223 C 0.861,26.6 -0.05,27.46 -0.9,28.5 c -3,3.3 -4.5,7.2 -6.6,10.8 -4.033,6.625 -8.896,12.697 -13.791,19.013 0.332,-8.616 2.997,-15.772 3.891,-23.813 0.599,-4.2 0.299,-7.8 -0.301,-12 0,-0.9 -1.199,-1.5 -1.199,-2.1 -0.301,-0.9 0.9,-2.1 0.599,-2.4 -0.3,-1.8 -0.3,-4.5 -1.199,-6.3 -0.301,-1.2 -2.101,-1.5 -2.101,-2.1 -0.299,-0.9 0.601,-2.1 0.3,-3 -0.599,-0.9 0,-1.8 -0.599,-2.7 -0.301,-0.6 -3,0.6 -3.6,-0.6 -0.301,-0.3 0.299,-3.6 0,-4.8 -0.301,-2.4 -2.101,-3.3 -3,-5.1 -1.201,-3 -3.301,-5.7 -4.801,-9.6 -0.9,-1.8 0,-2.4 -1.199,-4.5 -0.601,-1.5 -3,-2.7 -3.601,-4.2 -0.149,-0.299 -0.298,-0.597 -0.448,-0.896 9.647,0.016 19.458,0.198 29.156,0.268 0.508,0.795 0.928,1.808 1.592,3.028 0.901,1.8 1.801,0.6 2.401,3.3 0.599,1.5 0.299,4.2 0.599,5.4 0.901,3.3 1.801,6.9 2.7,9.9 0.601,1.8 1.5,1.8 2.101,3.9"
               inkscape:connector-curvature="0" /></g><g
             transform="translate(376.1113,411.8428)"
             id="g1878"><path
               id="path1880"
               style="fill:#705b45;fill-opacity:1;fill-rule:nonzero;stroke:none"
               d="M 0,0 C 0.629,0 1.371,-0.023 2.201,-0.061 2.143,0.645 2.033,1.271 1.875,1.725 c 0.226,0.6 0.076,1.2 0.226,1.8 2.7,-1.875 0.825,6.75 0.825,7.425 0.224,-0.45 0.525,-0.9 0.824,-1.2 0.525,1.575 0.15,3.45 0.226,5.1 0.075,0.825 0.299,1.575 0.375,2.475 0.075,0.825 -0.226,1.8 0,2.625 0.149,-0.075 0.45,-0.075 0.6,-0.15 0.299,0.9 0.299,1.95 -0.076,2.85 -0.449,0.9 -1.199,1.35 -1.049,2.475 0.074,0 0.15,-0.075 0.225,-0.075 -0.225,1.425 -0.526,2.7 -0.526,4.2 1.051,-0.15 0.375,1.95 0.6,2.7 0.226,0.525 0.9,0.675 0.976,1.05 C 5.176,33.375 4.5,34.2 4.5,34.725 4.576,34.65 4.65,34.575 4.726,34.5 4.875,35.1 4.65,35.85 4.275,36.3 l 0.246,1.022 C 4.323,36.89 3.791,36.26 3.226,36.3 3.15,35.4 2.926,34.35 2.551,33.525 2.4,33.525 2.326,33.6 2.25,33.6 1.951,32.25 2.476,31.35 1.5,30.075 1.5,30.15 1.426,30.3 1.426,30.3 1.351,29.325 1.051,28.425 0.9,27.45 c -0.449,0.375 -0.674,1.2 -1.125,1.65 -0.599,-1.275 -0.375,-3 -0.9,-4.35 0,0.225 -0.074,0.525 -0.074,0.75 -0.6,-1.8 -0.975,-3.15 -1.875,-4.8 0.074,0.075 0.224,0.075 0.375,0.15 0.75,-1.2 -0.301,-1.65 -0.75,-2.475 -0.301,-0.6 -0.075,-0.9 -0.151,-1.2 -0.15,-0.45 -0.449,-0.75 -0.599,-1.125 -0.75,-1.875 -1.5,-3.225 -2.85,-4.725 0.449,-0.075 0.9,0 1.275,0.15 0.6,-1.95 -2.4,-2.55 -3.076,-3.75 0.151,0 0.526,0 0.676,0.075 0.375,-1.35 -2.701,-3.45 -3.676,-4.125 0.225,0.15 0.6,0.225 0.826,0.3 0,-1.473 -1.247,-2.668 -1.82,-4.059 C -8.543,-0.037 -4.252,0 0,0"
               inkscape:connector-curvature="0" /></g><g
             transform="translate(341.0869,481.668)"
             id="g1882"><path
               id="path1884"
               style="fill:#4c4c4c;fill-opacity:1;fill-rule:nonzero;stroke:none"
               d="m 0,0 c -0.226,1.2 -0.601,2.325 -0.976,3.45 -0.673,2.1 -1.349,3.675 -1.274,5.925 0,1.05 0.149,2.1 0.45,3.075 0.375,1.425 0.6,1.5 -0.301,2.625 -1.724,2.175 -0.673,3 0.601,5.175 1.351,2.175 0.226,4.35 -1.649,5.7 -2.026,1.425 -3.452,3 -5.101,4.725 l -4.125,0.45 c -0.226,-0.075 -0.45,-0.075 -0.675,-0.075 -3.599,-0.45 -7.051,-0.75 -10.5,-1.875 -2.099,-0.675 -4.275,-1.2 -6.301,-2.026 -2.173,-0.824 -3.375,-2.399 -4.349,-4.5 -1.365,-2.731 -2.586,-5.317 -4.071,-7.832 -11.302,-2.792 -34.429,-1.608 -32.604,-7.543 2.7,-8.099 5.101,-6.299 5.7,-14.699 1.199,-14.1 -0.599,-28.2 -1.2,-42.9 0,-3.901 0,-7.2 0.899,-11.401 1.202,-5.399 0.901,-7.799 6.901,-8.099 7.5,-0.3 15,0.3 22.801,0 l 0.357,9.017 c 0.477,1.718 0.975,3.759 2.417,4.858 1.875,1.425 4.125,1.425 6.149,2.4 1.875,0.824 2.101,2.625 2.176,4.5 0.074,0.9 -0.075,1.8 -0.15,2.625 0,0.375 -0.151,1.574 0.301,1.65 0.224,0 0.75,-0.9 0.974,-1.05 0.526,1.425 0.225,3.599 0.375,5.099 0.151,1.276 0.074,2.551 0.074,3.826 0,3.15 -0.298,6.075 0.301,9.225 0.375,1.949 0.75,3.75 1.574,5.55 0.423,0.998 0.944,1.956 1.471,2.916 3.086,-0.092 6.172,-2.309 9.33,-1.941 2.699,0.299 1.5,3.674 2.324,5.475 0.526,1.05 1.426,1.125 2.176,1.875 0.901,0.824 0.901,1.875 1.5,2.775 0.901,1.575 1.425,0.15 2.776,0.45 1.125,0.224 0.599,1.65 0.599,2.55 0,1.575 -0.15,3.375 0.449,4.875 C -0.149,-1.875 0.226,-1.425 0,0"
               inkscape:connector-curvature="0" /></g><g
             transform="translate(333.3613,513.543)"
             id="g1886"><path
               id="path1888"
               style="fill:#705b45;fill-opacity:1;fill-rule:nonzero;stroke:none"
               d="m 0,0 c -0.299,1.05 -1.199,1.649 -1.649,2.55 -0.3,0.9 -0.15,2.099 -0.451,3 -0.449,1.8 -1.799,3.599 -2.849,5.099 -1.051,1.5 -2.551,3.301 -4.2,4.051 -0.75,0.449 -2.4,0.449 -3,0.9 -1.351,1.2 0,0.9 -0.451,2.1 -0.9,2.55 -5.4,7.5 -7.949,8.4 l -2.701,-1.65 c -2.85,-2.1 -5.85,-3.6 -8.699,-5.551 -6.75,-4.349 -14.1,-8.549 -19.801,-14.099 -1.35,-1.35 -2.699,-2.55 -4.199,-3.75 -2.401,-1.651 -2.85,-1.8 -1.95,-4.8 1.35,-4.65 1.35,-8.101 1.2,-13.05 0,-1.5 0.3,-3.6 -0.45,-4.95 -1.05,-1.8 -1.951,-1.65 -2.101,-3.75 -0.299,-3.75 1.201,-7.8 2.4,-11.101 0.6,-1.799 -0.299,-3.299 0.6,-4.949 0.451,-0.9 -0.6,-1.95 0.301,-2.551 0.947,-0.828 0.867,-4.365 1.454,-5.968 -0.202,-1.2 -0.498,-2.396 -0.855,-3.731 -0.399,-1.7 0.101,-4.6 0.401,-6.2 0.301,-1.601 -0.1,-3.101 -0.2,-4.601 -0.1,-2 -2.701,-6.899 0.1,-6 1.6,0.5 2.1,1.801 2.8,-0.7 0.3,-1.099 6.2,0.601 6.399,-0.599 0.202,-1.5 0.301,-3.1 0.202,-4.701 -0.101,-1.799 -1.101,-3.099 -1.601,-4.799 2.5,0.799 3.3,-5.701 6.5,-3.3 2.3,1.8 0.6,6.099 2.399,8.099 2.101,2.5 4.702,-1.099 5.202,3.601 0.099,1.5 0.399,2.899 0.798,4.399 0.101,0.5 0.202,1.8 0.601,2.101 0.6,0.5 1.5,-0.101 2.1,0.3 2.2,1.4 0.1,4.3 -0.1,6 -0.3,2.099 0.2,4.599 2,5.8 1.5,1 4.1,0.4 4.899,1.799 0.901,1.401 0.202,4.5 0.101,6 0.6,-0.399 1.2,-0.899 2,-1.099 0.522,1.435 -0.403,2.956 -1.61,4.117 1.277,0.363 2.308,0.467 2.71,0.065 1.5,1.951 -4.951,9.768 -4.05,12.167 0.9,2.401 1.349,5.101 2.099,7.5 2.701,-0.599 3.451,-1.199 4.951,1.651 1.049,2.099 1.35,4.349 1.799,6.599 0,0.601 0.301,3.151 0.6,3.451 0.9,1.049 1.65,0.15 3,0.15 3,-0.15 4.5,1.05 4.65,3.75 0.151,3.149 0.151,3.6 3.151,4.35 C -1.5,-3.45 0.601,-3 0,0"
               inkscape:connector-curvature="0" /></g><g
             transform="translate(284.6113,467.793)"
             id="g1890"><path
               id="path1892"
               style="fill:#5e4732;fill-opacity:1;fill-rule:nonzero;stroke:none"
               d="m 0,0 c 2.851,-0.75 5.25,-2.55 6.75,-5.25 0.601,0.75 0.451,1.95 1.201,2.399 0.6,0.451 1.5,-0.449 2.4,0.901 1.2,1.8 0.45,5.25 1.049,7.2 2.25,-1.8 3.6,1.95 4.201,3.75 0,-2.55 -1.5,-5.101 -1.951,-7.65 -0.299,-2.25 0.75,-6 -0.299,-7.951 C 9.9,-4.8 9.301,-18 8.701,-19.5 c -0.75,1.5 -0.6,3.149 -1.5,4.649 -0.9,1.201 -2.1,2.401 -2.85,3.451 -1.351,-1.5 -4.65,6.9 -4.8,8.4 1.199,0 1.199,0.6 0.599,1.5 L 0,0 z"
               inkscape:connector-curvature="0" /></g><g
             transform="translate(311.7617,506.5674)"
             id="g1894"><path
               id="path1896"
               style="fill:#5e4732;fill-opacity:1;fill-rule:nonzero;stroke:none"
               d="m 0,0 c 0.6,-0.899 0.375,-1.8 1.275,-2.475 0.075,1.651 2.25,0.451 3.075,0.526 1.425,0.149 1.125,1.5 1.125,2.699 C 5.85,0.75 6.15,0.825 6.45,0.9 6.6,0.75 6.75,0.676 6.9,0.601 7.2,0.9 7.5,1.875 7.801,2.101 8.1,2.325 8.475,1.95 8.775,2.176 9,2.4 9.075,2.851 9.301,3 c 0.674,0.45 1.424,0.075 1.949,0.301 0.676,0.375 0.301,1.199 0.225,1.949 0.6,0.15 1.875,0.45 2.25,0.976 0.6,0.825 -0.15,1.575 0.375,2.474 0.451,0.75 1.201,0.601 1.65,1.5 0.15,0.3 0.301,0.901 0.375,1.2 0.15,0.451 0.375,0.826 0.525,1.276 0.225,0.824 0.225,1.875 0.75,2.625 0.151,0.224 0.825,0.675 0.825,0.75 0.3,0.75 0,0.3 -0.15,0.974 -0.075,0.151 -0.45,0.151 -0.524,0.3 -0.076,0.151 0.224,0.375 0.149,0.526 -0.149,0.149 0,0.375 -0.149,0.599 -0.151,0.226 -0.526,0.075 -0.676,0.226 C 16.35,19.2 16.426,18.75 16.275,19.65 16.2,20.101 16.35,20.625 16.35,21 15.9,20.625 15,19.5 14.85,18.825 14.625,17.851 15.301,17.4 15.6,16.426 15.975,15.301 15.075,11.25 13.5,11.551 13.275,10.426 13.35,9.676 12.676,8.625 12.45,8.25 12,7.95 11.85,7.575 11.551,7.125 11.475,6.601 11.176,6.226 10.426,5.325 9.075,5.4 8.176,5.176 7.2,4.95 6.301,4.5 5.475,3.976 6,4.051 6.676,4.125 7.2,3.976 6.225,2.7 3.15,1.351 1.725,0.976 c -2.475,-0.675 -3.75,-1.425 -3.9,-4.351 0.15,0.375 0.45,0.601 0.75,0.825 C 0,-3.524 -0.75,-6.6 0.525,-7.875 1.95,-5.85 -1.35,-3.074 -0.074,-0.975 L 0,0 z"
               inkscape:connector-curvature="0" /></g><g
             transform="translate(264.1113,585.3096)"
             id="g1898"><path
               id="path1900"
               style="fill:#e0e0e0;fill-opacity:1;fill-rule:nonzero;stroke:none"
               d="M 0,0 C -0.25,-1.175 0.467,-5.717 0.582,-6.697 0.615,-6.973 0.646,-7.243 0.678,-7.51 1.016,-7.638 1.413,-7.727 1.9,-7.767 c 2.901,-0.2 5.201,-0.7 7.5,-2.5 1,-0.799 0.401,-1.906 1.701,-1.806 2.001,0.2 3.1,1.906 2.899,3.406 -0.199,1.4 -0.499,3 -0.799,4.3 -0.201,0.801 -0.701,1 -0.6,2 0.1,0.7 0.5,1.2 0.6,1.9 0.037,0.338 0.031,0.061 -0.013,0.368 C 7.201,3.8 1.377,6.473 0,0"
               inkscape:connector-curvature="0" /></g><g
             transform="translate(263.0117,584.4424)"
             id="g1902"><path
               id="path1904"
               style="fill:#707070;fill-opacity:1;fill-rule:nonzero;stroke:none"
               d="m 0,0 c 0.023,-0.815 0.193,-1.636 0.325,-2.439 0.071,-0.436 0.147,-0.87 0.22,-1.305 0.032,-0.19 0.064,-0.381 0.096,-0.571 0.012,-0.076 0.113,-0.743 0.051,-0.285 0.109,-0.81 0.6,-1.5 1.5,-1.5 0.736,0 1.61,0.688 1.5,1.5 C 3.486,-3.064 3.04,-1.432 3,0 2.945,1.931 -0.055,1.936 0,0"
               inkscape:connector-curvature="0" /></g><g
             transform="translate(270.2119,489.2432)"
             id="g1906"><path
               id="path1908"
               style="fill:#8c8c8c;fill-opacity:1;fill-rule:nonzero;stroke:none"
               d="m 0,0 c -2.399,7.8 -6,13.8 -5.7,22.199 0.301,7.5 4.2,25.801 3.301,33 -0.901,7.2 -5.524,2.863 -10.702,13.901 -2.015,4.299 8.2,0.7 8.498,5.799 0.457,2.739 0.121,6.005 -0.578,11.916 0,0 -0.305,1.622 -0.406,3.075 -0.067,0.964 -0.044,0.353 0.217,0.649 0.913,1.031 2.762,1.118 4.32,0.601 1.028,-0.342 0.832,-2.089 1.865,-2.776 C 1.848,87.678 4.159,85.701 5.3,84.8 8.79,82.043 14.388,77.654 12.839,73.312 10.64,67.143 27.403,74.558 31.8,70.13 36.101,65.8 39,63.3 41,58.6 43.101,53.8 47.127,40.445 46,34.399 43.8,22.6 27.601,35.899 19.8,28.6 c -2.555,-2.392 7.757,-11.753 7.7,-15.201 -0.399,-24.4 -6.7,-28.7 -9.2,-27.4 C 12.304,-10.883 7.4,-15 3.399,-5.801 3.2,-5.341 0,0 0,0"
               inkscape:connector-curvature="0" /></g><g
             transform="translate(271.1113,539.4932)"
             id="g1910"><path
               id="path1912"
               style="fill:#e0e0e0;fill-opacity:1;fill-rule:nonzero;stroke:none"
               d="M 0,0 C 2.25,-0.75 3,-2.551 3.75,0.899 4.951,-1.351 6.601,1.35 7.65,2.25 8.4,3 8.851,2.55 9.601,3.899 10.051,4.8 9.75,6.149 9.9,7.05 c 2.85,-0.75 4.35,-1.5 4.5,2.25 0.901,-0.75 3,-3.45 3.301,-4.651 0.15,-0.75 -0.301,-2.25 -0.6,-3 -1.05,-1.799 -0.9,-0.75 -2.55,-1.2 C 13.051,0 13.351,0.75 12.15,-0.601 11.701,-1.2 11.4,-2.551 11.101,-3.301 10.5,-4.95 10.201,-7.801 8.25,-8.4 6.15,-9.15 4.201,-6.301 2.851,-7.351 1.801,-8.25 1.801,-12.75 1.65,-14.101 1.5,-15.9 1.5,-18 2.4,-19.65 c 0.901,-1.651 3,-2.701 3.6,-4.5 0.301,-0.75 0.15,-1.8 0,-2.401 -1.799,0 -5.1,4.051 -5.399,1.351 -3,2.849 -2.4,8.399 -2.701,12.3 -0.299,4.349 0.6,7.65 1.201,11.849 L 0,0 z"
               inkscape:connector-curvature="0" /></g><g
             transform="translate(314.0117,540.0928)"
             id="g1914"><path
               id="path1916"
               style="fill:#4c4c4c;fill-opacity:1;fill-rule:nonzero;stroke:none"
               d="m 0,0 c 0.6,-1.65 2.1,-1.95 2.4,-3.75 0,-0.15 -0.9,-0.45 -0.9,-0.6 0,-0.6 0.45,-0.6 0.6,-0.9 0.15,-0.75 1.201,-1.2 1.35,-1.95 0,-0.15 -0.6,-1.8 -0.6,-2.25 0,-0.9 0.6,-1.8 0.6,-2.7 0.15,-0.45 -0.149,-1.65 -0.149,-2.4 0,-0.9 0.299,-1.8 0.299,-2.7 C 2.551,-18 2.85,-19.8 1.801,-20.7 1.051,-21.3 0.6,-20.4 0.15,-20.7 -0.449,-21.15 -0.6,-21.75 -1.199,-22.2 -3,-23.7 -2.1,-23.1 -4.5,-22.95 c -0.75,0 -1.199,-0.75 -2.1,-0.6 -0.599,0.15 -1.05,1.05 -1.8,1.2 1.05,0.6 1.8,0.9 3,0.9 0.6,0.15 1.201,-0.45 1.8,-0.3 1.05,0.15 0.3,0.75 1.05,1.05 1.5,0.75 1.5,0.6 2.4,2.25 1.05,1.65 0.6,1.05 0.6,2.85 0,2.4 1.2,4.8 0.9,7.05 -0.15,1.8 -2.549,4.95 -1.2,6.45 L 0,0 z"
               inkscape:connector-curvature="0" /></g><g
             transform="translate(295.0059,519.8428)"
             id="g1918"><path
               id="path1920"
               style="fill:#4c4c4c;fill-opacity:1;fill-rule:nonzero;stroke:none"
               d="m 0,0 c -0.699,-2.5 -1.006,-1.2 -3.006,-0.7 l 0,-1.6 c -1,-0.2 -1.193,-0.1 -1.794,-0.1 0.1,-0.6 0.953,-1.7 1.253,-2.2 0.5,-0.8 0.677,-1.8 1.076,-2.7 0.5,-1.1 3.489,-4.3 0.589,-4.801 -0.1,0.401 -0.506,0.501 -0.706,0.701 -0.4,-0.6 -0.303,-1.5 -0.703,-2.201 -1.5,1.101 -0.9,4.201 -2.301,5.501 -0.099,-0.3 -0.501,-0.6 -0.701,-0.9 -0.3,1.3 -10e-4,2.8 -0.5,4.1 -0.101,-0.1 -0.301,-0.2 -0.4,-0.3 -0.201,1 0,2.3 0.599,3.1 0.3,0.3 0.7,-0.1 1,0.6 0.301,0.5 0.2,1.2 0,1.4 0.6,0.2 1.801,0.4 2.3,0.9 -0.1,0.2 -0.2,0.2 -0.3,0.3 0.7,0.5 1.401,0 2.2,0.3 0.701,0.3 0.9,0.8 1.5,1 1.3,0.2 4,-1.7 4.8,-2.4 -0.8,-0.2 -1.699,-0.3 -2.5,-0.1 0.2,-0.4 -0.599,-0.1 -0.599,-0.6 -0.701,0.2 -1.154,-0.5 -1.553,0 L 0,0 z"
               inkscape:connector-curvature="0" /></g><g
             transform="translate(275,480.043)"
             id="g1922"><path
               id="path1924"
               style="fill:#4c4c4c;fill-opacity:1;fill-rule:nonzero;stroke:none"
               d="m 0,0 c 2,-1 1.906,-2.7 2.406,-4.3 0.5,0 0.702,-0.1 1.103,-0.2 0.4,0 0.702,0.2 1.1,0.2 0.301,-0.1 0.703,0.199 1.102,0.199 0.399,-0.099 0.801,-0.7 1.201,-0.7 C 7.813,-5 8.212,-4.5 9.111,-5 c 0.601,-0.301 1.101,-1.5 1.5,-1.9 0,0.299 0.401,0.599 0.401,0.9 1,-1.2 1.301,-2.4 1.801,-3.9 0.199,0.799 0.299,1.599 0.798,2.2 0.202,-0.101 0.801,-0.3 0.901,-0.5 0,1.2 0.599,0.5 1,0.8 0.4,0.4 0.7,0.599 1.099,1.299 0.5,1 0.801,2 1.601,2.901 0.601,-0.901 1.3,-0.401 1.601,0.5 0.199,-0.5 0.199,-1.2 0.298,-1.8 0.901,1 1.202,2.199 1.202,3.6 0,1.5 0.298,2.2 0.5,3.7 0.099,-0.101 0.399,-0.3 0.599,-0.5 0.3,0.9 0,2 -0.2,2.899 -0.3,1.101 -0.2,1.5 -0.1,2.401 0.201,1.6 0.3,3.599 -0.799,5 C 19.813,11.399 20.912,8.1 20.612,6.399 20.412,5.3 19.712,5.1 19.313,4.199 18.912,3.3 19.212,2.3 18.712,1.399 18.512,1.1 18.012,1.199 17.813,0.8 17.612,0.5 18.212,0 17.912,-0.5 c -0.3,-0.4 -1.9,-0.9 -2.301,-1.301 -1.699,-1.399 -2.699,-1.3 -5,-0.599 -0.099,0 0.202,-0.201 0.202,-0.201 -0.701,-0.299 -2,0.101 -2.801,0.601 0.2,0.1 0.4,0.3 0.6,0.399 C 6.912,-0.7 5.313,-1.3 3.611,-0.9 2.111,-0.5 0.206,1 -0.895,1.8 -0.994,1.399 0,0.899 0,0.5 L 0,0 z"
               inkscape:connector-curvature="0" /></g><g
             transform="translate(305.8125,563.543)"
             id="g1926"><path
               id="path1928"
               style="fill:#8c8c8c;fill-opacity:1;fill-rule:nonzero;stroke:none"
               d="M 0,0 C 0,0.2 0.1,0.5 0.1,0.7 0.6,0.5 1.299,0.3 2,0.5 1.899,0.7 1.8,1 1.699,1.2 3.5,1.399 1.199,4.399 0.199,5 c 0.301,1.2 -3,3.3 -4,3.899 -0.578,0.386 -1.433,1.002 -2.334,1.539 -1.252,-0.04 -2.521,-0.11 -3.861,0.028 C -6.849,6.729 -4.531,2.175 0,0"
               inkscape:connector-curvature="0" /></g><g
             transform="translate(293.9121,574.043)"
             id="g1930"><path
               id="path1932"
               style="fill:#f4f4f4;fill-opacity:1;fill-rule:nonzero;stroke:none"
               d="M 0,0 C 3.699,-1.3 4.7,-9.4 9.2,-9.101 11.4,-9 8.8,-4.9 7.7,-3.9 6.1,-2.2 4.4,-1.4 2.3,-0.5 L 0,0 z"
               inkscape:connector-curvature="0" /></g><g
             transform="translate(297.8125,572.4424)"
             id="g1934"><path
               id="path1936"
               style="fill:#4c4c4c;fill-opacity:1;fill-rule:nonzero;stroke:none"
               d="M 0,0 C 2.199,-0.399 5.4,-3.6 5,-6 2.8,-5.199 2.4,-1.2 0,0"
               inkscape:connector-curvature="0" /></g><g
             transform="translate(297.6934,572.0083)"
             id="g1938"><path
               id="path1940"
               style="fill:#3a3a3a;fill-opacity:1;fill-rule:nonzero;stroke:none"
               d="m 0,0 c 2.252,-0.499 4.951,-3.109 4.669,-5.566 0.226,0.129 0.452,0.259 0.678,0.389 -1.31,0.553 -1.895,2.017 -2.536,3.189 -0.612,1.117 -1.328,2.182 -2.464,2.811 -0.509,0.281 -0.963,-0.497 -0.455,-0.778 2.393,-1.323 2.434,-4.915 5,-6 0.333,-0.14 0.635,0.026 0.677,0.389 C 5.895,-2.726 2.849,0.29 0.238,0.868 -0.327,0.993 -0.567,0.125 0,0"
               inkscape:connector-curvature="0" /></g><g
             transform="translate(272.3125,589.7432)"
             id="g1942"><path
               id="path1944"
               style="fill:#4c4c4c;fill-opacity:1;fill-rule:nonzero;stroke:none"
               d="m 0,0 c -1.629,1.355 -4.601,1.8 -6.601,0.6 -2.1,-1.3 -2.399,-3.8 -1.2,-5.901 0.901,0.2 1.5,1.7 2.601,2.101 0.399,0.2 1.8,-0.101 1.599,0.8 -0.2,0.7 -1.7,0.2 -2,0.599 -0.899,1.5 2.3,0.301 2.701,0.2 C -1.9,-2 1.114,-2.61 0.399,-0.7 0.328,-0.512 0.154,-0.13 0,0"
               inkscape:connector-curvature="0" /></g><g
             transform="translate(272.54,590.1318)"
             id="g1946"><path
               id="path1948"
               style="fill:#3a3a3a;fill-opacity:1;fill-rule:nonzero;stroke:none"
               d="m 0,0 c -2.129,1.605 -5.224,1.874 -7.451,0.324 -2.087,-1.451 -2.019,-4.204 -0.966,-6.241 0.086,-0.165 0.329,-0.275 0.508,-0.207 0.797,0.307 1.263,0.927 1.836,1.539 0.732,0.783 1.783,0.33 2.454,1.001 0.358,0.358 0.33,0.972 -0.022,1.324 -0.191,0.191 -0.459,0.245 -0.71,0.297 -0.199,0.041 -1.551,0.176 -0.602,0.016 1.458,-0.246 2.735,-0.97 4.255,-0.899 1.648,0.077 1.621,1.601 0.859,2.684 -0.331,0.471 -1.112,0.022 -0.777,-0.454 1.481,-2.106 -2.206,-0.997 -3.05,-0.736 -0.661,0.206 -2.197,0.779 -2.682,-0.047 -0.51,-0.872 0.569,-1.384 1.232,-1.421 1.053,-0.059 -0.266,-0.246 -0.539,-0.38 -0.985,-0.482 -1.495,-1.672 -2.492,-2.055 0.168,-0.069 0.337,-0.139 0.507,-0.207 -1.131,2.188 -0.675,4.64 1.778,5.633 1.769,0.717 3.943,0.156 5.407,-0.948 C 0.009,-1.127 0.457,-0.345 0,0"
               inkscape:connector-curvature="0" /></g><g
             transform="translate(282.6113,556.043)"
             id="g1950"><path
               id="path1952"
               style="fill:#4c4c4c;fill-opacity:1;fill-rule:nonzero;stroke:none"
               d="m 0,0 c -0.199,1.1 -1.299,2.5 -1.6,3.399 -0.399,1 -1,2.701 -1.099,3.901 0,1.2 0.199,2 -1,3.2 -0.901,1 -1.7,1.399 -2.6,2.5 -0.801,1.1 -1.4,2 -2.1,3.1 -1,1.9 -3,3.9 -4.701,5.299 l -2.9,0.5 c -0.883,0.094 -1.396,-0.336 -1.727,-0.949 0.795,-6.7 1.213,-10.227 0.725,-13.15 C -17.301,2.7 -27.516,6.3 -25.5,2 c 4.937,-10.528 9.373,-7.068 10.553,-12.974 2.254,0.19 4.215,1.952 6.248,1.274 0.5,0.7 0.9,1.4 1.5,2 0.4,0.4 1.3,1.599 1.699,2 0.601,0.4 0.701,-0.3 1.201,0 0.299,0.099 0.5,0.5 0.8,0.8 0.7,0.5 0.999,1.2 1.6,1.799 C -1,-2.3 0.301,-1.7 0,0"
               inkscape:connector-curvature="0" /></g><g
             transform="translate(265.2119,577.8428)"
             id="g1954"><path
               id="path1956"
               style="fill:#4c4c4c;fill-opacity:1;fill-rule:nonzero;stroke:none"
               d="m 0,0 c 0.785,1.73 2.2,2.3 3.3,1.1 0.801,-0.9 2.301,-4.7 3,-5.7 1.4,-2.2 1.857,-4.867 2.9,-7.3 0.547,-1.277 2.488,-4.323 1.888,-5.223 -0.9,-1.3 -7.689,-1.477 -8.987,-1.277 -3.401,0.3 -1.301,1.9 -1,6 0.298,3 0.599,3.886 -0.101,7 -0.058,0.259 -1.11,5.158 -1,5.4"
               inkscape:connector-curvature="0" /></g><g
             transform="translate(265.6006,577.6157)"
             id="g1958"><path
               id="path1960"
               style="fill:#3a3a3a;fill-opacity:1;fill-rule:nonzero;stroke:none"
               d="m 0,0 c 2.285,3.789 4.364,-2.36 4.871,-3.414 1.327,-2.759 2.395,-5.522 3.507,-8.379 0.485,-1.249 3.241,-4.546 0.924,-5.357 -1.89,-0.662 -4.126,-0.621 -6.111,-0.642 -2.035,-0.022 -3.126,0.499 -2.545,2.678 0.518,1.943 0.656,3.979 0.822,5.975 0.267,3.211 -1.412,6.204 -1.406,9.366 0.001,0.581 -0.9,0.58 -0.901,0 -0.003,-1.82 0.633,-3.749 1.017,-5.52 0.864,-3.996 -0.257,-7.514 -0.814,-11.433 -0.477,-3.366 7.994,-1.743 9.507,-1.461 0.909,0.17 2.612,0.631 2.375,1.916 -0.227,1.233 -0.762,2.276 -1.327,3.389 C 8.864,-10.81 8.354,-8.594 7.442,-6.475 6.282,-3.78 2.748,6.301 -0.777,0.454 -1.078,-0.044 -0.3,-0.496 0,0"
               inkscape:connector-curvature="0" /></g><g
             transform="translate(262.6123,560.1426)"
             id="g1962"><path
               id="path1964"
               style="fill:#e0e0e0;fill-opacity:1;fill-rule:nonzero;stroke:none"
               d="M 0,0 C 0.399,1.101 0.8,3.5 1.899,2.2 2.7,1.2 2.499,-1.3 0.8,-0.6 L 0,0 z"
               inkscape:connector-curvature="0" /></g><g
             transform="translate(266.2119,578.9424)"
             id="g1966"><path
               id="path1968"
               style="fill:#e0e0e0;fill-opacity:1;fill-rule:nonzero;stroke:none"
               d="m 0,0 c -0.5,-1.199 -0.8,-2.5 0,-3.6 0.3,0.901 2,2.3 0.9,3.1 L 0,0 z"
               inkscape:connector-curvature="0" /></g><g
             transform="translate(264.8125,560.543)"
             id="g1970"><path
               id="path1972"
               style="fill:#e0e0e0;fill-opacity:1;fill-rule:nonzero;stroke:none"
               d="M 0,0 C 0.5,0.8 1.199,0.5 1.399,-0.4 1.1,-0.601 0.699,-0.7 0.299,-0.601 L 0,0 z"
               inkscape:connector-curvature="0" /></g><g
             transform="translate(275.9121,561.5127)"
             id="g1974"><path
               id="path1976"
               style="fill:#707070;fill-opacity:1;fill-rule:nonzero;stroke:none"
               d="m 0,0 c -0.318,-0.022 -6.16,-1.07 -9.252,-1.17 -5.431,-0.176 -11.439,1.732 -9.549,-2.3 3.526,-7.516 6.794,-7.903 8.805,-9.658 5.646,-0.034 3.836,6.546 6.396,5.958 C -0.449,-7.894 2.302,0.156 0,0"
               inkscape:connector-curvature="0" /></g><g
             transform="translate(267.2119,582.543)"
             id="g1978"><path
               id="path1980"
               style="fill:#707070;fill-opacity:1;fill-rule:nonzero;stroke:none"
               d="M 0,0 C 0.58,0 0.58,0.9 0,0.9 -0.58,0.9 -0.58,0 0,0"
               inkscape:connector-curvature="0" /></g><g
             transform="translate(268.8613,582.6924)"
             id="g1982"><path
               id="path1984"
               style="fill:#707070;fill-opacity:1;fill-rule:nonzero;stroke:none"
               d="M 0,0 C 0.58,0 0.58,0.9 0,0.9 -0.58,0.9 -0.58,0 0,0"
               inkscape:connector-curvature="0" /></g><g
             transform="translate(270.2119,580.7422)"
             id="g1986"><path
               id="path1988"
               style="fill:#707070;fill-opacity:1;fill-rule:nonzero;stroke:none"
               d="M 0,0 C 0.58,0 0.58,0.9 0,0.9 -0.58,0.9 -0.58,0 0,0"
               inkscape:connector-curvature="0" /></g><g
             transform="translate(271.5625,581.3428)"
             id="g1990"><path
               id="path1992"
               style="fill:#707070;fill-opacity:1;fill-rule:nonzero;stroke:none"
               d="M 0,0 C 0.58,0 0.58,0.9 0,0.9 -0.58,0.9 -0.58,0 0,0"
               inkscape:connector-curvature="0" /></g><g
             transform="translate(271.7119,577.7422)"
             id="g1994"><path
               id="path1996"
               style="fill:#707070;fill-opacity:1;fill-rule:nonzero;stroke:none"
               d="M 0,0 C 0.58,0 0.58,0.9 0,0.9 -0.58,0.9 -0.58,0 0,0"
               inkscape:connector-curvature="0" /></g><g
             transform="translate(274.4121,579.543)"
             id="g1998"><path
               id="path2000"
               style="fill:#707070;fill-opacity:1;fill-rule:nonzero;stroke:none"
               d="M 0,0 C 0.58,0 0.58,0.9 0,0.9 -0.58,0.9 -0.58,0 0,0"
               inkscape:connector-curvature="0" /></g><g
             transform="translate(275.9121,576.0928)"
             id="g2002"><path
               id="path2004"
               style="fill:#707070;fill-opacity:1;fill-rule:nonzero;stroke:none"
               d="M 0,0 C 0.58,0 0.58,0.9 0,0.9 -0.58,0.9 -0.58,0 0,0"
               inkscape:connector-curvature="0" /></g><g
             transform="translate(272.3125,579.3926)"
             id="g2006"><path
               id="path2008"
               style="fill:#707070;fill-opacity:1;fill-rule:nonzero;stroke:none"
               d="M 0,0 C 0.58,0 0.58,0.9 0,0.9 -0.58,0.9 -0.58,0 0,0"
               inkscape:connector-curvature="0" /></g><g
             transform="translate(274.2617,576.8428)"
             id="g2010"><path
               id="path2012"
               style="fill:#707070;fill-opacity:1;fill-rule:nonzero;stroke:none"
               d="M 0,0 C 0.58,0 0.58,0.9 0,0.9 -0.58,0.9 -0.58,0 0,0"
               inkscape:connector-curvature="0" /></g><g
             transform="translate(270.3613,584.1924)"
             id="g2014"><path
               id="path2016"
               style="fill:#707070;fill-opacity:1;fill-rule:nonzero;stroke:none"
               d="M 0,0 C 0.58,0 0.58,0.9 0,0.9 -0.58,0.9 -0.58,0 0,0"
               inkscape:connector-curvature="0" /></g><g
             transform="translate(271.8613,585.0928)"
             id="g2018"><path
               id="path2020"
               style="fill:#707070;fill-opacity:1;fill-rule:nonzero;stroke:none"
               d="M 0,0 C 0.58,0 0.58,0.9 0,0.9 -0.58,0.9 -0.58,0 0,0"
               inkscape:connector-curvature="0" /></g><g
             transform="translate(272.9121,582.9922)"
             id="g2022"><path
               id="path2024"
               style="fill:#707070;fill-opacity:1;fill-rule:nonzero;stroke:none"
               d="M 0,0 C 0.58,0 0.58,0.9 0,0.9 -0.58,0.9 -0.58,0 0,0"
               inkscape:connector-curvature="0" /></g><g
             transform="translate(319.4863,541.7432)"
             id="g2026"><path
               id="path2028"
               style="fill:#8c8c8c;fill-opacity:1;fill-rule:nonzero;stroke:none"
               d="m 0,0 c -0.074,-0.9 -0.75,-2.176 -0.6,-3.075 0.151,-0.825 1.201,-1.425 1.801,-1.95 1.35,-1.201 3,-2.401 4.5,-3.375 3.525,-2.1 8.324,-2.701 12.375,-2.85 2.475,-0.075 9.75,0.074 9.225,3.899 -0.301,2.101 -2.325,2.701 -4.051,3.226 -2.024,0.6 -3.899,1.649 -5.774,2.475 -3.15,1.424 -6,3.525 -8.851,5.549 C 7.051,5.024 5.551,6 3.676,6.449 0.9,6.975 1.051,5.024 0.375,3 L 0,0 z"
               inkscape:connector-curvature="0" /></g><g
             transform="translate(346.7119,537.3516)"
             id="g2030"><path
               id="path2032"
               style="fill:#705b45;fill-opacity:1;fill-rule:nonzero;stroke:none"
               d="m 0,0 c -1.321,0.521 -4.649,0.941 -9.83,4.812 -1.755,1.369 -4.071,3.397 -5.833,4.801 -0.129,0.126 -1.758,1.752 -1.887,1.878 -1.596,1.56 -1.19,1.254 -4.599,2.9 -4.368,2.109 -5.901,-0.6 -6.051,-1.95 -0.15,-0.6 1.951,-7.15 0.4,-9.45 0.151,0 3.449,0 3.75,-0.3 0.3,-0.299 2.05,-4.4 2.8,-4.85 0.601,3.6 6.649,-0.65 8.3,-1.55 0.387,0.927 1.726,0.912 3.201,0.722 l 6.373,-0.858 c 0.674,-0.134 -0.182,2.942 0.451,2.836 C -0.099,-1.455 -0.25,-7.112 1.083,-5.21 2.438,-3.275 2.458,-0.968 0,0"
               inkscape:connector-curvature="0" /></g><g
             transform="translate(347.2119,533.7432)"
             id="g2034"><path
               id="path2036"
               style="fill:#4c4c4c;fill-opacity:1;fill-rule:nonzero;stroke:none"
               d="m 0,0 c -1.509,0.026 -3.063,-0.696 -4.476,-1.125 -2.927,-0.891 -5.884,-1.177 -9.024,-0.897 -2.95,0.261 -5.606,1.356 -8.175,2.546 -1.402,0.65 -2.547,1.366 -3.727,2.356 -0.531,0.445 -1.603,1.52 -2.499,2.069 0.562,1.57 0.701,3.956 0.701,5.45 0,1.8 -0.1,3.601 -1.199,5.201 l -0.171,0.151 c 0.946,5.14 8.813,-0.173 11.532,-0.907 -2.1,1.349 -3.938,3.956 -6.412,4.855 -1.35,0.45 -3.151,0.375 -4.425,-0.375 -1.645,-0.986 -1.837,-0.951 -1.554,-2.344 0,0 0.104,-0.505 0.129,-0.581 0.37,-1.078 0.401,-4 0.3,-5.2 -0.173,-2.331 -0.641,-4.216 0.2,-6.167 -0.006,-1.878 2.684,-3.793 3.908,-4.827 1.87,-1.58 3.971,-2.968 6.392,-3.506 2.528,-0.632 5.311,-0.369 7.899,-0.817 1.573,-0.273 3.168,-0.733 4.776,-0.535 1.924,0.237 4.07,1.173 5.59,2.353 C 0.66,-1.604 2.108,-0.037 0,0"
               inkscape:connector-curvature="0" /></g><g
             transform="translate(318.9121,540.3428)"
             id="g2038"><path
               id="path2040"
               style="fill:#e0e0e0;fill-opacity:1;fill-rule:nonzero;stroke:none"
               d="m 0,0 c 1.3,0.8 2.9,1.4 4.4,0.6 1.9,-1 1.299,-3.3 2,-4.9 -0.9,2.7 2.299,3.2 4,2 1.4,-0.9 3.4,-2.2 4.4,-3.6 -0.3,0.8 -0.9,1.9 -0.7,2.7 1.3,0 2.8,-0.9 4.2,-1.3 1.399,-0.4 3,-0.5 4.5,-0.8 0.1,1.9 -4,3 -5.3,3.8 -2,1.4 -3.801,2.9 -5.5,4.6 C 9,5.8 3.5,10.3 -1,9.8 -0.1,8.8 1.9,8.9 0.9,7.8 0.1,6.9 -0.9,7.4 -0.4,6 -0.301,5.6 0.4,5.6 0.6,5 0.7,4.6 0.3,3.9 0.1,3.5 -0.2,2.5 -0.7,1.7 -1.1,0.7 c 0.3,-0.1 0.6,-0.1 0.9,0 L 0,0 z"
               inkscape:connector-curvature="0" /></g><g
             transform="translate(320.9121,549)"
             id="g2042"><path
               id="path2044"
               style="fill:#f4f4f4;fill-opacity:1;fill-rule:nonzero;stroke:none"
               d="m 0,0 c 1.65,0 0.975,-2.091 0.225,-3.066 0.599,-0.15 1.65,0.192 2.099,-0.333 0.375,-0.451 0,-1.779 -0.224,-2.229 1.125,0.45 2.25,0.76 3.45,0.31 0.375,-0.15 0.975,-0.819 1.274,-0.894 0.451,-0.076 0.901,0.302 1.5,0.378 1.951,0.224 4.201,-1.799 5.926,-2.624 -0.9,0.899 -1.95,1.576 -3.075,2.175 -1.2,0.75 -1.95,2.061 -2.851,3.035 C 6.225,-1.222 3.375,-1 0.75,0 L 0,0 z"
               inkscape:connector-curvature="0" /></g><g
             transform="translate(308.9121,491.793)"
             id="g2046"><path
               id="path2048"
               style="fill:#5e4732;fill-opacity:1;fill-rule:nonzero;stroke:none"
               d="M 0,0 C 0.3,1.5 -1.051,4.5 -2.25,5.25 L -3.301,6.149 C -3.6,6.6 -3.9,6.899 -4.5,6.899 -4.41,6.433 -4.344,5.966 -4.295,5.499 -4.479,5.583 -4.611,5.619 -4.637,5.554 -4.918,4.79 -4.988,3.975 -5.1,3.075 -4.801,3.149 -4.575,3 -4.275,3.075 -4.35,2.175 -4.875,1.2 -5.025,0.149 -5.176,-1.125 -4.725,-1.275 -5.25,-2.55 -5.498,-3.129 -5.519,-3.48 -5.537,-3.854 -5.637,-4.17 -5.741,-4.485 -5.85,-4.8 -5.976,-5.198 -6.102,-5.649 -6.215,-6.136 -6.467,-6.65 -6.73,-7.176 -6.9,-7.726 c 0.113,0.038 0.247,0.038 0.388,0.048 -0.072,-0.491 -0.126,-0.997 -0.152,-1.508 -0.331,-0.607 -0.656,-1.207 -0.536,-1.764 0.134,0.134 0.381,0.21 0.54,0.331 0.007,-0.099 0.015,-0.196 0.023,-0.294 -0.115,-0.867 -0.38,-1.513 -0.113,-2.512 0.193,0.145 0.385,0.294 0.558,0.479 0.167,-0.442 0.383,-0.854 0.654,-1.228 0.092,-0.935 0.325,-1.856 0.588,-2.776 0,0.62 -0.103,1.451 -0.046,2.155 0.195,-0.184 0.408,-0.354 0.646,-0.505 0.092,0.138 0.166,0.282 0.233,0.43 0.207,-0.252 0.429,-0.485 0.667,-0.655 -0.187,0.498 -0.32,0.982 -0.419,1.469 0.297,1.602 -0.288,3.427 0.419,4.606 0.014,0.025 0.03,0.048 0.044,0.072 0.117,-0.084 0.25,-0.227 0.406,-0.447 -0.021,0.232 -0.055,0.56 -0.064,0.889 0.639,0.588 0.974,-0.544 1.535,-0.512 0.029,-0.57 -0.011,-1.158 0.179,-1.653 0.346,0.767 0.437,1.549 0.399,2.34 0.183,0.871 -0.1,2.316 -0.1,2.91 C -1.2,-4.8 -1.65,-3.3 -1.5,-2.4 c 0.118,0.531 0.329,0.876 0.561,1.154 0.205,-0.524 0.354,-1.103 0.489,-1.304 0.141,0.567 0.014,1.134 -0.126,1.7 0.01,0.01 0.019,0.02 0.027,0.029 0.148,-0.201 0.34,-0.403 0.474,-0.604 0.135,0.449 0.126,0.9 0.046,1.349 C -0.02,-0.051 -0.009,-0.027 0,0"
               inkscape:connector-curvature="0" /></g></g></g><g
         id="g2050"><g
           clip-path="url(#clipPath2054)"
           id="g2052"><g
             transform="translate(383,536.1172)"
             id="g2058"><path
               id="path2060"
               style="fill:none;stroke:#ffffff;stroke-width:5;stroke-linecap:butt;stroke-linejoin:miter;stroke-miterlimit:10;stroke-opacity:1;stroke-dasharray:none"
               d="m 0,0 c 0,-42.802 -34.698,-77.5 -77.5,-77.5 -42.802,0 -77.5,34.698 -77.5,77.5 0,42.802 34.698,77.5 77.5,77.5 C -34.698,77.5 0,42.802 0,0 z"
               inkscape:connector-curvature="0" /></g></g></g></g></g></svg>