<?xml version="1.0" encoding="UTF-8" standalone="no"?>
<!-- Created with Inkscape (http://www.inkscape.org/) -->

<svg
   xmlns:dc="http://purl.org/dc/elements/1.1/"
   xmlns:cc="http://creativecommons.org/ns#"
   xmlns:rdf="http://www.w3.org/1999/02/22-rdf-syntax-ns#"
   xmlns:svg="http://www.w3.org/2000/svg"
   xmlns="http://www.w3.org/2000/svg"
   xmlns:sodipodi="http://sodipodi.sourceforge.net/DTD/sodipodi-0.dtd"
   xmlns:inkscape="http://www.inkscape.org/namespaces/inkscape"
   id="svg2"
   version="1.1"
   inkscape:version="0.48.2 r9819"
   width="200"
   height="200"
   xml:space="preserve"
   sodipodi:docname="animaltoad.svg"><metadata
     id="metadata8"><rdf:RDF><cc:Work
         rdf:about=""><dc:format>image/svg+xml</dc:format><dc:type
           rdf:resource="http://purl.org/dc/dcmitype/StillImage" /><dc:title></dc:title></cc:Work></rdf:RDF></metadata><defs
     id="defs6"><clipPath
       clipPathUnits="userSpaceOnUse"
       id="clipPath18"><path
         d="m 48,183.883 c 0,-42.802 34.698,-77.5 77.5,-77.5 l 0,0 c 42.802,0 77.5,34.698 77.5,77.5 l 0,0 c 0,42.802 -34.698,77.499 -77.5,77.499 l 0,0 C 82.698,261.382 48,226.685 48,183.883"
         id="path20"
         inkscape:connector-curvature="0" /></clipPath><clipPath
       clipPathUnits="userSpaceOnUse"
       id="clipPath76"><path
         d="m 28.3701,320.655 214.7989,0 0,-220.57 -214.7989,0 0,220.57 z"
         id="path78"
         inkscape:connector-curvature="0" /></clipPath><clipPath
       clipPathUnits="userSpaceOnUse"
       id="clipPath100"><path
         d="m 165.654,273.372 11.322,0 0,-45.72 -11.322,0 0,45.72 z"
         id="path102"
         inkscape:connector-curvature="0" /></clipPath><clipPath
       clipPathUnits="userSpaceOnUse"
       id="clipPath116"><path
         d="m 128.183,211.311 12.616,0 0,-11.865 -12.616,0 0,11.865 z"
         id="path118"
         inkscape:connector-curvature="0" /></clipPath><clipPath
       clipPathUnits="userSpaceOnUse"
       id="clipPath132"><path
         d="m 196.509,246.27 27.854,0 0,-23.43 -27.854,0 0,23.43 z"
         id="path134"
         inkscape:connector-curvature="0" /></clipPath><clipPath
       clipPathUnits="userSpaceOnUse"
       id="clipPath148"><path
         d="m 179.223,311.43 55.845,0 0,-81.438 -55.845,0 0,81.438 z"
         id="path150"
         inkscape:connector-curvature="0" /></clipPath><clipPath
       clipPathUnits="userSpaceOnUse"
       id="clipPath164"><path
         d="m 126.612,213.026 11.425,0 0,-11.377 -11.425,0 0,11.377 z"
         id="path166"
         inkscape:connector-curvature="0" /></clipPath><clipPath
       clipPathUnits="userSpaceOnUse"
       id="clipPath180"><path
         d="m 175.549,246.27 48.814,0 0,-20.403 -48.814,0 0,20.403 z"
         id="path182"
         inkscape:connector-curvature="0" /></clipPath><clipPath
       clipPathUnits="userSpaceOnUse"
       id="clipPath196"><path
         d="m 153.378,258.93 10.828,0 0,-34.765 -10.828,0 0,34.765 z"
         id="path198"
         inkscape:connector-curvature="0" /></clipPath><clipPath
       clipPathUnits="userSpaceOnUse"
       id="clipPath212"><path
         d="m 198.586,300.19 2.372,0 0,-6.69 -2.372,0 0,6.69 z"
         id="path214"
         inkscape:connector-curvature="0" /></clipPath><clipPath
       clipPathUnits="userSpaceOnUse"
       id="clipPath228"><path
         d="m 195.058,287.521 1.251,0 0,-4.43 -1.251,0 0,4.43 z"
         id="path230"
         inkscape:connector-curvature="0" /></clipPath><clipPath
       clipPathUnits="userSpaceOnUse"
       id="clipPath244"><path
         d="m 165.654,311.43 52.038,0 0,-83.778 -52.038,0 0,83.778 z"
         id="path246"
         inkscape:connector-curvature="0" /></clipPath><clipPath
       clipPathUnits="userSpaceOnUse"
       id="clipPath268"><path
         d="m 107.457,216.128 11.498,0 0,-12.869 -11.498,0 0,12.869 z"
         id="path270"
         inkscape:connector-curvature="0" /></clipPath><clipPath
       clipPathUnits="userSpaceOnUse"
       id="clipPath284"><path
         d="m 75.9043,281.379 8.3789,0 0,-46.284 -8.3789,0 0,46.284 z"
         id="path286"
         inkscape:connector-curvature="0" /></clipPath><clipPath
       clipPathUnits="userSpaceOnUse"
       id="clipPath300"><path
         d="m 27.6875,259.947 25.1895,0 0,-26.276 -25.1895,0 0,26.276 z"
         id="path302"
         inkscape:connector-curvature="0" /></clipPath><clipPath
       clipPathUnits="userSpaceOnUse"
       id="clipPath316"><path
         d="m 110.289,217.567 10.443,0 0,-12.421 -10.443,0 0,12.421 z"
         id="path318"
         inkscape:connector-curvature="0" /></clipPath><clipPath
       clipPathUnits="userSpaceOnUse"
       id="clipPath332"><path
         d="m 87.2285,264.234 8.751,0 0,-35.565 -8.751,0 0,35.565 z"
         id="path334"
         inkscape:connector-curvature="0" /></clipPath><clipPath
       clipPathUnits="userSpaceOnUse"
       id="clipPath348"><path
         d="m 20.2695,322.262 50.21,0 0,-84.071 -50.21,0 0,84.071 z"
         id="path350"
         inkscape:connector-curvature="0" /></clipPath><clipPath
       clipPathUnits="userSpaceOnUse"
       id="clipPath364"><path
         d="m 38.1172,322.275 45.5547,0 0,-87.848 -45.5547,0 0,87.848 z"
         id="path366"
         inkscape:connector-curvature="0" /></clipPath><clipPath
       clipPathUnits="userSpaceOnUse"
       id="clipPath380"><path
         d="m 27.6875,259.947 46.3525,0 0,-25.508 -46.3525,0 0,25.508 z"
         id="path382"
         inkscape:connector-curvature="0" /></clipPath><clipPath
       clipPathUnits="userSpaceOnUse"
       id="clipPath512"><path
         d="M 0,768 1024,768 1024,0 0,0 0,768 z"
         id="path514"
         inkscape:connector-curvature="0" /></clipPath><clipPath
       clipPathUnits="userSpaceOnUse"
       id="clipPath524"><path
         d="m 48,361.117 c 0,-42.801 34.698,-77.5 77.5,-77.5 l 0,0 c 42.802,0 77.5,34.699 77.5,77.5 l 0,0 c 0,42.802 -34.698,77.5 -77.5,77.5 l 0,0 c -42.802,0 -77.5,-34.698 -77.5,-77.5"
         id="path526"
         inkscape:connector-curvature="0" /></clipPath><clipPath
       clipPathUnits="userSpaceOnUse"
       id="clipPath582"><path
         d="m 83.4062,417.107 107.1498,0 0,-188.795 -107.1498,0 0,188.795 z"
         id="path584"
         inkscape:connector-curvature="0" /></clipPath><clipPath
       clipPathUnits="userSpaceOnUse"
       id="clipPath610"><path
         d="m 84.9932,382.28 34.2428,0 0,-99.798 -34.2428,0 0,99.798 z"
         id="path612"
         inkscape:connector-curvature="0" /></clipPath><clipPath
       clipPathUnits="userSpaceOnUse"
       id="clipPath698"><path
         d="m 136.179,348.39 27.69,0 0,-65.261 -27.69,0 0,65.261 z"
         id="path700"
         inkscape:connector-curvature="0" /></clipPath><clipPath
       clipPathUnits="userSpaceOnUse"
       id="clipPath734"><path
         d="M 0,768 1024,768 1024,0 0,0 0,768 z"
         id="path736"
         inkscape:connector-curvature="0" /></clipPath><clipPath
       clipPathUnits="userSpaceOnUse"
       id="clipPath746"><path
         d="m 48,533.883 c 0,-42.802 34.698,-77.5 77.5,-77.5 l 0,0 c 42.802,0 77.5,34.698 77.5,77.5 l 0,0 c 0,42.802 -34.698,77.5 -77.5,77.5 l 0,0 c -42.802,0 -77.5,-34.698 -77.5,-77.5"
         id="path748"
         inkscape:connector-curvature="0" /></clipPath><clipPath
       clipPathUnits="userSpaceOnUse"
       id="clipPath804"><path
         d="m 70.0752,597.154 140.1478,0 0,-172.125 -140.1478,0 0,172.125 z"
         id="path806"
         inkscape:connector-curvature="0" /></clipPath><clipPath
       clipPathUnits="userSpaceOnUse"
       id="clipPath828"><path
         d="m 72.2432,516.053 121.3948,0 0,-80.86 -121.3948,0 0,80.86 z"
         id="path830"
         inkscape:connector-curvature="0" /></clipPath><clipPath
       clipPathUnits="userSpaceOnUse"
       id="clipPath868"><path
         d="m 98,566.655 10.04,0 0,-10.399 -10.04,0 0,10.399 z"
         id="path870"
         inkscape:connector-curvature="0" /></clipPath><clipPath
       clipPathUnits="userSpaceOnUse"
       id="clipPath884"><path
         d="m 116.188,564.133 19.527,0 0,-12.705 -19.527,0 0,12.705 z"
         id="path886"
         inkscape:connector-curvature="0" /></clipPath><clipPath
       clipPathUnits="userSpaceOnUse"
       id="clipPath908"><path
         d="m 107.135,573.487 49.874,0 0,-41.003 -49.874,0 0,41.003 z"
         id="path910"
         inkscape:connector-curvature="0" /></clipPath><clipPath
       clipPathUnits="userSpaceOnUse"
       id="clipPath940"><path
         d="m 117.255,561.123 9.391,0 0,-8.776 -9.391,0 0,8.776 z"
         id="path942"
         inkscape:connector-curvature="0" /></clipPath><clipPath
       clipPathUnits="userSpaceOnUse"
       id="clipPath964"><path
         d="m 117.456,560.869 8.443,0 0,-7.236 -8.443,0 0,7.236 z"
         id="path966"
         inkscape:connector-curvature="0" /></clipPath><clipPath
       clipPathUnits="userSpaceOnUse"
       id="clipPath980"><path
         d="m 117.002,560.869 6.503,0 0,-6.584 -6.503,0 0,6.584 z"
         id="path982"
         inkscape:connector-curvature="0" /></clipPath><clipPath
       clipPathUnits="userSpaceOnUse"
       id="clipPath996"><path
         d="m 97.1562,564.531 7.1068,0 0,-7.397 -7.1068,0 0,7.397 z"
         id="path998"
         inkscape:connector-curvature="0" /></clipPath><clipPath
       clipPathUnits="userSpaceOnUse"
       id="clipPath1020"><path
         d="m 97.7725,564.531 6.0075,0 0,-6.753 -6.0075,0 0,6.753 z"
         id="path1022"
         inkscape:connector-curvature="0" /></clipPath><clipPath
       clipPathUnits="userSpaceOnUse"
       id="clipPath1036"><path
         d="m 97.1562,564.531 4.6348,0 0,-6.592 -4.6348,0 0,6.592 z"
         id="path1038"
         inkscape:connector-curvature="0" /></clipPath><clipPath
       clipPathUnits="userSpaceOnUse"
       id="clipPath1144"><path
         d="m 112.72,573.875 38.467,0 0,-10.892 -38.467,0 0,10.892 z"
         id="path1146"
         inkscape:connector-curvature="0" /></clipPath><clipPath
       clipPathUnits="userSpaceOnUse"
       id="clipPath1164"><path
         d="m 115.91,593.83 37.215,0 0,-25.138 -37.215,0 0,25.138 z"
         id="path1166"
         inkscape:connector-curvature="0" /></clipPath><clipPath
       clipPathUnits="userSpaceOnUse"
       id="clipPath1188"><path
         d="m 114.113,596.642 43.988,0 0,-29.566 -43.988,0 0,29.566 z"
         id="path1190"
         inkscape:connector-curvature="0" /></clipPath><clipPath
       clipPathUnits="userSpaceOnUse"
       id="clipPath1204"><path
         d="m 111.065,596.661 43.954,0 0,-29.375 -43.954,0 0,29.375 z"
         id="path1206"
         inkscape:connector-curvature="0" /></clipPath><clipPath
       clipPathUnits="userSpaceOnUse"
       id="clipPath1228"><path
         d="m 129.643,574.128 5.688,0 0,-7.623 -5.688,0 0,7.623 z"
         id="path1230"
         inkscape:connector-curvature="0" /></clipPath><clipPath
       clipPathUnits="userSpaceOnUse"
       id="clipPath1244"><path
         d="m 130.658,573.875 5.689,0 0,-7.624 -5.689,0 0,7.624 z"
         id="path1246"
         inkscape:connector-curvature="0" /></clipPath><clipPath
       clipPathUnits="userSpaceOnUse"
       id="clipPath1264"><path
         d="m 131.537,574.128 4.302,0 0,-7.265 -4.302,0 0,7.265 z"
         id="path1266"
         inkscape:connector-curvature="0" /></clipPath><clipPath
       clipPathUnits="userSpaceOnUse"
       id="clipPath1280"><path
         d="m 130.15,574.128 3.803,0 0,-7.084 -3.803,0 0,7.084 z"
         id="path1282"
         inkscape:connector-curvature="0" /></clipPath><clipPath
       clipPathUnits="userSpaceOnUse"
       id="clipPath1300"><path
         d="m 132.084,572.698 2.687,0 0,-4.539 -2.687,0 0,4.539 z"
         id="path1302"
         inkscape:connector-curvature="0" /></clipPath><clipPath
       clipPathUnits="userSpaceOnUse"
       id="clipPath1316"><path
         d="m 131.218,572.698 2.476,0 0,-4.763 -2.476,0 0,4.763 z"
         id="path1318"
         inkscape:connector-curvature="0" /></clipPath><clipPath
       clipPathUnits="userSpaceOnUse"
       id="clipPath1332"><path
         d="m 140.12,574.02 5.25,0 0,-6.573 -5.25,0 0,6.573 z"
         id="path1334"
         inkscape:connector-curvature="0" /></clipPath><clipPath
       clipPathUnits="userSpaceOnUse"
       id="clipPath1348"><path
         d="m 141.136,573.766 5.25,0 0,-6.573 -5.25,0 0,6.573 z"
         id="path1350"
         inkscape:connector-curvature="0" /></clipPath><clipPath
       clipPathUnits="userSpaceOnUse"
       id="clipPath1368"><path
         d="m 141.888,574.02 3.992,0 0,-6.05 -3.992,0 0,6.05 z"
         id="path1370"
         inkscape:connector-curvature="0" /></clipPath><clipPath
       clipPathUnits="userSpaceOnUse"
       id="clipPath1384"><path
         d="m 140.628,574.02 3.685,0 0,-6.573 -3.685,0 0,6.573 z"
         id="path1386"
         inkscape:connector-curvature="0" /></clipPath><clipPath
       clipPathUnits="userSpaceOnUse"
       id="clipPath1404"><path
         d="m 142.474,572.774 2.302,0 0,-3.889 -2.302,0 0,3.889 z"
         id="path1406"
         inkscape:connector-curvature="0" /></clipPath><clipPath
       clipPathUnits="userSpaceOnUse"
       id="clipPath1420"><path
         d="m 141.73,572.774 2.124,0 0,-4.081 -2.124,0 0,4.081 z"
         id="path1422"
         inkscape:connector-curvature="0" /></clipPath><clipPath
       clipPathUnits="userSpaceOnUse"
       id="clipPath1436"><path
         d="m 149.369,575.589 3.356,0 0,-5.878 -3.356,0 0,5.878 z"
         id="path1438"
         inkscape:connector-curvature="0" /></clipPath><clipPath
       clipPathUnits="userSpaceOnUse"
       id="clipPath1452"><path
         d="m 150.385,575.335 2.768,0 0,-5.792 -2.768,0 0,5.792 z"
         id="path1454"
         inkscape:connector-curvature="0" /></clipPath><clipPath
       clipPathUnits="userSpaceOnUse"
       id="clipPath1472"><path
         d="m 150.752,575.589 2.48,0 0,-5.58 -2.48,0 0,5.58 z"
         id="path1474"
         inkscape:connector-curvature="0" /></clipPath><clipPath
       clipPathUnits="userSpaceOnUse"
       id="clipPath1488"><path
         d="m 149.876,575.589 2.316,0 0,-5.878 -2.316,0 0,5.878 z"
         id="path1490"
         inkscape:connector-curvature="0" /></clipPath><clipPath
       clipPathUnits="userSpaceOnUse"
       id="clipPath1508"><path
         d="m 150.993,574.426 1.705,0 0,-3.397 -1.705,0 0,3.397 z"
         id="path1510"
         inkscape:connector-curvature="0" /></clipPath><clipPath
       clipPathUnits="userSpaceOnUse"
       id="clipPath1524"><path
         d="m 150.415,574.426 1.564,0 0,-3.553 -1.564,0 0,3.553 z"
         id="path1526"
         inkscape:connector-curvature="0" /></clipPath><clipPath
       clipPathUnits="userSpaceOnUse"
       id="clipPath1540"><path
         d="m 119.9,576 5.254,0 0,-7.104 -5.254,0 0,7.104 z"
         id="path1542"
         inkscape:connector-curvature="0" /></clipPath><clipPath
       clipPathUnits="userSpaceOnUse"
       id="clipPath1556"><path
         d="m 120.91,575.39 5.271,0 0,-6.748 -5.271,0 0,6.748 z"
         id="path1558"
         inkscape:connector-curvature="0" /></clipPath><clipPath
       clipPathUnits="userSpaceOnUse"
       id="clipPath1576"><path
         d="m 121.69,575.644 3.983,0 0,-6.435 -3.983,0 0,6.435 z"
         id="path1578"
         inkscape:connector-curvature="0" /></clipPath><clipPath
       clipPathUnits="userSpaceOnUse"
       id="clipPath1592"><path
         d="m 120.423,575.579 2.282,0 0,-6.09 -2.282,0 0,6.09 z"
         id="path1594"
         inkscape:connector-curvature="0" /></clipPath><clipPath
       clipPathUnits="userSpaceOnUse"
       id="clipPath1612"><path
         d="m 122.217,574.705 2.396,0 0,-4.601 -2.396,0 0,4.601 z"
         id="path1614"
         inkscape:connector-curvature="0" /></clipPath><clipPath
       clipPathUnits="userSpaceOnUse"
       id="clipPath1628"><path
         d="m 121.06,574.705 2.689,0 0,-4.731 -2.689,0 0,4.731 z"
         id="path1630"
         inkscape:connector-curvature="0" /></clipPath><clipPath
       clipPathUnits="userSpaceOnUse"
       id="clipPath1644"><path
         d="m 112.821,578.751 3.345,0 0,-5.879 -3.345,0 0,5.879 z"
         id="path1646"
         inkscape:connector-curvature="0" /></clipPath><clipPath
       clipPathUnits="userSpaceOnUse"
       id="clipPath1660"><path
         d="m 113.766,578.497 3.416,0 0,-5.878 -3.416,0 0,5.878 z"
         id="path1662"
         inkscape:connector-curvature="0" /></clipPath><clipPath
       clipPathUnits="userSpaceOnUse"
       id="clipPath1680"><path
         d="m 114.145,578.751 2.529,0 0,-5.582 -2.529,0 0,5.582 z"
         id="path1682"
         inkscape:connector-curvature="0" /></clipPath><clipPath
       clipPathUnits="userSpaceOnUse"
       id="clipPath1696"><path
         d="m 113.257,578.751 2.354,0 0,-5.581 -2.354,0 0,5.581 z"
         id="path1698"
         inkscape:connector-curvature="0" /></clipPath><clipPath
       clipPathUnits="userSpaceOnUse"
       id="clipPath1716"><path
         d="m 114.337,577.928 1.712,0 0,-3.949 -1.712,0 0,3.949 z"
         id="path1718"
         inkscape:connector-curvature="0" /></clipPath><clipPath
       clipPathUnits="userSpaceOnUse"
       id="clipPath1732"><path
         d="m 113.511,577.928 1.92,0 0,-4.06 -1.92,0 0,4.06 z"
         id="path1734"
         inkscape:connector-curvature="0" /></clipPath><clipPath
       clipPathUnits="userSpaceOnUse"
       id="clipPath1748"><path
         d="M 0,768 1024,768 1024,0 0,0 0,768 z"
         id="path1750"
         inkscape:connector-curvature="0" /></clipPath><clipPath
       clipPathUnits="userSpaceOnUse"
       id="clipPath1760"><path
         d="m 228,536.117 c 0,-42.802 34.698,-77.5 77.5,-77.5 l 0,0 c 42.802,0 77.5,34.698 77.5,77.5 l 0,0 c 0,42.802 -34.698,77.5 -77.5,77.5 l 0,0 c -42.802,0 -77.5,-34.698 -77.5,-77.5"
         id="path1762"
         inkscape:connector-curvature="0" /></clipPath><clipPath
       clipPathUnits="userSpaceOnUse"
       id="clipPath1834"><path
         d="m 319.266,624.217 53.897,0 0,-74.711 -53.897,0 0,74.711 z"
         id="path1836"
         inkscape:connector-curvature="0" /></clipPath><clipPath
       clipPathUnits="userSpaceOnUse"
       id="clipPath1850"><path
         d="m 270.849,584.472 152.916,0 0,-178.278 -152.916,0 0,178.278 z"
         id="path1852"
         inkscape:connector-curvature="0" /></clipPath><clipPath
       clipPathUnits="userSpaceOnUse"
       id="clipPath2054"><path
         d="M 0,768 1024,768 1024,0 0,0 0,768 z"
         id="path2056"
         inkscape:connector-curvature="0" /></clipPath><clipPath
       clipPathUnits="userSpaceOnUse"
       id="clipPath2066"><path
         d="m 228,361.117 c 0,-42.801 34.698,-77.5 77.5,-77.5 l 0,0 c 42.802,0 77.5,34.699 77.5,77.5 l 0,0 c 0,42.802 -34.698,77.5 -77.5,77.5 l 0,0 c -42.802,0 -77.5,-34.698 -77.5,-77.5"
         id="path2068"
         inkscape:connector-curvature="0" /></clipPath><clipPath
       clipPathUnits="userSpaceOnUse"
       id="clipPath2124"><path
         d="m 254.025,411.491 171,0 0,-170.562 -171,0 0,170.562 z"
         id="path2126"
         inkscape:connector-curvature="0" /></clipPath><clipPath
       clipPathUnits="userSpaceOnUse"
       id="clipPath2148"><path
         d="m 338.895,334.943 69.931,0 0,-80.858 -69.931,0 0,80.858 z"
         id="path2150"
         inkscape:connector-curvature="0" /></clipPath><clipPath
       clipPathUnits="userSpaceOnUse"
       id="clipPath2208"><path
         d="m 269.726,385.375 45.75,0 0,-129.289 -45.75,0 0,129.289 z"
         id="path2210"
         inkscape:connector-curvature="0" /></clipPath><clipPath
       clipPathUnits="userSpaceOnUse"
       id="clipPath2248"><path
         d="m 286.077,395.068 15.482,0 0,-10.204 -15.482,0 0,10.204 z"
         id="path2250"
         inkscape:connector-curvature="0" /></clipPath><clipPath
       clipPathUnits="userSpaceOnUse"
       id="clipPath2288"><path
         d="M 0,768 1024,768 1024,0 0,0 0,768 z"
         id="path2290"
         inkscape:connector-curvature="0" /></clipPath><clipPath
       clipPathUnits="userSpaceOnUse"
       id="clipPath2300"><path
         d="m 228,186.116 c 0,-42.802 34.698,-77.499 77.5,-77.499 l 0,0 c 42.802,0 77.5,34.697 77.5,77.499 l 0,0 c 0,42.802 -34.698,77.499 -77.5,77.499 l 0,0 c -42.802,0 -77.5,-34.697 -77.5,-77.499"
         id="path2302"
         inkscape:connector-curvature="0" /></clipPath><clipPath
       clipPathUnits="userSpaceOnUse"
       id="clipPath2358"><path
         d="m 258.341,233.648 142.781,0 0,-148.6353 -142.781,0 0,148.6353 z"
         id="path2360"
         inkscape:connector-curvature="0" /></clipPath><clipPath
       clipPathUnits="userSpaceOnUse"
       id="clipPath2382"><path
         d="m 258.42,173.87 34.287,0 0,-76.0057 -34.287,0 0,76.0057 z"
         id="path2384"
         inkscape:connector-curvature="0" /></clipPath><clipPath
       clipPathUnits="userSpaceOnUse"
       id="clipPath2406"><path
         d="m 257.662,238.148 134.46,0 0,-140.8531 -134.46,0 0,140.8531 z"
         id="path2408"
         inkscape:connector-curvature="0" /></clipPath><clipPath
       clipPathUnits="userSpaceOnUse"
       id="clipPath2422"><path
         d="m 267.864,236.151 124.003,0 0,-136.8453 -124.003,0 0,136.8453 z"
         id="path2424"
         inkscape:connector-curvature="0" /></clipPath><clipPath
       clipPathUnits="userSpaceOnUse"
       id="clipPath2438"><path
         d="m 267.441,220.876 66.413,0 0,-48.466 -66.413,0 0,48.466 z"
         id="path2440"
         inkscape:connector-curvature="0" /></clipPath><clipPath
       clipPathUnits="userSpaceOnUse"
       id="clipPath2470"><path
         d="m 272.204,233.586 74.445,0 0,-41.978 -74.445,0 0,41.978 z"
         id="path2472"
         inkscape:connector-curvature="0" /></clipPath><clipPath
       clipPathUnits="userSpaceOnUse"
       id="clipPath2510"><path
         d="m 285.177,216.011 c -1.979,-0.063 -5.012,-1.992 -5.706,-3.06 l 0,0 c -2.453,-3.78 -3.27,-10.959 -1.664,-13.409 l 0,0 c 1.71,-2.61 5.661,-3.865 8.145,-3.705 l 0,0 c 5.563,0.36 7.515,3.795 8.055,9.015 l 0,0 c 0.27,2.519 0.787,7.2 -2.52,9.54 l 0,0 c -0.826,0.584 -3.228,1.624 -5.967,1.624 l 0,0 c -0.114,0 -0.228,-0.002 -0.343,-0.005"
         id="path2512"
         inkscape:connector-curvature="0" /></clipPath><clipPath
       clipPathUnits="userSpaceOnUse"
       id="clipPath2518"><path
         d="m 284.871,211.291 15.324,0 0,-4.549 -15.324,0 0,4.549 z"
         id="path2520"
         inkscape:connector-curvature="0" /></clipPath><clipPath
       clipPathUnits="userSpaceOnUse"
       id="clipPath2534"><path
         d="m 284.871,217.88 12.083,0 0,-11.138 -12.083,0 0,11.138 z"
         id="path2536"
         inkscape:connector-curvature="0" /></clipPath><clipPath
       clipPathUnits="userSpaceOnUse"
       id="clipPath2550"><path
         d="m 284.871,221.483 5.604,0 0,-14.741 -5.604,0 0,14.741 z"
         id="path2552"
         inkscape:connector-curvature="0" /></clipPath><clipPath
       clipPathUnits="userSpaceOnUse"
       id="clipPath2566"><path
         d="m 280.322,222.064 4.549,0 0,-15.322 -4.549,0 0,15.322 z"
         id="path2568"
         inkscape:connector-curvature="0" /></clipPath><clipPath
       clipPathUnits="userSpaceOnUse"
       id="clipPath2582"><path
         d="m 273.733,218.824 11.138,0 0,-12.082 -11.138,0 0,12.082 z"
         id="path2584"
         inkscape:connector-curvature="0" /></clipPath><clipPath
       clipPathUnits="userSpaceOnUse"
       id="clipPath2598"><path
         d="m 270.13,212.346 14.741,0 0,-5.604 -14.741,0 0,5.604 z"
         id="path2600"
         inkscape:connector-curvature="0" /></clipPath><clipPath
       clipPathUnits="userSpaceOnUse"
       id="clipPath2614"><path
         d="m 269.549,206.742 15.322,0 0,-4.551 -15.322,0 0,4.551 z"
         id="path2616"
         inkscape:connector-curvature="0" /></clipPath><clipPath
       clipPathUnits="userSpaceOnUse"
       id="clipPath2630"><path
         d="m 272.789,206.742 12.082,0 0,-11.138 -12.082,0 0,11.138 z"
         id="path2632"
         inkscape:connector-curvature="0" /></clipPath><clipPath
       clipPathUnits="userSpaceOnUse"
       id="clipPath2646"><path
         d="m 279.268,206.742 5.603,0 0,-14.742 -5.603,0 0,14.742 z"
         id="path2648"
         inkscape:connector-curvature="0" /></clipPath><clipPath
       clipPathUnits="userSpaceOnUse"
       id="clipPath2662"><path
         d="m 284.871,206.742 4.549,0 0,-15.325 -4.549,0 0,15.325 z"
         id="path2664"
         inkscape:connector-curvature="0" /></clipPath><clipPath
       clipPathUnits="userSpaceOnUse"
       id="clipPath2678"><path
         d="m 284.871,206.742 11.138,0 0,-12.083 -11.138,0 0,12.083 z"
         id="path2680"
         inkscape:connector-curvature="0" /></clipPath><clipPath
       clipPathUnits="userSpaceOnUse"
       id="clipPath2694"><path
         d="m 284.871,206.742 14.742,0 0,-5.605 -14.742,0 0,5.605 z"
         id="path2696"
         inkscape:connector-curvature="0" /></clipPath><clipPath
       clipPathUnits="userSpaceOnUse"
       id="clipPath2710"><path
         d="m 228,186.116 c 0,-42.802 34.698,-77.499 77.5,-77.499 l 0,0 c 42.802,0 77.5,34.697 77.5,77.499 l 0,0 c 0,42.802 -34.698,77.499 -77.5,77.499 l 0,0 c -42.802,0 -77.5,-34.697 -77.5,-77.499"
         id="path2712"
         inkscape:connector-curvature="0" /></clipPath><clipPath
       clipPathUnits="userSpaceOnUse"
       id="clipPath2718"><path
         d="m 279.471,216.017 14.737,0 0,-17.02 -14.737,0 0,17.02 z"
         id="path2720"
         inkscape:connector-curvature="0" /></clipPath><clipPath
       clipPathUnits="userSpaceOnUse"
       id="clipPath2734"><path
         d="m 278.073,214.99 12.69,0 0,-11.389 -12.69,0 0,11.389 z"
         id="path2736"
         inkscape:connector-curvature="0" /></clipPath><clipPath
       clipPathUnits="userSpaceOnUse"
       id="clipPath2754"><path
         d="m 300.307,205.661 c -0.72,-2.88 -0.269,-6.589 1.35,-9.017 l 0,0 c 1.35,-1.981 2.879,-2.485 5.131,-3.474 l 0,0 c 3.869,-1.8 10.169,-1.387 12.958,2.123 l 0,0 c 1.981,2.52 3.803,9.895 1.531,13.122 l 0,0 c -1.835,2.603 -3.632,4.299 -7.167,5.02 l 0,0 c -1.074,0.219 -2.101,0.322 -3.075,0.322 l 0,0 c -5.789,0 -9.727,-3.627 -10.728,-8.096"
         id="path2756"
         inkscape:connector-curvature="0" /></clipPath><clipPath
       clipPathUnits="userSpaceOnUse"
       id="clipPath2762"><path
         d="m 309.712,214.639 12.082,0 0,-11.138 -12.082,0 0,11.138 z"
         id="path2764"
         inkscape:connector-curvature="0" /></clipPath><clipPath
       clipPathUnits="userSpaceOnUse"
       id="clipPath2778"><path
         d="m 309.712,218.243 5.602,0 0,-14.742 -5.602,0 0,14.742 z"
         id="path2780"
         inkscape:connector-curvature="0" /></clipPath><clipPath
       clipPathUnits="userSpaceOnUse"
       id="clipPath2794"><path
         d="m 305.162,218.825 4.55,0 0,-15.324 -4.55,0 0,15.324 z"
         id="path2796"
         inkscape:connector-curvature="0" /></clipPath><clipPath
       clipPathUnits="userSpaceOnUse"
       id="clipPath2810"><path
         d="m 298.574,215.584 11.138,0 0,-12.083 -11.138,0 0,12.083 z"
         id="path2812"
         inkscape:connector-curvature="0" /></clipPath><clipPath
       clipPathUnits="userSpaceOnUse"
       id="clipPath2826"><path
         d="m 294.97,209.105 14.742,0 0,-5.604 -14.742,0 0,5.604 z"
         id="path2828"
         inkscape:connector-curvature="0" /></clipPath><clipPath
       clipPathUnits="userSpaceOnUse"
       id="clipPath2842"><path
         d="m 294.388,203.501 15.324,0 0,-4.548 -15.324,0 0,4.548 z"
         id="path2844"
         inkscape:connector-curvature="0" /></clipPath><clipPath
       clipPathUnits="userSpaceOnUse"
       id="clipPath2858"><path
         d="m 297.629,203.501 12.083,0 0,-11.137 -12.083,0 0,11.137 z"
         id="path2860"
         inkscape:connector-curvature="0" /></clipPath><clipPath
       clipPathUnits="userSpaceOnUse"
       id="clipPath2874"><path
         d="m 304.107,203.501 5.605,0 0,-14.741 -5.605,0 0,14.741 z"
         id="path2876"
         inkscape:connector-curvature="0" /></clipPath><clipPath
       clipPathUnits="userSpaceOnUse"
       id="clipPath2890"><path
         d="m 309.712,203.501 4.548,0 0,-15.323 -4.548,0 0,15.323 z"
         id="path2892"
         inkscape:connector-curvature="0" /></clipPath><clipPath
       clipPathUnits="userSpaceOnUse"
       id="clipPath2906"><path
         d="m 309.712,203.501 11.138,0 0,-12.082 -11.138,0 0,12.082 z"
         id="path2908"
         inkscape:connector-curvature="0" /></clipPath><clipPath
       clipPathUnits="userSpaceOnUse"
       id="clipPath2922"><path
         d="m 309.712,203.501 14.741,0 0,-5.604 -14.741,0 0,5.604 z"
         id="path2924"
         inkscape:connector-curvature="0" /></clipPath><clipPath
       clipPathUnits="userSpaceOnUse"
       id="clipPath2938"><path
         d="m 309.712,208.051 15.323,0 0,-4.55 -15.323,0 0,4.55 z"
         id="path2940"
         inkscape:connector-curvature="0" /></clipPath><clipPath
       clipPathUnits="userSpaceOnUse"
       id="clipPath2954"><path
         d="m 228,186.116 c 0,-42.802 34.698,-77.499 77.5,-77.499 l 0,0 c 42.802,0 77.5,34.697 77.5,77.499 l 0,0 c 0,42.802 -34.698,77.499 -77.5,77.499 l 0,0 c -42.802,0 -77.5,-34.697 -77.5,-77.499"
         id="path2956"
         inkscape:connector-curvature="0" /></clipPath><clipPath
       clipPathUnits="userSpaceOnUse"
       id="clipPath2962"><path
         d="m 305.248,213.757 17.082,0 0,-18.464 -17.082,0 0,18.464 z"
         id="path2964"
         inkscape:connector-curvature="0" /></clipPath><clipPath
       clipPathUnits="userSpaceOnUse"
       id="clipPath2978"><path
         d="m 301.837,212.469 13.795,0 0,-13.488 -13.795,0 0,13.488 z"
         id="path2980"
         inkscape:connector-curvature="0" /></clipPath><clipPath
       clipPathUnits="userSpaceOnUse"
       id="clipPath3002"><path
         d="m 303.637,167.831 63.325,0 0,-78.3183 -63.325,0 0,78.3183 z"
         id="path3004"
         inkscape:connector-curvature="0" /></clipPath><clipPath
       clipPathUnits="userSpaceOnUse"
       id="clipPath3026"><path
         d="m 334.314,171.071 36.698,0 0,-71.2683 -36.698,0 0,71.2683 z"
         id="path3028"
         inkscape:connector-curvature="0" /></clipPath><clipPath
       clipPathUnits="userSpaceOnUse"
       id="clipPath3046"><path
         d="M 0,768 1024,768 1024,0 0,0 0,768 z"
         id="path3048"
         inkscape:connector-curvature="0" /></clipPath><clipPath
       clipPathUnits="userSpaceOnUse"
       id="clipPath3058"><path
         d="m 408,536.117 c 0,-42.802 34.698,-77.5 77.5,-77.5 l 0,0 c 42.802,0 77.5,34.698 77.5,77.5 l 0,0 c 0,42.802 -34.698,77.5 -77.5,77.5 l 0,0 c -42.802,0 -77.5,-34.698 -77.5,-77.5"
         id="path3060"
         inkscape:connector-curvature="0" /></clipPath><clipPath
       clipPathUnits="userSpaceOnUse"
       id="clipPath3116"><path
         d="m 438.781,587.971 160.04,0 0,-138.661 -160.04,0 0,138.661 z"
         id="path3118"
         inkscape:connector-curvature="0" /></clipPath><clipPath
       clipPathUnits="userSpaceOnUse"
       id="clipPath3140"><path
         d="m 575.706,528.121 11.135,0 0,-49.987 -11.135,0 0,49.987 z"
         id="path3142"
         inkscape:connector-curvature="0" /></clipPath><clipPath
       clipPathUnits="userSpaceOnUse"
       id="clipPath3188"><path
         d="m 495.493,545.319 93.89,0 0,-39.655 -93.89,0 0,39.655 z"
         id="path3190"
         inkscape:connector-curvature="0" /></clipPath><clipPath
       clipPathUnits="userSpaceOnUse"
       id="clipPath3212"><path
         d="m 527.791,527.143 59.061,0 0,-39.016 -59.061,0 0,39.016 z"
         id="path3214"
         inkscape:connector-curvature="0" /></clipPath><clipPath
       clipPathUnits="userSpaceOnUse"
       id="clipPath3236"><path
         d="m 507.09,487.143 29.179,0 0,-36.931 -29.179,0 0,36.931 z"
         id="path3238"
         inkscape:connector-curvature="0" /></clipPath><clipPath
       clipPathUnits="userSpaceOnUse"
       id="clipPath3272"><path
         d="m 463.675,571.134 2.555,0 0,-4.029 -2.555,0 0,4.029 z"
         id="path3274"
         inkscape:connector-curvature="0" /></clipPath><clipPath
       clipPathUnits="userSpaceOnUse"
       id="clipPath3288"><path
         d="m 466.432,553.293 18.654,0 0,-90.323 -18.654,0 0,90.323 z"
         id="path3290"
         inkscape:connector-curvature="0" /></clipPath><clipPath
       clipPathUnits="userSpaceOnUse"
       id="clipPath3304"><path
         d="m 495.211,535.912 22.394,0 0,-21.68 -22.394,0 0,21.68 z"
         id="path3306"
         inkscape:connector-curvature="0" /></clipPath><clipPath
       clipPathUnits="userSpaceOnUse"
       id="clipPath3320"><path
         d="M 0,768 1024,768 1024,0 0,0 0,768 z"
         id="path3322"
         inkscape:connector-curvature="0" /></clipPath><clipPath
       clipPathUnits="userSpaceOnUse"
       id="clipPath3332"><path
         d="m 408.256,361.117 c 0,-42.801 34.698,-77.5 77.5,-77.5 l 0,0 c 42.801,0 77.5,34.699 77.5,77.5 l 0,0 c 0,42.802 -34.699,77.5 -77.5,77.5 l 0,0 c -42.802,0 -77.5,-34.698 -77.5,-77.5"
         id="path3334"
         inkscape:connector-curvature="0" /></clipPath><clipPath
       clipPathUnits="userSpaceOnUse"
       id="clipPath3390"><path
         d="m 460.505,414.483 179.594,0 0,-183.402 -179.594,0 0,183.402 z"
         id="path3392"
         inkscape:connector-curvature="0" /></clipPath><clipPath
       clipPathUnits="userSpaceOnUse"
       id="clipPath3462"><path
         d="m 462.712,400.909 3.423,0 0,-1.983 -3.423,0 0,1.983 z"
         id="path3464"
         inkscape:connector-curvature="0" /></clipPath><clipPath
       clipPathUnits="userSpaceOnUse"
       id="clipPath3486"><path
         d="m 482.274,388.666 23.055,0 0,-8.095 -23.055,0 0,8.095 z"
         id="path3488"
         inkscape:connector-curvature="0" /></clipPath><clipPath
       clipPathUnits="userSpaceOnUse"
       id="clipPath3506"><path
         d="m 490.869,389.44 13.788,0 0,-8.146 -13.788,0 0,8.146 z"
         id="path3508"
         inkscape:connector-curvature="0" /></clipPath><clipPath
       clipPathUnits="userSpaceOnUse"
       id="clipPath3522"><path
         d="m 525.493,299.603 97.907,0 0,-61.254 -97.907,0 0,61.254 z"
         id="path3524"
         inkscape:connector-curvature="0" /></clipPath><clipPath
       clipPathUnits="userSpaceOnUse"
       id="clipPath3546"><path
         d="m 489.459,322.129 139.97,0 0,-29.732 -139.97,0 0,29.732 z"
         id="path3548"
         inkscape:connector-curvature="0" /></clipPath><clipPath
       clipPathUnits="userSpaceOnUse"
       id="clipPath3570"><path
         d="M 0,768 1024,768 1024,0 0,0 0,768 z"
         id="path3572"
         inkscape:connector-curvature="0" /></clipPath></defs><sodipodi:namedview
     pagecolor="#ffffff"
     bordercolor="#666666"
     borderopacity="1"
     objecttolerance="10"
     gridtolerance="10"
     guidetolerance="10"
     inkscape:pageopacity="0"
     inkscape:pageshadow="2"
     inkscape:window-width="1600"
     inkscape:window-height="837"
     id="namedview4"
     showgrid="false"
     inkscape:zoom="0.675"
     inkscape:cx="462.96296"
     inkscape:cy="240.28777"
     inkscape:window-x="-8"
     inkscape:window-y="-8"
     inkscape:window-maximized="1"
     inkscape:current-layer="g10" /><g
     id="g10"
     inkscape:groupmode="layer"
     inkscape:label="tiericons_cs5"
     transform="matrix(1.25,0,0,-1.25,0,200)"><g
       id="g7274"
       transform="translate(-45.5,-281.1172)"><g
         id="g520"><g
           clip-path="url(#clipPath524)"
           id="g522"><path
             id="path528"
             style="fill:#acdef9;fill-opacity:1;fill-rule:nonzero;stroke:none"
             d="m 203.255,281.437 -155.906,0 0,155.906 155.906,0 0,-155.906 z"
             inkscape:connector-curvature="0" /><g
             transform="translate(125.4922,485.5654)"
             id="g530"><path
               id="path532"
               style="fill:#e4f9f7;fill-opacity:1;fill-rule:nonzero;stroke:none"
               d="M 0,0 0.007,-126.432 26.992,-4.848 0,0 z"
               inkscape:connector-curvature="0" /></g><g
             transform="translate(62.541,468.623)"
             id="g534"><path
               id="path536"
               style="fill:#e4f9f7;fill-opacity:1;fill-rule:nonzero;stroke:none"
               d="M 0,0 62.958,-109.489 25.79,9.354 0,0 z"
               inkscape:connector-curvature="0" /></g><g
             transform="translate(16.46,422.3438)"
             id="g538"><path
               id="path540"
               style="fill:#e4f9f7;fill-opacity:1;fill-rule:nonzero;stroke:none"
               d="M 0,0 109.039,-63.21 17.678,21.05 0,0 z"
               inkscape:connector-curvature="0" /></g><g
             transform="translate(-0.4033,359.126)"
             id="g542"><path
               id="path544"
               style="fill:#e4f9f7;fill-opacity:1;fill-rule:nonzero;stroke:none"
               d="M 0,0 125.902,0.008 4.826,27.106 0,0 z"
               inkscape:connector-curvature="0" /></g><g
             transform="translate(16.4678,295.9131)"
             id="g546"><path
               id="path548"
               style="fill:#e4f9f7;fill-opacity:1;fill-rule:nonzero;stroke:none"
               d="M 0,0 109.031,63.221 -9.316,25.896 0,0 z"
               inkscape:connector-curvature="0" /></g><g
             transform="translate(62.5547,249.6377)"
             id="g550"><path
               id="path552"
               style="fill:#e4f9f7;fill-opacity:1;fill-rule:nonzero;stroke:none"
               d="M 0,0 62.944,109.496 -20.964,17.752 0,0 z"
               inkscape:connector-curvature="0" /></g><g
             transform="translate(125.5068,232.7041)"
             id="g554"><path
               id="path556"
               style="fill:#e4f9f7;fill-opacity:1;fill-rule:nonzero;stroke:none"
               d="M 0,0 -0.008,126.43 -26.992,4.846 0,0 z"
               inkscape:connector-curvature="0" /></g><g
             transform="translate(188.457,249.6455)"
             id="g558"><path
               id="path560"
               style="fill:#e4f9f7;fill-opacity:1;fill-rule:nonzero;stroke:none"
               d="M 0,0 -62.958,109.488 -25.789,-9.355 0,0 z"
               inkscape:connector-curvature="0" /></g><g
             transform="translate(234.5381,295.9248)"
             id="g562"><path
               id="path564"
               style="fill:#e4f9f7;fill-opacity:1;fill-rule:nonzero;stroke:none"
               d="M 0,0 -109.039,63.209 -17.677,-21.051 0,0 z"
               inkscape:connector-curvature="0" /></g><g
             transform="translate(251.4023,359.1416)"
             id="g566"><path
               id="path568"
               style="fill:#e4f9f7;fill-opacity:1;fill-rule:nonzero;stroke:none"
               d="M 0,0 -125.903,-0.008 -4.827,-27.105 0,0 z"
               inkscape:connector-curvature="0" /></g><g
             transform="translate(234.5313,422.3555)"
             id="g570"><path
               id="path572"
               style="fill:#e4f9f7;fill-opacity:1;fill-rule:nonzero;stroke:none"
               d="M 0,0 -109.032,-63.222 9.315,-25.897 0,0 z"
               inkscape:connector-curvature="0" /></g><g
             transform="translate(188.4443,468.6299)"
             id="g574"><path
               id="path576"
               style="fill:#e4f9f7;fill-opacity:1;fill-rule:nonzero;stroke:none"
               d="M 0,0 -62.945,-109.496 20.963,-17.75 0,0 z"
               inkscape:connector-curvature="0" /></g><g
             id="g578"><g
               id="g580" /><g
               id="g586"><g
                 id="g588"
                 clip-path="url(#clipPath582)"
                 style="opacity:0.60000598"><g
                   id="g590"
                   transform="translate(189.373,305.8945)"><path
                     id="path592"
                     style="fill:#1b0000;fill-opacity:1;fill-rule:nonzero;stroke:none"
                     d="m 0,0 c -2.119,8.399 -6.764,22.348 -11.497,29.876 -2.354,3.865 -4.938,7.555 -8.977,9.795 -1.473,0.932 -2.398,1.416 -3.019,1.55 -1.374,0.551 -2.738,0.884 -4.032,0.977 -1.115,3.641 -1.969,7.284 -2.522,10.438 0.064,-0.07 0.124,-0.144 0.193,-0.205 0.446,1.18 -0.599,2.576 -0.851,3.719 0.387,-0.195 0.93,-0.272 1.317,-0.465 0.775,1.548 -0.676,3.971 -1.122,5.695 1.413,0.212 2.964,0.406 4.437,0.057 -0.33,0.6 -1.086,1.124 -1.57,1.608 0.563,0.058 1.395,0.077 2.053,-0.155 -0.794,0.252 -1.567,0.639 -2.053,1.124 0.911,0.561 2.036,0.677 3.16,0.793 -1.105,0.989 -5.057,0.447 -2.634,2.868 -0.582,-0.194 -1.396,-0.077 -2.094,-0.115 -0.328,1.569 -1.258,-0.097 -1.858,0.543 -0.446,0.754 -0.019,1.801 0.097,2.615 -2.886,0.136 -2.052,4.029 -1.509,5.888 -0.989,-0.134 -1.977,-1.238 -2.907,-1.935 0.02,1.103 0.969,1.936 1.628,2.673 -0.678,0.096 -1.685,-0.174 -2.362,-0.077 0.232,2.595 3.642,3.214 4.883,5.112 -2.364,0.892 -3.371,-0.347 -5.309,-1.315 0.349,0.503 0.465,1.317 0.815,1.821 -1.028,-0.406 -2.093,-1.085 -3.276,-1.607 -0.968,1.938 -2.304,0.33 -3.234,-0.367 -0.406,1.027 -1.104,1.957 -2.169,2.248 -0.009,-0.062 -0.036,-0.132 -0.068,-0.202 -0.013,-0.024 -0.025,-0.051 -0.04,-0.077 -0.112,-0.215 -0.274,-0.445 -0.3,-0.632 -0.387,0.096 -0.754,0.227 -1.115,0.367 -0.121,1.634 -0.563,2.946 -1.518,3.469 -0.895,0.422 -2.426,-0.138 -4.156,-1.046 -0.833,0.64 -1.717,1.229 -2.818,1.63 -0.024,-0.976 0.788,-1.638 1.711,-2.235 -0.8,-0.458 -1.619,-0.956 -2.426,-1.45 -0.806,0.208 -1.589,0.268 -2.307,-0.034 0.338,-0.303 0.72,-0.517 1.108,-0.693 -0.1,-0.06 -0.204,-0.123 -0.303,-0.182 -0.865,0.181 -1.799,0.39 -2.745,0.554 2.62,4.775 6.239,8.343 6.04,14.472 -0.288,8.135 -9.297,3.199 -12.901,-0.229 0.988,4.01 3.809,10.663 -2.293,10.084 -4.214,-0.434 -7.033,-2.729 -9.91,-5.431 -1.308,3.923 -1.42,13.28 -8.163,8.226 -2.093,-1.568 -3.663,-3.834 -4.825,-6.158 -1.106,-1.918 -1.572,-5.172 -3.2,-6.392 -2.962,5.405 -8.773,6.861 -10.751,0.293 -0.898,-3.073 -0.305,-7.188 0.208,-11.173 -1.056,-6.768 -1.016,-13.989 -0.044,-19.57 0.229,-1.398 0.469,-2.795 0.72,-4.188 0.976,-9.371 4.111,-19.024 7.147,-27.865 3.221,-9.386 14.656,-20.848 20.146,-28.899 0.886,-1.256 1.631,-2.491 2.304,-3.711 -0.974,-5.087 -1.446,-11.215 -0.213,-18.499 l 3.899,1.049 c 0.064,-0.434 0.126,-0.87 0.203,-1.312 l 0.202,0.008 c 10e-4,-0.008 0.002,-0.015 0.003,-0.021 l 6.421,-0.412 c 0.107,0.236 0.197,0.451 0.295,0.675 l 7.984,0.286 c 0.041,-0.079 0.081,-0.156 0.117,-0.231 0.883,-1.705 3.829,-2.672 6.027,-3.836 -5.397,-4.593 -11.588,-9.724 -13.238,-11.011 -3.157,-2.461 -4.463,-7.975 1.711,-9.793 1.102,-0.4 2.012,-0.627 2.754,-0.734 -4.474,-3.724 -10.805,-10.057 -2.293,-13.447 2.732,-0.918 6.142,0.099 8.766,1.358 -6.187,-6.646 -2.083,-16.473 3.763,-13.876 0.63,0.308 1.222,0.617 1.782,0.93 -0.404,-0.477 -0.743,-0.864 -0.978,-1.115 -2.819,-3.021 -1.05,-11.68 5.315,-9.27 2.976,1.46 9.911,9.82 15.692,17.088 3.23,3.009 5.734,7.48 8.406,10.596 3.691,4.038 9.563,7.349 12.702,11.88 C 0.543,-28.099 2.786,-10.984 0,0"
                     inkscape:connector-curvature="0" /></g></g></g></g><g
             transform="translate(121.0996,322.4766)"
             id="g594"><path
               id="path596"
               style="fill:#aa3188;fill-opacity:1;fill-rule:nonzero;stroke:none"
               d="m 0,0 c -0.199,11.652 -1.067,22.984 -2.518,34.609 -0.129,0.977 -0.257,1.958 -0.389,2.943 0.566,3.344 1.454,6.555 3.794,9.23 2.994,3.516 8.486,4.183 10.579,8.656 1.193,2.529 3.433,12.378 0.354,14.064 -2.528,1.193 -10.114,-5.401 -13.078,-5.807 2.529,6.073 7.413,9.732 7.182,16.823 -0.287,8.135 -9.297,3.199 -12.901,-0.229 0.989,4.01 3.809,10.663 -2.293,10.084 -4.213,-0.435 -7.033,-2.729 -9.91,-5.431 -1.307,3.923 -1.42,13.28 -8.163,8.226 -2.093,-1.568 -3.663,-3.834 -4.825,-6.158 -1.105,-1.918 -1.571,-5.172 -3.199,-6.392 -2.962,5.405 -8.774,6.861 -10.751,0.293 -0.899,-3.073 -0.306,-7.188 0.208,-11.173 -1.057,-6.768 -1.017,-13.989 -0.044,-19.57 1.769,-10.839 4.178,-21.562 7.866,-32.053 3.222,-9.386 14.656,-20.848 20.147,-28.899 5.867,-8.314 6.019,-15.945 14.531,-21.731 2.151,3.428 11.228,6.42 11.811,10.488 C 9.392,-15.112 0.289,-6.684 0,0"
               inkscape:connector-curvature="0" /></g><g
             transform="translate(121.8496,322.4766)"
             id="g598"><path
               id="path600"
               style="fill:#930628;fill-opacity:1;fill-rule:nonzero;stroke:none"
               d="m 0,0 c -0.245,12.066 -1.13,24.111 -2.712,36.078 -0.807,6.107 3.407,10.922 8.305,13.71 2.636,1.501 4.875,3.147 6.081,6.007 1.462,3.468 3.481,11.43 -0.073,14.237 C 8.412,72.551 0.844,65.147 -2.207,64.418 L -1.36,63.317 C 0.904,68.272 9.679,78.026 4.972,83.981 1.517,88.352 -5.305,83.48 -8.257,80.819 l 1.254,-0.729 c 0.581,2.208 3.348,8.758 0.161,10.404 -4.792,2.474 -10.282,-1.957 -13.618,-5.021 l 1.254,-0.331 c -0.761,2.559 -0.99,9.254 -4.436,10.05 -5.372,1.242 -9.435,-6.225 -10.959,-10.221 -1.929,-5.064 -2.122,-0.801 -5.276,0.465 -1.602,0.642 -3.573,0.955 -5.043,-0.235 -2.258,-1.827 -2.87,-4.357 -3.14,-7.152 -0.21,-2.171 0.174,-4.449 0.429,-6.598 0.354,-2.981 -0.342,-6.201 -0.505,-9.176 -0.556,-10.145 1.958,-20.463 4.36,-30.244 2.221,-9.051 4.911,-17.338 10.302,-24.983 5.056,-7.168 11.307,-13.458 15.898,-20.955 4.289,-7.002 6.112,-14.198 13.037,-19.255 0.359,-0.262 0.8,-0.029 1.026,0.268 3.38,4.438 11.552,5.554 11.99,11.97 C 8.996,-13.301 0.805,-7.413 0,0 c -0.104,0.951 -1.604,0.961 -1.5,0 0.527,-4.854 3.474,-8.946 5.798,-13.109 1.939,-3.474 4.252,-8.076 0.837,-11.441 -2.177,-2.146 -5.213,-3.507 -7.675,-5.301 -0.601,-0.437 -1.107,-0.931 -1.633,-1.453 -0.554,-0.55 -3.504,2.832 -4.048,3.437 -2.398,2.673 -3.84,6.205 -5.34,9.418 -2.695,5.776 -6.32,10.705 -10.299,15.639 -4.328,5.368 -8.767,10.664 -12.211,16.662 -4.063,7.074 -5.743,16.044 -7.518,23.929 -1.962,8.714 -3.435,17.407 -2.944,26.361 0.09,1.646 0.806,4.171 0.623,5.596 -0.289,2.246 -0.548,4.477 -0.665,6.74 -0.131,2.535 0.309,5.025 1.971,7.06 2.783,3.407 6.605,-1.297 7.839,-3.298 0.248,-0.403 0.838,-0.511 1.178,-0.152 3.103,3.266 3.63,8.084 6.831,11.53 5.907,6.361 7.045,-3.314 8.103,-6.875 0.165,-0.555 0.837,-0.714 1.254,-0.331 1.364,1.253 2.758,2.422 4.301,3.448 1.323,0.879 7.97,3.891 8.133,-0.808 0.076,-2.155 -0.943,-4.505 -1.485,-6.564 -0.197,-0.749 0.705,-1.224 1.254,-0.729 2.784,2.511 10.9,8.08 11.62,0.759 0.597,-6.085 -4.715,-11.269 -7.079,-16.444 -0.27,-0.59 0.165,-1.264 0.846,-1.102 3.829,0.914 13.427,9.991 13.685,2.006 0.095,-2.934 -0.674,-6.03 -1.649,-8.784 C 8.84,52.277 4.359,51.328 1.452,48.987 -0.933,47.068 -2.318,44.778 -3.386,41.946 -4.839,38.092 -4.02,34.718 -3.556,30.744 -2.363,20.536 -1.709,10.273 -1.5,0 -1.48,-0.966 0.02,-0.968 0,0"
               inkscape:connector-curvature="0" /></g><g
             transform="translate(115.3359,382.25)"
             id="g602"><path
               id="path604"
               style="fill:#7f246a;fill-opacity:1;fill-rule:nonzero;stroke:none"
               d="M 0,0 C 0.356,3.172 -0.384,6.795 -0.475,10.011 -3.994,6.87 -6.972,2.964 -10.431,-0.301 c 1.081,6.797 3.837,12.942 4.475,19.803 -2.146,0.105 -11.593,-5.843 -13.284,-7.827 -3.179,-3.727 -6.065,-8.856 -8.195,-13.128 -2.536,2.279 -3.041,8.569 -3.527,11.682 -2.667,-4.5 -4.513,-9.152 -6.233,-14.068 -1.117,-3.184 -2.672,-5.8 -2.349,-9.271 0.89,-9.582 4.109,-19.492 7.22,-28.548 3.221,-9.387 14.656,-20.849 20.146,-28.9 5.867,-8.313 6.02,-15.945 14.532,-21.73 2.151,3.428 11.228,6.42 11.811,10.487 0.99,6.915 -8.112,15.344 -8.401,22.028 -0.2,11.652 -1.068,22.984 -2.518,34.609 -0.13,0.976 -0.258,1.958 -0.39,2.942 C 3.423,-18.877 0,0 0,0"
               inkscape:connector-curvature="0" /></g><g
             id="g606"><g
               id="g608" /><g
               id="g614"><g
                 id="g616"
                 clip-path="url(#clipPath610)"
                 style="opacity:0.30000299"><g
                   id="g618"
                   transform="translate(114.9863,285.1016)"><path
                     id="path620"
                     style="fill:#000000;fill-opacity:1;fill-rule:nonzero;stroke:none"
                     d="m 0,0 c 8.759,14.521 1.266,97.178 1.266,97.178 -2.808,0.027 -8.008,-1.029 -11.284,-3.505 -0.439,-0.331 -1.82,-2.461 -2.178,-2.845 -0.808,-0.861 -11.356,4.441 -11.958,3.423 -0.684,-1.154 -0.965,-6.123 -0.093,-7.843 2.03,-4.002 7.716,-6.355 7.645,-9.034 -0.031,-1.276 -13.511,-13.776 -13.39,-14.789 0.474,-3.158 17.108,4.638 19.346,2.391 2.772,-2.781 4.813,-4.221 5.894,-7.896 C -2.836,51.131 -5.87,44.925 -5.794,38.686 -5.642,32.99 -12.739,15.108 -9.737,-2.619"
                     inkscape:connector-curvature="0" /></g></g></g></g><g
             transform="translate(181.2627,291.8115)"
             id="g622"><path
               id="path624"
               style="fill:#ce5fa9;fill-opacity:1;fill-rule:nonzero;stroke:none"
               d="m 0,0 c -1.123,3.76 -3.874,10.636 -5.907,13.832 -2.13,3.489 -3.543,7.15 -5.693,10.503 -3.678,6.199 -6.882,12.331 -10.872,18.301 -4.201,6.412 -7.258,16.952 -8.534,24.468 -1.489,7.962 -3.289,13.755 -10.687,18.135 -5.889,3.334 -8.451,3.803 -15.095,4.754 l -4.12,0.212 c -3.187,0.03 -9.446,-1.331 -12.488,-4.578 -4.875,-5.204 -5.82,-13.837 -5.237,-18.691 1.064,-7.073 9.751,-10.184 11.706,-16.83 1.916,-5.947 -1.118,-12.155 -1.043,-18.392 0.154,-5.697 -6.945,-23.579 -3.942,-41.306"
               inkscape:connector-curvature="0" /></g><g
             transform="translate(181.9863,292.0107)"
             id="g626"><path
               id="path628"
               style="fill:#930628;fill-opacity:1;fill-rule:nonzero;stroke:none"
               d="m 0,0 c -6.909,22.071 -24.317,39.205 -29.899,61.725 -1.992,8.033 -2.399,17.075 -9.752,22.357 -6.626,4.76 -13.995,6.263 -21.981,6.674 -8.466,0.435 -14.721,-4.965 -17.328,-12.559 -1.167,-3.399 -1.894,-8.112 -1.12,-11.66 0.954,-4.366 3.972,-7.201 7.062,-10.225 5.97,-5.843 5.42,-11.774 4.071,-19.506 -0.721,-4.12 -0.737,-8.211 -1.634,-12.329 -2.494,-11.445 -4.539,-22.739 -2.778,-34.467 0.143,-0.954 1.588,-0.547 1.447,0.398 -1.714,11.41 0.315,22.538 2.777,33.669 0.682,3.081 1.149,5.989 1.242,9.138 0.149,4.986 2.623,10.24 1.372,15.264 -2.054,8.238 -11.833,11.639 -12.231,20.383 -0.501,10.975 6.189,20.956 17.937,20.352 8.473,-0.436 17.086,-2.496 23.078,-8.955 3.356,-3.618 4.382,-8.878 5.284,-13.553 0.927,-4.797 2.085,-9.474 3.667,-14.102 3.157,-9.237 9.182,-17.336 14.01,-25.753 C -9.753,18.09 -4.48,9.293 -1.447,-0.398 -1.159,-1.318 0.289,-0.926 0,0"
               inkscape:connector-curvature="0" /></g><g
             transform="translate(115.9775,281.7949)"
             id="g630"><path
               id="path632"
               style="fill:#993477;fill-opacity:1;fill-rule:nonzero;stroke:none"
               d="m 0,0 c 6.688,14.72 -3.303,15.53 -2.143,29.753 0.167,2.05 3.612,21.786 3.871,23.978 0.081,0.673 1.076,2.196 1.596,3.509 1.088,2.745 7.63,5.922 7.678,6.259 C 10.417,63.67 12.266,66.85 8.2,63.679 7.3,62.978 2.729,59.706 -1.438,60.11 0.479,54.162 -2.555,47.955 -2.479,41.717 -2.326,36.021 -9.424,18.139 -6.422,0.411"
               inkscape:connector-curvature="0" /></g><g
             transform="translate(138.2598,366.9639)"
             id="g634"><path
               id="path636"
               style="fill:#9b2962;fill-opacity:1;fill-rule:nonzero;stroke:none"
               d="m 0,0 c 0.948,-1.216 1.623,-2.539 2.187,-4.084 0.454,-1.173 2.186,-6.471 -0.38,-5.065 0.116,-1.124 0.862,-2.2 0.919,-3.247 0.145,-1.887 -1.366,-0.356 -2.043,0.225 0.154,-0.852 0.696,-1.899 0.648,-2.723 -0.011,-1.52 -0.853,-1.123 -1.492,-0.27 -0.03,-1.172 0.668,-3.07 0.028,-4.155 -0.815,-1.336 -1.637,1.133 -2.286,1.918 0.174,-1.202 1.597,-3.342 -0.051,-4.212 -1.345,-0.707 -2.565,1.404 -3.505,2.093 -0.348,-0.99 5.544,-6.281 4.266,-6.996 -0.92,-0.63 -2.383,2.208 -2.905,2.906 -0.407,-1.394 0.415,-2.895 -0.273,-4.319 -1.075,-2.199 -2.023,1.327 -2.46,2.15 -0.15,-0.453 -0.65,-1.828 -1.232,-2.512 0.366,-1.219 0.784,-2.289 1.115,-2.66 0.833,-0.949 -3.89,-0.53 -5.633,0.342 1.065,-0.776 2.838,-0.96 3.719,-2.054 0.358,-0.398 0.629,-1.404 0.483,-1.939 -0.193,-0.87 -0.6,-0.812 -1.462,-1.035 1.258,-0.872 2.74,-1.153 3.961,-2.298 1.151,-1.133 1.471,-2.77 -0.679,-2.807 1.452,-0.485 3.157,-1.144 3.689,-2.743 0.678,-2.035 -0.437,-3.05 -2.267,-3.272 0.977,-1.387 3.069,-1.755 4.057,-3.073 1.559,-2.16 -1.251,-2.45 -2.549,-2.817 1.046,-0.911 2.925,-1.319 3.564,-2.657 0.862,-1.714 -0.756,-2.865 -2.17,-3.078 0.746,-1.075 2.876,-1.172 3.593,-2.452 1.249,-2.392 -2.17,-0.657 -2.829,-0.425 0.677,-1.065 2.286,-1.434 2.972,-2.432 0.902,-1.444 -0.194,-2.325 -1.579,-2.333 0.958,-1.038 3.167,-1.561 3.641,-3.081 0.145,-0.437 -0.136,-1.918 -0.65,-2.123 -0.523,-0.27 -1.442,0.552 -1.966,0.767 0.901,-0.96 2.304,-1.299 3.293,-2.133 0.881,-0.609 1.762,-2.673 0.735,-3.564 0.178,-0.167 0.413,-0.341 0.666,-0.526 l 37.645,1.357 c -1.122,3.759 -3.874,10.637 -5.907,13.833 -2.13,3.487 -3.544,7.148 -5.691,10.503 -3.68,6.199 -6.883,12.332 -10.872,18.299 -4.201,6.414 -7.259,16.953 -8.536,24.469 -1.49,7.962 -3.289,13.755 -10.688,18.136 -5.888,3.333 -8.45,3.803 -15.094,4.754 l -4.122,0.211 c -1.996,0.019 -5.2,-0.508 -8.062,-1.704 C -8.174,12.1 -1.737,6.006 0,0"
               inkscape:connector-curvature="0" /></g><g
             transform="translate(121.2178,383.6914)"
             id="g638"><path
               id="path640"
               style="fill:#cc85b4;fill-opacity:1;fill-rule:nonzero;stroke:none"
               d="M 0,0 C -0.582,-0.193 -3.875,-0.967 -3.623,-2.11 -3.256,-3.408 0.444,-2.692 1.413,-2.692 1.374,-2.964 1.22,-3.08 1.199,-3.216 c 1.724,-0.523 3.661,0.445 5.385,-0.079 0.388,-0.194 0,-0.969 0.136,-0.988 0.271,-0.038 1.357,-0.195 1.492,-0.214 0.6,-0.639 1.802,0.019 1.259,-1.841 0.637,-0.368 0.89,-0.542 1.646,-1.065 0.251,-0.174 0.968,0 1.22,-0.175 0.252,-0.175 0.387,-1.162 0.387,-1.162 1.685,-0.795 2.808,0.29 2.847,-2.345 0.988,0.135 1.995,0.405 2.945,0.27 0.038,-0.698 -0.078,-1.511 -0.196,-2.325 0.312,0.233 0.989,0.135 1.28,0.232 -0.079,-0.542 0.077,-1.395 -0.001,-1.937 0.31,0.233 1.279,0.232 1.88,0.562 0.154,-0.854 -0.098,-1.648 -0.35,-2.442 0.406,-0.057 1.201,-0.31 1.627,-0.233 0.018,-0.832 -0.272,-1.897 0.018,-2.77 0.291,0.097 0.853,0.156 1.143,0.252 0.407,-1.027 0.097,-2.228 0.503,-3.255 1.201,0.659 1.685,2.111 2.384,3.118 -0.077,-0.541 -0.213,-1.491 -0.311,-2.169 0.155,0.116 0.33,0.367 0.485,0.483 0.794,-1.22 1.219,-3.08 2.324,-4.067 0.445,1.18 -0.6,2.576 -0.852,3.72 0.387,-0.196 0.93,-0.273 1.318,-0.466 0.774,1.549 -0.677,3.971 -1.122,5.695 1.413,0.212 2.963,0.406 4.436,0.057 -0.33,0.6 -1.086,1.124 -1.569,1.608 0.562,0.058 1.394,0.077 2.052,-0.155 -0.794,0.252 -1.567,0.639 -2.052,1.124 0.91,0.561 2.035,0.678 3.159,0.793 -1.105,0.989 -5.057,0.447 -2.634,2.868 -0.582,-0.193 -1.395,-0.077 -2.094,-0.115 -0.328,1.569 -1.257,-0.097 -1.858,0.543 -0.445,0.755 -0.019,1.801 0.098,2.615 -2.887,0.137 -2.053,4.029 -1.51,5.889 -0.988,-0.135 -1.977,-1.239 -2.906,-1.936 0.019,1.104 0.968,1.937 1.628,2.673 -0.678,0.097 -1.686,-0.174 -2.363,-0.077 0.233,2.595 3.642,3.215 4.883,5.112 -2.363,0.893 -3.371,-0.347 -5.309,-1.314 0.349,0.503 0.465,1.316 0.815,1.82 C 22.395,4.682 21.329,4.003 20.146,3.481 19.179,5.419 17.842,3.812 16.912,3.114 16.506,4.141 15.809,5.071 14.743,5.362 14.704,5.091 14.374,4.723 14.335,4.451 12.999,4.781 11.856,5.498 10.655,5.809 10.771,5.653 10.694,5.111 10.791,4.82 8.622,6.1 7.228,7.96 4.729,8.871 4.67,6.527 9.436,5.983 8.989,3.833 6.741,3.602 3.914,6.082 1.706,5.152 2.441,4.494 3.371,4.223 4.166,3.971 1.318,4.378 -3.293,6.007 -5.869,4.438 -5.598,4.399 -5.346,4.225 -5.075,4.187 -6.121,3.645 -7.36,3.684 -8.387,3.277 -8.116,3.238 -7.613,2.889 -7.226,2.695 -7.555,2.327 -7.652,1.649 -8.253,1.32 c 1.143,0.252 2.732,0.716 3.816,0.561 -0.464,-0.349 -0.95,-0.833 -1.53,-1.027 1.395,0.078 2.829,0.426 4.223,0.502 -1.394,-1.044 -3.022,-1.78 -4.437,-2.961 1.937,0 3.972,0.676 5.812,0.966 L 0,0 z"
               inkscape:connector-curvature="0" /></g><g
             transform="translate(121.0186,384.4146)"
             id="g642"><path
               id="path644"
               style="fill:#d34f81;fill-opacity:1;fill-rule:nonzero;stroke:none"
               d="m 0,0 c -1.36,-0.401 -4.174,-0.932 -4.174,-2.833 0,-0.486 0.538,-1.09 0.984,-1.217 0.962,-0.275 1.003,-0.26 2.058,-0.311 1.36,-0.065 1.561,0.019 1.807,0.621 -0.203,-0.499 0.296,-0.897 0.723,-0.949 0.496,-0.06 4.805,0.233 4.771,-0.317 -0.019,-0.3 0.24,-0.679 0.551,-0.724 0.874,-0.124 2.35,-0.062 2.2,-1.331 -0.03,-0.257 0.165,-0.522 0.371,-0.647 0.593,-0.361 2.773,-1.25 2.908,-1.955 0.05,-0.257 0.288,-0.449 0.525,-0.524 1.112,-0.351 2.103,-0.092 2.297,-1.621 0.065,-0.519 0.425,-0.807 0.949,-0.724 1.793,0.538 2.392,0.095 1.8,-1.331 -0.065,-0.5 0.525,-0.832 0.949,-0.723 0.542,0.087 0.652,-0.24 0.329,-0.982 0,-0.481 0.48,-0.861 0.949,-0.724 0.998,0.562 1.2,0.244 0.607,-0.957 -0.101,-0.375 0.124,-0.838 0.525,-0.922 1.479,-0.307 0.966,-0.656 1.095,-2.28 0.04,-0.5 0.447,-0.834 0.949,-0.723 0.531,-0.728 0.772,-1.554 0.723,-2.48 0.092,-0.601 0.876,-0.663 1.253,-0.331 1.135,0.999 1.718,1.956 2.501,3.27 -0.457,0.193 -0.914,0.385 -1.371,0.578 -0.102,-0.723 -0.206,-1.446 -0.31,-2.169 -0.1,-0.696 0.674,-1.309 1.254,-0.73 -0.71,-0.709 1.246,-2.967 1.748,-3.584 0.437,-0.537 1.264,-0.067 1.28,0.531 0.041,1.52 -0.36,2.466 -0.878,3.919 l -0.923,-0.923 c 0.44,-0.156 0.878,-0.311 1.318,-0.466 0.371,-0.131 0.839,0.145 0.922,0.524 0.28,1.281 0.248,1.241 0.068,2.577 -0.39,2.894 -1.244,3.099 2.523,2.625 0.715,-0.09 0.902,0.847 0.531,1.28 -0.456,0.602 -0.978,1.138 -1.57,1.608 l -0.53,-1.28 c 0.618,-0.043 1.235,-0.086 1.853,-0.129 0.968,-0.17 1.285,1.079 0.399,1.447 -0.624,0.349 -1.249,0.699 -1.873,1.048 -0.061,-0.457 -0.12,-0.914 -0.18,-1.371 0.993,0.5 2.047,0.765 3.159,0.793 0.665,0.092 0.701,1.083 0.18,1.371 -0.596,0.329 -3.204,0.761 -2.482,1.691 0.342,0.441 0.206,1.365 -0.531,1.28 -0.63,-0.225 -1.226,-0.168 -1.791,0.17 -0.113,0.217 -0.398,0.39 -0.647,0.372 -0.997,-0.076 -1.064,-0.346 -0.693,1.552 0.076,0.388 -0.104,0.823 -0.524,0.922 -2.354,0.555 -1.333,3.669 -0.985,4.966 0.132,0.499 -0.372,1.15 -0.923,0.923 -1.276,-0.526 -2.177,-1.253 -3.237,-2.129 l 1.253,-0.729 c 0.478,0.78 0.956,1.561 1.435,2.341 0.423,0.462 0.153,1.303 -0.53,1.281 -2.772,-0.091 2.129,2.697 3.051,3.755 0.352,0.403 0.251,1.116 -0.332,1.253 -2.461,0.578 -3.741,-0.198 -5.886,-1.39 0.343,-0.342 0.684,-0.684 1.026,-1.026 0.272,0.607 0.543,1.213 0.815,1.82 0.313,0.701 -0.32,1.352 -1.027,1.026 C 22.141,4.504 21.157,3.552 19.941,4.264 19.541,4.499 18.931,4.4 18.515,4.286 16.419,3.709 17.529,4.156 15.321,5.287 14.988,5.457 14.469,5.405 14.295,5.018 14.121,4.63 11.436,5.675 11.054,5.809 10.463,6.015 10.044,5.401 10.131,4.886 10.168,4.623 10.204,4.36 10.24,4.097 10.616,4.313 10.992,4.529 11.369,4.745 9.276,6.156 7.593,7.723 5.307,8.795 4.713,9.074 4.049,8.624 4.204,7.949 4.56,6.407 5.537,5.732 6.825,4.909 8.428,3.884 4.395,5.199 4.475,5.172 3.399,5.53 2.768,5.345 1.706,5.152 1.034,5.03 1.015,4.096 1.526,3.782 2.907,2.932 2.671,3.048 4.166,2.524 4.299,3.006 4.432,3.489 4.564,3.971 0.984,4.602 -2.548,5.847 -6.049,4.363 -6.691,4.09 -6.421,3.167 -5.869,2.992 l 0.794,-0.252 0,1.447 C -6.17,3.8 -7.269,3.583 -8.387,3.277 c -0.574,-0.156 -0.801,-1.1 -0.179,-1.37 0.735,-0.122 0.729,-0.382 -0.018,-0.78 -0.511,-0.558 -0.012,-1.425 0.73,-1.253 1.18,0.33 2.386,0.507 3.617,0.534 l -0.531,1.28 c -0.46,-0.303 -0.919,-0.606 -1.378,-0.909 -0.616,-0.346 -0.385,-1.478 0.378,-1.398 1.41,0.148 2.815,0.355 4.223,0.502 -0.126,0.466 -0.252,0.932 -0.379,1.398 -1.473,-1.004 -3.005,-1.897 -4.436,-2.962 -0.535,-0.398 -0.445,-1.459 0.379,-1.398 2.13,0.161 5.659,-0.046 6.828,1.977 0.485,0.839 -0.812,1.594 -1.295,0.757 -0.575,-0.995 -4.791,-1.178 -5.533,-1.234 0.126,-0.465 0.252,-0.931 0.378,-1.397 1.432,1.065 2.963,1.957 4.437,2.962 0.555,0.378 0.427,1.482 -0.379,1.397 -1.412,-0.147 -2.809,-0.353 -4.223,-0.502 0.126,-0.465 0.252,-0.931 0.379,-1.397 0.795,0.447 0.968,0.578 1.682,1.143 0.53,0.42 0.074,1.291 -0.53,1.281 C -5.643,1.884 -6.876,1.64 -8.253,1.32 c 0.243,-0.418 0.486,-0.835 0.73,-1.253 0.623,0.681 0.69,0.753 1.144,1.527 0.204,0.347 0.087,0.827 -0.268,1.026 -0.369,0.233 -0.756,0.426 -1.162,0.582 -0.059,-0.457 -0.12,-0.914 -0.179,-1.371 1.118,0.306 2.217,0.523 3.311,0.909 0.698,0.246 0.732,1.215 0,1.447 l -0.794,0.251 c 0.06,-0.457 0.12,-0.913 0.18,-1.37 C -2.253,4.356 1.119,3.061 4.166,2.524 5.114,2.357 5.485,3.648 4.564,3.971 3.805,4.339 3.044,4.708 2.284,5.077 2.224,4.62 2.164,4.163 2.104,3.706 4.563,4.153 6.76,2.53 9.188,2.36 9.574,2.333 9.969,2.722 9.938,3.11 9.72,5.918 6.25,5.748 5.651,8.347 5.284,8.065 4.917,7.783 4.549,7.5 6.78,6.454 8.582,4.818 10.611,3.45 11.054,3.151 11.802,3.539 11.74,4.097 11.695,4.502 11.646,4.884 11.578,5.285 11.271,4.977 10.963,4.67 10.655,4.362 c 1.339,-0.468 2.377,-0.92 3.68,-1.357 0.291,-0.098 0.717,0.054 0.847,0.345 0.427,-0.446 0.854,-0.892 1.282,-1.337 0.24,-0.464 0.824,-0.442 1.178,-0.152 0.724,0.122 1.449,0.244 2.173,0.367 0.239,-0.261 0.614,-0.261 0.91,-0.117 C 21.819,2.644 22.894,3.207 24,3.717 23.657,4.059 23.315,4.401 22.974,4.743 22.702,4.137 22.431,3.53 22.159,2.923 21.863,2.262 22.481,1.506 23.186,1.897 c 1.394,0.927 2.97,1.34 4.73,1.239 -0.11,0.418 -0.221,0.835 -0.331,1.253 -1.808,-2.073 -4.295,-2.635 -5.076,-5.443 -0.127,-0.458 0.234,-0.965 0.723,-0.949 0.788,0.025 1.576,0.051 2.363,0.077 l -0.531,1.28 c -0.899,-0.98 -1.46,-1.714 -1.821,-3.004 -0.215,-0.774 0.703,-1.184 1.254,-0.729 0.858,0.581 1.717,1.162 2.575,1.742 l -0.923,0.923 c -0.388,-1.453 -1.03,-3.584 -0.303,-5.034 0.871,-1.737 1.423,-1.549 1.689,-3.669 0.042,-0.336 0.198,-0.628 0.551,-0.724 0.038,-0.01 1.427,-0.23 1.41,-0.198 0.121,-0.231 0.393,-0.371 0.648,-0.371 0.702,-0.042 1.4,-0.004 2.093,0.115 l -0.53,1.28 c -2.292,-2.952 0.572,-2.822 2.785,-4.046 0.06,0.457 0.12,0.914 0.18,1.371 -1.113,-0.029 -2.166,-0.294 -3.159,-0.793 -0.629,-0.237 -0.727,-0.98 -0.18,-1.371 1.076,-0.766 0.972,-0.676 2.232,-1.2 l 0.399,1.447 c -1.111,0.195 -1.151,0.216 -2.252,0.182 -0.62,-0.02 -1.037,-0.822 -0.53,-1.28 0.591,-0.47 1.114,-1.006 1.569,-1.609 l 0.53,1.281 c -1.558,0.196 -2.881,0.143 -4.436,-0.057 -0.455,-0.059 -0.891,-0.439 -0.724,-0.949 0.084,-0.257 1.65,-4.633 0.728,-4.307 -0.522,0.184 -1.11,-0.4 -0.923,-0.923 0.478,-1.12 0.754,-2.294 0.825,-3.52 l 1.28,0.53 c -0.969,1.191 -1.492,2.584 -2.207,3.916 -0.23,0.429 -0.845,0.483 -1.178,0.151 -0.161,-0.161 -0.323,-0.322 -0.484,-0.483 l 1.254,-0.73 c 0.104,0.723 0.207,1.446 0.311,2.169 0.113,0.799 -0.905,1.362 -1.372,0.578 -0.578,-1.117 -1.334,-2.105 -2.266,-2.966 l 1.254,-0.331 c -0.168,1.086 -0.335,2.171 -0.503,3.255 -0.066,0.419 -0.561,0.604 -0.923,0.525 -0.481,0.48 -0.552,1.079 -0.212,1.794 0.029,0.431 -0.364,0.719 -0.75,0.75 -0.894,0.072 -0.534,1.57 -0.527,1.925 0.009,0.479 -0.487,0.863 -0.949,0.723 -1.39,-0.421 -0.931,-0.678 -0.93,0.652 0,0.377 -0.343,0.792 -0.75,0.75 -1.285,-0.132 -0.382,-0.019 -0.334,1.342 0.014,0.403 -0.352,0.759 -0.75,0.75 -2.628,-0.059 -1.428,0.383 -3.1,1.363 -0.367,0.216 -1.985,0.247 -2.068,0.677 -0.071,0.374 -0.279,0.888 -0.632,1.095 -0.742,0.435 -2.545,0.172 -2.379,1.575 0.041,0.345 -0.36,0.707 -0.537,0.927 -0.975,1.215 -2.104,-0.004 -2.492,1.333 -0.102,0.351 -0.383,0.51 -0.724,0.551 -0.701,0.084 -4.091,0.525 -4.447,-0.347 0.179,0.439 -0.273,0.981 -0.724,0.949 -0.916,-0.062 -1.826,-0.146 -2.744,-0.195 -0.774,-0.042 1.321,1.353 1.53,1.414 C 1.324,-1.173 0.93,0.274 0,0"
               inkscape:connector-curvature="0" /></g><g
             transform="translate(126.248,370.5176)"
             id="g646"><path
               id="path648"
               style="fill:#44300f;fill-opacity:1;fill-rule:nonzero;stroke:none"
               d="m 0,0 c 3.062,0.115 6.818,-2.637 5.074,-6.124 -1.703,3.565 -3.117,5.289 -7.475,5.775 L 0,0 z"
               inkscape:connector-curvature="0" /></g><g
             transform="translate(126.248,369.7676)"
             id="g650"><path
               id="path652"
               style="fill:#33310e;fill-opacity:1;fill-rule:nonzero;stroke:none"
               d="m 0,0 c 2.617,0.005 5.724,-2.074 4.427,-4.995 l 1.295,0 c -0.766,1.582 -1.614,3.141 -2.976,4.289 -1.448,1.222 -3.315,1.63 -5.147,1.857 l 0.199,-1.473 c 0.801,0.116 1.6,0.232 2.401,0.348 C 1.153,0.165 0.746,1.61 -0.199,1.474 -1,1.357 -1.801,1.241 -2.601,1.125 c -0.913,-0.133 -0.558,-1.38 0.2,-1.474 1.558,-0.193 3.093,-0.58 4.317,-1.611 1.164,-0.982 1.86,-2.449 2.511,-3.793 0.231,-0.477 1.071,-0.503 1.295,0 C 7.481,-1.791 3.9,1.508 0,1.5 -0.967,1.498 -0.968,-0.002 0,0"
               inkscape:connector-curvature="0" /></g><g
             transform="translate(105.0762,375.3477)"
             id="g654"><path
               id="path656"
               style="fill:#44300f;fill-opacity:1;fill-rule:nonzero;stroke:none"
               d="M 0,0 C 2.829,1.394 5.793,1.8 7.749,-0.971 4.844,-0.002 3.178,0.929 0.021,0.136 L 0,0 z"
               inkscape:connector-curvature="0" /></g><g
             transform="translate(105.4551,374.7002)"
             id="g658"><path
               id="path660"
               style="fill:#33310e;fill-opacity:1;fill-rule:nonzero;stroke:none"
               d="M 0,0 C 2.328,1.103 4.95,1.607 6.723,-0.702 7.005,-0.335 7.287,0.032 7.569,0.4 4.774,1.352 2.408,2.171 -0.558,1.507 -0.787,1.455 -1.045,1.224 -1.082,0.982 -1.089,0.938 -1.096,0.892 -1.103,0.847 -1.245,-0.099 0.2,-0.506 0.345,0.448 0.352,0.493 0.358,0.538 0.365,0.584 L -0.159,0.06 c 2.679,0.6 4.83,-0.255 7.33,-1.107 0.585,-0.198 1.251,0.575 0.847,1.103 C 5.698,3.077 2.42,2.8 -0.758,1.295 -1.631,0.881 -0.869,-0.412 0,0"
               inkscape:connector-curvature="0" /></g><g
             transform="translate(119.0498,364.1689)"
             id="g662"><path
               id="path664"
               style="fill:#993477;fill-opacity:1;fill-rule:nonzero;stroke:none"
               d="m 0,0 c -2.062,3.336 -16.783,-0.375 -16.201,-5.23 0.536,-3.565 3.009,-6.124 5.581,-8.636 3.541,0.826 6.804,0.771 8.984,1.152 3.479,0.61 6.043,2.975 6.21,4.713 C 5.139,-2.128 0.87,-1.405 0,0"
               inkscape:connector-curvature="0" /></g><g
             transform="translate(92.5674,377.1387)"
             id="g666"><path
               id="path668"
               style="fill:#d8b72e;fill-opacity:1;fill-rule:nonzero;stroke:none"
               d="m 0,0 c 3.006,-0.718 6.396,-3.47 9.118,-5.006 2.628,-1.407 5.157,-3.007 7.754,-4.476 0.498,-0.282 1.368,0.044 1.931,-0.06 7.913,-1.479 9.033,-5.46 8.925,-8.215 -0.196,-4.985 -5.926,-5.194 -8.809,-5.712 -3.706,-0.644 -7.399,-0.194 -10.971,-1.114 -3.847,-1.055 -7.563,-2.657 -11.535,-2.479 0.158,1.917 14.384,7.101 14.966,10.246 C 12.102,-13.263 0,0 0,0"
               inkscape:connector-curvature="0" /></g><g
             transform="translate(92.3682,376.415)"
             id="g670"><path
               id="path672"
               style="fill:#841e71;fill-opacity:1;fill-rule:nonzero;stroke:none"
               d="m 0,0 c 3.298,-1.064 6.004,-3.167 8.938,-4.93 2.31,-1.386 5.353,-3.842 7.934,-4.552 3.199,-0.88 5.709,-0.55 8.469,-2.853 2.513,-2.097 2.492,-6.281 -0.314,-8.162 -4.531,-3.039 -11.948,-1.618 -17.079,-2.639 -2.232,-0.444 -9.275,-1.688 -10.464,-3.162 1.002,1.241 3.128,2.018 4.495,2.745 3.443,1.835 12.288,4.638 9.804,9.983 C 9.228,-8.069 4.779,-3.203 0.729,1.254 0.078,1.972 -0.979,0.907 -0.331,0.193 3.661,-4.2 9.188,-9.517 10.814,-15.352 c 1.14,-4.089 -13.556,-7.047 -14.925,-10.787 -0.168,-0.459 0.264,-0.956 0.723,-0.949 4.114,0.063 7.817,1.363 11.735,2.505 3.969,1.158 8.506,0.751 12.61,1.371 4.04,0.611 7.704,2.169 7.722,6.786 0.015,3.957 -3.166,6.236 -6.486,7.555 -1.354,0.538 -2.74,0.819 -4.18,0.767 -1.903,-0.071 -5.136,2.672 -6.75,3.605 C 7.699,-2.441 4.343,0.173 0.398,1.447 -0.524,1.745 -0.917,0.297 0,0"
               inkscape:connector-curvature="0" /></g><g
             transform="translate(120.2949,359.3818)"
             id="g674"><path
               id="path676"
               style="fill:#d8983d;fill-opacity:1;fill-rule:nonzero;stroke:none"
               d="m 0,0 c -0.195,-4.985 -5.926,-5.194 -8.809,-5.712 -3.706,-0.644 -7.399,-0.194 -10.97,-1.114 -3.848,-1.055 -7.564,-2.657 -11.535,-2.479 0.13,1.588 15.804,4.014 22.646,6.555 1.417,0.526 4.782,0.691 4.941,1.364 C -2.854,2.295 0.108,2.755 0,0"
               inkscape:connector-curvature="0" /></g><g
             transform="translate(93.6035,372.291)"
             id="g678"><path
               id="path680"
               style="fill:#ce527c;fill-opacity:1;fill-rule:nonzero;stroke:none"
               d="m 0,0 c 1.721,-2.501 10.075,-8.89 8.457,-11.647 -0.969,-1.45 -5.293,-4.159 -6.734,-5.311 -1.922,-1.439 -4.479,-2.873 -5.929,-4.756 3.816,0.397 7.649,2.255 11.316,3.529 3.667,1.275 13.896,1.596 13.153,6.278 -0.449,2.633 -9.506,7.702 -11.709,9.624 -2.36,2.217 -5.98,5.322 -9.142,6.671 L 0,0 z"
               inkscape:connector-curvature="0" /></g><g
             transform="translate(93.0732,371.7607)"
             id="g682"><path
               id="path684"
               style="fill:#a86311;fill-opacity:1;fill-rule:nonzero;stroke:none"
               d="m 0,0 c 1.471,-1.902 10.183,-8.561 7.948,-11.184 -3.294,-3.869 -8.69,-5.689 -12.154,-9.469 -0.54,-0.59 0.006,-1.366 0.729,-1.254 6.108,0.946 11.88,3.674 17.96,4.99 2.149,0.465 7.163,1.647 7.08,4.758 -0.089,3.372 -4.121,5.485 -6.568,7.191 C 10.101,-1.555 5.706,2.958 0.321,5.565 -0.124,5.781 -0.891,5.535 -0.808,4.918 -0.611,3.455 -0.416,1.993 -0.22,0.53 c 0.127,-0.944 1.628,-0.956 1.5,0 C 1.084,1.993 0.889,3.455 0.692,4.918 0.316,4.702 -0.06,4.486 -0.437,4.271 3.276,2.473 5.937,-0.4 9.195,-2.797 c 3.106,-2.283 6.451,-4.218 9.359,-6.766 5.195,-4.552 -6.456,-6.32 -8.655,-6.753 -4.738,-0.935 -8.961,-3.399 -13.774,-4.144 l 0.729,-1.254 c 2.613,2.852 6.173,4.935 9.322,7.183 1.172,0.837 3.803,2.255 3.752,3.971 C 9.785,-5.779 3.709,-2.365 1.061,1.061 0.47,1.825 -0.584,0.755 0,0"
               inkscape:connector-curvature="0" /></g><g
             transform="translate(111.5322,362.7656)"
             id="g686"><path
               id="path688"
               style="fill:#6b0f27;fill-opacity:1;fill-rule:nonzero;stroke:none"
               d="m 0,0 c -1.014,1.055 -4.279,3.016 -5.79,4.305 -0.224,0.191 2.318,-4.131 2.599,-6.499 0.065,-0.556 -3.306,-2.503 -4.699,-3.771 -0.688,-0.626 -0.716,-1.964 0.275,-1.626 0.992,0.339 2.007,0.135 3.268,0.605 3.885,1.447 7.493,2.418 6.06,4.975 0,0 -1.256,1.534 -1.713,2.011"
               inkscape:connector-curvature="0" /></g><g
             transform="translate(91.8594,376.7373)"
             id="g690"><path
               id="path692"
               style="fill:#841e71;fill-opacity:1;fill-rule:nonzero;stroke:none"
               d="m 0,0 c 0.199,-1.489 0.217,-3.14 0.614,-4.587 0.518,-1.88 3.568,-3.899 4.869,-5.217 1.213,-1.226 2.339,-2.52 3.267,-3.978 1.523,-2.396 -2.204,-4.145 -3.559,-5.113 -2.941,-2.099 -6.136,-3.998 -8.589,-6.675 -0.653,-0.712 0.406,-1.776 1.06,-1.061 2.978,3.249 7.062,5.312 10.486,8.052 1.745,1.394 3.008,2.341 2.337,4.628 -0.774,2.638 -3.714,4.999 -5.567,6.839 C 2.434,-4.646 1.958,-3.42 1.5,0 1.373,0.944 -0.128,0.956 0,0"
               inkscape:connector-curvature="0" /></g><g
             id="g694"><g
               id="g696" /><g
               id="g702"><g
                 id="g704"
                 clip-path="url(#clipPath698)"
                 style="opacity:0.30000299"><g
                   id="g706"
                   transform="translate(151.6914,286.5039)"><path
                     id="path708"
                     style="fill:#000000;fill-opacity:1;fill-rule:nonzero;stroke:none"
                     d="m 0,0 c 4.88,8.656 15.744,38.987 11.01,46.514 -2.353,3.865 -2.864,10.571 -6.904,12.811 -5.519,3.488 -11.782,3.744 -14.092,-1.304 -0.52,-1.136 3.331,-7.225 3.147,-8.46 C -7.641,44.146 -6.91,36.606 -7.212,34.505 -7.859,29.979 -12.071,17.858 -14.983,10.913 -18.247,4.414 -5.564,-9.871 0,0"
                     inkscape:connector-curvature="0" /></g></g></g></g><g
             transform="translate(180.373,305.8945)"
             id="g710"><path
               id="path712"
               style="fill:#aa3188;fill-opacity:1;fill-rule:nonzero;stroke:none"
               d="m 0,0 c -2.119,8.399 -6.764,22.348 -11.497,29.876 -2.354,3.865 -4.938,7.555 -8.977,9.795 -5.52,3.488 -11.783,3.744 -14.092,-1.303 -0.521,-1.138 3.33,-7.224 3.146,-8.462 -0.802,-5.414 -0.071,-12.952 -0.373,-15.055 -0.646,-4.524 -4.86,-16.647 -7.771,-23.592 -2.936,0.251 -7.067,0.145 -9.099,1.318 -2.398,1.38 -3.408,6.887 -6.796,3.948 -6.312,-5.481 -1.818,-10.221 -0.541,-12.895 0.883,-1.705 3.828,-2.672 6.027,-3.836 -5.397,-4.593 -11.588,-9.724 -13.238,-11.011 -3.157,-2.461 -4.463,-7.975 1.711,-9.793 1.102,-0.4 2.012,-0.627 2.754,-0.734 -4.474,-3.724 -10.805,-10.057 -2.293,-13.447 2.732,-0.918 6.142,0.099 8.767,1.358 -6.188,-6.646 -2.084,-16.473 3.762,-13.876 0.629,0.308 1.222,0.617 1.782,0.93 -0.404,-0.477 -0.743,-0.864 -0.977,-1.115 -2.819,-3.021 -1.051,-11.68 5.314,-9.27 4.912,2.409 20.61,23.618 24.098,27.684 3.691,4.038 9.563,7.349 12.702,11.88 C 0.543,-28.099 2.786,-10.984 0,0"
               inkscape:connector-curvature="0" /></g><g
             transform="translate(181.0967,306.0938)"
             id="g714"><path
               id="path716"
               style="fill:#930628;fill-opacity:1;fill-rule:nonzero;stroke:none"
               d="m 0,0 c -2.474,9.585 -5.671,19.199 -10.342,27.953 -3.918,7.343 -10.527,15.241 -19.685,14.769 -2.367,-0.122 -5.327,-1.953 -5.987,-4.354 -0.626,-2.275 2.097,-5.826 2.898,-7.764 0.724,-1.754 -0.123,-4.835 -0.163,-6.739 -0.055,-2.581 0.079,-5.164 0.09,-7.744 0.016,-4.498 -2.123,-9.317 -3.544,-13.505 -0.761,-2.239 -1.58,-4.458 -2.414,-6.671 -1.292,-3.429 -1.516,-4.115 -5.315,-3.881 -3.755,0.233 -5.163,1.449 -7.304,4.286 -0.665,0.88 -1.38,1.337 -2.44,1.549 -2.232,0.448 -4.999,-3.336 -5.516,-5.034 -0.965,-3.171 -0.026,-5.669 1.584,-8.437 0.704,-1.21 1.255,-2.138 2.35,-3.022 1.976,-1.593 4.821,-1.065 2.033,-3.423 -3.537,-2.992 -7.076,-5.993 -10.71,-8.869 -1.727,-1.367 -3.331,-4.006 -2.804,-6.307 0.842,-3.676 4.237,-4.777 7.6,-5.474 L -60,-41.413 c -3.106,-2.639 -7.841,-6.552 -6.348,-11.169 1.834,-5.672 9.984,-3.741 13.731,-2.098 -0.304,0.393 -0.607,0.785 -0.909,1.178 -2.663,-3.224 -4.698,-8.214 -2.368,-12.255 2.182,-3.782 5.264,-3.787 8.822,-1.869 -0.304,0.393 -0.607,0.785 -0.909,1.178 -4.033,-4.597 -2.601,-13.875 5.066,-11.639 2.71,0.791 5.28,4.507 7.043,6.467 3.822,4.252 7.364,8.762 10.905,13.248 2.427,3.075 4.715,6.342 7.446,9.157 4.422,4.561 9.936,7.479 13.109,13.185 C 1.348,-25.671 2.659,-11.423 0,0 c -0.22,0.942 -1.666,0.543 -1.447,-0.398 2.309,-9.917 1.119,-20.631 -2.195,-30.18 -3.308,-9.534 -11.802,-13.369 -17.741,-20.829 -4.442,-5.581 -8.784,-11.238 -13.398,-16.68 -2.073,-2.444 -4.209,-4.851 -6.561,-7.031 -5.604,-5.195 -9.81,2.786 -5.579,7.609 0.559,0.637 -0.14,1.593 -0.909,1.178 -8.659,-4.669 -8.274,7.366 -4.636,11.768 0.56,0.677 -0.123,1.523 -0.909,1.178 -1.731,-0.862 -3.56,-1.392 -5.483,-1.592 -3.89,-0.507 -7.355,3.127 -5.504,6.735 1.176,2.29 3.497,4.133 5.423,5.768 0.42,0.357 0.2,1.144 -0.332,1.254 -3.805,0.788 -8.043,2.761 -5.836,7.317 0.696,1.439 2.3,2.428 3.505,3.408 3.854,3.136 7.649,6.344 11.436,9.559 0.355,0.302 0.261,0.973 -0.151,1.178 -2.618,1.298 -4.993,2.312 -6.526,4.944 -0.64,1.097 -1.172,2.121 -1.602,3.336 -1.227,3.461 3.49,9.858 6.526,5.494 2.706,-3.891 7.332,-3.412 11.631,-3.706 0.359,-0.025 0.6,0.253 0.724,0.55 3.04,7.36 6.034,15.039 7.647,22.858 0.673,3.257 0.129,6.849 0.138,10.147 0.008,3.42 0.719,5.904 -0.713,9.023 -1.042,2.268 -2.905,4.31 -0.939,6.711 2.582,3.15 7.667,1.372 10.571,-0.029 5.238,-2.526 8.451,-7.483 11.223,-12.374 C -6.85,18.749 -3.863,8.967 -1.447,-0.398 -1.205,-1.335 0.241,-0.938 0,0"
               inkscape:connector-curvature="0" /></g><g
             transform="translate(162.4922,318.0078)"
             id="g718"><path
               id="path720"
               style="fill:#7f246a;fill-opacity:1;fill-rule:nonzero;stroke:none"
               d="m 0,0 c -0.979,-4.548 -0.572,-10.301 -4.089,-16.959 -1.484,-2.812 -19.797,-19.951 -20.682,-24.126 -0.789,-3.713 16.695,4.356 16.083,1.433 -1.023,-4.898 -18.766,-12.88 -16.115,-26.06 5.696,0.638 16.431,10.137 21.283,12.139 0.144,-4.793 -7.006,-16.328 -8.49,-20.89 4.911,2.412 8.11,8.804 11.598,12.869 3.691,4.038 9.562,7.35 12.702,11.881 6.134,9.501 8.377,26.615 5.591,37.6 -2.119,8.399 -6.764,22.347 -11.497,29.876 -2.354,3.865 -4.938,7.554 -8.977,9.795 -5.52,3.488 -3.472,0.894 -5.784,-4.155 C -8.896,22.268 0.447,2.078 0,0"
               inkscape:connector-curvature="0" /></g><g
             transform="translate(137.1104,372.7148)"
             id="g722"><path
               id="path724"
               style="fill:#aa729a;fill-opacity:1;fill-rule:nonzero;stroke:none"
               d="M 0,0 C -0.002,-0.021 0,-0.04 -0.001,-0.061 0.044,-0.054 0.09,-0.046 0.136,-0.038 0.09,-0.024 0.046,-0.011 0,0"
               inkscape:connector-curvature="0" /></g><g
             transform="translate(154.7832,368.7842)"
             id="g726"><path
               id="path728"
               style="fill:#aa729a;fill-opacity:1;fill-rule:nonzero;stroke:none"
               d="m 0,0 c -0.794,0.252 -1.567,0.64 -2.053,1.124 0.91,0.562 2.035,0.678 3.159,0.793 C 0.002,2.906 -3.95,2.364 -1.527,4.785 -2.109,4.592 -2.923,4.708 -3.621,4.67 -3.949,6.239 -4.879,4.573 -5.479,5.213 c -0.446,0.755 -0.019,1.802 0.097,2.615 -2.887,0.137 -2.053,4.029 -1.51,5.889 -0.988,-0.135 -1.976,-1.238 -2.906,-1.936 0.02,1.104 0.969,1.937 1.628,2.673 -0.678,0.097 -1.685,-0.174 -2.362,-0.077 0.232,2.596 3.641,3.215 4.883,5.112 -2.364,0.893 -3.372,-0.346 -5.309,-1.314 0.349,0.503 0.465,1.316 0.814,1.82 -1.027,-0.406 -2.092,-1.085 -3.275,-1.606 -0.968,1.937 -2.305,0.33 -3.234,-0.368 -0.407,1.027 -1.104,1.958 -2.169,2.249 -0.015,-0.104 -0.073,-0.22 -0.138,-0.341 0.316,-0.925 0.505,-1.888 0.553,-2.842 -0.727,0.458 -1.465,0.711 -2.358,0.7 0.687,-1.073 3.424,-1.181 3.525,-2.834 0.079,-0.897 -1.005,-0.69 -1.848,-0.979 -0.773,-0.294 -1.619,-0.652 -2.192,-1.027 1.451,-0.916 3.236,-0.893 4.696,-1.674 -0.676,-0.918 -2.385,-0.807 -3.13,-1.72 1.162,-0.074 2.419,0.256 3.572,0.045 2.781,-0.522 0.788,-1.629 -0.047,-2.879 0.725,-0.458 1.751,-0.525 2.635,-0.65 1.088,-0.138 2.2,0.065 1.698,-1.344 -0.172,-0.538 -1.631,-1.886 -1.525,-2.373 0.166,-0.628 -0.876,-0.45 -0.585,-0.353 -0.078,-0.542 0.077,-1.395 -0.001,-1.936 0.311,0.232 1.279,0.231 1.88,0.561 0.154,-0.853 -0.098,-1.647 -0.35,-2.441 0.407,-0.058 1.202,-0.311 1.627,-0.234 0.019,-0.832 -0.271,-1.897 0.019,-2.769 0.291,0.096 0.853,0.155 1.143,0.252 0.407,-1.028 0.096,-2.229 0.502,-3.256 1.202,0.659 1.686,2.111 2.384,3.118 -0.077,-0.541 -0.213,-1.491 -0.31,-2.169 0.155,0.116 0.33,0.367 0.484,0.483 0.795,-1.219 1.22,-3.08 2.324,-4.067 0.446,1.181 -0.599,2.576 -0.851,3.72 0.386,-0.196 0.929,-0.273 1.317,-0.466 0.775,1.549 -0.677,3.972 -1.122,5.695 1.413,0.212 2.964,0.406 4.437,0.057 -0.33,0.6 -1.086,1.124 -1.57,1.608 C -1.49,0.213 -0.658,0.232 0,0"
               inkscape:connector-curvature="0" /></g></g></g><g
         id="g730"><g
           clip-path="url(#clipPath734)"
           id="g732"><g
             transform="translate(203,361.1172)"
             id="g738"><path
               id="path740"
               style="fill:none;stroke:#ffffff;stroke-width:5;stroke-linecap:butt;stroke-linejoin:miter;stroke-miterlimit:10;stroke-opacity:1;stroke-dasharray:none"
               d="m 0,0 c 0,-42.802 -34.698,-77.5 -77.5,-77.5 -42.802,0 -77.5,34.698 -77.5,77.5 0,42.802 34.698,77.5 77.5,77.5 C -34.698,77.5 0,42.802 0,0 z"
               inkscape:connector-curvature="0" /></g></g></g></g></g></svg>