<?xml version="1.0" encoding="UTF-8" standalone="no"?>
<!-- Created with Inkscape (http://www.inkscape.org/) -->

<svg
   xmlns:dc="http://purl.org/dc/elements/1.1/"
   xmlns:cc="http://creativecommons.org/ns#"
   xmlns:rdf="http://www.w3.org/1999/02/22-rdf-syntax-ns#"
   xmlns:svg="http://www.w3.org/2000/svg"
   xmlns="http://www.w3.org/2000/svg"
   xmlns:sodipodi="http://sodipodi.sourceforge.net/DTD/sodipodi-0.dtd"
   xmlns:inkscape="http://www.inkscape.org/namespaces/inkscape"
   id="svg2"
   version="1.1"
   inkscape:version="0.48.2 r9819"
   width="200"
   height="280"
   xml:space="preserve"
   sodipodi:docname="animal-bird.svg"><metadata
     id="metadata8"><rdf:RDF><cc:Work
         rdf:about=""><dc:format>image/svg+xml</dc:format><dc:type
           rdf:resource="http://purl.org/dc/dcmitype/StillImage" /><dc:title></dc:title></cc:Work></rdf:RDF></metadata><defs
     id="defs6"><clipPath
       clipPathUnits="userSpaceOnUse"
       id="clipPath18"><path
         d="m 0,1536 2048,0 L 2048,0 0,0 0,1536 z"
         id="path20"
         inkscape:connector-curvature="0" /></clipPath><clipPath
       clipPathUnits="userSpaceOnUse"
       id="clipPath1344"><path
         d="m 0,1536 2048,0 L 2048,0 0,0 0,1536 z"
         id="path1346"
         inkscape:connector-curvature="0" /></clipPath><clipPath
       clipPathUnits="userSpaceOnUse"
       id="clipPath1368"><path
         d="m 0,1536 2048,0 L 2048,0 0,0 0,1536 z"
         id="path1370"
         inkscape:connector-curvature="0" /></clipPath><clipPath
       clipPathUnits="userSpaceOnUse"
       id="clipPath1424"><path
         d="m 0,1536 2048,0 L 2048,0 0,0 0,1536 z"
         id="path1426"
         inkscape:connector-curvature="0" /></clipPath><clipPath
       clipPathUnits="userSpaceOnUse"
       id="clipPath3004"><path
         d="m 0,1536 2048,0 L 2048,0 0,0 0,1536 z"
         id="path3006"
         inkscape:connector-curvature="0" /></clipPath><clipPath
       clipPathUnits="userSpaceOnUse"
       id="clipPath3064"><path
         d="m 611.262,1266.5 30.647,0 0,-34.39 -30.647,0 0,34.39 z"
         id="path3066"
         inkscape:connector-curvature="0" /></clipPath><clipPath
       clipPathUnits="userSpaceOnUse"
       id="clipPath3096"><path
         d="m 767.558,1245.81 30.647,0 0,-34.39 -30.647,0 0,34.39 z"
         id="path3098"
         inkscape:connector-curvature="0" /></clipPath><clipPath
       clipPathUnits="userSpaceOnUse"
       id="clipPath3128"><path
         d="m 1107.38,1247.01 30.65,0 0,-34.39 -30.65,0 0,34.39 z"
         id="path3130"
         inkscape:connector-curvature="0" /></clipPath><clipPath
       clipPathUnits="userSpaceOnUse"
       id="clipPath3160"><path
         d="m 919.184,1250.86 30.647,0 0,-34.39 -30.647,0 0,34.39 z"
         id="path3162"
         inkscape:connector-curvature="0" /></clipPath><clipPath
       clipPathUnits="userSpaceOnUse"
       id="clipPath3192"><path
         d="m 1277.88,1248.99 25.91,0 0,-36.93 -25.91,0 0,36.93 z"
         id="path3194"
         inkscape:connector-curvature="0" /></clipPath><clipPath
       clipPathUnits="userSpaceOnUse"
       id="clipPath3224"><path
         d="m 1439.02,1258.03 25.91,0 0,-36.93 -25.91,0 0,36.93 z"
         id="path3226"
         inkscape:connector-curvature="0" /></clipPath><clipPath
       clipPathUnits="userSpaceOnUse"
       id="clipPath3388"><path
         d="m 0,1536 2048,0 L 2048,0 0,0 0,1536 z"
         id="path3390"
         inkscape:connector-curvature="0" /></clipPath><clipPath
       clipPathUnits="userSpaceOnUse"
       id="clipPath3424"><path
         d="m 1761.68,1506.2 30.64,0 0,-34.4 -30.64,0 0,34.4 z"
         id="path3426"
         inkscape:connector-curvature="0" /></clipPath><clipPath
       clipPathUnits="userSpaceOnUse"
       id="clipPath3444"><path
         d="m 1815.85,1526.96 30.65,0 0,-34.4 -30.65,0 0,34.4 z"
         id="path3446"
         inkscape:connector-curvature="0" /></clipPath><clipPath
       clipPathUnits="userSpaceOnUse"
       id="clipPath3464"><path
         d="m 1867.85,1550.5 30.65,0 0,-34.39 -30.65,0 0,34.39 z"
         id="path3466"
         inkscape:connector-curvature="0" /></clipPath><clipPath
       clipPathUnits="userSpaceOnUse"
       id="clipPath3484"><path
         d="m 1912.11,1476.5 30.65,0 0,-34.39 -30.65,0 0,34.39 z"
         id="path3486"
         inkscape:connector-curvature="0" /></clipPath><clipPath
       clipPathUnits="userSpaceOnUse"
       id="clipPath3504"><path
         d="m 1864.17,1450.46 30.65,0 0,-34.4 -30.65,0 0,34.4 z"
         id="path3506"
         inkscape:connector-curvature="0" /></clipPath><clipPath
       clipPathUnits="userSpaceOnUse"
       id="clipPath3524"><path
         d="m 1815.85,1427.5 30.65,0 0,-34.39 -30.65,0 0,34.39 z"
         id="path3526"
         inkscape:connector-curvature="0" /></clipPath><clipPath
       clipPathUnits="userSpaceOnUse"
       id="clipPath3544"><path
         d="m 1768.76,1411.38 30.65,0 0,-34.4 -30.65,0 0,34.4 z"
         id="path3546"
         inkscape:connector-curvature="0" /></clipPath><clipPath
       clipPathUnits="userSpaceOnUse"
       id="clipPath3564"><path
         d="m 1746.35,1363 30.65,0 0,-34.39 -30.65,0 0,34.39 z"
         id="path3566"
         inkscape:connector-curvature="0" /></clipPath><clipPath
       clipPathUnits="userSpaceOnUse"
       id="clipPath3584"><path
         d="m 1797.17,1339.78 30.65,0 0,-34.39 -30.65,0 0,34.39 z"
         id="path3586"
         inkscape:connector-curvature="0" /></clipPath><clipPath
       clipPathUnits="userSpaceOnUse"
       id="clipPath3604"><path
         d="m 1855.65,1330.5 30.65,0 0,-34.39 -30.65,0 0,34.39 z"
         id="path3606"
         inkscape:connector-curvature="0" /></clipPath><clipPath
       clipPathUnits="userSpaceOnUse"
       id="clipPath3624"><path
         d="m 1912.11,1323.5 30.65,0 0,-34.39 -30.65,0 0,34.39 z"
         id="path3626"
         inkscape:connector-curvature="0" /></clipPath><clipPath
       clipPathUnits="userSpaceOnUse"
       id="clipPath3644"><path
         d="m 1962.35,1323.5 30.65,0 0,-34.39 -30.65,0 0,34.39 z"
         id="path3646"
         inkscape:connector-curvature="0" /></clipPath><clipPath
       clipPathUnits="userSpaceOnUse"
       id="clipPath3664"><path
         d="m 1971.35,1266.5 30.65,0 0,-34.39 -30.65,0 0,34.39 z"
         id="path3666"
         inkscape:connector-curvature="0" /></clipPath><clipPath
       clipPathUnits="userSpaceOnUse"
       id="clipPath3684"><path
         d="m 1927.75,1235 30.65,0 0,-34.39 -30.65,0 0,34.39 z"
         id="path3686"
         inkscape:connector-curvature="0" /></clipPath><clipPath
       clipPathUnits="userSpaceOnUse"
       id="clipPath3704"><path
         d="m 1874.29,1206.5 30.64,0 0,-34.39 -30.64,0 0,34.39 z"
         id="path3706"
         inkscape:connector-curvature="0" /></clipPath><clipPath
       clipPathUnits="userSpaceOnUse"
       id="clipPath3724"><path
         d="m 1822.02,1177 30.64,0 0,-34.39 -30.64,0 0,34.39 z"
         id="path3726"
         inkscape:connector-curvature="0" /></clipPath><clipPath
       clipPathUnits="userSpaceOnUse"
       id="clipPath3744"><path
         d="m 1822.02,1008.75 30.64,0 0,-34.393 -30.64,0 0,34.393 z"
         id="path3746"
         inkscape:connector-curvature="0" /></clipPath><clipPath
       clipPathUnits="userSpaceOnUse"
       id="clipPath3764"><path
         d="m 1868.85,1043 30.65,0 0,-34.39 -30.65,0 0,34.39 z"
         id="path3766"
         inkscape:connector-curvature="0" /></clipPath><clipPath
       clipPathUnits="userSpaceOnUse"
       id="clipPath3784"><path
         d="m 1916.35,1076.89 30.65,0 0,-34.39 -30.65,0 0,34.39 z"
         id="path3786"
         inkscape:connector-curvature="0" /></clipPath><clipPath
       clipPathUnits="userSpaceOnUse"
       id="clipPath3804"><path
         d="m 1962.35,1110 30.65,0 0,-34.39 -30.65,0 0,34.39 z"
         id="path3806"
         inkscape:connector-curvature="0" /></clipPath><clipPath
       clipPathUnits="userSpaceOnUse"
       id="clipPath3824"><path
         d="m 2000.35,1142 30.65,0 0,-34.39 -30.65,0 0,34.39 z"
         id="path3826"
         inkscape:connector-curvature="0" /></clipPath><clipPath
       clipPathUnits="userSpaceOnUse"
       id="clipPath3844"><path
         d="m 1981.35,942.5 30.65,0 0,-34.395 -30.65,0 0,34.395 z"
         id="path3846"
         inkscape:connector-curvature="0" /></clipPath><clipPath
       clipPathUnits="userSpaceOnUse"
       id="clipPath3864"><path
         d="m 1932.85,920.5 30.65,0 0,-34.395 -30.65,0 0,34.395 z"
         id="path3866"
         inkscape:connector-curvature="0" /></clipPath><clipPath
       clipPathUnits="userSpaceOnUse"
       id="clipPath3884"><path
         d="m 1887.85,901.5 30.65,0 0,-34.395 -30.65,0 0,34.395 z"
         id="path3886"
         inkscape:connector-curvature="0" /></clipPath><clipPath
       clipPathUnits="userSpaceOnUse"
       id="clipPath3904"><path
         d="m 1836.85,882 30.65,0 0,-34.395 -30.65,0 0,34.395 z"
         id="path3906"
         inkscape:connector-curvature="0" /></clipPath><clipPath
       clipPathUnits="userSpaceOnUse"
       id="clipPath3944"><path
         d="m 186.853,1503.5 30.647,0 0,-34.39 -30.647,0 0,34.39 z"
         id="path3946"
         inkscape:connector-curvature="0" /></clipPath><clipPath
       clipPathUnits="userSpaceOnUse"
       id="clipPath3964"><path
         d="m 122.353,1531 30.647,0 0,-34.39 -30.647,0 0,34.39 z"
         id="path3966"
         inkscape:connector-curvature="0" /></clipPath><clipPath
       clipPathUnits="userSpaceOnUse"
       id="clipPath3984"><path
         d="m 63.3525,1546.39 30.6475,0 0,-34.39 -30.6475,0 0,34.39 z"
         id="path3986"
         inkscape:connector-curvature="0" /></clipPath><clipPath
       clipPathUnits="userSpaceOnUse"
       id="clipPath4004"><path
         d="m 195.349,1385.5 30.647,0 0,-34.39 -30.647,0 0,34.39 z"
         id="path4006"
         inkscape:connector-curvature="0" /></clipPath><clipPath
       clipPathUnits="userSpaceOnUse"
       id="clipPath4024"><path
         d="m 147.6,1359.5 30.647,0 0,-34.39 -30.647,0 0,34.39 z"
         id="path4026"
         inkscape:connector-curvature="0" /></clipPath><clipPath
       clipPathUnits="userSpaceOnUse"
       id="clipPath4044"><path
         d="m 79.3525,1332.47 30.6475,0 0,-34.39 -30.6475,0 0,34.39 z"
         id="path4046"
         inkscape:connector-curvature="0" /></clipPath><clipPath
       clipPathUnits="userSpaceOnUse"
       id="clipPath4064"><path
         d="m 84.8525,1207.3 30.6475,0 0,-34.39 -30.6475,0 0,34.39 z"
         id="path4066"
         inkscape:connector-curvature="0" /></clipPath><clipPath
       clipPathUnits="userSpaceOnUse"
       id="clipPath4084"><path
         d="m 147.6,1193.5 30.647,0 0,-34.39 -30.647,0 0,34.39 z"
         id="path4086"
         inkscape:connector-curvature="0" /></clipPath><clipPath
       clipPathUnits="userSpaceOnUse"
       id="clipPath4104"><path
         d="m 219.493,1184.98 30.647,0 0,-34.39 -30.647,0 0,34.39 z"
         id="path4106"
         inkscape:connector-curvature="0" /></clipPath><clipPath
       clipPathUnits="userSpaceOnUse"
       id="clipPath4124"><path
         d="m 223.353,1039.5 30.647,0 0,-34.39 -30.647,0 0,34.39 z"
         id="path4126"
         inkscape:connector-curvature="0" /></clipPath><clipPath
       clipPathUnits="userSpaceOnUse"
       id="clipPath4144"><path
         d="m 164.125,1058.5 30.647,0 0,-34.39 -30.647,0 0,34.39 z"
         id="path4146"
         inkscape:connector-curvature="0" /></clipPath><clipPath
       clipPathUnits="userSpaceOnUse"
       id="clipPath4164"><path
         d="m 103.853,1075.7 30.647,0 0,-34.4 -30.647,0 0,34.4 z"
         id="path4166"
         inkscape:connector-curvature="0" /></clipPath><clipPath
       clipPathUnits="userSpaceOnUse"
       id="clipPath4184"><path
         d="m 52.8213,1104.77 30.6475,0 0,-34.4 -30.6475,0 0,34.4 z"
         id="path4186"
         inkscape:connector-curvature="0" /></clipPath><clipPath
       clipPathUnits="userSpaceOnUse"
       id="clipPath4204"><path
         d="m 67.7275,979.697 30.6475,0 0,-34.394 -30.6475,0 0,34.394 z"
         id="path4206"
         inkscape:connector-curvature="0" /></clipPath><clipPath
       clipPathUnits="userSpaceOnUse"
       id="clipPath4224"><path
         d="m 122.853,951.5 30.647,0 0,-34.395 -30.647,0 0,34.395 z"
         id="path4226"
         inkscape:connector-curvature="0" /></clipPath><clipPath
       clipPathUnits="userSpaceOnUse"
       id="clipPath4244"><path
         d="m 188.853,941.5 30.647,0 0,-34.395 -30.647,0 0,34.395 z"
         id="path4246"
         inkscape:connector-curvature="0" /></clipPath><clipPath
       clipPathUnits="userSpaceOnUse"
       id="clipPath4264"><path
         d="m 249.853,941.5 30.647,0 0,-34.395 -30.647,0 0,34.395 z"
         id="path4266"
         inkscape:connector-curvature="0" /></clipPath><clipPath
       clipPathUnits="userSpaceOnUse"
       id="clipPath4280"><path
         d="m 0,1536 2048,0 L 2048,0 0,0 0,1536 z"
         id="path4282"
         inkscape:connector-curvature="0" /></clipPath><clipPath
       clipPathUnits="userSpaceOnUse"
       id="clipPath4296"><path
         d="m 1559.35,1313.59 110.5,0 0,-122.02 -110.5,0 0,122.02 z"
         id="path4298"
         inkscape:connector-curvature="0" /></clipPath><clipPath
       clipPathUnits="userSpaceOnUse"
       id="clipPath4312"><path
         d="m 1610.37,1351.76 49.6,0 0,-62.56 -49.6,0 0,62.56 z"
         id="path4314"
         inkscape:connector-curvature="0" /></clipPath><clipPath
       clipPathUnits="userSpaceOnUse"
       id="clipPath4336"><path
         d="m 362.812,1344.69 111.164,0 0,-119.41 -111.164,0 0,119.41 z"
         id="path4338"
         inkscape:connector-curvature="0" /></clipPath><clipPath
       clipPathUnits="userSpaceOnUse"
       id="clipPath4352"><path
         d="m 414.101,1391.91 42.049,0 0,-69.16 -42.049,0 0,69.16 z"
         id="path4354"
         inkscape:connector-curvature="0" /></clipPath><clipPath
       clipPathUnits="userSpaceOnUse"
       id="clipPath4368"><path
         d="m 0,1536 2048,0 L 2048,0 0,0 0,1536 z"
         id="path4370"
         inkscape:connector-curvature="0" /></clipPath><clipPath
       clipPathUnits="userSpaceOnUse"
       id="clipPath4408"><path
         d="m 925.334,1463.92 313.186,0 0,-311.53 -313.186,0 0,311.53 z"
         id="path4410"
         inkscape:connector-curvature="0" /></clipPath><clipPath
       clipPathUnits="userSpaceOnUse"
       id="clipPath4428"><path
         d="m 0,1536 2048,0 L 2048,0 0,0 0,1536 z"
         id="path4430"
         inkscape:connector-curvature="0" /></clipPath><clipPath
       clipPathUnits="userSpaceOnUse"
       id="clipPath8244"><path
         d="m 0,1536 2048,0 L 2048,0 0,0 0,1536 z"
         id="path8246"
         inkscape:connector-curvature="0" /></clipPath><clipPath
       clipPathUnits="userSpaceOnUse"
       id="clipPath8670"><path
         d="m 0,1536 2048,0 L 2048,0 0,0 0,1536 z"
         id="path8672"
         inkscape:connector-curvature="0" /></clipPath><clipPath
       clipPathUnits="userSpaceOnUse"
       id="clipPath8678"><path
         d="m 60.0376,1304.57 119.0554,0 0,-209.78 -119.0554,0 0,209.78 z"
         id="path8680"
         inkscape:connector-curvature="0" /></clipPath><clipPath
       clipPathUnits="userSpaceOnUse"
       id="clipPath8706"><path
         d="m 61.8003,1265.87 38.0488,0 0,-103.11 -38.0488,0 0,103.11 z"
         id="path8708"
         inkscape:connector-curvature="0" /></clipPath><clipPath
       clipPathUnits="userSpaceOnUse"
       id="clipPath8794"><path
         d="m 118.674,1228.21 30.767,0 0,-72.51 -30.767,0 0,72.51 z"
         id="path8796"
         inkscape:connector-curvature="0" /></clipPath><clipPath
       clipPathUnits="userSpaceOnUse"
       id="clipPath8832"><path
         d="m 37.548,1346.68 151.654,0 0,151.653 -151.654,0 0,-151.653 z"
         id="path8834"
         inkscape:connector-curvature="0" /></clipPath><clipPath
       clipPathUnits="userSpaceOnUse"
       id="clipPath8888"><path
         d="m 0,1536 2048,0 L 2048,0 0,0 0,1536 z"
         id="path8890"
         inkscape:connector-curvature="0" /></clipPath><clipPath
       clipPathUnits="userSpaceOnUse"
       id="clipPath8896"><path
         d="m 48.686,1488.27 141.732,0 0,-140.89 -141.732,0 0,140.89 z"
         id="path8898"
         inkscape:connector-curvature="0" /></clipPath></defs><sodipodi:namedview
     pagecolor="#ffffff"
     bordercolor="#666666"
     borderopacity="1"
     objecttolerance="10"
     gridtolerance="10"
     guidetolerance="10"
     inkscape:pageopacity="0"
     inkscape:pageshadow="2"
     inkscape:window-width="1600"
     inkscape:window-height="837"
     id="namedview4"
     showgrid="false"
     inkscape:zoom="2.16"
     inkscape:cx="88.657407"
     inkscape:cy="150"
     inkscape:window-x="-8"
     inkscape:window-y="-8"
     inkscape:window-maximized="1"
     inkscape:current-layer="g10" /><g
     id="g10"
     inkscape:groupmode="layer"
     inkscape:label="screen__wald_cs5"
     transform="matrix(1.25,0,0,-1.25,0,280)"><g
       id="g8221"
       transform="translate(-33.386,-1279.067)"><path
         inkscape:connector-curvature="0"
         id="path8826"
         style="fill:#acdef9;fill-opacity:1;fill-rule:nonzero;stroke:#ffffff;stroke-width:5;stroke-linecap:butt;stroke-linejoin:miter;stroke-miterlimit:10;stroke-opacity:1;stroke-dasharray:none"
         d="m 191.339,1344.661 -155.906,0 0,155.906 155.906,0 0,-155.906 z" /><g
         id="g8828"><g
           clip-path="url(#clipPath8832)"
           id="g8830"><g
             transform="translate(113.5762,1548.5376)"
             id="g8836"><path
               id="path8838"
               style="fill:#ffff00;fill-opacity:1;fill-rule:nonzero;stroke:none"
               d="M 0,0 0.007,-126.432 26.992,-4.848 0,0 z"
               inkscape:connector-curvature="0" /></g><g
             transform="translate(50.625,1531.5952)"
             id="g8840"><path
               id="path8842"
               style="fill:#ffff00;fill-opacity:1;fill-rule:nonzero;stroke:none"
               d="M 0,0 62.958,-109.489 25.79,9.354 0,0 z"
               inkscape:connector-curvature="0" /></g><g
             transform="translate(4.5439,1485.3154)"
             id="g8844"><path
               id="path8846"
               style="fill:#ffff00;fill-opacity:1;fill-rule:nonzero;stroke:none"
               d="M 0,0 109.04,-63.209 17.677,21.05 0,0 z"
               inkscape:connector-curvature="0" /></g><g
             transform="translate(-12.3203,1422.0986)"
             id="g8848"><path
               id="path8850"
               style="fill:#ffff00;fill-opacity:1;fill-rule:nonzero;stroke:none"
               d="M 0,0 125.904,0.007 4.828,27.105 0,0 z"
               inkscape:connector-curvature="0" /></g><g
             transform="translate(4.5518,1358.8843)"
             id="g8852"><path
               id="path8854"
               style="fill:#ffff00;fill-opacity:1;fill-rule:nonzero;stroke:none"
               d="M 0,0 109.032,63.222 -9.316,25.898 0,0 z"
               inkscape:connector-curvature="0" /></g><g
             transform="translate(50.6382,1312.6099)"
             id="g8856"><path
               id="path8858"
               style="fill:#ffff00;fill-opacity:1;fill-rule:nonzero;stroke:none"
               d="M 0,0 62.945,109.496 -20.962,17.751 0,0 z"
               inkscape:connector-curvature="0" /></g><g
             transform="translate(113.5908,1295.6753)"
             id="g8860"><path
               id="path8862"
               style="fill:#ffff00;fill-opacity:1;fill-rule:nonzero;stroke:none"
               d="M 0,0 -0.007,126.431 -26.993,4.847 0,0 z"
               inkscape:connector-curvature="0" /></g><g
             transform="translate(176.5415,1312.6177)"
             id="g8864"><path
               id="path8866"
               style="fill:#ffff00;fill-opacity:1;fill-rule:nonzero;stroke:none"
               d="M 0,0 -62.958,109.488 -25.79,-9.355 0,0 z"
               inkscape:connector-curvature="0" /></g><g
             transform="translate(222.6226,1358.897)"
             id="g8868"><path
               id="path8870"
               style="fill:#ffff00;fill-opacity:1;fill-rule:nonzero;stroke:none"
               d="M 0,0 -109.039,63.209 -17.677,-21.05 0,0 z"
               inkscape:connector-curvature="0" /></g><g
             transform="translate(239.4863,1422.1133)"
             id="g8872"><path
               id="path8874"
               style="fill:#ffff00;fill-opacity:1;fill-rule:nonzero;stroke:none"
               d="M 0,0 -125.903,-0.007 -4.827,-27.105 0,0 z"
               inkscape:connector-curvature="0" /></g><g
             transform="translate(222.6152,1485.3276)"
             id="g8876"><path
               id="path8878"
               style="fill:#ffff00;fill-opacity:1;fill-rule:nonzero;stroke:none"
               d="M 0,0 -109.032,-63.222 9.315,-25.897 0,0 z"
               inkscape:connector-curvature="0" /></g><g
             transform="translate(176.5283,1531.6021)"
             id="g8880"><path
               id="path8882"
               style="fill:#ffff00;fill-opacity:1;fill-rule:nonzero;stroke:none"
               d="M 0,0 -62.945,-109.496 20.963,-17.75 0,0 z"
               inkscape:connector-curvature="0" /></g></g></g><g
         id="g8884"><g
           clip-path="url(#clipPath8888)"
           id="g8886"><g
             id="g8892"><g
               id="g8894" /><g
               id="g8900"><g
                 id="g8902"
                 clip-path="url(#clipPath8896)"
                 style="opacity:0.60000598"><g
                   id="g8904"
                   transform="translate(95.6504,1470.2817)"><path
                     id="path8906"
                     style="fill:#1b0000;fill-opacity:1;fill-rule:nonzero;stroke:none"
                     d="M 0,0 C 0.124,-0.881 -0.016,-2.073 -0.268,-3.314 -2.41,-2.127 -2.557,4.376 -3.184,6.5 -3.119,6.532 -2.965,6.757 -2.785,7.06 -2.317,6.489 -1.76,5.946 -1.294,5.711 -0.688,5.406 -0.529,3.781 0,0 M 2.374,-0.673 C 1.846,1.613 1.647,4.289 1.408,5.488 1.618,5.569 2.905,7.492 2.956,8.092 3.009,8.717 2.958,9.269 2.835,9.756 2.9,9.666 2.963,9.568 3.021,9.447 3.997,7.418 3.437,2.489 2.374,-0.673 m 4.54,-0.399 C 6.189,2.695 5.872,7.734 6.16,9.106 6.624,8.664 7.201,8.624 7.516,7.785 8.196,5.971 7.767,1.896 6.914,-1.072 m 11.762,9.056 c 0.336,0.655 1.231,1.204 1.813,1.743 0.044,-0.099 0.084,-0.193 0.11,-0.28 C 20.721,9.03 20.222,2.55 19.305,-1.631 18.712,2.502 18.443,7.529 18.676,7.984 m 8.057,-1.787 c 0.392,0.61 1.037,0.809 1.645,1.017 C 28.493,7.021 28.61,6.825 28.722,6.574 29.258,5.36 28.191,0.575 27.211,-1.833 26.592,1.646 26.285,5.5 26.733,6.197 M 23.25,8.268 C 23.594,7.604 24.012,6.893 24.105,6.414 24.143,6.227 24.028,4.817 23.798,2.972 23.455,4.981 23.251,7.008 23.25,8.268 m -8.536,2.247 C 15.258,9.783 16.005,9.155 15.928,8.21 15.898,7.846 15.673,5.761 15.318,3.248 14.86,6.583 14.611,9.801 14.714,10.515 M 10.608,7.53 c 0.386,0.263 0.859,1.1 1.143,1.79 -0.162,-2.13 -0.573,-6.348 -1.163,-9.734 -0.39,3.707 -0.4,7.656 0.02,7.944 m 74.357,-119.777 c -7.03,4.153 -17.205,12.045 -25.272,25.966 -1.226,2.115 1.748,13.803 3.404,25.959 10e-4,0.007 0.004,0.012 0.005,0.019 0.198,1.659 0.737,4.196 1.292,6.856 1.924,2.576 3.884,5.444 4.907,7.689 0.268,0.128 0.387,0.461 0.387,0.95 0.323,0.911 0.434,1.674 0.236,2.199 -0.328,0.87 -0.846,1.6 -1.429,2.276 -0.797,2.084 -1.888,4.492 -2.956,6.731 -0.33,0.802 -0.694,1.567 -1.139,2.347 -1.029,2.089 -1.911,3.812 -2.299,4.625 -0.729,1.525 -11.181,9.614 -12.724,11.31 -1.773,1.95 -12.795,4.02 -14.406,4.128 -0.552,0.037 -1.908,0.661 -3.544,1.428 0.058,0.035 0.092,0.057 0.092,0.057 -0.167,0.453 -0.322,1.085 -0.459,1.832 0.248,0.146 0.379,0.231 0.379,0.231 l 0,0.584 c 0.503,0.999 0.354,2.292 0.051,3.39 -0.015,0.057 -0.034,0.101 -0.051,0.154 l 0,1.766 c 0,0 -0.289,-0.187 -0.826,-0.488 -0.042,0.032 -0.074,0.067 -0.12,0.098 -0.007,0.005 -0.016,0.006 -0.024,0.011 -0.166,3.829 0.068,7.719 0.979,8.629 0.896,0.895 3.01,2.235 3.24,2.947 0.666,2.063 -0.798,4.42 -3.269,4.42 -1.862,0 -2.944,-0.611 -3.426,-1.818 -0.483,0.307 -1.007,0.525 -1.534,0.603 -0.131,1.826 -2.203,3.502 -4.069,3.573 -1.001,0.037 -2.282,-0.833 -2.989,-1.875 -0.463,0.381 -1.026,0.657 -1.73,0.722 -0.376,0.034 -0.716,-0.019 -1.029,-0.124 -0.528,1.522 -1.688,3.028 -3.636,3.045 -2.38,0.02 -3.302,-2.865 -3.22,-4.046 C 9.549,14.033 9.302,14.095 9.034,14.104 8.39,14.127 7.733,13.978 7.159,13.688 6.58,15.216 5.457,16.292 4.016,16.225 2.101,16.135 0.165,14.654 0.631,12.394 c 0.004,-0.02 0.009,-0.035 0.013,-0.055 -0.487,0.214 -0.987,0.325 -1.435,0.336 -0.795,0.019 -1.384,-0.185 -1.833,-0.529 -0.917,1.292 -2.422,1.788 -3.556,1.721 -2.508,-0.147 -3.035,-2.112 -2.74,-4.42 0.077,-0.607 1.774,-2.505 2.874,-2.947 0.667,-0.268 0.988,-1.963 1.904,-5.893 0.197,-0.843 0.185,-1.981 0.069,-3.191 -0.039,-0.026 -0.077,-0.052 -0.113,-0.079 -0.686,0.38 -1.167,0.7 -1.399,0.913 l 0,-5.894 c 0.112,-0.103 0.3,-0.236 0.522,-0.383 -0.249,-1.012 -0.443,-1.68 -0.443,-1.68 0.123,-0.112 0.333,-0.261 0.589,-0.427 -3.01,-1.71 -6.367,-3.735 -7.096,-3.97 -2.303,-0.742 -9.159,-5.978 -10.999,-7.693 -1.677,-1.564 -7.282,-6.855 -8.763,-9.093 -1.432,-2.164 -5.355,-10.518 -6.218,-14.061 -0.342,-1.157 -0.577,-2.331 -0.659,-3.505 -0.036,-0.511 0.125,-1.555 0.435,-2.892 -0.226,-0.72 -0.38,-1.474 -0.435,-2.266 -0.018,-0.252 0.015,-0.641 0.087,-1.124 -2.31,-6.466 -4.256,-11.695 -4.902,-12.136 -1.898,-1.297 -1.282,-19.147 -3.438,-19.923 -0.894,-0.322 8.62,-18.104 11.785,-25.174 0.773,-1.728 0.809,-4.849 1.454,-10.932 l 128.434,0 c -0.388,0.141 -5.163,7.915 -9.803,10.656"
                     inkscape:connector-curvature="0" /></g></g></g></g><g
             transform="translate(180.418,1347.3789)"
             id="g8908"><path
               id="path8910"
               style="fill:#cc2f46;fill-opacity:1;fill-rule:nonzero;stroke:none"
               d="m 0,0 c -0.388,0.141 -5.162,7.915 -9.803,10.656 -7.03,4.153 -17.205,12.045 -25.271,25.966 -1.937,3.341 6.61,30.562 3.879,45.795 -2.052,11.437 -8.97,16.901 -10.91,17.101 -1.293,0.133 -43.609,-2.98 -44.893,-2.755 -1.48,0.259 -31.658,-1.099 -35.934,-2.221 -2.12,-0.557 -13.543,-37.311 -15.302,-38.513 -1.899,-1.298 -1.283,-19.147 -3.439,-19.923 -0.893,-0.322 8.62,-18.105 11.785,-25.174 0.774,-1.728 0.81,-4.849 1.454,-10.932"
               inkscape:connector-curvature="0" /></g><g
             transform="translate(180.6831,1347.644)"
             id="g8912"><path
               id="path8914"
               style="fill:#930628;fill-opacity:1;fill-rule:nonzero;stroke:none"
               d="m 0,0 c -2.889,2.769 -4.792,6.458 -7.819,9.21 -3.678,3.344 -8.394,5.604 -12.198,8.898 -5.107,4.424 -9.395,9.705 -13.102,15.331 -2.854,4.332 -2.001,7.502 -1.168,12.437 1.709,10.112 3.849,20.227 3.731,30.532 -0.089,7.734 -2.768,17.475 -9.526,22.121 -3.116,2.142 -7.763,0.818 -11.289,0.587 -8.092,-0.529 -16.182,-1.093 -24.274,-1.619 -11.645,-0.758 -23.302,-0.849 -34.954,-1.598 -4.178,-0.269 -8.601,-0.305 -12.697,-1.261 -1.687,-0.394 -2.927,-5.399 -3.446,-6.716 -4.038,-10.244 -6.654,-21.38 -11.586,-31.236 -1.536,-3.071 -1.78,-5.989 -2.052,-9.509 -0.238,-3.091 -0.373,-6.215 -0.974,-9.262 -0.15,-0.768 -1.168,-1.681 -0.993,-2.447 1.157,-5.062 4.554,-10.081 6.852,-14.677 1.464,-2.929 2.929,-5.859 4.331,-8.819 1.794,-3.787 1.673,-8.131 2.09,-12.237 0.049,-0.477 0.799,-0.481 0.75,0 -0.348,3.433 -0.035,7.887 -1.505,11.121 -1.913,4.212 -4.028,8.331 -6.095,12.468 -1.847,3.696 -3.796,7.382 -5.343,11.217 -0.554,1.374 0.711,3.24 0.914,4.76 0.525,3.925 0.671,7.887 1.066,11.824 0.259,2.591 1.142,4.081 2.138,6.312 2.835,6.358 4.885,13.118 7.218,19.668 1.266,3.554 2.547,7.102 3.912,10.618 0.622,1.602 1.61,5.952 3.622,6.34 7.614,1.464 15.764,1.368 23.485,1.732 11.38,0.537 22.711,0.906 34.092,1.671 5.023,0.338 10.046,0.68 15.07,1.006 2.337,0.152 6.087,1.131 8.298,0.047 6.315,-3.097 9.148,-12.238 9.927,-18.566 0.938,-7.622 -0.405,-15.621 -1.616,-23.128 -0.88,-5.452 -2.051,-10.868 -2.706,-16.355 -0.631,-5.291 2.903,-9.065 6.099,-13.081 4.627,-5.815 9.933,-10.898 16.042,-15.132 2.931,-2.03 5.753,-3.748 8.19,-6.417 C -3.714,3.867 -2.448,1.307 -0.53,-0.53 -0.181,-0.865 0.35,-0.335 0,0"
               inkscape:connector-curvature="0" /></g><g
             transform="translate(151.2754,1428.0352)"
             id="g8916"><path
               id="path8918"
               style="fill:#a02a41;fill-opacity:1;fill-rule:nonzero;stroke:none"
               d="M 0,0 C -1.549,2.341 -9.768,4.786 -11.949,4.321 -14.154,3.852 -23.48,11.759 -26.553,10.954 -29.108,10.284 -37.324,0.39 -37.324,0.39 c -1.182,-0.768 -5.635,-2.888 -6.925,-3.619 -0.609,-0.345 -0.895,-5.227 -4.922,-10.533 -1.619,-2.133 -7.074,-6.153 -8.582,-8.137 -0.109,-0.145 -0.212,-0.282 -0.315,-0.419 -1.112,2.504 -0.75,1.228 -0.635,4.514 0.075,2.153 -4.51,7.782 -7.191,11.197 -2.274,2.899 0.677,7.372 -1.182,8.049 l -7.2,3.612 c -2.305,0.084 -12.201,-2.011 -14.361,-2.494 -2.029,-0.453 -14.996,-4.78 -15.64,-13.927 -0.166,-2.353 3.838,-16.004 7.392,-17.451 2.542,-1.036 13.352,-4.656 13.774,-7.339 0.749,-4.76 5.007,-6.169 8.476,-7.389 2.814,-0.991 5.252,-2.436 7.492,-4.191 -0.162,-8.204 2.08,-24.354 5.327,-28.192 l 12.645,-3.223 c -0.015,1.538 7.452,28.574 9.446,29.136 3.076,0.867 6.16,2.181 9.1,3.304 2.832,1.082 1.894,1.013 3.588,4.568 2.561,5.378 2.829,10.087 7.707,12.071 1.714,0.698 3.591,1.144 5.576,4.633 2.017,3.544 5.839,0.681 7.949,3.28 0.69,0.85 3.016,1.888 3.282,4.104 C -1.969,-13.412 1.261,-1.905 0,0"
               inkscape:connector-curvature="0" /></g><g
             transform="translate(47.5127,1424.6079)"
             id="g8920"><path
               id="path8922"
               style="fill:#d8d8d8;fill-opacity:1;fill-rule:nonzero;stroke:none"
               d="m 0,0 c 0.396,2.959 4.822,12.457 6.362,14.784 1.482,2.238 7.086,7.529 8.764,9.093 1.84,1.715 8.695,6.951 10.999,7.693 1.278,0.411 10.647,6.337 12.033,6.396 1.62,0.07 19.79,0.322 22.549,0.937 2.665,0.594 10.818,-4.315 12.401,-4.421 1.612,-0.108 12.633,-2.178 14.407,-4.128 1.543,-1.696 11.995,-9.786 12.723,-11.31 1.472,-3.08 10.001,-19.15 6.93,-19.19 -3.481,-0.044 -42.415,-15.13 -45.755,-16.442 -3.068,-1.206 -6.354,-2.456 -9.516,-2.666 -6.01,-0.4 -12.588,-0.755 -18.488,0.82 -1.099,0.294 -5.76,2.591 -7.012,3.422 -2.274,1.508 -13.772,4.559 -15.683,8.543 C 9.798,-4.56 -0.194,-1.453 0,0"
               inkscape:connector-curvature="0" /></g><g
             transform="translate(47.8745,1424.5083)"
             id="g8924"><path
               id="path8926"
               style="fill:#828282;fill-opacity:1;fill-rule:nonzero;stroke:none"
               d="m 0,0 c 3.492,18.32 20.119,28.263 35.1,36.457 2.764,1.511 5.237,1.293 8.327,1.363 4.447,0.101 8.895,0.213 13.336,0.46 4.083,0.228 6.587,-0.004 10.511,-1.783 3.086,-1.4 5.464,-2.204 8.762,-2.829 3.854,-0.73 8.613,-1.421 11.563,-4.168 3.179,-2.958 6.69,-5.562 9.934,-8.45 2.253,-2.006 3.259,-4.566 4.574,-7.24 1.887,-3.835 3.97,-7.809 4.897,-12.007 0.498,-2.251 -12.817,-5.424 -14.829,-6.148 -7.951,-2.865 -15.853,-5.866 -23.743,-8.891 -3.536,-1.356 -7.054,-2.767 -10.609,-4.071 -9.289,-3.408 -21.444,-2.654 -30.129,1.874 -4.845,2.527 -10.252,4.013 -14.846,7.001 -2.119,1.378 -2.91,3.22 -5.237,4.44 C 6.052,-3.173 0.515,-1.716 0,0.199 -0.125,0.666 -0.849,0.468 -0.724,0 c 0.533,-1.981 4.495,-3 6.086,-3.738 3.563,-1.653 5.549,-4.505 8.887,-6.431 3.523,-2.033 7.521,-3.052 11.165,-4.816 3.686,-1.786 6.747,-3.864 10.911,-4.403 10.129,-1.313 18.871,0.241 28.229,3.859 7.294,2.82 14.605,5.594 21.938,8.309 6.349,2.35 12.759,4.984 19.34,6.63 4.179,1.044 0.741,6.397 -0.463,9.188 -1.449,3.357 -3.119,6.617 -4.752,9.886 -1.365,2.731 -4.245,4.596 -6.532,6.515 -2.269,1.905 -4.614,4.601 -7.148,6.123 -3.42,2.054 -7.771,2.714 -11.633,3.446 -3.562,0.675 -6.436,2.164 -9.799,3.527 -3.549,1.438 -5.915,1.093 -9.619,0.886 C 51.135,38.716 46.372,38.635 41.615,38.53 38.79,38.468 37.233,38.43 34.722,37.104 19.528,29.088 2.77,18.525 -0.724,0.199 -0.813,-0.273 -0.091,-0.475 0,0"
               inkscape:connector-curvature="0" /></g><g
             transform="translate(142.5068,1442.6304)"
             id="g8928"><path
               id="path8930"
               style="fill:#b7b7b7;fill-opacity:1;fill-rule:nonzero;stroke:none"
               d="m 0,0 c -3.416,5.715 -17.504,11.898 -18.649,11.637 -1.184,-0.27 -4.61,4.36 -3.75,4.236 2.232,-0.321 1.958,-0.086 3.68,-0.321 0.968,-0.132 7.755,-1.963 8.704,-2.253 2.197,-0.671 3.842,-2.637 4.917,-3.413 2.433,-1.756 4.101,-4.361 6.734,-5.691 2.892,-1.463 4.167,-4.859 5.733,-7.486 0.76,-1.273 1.274,-2.475 1.782,-3.867 0.571,-1.561 1.596,-2.616 1.595,-4.364 -0.001,-0.789 -0.19,-1.555 -0.154,-2.326 0.033,-0.727 0.412,-1.638 -0.465,-1.997 -1.011,-0.413 -5.666,5.919 -6.43,6.591 C 1.35,-7.192 0.713,-1.192 0,0"
               inkscape:connector-curvature="0" /></g><g
             transform="translate(129.4404,1448.0459)"
             id="g8932"><path
               id="path8934"
               style="fill:#333333;fill-opacity:1;fill-rule:nonzero;stroke:none"
               d="M 0,0 C 0.745,-0.825 1.686,-2.636 2.746,-3.021 4.726,-3.74 3.583,0.289 2.857,0.937 2.243,1.485 1.19,1.593 0.471,1.875 0.168,1.993 -0.804,2.842 -1.011,2.836 -1.615,2.82 -1.783,1.714 -1.618,1.304 -1.384,0.719 -0.677,0.62 -0.172,0.344 L 0,0 z"
               inkscape:connector-curvature="0" /></g><g
             transform="translate(69.0918,1449.1631)"
             id="g8936"><path
               id="path8938"
               style="fill:#333333;fill-opacity:1;fill-rule:nonzero;stroke:none"
               d="m 0,0 c 0.123,-0.916 -1.309,-1.905 -1.87,-2.489 -1.236,-1.283 -0.189,-1.564 1.05,-0.952 0.978,0.483 1.738,1.028 2.296,1.984 0.212,0.364 0.794,1.203 0.343,1.71 C 1.484,0.631 0.446,0.462 0.172,0.086 L 0,0 z"
               inkscape:connector-curvature="0" /></g><g
             transform="translate(136.9189,1410.8223)"
             id="g8940"><path
               id="path8942"
               style="fill:#2ebf00;fill-opacity:1;fill-rule:nonzero;stroke:none"
               d="m 0,0 c 0.251,4.444 -3.597,8.204 -6.407,11.227 -2.297,2.47 -4.397,5.142 -6.832,7.479 -2.716,2.605 -6.782,4.206 -9.962,6.082 -3.315,1.954 -6.05,5.231 -9.677,6.461 -4.021,1.364 -6.244,0.072 -9.628,-2.145 -2.665,-1.746 -23.023,-4.041 -21.238,-6.857 2.16,-3.407 11.452,-1.014 9.456,-8.45 -0.444,-1.652 -0.943,-2.912 -1.483,-4.513 -0.644,-1.913 -2.025,-3.719 -2.837,-5.552 -1.054,-2.374 -1.09,-5.039 -2.164,-7.393 -0.731,-1.6 -2.702,-5.292 0.251,-6.139"
               inkscape:connector-curvature="0" /></g><g
             transform="translate(137.2939,1410.8223)"
             id="g8944"><path
               id="path8946"
               style="fill:#007f02;fill-opacity:1;fill-rule:nonzero;stroke:none"
               d="m 0,0 c -0.269,6.412 -5.949,10.789 -9.881,15.282 -5.199,5.941 -12.082,8.439 -18.151,13.273 -4.414,3.516 -8.661,4.626 -13.651,1.762 -4.27,-2.452 -9.31,-2.938 -14.087,-3.989 -2,-0.441 -7.414,-0.953 -8.605,-3.089 -1.125,-2.015 2.801,-3.072 4.011,-3.406 4.198,-1.161 6.345,-2.565 4.877,-7.485 -1.207,-4.048 -3.726,-7.387 -4.765,-11.466 -0.714,-2.801 -4.732,-9.07 -0.833,-11.006 0.432,-0.214 0.812,0.432 0.379,0.647 -3.457,1.718 3.376,15.485 4.283,17.155 1.191,2.191 3.707,7.505 1.944,9.981 -1.518,2.133 -4.104,2.46 -6.484,3.118 -7.003,1.936 3.345,4.362 5.393,4.827 3.422,0.779 6.882,1.392 10.286,2.251 0.89,0.225 1.784,0.483 2.593,0.926 4.824,2.64 8.195,3.347 13.03,0.074 2.464,-1.667 4.519,-3.615 7.125,-5.084 3.005,-1.694 6.016,-3.046 8.657,-5.33 2.527,-2.187 4.59,-5.01 6.832,-7.479 C -4.102,7.718 -0.946,4.68 -0.75,0 -0.73,-0.482 0.021,-0.484 0,0"
               inkscape:connector-curvature="0" /></g><g
             transform="translate(99.4316,1423.2358)"
             id="g8948"><path
               id="path8950"
               style="fill:#36a00e;fill-opacity:1;fill-rule:nonzero;stroke:none"
               d="m 0,0 c -0.588,-0.357 -5.38,-5.211 -5.926,-5.558 -0.717,-0.454 -6.803,-4.869 -6.403,-5.546 0.424,-0.716 8.931,-5.58 9.827,-4.859 1.256,1.008 9.609,8.504 10.766,9.584 1.086,1.015 7.965,8.963 7.992,10.31 -0.315,0.155 3.001,3.165 -0.418,3.054 C 12.637,6.882 2.86,4.988 2.155,5.124 1.364,5.275 1.142,0.692 0,0"
               inkscape:connector-curvature="0" /></g><g
             transform="translate(83.8779,1429.0254)"
             id="g8952"><path
               id="path8954"
               style="fill:#36a00e;fill-opacity:1;fill-rule:nonzero;stroke:none"
               d="m 0,0 c 1.764,-0.967 3.342,2.631 5.581,1.947 5.098,-1.555 15.381,-5.471 15.76,-5.557 2.697,-0.615 8.278,1.046 10.894,1.59 0.523,0.109 1.269,0.245 1.754,0.436 0.543,0.212 1.133,0.985 1.535,1.386 0.902,0.9 1.674,1.853 2.063,3.098 C 37.784,3.529 -1.225,10.675 -10.24,4.351 -11.895,3.191 -1.78,0.976 0,0"
               inkscape:connector-curvature="0" /></g><g
             transform="translate(95.7412,1400.729)"
             id="g8956"><path
               id="path8958"
               style="fill:#d8d8d8;fill-opacity:1;fill-rule:nonzero;stroke:none"
               d="m 0,0 c -0.583,1.376 -0.855,2.961 -1.006,4.45 -0.223,2.198 -0.335,2.902 -1.108,4.728 -1.615,3.808 -1.182,1.836 -1.055,5.482 0.075,2.153 -4.51,7.782 -7.19,11.197 -2.275,2.899 0.676,7.372 -1.183,8.05 l -10.553,8.511 c -2.304,0.084 -12.201,-2.011 -14.361,-2.494 -2.028,-0.453 -11.643,-9.68 -12.287,-18.827 -0.166,-2.353 3.838,-16.004 7.392,-17.451 2.542,-1.036 13.352,-4.655 13.774,-7.339 0.749,-4.76 5.008,-6.169 8.476,-7.39 7.371,-2.594 12.163,-8.303 17.59,-14.543"
               inkscape:connector-curvature="0" /></g><g
             transform="translate(96.103,1400.8286)"
             id="g8960"><path
               id="path8962"
               style="fill:#828282;fill-opacity:1;fill-rule:nonzero;stroke:none"
               d="m 0,0 c -1.346,3.967 -1.687,7.845 -3.247,11.787 -0.393,0.991 0.135,2.448 -0.012,3.542 -0.245,1.818 -1.922,3.697 -2.919,5.123 -1.102,1.575 -2.317,3.078 -3.505,4.589 -2.279,2.899 -1.244,4.868 -1.209,7.811 0.015,1.201 -2.075,2.292 -2.839,2.908 -3.017,2.433 -6.597,7.259 -10.722,6.776 -5.534,-0.648 -11.855,-1.069 -16.057,-4.984 -4.553,-4.242 -9.832,-11.611 -8.803,-18.187 0.654,-4.19 2.788,-13.572 6.924,-15.872 2.528,-1.406 5.517,-2.168 8.169,-3.322 1.763,-0.767 3.502,-1.642 5.026,-2.825 1.443,-1.122 1.196,-3.506 2.496,-4.868 3.03,-3.176 7.427,-3.867 11.185,-5.894 5.374,-2.897 9.438,-8.045 13.375,-12.575 0.318,-0.365 0.846,0.167 0.531,0.531 -5.472,6.295 -10.771,12.168 -18.816,15.015 -2.579,0.912 -4.781,2.045 -6.356,4.362 -0.632,0.931 -0.496,2.602 -1.394,3.479 -1.863,1.82 -4.346,2.847 -6.699,3.871 -2.316,1.007 -5.586,1.584 -7.552,3.224 -2.588,2.159 -3.736,6.623 -4.746,9.655 -1.08,3.241 -1.834,6.091 -1.127,9.489 0.988,4.755 4.308,9.136 7.537,12.604 4.227,4.542 11.211,4.95 17.113,5.641 1.733,0.203 3.038,-1.531 4.353,-2.591 2.041,-1.646 4.082,-3.292 6.122,-4.938 2.134,-1.722 1.109,-4.024 1.224,-6.487 0.13,-2.801 3.666,-5.807 5.122,-7.791 1.126,-1.533 2.199,-3.14 2.844,-4.944 0.38,-1.066 -0.19,-2.409 0.011,-3.542 C -3.677,9.935 -2.544,8.389 -2.077,6.754 -1.415,4.436 -1.51,2.119 -0.724,-0.199 -0.569,-0.655 0.156,-0.459 0,0"
               inkscape:connector-curvature="0" /></g><g
             transform="translate(94.8389,1400.6133)"
             id="g8964"><path
               id="path8966"
               style="fill:#b7b7b7;fill-opacity:1;fill-rule:nonzero;stroke:none"
               d="m 0,0 c -0.358,2.19 -0.465,4.399 -1.298,6.473 -0.61,1.521 -1.359,3.146 -2.054,4.69 -0.366,0.814 -0.865,1.715 -1.135,2.568 -0.356,1.124 -0.242,2.275 -0.422,3.439 -0.261,1.688 -2.299,2.565 -3.424,3.68 -1.396,1.383 -2.452,2.16 -3.271,4.11 -0.85,2.022 -0.423,4.567 -1.29,6.44 -0.333,0.721 -1.21,1.058 -1.716,1.496 -0.614,0.533 -1.165,1.08 -1.95,1.506 -2.046,1.116 -3.585,3.316 -1.28,3.232 l 7.2,-3.612 c 1.86,-0.678 -1.091,-5.15 1.183,-8.049 2.681,-3.415 7.266,-9.045 7.19,-11.198 C -2.394,11.13 -2.826,13.102 -1.212,9.294 -0.438,7.468 -0.326,6.764 -0.104,4.566 0.047,3.077 0.319,1.492 0.902,0.116 L 0,0 z"
               inkscape:connector-curvature="0" /></g><g
             transform="translate(89.627,1418.6211)"
             id="g8968"><path
               id="path8970"
               style="fill:#b7b7b7;fill-opacity:1;fill-rule:nonzero;stroke:none"
               d="m 0,0 c -0.25,-1.343 -0.674,-4.138 -1.698,-4.671 -1.413,-0.737 -3.013,-3.483 -2.713,-5.462 0.08,-0.531 0.747,-7.987 -0.222,-10.734 -0.573,-1.627 -5.096,-7.294 -5.757,-8.123 -0.645,-0.808 4.446,-3.864 6.434,-5.45 1.428,-1.139 8.729,-9.408 8.518,-7.316 -0.442,4.351 -8.08,12 -5.037,14.185 3.634,2.608 1.759,8.71 2.979,12.508 1.103,3.437 2.184,9.48 -0.195,13.658 C 2.117,-1.07 2.062,-0.763 1.789,-0.477 1.51,-0.183 0,0 0,0"
               inkscape:connector-curvature="0" /></g><g
             transform="translate(72.2734,1434.1572)"
             id="g8972"><path
               id="path8974"
               style="fill:#333333;fill-opacity:1;fill-rule:nonzero;stroke:none"
               d="M 0,0 C -0.505,-0.588 -1.21,-5.662 0.314,-5.222 1.508,-4.876 2.441,-0.417 1.547,0.129 1.216,0.332 0.253,0.295 0,0"
               inkscape:connector-curvature="0" /></g><g
             transform="translate(53.0596,1434.8022)"
             id="g8976"><path
               id="path8978"
               style="fill:#333333;fill-opacity:1;fill-rule:nonzero;stroke:none"
               d="M 0,0 C -0.005,-0.92 0.854,-1.668 0.877,-2.514 0.899,-3.36 0.869,-4.122 1.67,-4.625 3.421,-3.61 1.988,0.069 1.333,1.38"
               inkscape:connector-curvature="0" /></g><g
             transform="translate(75.4375,1418.9414)"
             id="g8980"><path
               id="path8982"
               style="fill:#333333;fill-opacity:1;fill-rule:nonzero;stroke:none"
               d="M 0,0 C -0.485,-0.773 0.547,-6.882 1.878,-6.311 3.227,-5.73 2.111,-0.346 1.304,0.129 1,0.308 0.224,0.354 0,0"
               inkscape:connector-curvature="0" /></g><g
             transform="translate(63.5947,1419.9355)"
             id="g8984"><path
               id="path8986"
               style="fill:#333333;fill-opacity:1;fill-rule:nonzero;stroke:none"
               d="M 0,0 C 0.605,-1.384 1.435,-4.267 3.223,-4.421 4.418,-1.858 3.043,1.705 0.194,2.472 -0.106,2.13 -0.317,1.65 -0.32,1.173 L 0,0 z"
               inkscape:connector-curvature="0" /></g><g
             transform="translate(73.3896,1401.3657)"
             id="g8988"><path
               id="path8990"
               style="fill:#333333;fill-opacity:1;fill-rule:nonzero;stroke:none"
               d="M 0,0 C 1.116,-0.682 2.181,-1.503 2.579,-2.433 3.226,-3.939 4.664,-2.508 4.225,-1.627 4.106,-1.391 3.131,-0.813 2.856,-0.619 2.328,-0.243 1.805,-0.057 1.376,0.449 0.745,1.19 -0.632,3.215 -0.516,1.118 -0.499,0.81 -0.263,0.161 0,0"
               inkscape:connector-curvature="0" /></g><g
             transform="translate(82.5801,1432.9517)"
             id="g8992"><path
               id="path8994"
               style="fill:#36a00e;fill-opacity:1;fill-rule:nonzero;stroke:none"
               d="m 0,0 c 1.646,-1.319 0.634,-4.058 2.508,-4.838 0.422,-0.176 0.857,-0.345 1.269,-0.551 0.207,-0.103 0.359,-0.252 0.564,-0.352 0.357,-0.175 0.667,-0.148 1.053,-0.266 0.445,-0.137 0.84,-0.385 1.3,-0.535 0.525,-0.172 1.024,-0.296 1.569,-0.42 2.697,-0.615 5.49,-0.226 8.252,0.011 3.015,0.259 5.922,0.185 8.923,0.443 2.651,0.227 5.479,0.017 8.095,0.562 0.523,0.109 1.269,0.245 1.754,0.435 0.543,0.213 1.133,0.986 1.535,1.387 0.902,0.899 1.674,1.853 2.063,3.098 C 39.132,-0.236 -0.858,0.688 0,0"
               inkscape:connector-curvature="0" /></g><g
             transform="translate(72.8311,1436.7783)"
             id="g8996"><path
               id="path8998"
               style="fill:#2ebf00;fill-opacity:1;fill-rule:nonzero;stroke:none"
               d="m 0,0 c 0.457,0.926 1.443,-0.415 1.375,-1.025 -0.113,-1.02 0.985,-2.259 1.483,-2.56 0.942,-0.57 2.706,-0.671 3.565,-1.359 1.646,-1.32 3.444,-2.683 5.318,-3.463 0.422,-0.176 0.858,-0.345 1.27,-0.551 0.207,-0.103 0.358,-0.252 0.562,-0.352 0.359,-0.174 0.668,-0.148 1.053,-0.266 0.445,-0.136 0.842,-0.384 1.302,-0.535 0.524,-0.172 1.023,-0.296 1.568,-0.42 2.697,-0.615 5.489,-0.225 8.251,0.012 3.016,0.258 5.923,0.185 8.925,0.442 2.65,0.227 5.478,0.017 8.094,0.562 0.523,0.109 1.269,0.245 1.755,0.435 0.542,0.213 1.132,0.986 1.535,1.388 0.901,0.899 1.673,1.852 2.062,3.097 0.247,0.79 2.984,1.599 3.173,2.397 0.218,0.918 0.646,1.586 0.597,2.552 -0.072,1.415 -0.157,2.863 -0.604,4.178 -0.402,1.182 -0.747,2.436 -1.035,3.63 -0.283,1.172 -0.961,2.431 -1.421,3.572 -0.9,2.235 -4.401,4.408 -5.501,6.504 -1.118,2.131 -2.894,3.528 -5.188,4.403 -1.035,0.395 -2.136,0.692 -3.232,0.937 -1.561,0.349 -3.224,0.362 -4.828,0.577 -2.088,0.28 -4.092,0.093 -6.221,-0.086 -1.99,-0.167 -3.626,-1.134 -5.522,-1.577 -0.912,-0.214 -1.702,-0.466 -2.664,-0.549 -1.051,-0.09 -2.002,-0.235 -2.917,-0.754 -0.744,-0.422 -1.301,-0.82 -1.863,-1.538 C 10.546,19.209 10.25,18.31 9.733,18.133 L 0,0 z"
               inkscape:connector-curvature="0" /></g><g
             transform="translate(73.0205,1436.4546)"
             id="g9000"><path
               id="path9002"
               style="fill:#007f02;fill-opacity:1;fill-rule:nonzero;stroke:none"
               d="m 0,0 c 0.194,0.095 1.802,-3.322 2.569,-3.624 3.604,-1.416 6.982,-4.78 10.715,-5.724 3.841,-0.97 6.58,-1.695 10.614,-1.374 5.141,0.41 10.308,0.614 15.463,0.788 1.855,0.063 4.681,0.066 6.056,1.536 0.852,0.911 1.618,1.76 2.328,2.781 1.175,1.688 2.493,2.049 3.622,3.477 2.946,3.728 -1.268,13.273 -3.755,16.363 -4.736,5.884 -8.259,9.724 -16.105,10.464 -3.648,0.343 -7.205,0.5 -10.734,-0.618 C 18.083,23.218 13.333,23.191 11.3,21.12 8.702,18.471 7.258,14.991 5.521,11.754 3.509,8.007 1.498,4.26 -0.513,0.513 -0.742,0.087 -0.094,-0.292 0.134,0.134 3.061,5.587 5.988,11.04 8.915,16.492 c 0.475,0.885 0.835,1.638 1.537,2.36 3.091,3.171 5.405,2.894 9.177,4.012 8.124,2.408 18.64,2.307 23.788,-5.394 1.406,-2.103 3.633,-3.327 4.898,-5.601 1.83,-3.29 3.395,-8.656 2.823,-12.386 -0.39,-2.547 -2.758,-1.798 -3.533,-3.565 -2.261,-5.156 -6.604,-5.065 -11.514,-5.203 -6.883,-0.193 -16.892,-2.898 -23.08,0.975 -2.436,1.525 -5.11,3.296 -7.685,4.545 C 3.045,-2.659 2.314,-0.758 0.65,0.871 0.523,0.995 0.35,1.005 0.196,0.929 0.004,0.835 -0.187,0.741 -0.379,0.647 -0.813,0.435 -0.433,-0.212 0,0"
               inkscape:connector-curvature="0" /></g><g
             transform="translate(73.2871,1437.6284)"
             id="g9004"><path
               id="path9006"
               style="fill:#36a00e;fill-opacity:1;fill-rule:nonzero;stroke:none"
               d="m 0,0 c 0.919,-1.875 1.526,-3.876 2.725,-4.436 2.408,-1.123 6.879,-0.731 9.461,-1.179 1.359,-0.236 2.429,-1.179 3.789,-1.341 1.406,-0.168 2.662,-0.289 4.047,0.074 1.041,0.273 2.166,0.392 3.159,0.787 0.274,0.109 5.023,1.676 6.472,1.85 0.503,0.06 1.141,0.225 1.592,-0.04 0.132,-0.078 0.218,-0.187 0.289,-0.302 0.145,-0.234 1.688,-0.405 2.042,0.175 l -4.759,7.78 C 28.817,3.368 -0.463,0.942 0,0"
               inkscape:connector-curvature="0" /></g><g
             transform="translate(85.5,1427.4272)"
             id="g9008"><path
               id="path9010"
               style="fill:#529120;fill-opacity:1;fill-rule:nonzero;stroke:none"
               d="M 0,0 C 0.998,-0.364 1.627,-1.523 2.742,-1.178 4.318,-0.689 3.591,0.447 2.496,0.882 2.011,1.075 1.504,1.138 1.033,1.371 0.572,1.599 0.203,2.434 -0.36,2.33 -0.998,2.211 -1.013,1.241 -0.862,0.801 -0.676,0.255 0,0 0,0"
               inkscape:connector-curvature="0" /></g><g
             transform="translate(85.4004,1427.0654)"
             id="g9012"><path
               id="path9014"
               style="fill:#007f02;fill-opacity:1;fill-rule:nonzero;stroke:none"
               d="M 0,0 C 0.677,-0.283 1.158,-0.928 1.862,-1.15 2.549,-1.367 3.212,-1.172 3.771,-0.741 4.964,0.183 3.239,1.412 2.451,1.693 1.958,1.868 1.426,1.908 1.036,2.289 0.808,2.51 0.611,2.737 0.352,2.922 -0.132,3.269 -0.709,2.996 -1.01,2.57 -1.684,1.613 -0.927,0.373 0,0 0.449,-0.18 0.642,0.545 0.199,0.724 0.036,0.789 -0.235,0.995 -0.37,1.197 -0.513,1.412 -0.554,2.535 -0.026,2.275 0.313,2.107 0.495,1.685 0.82,1.485 1.255,1.218 1.768,1.114 2.252,0.97 2.63,0.856 3.012,0.645 3.256,0.327 3.649,-0.186 2.87,-0.466 2.467,-0.504 2.017,-0.547 1.577,-0.146 1.245,0.104 0.913,0.355 0.583,0.563 0.199,0.724 -0.247,0.91 -0.439,0.184 0,0"
               inkscape:connector-curvature="0" /></g><g
             transform="translate(97.3867,1458.1826)"
             id="g9016"><path
               id="path9018"
               style="fill:#2ebf00;fill-opacity:1;fill-rule:nonzero;stroke:none"
               d="M 0,0 C -1.29,-0.11 -2.529,-0.346 -3.809,-0.456 -5.247,-0.58 -6.83,-0.777 -8.27,-0.714 c -2.4,0.104 -5.602,0.524 -7.538,-1.163 -0.76,-0.663 -1.221,-1.585 -1.95,-2.303 -0.763,-0.754 -1.297,-1.657 -2.004,-2.485 -0.761,-0.891 -1.634,-1.669 -2.473,-2.489 -0.35,-0.341 -0.79,-0.588 -1.136,-0.95 -0.418,-0.437 -2.383,-3.191 -2.513,-4.458 -0.12,-1.17 -0.173,-2.376 -0.18,-3.535 -0.007,-1.004 0.837,-2.499 1.508,-3.307 0.861,-1.039 2.213,-1.792 3.411,-2.351 2.409,-1.123 5.36,0.098 7.942,-0.35 1.359,-0.237 2.43,-1.18 3.789,-1.342 1.406,-0.168 2.662,-0.288 4.048,0.074 1.041,0.272 2.165,0.392 3.158,0.787 0.274,0.109 5.023,1.676 6.473,1.85 0.503,0.06 1.139,0.225 1.591,-0.04 0.132,-0.078 0.217,-0.187 0.289,-0.303 0.144,-0.233 1.687,-0.404 2.043,0.176"
               inkscape:connector-curvature="0" /></g><g
             transform="translate(97.3867,1458.5576)"
             id="g9020"><path
               id="path9022"
               style="fill:#007f02;fill-opacity:1;fill-rule:nonzero;stroke:none"
               d="m 0,0 c -4.077,-0.487 -8.308,-0.093 -12.313,-0.638 -3.393,-0.461 -4.739,-2.284 -6.792,-4.942 -3.832,-4.962 -10.64,-9.391 -5.774,-16.389 1.502,-2.16 4.382,-2.931 6.827,-3.015 3.109,-0.108 3.724,0.177 7.254,-0.832 1.339,-0.384 2.768,-0.738 4.179,-0.511 3.237,0.521 6.253,1.633 9.399,2.507 1.965,0.547 3.836,-0.736 5.597,0.218 0.425,0.231 0.046,0.878 -0.379,0.648 -1.499,-0.813 -1.711,0.472 -2.918,0.32 -1.577,-0.198 -3.069,-0.612 -4.592,-1.065 -1.993,-0.592 -3.914,-1.244 -5.954,-1.687 -3.282,-0.713 -6.124,1.178 -9.324,1.381 -2.993,0.191 -4.09,-0.863 -7.391,0.826 -3.525,1.803 -4.349,6.295 -2.763,9.674 1.201,2.558 3.548,4.2 5.447,6.2 3.257,3.429 4.693,6.116 9.97,5.908 C -6.31,-1.524 -3.192,-1.132 0,-0.75 0.474,-0.693 0.479,0.057 0,0"
               inkscape:connector-curvature="0" /></g><g
             transform="translate(94.7163,1445.8179)"
             id="g9024"><path
               id="path9026"
               style="fill:#007f02;fill-opacity:1;fill-rule:nonzero;stroke:none"
               d="m 0,0 c -1.874,1.824 -4.235,3.178 -6.869,3.531 -2.092,0.28 -4.188,0.154 -6.295,0.147 -2.291,-0.007 -4.16,0.682 -6.371,0.029 -0.463,-0.137 -0.265,-0.861 0.2,-0.724 2.542,0.752 6.322,-0.071 8.972,-0.027 3.75,0.063 7.072,-0.799 9.833,-3.486 C -0.184,-0.868 0.347,-0.338 0,0"
               inkscape:connector-curvature="0" /></g><g
             transform="translate(88.4482,1455.251)"
             id="g9028"><path
               id="path9030"
               style="fill:#36a00e;fill-opacity:1;fill-rule:nonzero;stroke:none"
               d="M 0,0 C 0.474,0 3.414,-0.545 3.886,-0.564 3.604,-1.067 3.24,-0.756 2.934,-1.231 2.39,-2.074 2.185,-2.616 2.414,-3.82 0.171,-4.549 0.781,-1.679 0.932,-0.93 L 0,0 z"
               inkscape:connector-curvature="0" /></g><g
             transform="translate(86.4756,1455.1992)"
             id="g9032"><path
               id="path9034"
               style="fill:#d6e900;fill-opacity:1;fill-rule:nonzero;stroke:none"
               d="m 0,0 c -0.16,-1.824 -2.176,-3.699 -3.71,-3.22 -1.137,0.356 -2.33,3.285 -0.693,4.19 L 0,0 z"
               inkscape:connector-curvature="0" /></g><g
             transform="translate(96.167,1453.7979)"
             id="g9036"><path
               id="path9038"
               style="fill:#d6e900;fill-opacity:1;fill-rule:nonzero;stroke:none"
               d="m 0,0 c 1.992,-1.477 -2.191,-2.797 -3.145,-2.938 -0.637,-0.095 -2.254,0.093 -2.545,0.981 -0.532,1.617 0.701,2.68 1.341,2.846 C -3.296,1.161 -0.892,0.66 0,0"
               inkscape:connector-curvature="0" /></g><g
             transform="translate(93.8887,1454.2617)"
             id="g9040"><path
               id="path9042"
               style="fill:#085108;fill-opacity:1;fill-rule:nonzero;stroke:none"
               d="m 0,0 c -0.549,0.1 -1.882,-1.244 -1.801,-1.746 0.07,-0.433 0.485,-1.332 0.891,-1.485 0.644,-0.242 0.16,1.173 0.42,1.668 0,0 0.805,1.505 0.49,1.563"
               inkscape:connector-curvature="0" /></g><g
             transform="translate(83.7637,1455.9282)"
             id="g9044"><path
               id="path9046"
               style="fill:#085108;fill-opacity:1;fill-rule:nonzero;stroke:none"
               d="m 0,0 c -0.566,-0.034 -1.167,-0.762 -1.235,-1.009 -0.113,-0.405 -0.196,-1.125 -0.151,-1.406 0.518,-3.232 0.918,0.071 0.993,0.538 C -0.324,-1.454 0.768,0.047 0,0"
               inkscape:connector-curvature="0" /></g><g
             transform="translate(115.1055,1451.2695)"
             id="g9048"><path
               id="path9050"
               style="fill:#36a00e;fill-opacity:1;fill-rule:nonzero;stroke:none"
               d="m 0,0 c 1.079,0.007 -3.54,0.442 -3.037,-0.149 0.369,-0.433 -1.398,-2.561 -2.043,-4.198 -0.047,-0.119 0.04,-6.582 0.416,-7.732 0.206,-0.63 1.309,4.11 2.579,6.362 0.456,0.808 2.106,0.862 2.101,0.841 L -1.323,-2.364 0,0 z"
               inkscape:connector-curvature="0" /></g><g
             transform="translate(89.9341,1453.874)"
             id="g9052"><path
               id="path9054"
               style="fill:#007f02;fill-opacity:1;fill-rule:nonzero;stroke:none"
               d="m 0,0 c 1.695,1.614 5.167,-0.367 6.967,-0.471 2.381,-0.138 4.762,-0.133 7.129,0.209 2.726,0.394 4.973,0.157 6.943,-2.036 1.371,-1.526 -0.918,-3.759 -1.495,-5.408 -0.16,-0.458 0.565,-0.653 0.724,-0.199 0.269,0.77 2.971,4.158 2.131,5.159 -0.919,1.095 -2.602,3.74 -4.295,3.734 C 14.073,0.974 10.012,-0.699 5.982,0.621 4.027,1.261 1.072,2.057 -0.53,0.53 -0.881,0.196 -0.35,-0.333 0,0"
               inkscape:connector-curvature="0" /></g><g
             transform="translate(81.3809,1455.4365)"
             id="g9056"><path
               id="path9058"
               style="fill:#007f02;fill-opacity:1;fill-rule:nonzero;stroke:none"
               d="M 0,0 C 0.815,-0.258 1.766,-0.223 2.61,-0.266 3.116,-0.292 3.622,-0.312 4.127,-0.341 4.444,-0.359 4.558,-0.859 4.817,-1.057 5.203,-1.35 5.576,-0.698 5.196,-0.409 4.962,-0.231 5.035,0.17 4.684,0.312 4.273,0.478 3.756,0.43 3.32,0.451 2.32,0.498 1.162,0.418 0.199,0.724 -0.263,0.87 -0.459,0.146 0,0"
               inkscape:connector-curvature="0" /></g><g
             transform="translate(79.4756,1452.6221)"
             id="g9060"><path
               id="path9062"
               style="fill:#007f02;fill-opacity:1;fill-rule:nonzero;stroke:none"
               d="m 0,0 c 1.099,-0.502 2.123,-0.971 3.359,-0.9 0.558,0.032 1.153,-0.026 1.699,0.093 0.222,0.048 0.553,0.622 0.682,0.61 0.482,-0.045 0.478,0.705 0,0.75 C 5.556,0.57 5.468,0.537 5.315,0.435 5.238,0.383 5.173,0.319 5.12,0.242 4.831,-0.084 4.453,-0.104 4.041,-0.114 3.373,-0.13 2.783,-0.204 2.119,-0.057 1.51,0.078 0.942,0.39 0.379,0.647 -0.058,0.847 -0.439,0.201 0,0"
               inkscape:connector-curvature="0" /></g><g
             transform="translate(89.7061,1450.9429)"
             id="g9064"><path
               id="path9066"
               style="fill:#007f02;fill-opacity:1;fill-rule:nonzero;stroke:none"
               d="m 0,0 c 1.159,-0.484 2.268,-0.575 3.515,-0.58 1.631,-0.006 3.378,0.751 4.91,-0.062 0.427,-0.227 0.806,0.42 0.379,0.647 C 7.709,0.587 6.72,0.543 5.517,0.341 3.757,0.045 1.865,0.027 0.199,0.724 -0.247,0.91 -0.439,0.184 0,0"
               inkscape:connector-curvature="0" /></g><g
             transform="translate(118.2646,1444.7788)"
             id="g9068"><path
               id="path9070"
               style="fill:#529120;fill-opacity:1;fill-rule:nonzero;stroke:none"
               d="M 0,0 C 1.581,1.104 4.015,0.221 3.784,-2 3.58,-3.964 -0.476,-3.354 -0.258,-1.891 L 0,0 z"
               inkscape:connector-curvature="0" /></g><g
             transform="translate(118.4541,1444.4551)"
             id="g9072"><path
               id="path9074"
               style="fill:#007f02;fill-opacity:1;fill-rule:nonzero;stroke:none"
               d="M 0,0 C 0.955,0.618 2.298,0.587 2.978,-0.425 3.711,-1.517 2.993,-2.477 1.85,-2.543 1.315,-2.575 -0.04,-2.41 -0.081,-1.67 -0.114,-1.066 0.09,-0.377 0.172,0.224 0.237,0.697 -0.486,0.901 -0.551,0.423 -0.66,-0.375 -1.127,-1.691 -0.568,-2.402 0.158,-3.326 1.721,-3.475 2.766,-3.131 4.161,-2.672 4.263,-0.997 3.532,0.093 2.67,1.375 0.821,1.424 -0.379,0.647 -0.783,0.386 -0.408,-0.264 0,0"
               inkscape:connector-curvature="0" /></g><g
             transform="translate(74.0771,1447.7876)"
             id="g9076"><path
               id="path9078"
               style="fill:#529120;fill-opacity:1;fill-rule:nonzero;stroke:none"
               d="m 0,0 c -0.706,0.142 -2.23,-0.487 -2.669,-1.051 -0.624,-0.803 -0.27,-2.446 1.019,-2.14 0.781,0.186 0.412,0.666 0.715,1.182 0.221,0.375 0.713,0.688 1.039,0.894 0.38,0.24 1.245,0.266 1.284,0.839 C 1.423,0.241 0.752,0.492 0.345,0.43"
               inkscape:connector-curvature="0" /></g><g
             transform="translate(74.0771,1448.1626)"
             id="g9080"><path
               id="path9082"
               style="fill:#007f02;fill-opacity:1;fill-rule:nonzero;stroke:none"
               d="m 0,0 c -1.057,0.132 -2.774,-0.534 -3.188,-1.589 -0.401,-1.021 0.014,-2.236 1.179,-2.388 0.458,-0.06 1.134,0.212 1.24,0.711 0.118,0.553 0.204,0.847 0.697,1.212 0.328,0.243 0.669,0.359 1.046,0.497 1.397,0.514 0.649,2.054 -0.629,1.987 -0.481,-0.025 -0.484,-0.775 0,-0.75 0.172,0.027 0.338,-0.002 0.498,-0.085 C 1.368,-0.641 0.49,-0.934 0.442,-0.949 0.108,-1.06 -0.159,-1.209 -0.45,-1.406 -0.772,-1.623 -1.033,-1.881 -1.258,-2.194 -1.465,-2.481 -1.338,-3.069 -1.75,-3.204 -2.707,-3.519 -2.724,-2.05 -2.309,-1.585 -1.814,-1.027 -0.726,-0.659 0,-0.75 0.479,-0.81 0.473,-0.059 0,0"
               inkscape:connector-curvature="0" /></g><g
             transform="translate(115.3418,1456.0405)"
             id="g9084"><path
               id="path9086"
               style="fill:#529120;fill-opacity:1;fill-rule:nonzero;stroke:none"
               d="m 0,0 c -0.908,-0.031 -2.134,0.33 -1.141,-0.788 0.215,-0.242 0.808,-0.917 1.05,-1.092 0.408,-0.296 0.945,-0.223 1.314,-0.57 1.529,1.241 -0.027,1.44 -0.879,2.364 L 0,0 z"
               inkscape:connector-curvature="0" /></g><g
             transform="translate(115.3418,1456.4155)"
             id="g9088"><path
               id="path9090"
               style="fill:#007f02;fill-opacity:1;fill-rule:nonzero;stroke:none"
               d="m 0,0 c -0.642,-0.012 -2.288,0.26 -1.781,-0.921 0.199,-0.465 0.72,-0.903 1.065,-1.263 0.172,-0.18 0.349,-0.341 0.562,-0.474 0.342,-0.212 0.794,-0.178 1.112,-0.432 0.17,-0.137 0.36,-0.144 0.53,0 0.617,0.521 1.071,1.224 0.389,1.894 C 1.583,-0.907 1.202,-0.711 0.882,-0.453 0.593,-0.219 0.459,-0.103 0.1,-0.013 -0.37,0.104 -0.569,-0.619 -0.1,-0.737 -0.042,-0.751 0.015,-0.765 0.072,-0.78 0.28,-0.832 0.113,-0.766 0.257,-0.902 0.458,-1.089 0.69,-1.247 0.915,-1.403 1.1,-1.532 1.322,-1.658 1.458,-1.845 1.626,-2.077 1.096,-2.443 0.958,-2.56 l 0.53,0 c -0.391,0.313 -0.824,0.347 -1.263,0.55 -0.329,0.152 -0.604,0.558 -0.841,0.821 -0.124,0.138 -0.247,0.277 -0.368,0.418 -0.058,0.071 -0.107,0.147 -0.149,0.228 0.116,-0.204 -0.238,-0.189 0.053,-0.176 C -0.721,-0.703 -0.36,-0.756 0,-0.75 0.483,-0.741 0.484,0.009 0,0"
               inkscape:connector-curvature="0" /></g><g
             transform="translate(102.0166,1418.5161)"
             id="g9092"><path
               id="path9094"
               style="fill:#36a00e;fill-opacity:1;fill-rule:nonzero;stroke:none"
               d="m 0,0 c -2.149,0 -4.68,-2.732 -4.99,-4.255 -0.301,-1.475 6.893,-0.426 6.71,-1.934 -0.284,-2.33 -5.773,-6.205 -4.834,-7.738 0.475,-0.777 3.93,-0.644 1.093,-2.449"
               inkscape:connector-curvature="0" /></g><g
             transform="translate(102.0166,1418.8911)"
             id="g9096"><path
               id="path9098"
               style="fill:#007f02;fill-opacity:1;fill-rule:nonzero;stroke:none"
               d="m 0,0 c -2.446,-0.322 -4.573,-2.192 -5.352,-4.531 -0.467,-1.403 2.793,-1.369 3.367,-1.409 0.599,-0.042 1.197,-0.08 1.796,-0.134 2.092,-0.19 0.985,-1.761 0.208,-2.743 -1.018,-1.285 -2.205,-2.414 -3.138,-3.767 -0.385,-0.559 -0.57,-1.17 -0.357,-1.817 0.202,-0.611 2.678,-0.988 1.266,-2.027 -0.385,-0.283 -0.011,-0.934 0.379,-0.647 0.961,0.707 1.946,1.599 0.492,2.35 -2.856,1.475 1.996,5.26 3.055,7.033 0.66,1.106 0.38,1.838 -0.799,2.195 -0.912,0.277 -1.962,0.247 -2.902,0.307 -0.698,0.044 -1.378,0.103 -2.067,0.233 -0.381,1.021 -0.105,1.841 0.828,2.463 0.859,0.958 1.933,1.539 3.224,1.744 0.472,0.062 0.479,0.813 0,0.75"
               inkscape:connector-curvature="0" /></g><g
             transform="translate(79.4072,1446.1543)"
             id="g9100"><path
               id="path9102"
               style="fill:#36a00e;fill-opacity:1;fill-rule:nonzero;stroke:none"
               d="m 0,0 c -0.185,-0.598 -1.533,-1.651 -1.454,-2.305 0.659,0.125 1.845,1.577 2.163,2.237 0.671,1.393 -1.541,1.276 -1.998,0.326 L 0,0 z"
               inkscape:connector-curvature="0" /></g><g
             transform="translate(85.6826,1444.6069)"
             id="g9104"><path
               id="path9106"
               style="fill:#36a00e;fill-opacity:1;fill-rule:nonzero;stroke:none"
               d="m 0,0 c -0.816,-0.654 -1.889,-1.205 -2.387,-1.794 0.835,-0.908 2.089,0.222 2.648,0.911 C 0.539,-0.541 0.96,-0.2 0.827,0.281 0.698,0.748 0.093,1 -0.258,0.688 L 0,0 z"
               inkscape:connector-curvature="0" /></g><g
             transform="translate(123.7139,1441.9893)"
             id="g9108"><path
               id="path9110"
               style="fill:#36a00e;fill-opacity:1;fill-rule:nonzero;stroke:none"
               d="m 0,0 c 0.002,-2.438 -1.597,-4.735 -2.248,-4.775 -0.558,-0.035 -1.585,-1.038 -2.966,-0.002 -0.471,0.352 -2.276,-1.565 -2.728,-1.975 -0.769,-0.695 1.198,-4.714 0,-4.925 -2.161,-0.381 -12.002,-2.285 -13.667,-3.844 0.959,0.574 11.144,0.604 12.549,0.602 1.943,-0.003 4.339,2.143 5.1,4.377 0.385,1.131 0.099,1.46 0.918,2.445 0.832,1 2.185,1.423 3.094,2.292 0.827,0.792 0.608,2.395 0.323,3.439 C 0.232,-1.844 0,0 0,0"
               inkscape:connector-curvature="0" /></g><g
             transform="translate(119.3389,1423.8032)"
             id="g9112"><path
               id="path9114"
               style="fill:#a36f13;fill-opacity:1;fill-rule:nonzero;stroke:none"
               d="m 0,0 c -0.734,1.866 -4.045,3.637 -5.557,5.029 -0.755,0.696 -0.969,4.213 -1.506,5.026 -0.354,0.534 -11.458,11.727 -12.565,12.687 -0.914,0.793 -3.841,4.079 -6.188,2.919 -1.018,-0.503 -4.58,-2.069 -5.075,-2.45 -1.005,-0.773 -2.427,-3.729 -3.445,-4.513 -0.945,-0.73 -6.154,-2.399 -7.185,-2.837 l 0.952,1.724 c 0.677,0.167 4.148,1.28 4.657,1.688 0.791,0.637 2.827,4.759 3.739,5.545 0.457,0.393 4.844,3.528 5.932,4.121 1.119,0.612 2.77,1.202 4.047,0.911 1.013,-0.231 5.441,-3.137 6.446,-4.075 0.841,-0.784 7.381,-9.595 8.075,-10.444 0.748,-0.914 4.209,-6.439 4.379,-7.079 C -3.021,7.228 1.87,4.581 2.115,4.225 2.385,3.834 2.742,3.726 3.03,3.353 L 0,0 z"
               inkscape:connector-curvature="0" /></g><g
             transform="translate(73.1348,1442.0962)"
             id="g9116"><path
               id="path9118"
               style="fill:#36a00e;fill-opacity:1;fill-rule:nonzero;stroke:none"
               d="m 0,0 c -0.145,-0.608 -1.422,-1.749 -1.3,-2.396 0.651,0.168 1.738,1.695 2.012,2.375 C 1.29,1.413 -0.91,1.15 -1.304,0.172 L 0,0 z"
               inkscape:connector-curvature="0" /></g><g
             transform="translate(77.6934,1441.2236)"
             id="g9120"><path
               id="path9122"
               style="fill:#36a00e;fill-opacity:1;fill-rule:nonzero;stroke:none"
               d="m 0,0 c -0.8,-0.731 -1.79,-1.305 -2.264,-1.948 0.893,-0.851 2.07,0.101 2.582,0.825 0.255,0.361 0.653,0.728 0.489,1.199 -0.16,0.458 -0.781,0.927 -1.11,0.593 L 0,0 z"
               inkscape:connector-curvature="0" /></g><g
             transform="translate(78.0107,1441.4165)"
             id="g9124"><path
               id="path9126"
               style="fill:#007f02;fill-opacity:1;fill-rule:nonzero;stroke:none"
               d="m 0,0 c 0.189,0.023 0.388,0.037 0.408,-0.207 0.023,-0.267 -0.249,-0.331 -0.4,-0.478 -0.279,-0.273 -0.437,-0.604 -0.563,-0.968 -0.159,-0.458 0.566,-0.653 0.723,-0.199 0.122,0.35 0.269,0.552 0.569,0.764 0.245,0.172 0.39,0.466 0.412,0.762 C 1.201,0.359 0.674,0.833 0,0.75 -0.474,0.691 -0.479,-0.06 0,0"
               inkscape:connector-curvature="0" /></g><g
             transform="translate(73.0752,1442.6548)"
             id="g9128"><path
               id="path9130"
               style="fill:#007f02;fill-opacity:1;fill-rule:nonzero;stroke:none"
               d="M 0,0 C 0.174,-0.073 0.341,-0.151 0.502,-0.251 0.753,-0.408 0.601,-0.462 0.453,-0.583 0.092,-0.88 0.12,-1.317 -0.004,-1.731 -0.144,-2.195 0.58,-2.392 0.719,-1.93 0.824,-1.58 0.778,-1.271 1.092,-1.041 1.33,-0.868 1.42,-0.628 1.388,-0.339 1.321,0.268 0.688,0.519 0.199,0.724 -0.247,0.91 -0.439,0.184 0,0"
               inkscape:connector-curvature="0" /></g><g
             transform="translate(102.1045,1354.041)"
             id="g9132"><path
               id="path9134"
               style="fill:#d8d8d8;fill-opacity:1;fill-rule:nonzero;stroke:none"
               d="m 0,0 c -0.015,1.538 7.452,28.574 9.446,29.137 3.075,0.866 6.159,2.18 9.1,3.303 2.832,1.082 -0.52,0.368 1.175,3.924 2.561,5.378 5.242,10.731 10.12,12.715 1.714,0.698 5.455,0.825 3.559,4.364 -1.269,2.369 7.856,0.95 9.966,3.55 2.395,2.948 11.238,13.63 10.104,16.638 -0.866,2.294 -3.038,3.616 -4.299,5.521 -1.549,2.341 -9.768,4.786 -11.949,4.322 C 35.017,83.004 25.69,90.912 22.618,90.106 20.063,89.437 11.847,79.542 11.847,79.542 10.665,78.774 6.212,76.655 4.922,75.923 4.313,75.578 4.027,70.696 0,65.39 c -1.619,-2.133 -7.074,-6.153 -8.582,-8.138 -2.481,-3.265 -3.342,-4.755 -3.131,-6.142 0.571,-3.761 -0.727,-12.722 -5.29,-14.909 -2.483,-1.19 0.056,-27.893 4.357,-32.977"
               inkscape:connector-curvature="0" /></g><g
             transform="translate(102.4795,1354.041)"
             id="g9136"><path
               id="path9138"
               style="fill:#828282;fill-opacity:1;fill-rule:nonzero;stroke:none"
               d="m 0,0 c 0.468,6.319 3.394,13.181 5.302,19.167 0.961,3.016 1.892,6.185 3.405,8.978 0.858,1.585 6.355,2.682 8.082,3.359 0.177,0.069 2.786,0.713 2.883,1.406 0.745,5.302 2.618,9.598 6.516,13.597 2.046,2.098 7.766,2.131 7.674,5.761 -0.019,0.732 -1.171,1.537 0.135,2.048 0.993,0.39 2.174,0.376 3.226,0.494 1.605,0.181 3.171,0.409 4.691,0.977 2.494,0.932 4.498,4.859 6.037,6.901 2.182,2.895 4.784,6.168 5.572,9.789 0.595,2.729 -3.805,6.582 -5.604,8.017 -2.415,1.926 -6.658,3.227 -9.683,3.374 -4.33,0.21 -7.704,3.218 -11.443,5.257 -1.784,0.972 -3.766,1.955 -5.662,0.847 C 17.979,88.13 15.423,84.664 13.05,81.963 10.736,79.329 8.117,78.195 4.977,76.581 4.242,76.203 4.11,76.058 3.826,75.304 2.436,71.615 1.456,68.125 -1.171,65.03 -4.083,61.597 -12.692,57.101 -12.486,51.716 -12.33,47.623 -12.6,43.855 -14.338,40.06 c -0.959,-2.095 -3.328,-2.711 -3.988,-4.792 -1.488,-4.691 -0.221,-11.116 0.424,-15.838 0.711,-5.211 1.249,-12.042 4.558,-16.396 0.288,-0.379 0.94,-0.006 0.647,0.379 -4.669,6.143 -4.86,17.194 -5.223,24.521 -0.121,2.438 -0.855,6.999 1.549,8.43 3.124,1.859 4.11,6.731 4.59,9.962 0.236,1.586 0.245,3.195 0.068,4.784 -0.273,2.46 2.655,5.586 4.188,7.138 3.873,3.92 7.666,6.432 10.198,11.502 0.845,1.693 1.336,3.552 1.876,5.355 0.437,1.459 4.482,2.689 5.713,3.327 2.471,1.28 4.044,3.854 5.902,5.876 1.345,1.463 2.748,2.869 4.243,4.177 2.401,2.102 4.473,0.828 6.92,-0.506 2.44,-1.329 6.172,-4.938 9.114,-4.887 4.675,0.08 9.992,-1.52 12.938,-5.291 1.302,-1.665 3.864,-3.09 3.277,-5.784 -0.241,-1.109 -0.924,-2.206 -1.468,-3.192 -1.303,-2.361 -2.966,-4.539 -4.585,-6.687 -1.25,-1.659 -2.566,-3.269 -3.877,-4.88 -1.482,-1.822 -5.291,-1.66 -7.349,-1.916 -1.21,-0.151 -3.172,-0.379 -2.713,-1.999 0.839,-2.965 -4.159,-4.23 -5.843,-5.336 C 25.14,46.902 23.929,45.171 22.784,43.557 21.298,41.461 17.268,36.113 18.861,33.285 19.039,32.971 9.049,29.903 8.254,28.839 6.515,26.51 5.768,22.985 4.878,20.29 2.796,13.982 -0.255,6.682 -0.75,0 -0.786,-0.483 -0.036,-0.479 0,0"
               inkscape:connector-curvature="0" /></g><g
             transform="translate(136.1035,1429.5151)"
             id="g9140"><path
               id="path9142"
               style="fill:#333333;fill-opacity:1;fill-rule:nonzero;stroke:none"
               d="m 0,0 c -2.507,-0.835 -3.508,-4.989 -1.438,-4.562 0.64,0.132 1.292,2.016 1.696,2.595 0.512,0.735 1.909,2.985 0.645,2.87 C 0.585,0.874 0.303,0.101 0,0"
               inkscape:connector-curvature="0" /></g><g
             transform="translate(116.1162,1429.2573)"
             id="g9144"><path
               id="path9146"
               style="fill:#333333;fill-opacity:1;fill-rule:nonzero;stroke:none"
               d="m 0,0 c -1.521,-0.616 -2.987,-4.222 -0.931,-2.677 0.743,0.558 0.941,1.848 1.57,2.522 C 1.307,0.562 3.011,1.154 2.063,1.676 1.481,1.998 0.616,0.25 0,0"
               inkscape:connector-curvature="0" /></g><g
             transform="translate(106.8711,1418.1416)"
             id="g9148"><path
               id="path9150"
               style="fill:#333333;fill-opacity:1;fill-rule:nonzero;stroke:none"
               d="M 0,0 C -0.848,-0.942 -0.105,-3.692 1.458,-1.229 2.5,0.413 2.684,3.773 0.959,1.789 0.66,1.445 0.303,0.336 0,0"
               inkscape:connector-curvature="0" /></g><g
             transform="translate(105.668,1401.7925)"
             id="g9152"><path
               id="path9154"
               style="fill:#333333;fill-opacity:1;fill-rule:nonzero;stroke:none"
               d="M 0,0 C -0.012,1.521 2.407,5.017 2.979,3.839 3.625,2.512 2.639,0.231 1.348,-2.238 0.859,-3.174 0.01,-1.067 0,0"
               inkscape:connector-curvature="0" /></g><g
             transform="translate(96.1924,1413.6807)"
             id="g9156"><path
               id="path9158"
               style="fill:#333333;fill-opacity:1;fill-rule:nonzero;stroke:none"
               d="m 0,0 c -0.37,-0.758 -1.135,-1.586 -1.339,-2.387 0.781,0.245 1.985,1.055 2.503,1.724 0.597,0.771 0.288,2.577 -0.713,1.436"
               inkscape:connector-curvature="0" /></g><g
             transform="translate(90.1318,1394.5313)"
             id="g9160"><path
               id="path9162"
               style="fill:#333333;fill-opacity:1;fill-rule:nonzero;stroke:none"
               d="M 0,0 C 0.021,0.725 0.469,1.349 0.71,1.93 0.905,2.398 1.265,3.631 1.879,3.795 3.231,4.158 1.377,0.108 1.418,-0.451"
               inkscape:connector-curvature="0" /></g><g
             transform="translate(123.4658,1416.9043)"
             id="g9164"><path
               id="path9166"
               style="fill:#333333;fill-opacity:1;fill-rule:nonzero;stroke:none"
               d="m 0,0 c -1.724,0.025 -2.344,-2.72 -2.644,-4.51 0.92,-0.54 3.157,3.196 3.031,3.929 C 0.356,-0.409 0.174,-0.002 0,0"
               inkscape:connector-curvature="0" /></g><g
             transform="translate(102.1045,1354.041)"
             id="g9168"><path
               id="path9170"
               style="fill:#b7b7b7;fill-opacity:1;fill-rule:nonzero;stroke:none"
               d="m 0,0 c -0.015,1.538 6.664,28.574 8.659,29.137 3.075,0.866 6.158,2.18 9.099,3.303 2.833,1.082 -0.519,0.368 1.176,3.924 2.561,5.378 5.242,10.731 10.12,12.715 1.714,0.698 6.242,0.825 4.346,4.364 -1.269,2.369 7.579,1.566 9.689,4.166 2.394,2.949 11.515,13.014 10.381,16.022 -0.866,2.294 -3.312,2.933 -4.489,4.892 -2.044,3.407 -6.773,3.79 -6.773,3.79 -0.074,-1.427 6.968,-11.291 7.355,-13.066 0.365,-1.68 -9.091,-8.907 -9.968,-10.227 -0.779,-1.17 -11.647,1.325 -12.147,0.917 -0.709,-0.58 -1.164,-0.665 -0.432,-1.534 0.844,-1.004 1.67,-2.32 1.907,-3.878 0.413,-2.718 -0.86,-2.679 -2.408,-3.059 -1.279,-0.313 -5.922,-4.193 -7.207,-5.217 -0.662,-0.526 -2.467,-7.665 -2.455,-8.583 0.009,-0.739 -0.105,-2.53 -0.491,-3.079 C 15.938,33.984 15.018,33.972 14.464,33.964 13.742,33.955 7.021,32.374 6.246,32.089 4.869,31.583 3.49,31.848 2.154,31.083 1.008,30.427 -1.964,19.11 -2.956,18.065 L 0,0 z"
               inkscape:connector-curvature="0" /></g><g
             transform="translate(114.0508,1463.7319)"
             id="g9172"><path
               id="path9174"
               style="fill:#b7b762;fill-opacity:1;fill-rule:nonzero;stroke:none"
               d="m 0,0 c -1.271,3.177 -2.354,11.677 -1.667,12.747 0.864,1.344 2.955,0.694 3.183,2.539 0.222,1.811 -1.702,3.713 -3.541,3.935 -1.522,0.184 -3.944,-1.815 -3.574,-3.347 0.199,-0.817 1.156,-2.154 1.304,-2.91 0.118,-0.598 -1.309,-13.649 -3.096,-13.542 -1.659,0.099 -2.733,14.331 -2.334,15.112 0.515,1.003 2.357,1.758 2.344,2.608 -0.027,1.735 -0.944,4.26 -3.348,4.48 -2.547,0.232 -3.645,-3.213 -3.337,-3.928 0.449,-1.046 1.692,-1.732 1.593,-2.934 -0.082,-1.008 -1.656,-15.167 -3.34,-15.202 -2.011,-0.042 -2.786,13.969 -1.979,14.522 0.603,0.412 1.424,2.229 1.395,2.686 -0.136,2.088 -1.241,3.826 -2.969,3.888 -1.816,0.065 -3.769,-1.182 -3.523,-3.351 0.268,-2.366 1.489,-1.595 2.004,-2.968 1.144,-3.048 -0.836,-12.506 -2.719,-12.312 -2.645,0.273 -2.938,7.76 -3.388,10.015 0.21,0.081 1.497,2.004 1.548,2.604 0.27,3.2 -2.098,4.543 -3.747,4.583 -2.38,0.056 -3.045,-1.757 -2.963,-3.959 0.02,-0.579 1.46,-2.502 2.46,-3.005 0.606,-0.305 0.764,-1.93 1.294,-5.711 0.215,-1.542 -0.359,-4.029 -0.97,-6.088 -0.499,-1.68 21.132,-3.576 27.305,-2.922 C -1.024,-2.35 0.052,-0.129 0,0"
               inkscape:connector-curvature="0" /></g><g
             transform="translate(114.4126,1463.8315)"
             id="g9176"><path
               id="path9178"
               style="fill:#ce921b;fill-opacity:1;fill-rule:nonzero;stroke:none"
               d="m 0,0 c -0.873,2.48 -1.292,5.07 -1.629,7.671 -0.387,2.982 -0.71,3.92 2.003,5.888 1.717,1.246 1.356,3.773 -0.467,4.927 -2.513,1.591 -4.557,0.957 -6.108,-1.569 -0.432,-0.705 -0.012,-1.666 0.31,-2.282 1.226,-2.342 0.701,-4.177 0.349,-6.727 -0.266,-1.925 -0.624,-3.835 -1.093,-5.721 -0.777,-3.123 -1.719,-1.29 -2.133,0.734 -0.513,2.503 -2.346,9.676 -0.468,11.959 1.422,1.728 2.884,2.837 0.976,5.236 -1.369,1.719 -4.206,2.733 -5.635,0.372 -2.013,-3.327 0.951,-3.483 0.572,-6.905 -0.449,-4.058 -0.972,-8.198 -2.098,-12.133 -0.901,-3.148 -1.909,1.357 -2.079,2.314 -0.38,2.134 -0.503,4.324 -0.58,6.487 -0.121,3.425 2.387,5.412 1.077,8.768 -2.029,5.196 -9.884,-1.093 -5.528,-3.996 2.336,-1.557 1.009,-6.591 0.576,-8.598 -0.256,-1.185 -0.667,-2.32 -1.219,-3.399 -1.207,-2.365 -2.889,3.019 -2.947,3.261 -0.27,1.131 -1.496,4.803 -0.645,5.743 1.155,1.274 1.343,2.338 1.266,3.96 -0.19,3.989 -7.17,4.969 -7.343,0.439 -0.117,-3.062 2.785,-4.07 3.283,-6.985 0.232,-1.426 0.382,-2.861 0.448,-4.306 -0.024,1.23 -0.99,-4.832 -0.995,-4.776 0.025,-0.264 0.087,-0.474 0.331,-0.631 4.049,-2.607 11.722,-2.179 16.29,-2.501 C -9.556,-3.047 -1.767,-5.041 0,-0.199 0.166,0.256 -0.559,0.451 -0.724,0 c -1.44,-3.946 -9.678,-2.216 -12.762,-2.02 -4.619,0.294 -9.304,0.699 -13.835,1.672 -2.581,0.554 -1.545,1.61 -1.241,3.948 0.32,2.461 -0.04,4.67 -0.457,7.109 -0.112,0.658 -0.29,1.359 -0.848,1.776 0.361,2.049 0.722,4.098 1.083,6.147 2.587,-2.474 2.975,-4.617 1.165,-6.429 -0.098,-0.108 -0.12,-0.224 -0.097,-0.365 0.298,-1.788 2.263,-14.922 5.54,-8.505 1.477,2.893 1.914,7.035 1.492,10.212 -0.078,0.589 -0.343,1.375 -0.866,1.724 0.821,-0.548 8.181,6.862 3.072,-1.1 -0.199,-0.311 -0.229,-0.629 -0.28,-0.997 -0.336,-2.416 -0.7,-13.134 2.484,-14.076 2.263,-0.669 3.432,12.24 3.63,13.874 0.14,1.153 0.189,1.719 -0.098,2.853 -0.37,1.457 -1.644,0.667 -1.243,2.803 1.668,-0.855 3.335,-1.71 5.003,-2.565 -0.543,-0.368 -1,-0.821 -1.37,-1.362 -1.048,-1.274 0.035,-5.632 0.176,-7.076 0.101,-1.041 1.195,-11.588 3.523,-7.736 1.458,2.412 1.59,6.055 1.965,8.772 0.231,1.676 0.827,3.716 -0.005,5.303 3.921,0.511 5.221,0.495 3.903,-0.048 -1.018,-0.44 -0.688,-0.234 -1.504,-1.002 -0.435,-0.41 -0.313,-1.568 -0.322,-2.036 C -2.685,7.256 -1.918,3.197 -0.724,-0.199 -0.564,-0.652 0.161,-0.458 0,0"
               inkscape:connector-curvature="0" /></g><g
             transform="translate(120.3389,1479.729)"
             id="g9180"><path
               id="path9182"
               style="fill:#dbe075;fill-opacity:1;fill-rule:nonzero;stroke:none"
               d="m 0,0 c 0.666,2.063 -0.799,4.42 -3.27,4.42 -2.909,0 -3.931,-1.473 -3.7,-4.42 0.141,-1.789 0.613,-1.99 1.003,-2.873 0.708,-1.603 -1.379,-9.441 -2.371,-9.798 -1.959,-0.705 -3.589,11.486 -2.968,12.671 0.782,1.488 3.041,0.986 3.105,2.947 0.062,1.924 -2.143,3.757 -4.098,3.83 -1.618,0.061 -3.974,-2.251 -3.439,-3.83 0.286,-0.843 1.42,-2.165 1.648,-2.947 0.181,-0.619 -0.998,-14.544 -2.888,-14.587 -1.753,-0.039 -3.317,14.911 -2.971,15.766 0.445,1.099 2.31,2.054 2.216,2.946 -0.195,1.823 -1.399,4.399 -3.95,4.42 -2.699,0.024 -3.525,-3.695 -3.134,-4.42 0.572,-1.061 1.945,-1.674 1.957,-2.946 0.008,-1.068 -1.221,-15.878 -2.988,-16.06 -2.111,-0.219 -3.339,14.23 -2.543,14.881 0.595,0.486 1.286,2.468 1.21,2.947 -0.34,2.183 -1.668,3.915 -3.492,3.83 -1.915,-0.089 -3.85,-1.57 -3.385,-3.83 0.507,-2.465 1.718,-1.549 2.391,-2.947 1.492,-3.106 -0.61,-13.006 -2.608,-12.966 -2.808,0.057 -2.909,7.687 -3.597,10.019 0.214,0.104 1.384,2.238 1.38,2.873 -0.02,3.389 -2.639,4.596 -4.376,4.494 -2.509,-0.147 -3.035,-2.112 -2.74,-4.42 0.077,-0.607 1.773,-2.505 2.874,-2.947 0.667,-0.268 0.988,-1.964 1.904,-5.893 0.73,-3.132 -1.364,-10.314 -1.364,-10.314 1.234,-1.13 9.487,-5.304 18.511,-5.304 10.259,0 18.513,5.304 18.513,5.304 -1.151,3.125 -1.722,14.558 -0.07,16.207 C -2.345,-2.052 -0.23,-0.712 0,0"
               inkscape:connector-curvature="0" /></g><g
             transform="translate(120.7007,1479.6294)"
             id="g9184"><path
               id="path9186"
               style="fill:#ffb915;fill-opacity:1;fill-rule:nonzero;stroke:none"
               d="m 0,0 c 0.871,5.657 -7.822,6.673 -7.727,1.272 0.033,-1.869 1.094,-3.418 1.166,-5.178 0.087,-2.136 -0.723,-4.499 -1.387,-6.511 -1.198,-3.63 -2.503,1.923 -2.748,3.084 -0.464,2.193 -0.758,4.475 -0.72,6.721 0.033,1.93 2.526,1.242 2.942,2.642 0.415,1.396 0.162,2.107 -0.617,3.364 -1.76,2.837 -4.953,1.885 -6.761,-0.034 -2.034,-2.16 1.103,-4.05 1.025,-6.187 -0.142,-3.899 -0.641,-7.943 -1.703,-11.699 -0.911,-3.222 -1.915,1.299 -2.137,2.314 -0.48,2.206 -0.754,4.466 -1.009,6.706 -0.161,1.414 -0.289,2.838 -0.308,4.261 -0.018,1.355 2.529,2.106 2.251,3.57 -0.371,1.942 -1.796,5.181 -4.411,4.682 -2.269,-0.434 -3.851,-2.514 -3.397,-4.882 0.267,-1.387 2.001,-2.203 1.886,-3.903 -0.109,-1.607 -0.282,-3.209 -0.459,-4.81 -0.246,-2.235 -0.572,-4.458 -1.013,-6.662 -0.147,-0.733 -0.349,-1.447 -0.575,-2.159 -0.726,-2.287 -1.77,1.711 -1.856,2.056 -0.618,2.472 -2.265,8.772 -0.871,11.263 1.102,1.968 2.144,5.041 -0.497,6.608 -1.532,0.908 -4.472,1.116 -5.379,-0.983 -1.546,-3.583 1.173,-3.489 2.153,-6.193 0.853,-2.353 0.057,-5.536 -0.474,-7.855 -0.761,-3.321 -3.034,-4.715 -4.131,-0.601 -0.498,1.869 -0.628,3.839 -0.965,5.74 -0.214,1.207 1.389,2.174 1.243,3.4 -0.581,4.877 -7.38,7.171 -7.94,1.192 -0.123,-1.311 0.446,-1.96 1.237,-2.919 1.369,-1.661 2.387,-1.992 2.967,-4.299 1.128,-4.489 0.549,-8.562 -0.703,-12.955 -0.033,-0.116 -0.004,-0.286 0.097,-0.365 10.206,-7.968 27.004,-6.633 37.479,-0.058 0.139,0.087 0.223,0.259 0.172,0.423 -0.969,3.095 -1.048,6.479 -1.086,9.699 -0.022,1.814 0.078,3.665 0.545,5.422 0.395,1.484 2.735,2.497 3.673,3.744 0.291,0.387 -0.361,0.76 -0.648,0.379 -2.504,-3.33 -3.934,-3.019 -4.263,-7.377 -0.069,-0.915 0.893,-11.853 1.153,-11.69 -10.572,-6.635 -24.093,-6.597 -35.038,-0.938 -1.821,0.941 -1.062,1.594 -0.625,3.49 0.428,1.859 0.693,3.731 0.794,5.634 0.114,2.126 -0.407,6.664 -2.242,8.069 -0.582,0.451 -1.163,0.901 -1.745,1.352 -2.309,3.924 -0.687,3.841 4.866,-0.25 -0.081,-0.178 -0.729,-1.032 -0.81,-1.327 -0.225,-0.821 0.442,-2.63 0.565,-3.481 0.324,-2.247 0.538,-6.35 3.294,-7 3.245,-0.764 4.443,11.649 3.032,13.518 0.027,-0.036 -0.387,0.615 -0.593,0.741 -2.227,1.37 4.844,1.412 3.222,-0.741 -0.335,-0.444 -0.271,-1.239 -0.292,-1.742 -0.151,-3.591 0.421,-7.436 1.29,-10.912 1.52,-6.082 3.525,-0.022 4.015,2.717 0.583,3.256 0.905,6.575 1.158,9.87 0.068,0.896 0.125,1.479 -0.379,2.339 -0.019,0.025 -0.039,0.051 -0.058,0.076 -2.211,1.908 -0.643,2.724 4.702,2.447 0.451,-1.241 -1.355,-2.683 -1.995,-3.616 -1.055,-1.54 0.353,-6.275 0.589,-8.007 0.203,-1.497 0.442,-7.573 2.379,-8.232 2.792,-0.951 3.778,12.979 3.59,14.871 -0.035,0.356 -0.484,1.048 -0.516,1.113 -1.747,2.138 -0.364,2.246 4.148,0.326 -0.32,-0.115 -0.611,-0.277 -0.871,-0.484 -0.917,-1.026 -0.883,-1.525 -0.837,-2.944 0.097,-3.01 0.33,-7.989 2.292,-10.411 1.365,-1.684 2.161,0.445 2.636,1.684 0.723,1.884 1.104,3.91 1.363,5.905 0.091,0.709 0.061,1.355 -0.105,2.037 -0.119,0.29 -0.265,0.567 -0.44,0.829 -1.807,5.215 0.088,5.896 5.683,2.044 C -0.796,-0.273 -0.074,-0.477 0,0"
               inkscape:connector-curvature="0" /></g><g
             transform="translate(117.0898,1468.5313)"
             id="g9188"><path
               id="path9190"
               style="fill:#e0b14b;fill-opacity:1;fill-rule:nonzero;stroke:none"
               d="m 0,0 c 0,0 -8.253,-5.305 -18.512,-5.305 -9.024,0 -17.278,4.176 -18.512,5.305 l 0,-5.894 c 1.234,-1.129 9.488,-5.304 18.512,-5.304 C -8.253,-11.198 0,-5.894 0,-5.894 L 0,0 z"
               inkscape:connector-curvature="0" /></g><g
             transform="translate(116.9004,1468.855)"
             id="g9192"><path
               id="path9194"
               style="fill:#ffb915;fill-opacity:1;fill-rule:nonzero;stroke:none"
               d="m 0,0 c -10.169,-6.384 -26.632,-7.816 -36.57,-0.059 -0.244,0.191 -0.64,0.093 -0.64,-0.265 0,-2.192 -1.012,-5.488 1.039,-6.814 5.58,-3.608 13.026,-4.894 19.539,-4.712 5.674,0.159 11.428,2.167 16.352,4.916 1.896,1.059 0.844,4.743 0.844,6.61 0,0.484 -0.75,0.484 -0.75,0 0,-1.14 0.41,-5.435 -0.111,-5.751 -3.138,-1.905 -6.644,-3.145 -10.174,-4.085 -6.422,-1.709 -12.991,-0.975 -19.247,0.993 -2.113,0.666 -4.154,1.579 -6.074,2.676 -1.159,0.662 -0.668,2.509 -0.668,3.71 l 0,1.714 c 0,1.307 -0.129,0.092 -0.226,0.155 1.302,-0.841 2.692,-1.478 4.112,-2.09 3.956,-1.707 8.186,-2.579 12.459,-2.948 6.899,-0.595 14.643,1.63 20.494,5.303 C 0.787,-0.391 0.411,0.258 0,0"
               inkscape:connector-curvature="0" /></g><g
             transform="translate(81.2168,1467.3892)"
             id="g9196"><path
               id="path9198"
               style="fill:#a0243c;fill-opacity:1;fill-rule:nonzero;stroke:none"
               d="M 0,0 C -0.914,-1.142 -0.579,-2.058 -0.442,-3.298 -0.313,-4.463 0.707,-6.227 1.842,-5.07 2.853,-4.041 2.69,-2.409 2.316,-1.072 2.117,-0.36 1.868,0.079 1.301,0.458 0.883,0.737 0.201,0.251 0,0"
               inkscape:connector-curvature="0" /></g><g
             transform="translate(80.8931,1467.5786)"
             id="g9200"><path
               id="path9202"
               style="fill:#ffb915;fill-opacity:1;fill-rule:nonzero;stroke:none"
               d="M 0,0 C -0.913,-1.274 -0.85,-3.277 -0.164,-4.67 0.459,-5.936 1.598,-6.485 2.63,-5.295 4.155,-3.535 2.605,2.687 0.059,0.076 -0.279,-0.271 0.25,-0.801 0.589,-0.455 1.74,0.726 2.264,-1.253 2.423,-1.95 2.663,-3 2.635,-4.146 1.9,-4.995 0.903,-6.146 0.272,-3.613 0.215,-3.157 0.082,-2.086 -0.02,-1.311 0.647,-0.379 0.93,0.015 0.279,0.389 0,0"
               inkscape:connector-curvature="0" /></g><g
             transform="translate(88.4141,1464.9424)"
             id="g9204"><path
               id="path9206"
               style="fill:#a0243c;fill-opacity:1;fill-rule:nonzero;stroke:none"
               d="m 0,0 c -1.398,-1.309 -0.887,-2.359 -0.677,-3.781 0.198,-1.335 1.762,-3.357 3.501,-2.031 1.548,1.181 1.3,3.051 0.727,4.583 C 3.246,-0.413 2.864,0.09 1.994,0.525 1.354,0.845 0.309,0.288 0,0"
               inkscape:connector-curvature="0" /></g><g
             transform="translate(88.1489,1465.2075)"
             id="g9208"><path
               id="path9210"
               style="fill:#ffb915;fill-opacity:1;fill-rule:nonzero;stroke:none"
               d="M 0,0 C -1.285,-1.331 -1.328,-3.392 -0.488,-5.032 0.404,-6.774 2.069,-7.442 3.641,-6.097 6.251,-3.862 3.459,2.768 0,0 -0.378,-0.302 0.157,-0.829 0.53,-0.53 3.115,1.537 4.434,-3.378 3.491,-5.104 2.411,-7.081 0.482,-5.749 0.003,-4.204 -0.408,-2.878 -0.482,-1.579 0.53,-0.53 0.866,-0.183 0.336,0.349 0,0"
               inkscape:connector-curvature="0" /></g><g
             transform="translate(97.542,1464.2822)"
             id="g9212"><path
               id="path9214"
               style="fill:#a0243c;fill-opacity:1;fill-rule:nonzero;stroke:none"
               d="m 0,0 c -1.518,-1.479 -0.962,-2.665 -0.734,-4.272 0.213,-1.509 1.91,-3.793 3.796,-2.294 1.677,1.333 1.41,3.447 0.788,5.178 C 3.519,-0.466 3.105,0.102 2.162,0.594 1.468,0.955 0.334,0.326 0,0"
               inkscape:connector-curvature="0" /></g><g
             transform="translate(97.2769,1464.5474)"
             id="g9216"><path
               id="path9218"
               style="fill:#ffb915;fill-opacity:1;fill-rule:nonzero;stroke:none"
               d="m 0,0 c -1.395,-1.504 -1.424,-3.796 -0.525,-5.627 0.754,-1.533 2.54,-2.877 4.117,-1.47 1.776,1.586 1.545,3.874 0.736,5.918 C 3.556,0.771 1.604,1.314 0,0 -0.375,-0.307 0.16,-0.834 0.53,-0.53 2.279,0.902 3.518,-0.912 3.979,-2.463 4.379,-3.804 4.331,-5.204 3.372,-6.29 1.927,-7.925 0.37,-6.142 -0.05,-4.729 -0.497,-3.229 -0.586,-1.734 0.53,-0.53 0.858,-0.176 0.33,0.355 0,0"
               inkscape:connector-curvature="0" /></g><g
             transform="translate(106.9648,1465.2432)"
             id="g9220"><path
               id="path9222"
               style="fill:#a0243c;fill-opacity:1;fill-rule:nonzero;stroke:none"
               d="m 0,0 c -1.398,-1.275 -0.887,-2.297 -0.677,-3.682 0.198,-1.3 1.762,-3.269 3.501,-1.977 1.548,1.149 1.3,2.971 0.727,4.462 C 3.246,-0.402 2.864,0.088 1.994,0.511 1.354,0.823 0.309,0.28 0,0"
               inkscape:connector-curvature="0" /></g><g
             transform="translate(106.6997,1465.5083)"
             id="g9224"><path
               id="path9226"
               style="fill:#ffb915;fill-opacity:1;fill-rule:nonzero;stroke:none"
               d="M 0,0 C -1.279,-1.29 -1.332,-3.308 -0.488,-4.912 0.417,-6.631 2.078,-7.254 3.641,-5.951 6.286,-3.745 3.433,2.672 0,0 -0.381,-0.297 0.153,-0.824 0.53,-0.53 3.078,1.453 4.468,-3.231 3.491,-4.973 2.419,-6.881 0.489,-5.622 0.003,-4.098 -0.409,-2.808 -0.477,-1.546 0.53,-0.53 0.871,-0.187 0.341,0.344 0,0"
               inkscape:connector-curvature="0" /></g><g
             transform="translate(114.8652,1467.6836)"
             id="g9228"><path
               id="path9230"
               style="fill:#a0243c;fill-opacity:1;fill-rule:nonzero;stroke:none"
               d="m 0,0 c -0.897,-1.142 -0.568,-2.058 -0.435,-3.298 0.127,-1.165 1.13,-2.929 2.245,-1.772 0.992,1.03 0.834,2.662 0.465,3.998 C 2.08,-0.36 1.836,0.079 1.278,0.458 0.867,0.738 0.197,0.252 0,0"
               inkscape:connector-curvature="0" /></g><g
             transform="translate(114.5415,1467.873)"
             id="g9232"><path
               id="path9234"
               style="fill:#ffb915;fill-opacity:1;fill-rule:nonzero;stroke:none"
               d="m 0,0 c -0.922,-1.31 -0.769,-3.136 -0.199,-4.581 0.47,-1.188 1.536,-1.872 2.597,-0.943 1.949,1.704 0.157,8.211 -2.339,5.6 -0.334,-0.35 0.195,-0.881 0.53,-0.531 1.144,1.197 1.652,-0.868 1.8,-1.541 C 2.617,-3.03 2.577,-4.153 1.868,-4.994 0.9,-6.143 0.276,-3.587 0.224,-3.157 0.095,-2.094 -0.009,-1.312 0.647,-0.379 0.927,0.018 0.276,0.392 0,0"
               inkscape:connector-curvature="0" /></g><g
             transform="translate(89.7061,1450.6851)"
             id="g9236"><path
               id="path9238"
               style="fill:#007f02;fill-opacity:1;fill-rule:nonzero;stroke:none"
               d="M 0,0 C 3.04,-0.755 8.25,-1.91 7.557,2.935 7.489,3.412 6.766,3.208 6.833,2.735 7.41,-1.296 2.521,0.146 0.199,0.724 -0.27,0.84 -0.469,0.117 0,0"
               inkscape:connector-curvature="0" /></g><g
             transform="translate(79.665,1452.9458)"
             id="g9240"><path
               id="path9242"
               style="fill:#529120;fill-opacity:1;fill-rule:nonzero;stroke:none"
               d="m 0,0 c 0.773,-0.344 1.811,-0.92 2.88,-0.866 0.443,0.023 1.202,-0.281 1.706,0.057 2.767,1.859 0.502,3.93 0.787,3.775"
               inkscape:connector-curvature="0" /></g><g
             transform="translate(79.4756,1452.6221)"
             id="g9244"><path
               id="path9246"
               style="fill:#007f02;fill-opacity:1;fill-rule:nonzero;stroke:none"
               d="M 0,0 C 0.524,-0.239 1.042,-0.479 1.583,-0.678 2.219,-0.912 2.84,-0.863 3.497,-0.954 4.609,-1.108 5.309,-0.726 6.013,0.148 6.484,0.732 6.603,1.446 6.482,2.168 6.432,2.467 6.288,2.758 6.147,3.024 6.05,3.208 5.934,3.56 5.915,3.297 5.757,3.177 5.599,3.057 5.44,2.936 5.448,2.933 5.455,2.931 5.463,2.928 5.919,2.764 6.114,3.489 5.662,3.651 5.655,3.654 5.647,3.657 5.64,3.659 5.395,3.747 5.182,3.523 5.165,3.297 5.153,3.132 5.284,2.989 5.369,2.861 5.648,2.441 5.797,1.998 5.786,1.491 5.774,0.987 5.412,0.566 5.082,0.229 4.51,-0.355 4.039,-0.212 3.314,-0.179 2.215,-0.127 1.372,0.194 0.379,0.647 -0.058,0.847 -0.439,0.201 0,0"
               inkscape:connector-curvature="0" /></g><g
             transform="translate(96.4346,1454.5254)"
             id="g9248"><path
               id="path9250"
               style="fill:#5bdd2a;fill-opacity:1;fill-rule:nonzero;stroke:none"
               d="M 0,0 C 0.291,0.185 2.415,0.273 2.764,0.273"
               inkscape:connector-curvature="0" /></g><g
             transform="translate(96.624,1454.2017)"
             id="g9252"><path
               id="path9254"
               style="fill:#007f02;fill-opacity:1;fill-rule:nonzero;stroke:none"
               d="m 0,0 c 0.317,0.164 0.873,0.133 1.234,0.16 0.445,0.032 0.893,0.059 1.34,0.062 0.484,0.004 0.484,0.754 0,0.75 C 2.085,0.969 1.595,0.936 1.107,0.9 0.635,0.865 0.053,0.87 -0.379,0.647 -0.809,0.426 -0.429,-0.221 0,0"
               inkscape:connector-curvature="0" /></g><g
             transform="translate(84.4121,1455.1992)"
             id="g9256"><path
               id="path9258"
               style="fill:#d6e900;fill-opacity:1;fill-rule:nonzero;stroke:none"
               d="m 0,0 c -0.16,-1.824 -2.176,-3.699 -3.71,-3.22 -1.137,0.356 -2.33,3.285 -0.693,4.19 L 0,0 z"
               inkscape:connector-curvature="0" /></g><g
             transform="translate(96.167,1453.7979)"
             id="g9260"><path
               id="path9262"
               style="fill:#d6e900;fill-opacity:1;fill-rule:nonzero;stroke:none"
               d="M 0,0 C 1.079,-1.894 -1.189,-3.717 -3.005,-3.353 -3.638,-3.226 -4.939,-3.519 -5.584,-1.199 -6.04,0.44 -4.989,0.723 -4.349,0.889 -3.296,1.161 -0.549,0.964 0,0"
               inkscape:connector-curvature="0" /></g><g
             transform="translate(93.8887,1454.2617)"
             id="g9264"><path
               id="path9266"
               style="fill:#085108;fill-opacity:1;fill-rule:nonzero;stroke:none"
               d="m 0,0 c -0.549,0.1 -1.458,-1.148 -1.378,-1.649 0.07,-0.434 0.245,-2.015 0.651,-2.168 0.646,-0.242 -0.023,1.759 0.237,2.254 0,0 0.805,1.505 0.49,1.563"
               inkscape:connector-curvature="0" /></g><g
             transform="translate(81.7012,1455.9282)"
             id="g9268"><path
               id="path9270"
               style="fill:#085108;fill-opacity:1;fill-rule:nonzero;stroke:none"
               d="m 0,0 c -0.567,-0.034 -1.168,-0.762 -1.236,-1.009 -0.112,-0.405 -0.196,-1.125 -0.151,-1.406 0.518,-3.232 0.918,0.071 0.993,0.538 C -0.325,-1.454 0.767,0.047 0,0"
               inkscape:connector-curvature="0" /></g><g
             transform="translate(96.7939,1453.3232)"
             id="g9272"><path
               id="path9274"
               style="fill:#007f02;fill-opacity:1;fill-rule:nonzero;stroke:none"
               d="m 0,0 c 3.008,0.149 6.226,0.063 9.19,0.628 2.839,0.542 4.042,-1.243 5.613,-3.108 0.449,-0.533 -1.875,-3.886 -2.119,-4.675 -0.143,-0.464 0.581,-0.66 0.724,-0.199 0.456,1.478 2.525,3.406 2.228,4.993 C 15.412,-1.159 13.157,0.464 12.219,1.17 10.975,2.105 8.817,1.32 7.402,1.207 4.938,1.009 2.468,0.873 0,0.75 -0.481,0.726 -0.483,-0.024 0,0"
               inkscape:connector-curvature="0" /></g><g
             transform="translate(99.4805,1453.6753)"
             id="g9276"><path
               id="path9278"
               style="fill:#5bdd2a;fill-opacity:1;fill-rule:nonzero;stroke:none"
               d="M 0,0 C -0.332,2.542 -2.456,5.182 -6.898,3.913 -8.704,3.397 -8.478,2.076 -9.413,1.354 -9.896,0.979 -9.812,0.464 -9.812,0.464 c 0.294,-0.009 2.103,0.773 3.257,0.66 0.98,-0.097 3.249,-0.957 3.976,-1.021 0,0 -0.144,-2.841 -1.988,-3.38 1.805,-0.056 2.251,0.213 2.717,0.404 0.447,0.184 1.808,1.076 1.883,1.617 0.145,1.042 -0.315,2.38 -0.315,2.38"
               inkscape:connector-curvature="0" /></g><g
             transform="translate(99.8423,1453.7749)"
             id="g9280"><path
               id="path9282"
               style="fill:#007f02;fill-opacity:1;fill-rule:nonzero;stroke:none"
               d="M 0,0 C -0.434,2.611 -2.234,4.293 -4.869,4.513 -6.114,4.617 -8.016,4.333 -8.831,3.27 -9.406,2.52 -10.576,1.349 -10.548,0.364 c 0.007,-0.261 0.232,-0.403 0.474,-0.362 0.608,0.105 1.201,0.342 1.797,0.499 1.194,0.315 2.212,-0.023 3.343,-0.361 0.432,-0.129 0.861,-0.258 1.295,-0.377 0.539,-0.149 0.322,0.212 0.307,0.057 -0.105,-1.122 -0.557,-2.366 -1.697,-2.835 -0.372,-0.153 -0.353,-0.733 0.1,-0.736 1.456,-0.012 2.711,0.145 3.887,1.056 1.357,1.051 1.271,2.229 0.76,3.819 -0.148,0.458 -0.872,0.262 -0.724,-0.2 0.459,-1.426 0.442,-2.398 -0.839,-3.267 -0.931,-0.631 -1.993,-0.667 -3.084,-0.658 l 0.099,-0.737 c 1.528,0.628 2.157,2.159 2.264,3.741 0.01,0.151 -0.121,0.337 -0.275,0.362 -1.354,0.215 -2.617,0.813 -3.976,1.021 -1.196,0.182 -2.313,-0.464 -3.456,-0.66 l 0.475,-0.362 c -0.013,0.446 0.784,1.169 1.013,1.571 0.858,1.502 2.287,1.816 3.916,1.828 2.315,0.015 3.796,-1.858 4.145,-3.962 C -0.645,-0.676 0.078,-0.473 0,0"
               inkscape:connector-curvature="0" /></g><g
             transform="translate(82.2656,1458.9741)"
             id="g9284"><path
               id="path9286"
               style="fill:#5bdd2a;fill-opacity:1;fill-rule:nonzero;stroke:none"
               d="m 0,0 c -2.929,-0.123 -2.708,-2.133 -3.61,-2.74 1.289,-0.484 4.139,-0.704 5.092,-0.785 0.365,-0.031 1.625,-0.694 1.844,-0.746 0,0 0.207,4.419 -3.326,4.271"
               inkscape:connector-curvature="0" /></g><g
             transform="translate(82.2656,1459.3491)"
             id="g9288"><path
               id="path9290"
               style="fill:#007f02;fill-opacity:1;fill-rule:nonzero;stroke:none"
               d="m 0,0 c -0.967,-0.075 -1.814,-0.284 -2.542,-0.953 -0.58,-0.534 -0.72,-1.41 -1.333,-1.897 -0.238,-0.189 -0.074,-0.546 0.165,-0.627 1.233,-0.417 2.56,-0.544 3.849,-0.678 0.549,-0.056 1.131,-0.043 1.655,-0.229 0.491,-0.173 0.942,-0.447 1.433,-0.623 0.238,-0.086 0.465,0.134 0.474,0.361 C 3.791,-2.29 2.579,0.003 0,0 -0.483,0 -0.484,-0.75 0,-0.75 2.172,-0.748 3.024,-2.729 2.951,-4.646 l 0.475,0.362 c -0.944,0.339 -1.646,0.732 -2.657,0.82 -1.432,0.125 -2.911,0.248 -4.28,0.711 l 0.166,-0.627 c 0.361,0.286 0.563,0.687 0.776,1.088 0.564,1.055 1.387,1.451 2.569,1.542 0.479,0.037 0.482,0.787 0,0.75"
               inkscape:connector-curvature="0" /></g></g></g></g></g></svg>