<?xml version="1.0" encoding="UTF-8" standalone="no"?>
<!-- Created with Inkscape (http://www.inkscape.org/) -->

<svg
   xmlns:dc="http://purl.org/dc/elements/1.1/"
   xmlns:cc="http://creativecommons.org/ns#"
   xmlns:rdf="http://www.w3.org/1999/02/22-rdf-syntax-ns#"
   xmlns:svg="http://www.w3.org/2000/svg"
   xmlns="http://www.w3.org/2000/svg"
   xmlns:sodipodi="http://sodipodi.sourceforge.net/DTD/sodipodi-0.dtd"
   xmlns:inkscape="http://www.inkscape.org/namespaces/inkscape"
   id="svg2"
   version="1.1"
   inkscape:version="0.48.2 r9819"
   width="2560"
   height="1920"
   xml:space="preserve"
   sodipodi:docname="screen__wald2_cs5.svg"><metadata
     id="metadata8"><rdf:RDF><cc:Work
         rdf:about=""><dc:format>image/svg+xml</dc:format><dc:type
           rdf:resource="http://purl.org/dc/dcmitype/StillImage" /><dc:title></dc:title></cc:Work></rdf:RDF></metadata><defs
     id="defs6"><clipPath
       clipPathUnits="userSpaceOnUse"
       id="clipPath18"><path
         d="m 0,1536 2048,0 L 2048,0 0,0 0,1536 z"
         id="path20" /></clipPath><clipPath
       clipPathUnits="userSpaceOnUse"
       id="clipPath30"><path
         d="m 0,1536 2048,0 L 2048,0 0,0 0,1536 z"
         id="path32" /></clipPath><clipPath
       clipPathUnits="userSpaceOnUse"
       id="clipPath1618"><path
         d="m 0,1536 2048,0 L 2048,0 0,0 0,1536 z"
         id="path1620" /></clipPath><clipPath
       clipPathUnits="userSpaceOnUse"
       id="clipPath1642"><path
         d="m 0,1536 2048,0 L 2048,0 0,0 0,1536 z"
         id="path1644" /></clipPath><clipPath
       clipPathUnits="userSpaceOnUse"
       id="clipPath1754"><path
         d="m 0,1536 2048,0 L 2048,0 0,0 0,1536 z"
         id="path1756" /></clipPath><clipPath
       clipPathUnits="userSpaceOnUse"
       id="clipPath7778"><path
         d="m 0,1536 2048,0 L 2048,0 0,0 0,1536 z"
         id="path7780" /></clipPath><clipPath
       clipPathUnits="userSpaceOnUse"
       id="clipPath7838"><path
         d="m 611.262,1266.5 30.647,0 0,-34.39 -30.647,0 0,34.39 z"
         id="path7840" /></clipPath><clipPath
       clipPathUnits="userSpaceOnUse"
       id="clipPath7870"><path
         d="m 767.558,1245.81 30.647,0 0,-34.39 -30.647,0 0,34.39 z"
         id="path7872" /></clipPath><clipPath
       clipPathUnits="userSpaceOnUse"
       id="clipPath7902"><path
         d="m 1107.38,1247.01 30.65,0 0,-34.39 -30.65,0 0,34.39 z"
         id="path7904" /></clipPath><clipPath
       clipPathUnits="userSpaceOnUse"
       id="clipPath7934"><path
         d="m 919.184,1250.86 30.647,0 0,-34.39 -30.647,0 0,34.39 z"
         id="path7936" /></clipPath><clipPath
       clipPathUnits="userSpaceOnUse"
       id="clipPath7966"><path
         d="m 1277.88,1248.99 25.91,0 0,-36.93 -25.91,0 0,36.93 z"
         id="path7968" /></clipPath><clipPath
       clipPathUnits="userSpaceOnUse"
       id="clipPath7998"><path
         d="m 1439.02,1258.03 25.91,0 0,-36.93 -25.91,0 0,36.93 z"
         id="path8000" /></clipPath><clipPath
       clipPathUnits="userSpaceOnUse"
       id="clipPath8162"><path
         d="m 0,1536 2048,0 L 2048,0 0,0 0,1536 z"
         id="path8164" /></clipPath><clipPath
       clipPathUnits="userSpaceOnUse"
       id="clipPath8198"><path
         d="m 1761.68,1506.2 30.64,0 0,-34.4 -30.64,0 0,34.4 z"
         id="path8200" /></clipPath><clipPath
       clipPathUnits="userSpaceOnUse"
       id="clipPath8218"><path
         d="m 1815.85,1526.96 30.65,0 0,-34.4 -30.65,0 0,34.4 z"
         id="path8220" /></clipPath><clipPath
       clipPathUnits="userSpaceOnUse"
       id="clipPath8238"><path
         d="m 1867.85,1550.5 30.65,0 0,-34.39 -30.65,0 0,34.39 z"
         id="path8240" /></clipPath><clipPath
       clipPathUnits="userSpaceOnUse"
       id="clipPath8258"><path
         d="m 1912.11,1476.5 30.65,0 0,-34.39 -30.65,0 0,34.39 z"
         id="path8260" /></clipPath><clipPath
       clipPathUnits="userSpaceOnUse"
       id="clipPath8278"><path
         d="m 1864.17,1450.46 30.65,0 0,-34.4 -30.65,0 0,34.4 z"
         id="path8280" /></clipPath><clipPath
       clipPathUnits="userSpaceOnUse"
       id="clipPath8298"><path
         d="m 1815.85,1427.5 30.65,0 0,-34.39 -30.65,0 0,34.39 z"
         id="path8300" /></clipPath><clipPath
       clipPathUnits="userSpaceOnUse"
       id="clipPath8318"><path
         d="m 1768.76,1411.38 30.65,0 0,-34.4 -30.65,0 0,34.4 z"
         id="path8320" /></clipPath><clipPath
       clipPathUnits="userSpaceOnUse"
       id="clipPath8338"><path
         d="m 1746.35,1363 30.65,0 0,-34.39 -30.65,0 0,34.39 z"
         id="path8340" /></clipPath><clipPath
       clipPathUnits="userSpaceOnUse"
       id="clipPath8358"><path
         d="m 1797.17,1339.78 30.65,0 0,-34.39 -30.65,0 0,34.39 z"
         id="path8360" /></clipPath><clipPath
       clipPathUnits="userSpaceOnUse"
       id="clipPath8378"><path
         d="m 1855.65,1330.5 30.65,0 0,-34.39 -30.65,0 0,34.39 z"
         id="path8380" /></clipPath><clipPath
       clipPathUnits="userSpaceOnUse"
       id="clipPath8398"><path
         d="m 1912.11,1323.5 30.65,0 0,-34.39 -30.65,0 0,34.39 z"
         id="path8400" /></clipPath><clipPath
       clipPathUnits="userSpaceOnUse"
       id="clipPath8418"><path
         d="m 1962.35,1323.5 30.65,0 0,-34.39 -30.65,0 0,34.39 z"
         id="path8420" /></clipPath><clipPath
       clipPathUnits="userSpaceOnUse"
       id="clipPath8438"><path
         d="m 1971.35,1266.5 30.65,0 0,-34.39 -30.65,0 0,34.39 z"
         id="path8440" /></clipPath><clipPath
       clipPathUnits="userSpaceOnUse"
       id="clipPath8458"><path
         d="m 1927.75,1235 30.65,0 0,-34.39 -30.65,0 0,34.39 z"
         id="path8460" /></clipPath><clipPath
       clipPathUnits="userSpaceOnUse"
       id="clipPath8478"><path
         d="m 1874.29,1206.5 30.64,0 0,-34.39 -30.64,0 0,34.39 z"
         id="path8480" /></clipPath><clipPath
       clipPathUnits="userSpaceOnUse"
       id="clipPath8498"><path
         d="m 1822.02,1177 30.64,0 0,-34.39 -30.64,0 0,34.39 z"
         id="path8500" /></clipPath><clipPath
       clipPathUnits="userSpaceOnUse"
       id="clipPath8518"><path
         d="m 1822.02,1008.75 30.64,0 0,-34.393 -30.64,0 0,34.393 z"
         id="path8520" /></clipPath><clipPath
       clipPathUnits="userSpaceOnUse"
       id="clipPath8538"><path
         d="m 1868.85,1043 30.65,0 0,-34.39 -30.65,0 0,34.39 z"
         id="path8540" /></clipPath><clipPath
       clipPathUnits="userSpaceOnUse"
       id="clipPath8558"><path
         d="m 1916.35,1076.89 30.65,0 0,-34.39 -30.65,0 0,34.39 z"
         id="path8560" /></clipPath><clipPath
       clipPathUnits="userSpaceOnUse"
       id="clipPath8578"><path
         d="m 1962.35,1110 30.65,0 0,-34.39 -30.65,0 0,34.39 z"
         id="path8580" /></clipPath><clipPath
       clipPathUnits="userSpaceOnUse"
       id="clipPath8598"><path
         d="m 2000.35,1142 30.65,0 0,-34.39 -30.65,0 0,34.39 z"
         id="path8600" /></clipPath><clipPath
       clipPathUnits="userSpaceOnUse"
       id="clipPath8618"><path
         d="m 1981.35,942.5 30.65,0 0,-34.395 -30.65,0 0,34.395 z"
         id="path8620" /></clipPath><clipPath
       clipPathUnits="userSpaceOnUse"
       id="clipPath8638"><path
         d="m 1932.85,920.5 30.65,0 0,-34.395 -30.65,0 0,34.395 z"
         id="path8640" /></clipPath><clipPath
       clipPathUnits="userSpaceOnUse"
       id="clipPath8658"><path
         d="m 1887.85,901.5 30.65,0 0,-34.395 -30.65,0 0,34.395 z"
         id="path8660" /></clipPath><clipPath
       clipPathUnits="userSpaceOnUse"
       id="clipPath8678"><path
         d="m 1836.85,882 30.65,0 0,-34.395 -30.65,0 0,34.395 z"
         id="path8680" /></clipPath><clipPath
       clipPathUnits="userSpaceOnUse"
       id="clipPath8718"><path
         d="m 186.853,1503.5 30.647,0 0,-34.39 -30.647,0 0,34.39 z"
         id="path8720" /></clipPath><clipPath
       clipPathUnits="userSpaceOnUse"
       id="clipPath8738"><path
         d="m 122.353,1531 30.647,0 0,-34.39 -30.647,0 0,34.39 z"
         id="path8740" /></clipPath><clipPath
       clipPathUnits="userSpaceOnUse"
       id="clipPath8758"><path
         d="m 63.3525,1546.39 30.6475,0 0,-34.39 -30.6475,0 0,34.39 z"
         id="path8760" /></clipPath><clipPath
       clipPathUnits="userSpaceOnUse"
       id="clipPath8778"><path
         d="m 195.349,1385.5 30.647,0 0,-34.39 -30.647,0 0,34.39 z"
         id="path8780" /></clipPath><clipPath
       clipPathUnits="userSpaceOnUse"
       id="clipPath8798"><path
         d="m 147.6,1359.5 30.647,0 0,-34.39 -30.647,0 0,34.39 z"
         id="path8800" /></clipPath><clipPath
       clipPathUnits="userSpaceOnUse"
       id="clipPath8818"><path
         d="m 79.3525,1332.47 30.6475,0 0,-34.39 -30.6475,0 0,34.39 z"
         id="path8820" /></clipPath><clipPath
       clipPathUnits="userSpaceOnUse"
       id="clipPath8838"><path
         d="m 84.8525,1207.3 30.6475,0 0,-34.39 -30.6475,0 0,34.39 z"
         id="path8840" /></clipPath><clipPath
       clipPathUnits="userSpaceOnUse"
       id="clipPath8858"><path
         d="m 147.6,1193.5 30.647,0 0,-34.39 -30.647,0 0,34.39 z"
         id="path8860" /></clipPath><clipPath
       clipPathUnits="userSpaceOnUse"
       id="clipPath8878"><path
         d="m 219.493,1184.98 30.647,0 0,-34.39 -30.647,0 0,34.39 z"
         id="path8880" /></clipPath><clipPath
       clipPathUnits="userSpaceOnUse"
       id="clipPath8898"><path
         d="m 223.353,1039.5 30.647,0 0,-34.39 -30.647,0 0,34.39 z"
         id="path8900" /></clipPath><clipPath
       clipPathUnits="userSpaceOnUse"
       id="clipPath8918"><path
         d="m 164.125,1058.5 30.647,0 0,-34.39 -30.647,0 0,34.39 z"
         id="path8920" /></clipPath><clipPath
       clipPathUnits="userSpaceOnUse"
       id="clipPath8938"><path
         d="m 103.853,1075.7 30.647,0 0,-34.4 -30.647,0 0,34.4 z"
         id="path8940" /></clipPath><clipPath
       clipPathUnits="userSpaceOnUse"
       id="clipPath8958"><path
         d="m 52.8213,1104.77 30.6475,0 0,-34.4 -30.6475,0 0,34.4 z"
         id="path8960" /></clipPath><clipPath
       clipPathUnits="userSpaceOnUse"
       id="clipPath8978"><path
         d="m 67.7275,979.697 30.6475,0 0,-34.394 -30.6475,0 0,34.394 z"
         id="path8980" /></clipPath><clipPath
       clipPathUnits="userSpaceOnUse"
       id="clipPath8998"><path
         d="m 122.853,951.5 30.647,0 0,-34.395 -30.647,0 0,34.395 z"
         id="path9000" /></clipPath><clipPath
       clipPathUnits="userSpaceOnUse"
       id="clipPath9018"><path
         d="m 188.853,941.5 30.647,0 0,-34.395 -30.647,0 0,34.395 z"
         id="path9020" /></clipPath><clipPath
       clipPathUnits="userSpaceOnUse"
       id="clipPath9038"><path
         d="m 249.853,941.5 30.647,0 0,-34.395 -30.647,0 0,34.395 z"
         id="path9040" /></clipPath><clipPath
       clipPathUnits="userSpaceOnUse"
       id="clipPath9054"><path
         d="m 0,1536 2048,0 L 2048,0 0,0 0,1536 z"
         id="path9056" /></clipPath><clipPath
       clipPathUnits="userSpaceOnUse"
       id="clipPath9070"><path
         d="m 1559.35,1331.59 110.5,0 0,-122.25 -110.5,0 0,122.25 z"
         id="path9072" /></clipPath><clipPath
       clipPathUnits="userSpaceOnUse"
       id="clipPath9094"><path
         d="m 362.812,1360.69 111.164,0 0,-120.36 -111.164,0 0,120.36 z"
         id="path9096" /></clipPath><clipPath
       clipPathUnits="userSpaceOnUse"
       id="clipPath9110"><path
         d="m 0,1536 2048,0 L 2048,0 0,0 0,1536 z"
         id="path9112" /></clipPath><clipPath
       clipPathUnits="userSpaceOnUse"
       id="clipPath9198"><path
         d="m 0,1536 2048,0 L 2048,0 0,0 0,1536 z"
         id="path9200" /></clipPath><clipPath
       clipPathUnits="userSpaceOnUse"
       id="clipPath9238"><path
         d="m 863.168,1356.92 391.482,0 0,-389.414 -391.482,0 0,389.414 z"
         id="path9240" /></clipPath><clipPath
       clipPathUnits="userSpaceOnUse"
       id="clipPath9254"><path
         d="m 0,1536 2048,0 L 2048,0 0,0 0,1536 z"
         id="path9256" /></clipPath><clipPath
       clipPathUnits="userSpaceOnUse"
       id="clipPath9294"><path
         d="m 925.334,1463.92 313.186,0 0,-311.53 -313.186,0 0,311.53 z"
         id="path9296" /></clipPath><clipPath
       clipPathUnits="userSpaceOnUse"
       id="clipPath9314"><path
         d="m 0,1536 2048,0 L 2048,0 0,0 0,1536 z"
         id="path9316" /></clipPath><clipPath
       clipPathUnits="userSpaceOnUse"
       id="clipPath9594"><path
         d="m 0,1536 2048,0 L 2048,0 0,0 0,1536 z"
         id="path9596" /></clipPath></defs><sodipodi:namedview
     pagecolor="#ffffff"
     bordercolor="#666666"
     borderopacity="1"
     objecttolerance="10"
     gridtolerance="10"
     guidetolerance="10"
     inkscape:pageopacity="0"
     inkscape:pageshadow="2"
     inkscape:window-width="2560"
     inkscape:window-height="1308"
     id="namedview4"
     showgrid="false"
     inkscape:zoom="0.3375"
     inkscape:cx="1280"
     inkscape:cy="820.42851"
     inkscape:window-x="0"
     inkscape:window-y="22"
     inkscape:window-maximized="1"
     inkscape:current-layer="g10" /><g
     id="g10"
     inkscape:groupmode="layer"
     inkscape:label="screen__wald2_cs5"
     transform="matrix(1.25,0,0,-1.25,0,1920)"><g
       id="g14"><g
         id="g16"
         clip-path="url(#clipPath18)"><path
           d="m 2121.424,550.163 -2130.213,0 0,993.1 2130.213,0 0,-993.1 z"
           style="fill:none;stroke:#4c3300;stroke-opacity:1;stroke-width:2;stroke-linecap:butt;stroke-linejoin:miter;stroke-miterlimit:10;stroke-dasharray:none"
           id="path22" /></g></g><g
       id="g6539"><path
         id="path12"
         style="fill:#5a9b62;fill-opacity:1;fill-rule:nonzero;stroke:none"
         d="m 0,550.163 2048,0 0,985.837 -2048,0 0,-985.837 z" /><path
         id="path24"
         style="fill:#4d7c4e;fill-opacity:1;fill-rule:nonzero;stroke:none"
         d="m 0,0 2048,0 0,571.163 -2048,0 L 0,0 z" /></g></g></svg>