<?xml version="1.0" encoding="UTF-8" standalone="no"?>
<!-- Created with Inkscape (http://www.inkscape.org/) -->

<svg
   xmlns:dc="http://purl.org/dc/elements/1.1/"
   xmlns:cc="http://creativecommons.org/ns#"
   xmlns:rdf="http://www.w3.org/1999/02/22-rdf-syntax-ns#"
   xmlns:svg="http://www.w3.org/2000/svg"
   xmlns="http://www.w3.org/2000/svg"
   xmlns:sodipodi="http://sodipodi.sourceforge.net/DTD/sodipodi-0.dtd"
   xmlns:inkscape="http://www.inkscape.org/namespaces/inkscape"
   id="svg2"
   version="1.1"
   inkscape:version="0.48.2 r9819"
   width="500"
   height="500"
   xml:space="preserve"
   sodipodi:docname="screen__wald2_cs5.svg"><metadata
     id="metadata8"><rdf:RDF><cc:Work
         rdf:about=""><dc:format>image/svg+xml</dc:format><dc:type
           rdf:resource="http://purl.org/dc/dcmitype/StillImage" /><dc:title></dc:title></cc:Work></rdf:RDF></metadata><defs
     id="defs6"><clipPath
       clipPathUnits="userSpaceOnUse"
       id="clipPath18"><path
         d="m 0,1536 2048,0 L 2048,0 0,0 0,1536 z"
         id="path20"
         inkscape:connector-curvature="0" /></clipPath><clipPath
       clipPathUnits="userSpaceOnUse"
       id="clipPath30"><path
         d="m 0,1536 2048,0 L 2048,0 0,0 0,1536 z"
         id="path32"
         inkscape:connector-curvature="0" /></clipPath><clipPath
       clipPathUnits="userSpaceOnUse"
       id="clipPath1618"><path
         d="m 0,1536 2048,0 L 2048,0 0,0 0,1536 z"
         id="path1620"
         inkscape:connector-curvature="0" /></clipPath><clipPath
       clipPathUnits="userSpaceOnUse"
       id="clipPath1642"><path
         d="m 0,1536 2048,0 L 2048,0 0,0 0,1536 z"
         id="path1644"
         inkscape:connector-curvature="0" /></clipPath><clipPath
       clipPathUnits="userSpaceOnUse"
       id="clipPath1754"><path
         d="m 0,1536 2048,0 L 2048,0 0,0 0,1536 z"
         id="path1756"
         inkscape:connector-curvature="0" /></clipPath><clipPath
       clipPathUnits="userSpaceOnUse"
       id="clipPath7778"><path
         d="m 0,1536 2048,0 L 2048,0 0,0 0,1536 z"
         id="path7780"
         inkscape:connector-curvature="0" /></clipPath><clipPath
       clipPathUnits="userSpaceOnUse"
       id="clipPath7838"><path
         d="m 611.262,1266.5 30.647,0 0,-34.39 -30.647,0 0,34.39 z"
         id="path7840"
         inkscape:connector-curvature="0" /></clipPath><clipPath
       clipPathUnits="userSpaceOnUse"
       id="clipPath7870"><path
         d="m 767.558,1245.81 30.647,0 0,-34.39 -30.647,0 0,34.39 z"
         id="path7872"
         inkscape:connector-curvature="0" /></clipPath><clipPath
       clipPathUnits="userSpaceOnUse"
       id="clipPath7902"><path
         d="m 1107.38,1247.01 30.65,0 0,-34.39 -30.65,0 0,34.39 z"
         id="path7904"
         inkscape:connector-curvature="0" /></clipPath><clipPath
       clipPathUnits="userSpaceOnUse"
       id="clipPath7934"><path
         d="m 919.184,1250.86 30.647,0 0,-34.39 -30.647,0 0,34.39 z"
         id="path7936"
         inkscape:connector-curvature="0" /></clipPath><clipPath
       clipPathUnits="userSpaceOnUse"
       id="clipPath7966"><path
         d="m 1277.88,1248.99 25.91,0 0,-36.93 -25.91,0 0,36.93 z"
         id="path7968"
         inkscape:connector-curvature="0" /></clipPath><clipPath
       clipPathUnits="userSpaceOnUse"
       id="clipPath7998"><path
         d="m 1439.02,1258.03 25.91,0 0,-36.93 -25.91,0 0,36.93 z"
         id="path8000"
         inkscape:connector-curvature="0" /></clipPath><clipPath
       clipPathUnits="userSpaceOnUse"
       id="clipPath8162"><path
         d="m 0,1536 2048,0 L 2048,0 0,0 0,1536 z"
         id="path8164"
         inkscape:connector-curvature="0" /></clipPath><clipPath
       clipPathUnits="userSpaceOnUse"
       id="clipPath8198"><path
         d="m 1761.68,1506.2 30.64,0 0,-34.4 -30.64,0 0,34.4 z"
         id="path8200"
         inkscape:connector-curvature="0" /></clipPath><clipPath
       clipPathUnits="userSpaceOnUse"
       id="clipPath8218"><path
         d="m 1815.85,1526.96 30.65,0 0,-34.4 -30.65,0 0,34.4 z"
         id="path8220"
         inkscape:connector-curvature="0" /></clipPath><clipPath
       clipPathUnits="userSpaceOnUse"
       id="clipPath8238"><path
         d="m 1867.85,1550.5 30.65,0 0,-34.39 -30.65,0 0,34.39 z"
         id="path8240"
         inkscape:connector-curvature="0" /></clipPath><clipPath
       clipPathUnits="userSpaceOnUse"
       id="clipPath8258"><path
         d="m 1912.11,1476.5 30.65,0 0,-34.39 -30.65,0 0,34.39 z"
         id="path8260"
         inkscape:connector-curvature="0" /></clipPath><clipPath
       clipPathUnits="userSpaceOnUse"
       id="clipPath8278"><path
         d="m 1864.17,1450.46 30.65,0 0,-34.4 -30.65,0 0,34.4 z"
         id="path8280"
         inkscape:connector-curvature="0" /></clipPath><clipPath
       clipPathUnits="userSpaceOnUse"
       id="clipPath8298"><path
         d="m 1815.85,1427.5 30.65,0 0,-34.39 -30.65,0 0,34.39 z"
         id="path8300"
         inkscape:connector-curvature="0" /></clipPath><clipPath
       clipPathUnits="userSpaceOnUse"
       id="clipPath8318"><path
         d="m 1768.76,1411.38 30.65,0 0,-34.4 -30.65,0 0,34.4 z"
         id="path8320"
         inkscape:connector-curvature="0" /></clipPath><clipPath
       clipPathUnits="userSpaceOnUse"
       id="clipPath8338"><path
         d="m 1746.35,1363 30.65,0 0,-34.39 -30.65,0 0,34.39 z"
         id="path8340"
         inkscape:connector-curvature="0" /></clipPath><clipPath
       clipPathUnits="userSpaceOnUse"
       id="clipPath8358"><path
         d="m 1797.17,1339.78 30.65,0 0,-34.39 -30.65,0 0,34.39 z"
         id="path8360"
         inkscape:connector-curvature="0" /></clipPath><clipPath
       clipPathUnits="userSpaceOnUse"
       id="clipPath8378"><path
         d="m 1855.65,1330.5 30.65,0 0,-34.39 -30.65,0 0,34.39 z"
         id="path8380"
         inkscape:connector-curvature="0" /></clipPath><clipPath
       clipPathUnits="userSpaceOnUse"
       id="clipPath8398"><path
         d="m 1912.11,1323.5 30.65,0 0,-34.39 -30.65,0 0,34.39 z"
         id="path8400"
         inkscape:connector-curvature="0" /></clipPath><clipPath
       clipPathUnits="userSpaceOnUse"
       id="clipPath8418"><path
         d="m 1962.35,1323.5 30.65,0 0,-34.39 -30.65,0 0,34.39 z"
         id="path8420"
         inkscape:connector-curvature="0" /></clipPath><clipPath
       clipPathUnits="userSpaceOnUse"
       id="clipPath8438"><path
         d="m 1971.35,1266.5 30.65,0 0,-34.39 -30.65,0 0,34.39 z"
         id="path8440"
         inkscape:connector-curvature="0" /></clipPath><clipPath
       clipPathUnits="userSpaceOnUse"
       id="clipPath8458"><path
         d="m 1927.75,1235 30.65,0 0,-34.39 -30.65,0 0,34.39 z"
         id="path8460"
         inkscape:connector-curvature="0" /></clipPath><clipPath
       clipPathUnits="userSpaceOnUse"
       id="clipPath8478"><path
         d="m 1874.29,1206.5 30.64,0 0,-34.39 -30.64,0 0,34.39 z"
         id="path8480"
         inkscape:connector-curvature="0" /></clipPath><clipPath
       clipPathUnits="userSpaceOnUse"
       id="clipPath8498"><path
         d="m 1822.02,1177 30.64,0 0,-34.39 -30.64,0 0,34.39 z"
         id="path8500"
         inkscape:connector-curvature="0" /></clipPath><clipPath
       clipPathUnits="userSpaceOnUse"
       id="clipPath8518"><path
         d="m 1822.02,1008.75 30.64,0 0,-34.393 -30.64,0 0,34.393 z"
         id="path8520"
         inkscape:connector-curvature="0" /></clipPath><clipPath
       clipPathUnits="userSpaceOnUse"
       id="clipPath8538"><path
         d="m 1868.85,1043 30.65,0 0,-34.39 -30.65,0 0,34.39 z"
         id="path8540"
         inkscape:connector-curvature="0" /></clipPath><clipPath
       clipPathUnits="userSpaceOnUse"
       id="clipPath8558"><path
         d="m 1916.35,1076.89 30.65,0 0,-34.39 -30.65,0 0,34.39 z"
         id="path8560"
         inkscape:connector-curvature="0" /></clipPath><clipPath
       clipPathUnits="userSpaceOnUse"
       id="clipPath8578"><path
         d="m 1962.35,1110 30.65,0 0,-34.39 -30.65,0 0,34.39 z"
         id="path8580"
         inkscape:connector-curvature="0" /></clipPath><clipPath
       clipPathUnits="userSpaceOnUse"
       id="clipPath8598"><path
         d="m 2000.35,1142 30.65,0 0,-34.39 -30.65,0 0,34.39 z"
         id="path8600"
         inkscape:connector-curvature="0" /></clipPath><clipPath
       clipPathUnits="userSpaceOnUse"
       id="clipPath8618"><path
         d="m 1981.35,942.5 30.65,0 0,-34.395 -30.65,0 0,34.395 z"
         id="path8620"
         inkscape:connector-curvature="0" /></clipPath><clipPath
       clipPathUnits="userSpaceOnUse"
       id="clipPath8638"><path
         d="m 1932.85,920.5 30.65,0 0,-34.395 -30.65,0 0,34.395 z"
         id="path8640"
         inkscape:connector-curvature="0" /></clipPath><clipPath
       clipPathUnits="userSpaceOnUse"
       id="clipPath8658"><path
         d="m 1887.85,901.5 30.65,0 0,-34.395 -30.65,0 0,34.395 z"
         id="path8660"
         inkscape:connector-curvature="0" /></clipPath><clipPath
       clipPathUnits="userSpaceOnUse"
       id="clipPath8678"><path
         d="m 1836.85,882 30.65,0 0,-34.395 -30.65,0 0,34.395 z"
         id="path8680"
         inkscape:connector-curvature="0" /></clipPath><clipPath
       clipPathUnits="userSpaceOnUse"
       id="clipPath8718"><path
         d="m 186.853,1503.5 30.647,0 0,-34.39 -30.647,0 0,34.39 z"
         id="path8720"
         inkscape:connector-curvature="0" /></clipPath><clipPath
       clipPathUnits="userSpaceOnUse"
       id="clipPath8738"><path
         d="m 122.353,1531 30.647,0 0,-34.39 -30.647,0 0,34.39 z"
         id="path8740"
         inkscape:connector-curvature="0" /></clipPath><clipPath
       clipPathUnits="userSpaceOnUse"
       id="clipPath8758"><path
         d="m 63.3525,1546.39 30.6475,0 0,-34.39 -30.6475,0 0,34.39 z"
         id="path8760"
         inkscape:connector-curvature="0" /></clipPath><clipPath
       clipPathUnits="userSpaceOnUse"
       id="clipPath8778"><path
         d="m 195.349,1385.5 30.647,0 0,-34.39 -30.647,0 0,34.39 z"
         id="path8780"
         inkscape:connector-curvature="0" /></clipPath><clipPath
       clipPathUnits="userSpaceOnUse"
       id="clipPath8798"><path
         d="m 147.6,1359.5 30.647,0 0,-34.39 -30.647,0 0,34.39 z"
         id="path8800"
         inkscape:connector-curvature="0" /></clipPath><clipPath
       clipPathUnits="userSpaceOnUse"
       id="clipPath8818"><path
         d="m 79.3525,1332.47 30.6475,0 0,-34.39 -30.6475,0 0,34.39 z"
         id="path8820"
         inkscape:connector-curvature="0" /></clipPath><clipPath
       clipPathUnits="userSpaceOnUse"
       id="clipPath8838"><path
         d="m 84.8525,1207.3 30.6475,0 0,-34.39 -30.6475,0 0,34.39 z"
         id="path8840"
         inkscape:connector-curvature="0" /></clipPath><clipPath
       clipPathUnits="userSpaceOnUse"
       id="clipPath8858"><path
         d="m 147.6,1193.5 30.647,0 0,-34.39 -30.647,0 0,34.39 z"
         id="path8860"
         inkscape:connector-curvature="0" /></clipPath><clipPath
       clipPathUnits="userSpaceOnUse"
       id="clipPath8878"><path
         d="m 219.493,1184.98 30.647,0 0,-34.39 -30.647,0 0,34.39 z"
         id="path8880"
         inkscape:connector-curvature="0" /></clipPath><clipPath
       clipPathUnits="userSpaceOnUse"
       id="clipPath8898"><path
         d="m 223.353,1039.5 30.647,0 0,-34.39 -30.647,0 0,34.39 z"
         id="path8900"
         inkscape:connector-curvature="0" /></clipPath><clipPath
       clipPathUnits="userSpaceOnUse"
       id="clipPath8918"><path
         d="m 164.125,1058.5 30.647,0 0,-34.39 -30.647,0 0,34.39 z"
         id="path8920"
         inkscape:connector-curvature="0" /></clipPath><clipPath
       clipPathUnits="userSpaceOnUse"
       id="clipPath8938"><path
         d="m 103.853,1075.7 30.647,0 0,-34.4 -30.647,0 0,34.4 z"
         id="path8940"
         inkscape:connector-curvature="0" /></clipPath><clipPath
       clipPathUnits="userSpaceOnUse"
       id="clipPath8958"><path
         d="m 52.8213,1104.77 30.6475,0 0,-34.4 -30.6475,0 0,34.4 z"
         id="path8960"
         inkscape:connector-curvature="0" /></clipPath><clipPath
       clipPathUnits="userSpaceOnUse"
       id="clipPath8978"><path
         d="m 67.7275,979.697 30.6475,0 0,-34.394 -30.6475,0 0,34.394 z"
         id="path8980"
         inkscape:connector-curvature="0" /></clipPath><clipPath
       clipPathUnits="userSpaceOnUse"
       id="clipPath8998"><path
         d="m 122.853,951.5 30.647,0 0,-34.395 -30.647,0 0,34.395 z"
         id="path9000"
         inkscape:connector-curvature="0" /></clipPath><clipPath
       clipPathUnits="userSpaceOnUse"
       id="clipPath9018"><path
         d="m 188.853,941.5 30.647,0 0,-34.395 -30.647,0 0,34.395 z"
         id="path9020"
         inkscape:connector-curvature="0" /></clipPath><clipPath
       clipPathUnits="userSpaceOnUse"
       id="clipPath9038"><path
         d="m 249.853,941.5 30.647,0 0,-34.395 -30.647,0 0,34.395 z"
         id="path9040"
         inkscape:connector-curvature="0" /></clipPath><clipPath
       clipPathUnits="userSpaceOnUse"
       id="clipPath9054"><path
         d="m 0,1536 2048,0 L 2048,0 0,0 0,1536 z"
         id="path9056"
         inkscape:connector-curvature="0" /></clipPath><clipPath
       clipPathUnits="userSpaceOnUse"
       id="clipPath9070"><path
         d="m 1559.35,1331.59 110.5,0 0,-122.25 -110.5,0 0,122.25 z"
         id="path9072"
         inkscape:connector-curvature="0" /></clipPath><clipPath
       clipPathUnits="userSpaceOnUse"
       id="clipPath9094"><path
         d="m 362.812,1360.69 111.164,0 0,-120.36 -111.164,0 0,120.36 z"
         id="path9096"
         inkscape:connector-curvature="0" /></clipPath><clipPath
       clipPathUnits="userSpaceOnUse"
       id="clipPath9110"><path
         d="m 0,1536 2048,0 L 2048,0 0,0 0,1536 z"
         id="path9112"
         inkscape:connector-curvature="0" /></clipPath><clipPath
       clipPathUnits="userSpaceOnUse"
       id="clipPath9198"><path
         d="m 0,1536 2048,0 L 2048,0 0,0 0,1536 z"
         id="path9200"
         inkscape:connector-curvature="0" /></clipPath><clipPath
       clipPathUnits="userSpaceOnUse"
       id="clipPath9238"><path
         d="m 863.168,1356.92 391.482,0 0,-389.414 -391.482,0 0,389.414 z"
         id="path9240"
         inkscape:connector-curvature="0" /></clipPath><clipPath
       clipPathUnits="userSpaceOnUse"
       id="clipPath9254"><path
         d="m 0,1536 2048,0 L 2048,0 0,0 0,1536 z"
         id="path9256"
         inkscape:connector-curvature="0" /></clipPath><clipPath
       clipPathUnits="userSpaceOnUse"
       id="clipPath9294"><path
         d="m 925.334,1463.92 313.186,0 0,-311.53 -313.186,0 0,311.53 z"
         id="path9296"
         inkscape:connector-curvature="0" /></clipPath><clipPath
       clipPathUnits="userSpaceOnUse"
       id="clipPath9314"><path
         d="m 0,1536 2048,0 L 2048,0 0,0 0,1536 z"
         id="path9316"
         inkscape:connector-curvature="0" /></clipPath><clipPath
       clipPathUnits="userSpaceOnUse"
       id="clipPath9594"><path
         d="m 0,1536 2048,0 L 2048,0 0,0 0,1536 z"
         id="path9596"
         inkscape:connector-curvature="0" /></clipPath></defs><sodipodi:namedview
     pagecolor="#ffffff"
     bordercolor="#666666"
     borderopacity="1"
     objecttolerance="10"
     gridtolerance="10"
     guidetolerance="10"
     inkscape:pageopacity="0"
     inkscape:pageshadow="2"
     inkscape:window-width="1758"
     inkscape:window-height="1301"
     id="namedview4"
     showgrid="false"
     inkscape:zoom="0.3375"
     inkscape:cx="94.814815"
     inkscape:cy="464.87295"
     inkscape:window-x="0"
     inkscape:window-y="22"
     inkscape:window-maximized="0"
     inkscape:current-layer="g10" /><g
     id="g10"
     inkscape:groupmode="layer"
     inkscape:label="screen__wald2_cs5"
     transform="matrix(1.25,0,0,-1.25,0,500)"><g
       id="g17533"
       transform="matrix(1.0780587,0,0,1.0780578,-936.27382,-1192.6636)"><g
         id="g17509"><g
           id="g9258"
           transform="translate(1238.5186,1291.9229)"><path
             d="m 0,0 c 0,-99.411 -82.611,-172 -184.519,-172 -101.907,0 -184.518,72.589 -184.518,172 0,99.411 82.611,172 184.518,172 C -82.611,172 0,99.411 0,0"
             style="fill:#26c64f;fill-opacity:1;fill-rule:nonzero;stroke:none"
             id="path9260"
             inkscape:connector-curvature="0" /></g><g
           id="g9262"
           transform="translate(1238.5186,1291.9229)"><path
             d="m 0,0 c 0,-99.411 -82.611,-172 -184.519,-172 -101.907,0 -184.518,72.589 -184.518,172 0,99.411 82.611,172 184.518,172 C -82.611,172 0,99.411 0,0 z"
             style="fill:none;stroke:#4c00d4;stroke-width:2;stroke-linecap:butt;stroke-linejoin:miter;stroke-miterlimit:10;stroke-opacity:1;stroke-dasharray:none"
             id="path9264"
             inkscape:connector-curvature="0" /></g><g
           id="g9266"
           transform="translate(898,1341.5845)"><path
             d="M 0,0 C 2.157,12.075 -1.375,21.669 -8.891,29.534 -17.909,12.762 -24.095,-5.785 -26.863,-25.684 -22.3,-16.651 -1.621,-9.071 0,0"
             style="fill:#7e15ff;fill-opacity:1;fill-rule:nonzero;stroke:none"
             id="path9268"
             inkscape:connector-curvature="0" /></g><g
           id="g9270"
           transform="translate(898,1341.5845)"><path
             d="M 0,0 C 2.157,12.075 -1.375,21.669 -8.891,29.534 -17.909,12.762 -24.095,-5.785 -26.863,-25.684 -22.3,-16.651 -1.621,-9.071 0,0 z"
             style="fill:none;stroke:#4c00d4;stroke-width:2;stroke-linecap:butt;stroke-linejoin:miter;stroke-miterlimit:10;stroke-opacity:1;stroke-dasharray:none"
             id="path9272"
             inkscape:connector-curvature="0" /></g><g
           id="g9274"
           transform="translate(870.4443,1310.3247)"><path
             d="m 0,0 c -0.636,-6.021 -0.963,-12.158 -0.963,-18.402 0,-0.389 0.012,-0.774 0.015,-1.163 0.387,0.264 0.764,0.539 1.116,0.84 C 5.143,-14.466 1.018,-6.772 0,0"
             style="fill:#7e15ff;fill-opacity:1;fill-rule:nonzero;stroke:none"
             id="path9276"
             inkscape:connector-curvature="0" /></g><g
           id="g9278"
           transform="translate(870.4443,1310.3247)"><path
             d="m 0,0 c -0.636,-6.021 -0.963,-12.158 -0.963,-18.402 0,-0.389 0.012,-0.774 0.015,-1.163 0.387,0.264 0.764,0.539 1.116,0.84 C 5.143,-14.466 1.018,-6.772 0,0 z"
             style="fill:none;stroke:#4c00d4;stroke-width:2;stroke-linecap:butt;stroke-linejoin:miter;stroke-miterlimit:10;stroke-opacity:1;stroke-dasharray:none"
             id="path9280"
             inkscape:connector-curvature="0" /></g><g
           id="g9282"
           transform="translate(1045.2002,1410.1846)"><path
             d="M 0,0 C -5.857,4.958 -21.282,6.889 -23.2,15.4 -23.838,18.23 4,24 4,24 29.6,20.6 33.688,8.018 14.19,-13.91 7.056,-11.632 5.784,-4.897 0,0 m 176.317,-165.242 c -8.475,-14.471 -17.568,-25.735 -28.632,-38.049 -7.655,-8.519 -18.451,-14.249 -24.532,-24.024 -5.374,-8.638 -6.83,-27.802 -17.199,-28.435 -3.668,-0.224 -0.639,7.268 -2.013,10.704 -3.372,8.428 -8.503,15.95 -11.438,24.884 -2.275,6.926 -2.986,16.234 -7.658,22.209 -3.011,3.85 -7.724,6.206 -11.5,9.229 -6.046,4.843 -10.895,9.28 -13.113,16.658 -0.739,2.46 0.132,5.007 -1.379,7.41 -2.519,3.999 -7.443,4.805 -11.437,6.863 -6.432,3.314 -11.62,7.701 -17.016,12.459 -4.719,4.162 -9.044,7.158 -9.075,13.649 -0.031,6.217 4.656,11.387 10.691,12.81 7.503,1.771 17.86,-3.535 26.075,-3.896 7.41,-0.327 13.649,-0.418 19.765,3.64 2.961,1.965 5.356,3.769 7.581,6.641 2.703,3.49 7.381,4.927 8.962,7.357 11.913,18.308 36.622,21.493 53.684,19.091 16.398,-2.308 31.393,-3.413 44.357,-14.715 -1.846,18.403 -6.583,35.721 -13.772,51.632 -12.253,3.319 -52.542,0.85 -60.97,-11.143 -3.006,-4.278 -3.065,-10.126 -5.646,-14.038 -3.058,-4.636 -11.091,-9.234 -16.804,-9.423 -9.732,-0.326 -19.065,4.761 -27.764,8.211 -5.083,2.016 -12.055,2.483 -16.658,5.345 -3.339,2.077 -2.485,1.5 -4.247,5.469 -3.084,6.949 19.835,24.536 21.421,32.104 1.278,6.1 -19.075,2.197 -18.252,7.871 2.167,14.939 11.876,18.042 25.801,19.735 5.188,0.631 10.468,1.657 15.713,2.804 C 89.997,-0.643 88.661,0.522 87.2,1 l 42.722,11.986 C 97.511,38.716 55.153,53.738 8.8,53.738 c -33.959,0 -65.768,-8.069 -93.099,-22.497 9.466,-11.438 12.162,-23.204 31.784,-24.8 3.633,-0.295 12.721,1.675 15.777,-1.096 3.958,-3.589 0.851,-10.035 -2.219,-12.629 -7.206,-6.087 -17.69,-7.936 -26.205,-11.317 -8.22,-3.263 -16.338,-7.291 -24.637,-10.156 -10.507,-3.627 -20.289,-7.427 -28.066,-15.762 -4.075,-4.369 -3.965,-8.356 -4.789,-13.769 -0.668,-4.38 -2.647,-7.877 -3.627,-12.276 -2.344,-10.519 -33.723,-21.672 -36.332,-32.102 -1.141,-4.559 -1.927,-8.543 -2.68,-13.12 -0.527,-3.193 -1.082,-9.355 -3.039,-11.808 17.519,-5.072 38.042,-5.377 56.25,-7.33 13.048,-1.399 25.898,-2.755 39.025,-2.743 8.637,0.008 11.661,-0.08 13.211,-9.772 0.862,-5.383 1.873,-13.589 0.517,-19.022 -4.282,-17.154 -26.298,-22.097 -35.049,-35.805 -4.792,-7.505 -7.337,-17.046 -9.607,-25.465 -2.459,-9.123 -1.112,-18.254 -0.838,-27.416 20.024,-14.239 43.369,-24.615 68.802,-30.253 l 57.887,0 16.405,11.353 c 13.902,-0.393 27.993,-2.203 41.994,-3.45 59.314,22.324 102.848,72.207 111.48,135.823 -4.929,-8.055 -10.865,-15.778 -15.428,-23.568"
             style="fill:#7e15ff;fill-opacity:1;fill-rule:nonzero;stroke:none"
             id="path9284"
             inkscape:connector-curvature="0" /></g><g
           id="g9286"
           transform="translate(1045.2002,1410.1846)"><path
             d="M 0,0 C -5.857,4.958 -21.282,6.889 -23.2,15.4 -23.838,18.23 4,24 4,24 29.6,20.6 33.688,8.018 14.19,-13.91 7.056,-11.632 5.784,-4.897 0,0 z m 176.317,-165.242 c -8.475,-14.471 -17.568,-25.735 -28.632,-38.049 -7.655,-8.519 -18.451,-14.249 -24.532,-24.024 -5.374,-8.638 -6.83,-27.802 -17.199,-28.435 -3.668,-0.224 -0.639,7.268 -2.013,10.704 -3.372,8.428 -8.503,15.95 -11.438,24.884 -2.275,6.926 -2.986,16.234 -7.658,22.209 -3.011,3.85 -7.724,6.206 -11.5,9.229 -6.046,4.843 -10.895,9.28 -13.113,16.658 -0.739,2.46 0.132,5.007 -1.379,7.41 -2.519,3.999 -7.443,4.805 -11.437,6.863 -6.432,3.314 -11.62,7.701 -17.016,12.459 -4.719,4.162 -9.044,7.158 -9.075,13.649 -0.031,6.217 4.656,11.387 10.691,12.81 7.503,1.771 17.86,-3.535 26.075,-3.896 7.41,-0.327 13.649,-0.418 19.765,3.64 2.961,1.965 5.356,3.769 7.581,6.641 2.703,3.49 7.381,4.927 8.962,7.357 11.913,18.308 36.622,21.493 53.684,19.091 16.398,-2.308 31.393,-3.413 44.357,-14.715 -1.846,18.403 -6.583,35.721 -13.772,51.632 -12.253,3.319 -52.542,0.85 -60.97,-11.143 -3.006,-4.278 -3.065,-10.126 -5.646,-14.038 -3.058,-4.636 -11.091,-9.234 -16.804,-9.423 -9.732,-0.326 -19.065,4.761 -27.764,8.211 -5.083,2.016 -12.055,2.483 -16.658,5.345 -3.339,2.077 -2.485,1.5 -4.247,5.469 -3.084,6.949 19.835,24.536 21.421,32.104 1.278,6.1 -19.075,2.197 -18.252,7.871 2.167,14.939 11.876,18.042 25.801,19.735 5.188,0.631 10.468,1.657 15.713,2.804 C 89.997,-0.643 88.661,0.522 87.2,1 l 42.722,11.986 C 97.511,38.716 55.153,53.738 8.8,53.738 c -33.959,0 -65.768,-8.069 -93.099,-22.497 9.466,-11.438 12.162,-23.204 31.784,-24.8 3.633,-0.295 12.721,1.675 15.777,-1.096 3.958,-3.589 0.851,-10.035 -2.219,-12.629 -7.206,-6.087 -17.69,-7.936 -26.205,-11.317 -8.22,-3.263 -16.338,-7.291 -24.637,-10.156 -10.507,-3.627 -20.289,-7.427 -28.066,-15.762 -4.075,-4.369 -3.965,-8.356 -4.789,-13.769 -0.668,-4.38 -2.647,-7.877 -3.627,-12.276 -2.344,-10.519 -33.723,-21.672 -36.332,-32.102 -1.141,-4.559 -1.927,-8.543 -2.68,-13.12 -0.527,-3.193 -1.082,-9.355 -3.039,-11.808 17.519,-5.072 38.042,-5.377 56.25,-7.33 13.048,-1.399 25.898,-2.755 39.025,-2.743 8.637,0.008 11.661,-0.08 13.211,-9.772 0.862,-5.383 1.873,-13.589 0.517,-19.022 -4.282,-17.154 -26.298,-22.097 -35.049,-35.805 -4.792,-7.505 -7.337,-17.046 -9.607,-25.465 -2.459,-9.123 -1.112,-18.254 -0.838,-27.416 20.024,-14.239 43.369,-24.615 68.802,-30.253 l 57.887,0 16.405,11.353 c 13.902,-0.393 27.993,-2.203 41.994,-3.45 59.314,22.324 102.848,72.207 111.48,135.823 -4.929,-8.055 -10.865,-15.778 -15.428,-23.568 z"
             style="fill:none;stroke:#4c00d4;stroke-width:2;stroke-linecap:butt;stroke-linejoin:miter;stroke-miterlimit:10;stroke-opacity:1;stroke-dasharray:none"
             id="path9288"
             inkscape:connector-curvature="0" /></g><g
           id="g9290"><g
             id="g9292" /><g
             id="g9298"><g
               clip-path="url(#clipPath9294)"
               id="g9300"
               style="opacity:0.30000299"><g
                 transform="translate(1238.5186,1291.9229)"
                 id="g9302"><path
                   d="m 0,0 c 0,-29.914 -7.48,-57.399 -20.716,-81.208 -12.996,-23.379 -31.542,-43.215 -54.003,-58.325 -3.734,19.862 4.96,106.248 -54.599,170.795 -83.117,90.074 -149.098,91.434 -183.866,93.651 12.902,11.483 27.634,21.147 43.759,28.673 25.416,11.862 54.29,18.414 84.906,18.414 C -82.612,172 0,99.411 0,0"
                   style="fill:#000000;fill-opacity:1;fill-rule:nonzero;stroke:none"
                   id="path9304"
                   inkscape:connector-curvature="0" /></g></g></g></g></g></g></g></svg>