<?xml version="1.0" encoding="UTF-8" standalone="no"?>
<!-- Created with Inkscape (http://www.inkscape.org/) -->

<svg
   xmlns:dc="http://purl.org/dc/elements/1.1/"
   xmlns:cc="http://creativecommons.org/ns#"
   xmlns:rdf="http://www.w3.org/1999/02/22-rdf-syntax-ns#"
   xmlns:svg="http://www.w3.org/2000/svg"
   xmlns="http://www.w3.org/2000/svg"
   xmlns:sodipodi="http://sodipodi.sourceforge.net/DTD/sodipodi-0.dtd"
   xmlns:inkscape="http://www.inkscape.org/namespaces/inkscape"
   id="svg2"
   version="1.1"
   inkscape:version="0.48.2 r9819"
   width="500"
   height="500"
   xml:space="preserve"
   sodipodi:docname="GlobeBand.pdf"><metadata
     id="metadata8"><rdf:RDF><cc:Work
         rdf:about=""><dc:format>image/svg+xml</dc:format><dc:type
           rdf:resource="http://purl.org/dc/dcmitype/StillImage" /><dc:title></dc:title></cc:Work></rdf:RDF></metadata><defs
     id="defs6"><clipPath
       clipPathUnits="userSpaceOnUse"
       id="clipPath16"><path
         d="M 0,600 956,600 956,0 0,0 0,600 z"
         id="path18"
         inkscape:connector-curvature="0" /></clipPath><clipPath
       clipPathUnits="userSpaceOnUse"
       id="clipPath384"><path
         d="m 71.814,472.923 371.037,0 0,-346 -371.037,0 0,346 z"
         id="path386"
         inkscape:connector-curvature="0" /></clipPath><clipPath
       clipPathUnits="userSpaceOnUse"
       id="clipPath400"><path
         d="m 128.667,471.923 313.184,0 0,-311.533 -313.184,0 0,311.533 z"
         id="path402"
         inkscape:connector-curvature="0" /></clipPath></defs><sodipodi:namedview
     pagecolor="#ffffff"
     bordercolor="#666666"
     borderopacity="1"
     objecttolerance="10"
     gridtolerance="10"
     guidetolerance="10"
     inkscape:pageopacity="0"
     inkscape:pageshadow="2"
     inkscape:window-width="1600"
     inkscape:window-height="837"
     id="namedview4"
     showgrid="false"
     fit-margin-top="0"
     fit-margin-left="0"
     fit-margin-right="0"
     fit-margin-bottom="0"
     inkscape:zoom="1.296"
     inkscape:cx="250"
     inkscape:cy="250"
     inkscape:window-x="-8"
     inkscape:window-y="-8"
     inkscape:window-maximized="1"
     inkscape:current-layer="g10" /><g
     id="g10"
     inkscape:groupmode="layer"
     inkscape:label="GlobeBand"
     transform="matrix(1.25,0,0,-1.25,-89.774812,658.65375)"><g
       id="g4540"
       transform="matrix(1.0780599,0,0,1.1560697,-5.6058008,-19.808833)"><g
         style="fill:#ffffff;fill-opacity:0.0627451"
         transform="translate(441.8511,299.9229)"
         id="g20"><path
           inkscape:connector-curvature="0"
           id="path22"
           style="fill:#ffffff;fill-opacity:0.0627451;fill-rule:nonzero;stroke:none"
           d="m 0,0 c 0,-99.411 -82.611,-172 -184.519,-172 -101.907,0 -184.518,72.589 -184.518,172 0,99.411 82.611,172 184.518,172 C -82.611,172 0,99.411 0,0" /></g><g
         id="g380"><g
           id="g382" /><g
           id="g388"><g
             style="opacity:0.10000598"
             id="g390"
             clip-path="url(#clipPath384)"><g
               id="g392"
               transform="translate(441.8511,299.9229)"><path
                 inkscape:connector-curvature="0"
                 id="path394"
                 style="fill:none;stroke:#000000;stroke-width:2;stroke-linecap:butt;stroke-linejoin:miter;stroke-miterlimit:10;stroke-opacity:1;stroke-dasharray:none"
                 d="m 0,0 c 0,-99.411 -82.611,-172 -184.519,-172 -101.907,0 -184.518,72.589 -184.518,172 0,99.411 82.611,172 184.518,172 C -82.611,172 0,99.411 0,0 z" /></g></g></g></g><g
         id="g396"><g
           id="g398" /><g
           id="g404"><g
             style="opacity:0.30000299"
             id="g406"
             clip-path="url(#clipPath400)"><g
               id="g408"
               transform="translate(441.8511,299.9229)"><path
                 inkscape:connector-curvature="0"
                 id="path410"
                 style="fill:#000000;fill-opacity:1;fill-rule:nonzero;stroke:none"
                 d="m 0,0 c 0,-29.913 -7.48,-57.399 -20.716,-81.208 -12.996,-23.379 -31.542,-43.215 -54.003,-58.325 -3.734,19.862 4.96,106.249 -54.599,170.795 -83.117,90.074 -149.098,91.434 -183.866,93.651 12.902,11.483 27.634,21.147 43.759,28.673 25.416,11.862 54.29,18.414 84.906,18.414 C -82.612,172 0,99.411 0,0" /></g></g></g></g></g></g></svg>