<?xml version="1.0" encoding="UTF-8" standalone="no"?>
<!-- Created with Inkscape (http://www.inkscape.org/) -->

<svg
   xmlns:dc="http://purl.org/dc/elements/1.1/"
   xmlns:cc="http://creativecommons.org/ns#"
   xmlns:rdf="http://www.w3.org/1999/02/22-rdf-syntax-ns#"
   xmlns:svg="http://www.w3.org/2000/svg"
   xmlns="http://www.w3.org/2000/svg"
   xmlns:sodipodi="http://sodipodi.sourceforge.net/DTD/sodipodi-0.dtd"
   xmlns:inkscape="http://www.inkscape.org/namespaces/inkscape"
   id="svg2"
   version="1.1"
   inkscape:version="0.48.2 r9819"
   width="600"
   height="430"
   xml:space="preserve"
   sodipodi:docname="earthmap.svg"><metadata
     id="metadata8"><rdf:RDF><cc:Work
         rdf:about=""><dc:format>image/svg+xml</dc:format><dc:type
           rdf:resource="http://purl.org/dc/dcmitype/StillImage" /><dc:title /></cc:Work></rdf:RDF></metadata><defs
     id="defs6"><clipPath
       clipPathUnits="userSpaceOnUse"
       id="clipPath16"><path
         d="M 0,600 956,600 956,0 0,0 0,600 z"
         id="path18"
         inkscape:connector-curvature="0" /></clipPath><clipPath
       clipPathUnits="userSpaceOnUse"
       id="clipPath384"><path
         d="m 71.814,472.923 371.037,0 0,-346 -371.037,0 0,346 z"
         id="path386"
         inkscape:connector-curvature="0" /></clipPath><clipPath
       clipPathUnits="userSpaceOnUse"
       id="clipPath400"><path
         d="m 128.667,471.923 313.184,0 0,-311.533 -313.184,0 0,311.533 z"
         id="path402"
         inkscape:connector-curvature="0" /></clipPath></defs><sodipodi:namedview
     pagecolor="#ffffff"
     bordercolor="#666666"
     borderopacity="1"
     objecttolerance="10"
     gridtolerance="10"
     guidetolerance="10"
     inkscape:pageopacity="0"
     inkscape:pageshadow="2"
     inkscape:window-width="1600"
     inkscape:window-height="837"
     id="namedview4"
     showgrid="false"
     fit-margin-top="0"
     fit-margin-left="0"
     fit-margin-right="0"
     fit-margin-bottom="0"
     inkscape:zoom="1.5069767"
     inkscape:cx="298.92328"
     inkscape:cy="215"
     inkscape:window-x="-8"
     inkscape:window-y="-8"
     inkscape:window-maximized="1"
     inkscape:current-layer="g10" /><g
     id="g10"
     inkscape:groupmode="layer"
     inkscape:label="GlobeBand"
     transform="matrix(1.25,0,0,-1.25,-30.46594,589.904)"><g
       id="g3081"
       transform="matrix(1.003602,0,0,1,-0.08779049,0)"><g
         transform="matrix(1.2960008,0,0,1,502.64461,299.9229)"
         id="g20"><path
           sodipodi:nodetypes="cccc"
           inkscape:connector-curvature="0"
           id="path22"
           style="fill:#346d9c;fill-opacity:1;fill-rule:nonzero;stroke:none"
           d="m 1e-4,-171.9997 -369.0368,0 0,344 369.0368,0" /></g><g
         transform="translate(27.439,213.0498)"
         id="g40"><path
           inkscape:connector-curvature="0"
           id="path42"
           transform="matrix(0.8,0,0,-0.8,-27.439,386.9502)"
           d="m 31.625,477.34375 c -0.229178,-0.004 -0.445469,0.12734 -0.625,0.40625 -0.74125,1.27625 1.48125,3.72 1.90625,4.78125 0.3175,1.17 0.45125,2.43875 0.34375,3.5 0,0.5325 0.1,1.26375 -0.21875,1.6875 -0.63625,0.85 -1.50625,0 -2.25,0.53125 -0.139453,0.0898 -0.22861,0.18295 -0.3125,0.28125 l 0,1.4375 c 0.31875,0.62437 0.8625,1.25 0.96875,1.78125 0.2125,1.0625 -1.06375,3.63125 1.59375,2.78125 1.0625,-0.42625 2.545,-2.35625 2.96875,-3.3125 0.425,-0.955 0.2,-1.38125 1.15625,-2.125 0.85,-0.745 2.76125,-1.25625 3.1875,-2.53125 0.31875,-0.85125 0.10625,-2.23125 -1.0625,-2.125 -1.1675,0.10625 -1.0425,2.76375 -2.53125,1.0625 l -2.4375,-1.8125 c -0.31875,-1.06375 -0.0063,-2.2175 -0.21875,-3.28125 -0.172656,-0.77594 -1.475643,-3.04368 -2.46875,-3.0625 z"
           style="fill:#78d53c;fill-opacity:1;fill-rule:nonzero;stroke:none" /></g><g
         transform="translate(415.5093,269.915)"
         id="g48"><path
           inkscape:connector-curvature="0"
           id="path50"
           style="fill:#78d53c;fill-opacity:1;fill-rule:nonzero;stroke:none"
           d="m 0,0 c -2.721,0.68 -5.78,1.36 -7.479,-1.359 4.758,-1.702 11.219,-3.401 15.978,-4.08 4.421,-0.681 14.28,-2.38 16.32,1.7 C 19.38,-2.38 12.92,-4.08 7.479,-2.38 c 0,0.681 0,1.021 0.341,1.7 -2.04,0.34 -4.421,0.34 -6.461,1.021 L 0,0 z" /></g><g
         transform="translate(17.709,388.7456)"
         id="g52" /><g
         transform="translate(127.189,370.7251)"
         id="g60"><path
           inkscape:connector-curvature="0"
           id="path62"
           transform="matrix(0.8,0,0,-0.8,-127.189,229.2749)"
           d="m 54.59375,216.625 c -2.12666,-0.0116 -4.485937,0.56719 -6.53125,1.125 -3.1875,0.85 -5.1125,3.16875 -7.875,4.65625 -1.9125,1.0625 -3.1625,0.44375 -3.375,2.78125 -0.2125,1.7 0.825,3.16875 2.3125,3.59375 0,-1.4875 1.06875,-2.33125 2.34375,-1.90625 -0.6375,1.4875 -0.85625,3.1825 0.84375,4.03125 -2.963723,3.81175 -9.691806,-3.76258 -11.84375,2.0625 l 0,0.1875 c 0.05435,0.0694 0.8125,3.70516 0.8125,3.5 1.0625,1.275 1.05,1.06875 2.75,1.28125 1.9125,0.2125 3.41875,-0.43125 4.90625,-1.28125 0,4.25 -3.40625,4.45625 -6.59375,5.09375 -0.697896,0.20526 -1.313644,0.49154 -1.875,0.78125 l 0,4.46875 c 0.18316,0.0968 0.382476,0.18522 0.59375,0.28125 -0.205244,0 -0.403824,0.0311 -0.59375,0.0625 l 0,4.90625 c 1.774866,0.57691 0.914893,-2.96659 3.15625,-2.40625 -0.2125,2.3375 -2.35625,4.65625 0.40625,5.71875 2.3375,0.85 3.625,-2.33125 5.75,-0.84375 -1.680043,2.6134 -5.986296,6.23048 -9.3125,8.21875 l 0,1.3125 c 1.197761,-0.50454 2.370258,-1.07518 3.15625,-1.46875 2.55,-1.27375 4.2375,-2.9625 7,-3.8125 3.4,-1.0625 5.7375,-1.9125 7.4375,-5.3125 1.0625,-1.7 2.33125,-7.87375 5.09375,-6.8125 3.4,1.48875 -3.6,4.4625 -2.75,6.375 1.9125,-0.425 6.14375,-0.63125 7.84375,-1.90625 2.7625,-2.55 -0.63125,-6.38125 4.46875,-3.40625 1.4875,1.0625 2.7625,2.3375 4.25,3.1875 1.275,0.85 2.96875,1.08125 4.03125,1.71875 3.6125,2.3375 3.6125,3.83125 7.4375,0.21875 l 0.65625,1.25 1.6875,2.125 c 2.3375,6.1625 4.6875,11.91875 4.6875,18.71875 0,1.275 -0.2125,2.7625 0,4.25 0.425,2.55 1.90625,3.1875 2.96875,5.3125 0.85,2.3375 1.05,7.65625 0.625,9.78125 -1.0625,7.4375 -4.225,19.75 3,25.0625 2.55,1.9125 3.3875,2.13125 3.8125,5.53125 0.425,2.7625 0.6375,3.825 2.125,6.375 2.7625,4.25 4.2625,11.8875 8.9375,14.4375 1.0625,-2.975 -1.71875,-6.79375 -2.78125,-9.34375 -1.0625,-2.7625 -4.875,-7.23125 -3.8125,-9.78125 2.975,1.4875 3.18125,5.1 5.09375,7.4375 1.9125,1.9125 4.45,3.63125 5.9375,5.96875 1.7,2.7625 1.9125,5.9375 2.125,9.125 0.2125,4.0375 1.49375,4.475 4.46875,6.8125 2.975,2.125 5.31875,3.60625 8.71875,5.09375 0.85,0.425 2.9625,2.3375 3.8125,2.125 1.9125,-0.2125 1.28125,-2.34375 3.40625,-2.34375 2.125,0.2125 6.18125,5.1 8.09375,6.375 3.4,1.7 5.30625,3.40625 7.21875,6.59375 0.85,1.4875 1.475,3.59375 2.75,4.65625 1.4875,1.7 0.86875,0.85875 2.78125,1.28125 2.125,0.42625 6.9875,0.4375 5.5,-2.75 -4.4625,3.1875 -4.86875,-3.4 -4.65625,-6.375 0.2125,-2.975 1.2625,-4.6875 -1.5,-6.8125 -2.3375,-1.7 -7.43125,0.21875 -8.28125,-0.84375 -1.0625,-1.275 1.9,-6.8125 1.6875,-8.9375 l 0,-2.75 c -1.9125,0.6375 -4.025,0.2125 -5.9375,1.0625 -0.425,0.2125 -0.20625,1.48125 -0.84375,1.90625 -0.425,0.2125 -1.075,-0.2125 -1.5,0 -0.425,0.2125 -2.3375,1.0625 -3.1875,1.0625 -6.1625,0.85 -4.8875,-4.44375 -5.3125,-8.90625 -0.425,-3.4 -0.425,-9.15 1.0625,-12.125 1.4875,-2.55 3.19375,-2.75625 5.53125,-2.96875 2.125,-0.2125 5.95,1.89375 7.4375,1.46875 2.125,-0.425 0.64375,-2.11875 2.34375,-2.96875 1.0625,-0.6375 2.9625,0.225 3.8125,0.4375 3.1875,0.2125 5.5375,0.19375 6.8125,3.59375 0.6375,2.125 -0.225,4.4625 0.625,6.375 2.125,4.0375 4.04375,1.3 3.40625,-2.3125 -0.6375,-6.1625 0.20625,-10.625 4.03125,-15.9375 1.4875,-1.7 5.525,-4.0625 6.375,-6.1875 0.85,-2.125 -1.9125,-4.8625 1.0625,-6.5625 0.2125,0.2125 0.44375,0.6375 0.65625,1.0625 0.6375,-2.125 3.80625,-6.59375 5.71875,-7.65625 2.975,-1.7 7.025,0.40625 3.625,-4.90625 2.975,-0.6375 5.51875,-2.75 8.28125,-3.8125 -0.2125,1.0625 0.2125,2.11875 0,2.96875 1.0625,-1.06375 3.19375,-3.6125 4.46875,-4.25 2.55,-1.0625 5.51875,0.44375 7.21875,-2.53125 -1.7,-2.55 -2.75625,-0.23125 -5.09375,-0.65625 -2.55,-0.6375 -2.11875,-2.3375 -2.96875,-4.25 -1.0625,-2.3375 -0.6375,-2.75625 -3.1875,-2.96875 -1.30156,-0.18594 -3.27532,0.60164 -4.3125,1.65625 3.13162,-4.00556 4.73753,-4.65417 10.25,-5.0625 3.825,-0.425 7.64375,-1.91875 11.46875,-2.34375 0.6375,3.1875 -4.8875,5.1125 -3.1875,7.875 0.6375,0.85 2.55,-0.2 3.1875,0.4375 1.0625,0.85 -0.64375,2.525 0.84375,3.375 2.7625,-4.4625 5.10625,2.7625 6.59375,-2.125 0.2125,-0.85 -0.006,-2.9625 -0.21875,-3.8125 -1.0625,-2.55 -2.525,-1.48125 -3.375,-2.96875 -0.6375,-0.85 -0.65625,-2.35 -0.65625,-3.625 -0.2125,-0.6375 -0.625,-1.05625 -0.625,-1.90625 -0.2125,-0.85 1.275,-1.4875 1.0625,-2.125 -0.85,-3.6125 -4.66875,-3.1875 -7.21875,-3.1875 1.0625,-0.2125 3.60625,-0.225 4.03125,-1.5 0.6375,-2.125 -1.28125,-0.83125 -2.34375,-1.46875 -1.9125,-1.48875 -4.88125,-2.5625 -2.96875,-5.75 -2.7625,-2.3375 -2.7625,-7.6375 -5.3125,-10.1875 -0.2125,3.1875 -3.41875,8.7 -7.03125,4.875 -1.0625,-1.275 -0.4125,-2.75625 -0.625,-4.03125 -0.6375,-2.55 -0.41875,-1.69375 -1.90625,-2.96875 -2.125,-2.125 -3.18125,-3.81875 -6.15625,-4.03125 -4.4625,-0.2125 -4.7,0.85 -5.125,4.25 -0.425,2.3375 -1.26875,4.0125 -1.90625,6.5625 -0.85,2.55 0.85625,4.475 0.21875,6.8125 -0.6375,3.1875 -4.025,2.7625 -4.875,5.3125 -0.85,1.7 0.825,4.68125 0.1875,6.59375 -0.85,3.1875 -3.18125,3.59375 -4.03125,0.40625 -0.425,-1.7 0.2125,-4.45625 0,-6.15625 -0.425,-1.9125 0.64375,-1.2625 -0.84375,-2.75 -1.0625,-0.85 -2.75,-0.85625 -3.8125,-1.28125 -2.55,-0.85 -4.675,-2.125 -7.4375,-3.1875 -0.2125,0 -3.84375,-0.85 -3.84375,-1.0625 -0.85,-0.6375 0.0125,-2.1125 -0.625,-2.75 -0.85,-1.275 -2.35625,-0.875 -2.78125,-1.9375 -0.6375,-1.7 0.65,-2.975 1.5,-4.25 1.275,-2.3375 3.4,-4.86875 5.3125,-6.78125 1.9125,-2.3375 4.46875,-2.55625 6.59375,-4.46875 1.9125,-1.9125 4.03125,-5.09375 4.03125,-0.84375 0,1.275 -1.9125,1.89375 -1.0625,3.59375 1.0625,2.55 2.35,0.6375 3.625,0 1.275,-0.85 1.48125,-1.7 2.96875,-2.125 1.275,-0.6375 4.03125,0.8625 2.96875,-1.6875 -0.6375,-1.4875 -2.9625,-1.05625 -3.8125,-1.90625 -1.0625,-0.85 -1.70625,-2.55625 -2.34375,-3.40625 1.4875,-1.7 4.04375,-0.84375 5.53125,-1.90625 1.0625,-0.85 2.9625,-5.1 2.75,-6.375 -0.2125,-1.7 -3.83125,-3.83125 -5.53125,-3.40625 -3.1875,0.85 -1.2625,4.66875 -3.8125,6.15625 0.2125,-1.7 0,-3.60625 -2.125,-4.03125 -1.275,3.825 -2.98125,-0.2 -3.40625,-0.625 -1.4875,-0.6375 -0.2125,-0.44375 -2.125,-0.65625 -0.425,0 -3.19375,0.84375 -3.40625,0.84375 -1.4875,1.275 -0.43125,4.25 -2.34375,5.3125 -3.6125,2.125 -2.10625,-1.4625 -3.59375,-2.3125 -2.7625,-1.7 -6.6,1.9125 -10,1.0625 -2.125,-0.6375 -3.3875,-3.1875 -5.9375,-2.125 -2.55,1.0625 -1.71875,2.75 -2.78125,4.875 -1.4875,-5.95 -7.85,0.2125 -11.25,-3.1875 5.525,-1.9125 -6.1625,-4.88125 -8.5,-5.09375 -2.975,-0.2125 -4.4625,-0.0188 -6.375,-0.65625 -0.2125,0 -1.05,1.0625 -1.6875,1.0625 -0.85,-0.2125 -0.6375,-1.46875 -1.0625,-1.46875 -1.9125,-0.6375 -1.71875,-0.8625 -3.84375,-0.4375 -2.975,0.6375 -5.74375,1.4875 -8.71875,2.125 -1.0625,0.2125 -3.375,1.0625 -4.4375,1.0625 -1.9125,-0.2125 -1.70625,-1.05 -3.40625,-1.6875 -2.7625,-1.0625 -5.9625,-0.64375 -8.9375,-1.28125 -3.1875,-0.425 -5.9375,-1.7125 -9.125,-1.5 C 60.60625,218.36875 58.9,217.325 55.5,216.6875 c -0.292187,-0.0266 -0.602441,-0.0608 -0.90625,-0.0625 z m 99.96875,64.59375 c 1.28558,-0.13774 3.16406,1.58984 3.5625,2.1875 0.85,1.0625 2.575,0.6375 0.875,3.1875 l -2.34375,1.28125 c -1.275,-0.2125 -1.91875,-0.63125 -2.34375,-1.90625 -2.125,1.0625 -4.8875,1.69375 -7.4375,1.90625 0,-1.9125 1.91875,-2.3375 3.40625,-3.1875 1.0625,-0.6375 3.18125,-3.19375 4.03125,-3.40625 0.0797,-0.0266 0.16429,-0.0533 0.25,-0.0625 z"
           style="fill:#78d53c;fill-opacity:1;fill-rule:nonzero;stroke:none" /></g><g
         transform="translate(418.7397,234.0449)"
         id="g64"><path
           inkscape:connector-curvature="0"
           id="path66"
           style="fill:#78d53c;fill-opacity:1;fill-rule:nonzero;stroke:none"
           d="m 0,0 c -0.341,0.17 -1.53,0.34 -1.871,0.51 -0.68,-1.87 1.7,-3.739 2.04,-5.44 0.341,-1.53 0.51,-3.57 0.681,-4.929 0.17,-3.402 -3.061,-9.351 2.889,-6.971 2.21,0.851 3.74,1.019 6.46,1.19 2.89,0.17 3.23,2.21 5.78,2.89 0.85,0.34 1.871,-0.17 2.72,0 1.36,0.34 1.87,1.189 3.571,1.189 3.23,0 4.08,-2.21 5.949,-3.909 3.06,-3.059 1.02,1.19 3.57,1.531 3.231,0.509 -0.68,-5.442 -0.68,-5.611 0.85,0 2.89,0.85 3.571,0.169 0.849,-0.679 -0.171,-2.55 0.849,-3.569 1.7,-1.699 4.08,0.17 5.95,0 1.02,-0.17 1.701,-1.19 2.89,-1.19 1.021,0 2.38,0.85 3.401,1.19 3.059,1.019 2.549,1.36 3.399,4.421 0.851,2.55 3.4,3.399 4.421,5.949 0.51,1.7 0.169,3.74 0.679,5.439 0.85,3.231 4.59,6.461 2.21,9.351 -0.509,0.51 -1.7,0.34 -2.379,1.359 -0.17,0.511 0.169,1.191 0,1.701 -0.341,1.53 0,3.57 -2.381,2.55 -0.34,0.85 -0.34,1.869 -0.679,2.72 -0.171,0.51 -0.171,1.36 -0.511,1.87 -0.341,0.51 -1.36,0.17 -1.7,0.51 -0.85,1.359 -1.019,3.57 -1.19,5.27 -0.169,1.02 -0.34,2.55 -0.85,3.571 -0.34,0.51 -1.359,0.169 -1.53,0.849 -0.339,0.68 0,1.36 -0.17,1.869 -0.51,1.191 0,1.872 -1.36,2.381 -2.21,1.19 -2.04,-0.68 -2.379,-2.04 -0.51,-1.7 -0.341,-3.23 -0.51,-4.93 -0.341,-3.23 -1.021,-3.74 -3.402,-2.72 0.341,-0.17 -1.019,0.85 -1.019,0.85 -0.34,0.17 -1.19,-0.17 -1.53,0.17 -0.51,0.169 -2.209,2.04 -2.209,2.55 0,0.68 1.699,0.34 2.04,1.36 0.34,1.02 -1.531,1.53 -0.171,2.889 -1.191,1.021 -2.04,0.341 -3.4,0.681 -1.19,0.34 -2.21,1.53 -3.4,1.53 0,0 -3.061,-1.02 -2.55,-0.68 -0.511,-0.34 -1.02,0.509 -1.53,-0.68 -0.51,-0.851 1.019,-1.19 1.019,-2.04 C 26.52,22.949 25.329,20.399 24.31,20.23 22.779,20.06 22.439,22.78 20.739,22.1 19.89,21.93 20.059,20.74 19.549,20.23 19.38,20.06 18.019,19.38 17.85,19.21 16.999,18.359 16.659,16.66 15.129,16.66 13.77,20.57 13.26,13.77 13.089,13.26 12.069,11.729 8.67,11.05 6.97,10.54 5.1,10.03 3.569,10.199 2.04,8.84 0.85,7.82 -1.19,5.27 -0.341,3.74 L 0,0 z" /></g><g
         transform="translate(430.4692,316.1553)"
         id="g68"><path
           inkscape:connector-curvature="0"
           id="path70"
           style="fill:#78d53c;fill-opacity:1;fill-rule:nonzero;stroke:none"
           d="m 0,0 c 0.17,-2.04 -1.19,-3.57 -0.851,-5.61 0.341,-2.21 1.872,-3.4 1.701,-5.44 0.849,0.68 1.359,0.509 2.211,0.17 -0.171,-1.36 -1.191,-3.741 -0.511,-4.93 2.21,2.89 3.91,1.189 2.38,-2.041 0.34,0.17 1.53,-0.17 1.87,0 0.17,-1.53 -1.53,-3.06 -2.21,-4.42 1.189,-1.359 1.02,-1.359 2.21,-1.19 0.17,0 0.679,3.231 2.04,0.51 0,2.211 -0.34,4.591 -0.85,6.631 -0.511,2.04 -1.87,3.4 -3.06,4.93 -1.02,1.53 -4.25,3.23 -4.25,5.1 0,1.02 1.7,1.53 1.529,3.23 C 2.04,-1.7 0.68,-1.19 0.68,0.34 L 0,0 z" /></g><g
         transform="translate(459.1987,364.4351)"
         id="g72"><path
           inkscape:connector-curvature="0"
           id="path74"
           style="fill:#78d53c;fill-opacity:1;fill-rule:nonzero;stroke:none"
           d="m 0,0 c -2.89,-0.85 -4.249,1.7 -6.8,1.53 -0.17,-1.36 -1.36,-3.74 -1.36,-5.1 0,-1.02 0.85,-1.53 0.85,-2.04 0.17,-1.02 0,-1.7 0,-2.89 0,-2.21 1.021,-6.29 -2.04,-6.63 -0.17,0.34 -0.17,0.68 -0.17,0.85 -1.36,-0.85 -1.53,-2.21 -3.06,-3.06 -0.51,-0.34 -1.529,0 -2.21,-0.68 -0.34,-0.34 0,-1.7 -0.51,-2.38 -1.189,-1.19 -2.889,-0.68 -3.57,-2.55 -0.51,-1.19 0.681,-3.74 1.019,-4.93 0.852,1.19 0.681,2.55 0.681,3.74 3.74,0 2.38,4.42 4.761,4.25 0.169,-1.36 1.529,-2.04 3.059,-1.53 1.7,0.68 0.85,1.7 1.871,3.06 1.359,1.87 1.869,0.34 2.04,3.23 0.169,0.34 -0.171,1.02 -0.171,1.53 0.171,0.68 1.02,1.36 1.19,2.04 0.34,1.7 -0.17,3.06 -0.85,4.42 -0.509,0.85 -2.549,2.38 -2.209,3.57 0.679,2.55 2.378,-0.34 3.399,-0.34 1.7,0 2.381,1.87 3.911,2.21 L 0,0 z" /></g><g
         transform="translate(425.7095,293.375)"
         id="g76"><path
           inkscape:connector-curvature="0"
           id="path78"
           style="fill:#78d53c;fill-opacity:1;fill-rule:nonzero;stroke:none"
           d="m 0,0 c -0.34,-2.04 -2.891,-3.061 -4.08,-4.59 -0.511,-0.849 -1.021,-1.87 -1.53,-2.551 -0.51,-0.509 -1.36,0 -1.701,-0.509 -0.339,-0.17 -0.339,-1.36 -0.679,-1.53 -0.681,-0.34 -2.381,0.339 -2.891,-0.171 -0.68,-0.509 -0.68,-3.059 -0.51,-3.739 0.17,-1.019 2.55,-4.59 3.401,-4.931 0.679,-0.339 1.53,0.51 2.209,0.341 1.19,-0.341 2.211,-1.53 3.401,-1.19 1.19,0.51 3.23,4.59 3.569,5.439 0.17,0.341 -0.339,1.021 -0.169,1.362 0,0.509 1.019,0.849 1.019,0.849 0.171,1.7 -0.339,1.191 -0.85,2.55 -0.509,2.38 -0.169,4.25 2.04,5.609 -0.509,0.34 -1.36,0.85 -2.04,0.85 L 0,0 z" /></g><g
         transform="translate(422.479,440.2549)"
         id="g80"><path
           inkscape:connector-curvature="0"
           id="path82"
           style="fill:#f2f2f2;fill-opacity:1;fill-rule:nonzero;stroke:none"
           d="m 0,0 c 0.17,-3.91 7.649,-2.89 9.86,-2.72 1.02,0.17 1.36,0.85 2.379,0.85 1.021,-0.17 1.701,-1.19 2.551,-1.19 1.7,-0.34 4.76,0.51 4.931,2.55 C 18.359,0 16.49,-0.34 14.96,-0.34 13.43,-0.51 12.239,-1.19 11.051,-1.36 9.35,-1.53 4.25,-0.17 2.891,1.02 L 0,0 z" /></g><g
         transform="translate(429.1089,326.6953)"
         id="g84"><path
           inkscape:connector-curvature="0"
           id="path86"
           style="fill:#78d53c;fill-opacity:1;fill-rule:nonzero;stroke:none"
           d="M 0,0 C -1.269,-0.521 -2.04,-4.76 -0.17,-5.44 1.36,-6.12 2.981,-2.912 2.381,-1.87 2.003,-1.215 0.699,0.288 0,0" /></g><g
         transform="translate(454.269,276.0352)"
         id="g88"><path
           inkscape:connector-curvature="0"
           id="path90"
           style="fill:#78d53c;fill-opacity:1;fill-rule:nonzero;stroke:none"
           d="M 0,0 C -3.23,-0.85 -1.359,3.74 -4.59,4.08 -5.95,4.25 -7.14,4.25 -6.801,2.72 -6.63,2.04 -5.271,2.55 -5.1,2.21 -4.93,1.7 -4.761,0.34 -4.59,0.17 c 0.85,-1.87 -0.171,-0.851 1.7,-1.87 1.36,-0.68 2.209,-0.851 3.571,-1.87 2.718,-2.21 4.59,-3.231 3.228,-6.801 1.53,-0.339 3.741,-1.359 5.442,-0.85 2.04,0.681 2.549,3.401 5.439,2.04 1.359,-0.509 4.76,-6.12 6.12,-3.059 1.36,2.889 -4.93,2.04 -3.57,4.761 0.849,1.699 4.42,0.509 5.78,2.039 3.23,3.74 -2.381,1.7 -3.74,1.36 -3.4,-1.191 -2.721,0.34 -5.271,2.04 C 12.75,-1.021 10.54,-0.34 8.84,0.51 7.14,1.529 3.74,4.419 2.38,1.7 L 0,0 z" /></g><g
         transform="translate(485.3794,428.6953)"
         id="g92"><path
           inkscape:connector-curvature="0"
           id="path94"
           style="fill:#f2f2f2;fill-opacity:1;fill-rule:nonzero;stroke:none"
           d="M 0,0 C -1.021,0.17 -4.08,0 -3.061,-1.7 -2.38,-2.89 2.55,-2.89 0.68,-0.34 L 0,0 z" /></g><g
         transform="translate(437.9487,288.9551)"
         id="g96"><path
           inkscape:connector-curvature="0"
           id="path98"
           style="fill:#78d53c;fill-opacity:1;fill-rule:nonzero;stroke:none"
           d="m 0,0 c 0,-2.04 0.34,-3.74 -1.529,-4.76 -1.021,-0.68 -2.211,0 -3.231,-0.511 -1.189,-0.509 -0.679,-1.019 -1.36,-1.869 -1.529,-2.04 -2.379,-2.72 -2.55,-5.27 0,-1.7 -0.681,-4.93 0.85,-5.78 0.341,1.19 0.85,2.21 1.02,3.57 2.21,-3.061 3.06,-0.68 2.381,1.87 2.55,-1.02 3.399,-2.04 6.119,-2.21 1.361,0 7.651,-1.7 6.29,0.85 -0.511,0.85 -2.889,0 -3.57,0.679 -2.04,1.361 -0.34,1.531 0.17,3.231 0.511,1.699 1.19,4.76 0.681,6.63 -4.25,-1.19 0.339,-8.159 -4.421,-9.35 -1.53,-0.34 -3.74,0.51 -4.419,1.7 -0.171,0.679 2.21,1.02 0.849,2.04 -0.51,0.34 -2.551,-0.68 -3.06,-0.85 -0.51,2.21 3.74,2.04 5.1,3.059 2.21,1.531 2.21,3.061 2.21,5.611 L 0,0 z" /></g><g
         transform="translate(369.9487,297.7949)"
         id="g100"><path
           inkscape:connector-curvature="0"
           id="path102"
           style="fill:#78d53c;fill-opacity:1;fill-rule:nonzero;stroke:none"
           d="m 0,0 c -1.53,-1.699 -1.699,-4.93 0.51,-5.95 3.74,-1.53 2.72,2.889 1.19,4.59 L 0,0 z" /></g><g
         transform="translate(323.0298,261.0742)"
         id="g104"><path
           inkscape:connector-curvature="0"
           id="path106"
           style="fill:#78d53c;fill-opacity:1;fill-rule:nonzero;stroke:none"
           d="m 0,0 c -5.028,-2.539 -4.761,-6.289 -7.311,-10.369 -1.7,-2.55 0,-4.421 -0.169,-6.63 -0.17,-1.7 -1.361,-3.23 -1.361,-4.931 0,-1.019 0.34,-4.249 1.191,-4.59 2.21,-1.189 3.57,2.891 4.25,4.25 2.379,3.571 2.549,7.48 3.91,11.56 0.849,2.721 2.52,6.636 1.02,9.351 C 1.283,-0.912 0.456,0.231 0,0" /></g><g
         transform="translate(373.8589,445.1851)"
         id="g108"><path
           inkscape:connector-curvature="0"
           id="path110"
           style="fill:#f2f2f2;fill-opacity:1;fill-rule:nonzero;stroke:none"
           d="M 0,0 C 1.53,1.53 6.291,-0.34 6.12,2.38 4.93,2.89 3.741,2.89 2.721,2.38 3.061,3.23 4.08,6.12 1.53,4.76 0.34,4.08 0.34,1.53 -0.85,0.17 L 0,0 z" /></g><g
         transform="translate(323.1987,425.8052)"
         id="g112"><path
           inkscape:connector-curvature="0"
           id="path114"
           style="fill:#f2f2f2;fill-opacity:1;fill-rule:nonzero;stroke:none"
           d="m 0,0 c -0.85,1.53 -2.719,3.74 -1.699,5.61 0.51,1.36 3.91,4.59 5.1,5.44 1.53,1.02 3.74,0.85 5.44,1.7 2.04,1.02 5.439,3.91 1.529,4.25 C 8.501,17.17 6.461,15.64 4.59,15.3 2.04,14.96 1.871,15.13 0,13.43 -2.209,11.22 -7.31,5.78 -6.63,2.21 -6.289,0.51 -4.93,0 -3.06,0.17 L 0,0 z" /></g><g
         transform="translate(363.4888,451.9854)"
         id="g116"><path
           inkscape:connector-curvature="0"
           id="path118"
           style="fill:#f2f2f2;fill-opacity:1;fill-rule:nonzero;stroke:none"
           d="M 0,0 C 1.361,-0.17 3.4,-0.17 4.421,0.68 6.291,2.04 5.951,3.57 3.911,3.74 1.021,3.91 -4.08,0.68 -0.34,-1.87 0,-2.21 2.721,-2.72 2.891,-2.72 3.74,-2.89 6.63,-3.57 7.48,-3.23 c 1.871,0.85 1.531,2.72 -0.509,3.06 -0.51,0 -1.531,-1.02 -2.21,-1.02 -0.85,-0.17 -1.87,0.17 -2.721,0.34 L 0,0 z" /></g><g
         transform="translate(327.9595,455.895)"
         id="g120"><path
           inkscape:connector-curvature="0"
           id="path122"
           style="fill:#f2f2f2;fill-opacity:1;fill-rule:nonzero;stroke:none"
           d="m 0,0 c -1.19,-1.36 -3.23,0 -4.761,-0.34 -1.699,-0.34 -2.718,-2.04 -4.419,-1.53 2.379,5.95 -4.08,0.34 -3.91,-1.7 1.19,1.36 2.209,0 3.739,-0.17 0.51,0 1.021,0.51 1.361,0.51 0.34,-0.17 2.21,-1.53 1.87,-1.53 1.53,0.17 1.87,1.36 3.399,2.04 1.191,0.68 2.381,-0.34 3.061,1.53 L 0,0 z" /></g><g
         transform="translate(270.3296,451.4751)"
         id="g124"><path
           inkscape:connector-curvature="0"
           id="path126"
           style="fill:#f2f2f2;fill-opacity:1;fill-rule:nonzero;stroke:none"
           d="m 0,0 c -0.511,0.34 -1.36,0.34 -2.04,0.68 -0.171,-1.19 0.17,-2.21 0,-3.23 C -2.89,-1.53 -3.4,0 -4.761,-1.36 -5.78,0.34 -8.16,0.17 -8.16,-1.7 c 0.17,-2.04 3.059,-2.38 3.909,-2.55 0.681,-0.17 1.53,1.19 2.211,-0.17 0.85,-1.87 -1.53,-1.36 -1.7,-1.87 -0.34,-1.53 1.36,-2.72 3.229,-2.55 -0.17,0.68 -0.17,1.7 -0.51,2.55 C 0.85,-5.95 0.51,-4.08 2.21,-3.74 3.399,-3.57 3.399,-6.12 5.1,-4.59 5.609,-5.95 4.08,-6.8 2.72,-6.8 2.55,-9.01 5.78,-8.16 6.63,-6.97 c 0.34,-0.17 0.849,-0.34 1.019,-0.51 1.531,2.89 -1.359,3.4 -2.04,5.44 1.87,0.51 3.401,1.02 4.93,1.7 C 10.71,0.68 7.82,1.36 6.63,1.02 5.439,0.51 4.93,-1.87 3.399,-2.38 -1.7,-3.74 5.609,0.85 2.89,2.38 2.38,1.87 1.869,1.36 1.529,0.68 L 0,0 z" /></g><g
         transform="translate(307.73,454.7051)"
         id="g128"><path
           inkscape:connector-curvature="0"
           id="path130"
           style="fill:#f2f2f2;fill-opacity:1;fill-rule:nonzero;stroke:none"
           d="m 0,0 c -1.19,-0.17 -2.211,-1.02 -3.23,-1.36 1.19,-0.85 2.889,0 4.419,0 0,-0.34 0.34,-0.68 0.17,-1.19 0.681,0 0.85,0 1.191,0.51 C 2.719,-2.21 2.89,-2.21 3.06,-2.38 4.08,-0.85 2.379,1.02 1.869,2.04 1.529,1.7 1.699,1.53 1.529,1.36 L 0,0 z" /></g><g
         transform="translate(226.9795,415.0952)"
         id="g132"><path
           inkscape:connector-curvature="0"
           id="path134"
           style="fill:#f2f2f2;fill-opacity:1;fill-rule:nonzero;stroke:none"
           d="m 0,0 c -1.36,-1.87 -2.21,-1.02 -4.42,-1.02 -1.361,0 -0.68,-1.36 -2.38,-0.68 -1.02,0.34 -1.531,0.51 -1.02,1.869 -2.38,1.361 -1.02,-3.229 -2.551,-4.419 1.531,0.17 2.721,-0.318 2.381,-2.018 1.02,-0.51 2.04,-0.827 3.229,-0.827 l 2.211,0 c 1.02,0 1.02,0.827 1.869,1.168 0.85,0.34 2.89,0.753 3.231,1.603 0.679,1.36 -1.361,2.162 -1.361,3.692 L 0,0 z" /></g><g
         transform="translate(168.6689,452.665)"
         id="g136"><path
           inkscape:connector-curvature="0"
           id="path138"
           style="fill:#f2f2f2;fill-opacity:1;fill-rule:nonzero;stroke:none"
           d="m 0,0 c 0,-3.06 -3.23,-1.7 -4.93,-2.38 -1.19,-0.51 -1.02,-1.36 -2.21,-1.87 -0.85,-0.34 -2.38,0.51 -3.06,0 -4.42,-2.55 6.29,-3.4 6.63,-4.08 -1.7,-0.51 -6.12,1.19 -6.29,-1.53 0.51,-0.17 1.87,-0.17 2.21,-0.34 0.34,-0.34 0.68,-1.36 1.02,-1.53 1.7,-1.02 2.04,-1.02 3.91,-0.68 1.87,0.34 2.38,1.19 4.59,0 1.36,-0.509 2.38,-1.529 3.57,-2.38 1.02,-0.68 2.55,-1.189 3.23,-2.21 0.68,-1.36 0,-3.74 0.34,-5.27 0,-0.17 -0.17,-1.36 0,-1.7 0.68,-0.85 1.02,0.34 1.53,0 1.19,-0.85 2.21,-1.19 2.72,-2.89 -1.7,-0.34 -3.57,1.36 -4.59,-0.51 -2.04,-3.57 2.21,-2.04 3.57,-1.87 1.53,-3.23 -2.04,-3.23 -2.89,-5.61 -0.85,-1.87 -0.17,-4.42 0.51,-6.12 1.02,-2.04 2.04,-4.42 3.23,-6.63 0.68,-1.53 1.02,-1.7 2.21,-2.549 0.34,-0.341 2.21,-1.701 2.89,-1.871 2.55,-1.189 2.89,1.871 4.08,4.08 1.02,2.04 2.04,3.74 3.06,5.61 1.87,4.08 7.31,3.911 10.71,6.8 2.72,2.38 3.91,2.04 7.65,2.72 2.55,0.51 6.29,2.89 7.14,5.44 -2.21,0.681 -4.25,-0.51 -6.12,-0.85 1.02,1.87 1.53,3.06 -1.02,3.91 1.02,0.34 3.06,-1.19 4.08,-1.7 1.02,-0.34 2.55,-0.679 3.57,-1.02 1.7,3.74 -4.76,4.25 -0.17,7.99 2.72,1.87 1.7,1.02 1.53,4.25 0,1.7 1.87,3.91 0.34,5.1 1.02,0.68 1.7,1.53 2.21,2.55 -2.04,0.34 -2.21,1.36 -1.19,2.89 0.34,0.68 1.36,0.85 1.87,1.36 0.51,0.681 0.34,1.701 0.85,2.21 2.04,2.21 5.78,2.21 7.65,4.42 C 59.5,7.65 52.19,3.06 48.28,0 c 0.51,1.36 5.61,2.55 4.08,4.42 -1.19,1.53 -5.61,-1.7 -5.27,1.53 1.87,0.34 4.42,0 5.44,1.36 -5.95,3.06 -13.77,2.04 -20.4,2.04 -6.46,0 -13.6,0.51 -18.19,-4.59 C 10.2,8.67 9.86,3.4 6.29,2.89 4.76,2.72 -2.21,4.08 -1.02,0.34 L 0,0 z" /></g><g
         transform="translate(167.3091,457.5947)"
         id="g140"><path
           inkscape:connector-curvature="0"
           id="path142"
           style="fill:#f2f2f2;fill-opacity:1;fill-rule:nonzero;stroke:none"
           d="M 0,0 C 2.21,0.85 4.42,1.02 6.46,1.701 5.95,3.4 -0.85,3.91 -2.38,3.06 -2.21,3.4 -2.21,4.08 -2.21,4.42 -4.76,5.44 -9.35,3.91 -12.41,3.741 -14.79,3.57 -23.8,3.57 -17.34,1.19 -19.72,0.681 -21.59,2.04 -23.97,2.21 -26.69,2.38 -25.5,2.55 -26.52,0.681 -26.86,0 -27.71,-2.04 -27.88,-2.72 c 2.21,-0.85 6.29,3.06 6.46,-0.509 0.34,-3.401 -1.87,-0.341 -3.4,-0.681 -1.36,-0.34 -0.85,-2.21 -1.87,-2.38 -0.85,-0.34 -2.89,1.871 -3.57,2.55 -0.51,0.341 -1.87,2.381 -2.38,2.551 -2.89,1.359 -2.21,-0.681 -3.06,-2.04 -0.68,-1.19 -2.38,-2.21 -1.87,-4.081 1.53,-0.34 3.06,-0.169 4.25,-0.51 -0.17,-1.02 -1.02,-1.53 -1.87,-2.04 0.34,-0.34 5.61,0.34 6.63,0.68 2.04,0.51 4.42,3.23 6.29,0.68 -0.85,-1.19 -7.48,-0.17 -4.08,-3.4 -1.02,-0.51 -2.21,-0.34 -3.23,0.17 0,-3.74 -6.8,-4.249 -8.67,-2.209 1.19,0.85 0.85,2.039 -0.68,2.039 1.87,2.04 -2.21,5.61 -2.89,2.72 -0.17,-1.02 3.23,-6.12 -0.34,-4.59 -0.85,-2.55 -7.48,1.701 -6.29,-1.87 -0.85,-0.509 -1.87,-0.339 -2.72,0.17 -0.68,-2.38 -0.34,-3.57 2.21,-3.23 0.34,0 2.55,0.68 2.21,0.85 1.36,-0.339 1.7,-1.7 0.34,-2.55 1.36,-0.34 3.23,2.04 4.25,1.36 0.68,-0.68 0,-2.55 -0.34,-3.23 1.53,0 3.23,-0.509 3.91,0.85 1.02,2.211 -1.36,2.55 -2.21,3.4 -1.36,1.19 -2.38,2.38 0.17,2.72 2.04,0.341 2.89,-2.053 4.42,-1.542 1.53,-2.551 -1.7,-3.753 3.4,-3.753 l 6.12,0 c 2.04,0 4.42,-1.517 5.78,0.523 1.7,2.55 -0.85,3.491 -3.06,3.151 -2.21,-0.34 -4.93,-1.739 -7.48,-0.719 -2.89,1.19 -0.51,2.02 1.87,2.19 3.23,0.17 6.12,-0.52 9.18,-1.03 1.02,0 2.72,-1.025 2.72,1.015 0,1.7 -1.53,1.018 -2.21,1.528 -0.68,0.34 -2.72,0.168 -1.19,1.359 1.19,0.68 3.4,-0.681 4.59,-0.172 0.17,0.171 2.89,2.551 2.89,2.721 0.34,1.36 -1.7,1.699 -1.7,3.059 1.36,0.34 2.89,0 4.25,0.34 1.19,0.51 1.87,1.7 2.89,2.04 1.19,0.34 2.21,-0.51 3.23,-0.17 1.02,0.341 2.55,2.551 3.23,3.23 L 0,0 z" /></g><g
         transform="translate(99.3091,434.1348)"
         id="g144"><path
           inkscape:connector-curvature="0"
           id="path146"
           style="fill:#f2f2f2;fill-opacity:1;fill-rule:nonzero;stroke:none"
           d="m 0,0 c -1.7,1.87 -4.93,2.04 -7.31,2.21 -0.68,0 -2.55,0.34 -3.06,0 -1.7,-1.02 -0.34,-2.04 -0.85,-3.74 -0.51,-1.36 -2.72,-2.21 -2.04,-3.909 0.51,-1.191 2.55,-1.531 3.74,-1.191 2.38,0.68 1.36,2.72 2.72,3.74 1.19,0.85 2.89,-0.17 4.25,1.19 L 0,0 z" /></g><g
         transform="translate(133.3091,321.2549)"
         id="g148"><path
           inkscape:connector-curvature="0"
           id="path150"
           style="fill:#78d53c;fill-opacity:1;fill-rule:nonzero;stroke:none"
           d="m 0,0 c -1.7,0.51 -11.22,3.91 -11.05,0 1.53,-0.34 3.4,0.17 4.93,-0.17 0.68,-0.17 3.91,-0.51 4.25,-0.85 1.53,-1.189 0.17,-3.23 2.72,-4.08 1.19,-0.34 3.4,0.34 4.25,1.19 -0.85,0.85 -2.21,1.19 -3.4,1.701 L 0,0 z" /></g><g
         transform="translate(178.5293,237.1045)"
         id="g152"><path
           inkscape:connector-curvature="0"
           id="path154"
           style="fill:#78d53c;fill-opacity:1;fill-rule:nonzero;stroke:none"
           d="m 0,0 c 1.87,1.53 3.23,1.19 5.27,1.7 2.38,0.51 3.23,1.87 4.25,4.08 1.87,3.4 2.04,7.14 2.21,10.71 0,2.38 -0.17,3.91 1.36,5.95 1.53,2.379 3.4,3.741 3.91,6.8 0.169,1.36 0.51,4.249 -0.34,5.44 -0.68,1.19 -4.25,2.72 -5.61,3.23 C 9.52,38.42 7.99,39.1 6.459,39.609 4.59,40.12 4.25,40.46 2.72,41.31 c -1.7,0.85 -3.4,1.53 -5.27,1.87 -3.06,0.509 -3.23,-0.169 -5.781,-2.04 1.02,2.72 4.081,4.25 3.741,7.31 -0.17,2.04 -3.06,4.42 -5.1,5.44 -1.87,1.02 -4.08,0.34 -5.95,1.53 -2.21,1.36 -3.401,4.76 -6.46,4.08 -0.34,1.529 -1.02,3.57 -2.38,3.91 -0.85,0.17 -1.53,-1.019 -2.55,-1.019 -1.02,0 -1.7,0.339 -2.72,0.679 -2.89,0.68 -7.14,2.21 -7.31,-1.7 -0.68,1.53 -1.02,3.06 0.68,3.74 -1.53,0.34 -5.95,-2.38 -6.8,-3.74 l -2.72,-2.379 c -2.55,1.36 -5.1,2.55 -3.06,-1.19 1.19,-2.38 2.89,-3.741 2.379,-6.631 -0.339,-2.72 -1.699,-4.25 -3.399,-6.119 -1.19,-1.361 -3.23,-4.93 -0.68,-5.78 -0.34,-2.041 -2.04,-3.911 -1.19,-6.121 0.85,-2.379 3.23,-2.719 3.91,-5.1 0.68,-2.55 0.17,-3.739 1.7,-6.12 1.19,-2.04 1.53,-4.59 3.57,-5.95 2.21,-1.359 4.76,-1.359 6.46,-3.91 0.68,-1.36 0.85,-4.25 1.02,-5.78 0.34,-3.569 0.68,-7.14 0.68,-10.71 -0.17,-6.8 -1.02,-13.26 -1.19,-20.059 -0.17,-3.061 -0.85,-6.291 -0.17,-9.01 0.51,-2.04 1.027,-2.551 0.516,-4.761 -0.34,-2.209 -1.843,-3.909 -0.843,-6.289 l 0,-2.891 c 0,-1.53 0.503,-2.89 0.673,-4.421 0,-0.509 -0.173,-1.189 -0.003,-1.53 0.51,-0.849 0.848,-0.679 1.188,-1.019 1.02,-1.361 3.23,-3.571 3.06,-5.951 0.85,1.701 1.699,1.531 2.719,0.34 0.85,-1.189 0.34,-1.869 -0.34,-3.229 1.7,-0.51 8.5,-1.361 8.839,0.17 0.341,1.87 -2.549,2.04 -3.739,2.89 -1.36,1.02 -2.04,2.719 -3.4,3.4 2.21,1.53 0.51,4.08 1.36,6.29 0.85,2.38 2.21,3.229 0.85,5.61 -0.51,1.02 -2.04,0.85 -1.87,2.72 0.17,1.529 1.53,1.529 2.55,2.55 0.51,0.509 2.04,2.04 2.04,3.059 -0.17,1.191 -2.72,1.871 -2.55,3.401 0.34,1.7 1.87,0.51 2.89,1.02 1.53,0.68 0.68,0.34 1.36,1.699 0.509,1.021 -0.511,1.531 0.34,2.381 0.51,0.34 2.38,0.169 2.89,0.34 1.7,0.51 4.25,1.869 4.42,3.909 0.17,2.211 -2.38,3.911 -2.72,5.78 2.04,-0.849 4.76,-2.719 6.63,-0.849 1.87,1.699 1.36,4.93 3.4,6.97 0.17,-0.85 0.339,-1.531 0,-2.55 1.7,1.359 2.72,4.42 3.23,6.29 0.51,2.04 0,4.93 1.7,6.289 L 0,0 z" /></g><g
         transform="translate(237.689,386.0244)"
         id="g156"><path
           inkscape:connector-curvature="0"
           id="path158"
           style="fill:#78d53c;fill-opacity:1;fill-rule:nonzero;stroke:none"
           d="m 0,0 c -0.17,2.89 -2.55,0 -2.89,-1.02 -0.34,-1.53 0.68,-2.72 -0.17,-4.419 1.19,-0.681 2.89,0 3.74,0.849 1.53,1.53 1.02,1.87 0.17,3.74 L 0,0 z" /></g><g
         transform="translate(139.0889,432.9443)"
         id="g160"><path
           inkscape:connector-curvature="0"
           id="path162"
           style="fill:#f2f2f2;fill-opacity:1;fill-rule:nonzero;stroke:none"
           d="m 0,0 c 0,-1.36 -1.19,-2.72 -1.87,-3.91 -0.68,1.701 -0.17,3.741 0.85,5.1 -1.87,0.34 -5.44,-1.53 -6.12,-3.399 -0.34,-1.02 0,-1.361 0.17,-2.211 0.17,-0.51 1.02,-1.02 1.19,-1.7 0.17,-0.51 -0.68,-1.36 -0.51,-1.7 0.85,-1.53 4.76,-0.68 6.8,-1.19 2.04,-0.34 4.76,-2.21 5.1,1.36 2.21,-0.51 2.55,-3.74 2.21,-5.78 -0.17,-1.19 -2.04,-3.23 0.17,-3.23 2.04,0 2.04,4.59 3.57,3.06 1.36,-1.19 -0.51,-4.08 -1.36,-4.93 -1.19,-1.02 -5.27,-1.02 -5.78,-2.38 -1.02,-2.55 2.89,-2.21 3.91,-2.38 2.89,-0.339 3.57,-2.21 5.78,-3.74 1.7,-1.02 4.25,-2.55 6.12,-3.23 0.85,2.551 -1.87,3.06 -2.72,5.1 2.21,0 5.27,-2.04 3.74,1.87 -0.51,1.02 -3.23,3.23 -2.04,4.76 1.87,2.38 3.91,-3.06 5.95,-2.38 3.57,1.36 1.19,4.76 -0.85,5.78 -1.02,0.51 -2.38,0.68 -3.23,1.36 -1.87,1.36 -0.85,1.7 -1.02,3.23 -0.17,2.21 -0.17,3.23 -2.38,4.76 -1.53,1.19 -3.91,3.23 -5.61,3.91 -1.02,0.34 -1.53,0.34 -2.72,0.34 -0.34,0 -2.89,-0.679 -3.06,-0.679 -0.17,0 -0.34,0 -0.51,0.169 0,2.891 -1.7,3.06 -4.25,2.55 L 0,0 z" /></g><g
         transform="translate(94.209,429.7148)"
         id="g164"><path
           inkscape:connector-curvature="0"
           id="path166"
           style="fill:#f2f2f2;fill-opacity:1;fill-rule:nonzero;stroke:none"
           d="M 0,0 C -0.85,-2.04 2.04,-1.53 3.4,-1.53 2.89,-2.38 1.7,-2.21 0.68,-2.38 1.7,-4.59 5.61,-2.21 6.46,-3.91 5.1,-4.76 2.89,-3.74 2.72,-5.61 2.55,-7.14 4.93,-8.16 6.29,-8.5 c 2.89,-0.68 5.1,1.53 7.99,1.53 1.36,0 2.55,-0.85 3.91,-0.51 -0.34,-0.17 3.23,1.87 3.4,2.04 0.85,1.87 -1.87,2.719 -2.55,3.739 C 17.51,0.51 18.53,1.87 19.55,3.74 17.85,4.59 14.96,4.59 14.11,2.89 13.77,2.209 14.96,-0.681 13.26,-0.51 12.58,-0.34 12.75,1.7 12.07,2.04 11.05,2.72 10.2,1.53 9.52,1.7 7.48,2.209 6.63,4.93 4.59,2.04 L 0,0 z" /></g><g
         transform="translate(332.8892,361.8848)"
         id="g168"><path
           inkscape:connector-curvature="0"
           id="path170"
           transform="matrix(0.8,0,0,-0.8,-332.8892,238.1152)"
           d="m 474.375,195.96875 c -1.43453,-1.6e-4 -2.80687,0.30625 -4.71875,1.15625 -2.125,0.85125 -3.4075,2.555 -5.53125,3.40625 -2.125,0.42375 -4.655,0.0137 -6.78125,0.4375 -6.37375,1.70125 -19.125,4.65625 -23.375,11.03125 -2.975,4.67375 2.13125,14.86875 -2.96875,17.84375 -1.275,-4.25 0.41875,-14.85 -3.40625,-18.25 -7.22625,-6.375 -6.39375,8.06375 -5.96875,12.3125 -8.075,0.42625 -11.895,-2.5575 -19.96875,0.84375 -7.65,3.825 -11.45625,5.94375 -17.40625,0.84375 -0.85125,4.25 -1.2825,7.66875 -5.53125,10.21875 -3.82375,1.7 -8.5125,2.1175 -8.9375,-3.40625 11.04875,0.42375 2.55625,-6.79375 -2.96875,-9.34375 -4.675,-2.125 -9.35,-3.84375 -14.875,-3.84375 -13.6,0.425 -15.2875,8.09875 -22.9375,17.875 -2.975,3.4 -11.05625,11.03625 -7.65625,16.5625 2.125,3.39875 5.53125,-2.5425 5.53125,3.40625 0,-0.42375 -3.655,5.39 -3.40625,5.9375 2.55,5.60875 -5.94375,5.60875 -9.34375,10.625 -2.55,-1.275 -2.15,-5.51875 -3,-7.21875 -0.85,-2.125 -4.6675,-6.38125 -5.09375,-7.65625 -0.42375,-3.4 7.65125,-9.7675 0,-9.34375 -4.67375,0 -7.20625,7.64375 -6.78125,11.46875 0.425,3.825 5.865,7.9725 3.8125,11.90625 -2.55,4.88875 -0.4375,7.225 5.9375,6.375 0.425,4.25125 -5.09375,3.41125 -5.09375,8.9375 0,1.7 2.97625,2.9625 2.125,5.9375 -1.275,3.825 -3.825,0.425 -6.375,2.125 -6.8,4.24875 -6.355,22.09875 3.84375,19.125 2.55,-0.425 7.20625,-6.375 8.90625,-8.5 3.4,-3.825 4.675,-5.53 8.5,-7.65625 5.95,-2.97375 5.95,-2.55125 10.625,2.125 3.4,2.975 7.66875,6.39375 3.84375,10.21875 4.25,2.125 6.77375,-2.995 7.625,-5.96875 0.8475,2.55 2.1325,5.95125 5.53125,4.25 0.85125,4.675 7.24375,6.81875 10.21875,3.84375 3.825,1.7 12.74375,-0.43875 15.71875,1.6875 1.27375,1.275 1.695,6.79875 0.84375,8.5 -2.125,3.39875 -3.3925,1.70125 -7.21875,2.125 -4.67375,0.42625 -8.5125,-0.8375 -13.1875,-1.6875 -3.40125,-0.425 -4.2425,-1.27625 -7.21875,0 -0.85,0 0.44,2.94875 -1.6875,3.375 -2.125,0.425 -3.425,-0.40125 -5.125,-1.25 -4.25,-2.125 -9.325,-6.81375 -11.875,-8.9375 -2.975,-2.125 -0.006,-3.39875 -5.53125,-4.25 -2.55,-0.85 -6.3875,0.4325 -8.9375,1.28125 -2.55,1.275 -3.80625,3.4 -6.78125,4.25 -2.97625,0.425 -7.23125,-1.7125 -9.78125,-0.4375 -5.1,2.55 -5.54375,12.7675 -8.09375,16.59375 -2.975,5.1 -7.20625,7.6425 -8.90625,13.59375 -0.85,3.825 -2.55,12.7375 -2.125,16.5625 0.85,4.25 5.95,11.92 8.5,16.59375 3.4,5.1 7.21875,8.48625 13.59375,8.0625 4.675,-0.425 11.04375,-4.6825 15.71875,-3.40625 2.125,0.85 2.96875,3.4125 5.09375,4.6875 1.7,0.425 4.69375,-0.87 5.96875,0.40625 1.275,2.125 -0.0188,5.11375 0.40625,6.8125 0.85,3.40125 2.56875,5.08625 3.84375,8.0625 2.125,4.25 3.82625,10.2 4.25,14.875 1.27625,9.775 -5.095,17.8675 -2.96875,27.21875 1.275,5.94875 4.24375,8.48625 7.21875,14.4375 2.97375,5.52375 1.68875,13.19375 8.0625,14.46875 4.67625,0.85 11.91875,-3.405 14.46875,-5.53125 5.1,-3.82375 6.35,-9.36875 9.75,-14.46875 2.54875,-4.25 2.145,-7.62375 3.84375,-11.875 2.55,-5.525 7.63125,-7.6625 8.90625,-13.1875 1.7,-8.07375 -2.12,-17.4125 1.28125,-25.0625 4.675,-11.04875 24.2375,-21.7 21.6875,-34.875 -4.25,-0.84875 -8.51375,2.5675 -13.1875,1.71875 -4.675,-0.85 -2.54375,0.83 -5.09375,-3.84375 -0.85,-0.85 0.86125,-2.5375 0.4375,-3.8125 -0.425,-1.275 -2.55625,-2.975 -3.40625,-4.25 -2.975,-5.1 -4.68,-10.2 -7.65625,-14.875 -2.12375,-3.825 -4.67375,-13.16375 -8.5,-14.4375 2.55,-0.85 15.29375,18.25125 17.84375,22.5 2.12375,3.40125 2.54375,11.075 5.09375,13.625 4.675,3.825 8.52375,-2.15 11.5,-5.125 3.82625,-3.40125 8.90125,-4.66375 11.875,-8.0625 1.7,-2.125 3.42625,-4.66875 3,-7.21875 -0.42375,-4.675 -1.29375,-1.69875 -3.84375,-4.25 -1.70125,-2.55 -0.42375,-4.2625 -4.25,-4.6875 -1.69875,0 -3.3925,3.39375 -5.09375,2.96875 -2.54875,0 -6.7925,-6.36125 -7.21875,-10.1875 4.67625,-1.275 14.87375,7.65625 19.125,9.78125 6.37375,2.97375 19.955,-2.98875 21.65625,5.9375 -0.425,0 -1.7025,-0.42625 -2.125,0 -1.7025,4.25 5.12125,6.8175 5.96875,1.71875 2.125,7.225 5.10625,15.27625 7.65625,22.5 1.27625,3.40125 2.55,9.78875 6.375,6.8125 2.55,-1.69875 1.6825,-9.7625 2.53125,-12.3125 1.27625,-6.37625 6.8125,-14.875 13.1875,-17 11.9,-3.40125 9.7625,8.48125 12.3125,15.28125 9.77625,-6.375 7.66875,4.25625 8.09375,11.90625 0.425,5.94875 3.81875,12.745 7.21875,17.84375 -2.975,-2.97375 -7.66875,-8.5 -12.34375,-8.5 -1.275,5.1 8.95,14.0175 11.5,17.84375 1.27625,2.125 3.3875,7.25 5.9375,7.25 5.1,0.84875 4.6675,-5.525 2.96875,-8.5 -1.27625,-3.82375 -4.25,-2.98 -4.25,-7.65625 -0.425,-3.82375 3.39375,-2.97375 0.84375,-8.5 -2.125,-4.67375 -13.595,-12.74375 -5.09375,-17.84375 2.125,6.375 8.9175,2.55 7.21875,10.625 5.525,0.42375 8.95125,-8.0875 7.25,-13.1875 -1.69875,-5.1 -11.90625,-10.62375 -3.40625,-14.875 1.275,3.4 2.12,12.31375 7.21875,3.8125 -4.67375,-3.39875 2.12,-5.095 5.09375,-7.21875 3.40125,-2.125 8.095,-6.3825 10.21875,-9.78125 2.55,-5.1 1.7025,-9.3425 0,-13.59375 -2.97375,-6.79875 -3.40625,-6.375 -1.28125,-12.75 -6.8,-1.27375 -10.6375,-2.9625 -2.5625,-8.0625 0,2.12375 -0.005,3.81375 -1.28125,5.9375 4.675,3.82625 5.975,-5.93125 11.5,-0.40625 1.7,2.125 3.38125,10.62625 2.53125,12.75 5.525,1.275 5.1,-5.1125 4.25,-8.9375 -0.85,-4.675 -6.37375,-8.5 -2.125,-12.75 0.425,1.275 1.71125,1.71125 2.5625,2.5625 4.24875,-3.4 8.9125,-8.92625 10.1875,-14.875 0.85,-4.25125 -0.41125,-9.37625 0.4375,-13.625 2.55,3.825 1.7075,17.025 7.65625,15.75 0.85125,-2.55 -0.445,-5.12625 -1.71875,-7.25 l 1.71875,0 c 0,-4.675 -1.70625,-11.88125 -5.53125,-15.28125 -0.425,0.84875 -1.69875,2.555 -2.125,3.40625 -1.27375,-4.25 -5.95625,-3.8375 -9.78125,-2.5625 -2.975,-8.925 10.21375,-16.16125 17.4375,-15.3125 5.95125,0.85125 5.0875,4.25625 10.1875,-0.84375 1.27625,-1.70125 -0.83625,-3.81875 2.5625,-5.09375 2.12625,-0.425 4.23125,1.69375 4.65625,2.96875 2.125,-1.70125 8.08125,-9.7675 5.53125,-0.84375 -0.425,2.12625 -2.975,2.975 -4.25,4.25 0,0 -5.1125,5.1 -4.6875,4.25 -2.125,5.52375 2.55,7.21375 4.25,12.3125 0.85,3.40125 0.006,7.245 1.28125,10.21875 2.12375,-1.275 5.525,-8.0875 6.375,-11.0625 0.84875,-2.55 1.695,-3.40125 0.84375,-6.375 -0.42375,-2.12625 -3.8125,-4.6825 -3.8125,-5.53125 -1.27625,-7.225 9.775,-9.35125 14.875,-6.375 1.27375,-6.37625 7.65,-2.9575 10.625,-6.78125 4.25,-5.525 -2.1375,-7.645 -6.8125,-7.21875 4.675,-3.4 2.57,-3.4 8.09375,-2.125 3.825,0.42375 6.7875,2.55 10.1875,4.25 0.36659,-1.83295 0.76691,-3.66625 1.40625,-5.5 l 0,-1.09375 c -3.2965,-2.27848 -6.58956,-1.54478 -9.0625,-2.78125 -2.975,-1.275 -5.10125,-4.23625 -8.5,-5.9375 -5.95,-3.39875 -13.175,-2.13125 -19.125,-5.53125 0,1.69875 -0.41375,3.8325 0.4375,5.53125 -5.525,1.70125 -2.125,-3.82625 -4.25,-4.25 -3.825,-1.7 -4.25,1.69875 -8.5,2.125 -5.10125,0.425 -4.25,-2.5375 -6.375,-3.8125 -2.975,-0.85 -5.0875,-0.855 -8.0625,-1.28125 -5.52625,-0.425 -8.51125,-3.83875 -13.1875,-4.6875 -2.54875,-0.85 -4.66875,0.02 -7.21875,-0.40625 -2.975,-0.42375 -5.1175,-2.13 -8.09375,-1.28125 0.42625,0.85125 0.8675,3.4 1.71875,4.25 -2.55,1.275 -9.35625,0.006 -11.90625,-0.84375 0,0.85 -0.84375,2.52375 -0.84375,3.375 -3.825,-1.275 -3.405,-7.20625 -5.53125,-8.90625 -2.54875,-1.70125 -7.2125,-0.8675 -10.1875,-1.71875 0,0.85125 -0.875,1.70625 -0.875,3.40625 -3.82375,1.275 -4.225,-2.12 -7.625,-2.96875 -2.125,-0.42625 -5.95,0 -8.5,0 -0.425,-0.42625 -0.0125,-0.8375 -0.4375,-1.6875 -1.7,0.85 -2.96375,1.675 -3.8125,3.375 l -4.6875,0 c 1.7,-2.975 9.36125,-5.94375 6.8125,-9.34375 -0.85,-1.275 -9.3625,-2.1075 -11.0625,-2.53125 -2.125,-0.42562 -3.62797,-0.74984 -5.0625,-0.75 z m -124.46875,37.875 c 2.8451,-0.1627 3.3,2.77187 1.8125,5.375 -1.4875,2.7625 -4.4625,3.39375 -4.25,7.21875 0.2125,1.275 1.27625,3.80625 2.125,4.65625 2.33875,2.3375 0.65625,0.425 2.78125,0 1.69875,-0.2125 4.88625,-1.25625 6.375,-0.40625 4.24875,2.125 -1.7,2.55 -1.0625,5.3125 l -2.5625,-0.4375 c 0.6375,-3.4 -3.6075,-2.34375 -5.09375,-1.28125 0.63875,0.85 2.9575,3.6375 1.46875,5.125 -1.9125,1.9125 -2.55125,-2.13125 -4.25,-1.28125 -2.125,1.275 0.6375,6.575 -1.0625,8.0625 -1.4875,1.4875 -3.18625,-0.2125 -4.25,0 -1.4875,0.2125 -2.54375,1.48125 -4.03125,1.90625 -1.0625,0.425 -2.96875,0.65 -4.03125,0.4375 -1.69875,-0.425 -1.26875,-3.40625 -4.03125,-1.28125 0,-3.4 -2.55875,-10.6125 -0.21875,-13.375 0.63625,1.275 0.19875,2.7625 0.625,4.25 0.6375,1.4875 2.1375,2.12625 2.5625,3.1875 1.0625,2.975 -1.05,5.29375 3.625,3.59375 3.6125,-1.0625 3.60625,-2.75125 4.03125,-5.9375 0.21125,-1.48875 -0.225,-2.53625 0.625,-3.8125 1.0625,-1.7 1.72,-1.0625 2.78125,-2.125 1.7025,-1.7 1.905,0 -0.21875,-2.125 -1.0625,-1.0625 -1.93125,-0.2375 -2.78125,-1.9375 -1.275,-2.975 1.91875,-5.93625 3.40625,-8.0625 1.27625,-2.3375 1.4875,-5.9625 4.25,-6.8125 0.50484,-0.15938 0.96856,-0.22676 1.375,-0.25 z m 26.0625,53.96875 c 1.30156,0 2.625,0.175 3.15625,0.28125 0.2125,2.125 -2.31125,2.10625 -3.375,3.59375 l 3.59375,3.40625 c 0.2125,0 0.225,0.225 0.4375,0.4375 2.125,1.7 7.64375,4.025 4.03125,7 -1.4875,1.0625 -5.52,1.075 -7.21875,0.4375 -2.975,-0.85 -3.81875,-1.925 -7.21875,-1.5 -0.85,0.2125 -2.77375,0.2 -3.625,0.625 -1.4875,0.6375 -1.27625,0.86875 -2.125,1.71875 -0.2125,0.2125 -0.6325,1.475 -0.84375,1.6875 -0.42625,0.425 -1.7,0.0188 -2.125,0.65625 -0.85125,1.275 -0.4175,1.4875 -0.84375,3.1875 -0.6375,2.975 -0.42625,4.03125 -4.25,4.03125 -5.95125,0.2125 -5.95625,-4.90625 -4.46875,-9.15625 2.33875,2.3375 3.4075,-1.25625 5.53125,-1.46875 1.91375,0 3.3825,2.975 5.71875,0 1.91375,-2.3375 -0.855,-3.39375 -0.21875,-6.15625 0.425,-1.7 2.99375,-4.25625 3.84375,-5.53125 1.06125,-2.3375 1.055,-3.84375 2.96875,-0.65625 1.06125,1.7 0.625,5.54375 3.8125,3.84375 2.97375,-1.7 -1.48125,-3.625 0.21875,-5.75 0.425,-0.53125 1.69844,-0.6875 3,-0.6875 z m 26.65625,0.34375 c 1.32812,0.0266 2.44375,0.6625 2.65625,2.46875 0.2125,2.125 -1.08125,1.49375 -1.71875,2.34375 -0.6375,0.85 -1.9,1.6875 -2.75,2.75 l 1.0625,1.9375 c 0.21375,0.425 1.0625,1.9125 1.0625,2.125 1.48625,1.275 2.97625,-0.2125 4.25,1.0625 1.70125,1.9125 -0.20125,1.9 -0.625,2.75 0,0.425 -1.06875,-0.21875 -1.28125,0.84375 -0.21375,0.85 0.85,1.26875 1.0625,1.90625 0.42625,1.275 1.90625,2.575 1.90625,4.0625 0.2125,3.4 -0.425,1.8875 -2.125,2.3125 -1.275,0.2125 -1.9125,1.075 -3.1875,0.4375 -4.03875,-1.4875 -0.63125,-5.525 -1.90625,-8.5 -1.9125,-4.8875 -9.7825,-10.85 -2.34375,-15.3125 1.0625,-0.6375 2.60938,-1.21406 3.9375,-1.1875 z m 17.65625,1.125 c 0.23438,0.002 0.47977,0.009 0.71875,0.0625 l 0.4375,1.71875 c -0.85,1.0625 -1.4875,11.90625 -5.3125,6.59375 -2.19141,-2.98828 0.6406,-8.41002 4.15625,-8.375 z m -85.46875,2.5625 c 2.5691,-0.42126 4.38906,3.70156 6.0625,5.375 2.33625,2.55 4.65625,3.83125 3.59375,7.65625 l -2.53125,-1.28125 c -0.63875,-2.7625 -3.3875,-3.18125 -4.875,-5.09375 -1.7,-1.7 -2.13,-4.24375 -3.40625,-6.15625 0.39859,-0.26563 0.78924,-0.43982 1.15625,-0.5 z"
           style="fill:#78d53c;fill-opacity:1;fill-rule:nonzero;stroke:none" /></g><g
         transform="translate(505.439,213.0498)"
         id="g172"><path
           inkscape:connector-curvature="0"
           id="path174"
           transform="matrix(0.8,0,0,-0.8,-505.439,386.9502)"
           d="m 628.28125,488.25 c -0.96797,0.62308 -0.47494,1.47247 0.0312,2.28125 l 0,-2.28125 c -0.009,0.006 -0.0226,-0.006 -0.0312,0 z"
           style="fill:#78d53c;fill-opacity:1;fill-rule:nonzero;stroke:none" /></g><g
         transform="translate(461.1538,205)"
         id="g176"><path
           inkscape:connector-curvature="0"
           id="path178"
           style="fill:#78d53c;fill-opacity:1;fill-rule:nonzero;stroke:none"
           d="M 0,0 C -1.359,0 -2.124,0.455 -1.869,-1.16 -1.785,-1.925 -1.53,-3.471 -1.274,-4.064 -0.085,-6.871 3.825,0 1.955,0 L 0,0 z" /></g><g
         transform="translate(499.7437,206.165)"
         id="g180"><path
           inkscape:connector-curvature="0"
           id="path182"
           style="fill:#78d53c;fill-opacity:1;fill-rule:nonzero;stroke:none"
           d="m 0,0 c -1.273,0.353 -1.954,-1.53 -2.55,-2.635 -0.595,-1.104 -0.765,-1.87 -1.785,-2.635 -2.04,-1.445 -5.185,-2.464 -5.949,-5.015 -0.511,-1.529 1.359,-1.955 2.72,-2.124 1.359,-0.086 2.294,0.933 3.06,2.04 0.595,0.933 1.105,2.124 2.209,2.55 1.275,0.423 1.445,-0.341 2.04,1.019 0.255,0.595 0.341,1.105 0.596,1.785 0.255,0.595 0.636,0.941 0.51,1.616 C 0.69,-2.539 0.844,-0.234 0,0" /></g><g
         transform="translate(109.2539,445.9077)"
         id="g184"><path
           inkscape:connector-curvature="0"
           id="path186"
           style="fill:#f2f2f2;fill-opacity:1;fill-rule:nonzero;stroke:none"
           d="M 0,0 C 3.188,2.04 1.147,2.295 -1.53,1.785 -2.805,1.53 -3.188,1.913 -3.57,0.638 -4.08,-0.51 -3.188,-1.913 -1.785,-1.02 L 0,0 z" /></g><g
         transform="translate(122.8965,447.6929)"
         id="g188"><path
           inkscape:connector-curvature="0"
           id="path190"
           style="fill:#f2f2f2;fill-opacity:1;fill-rule:nonzero;stroke:none"
           d="M 0,0 C -0.765,1.147 -5.737,4.845 -6.502,1.657 -7.268,-1.147 -2.422,-1.02 -1.02,-1.02 L 0,0 z" /></g><g
         transform="translate(123.1514,434.0503)"
         id="g192"><path
           inkscape:connector-curvature="0"
           id="path194"
           style="fill:#f2f2f2;fill-opacity:1;fill-rule:nonzero;stroke:none"
           d="m 0,0 c -1.53,1.785 -2.55,0.382 -3.57,-0.383 -0.51,-0.382 -0.765,0.128 -1.402,-0.51 -0.128,-0.382 0.127,-1.785 0.127,-1.912 -0.383,0.255 -1.147,0.255 -1.53,0.51 -0.637,-2.295 1.785,-2.805 3.442,-2.933 2.04,-0.127 2.678,0.128 2.296,2.55 L 0,0 z" /></g><g
         transform="translate(100.9663,442.4653)"
         id="g196"><path
           inkscape:connector-curvature="0"
           id="path198"
           style="fill:#f2f2f2;fill-opacity:1;fill-rule:nonzero;stroke:none"
           d="M 0,0 C 3.06,1.53 -0.255,2.167 -1.785,1.913 -3.188,1.785 -5.737,1.02 -6.63,-0.127 c -0.51,-1.02 -0.51,-1.531 0.765,-1.786 1.53,-0.254 1.148,0.893 2.295,1.275 3.188,1.02 -0.765,-1.657 -0.51,-2.55 2.168,0.638 3.315,-0.382 3.187,2.55 L 0,0 z" /></g><g
         transform="translate(118.1792,422.5752)"
         id="g200"><path
           inkscape:connector-curvature="0"
           id="path202"
           style="fill:#f2f2f2;fill-opacity:1;fill-rule:nonzero;stroke:none"
           d="m 0,0 c 0.637,1.147 1.53,0.255 2.295,0.638 1.02,0.509 0.765,0.509 1.402,1.784 0.893,1.913 2.933,2.04 3.315,4.208 0.383,2.04 -0.637,3.06 1.275,4.462 0.893,0.638 3.06,2.04 4.208,1.531 2.55,-1.02 0,-1.913 -1.148,-2.295 C 9.307,9.69 8.415,9.563 8.67,7.268 8.925,4.335 11.857,1.402 7.395,1.02 6.885,1.02 5.992,1.402 5.482,1.147 4.59,0.51 5.227,-0.638 4.59,-1.02 3.952,-1.53 2.04,-1.147 1.275,-1.147 L 0,0 z" /></g><g
         transform="translate(104.9189,441.8276)"
         id="g204"><path
           inkscape:connector-curvature="0"
           id="path206"
           style="fill:#f2f2f2;fill-opacity:1;fill-rule:nonzero;stroke:none"
           d="M 0,0 C -0.638,0.383 -0.893,0.765 -0.51,1.53 -2.295,1.913 -1.658,-0.893 -2.295,-1.657 -2.805,-2.422 -5.993,-2.805 -5.737,-3.697 -5.482,-5.1 0.382,-2.933 1.53,-4.208 0.51,-4.845 -0.893,-4.335 -1.913,-5.1 0.765,-5.355 2.167,-4.59 4.462,-4.208 5.61,-4.08 6.375,-4.462 7.14,-3.697 8.415,-2.422 7.013,-1.913 6.63,-1.275 5.993,0.255 5.61,2.55 4.335,0.127 3.953,-0.637 4.717,-1.275 3.953,-1.785 c -0.638,-0.51 -2.678,0 -3.06,0.51 L 0,0 z" /></g><g
         transform="translate(142.4038,316.4951)"
         id="g208"><path
           inkscape:connector-curvature="0"
           id="path210"
           style="fill:#78d53c;fill-opacity:1;fill-rule:nonzero;stroke:none"
           d="m 0,0 c -2.805,0 -3.315,-0.893 -5.737,-1.402 1.402,-0.893 4.972,-0.893 6.63,-1.02 0.892,0 2.677,-0.383 3.442,0.127 1.53,1.02 -0.255,1.402 -1.53,1.275 L 0,0 z" /></g><g
         transform="translate(95.229,123.7168)"
         id="g212"><path
           inkscape:connector-curvature="0"
           id="path214"
           transform="matrix(0.8,0,0,-0.8,-95.229,476.2832)"
           d="m 215.09375,557.53125 c -3.825,0 -14.03125,6.3875 -16.15625,8.9375 -2.12625,2.125 -0.86875,5.9375 -3.84375,8.0625 -2.55,1.275 -5.5425,0.85625 -8.09375,1.28125 0.85125,2.55 3.8,10.19875 3.375,12.75 -2.125,-1.7 -4.7325,-2.98 -7.28125,-3.40625 0.85,2.97625 -0.1875,3.83625 -2.6875,4.6875 0,0 0.10332,0.10324 0.21875,0.25 l 32,0 c -0.0177,-4.63417 -1.05358,-9.91525 -1.78125,-14.28125 -0.425,-3.4 -2.11875,-5.94375 -0.84375,-9.34375 1.275,-3.825 5.94375,-4.6875 5.09375,-8.9375 z m -66.5625,26.1875 c -2.12288,0.0964 -3.85313,0.76742 -4.96875,2.28125 -1.23302,1.76123 -0.69805,3.08731 -0.1875,4.09375 l 27.875,0 c -7.36769,-2.29746 -16.64858,-6.65066 -22.71875,-6.375 z"
           style="fill:#f2f2f2;fill-opacity:1;fill-rule:nonzero;stroke:none" /></g><g
         transform="translate(222.0493,123.7148)"
         id="g216"><path
           inkscape:connector-curvature="0"
           id="path218"
           transform="matrix(0.8,0,0,-0.8,-222.0493,476.2852)"
           d="m 476.03125,562.625 c -2.97375,7.225 -13.15625,4.2625 -19.53125,4.6875 -1.7,0 -5.1,-1.275 -6.375,0 -1.69875,0.85 -0.02,3.83125 -1.71875,5.53125 -0.85125,0.425 -8.91375,3.825 -10.1875,4.25 -6.37625,1.275 -11.49375,-5.11875 -18.71875,-5.96875 -4.25,-0.85 -15.3,0.4375 -14.875,-5.9375 -1.275,0 -4.65625,-0.85 -6.78125,0 -2.975,1.275 -1.7,2.95625 -4.25,4.65625 -3.82375,2.55 -10.63875,2.1375 -15.3125,4.6875 -3.4,1.275 -0.85625,4.23625 -5.53125,3.8125 -2.975,-0.85 -3.38125,-4.23125 -6.78125,-4.65625 0.85,0.425 -2.54375,3.40625 -2.96875,3.40625 0,0 -2.555,0.40625 -3.40625,0.40625 -1.69875,0.42625 -3.4075,0.4375 -5.53125,0.4375 -3.82375,0.42375 -8.5,-0.42625 -12.75,0 -10.625,0.8475 -24.2375,-2.14375 -34.4375,0.40625 -5.88612,1.38497 -22.45603,4.77603 -27.71875,11.71875 l 301.3125,0 c 0.42861,-0.37607 0.90524,-0.75962 1.40625,-1.09375 5.10125,-3.82375 9.75625,-5.52625 0.40625,-8.5 -2.97625,-0.85125 -5.08625,-0.41125 -8.0625,-1.6875 -2.12375,-1.27375 -3.8375,-4.68125 -6.8125,-5.53125 -2.975,-1.275 -5.93125,0.44375 -8.90625,-0.40625 -3.825,-0.425 -5.11875,-3.4 -8.09375,-4.25 -4.25,-1.275 -11.47375,1.69375 -12.75,-5.53125 -2.125,2.975 -4.2375,2.55625 -8.0625,3.40625 -5.1,1.275 -2.13125,1.68125 -7.65625,0.40625 -6.37625,-1.275 -9.77375,0.85 -17,0 -1.7,0 -2.5625,-1.6875 -4.6875,-1.6875 -1.7,0 -1.26875,2.96875 -2.96875,2.96875 -3.825,0 -3.80625,-1.7125 -6.78125,-2.5625 -3.825,-1.275 -11.0675,0.006 -14.46875,-2.96875 z"
           style="fill:#f2f2f2;fill-opacity:1;fill-rule:nonzero;stroke:none" /></g><g
         transform="translate(495.7095,388.7461)"
         id="g224"><path
           inkscape:connector-curvature="0"
           id="path226"
           style="fill:#8e8e8e;fill-opacity:1;fill-rule:nonzero;stroke:none"
           d="M 0,0 C -0.352,-0.117 -0.578,-0.339 -0.764,-0.609 -0.373,-0.36 0.027,-0.147 0.447,0.004 0.298,0.021 0.148,0.021 0,0" /></g><g
         transform="translate(483.4692,383.1357)"
         id="g228"><path
           inkscape:connector-curvature="0"
           id="path230"
           style="fill:#78d53c;fill-opacity:1;fill-rule:nonzero;stroke:none"
           d="m 0,0 c -3.061,-1.7 -5.951,-1.36 -8.84,-3.74 l 6.119,1.87 c 0.17,0.17 0.341,0.17 0.341,0.34 3.569,3.23 9.35,1.19 12.75,4.76 0.558,0.557 0.753,1.257 1.107,1.771 C 10.523,4.395 9.63,3.594 8.67,3.06 5.779,1.36 2.89,1.7 0,0" /></g><g
         transform="translate(605.189,370.7256)"
         id="g232"><path
           inkscape:connector-curvature="0"
           id="path234"
           transform="matrix(0.8,0,0,-0.8,-605.189,229.2744)"
           d="m 628.3125,232.1875 c -0.14544,0.25082 -0.25693,0.51335 -0.375,0.84375 0,-0.0989 0.17819,0.80232 0.375,1.6875 l 0,-2.53125 z m 0,10.15625 c -2.55423,1.17376 -3.64653,3.04804 0,4.8125 l 0,-4.8125 z m -0.21875,4.96875 c -2.25509,0.28716 -3.4207,2.64453 -1.03125,4.4375 0.54145,0.38675 0.95294,0.55322 1.25,0.5625 l 0,-5 c -0.0719,0.005 -0.1489,-0.009 -0.21875,0 z m 0.21875,15.375 c -0.58694,0.36307 -1.13914,0.7102 -1.65625,0.96875 -2.3375,1.0625 -3.62625,-0.2375 -5.75,0.1875 -0.24375,0.0487 -0.485,0.135 -0.71875,0.21875 1.30125,0.14375 2.605,1.28125 3.90625,1.28125 1.11659,0 2.72232,-0.59828 4.21875,-1.25 l 0,-1.40625 z"
           style="fill:#78d53c;fill-opacity:1;fill-rule:nonzero;stroke:none" /></g></g></g></svg>