<?xml version="1.0" encoding="UTF-8" standalone="no"?>
<!-- Created with Inkscape (http://www.inkscape.org/) -->

<svg
   xmlns:dc="http://purl.org/dc/elements/1.1/"
   xmlns:cc="http://creativecommons.org/ns#"
   xmlns:rdf="http://www.w3.org/1999/02/22-rdf-syntax-ns#"
   xmlns:svg="http://www.w3.org/2000/svg"
   xmlns="http://www.w3.org/2000/svg"
   xmlns:sodipodi="http://sodipodi.sourceforge.net/DTD/sodipodi-0.dtd"
   xmlns:inkscape="http://www.inkscape.org/namespaces/inkscape"
   id="svg2"
   version="1.1"
   inkscape:version="0.48.2 r9819"
   width="2560"
   height="1920"
   xml:space="preserve"
   sodipodi:docname="screen__wald_cs5.svg"><metadata
     id="metadata8"><rdf:RDF><cc:Work
         rdf:about=""><dc:format>image/svg+xml</dc:format><dc:type
           rdf:resource="http://purl.org/dc/dcmitype/StillImage" /><dc:title></dc:title></cc:Work></rdf:RDF></metadata><defs
     id="defs6"><clipPath
       clipPathUnits="userSpaceOnUse"
       id="clipPath18"><path
         d="m 0,1536 2048,0 L 2048,0 0,0 0,1536 z"
         id="path20" /></clipPath><clipPath
       clipPathUnits="userSpaceOnUse"
       id="clipPath1344"><path
         d="m 0,1536 2048,0 L 2048,0 0,0 0,1536 z"
         id="path1346" /></clipPath><clipPath
       clipPathUnits="userSpaceOnUse"
       id="clipPath1368"><path
         d="m 0,1536 2048,0 L 2048,0 0,0 0,1536 z"
         id="path1370" /></clipPath><clipPath
       clipPathUnits="userSpaceOnUse"
       id="clipPath1424"><path
         d="m 0,1536 2048,0 L 2048,0 0,0 0,1536 z"
         id="path1426" /></clipPath><clipPath
       clipPathUnits="userSpaceOnUse"
       id="clipPath3004"><path
         d="m 0,1536 2048,0 L 2048,0 0,0 0,1536 z"
         id="path3006" /></clipPath><clipPath
       clipPathUnits="userSpaceOnUse"
       id="clipPath3064"><path
         d="m 611.262,1266.5 30.647,0 0,-34.39 -30.647,0 0,34.39 z"
         id="path3066" /></clipPath><clipPath
       clipPathUnits="userSpaceOnUse"
       id="clipPath3096"><path
         d="m 767.558,1245.81 30.647,0 0,-34.39 -30.647,0 0,34.39 z"
         id="path3098" /></clipPath><clipPath
       clipPathUnits="userSpaceOnUse"
       id="clipPath3128"><path
         d="m 1107.38,1247.01 30.65,0 0,-34.39 -30.65,0 0,34.39 z"
         id="path3130" /></clipPath><clipPath
       clipPathUnits="userSpaceOnUse"
       id="clipPath3160"><path
         d="m 919.184,1250.86 30.647,0 0,-34.39 -30.647,0 0,34.39 z"
         id="path3162" /></clipPath><clipPath
       clipPathUnits="userSpaceOnUse"
       id="clipPath3192"><path
         d="m 1277.88,1248.99 25.91,0 0,-36.93 -25.91,0 0,36.93 z"
         id="path3194" /></clipPath><clipPath
       clipPathUnits="userSpaceOnUse"
       id="clipPath3224"><path
         d="m 1439.02,1258.03 25.91,0 0,-36.93 -25.91,0 0,36.93 z"
         id="path3226" /></clipPath><clipPath
       clipPathUnits="userSpaceOnUse"
       id="clipPath3388"><path
         d="m 0,1536 2048,0 L 2048,0 0,0 0,1536 z"
         id="path3390" /></clipPath><clipPath
       clipPathUnits="userSpaceOnUse"
       id="clipPath3424"><path
         d="m 1761.68,1506.2 30.64,0 0,-34.4 -30.64,0 0,34.4 z"
         id="path3426" /></clipPath><clipPath
       clipPathUnits="userSpaceOnUse"
       id="clipPath3444"><path
         d="m 1815.85,1526.96 30.65,0 0,-34.4 -30.65,0 0,34.4 z"
         id="path3446" /></clipPath><clipPath
       clipPathUnits="userSpaceOnUse"
       id="clipPath3464"><path
         d="m 1867.85,1550.5 30.65,0 0,-34.39 -30.65,0 0,34.39 z"
         id="path3466" /></clipPath><clipPath
       clipPathUnits="userSpaceOnUse"
       id="clipPath3484"><path
         d="m 1912.11,1476.5 30.65,0 0,-34.39 -30.65,0 0,34.39 z"
         id="path3486" /></clipPath><clipPath
       clipPathUnits="userSpaceOnUse"
       id="clipPath3504"><path
         d="m 1864.17,1450.46 30.65,0 0,-34.4 -30.65,0 0,34.4 z"
         id="path3506" /></clipPath><clipPath
       clipPathUnits="userSpaceOnUse"
       id="clipPath3524"><path
         d="m 1815.85,1427.5 30.65,0 0,-34.39 -30.65,0 0,34.39 z"
         id="path3526" /></clipPath><clipPath
       clipPathUnits="userSpaceOnUse"
       id="clipPath3544"><path
         d="m 1768.76,1411.38 30.65,0 0,-34.4 -30.65,0 0,34.4 z"
         id="path3546" /></clipPath><clipPath
       clipPathUnits="userSpaceOnUse"
       id="clipPath3564"><path
         d="m 1746.35,1363 30.65,0 0,-34.39 -30.65,0 0,34.39 z"
         id="path3566" /></clipPath><clipPath
       clipPathUnits="userSpaceOnUse"
       id="clipPath3584"><path
         d="m 1797.17,1339.78 30.65,0 0,-34.39 -30.65,0 0,34.39 z"
         id="path3586" /></clipPath><clipPath
       clipPathUnits="userSpaceOnUse"
       id="clipPath3604"><path
         d="m 1855.65,1330.5 30.65,0 0,-34.39 -30.65,0 0,34.39 z"
         id="path3606" /></clipPath><clipPath
       clipPathUnits="userSpaceOnUse"
       id="clipPath3624"><path
         d="m 1912.11,1323.5 30.65,0 0,-34.39 -30.65,0 0,34.39 z"
         id="path3626" /></clipPath><clipPath
       clipPathUnits="userSpaceOnUse"
       id="clipPath3644"><path
         d="m 1962.35,1323.5 30.65,0 0,-34.39 -30.65,0 0,34.39 z"
         id="path3646" /></clipPath><clipPath
       clipPathUnits="userSpaceOnUse"
       id="clipPath3664"><path
         d="m 1971.35,1266.5 30.65,0 0,-34.39 -30.65,0 0,34.39 z"
         id="path3666" /></clipPath><clipPath
       clipPathUnits="userSpaceOnUse"
       id="clipPath3684"><path
         d="m 1927.75,1235 30.65,0 0,-34.39 -30.65,0 0,34.39 z"
         id="path3686" /></clipPath><clipPath
       clipPathUnits="userSpaceOnUse"
       id="clipPath3704"><path
         d="m 1874.29,1206.5 30.64,0 0,-34.39 -30.64,0 0,34.39 z"
         id="path3706" /></clipPath><clipPath
       clipPathUnits="userSpaceOnUse"
       id="clipPath3724"><path
         d="m 1822.02,1177 30.64,0 0,-34.39 -30.64,0 0,34.39 z"
         id="path3726" /></clipPath><clipPath
       clipPathUnits="userSpaceOnUse"
       id="clipPath3744"><path
         d="m 1822.02,1008.75 30.64,0 0,-34.393 -30.64,0 0,34.393 z"
         id="path3746" /></clipPath><clipPath
       clipPathUnits="userSpaceOnUse"
       id="clipPath3764"><path
         d="m 1868.85,1043 30.65,0 0,-34.39 -30.65,0 0,34.39 z"
         id="path3766" /></clipPath><clipPath
       clipPathUnits="userSpaceOnUse"
       id="clipPath3784"><path
         d="m 1916.35,1076.89 30.65,0 0,-34.39 -30.65,0 0,34.39 z"
         id="path3786" /></clipPath><clipPath
       clipPathUnits="userSpaceOnUse"
       id="clipPath3804"><path
         d="m 1962.35,1110 30.65,0 0,-34.39 -30.65,0 0,34.39 z"
         id="path3806" /></clipPath><clipPath
       clipPathUnits="userSpaceOnUse"
       id="clipPath3824"><path
         d="m 2000.35,1142 30.65,0 0,-34.39 -30.65,0 0,34.39 z"
         id="path3826" /></clipPath><clipPath
       clipPathUnits="userSpaceOnUse"
       id="clipPath3844"><path
         d="m 1981.35,942.5 30.65,0 0,-34.395 -30.65,0 0,34.395 z"
         id="path3846" /></clipPath><clipPath
       clipPathUnits="userSpaceOnUse"
       id="clipPath3864"><path
         d="m 1932.85,920.5 30.65,0 0,-34.395 -30.65,0 0,34.395 z"
         id="path3866" /></clipPath><clipPath
       clipPathUnits="userSpaceOnUse"
       id="clipPath3884"><path
         d="m 1887.85,901.5 30.65,0 0,-34.395 -30.65,0 0,34.395 z"
         id="path3886" /></clipPath><clipPath
       clipPathUnits="userSpaceOnUse"
       id="clipPath3904"><path
         d="m 1836.85,882 30.65,0 0,-34.395 -30.65,0 0,34.395 z"
         id="path3906" /></clipPath><clipPath
       clipPathUnits="userSpaceOnUse"
       id="clipPath3944"><path
         d="m 186.853,1503.5 30.647,0 0,-34.39 -30.647,0 0,34.39 z"
         id="path3946" /></clipPath><clipPath
       clipPathUnits="userSpaceOnUse"
       id="clipPath3964"><path
         d="m 122.353,1531 30.647,0 0,-34.39 -30.647,0 0,34.39 z"
         id="path3966" /></clipPath><clipPath
       clipPathUnits="userSpaceOnUse"
       id="clipPath3984"><path
         d="m 63.3525,1546.39 30.6475,0 0,-34.39 -30.6475,0 0,34.39 z"
         id="path3986" /></clipPath><clipPath
       clipPathUnits="userSpaceOnUse"
       id="clipPath4004"><path
         d="m 195.349,1385.5 30.647,0 0,-34.39 -30.647,0 0,34.39 z"
         id="path4006" /></clipPath><clipPath
       clipPathUnits="userSpaceOnUse"
       id="clipPath4024"><path
         d="m 147.6,1359.5 30.647,0 0,-34.39 -30.647,0 0,34.39 z"
         id="path4026" /></clipPath><clipPath
       clipPathUnits="userSpaceOnUse"
       id="clipPath4044"><path
         d="m 79.3525,1332.47 30.6475,0 0,-34.39 -30.6475,0 0,34.39 z"
         id="path4046" /></clipPath><clipPath
       clipPathUnits="userSpaceOnUse"
       id="clipPath4064"><path
         d="m 84.8525,1207.3 30.6475,0 0,-34.39 -30.6475,0 0,34.39 z"
         id="path4066" /></clipPath><clipPath
       clipPathUnits="userSpaceOnUse"
       id="clipPath4084"><path
         d="m 147.6,1193.5 30.647,0 0,-34.39 -30.647,0 0,34.39 z"
         id="path4086" /></clipPath><clipPath
       clipPathUnits="userSpaceOnUse"
       id="clipPath4104"><path
         d="m 219.493,1184.98 30.647,0 0,-34.39 -30.647,0 0,34.39 z"
         id="path4106" /></clipPath><clipPath
       clipPathUnits="userSpaceOnUse"
       id="clipPath4124"><path
         d="m 223.353,1039.5 30.647,0 0,-34.39 -30.647,0 0,34.39 z"
         id="path4126" /></clipPath><clipPath
       clipPathUnits="userSpaceOnUse"
       id="clipPath4144"><path
         d="m 164.125,1058.5 30.647,0 0,-34.39 -30.647,0 0,34.39 z"
         id="path4146" /></clipPath><clipPath
       clipPathUnits="userSpaceOnUse"
       id="clipPath4164"><path
         d="m 103.853,1075.7 30.647,0 0,-34.4 -30.647,0 0,34.4 z"
         id="path4166" /></clipPath><clipPath
       clipPathUnits="userSpaceOnUse"
       id="clipPath4184"><path
         d="m 52.8213,1104.77 30.6475,0 0,-34.4 -30.6475,0 0,34.4 z"
         id="path4186" /></clipPath><clipPath
       clipPathUnits="userSpaceOnUse"
       id="clipPath4204"><path
         d="m 67.7275,979.697 30.6475,0 0,-34.394 -30.6475,0 0,34.394 z"
         id="path4206" /></clipPath><clipPath
       clipPathUnits="userSpaceOnUse"
       id="clipPath4224"><path
         d="m 122.853,951.5 30.647,0 0,-34.395 -30.647,0 0,34.395 z"
         id="path4226" /></clipPath><clipPath
       clipPathUnits="userSpaceOnUse"
       id="clipPath4244"><path
         d="m 188.853,941.5 30.647,0 0,-34.395 -30.647,0 0,34.395 z"
         id="path4246" /></clipPath><clipPath
       clipPathUnits="userSpaceOnUse"
       id="clipPath4264"><path
         d="m 249.853,941.5 30.647,0 0,-34.395 -30.647,0 0,34.395 z"
         id="path4266" /></clipPath><clipPath
       clipPathUnits="userSpaceOnUse"
       id="clipPath4280"><path
         d="m 0,1536 2048,0 L 2048,0 0,0 0,1536 z"
         id="path4282" /></clipPath><clipPath
       clipPathUnits="userSpaceOnUse"
       id="clipPath4296"><path
         d="m 1559.35,1313.59 110.5,0 0,-122.02 -110.5,0 0,122.02 z"
         id="path4298" /></clipPath><clipPath
       clipPathUnits="userSpaceOnUse"
       id="clipPath4312"><path
         d="m 1610.37,1351.76 49.6,0 0,-62.56 -49.6,0 0,62.56 z"
         id="path4314" /></clipPath><clipPath
       clipPathUnits="userSpaceOnUse"
       id="clipPath4336"><path
         d="m 362.812,1344.69 111.164,0 0,-119.41 -111.164,0 0,119.41 z"
         id="path4338" /></clipPath><clipPath
       clipPathUnits="userSpaceOnUse"
       id="clipPath4352"><path
         d="m 414.101,1391.91 42.049,0 0,-69.16 -42.049,0 0,69.16 z"
         id="path4354" /></clipPath><clipPath
       clipPathUnits="userSpaceOnUse"
       id="clipPath4368"><path
         d="m 0,1536 2048,0 L 2048,0 0,0 0,1536 z"
         id="path4370" /></clipPath><clipPath
       clipPathUnits="userSpaceOnUse"
       id="clipPath4408"><path
         d="m 925.334,1463.92 313.186,0 0,-311.53 -313.186,0 0,311.53 z"
         id="path4410" /></clipPath><clipPath
       clipPathUnits="userSpaceOnUse"
       id="clipPath4428"><path
         d="m 0,1536 2048,0 L 2048,0 0,0 0,1536 z"
         id="path4430" /></clipPath><clipPath
       clipPathUnits="userSpaceOnUse"
       id="clipPath8244"><path
         d="m 0,1536 2048,0 L 2048,0 0,0 0,1536 z"
         id="path8246" /></clipPath><clipPath
       clipPathUnits="userSpaceOnUse"
       id="clipPath8670"><path
         d="m 0,1536 2048,0 L 2048,0 0,0 0,1536 z"
         id="path8672" /></clipPath><clipPath
       clipPathUnits="userSpaceOnUse"
       id="clipPath8678"><path
         d="m 60.0376,1304.57 119.0554,0 0,-209.78 -119.0554,0 0,209.78 z"
         id="path8680" /></clipPath><clipPath
       clipPathUnits="userSpaceOnUse"
       id="clipPath8706"><path
         d="m 61.8003,1265.87 38.0488,0 0,-103.11 -38.0488,0 0,103.11 z"
         id="path8708" /></clipPath><clipPath
       clipPathUnits="userSpaceOnUse"
       id="clipPath8794"><path
         d="m 118.674,1228.21 30.767,0 0,-72.51 -30.767,0 0,72.51 z"
         id="path8796" /></clipPath><clipPath
       clipPathUnits="userSpaceOnUse"
       id="clipPath8832"><path
         d="m 37.548,1346.68 151.654,0 0,151.653 -151.654,0 0,-151.653 z"
         id="path8834" /></clipPath><clipPath
       clipPathUnits="userSpaceOnUse"
       id="clipPath8888"><path
         d="m 0,1536 2048,0 L 2048,0 0,0 0,1536 z"
         id="path8890" /></clipPath><clipPath
       clipPathUnits="userSpaceOnUse"
       id="clipPath8896"><path
         d="m 48.686,1488.27 141.732,0 0,-140.89 -141.732,0 0,140.89 z"
         id="path8898" /></clipPath></defs><sodipodi:namedview
     pagecolor="#ffffff"
     bordercolor="#666666"
     borderopacity="1"
     objecttolerance="10"
     gridtolerance="10"
     guidetolerance="10"
     inkscape:pageopacity="0"
     inkscape:pageshadow="2"
     inkscape:window-width="1600"
     inkscape:window-height="837"
     id="namedview4"
     showgrid="false"
     inkscape:zoom="0.3375"
     inkscape:cx="1280"
     inkscape:cy="960"
     inkscape:window-x="-8"
     inkscape:window-y="-8"
     inkscape:window-maximized="1"
     inkscape:current-layer="g10" /><g
     id="g10"
     inkscape:groupmode="layer"
     inkscape:label="screen__wald_cs5"
     transform="matrix(1.25,0,0,-1.25,0,1920)"><g
       id="g12719"><g
         transform="translate(312.7188,1331.1689)"
         id="g4324"><path
           inkscape:connector-curvature="0"
           id="path4326"
           style="fill:#dd3e65;fill-opacity:1;fill-rule:nonzero;stroke:none"
           d="m 0,0 c -0.877,-21.6 -6.495,-43.2 -4.742,-64 3.505,-46.4 -2.99,-97.6 8.402,-143.2 1.752,-4 2.629,-8.8 4.382,-12.8 5.257,15.2 -1.753,41.6 17.525,49.6 17.526,-15.2 14.021,-44 39.434,-55.2 12.268,18.4 -4.382,44 12.268,63.2 17.525,-16.8 22.784,-45.6 38.557,-64 13.145,20 -3.505,56.8 13.145,75.2 15.773,-19.2 11.392,-48 29.794,-68 11.392,15.2 9.639,45.6 10.516,64 13.144,-20.8 9.638,-48.8 29.793,-65.6 15.774,21.6 -3.505,56 7.011,79.2 14.021,-19.2 22.783,-65.6 47.32,-74.4 8.763,42.4 -11.392,83.2 -21.031,124 -8.763,36 -9.861,48.431 -5.48,86.831 2.629,23.2 4.618,54.533 9,77.732 3.505,24.801 19.667,31.492 -40.325,29.437 C 158.786,100.74 119.1,110.145 85.785,94 44.903,74.188 21.298,85.398 -4.115,62.198 -4.115,62.198 0.876,24 0,0" /></g><g
         transform="translate(311.2188,1331.1689)"
         id="g4328"><path
           inkscape:connector-curvature="0"
           id="path4330"
           style="fill:#ba0047;fill-opacity:1;fill-rule:nonzero;stroke:none"
           d="m 0,0 c -0.889,-18.952 -5.088,-37.619 -5.075,-56.627 0.007,-8.991 1.037,-18.011 1.29,-27.006 0.275,-9.733 0.259,-19.473 0.245,-29.208 -0.024,-18.405 -0.086,-36.817 1.242,-55.184 1.278,-17.693 3.717,-35.839 10.393,-52.374 0.544,-1.347 2.405,-1.501 2.893,0 5.149,15.826 -1.822,40.384 16.836,48.704 -0.605,0.078 -1.211,0.156 -1.817,0.235 8.83,-7.937 12.419,-19.292 16.993,-29.881 4.782,-11.072 11.552,-20.389 22.744,-25.555 0.761,-0.351 1.586,-0.204 2.052,0.539 12.186,19.409 -3.192,44.421 12.034,62.897 l -2.122,0 c 18.105,-17.838 22.409,-44.708 38.558,-64.001 0.642,-0.768 1.88,-0.457 2.356,0.304 6.57,10.52 5.955,23.594 5.574,35.513 -0.419,13.116 -1.859,28.712 7.335,39.384 l -2.121,0 c 8.208,-10.337 10.937,-23.366 14.267,-35.832 3.136,-11.739 7.336,-22.976 15.527,-32.169 0.693,-0.778 1.826,-0.435 2.356,0.304 6.116,8.524 8.035,19.181 9.19,29.395 1.326,11.739 1.009,23.579 1.531,35.362 -0.932,-0.253 -1.864,-0.505 -2.796,-0.757 12.841,-20.955 10.319,-48.886 30.029,-65.903 0.77,-0.665 1.777,-0.527 2.356,0.303 16.602,23.831 -3.794,53.998 7.01,79.2 l -2.59,0 c 9.163,-12.831 13.851,-28.653 20.521,-42.814 5.979,-12.693 13.852,-27.001 27.695,-32.275 0.725,-0.277 1.698,0.299 1.846,1.047 5.703,28.918 -1.404,57.43 -9.694,85.092 -7.762,25.902 -16.369,52.26 -18.767,79.343 -2.217,25.043 2.483,50.582 4.85,75.468 1.979,20.794 3.596,42.01 9.222,62.201 2.121,7.612 2.458,14.054 -6.405,16.484 -7.583,2.08 -16.048,1.694 -23.818,1.648 -14.115,-0.083 -28.107,-0.531 -42.223,0.131 -27.393,1.285 -55.729,3.523 -81.447,-7.946 C 75.394,90.369 62.931,85.905 49.294,83.2 39.349,81.228 29.24,79.999 19.555,76.893 11.775,74.397 4.756,70.321 -1.532,65.139 -2.994,63.933 -4.248,63.26 -4.01,61.38 -3.724,59.114 -3.46,56.846 -3.203,54.577 -1.154,36.515 0.583,18.194 0,0 -0.062,-1.936 2.938,-1.93 3,0 3.642,20.049 1.569,40.272 -0.858,60.155 c -0.078,0.637 -0.158,1.273 -0.239,1.908 0.005,-0.044 5.145,3.655 5.655,4.023 4.487,3.247 9.496,5.685 14.698,7.542 9.49,3.39 19.672,4.571 29.529,6.427 12.378,2.331 24.333,5.911 35.843,11.048 14.188,6.331 27.818,9.888 43.397,10.748 14.397,0.794 28.85,-0.289 43.229,-0.964 13.998,-0.658 27.898,-0.123 41.895,-0.041 7.557,0.044 15.936,0.4 23.208,-2.033 3.69,-1.234 4.532,-3.864 3.905,-7.456 -0.828,-4.746 -2.542,-9.328 -3.549,-14.042 -2.347,-10.988 -3.642,-22.27 -4.9,-33.425 -1.559,-13.835 -2.709,-27.712 -4.115,-41.563 -1.321,-13.014 -2.99,-25.981 -3.278,-39.075 -0.53,-24.106 5.563,-48.148 12.1,-71.17 9.946,-35.031 24.237,-70.681 16.939,-107.683 0.615,0.349 1.23,0.698 1.845,1.047 -14.166,5.397 -21.605,21.469 -27.5,34.337 -6.008,13.113 -10.476,27.545 -18.924,39.374 -0.572,0.801 -2.102,1.138 -2.59,0 -10.783,-25.153 9.278,-55.818 -7.011,-79.2 0.785,0.102 1.571,0.203 2.356,0.304 -19.354,16.71 -16.899,44.635 -29.559,65.296 -0.797,1.301 -2.73,0.725 -2.795,-0.757 -0.458,-10.344 -0.348,-20.698 -1.128,-31.029 -0.834,-11.034 -2.58,-23.01 -9.184,-32.214 0.786,0.101 1.571,0.202 2.356,0.303 -17.241,19.351 -13.893,47.976 -29.794,68.001 -0.483,0.609 -1.63,0.57 -2.121,0 -18.333,-21.28 0.778,-52.837 -13.379,-75.505 0.785,0.102 1.571,0.203 2.356,0.304 -16.157,19.302 -20.396,46.107 -38.557,64.001 -0.54,0.532 -1.599,0.635 -2.122,0 -6.878,-8.348 -8.576,-18.049 -8.385,-28.616 0.213,-11.84 2.55,-24.268 -4.117,-34.888 0.684,0.179 1.368,0.359 2.052,0.538 -11.932,5.507 -18.018,15.697 -22.902,27.382 -4.165,9.963 -7.996,20.185 -16.228,27.584 -0.547,0.492 -1.166,0.525 -1.817,0.235 -19.89,-8.87 -12.773,-33.769 -18.216,-50.497 l 2.893,0 c -13.617,33.725 -11.573,72.906 -11.525,108.6 0.025,18.17 -1.222,36.235 -1.538,54.374 C -2.405,-37.65 2.113,-18.917 3,0 3.091,1.935 0.09,1.926 0,0" /></g><g
         id="g4332"><g
           id="g4334" /><g
           id="g4340"><g
             style="opacity:0.39999396"
             id="g4342"
             clip-path="url(#clipPath4336)"><g
               id="g4344"
               transform="translate(473.2056,1279.8198)"><path
                 inkscape:connector-curvature="0"
                 id="path4346"
                 style="fill:#000000;fill-opacity:1;fill-rule:nonzero;stroke:none"
                 d="m 0,0 c -1.391,9.761 -1.533,16.272 -0.889,19.164 -0.045,0.585 0.434,1.464 0.434,1.464 1.466,2.021 1.657,12.16 0.353,24.227 -1.445,13.375 -0.557,19.126 -3.107,19.841 0,0 -2.631,0.302 -3.129,0.11 -6.476,-2.489 -14.364,-14.356 -17.834,-21.265 -1.773,-3.53 -6.917,-13.015 -6.917,-13.015 -6.051,2.564 -14.242,2.779 -21.783,1.988 -10.071,-1.057 -13.534,-0.946 -21.344,-5.993 0,0 -7.041,8.469 -9.341,11.562 -4.69,6.308 -15.265,16.305 -22.171,18.291 -0.596,0.171 -2.479,-0.101 -2.479,-0.101 -4.586,-0.345 -0.695,-6.939 0.332,-20.554 0.969,-12.85 3.201,-23.255 5.087,-23.981 l 0.005,-0.084 c 0,0 0.092,0.046 0.126,0.05 0.038,0.004 0.077,-0.015 0.115,-0.012 l -0.003,0.056 c 0,0 4.673,-6.831 4.673,-20.234 0,-22.517 22.507,-41.335 44.547,-45.929 3.368,-0.702 16.037,1.63 18.218,2.498 17.751,7.064 35.235,23.849 35.235,43.431 0,4.72 0.171,6.385 -0.128,8.486" /></g></g></g></g><g
         id="g4348"><g
           id="g4350" /><g
           id="g4356"><g
             style="opacity:0.39999396"
             id="g4358"
             clip-path="url(#clipPath4352)"><g
               id="g4360"
               transform="translate(445.1782,1344.9351)"><path
                 inkscape:connector-curvature="0"
                 id="path4362"
                 style="fill:#000000;fill-opacity:1;fill-rule:nonzero;stroke:none"
                 d="M 0,0 -17,-2.682 3.448,6.5 c 2.597,5.384 4.536,10.705 5.795,15.651 L -3.102,20.822 10.846,31.443 c 0.485,6.098 -0.426,11.029 -2.797,13.913 0,0 -0.428,1.368 -0.916,1.501 -0.392,0.319 -1.753,-0.13 -1.753,-0.13 -6.151,0.409 -14.517,-5.67 -22.051,-15.683 l 4.492,-17.224 -8.371,11.594 c -1.431,-2.267 -2.807,-4.672 -4.104,-7.197 -7.983,-15.544 -7.684,-32.36 -3.662,-40.406 C -20.186,-20.957 -7.692,-13.233 0,0" /></g></g></g></g></g></g></svg>