<?xml version="1.0" encoding="UTF-8" standalone="no"?>
<!-- Created with Inkscape (http://www.inkscape.org/) -->

<svg
   xmlns:dc="http://purl.org/dc/elements/1.1/"
   xmlns:cc="http://creativecommons.org/ns#"
   xmlns:rdf="http://www.w3.org/1999/02/22-rdf-syntax-ns#"
   xmlns:svg="http://www.w3.org/2000/svg"
   xmlns="http://www.w3.org/2000/svg"
   xmlns:sodipodi="http://sodipodi.sourceforge.net/DTD/sodipodi-0.dtd"
   xmlns:inkscape="http://www.inkscape.org/namespaces/inkscape"
   id="svg2"
   version="1.1"
   inkscape:version="0.48.2 r9819"
   width="2560"
   height="1920"
   xml:space="preserve"
   sodipodi:docname="flagleft.svg"><metadata
     id="metadata8"><rdf:RDF><cc:Work
         rdf:about=""><dc:format>image/svg+xml</dc:format><dc:type
           rdf:resource="http://purl.org/dc/dcmitype/StillImage" /><dc:title></dc:title></cc:Work></rdf:RDF></metadata><defs
     id="defs6"><clipPath
       clipPathUnits="userSpaceOnUse"
       id="clipPath18"><path
         d="m 0,1536 2048,0 L 2048,0 0,0 0,1536 z"
         id="path20" /></clipPath><clipPath
       clipPathUnits="userSpaceOnUse"
       id="clipPath30"><path
         d="m 0,1536 2048,0 L 2048,0 0,0 0,1536 z"
         id="path32" /></clipPath><clipPath
       clipPathUnits="userSpaceOnUse"
       id="clipPath1618"><path
         d="m 0,1536 2048,0 L 2048,0 0,0 0,1536 z"
         id="path1620" /></clipPath><clipPath
       clipPathUnits="userSpaceOnUse"
       id="clipPath1642"><path
         d="m 0,1536 2048,0 L 2048,0 0,0 0,1536 z"
         id="path1644" /></clipPath><clipPath
       clipPathUnits="userSpaceOnUse"
       id="clipPath1754"><path
         d="m 0,1536 2048,0 L 2048,0 0,0 0,1536 z"
         id="path1756" /></clipPath><clipPath
       clipPathUnits="userSpaceOnUse"
       id="clipPath7778"><path
         d="m 0,1536 2048,0 L 2048,0 0,0 0,1536 z"
         id="path7780" /></clipPath><clipPath
       clipPathUnits="userSpaceOnUse"
       id="clipPath7838"><path
         d="m 611.262,1266.5 30.647,0 0,-34.39 -30.647,0 0,34.39 z"
         id="path7840" /></clipPath><clipPath
       clipPathUnits="userSpaceOnUse"
       id="clipPath7870"><path
         d="m 767.558,1245.81 30.647,0 0,-34.39 -30.647,0 0,34.39 z"
         id="path7872" /></clipPath><clipPath
       clipPathUnits="userSpaceOnUse"
       id="clipPath7902"><path
         d="m 1107.38,1247.01 30.65,0 0,-34.39 -30.65,0 0,34.39 z"
         id="path7904" /></clipPath><clipPath
       clipPathUnits="userSpaceOnUse"
       id="clipPath7934"><path
         d="m 919.184,1250.86 30.647,0 0,-34.39 -30.647,0 0,34.39 z"
         id="path7936" /></clipPath><clipPath
       clipPathUnits="userSpaceOnUse"
       id="clipPath7966"><path
         d="m 1277.88,1248.99 25.91,0 0,-36.93 -25.91,0 0,36.93 z"
         id="path7968" /></clipPath><clipPath
       clipPathUnits="userSpaceOnUse"
       id="clipPath7998"><path
         d="m 1439.02,1258.03 25.91,0 0,-36.93 -25.91,0 0,36.93 z"
         id="path8000" /></clipPath><clipPath
       clipPathUnits="userSpaceOnUse"
       id="clipPath8162"><path
         d="m 0,1536 2048,0 L 2048,0 0,0 0,1536 z"
         id="path8164" /></clipPath><clipPath
       clipPathUnits="userSpaceOnUse"
       id="clipPath8198"><path
         d="m 1761.68,1506.2 30.64,0 0,-34.4 -30.64,0 0,34.4 z"
         id="path8200" /></clipPath><clipPath
       clipPathUnits="userSpaceOnUse"
       id="clipPath8218"><path
         d="m 1815.85,1526.96 30.65,0 0,-34.4 -30.65,0 0,34.4 z"
         id="path8220" /></clipPath><clipPath
       clipPathUnits="userSpaceOnUse"
       id="clipPath8238"><path
         d="m 1867.85,1550.5 30.65,0 0,-34.39 -30.65,0 0,34.39 z"
         id="path8240" /></clipPath><clipPath
       clipPathUnits="userSpaceOnUse"
       id="clipPath8258"><path
         d="m 1912.11,1476.5 30.65,0 0,-34.39 -30.65,0 0,34.39 z"
         id="path8260" /></clipPath><clipPath
       clipPathUnits="userSpaceOnUse"
       id="clipPath8278"><path
         d="m 1864.17,1450.46 30.65,0 0,-34.4 -30.65,0 0,34.4 z"
         id="path8280" /></clipPath><clipPath
       clipPathUnits="userSpaceOnUse"
       id="clipPath8298"><path
         d="m 1815.85,1427.5 30.65,0 0,-34.39 -30.65,0 0,34.39 z"
         id="path8300" /></clipPath><clipPath
       clipPathUnits="userSpaceOnUse"
       id="clipPath8318"><path
         d="m 1768.76,1411.38 30.65,0 0,-34.4 -30.65,0 0,34.4 z"
         id="path8320" /></clipPath><clipPath
       clipPathUnits="userSpaceOnUse"
       id="clipPath8338"><path
         d="m 1746.35,1363 30.65,0 0,-34.39 -30.65,0 0,34.39 z"
         id="path8340" /></clipPath><clipPath
       clipPathUnits="userSpaceOnUse"
       id="clipPath8358"><path
         d="m 1797.17,1339.78 30.65,0 0,-34.39 -30.65,0 0,34.39 z"
         id="path8360" /></clipPath><clipPath
       clipPathUnits="userSpaceOnUse"
       id="clipPath8378"><path
         d="m 1855.65,1330.5 30.65,0 0,-34.39 -30.65,0 0,34.39 z"
         id="path8380" /></clipPath><clipPath
       clipPathUnits="userSpaceOnUse"
       id="clipPath8398"><path
         d="m 1912.11,1323.5 30.65,0 0,-34.39 -30.65,0 0,34.39 z"
         id="path8400" /></clipPath><clipPath
       clipPathUnits="userSpaceOnUse"
       id="clipPath8418"><path
         d="m 1962.35,1323.5 30.65,0 0,-34.39 -30.65,0 0,34.39 z"
         id="path8420" /></clipPath><clipPath
       clipPathUnits="userSpaceOnUse"
       id="clipPath8438"><path
         d="m 1971.35,1266.5 30.65,0 0,-34.39 -30.65,0 0,34.39 z"
         id="path8440" /></clipPath><clipPath
       clipPathUnits="userSpaceOnUse"
       id="clipPath8458"><path
         d="m 1927.75,1235 30.65,0 0,-34.39 -30.65,0 0,34.39 z"
         id="path8460" /></clipPath><clipPath
       clipPathUnits="userSpaceOnUse"
       id="clipPath8478"><path
         d="m 1874.29,1206.5 30.64,0 0,-34.39 -30.64,0 0,34.39 z"
         id="path8480" /></clipPath><clipPath
       clipPathUnits="userSpaceOnUse"
       id="clipPath8498"><path
         d="m 1822.02,1177 30.64,0 0,-34.39 -30.64,0 0,34.39 z"
         id="path8500" /></clipPath><clipPath
       clipPathUnits="userSpaceOnUse"
       id="clipPath8518"><path
         d="m 1822.02,1008.75 30.64,0 0,-34.393 -30.64,0 0,34.393 z"
         id="path8520" /></clipPath><clipPath
       clipPathUnits="userSpaceOnUse"
       id="clipPath8538"><path
         d="m 1868.85,1043 30.65,0 0,-34.39 -30.65,0 0,34.39 z"
         id="path8540" /></clipPath><clipPath
       clipPathUnits="userSpaceOnUse"
       id="clipPath8558"><path
         d="m 1916.35,1076.89 30.65,0 0,-34.39 -30.65,0 0,34.39 z"
         id="path8560" /></clipPath><clipPath
       clipPathUnits="userSpaceOnUse"
       id="clipPath8578"><path
         d="m 1962.35,1110 30.65,0 0,-34.39 -30.65,0 0,34.39 z"
         id="path8580" /></clipPath><clipPath
       clipPathUnits="userSpaceOnUse"
       id="clipPath8598"><path
         d="m 2000.35,1142 30.65,0 0,-34.39 -30.65,0 0,34.39 z"
         id="path8600" /></clipPath><clipPath
       clipPathUnits="userSpaceOnUse"
       id="clipPath8618"><path
         d="m 1981.35,942.5 30.65,0 0,-34.395 -30.65,0 0,34.395 z"
         id="path8620" /></clipPath><clipPath
       clipPathUnits="userSpaceOnUse"
       id="clipPath8638"><path
         d="m 1932.85,920.5 30.65,0 0,-34.395 -30.65,0 0,34.395 z"
         id="path8640" /></clipPath><clipPath
       clipPathUnits="userSpaceOnUse"
       id="clipPath8658"><path
         d="m 1887.85,901.5 30.65,0 0,-34.395 -30.65,0 0,34.395 z"
         id="path8660" /></clipPath><clipPath
       clipPathUnits="userSpaceOnUse"
       id="clipPath8678"><path
         d="m 1836.85,882 30.65,0 0,-34.395 -30.65,0 0,34.395 z"
         id="path8680" /></clipPath><clipPath
       clipPathUnits="userSpaceOnUse"
       id="clipPath8718"><path
         d="m 186.853,1503.5 30.647,0 0,-34.39 -30.647,0 0,34.39 z"
         id="path8720" /></clipPath><clipPath
       clipPathUnits="userSpaceOnUse"
       id="clipPath8738"><path
         d="m 122.353,1531 30.647,0 0,-34.39 -30.647,0 0,34.39 z"
         id="path8740" /></clipPath><clipPath
       clipPathUnits="userSpaceOnUse"
       id="clipPath8758"><path
         d="m 63.3525,1546.39 30.6475,0 0,-34.39 -30.6475,0 0,34.39 z"
         id="path8760" /></clipPath><clipPath
       clipPathUnits="userSpaceOnUse"
       id="clipPath8778"><path
         d="m 195.349,1385.5 30.647,0 0,-34.39 -30.647,0 0,34.39 z"
         id="path8780" /></clipPath><clipPath
       clipPathUnits="userSpaceOnUse"
       id="clipPath8798"><path
         d="m 147.6,1359.5 30.647,0 0,-34.39 -30.647,0 0,34.39 z"
         id="path8800" /></clipPath><clipPath
       clipPathUnits="userSpaceOnUse"
       id="clipPath8818"><path
         d="m 79.3525,1332.47 30.6475,0 0,-34.39 -30.6475,0 0,34.39 z"
         id="path8820" /></clipPath><clipPath
       clipPathUnits="userSpaceOnUse"
       id="clipPath8838"><path
         d="m 84.8525,1207.3 30.6475,0 0,-34.39 -30.6475,0 0,34.39 z"
         id="path8840" /></clipPath><clipPath
       clipPathUnits="userSpaceOnUse"
       id="clipPath8858"><path
         d="m 147.6,1193.5 30.647,0 0,-34.39 -30.647,0 0,34.39 z"
         id="path8860" /></clipPath><clipPath
       clipPathUnits="userSpaceOnUse"
       id="clipPath8878"><path
         d="m 219.493,1184.98 30.647,0 0,-34.39 -30.647,0 0,34.39 z"
         id="path8880" /></clipPath><clipPath
       clipPathUnits="userSpaceOnUse"
       id="clipPath8898"><path
         d="m 223.353,1039.5 30.647,0 0,-34.39 -30.647,0 0,34.39 z"
         id="path8900" /></clipPath><clipPath
       clipPathUnits="userSpaceOnUse"
       id="clipPath8918"><path
         d="m 164.125,1058.5 30.647,0 0,-34.39 -30.647,0 0,34.39 z"
         id="path8920" /></clipPath><clipPath
       clipPathUnits="userSpaceOnUse"
       id="clipPath8938"><path
         d="m 103.853,1075.7 30.647,0 0,-34.4 -30.647,0 0,34.4 z"
         id="path8940" /></clipPath><clipPath
       clipPathUnits="userSpaceOnUse"
       id="clipPath8958"><path
         d="m 52.8213,1104.77 30.6475,0 0,-34.4 -30.6475,0 0,34.4 z"
         id="path8960" /></clipPath><clipPath
       clipPathUnits="userSpaceOnUse"
       id="clipPath8978"><path
         d="m 67.7275,979.697 30.6475,0 0,-34.394 -30.6475,0 0,34.394 z"
         id="path8980" /></clipPath><clipPath
       clipPathUnits="userSpaceOnUse"
       id="clipPath8998"><path
         d="m 122.853,951.5 30.647,0 0,-34.395 -30.647,0 0,34.395 z"
         id="path9000" /></clipPath><clipPath
       clipPathUnits="userSpaceOnUse"
       id="clipPath9018"><path
         d="m 188.853,941.5 30.647,0 0,-34.395 -30.647,0 0,34.395 z"
         id="path9020" /></clipPath><clipPath
       clipPathUnits="userSpaceOnUse"
       id="clipPath9038"><path
         d="m 249.853,941.5 30.647,0 0,-34.395 -30.647,0 0,34.395 z"
         id="path9040" /></clipPath><clipPath
       clipPathUnits="userSpaceOnUse"
       id="clipPath9054"><path
         d="m 0,1536 2048,0 L 2048,0 0,0 0,1536 z"
         id="path9056" /></clipPath><clipPath
       clipPathUnits="userSpaceOnUse"
       id="clipPath9070"><path
         d="m 1559.35,1331.59 110.5,0 0,-122.25 -110.5,0 0,122.25 z"
         id="path9072" /></clipPath><clipPath
       clipPathUnits="userSpaceOnUse"
       id="clipPath9094"><path
         d="m 362.812,1360.69 111.164,0 0,-120.36 -111.164,0 0,120.36 z"
         id="path9096" /></clipPath><clipPath
       clipPathUnits="userSpaceOnUse"
       id="clipPath9110"><path
         d="m 0,1536 2048,0 L 2048,0 0,0 0,1536 z"
         id="path9112" /></clipPath><clipPath
       clipPathUnits="userSpaceOnUse"
       id="clipPath9198"><path
         d="m 0,1536 2048,0 L 2048,0 0,0 0,1536 z"
         id="path9200" /></clipPath><clipPath
       clipPathUnits="userSpaceOnUse"
       id="clipPath9238"><path
         d="m 863.168,1356.92 391.482,0 0,-389.414 -391.482,0 0,389.414 z"
         id="path9240" /></clipPath><clipPath
       clipPathUnits="userSpaceOnUse"
       id="clipPath9254"><path
         d="m 0,1536 2048,0 L 2048,0 0,0 0,1536 z"
         id="path9256" /></clipPath><clipPath
       clipPathUnits="userSpaceOnUse"
       id="clipPath9294"><path
         d="m 925.334,1463.92 313.186,0 0,-311.53 -313.186,0 0,311.53 z"
         id="path9296" /></clipPath><clipPath
       clipPathUnits="userSpaceOnUse"
       id="clipPath9314"><path
         d="m 0,1536 2048,0 L 2048,0 0,0 0,1536 z"
         id="path9316" /></clipPath><clipPath
       clipPathUnits="userSpaceOnUse"
       id="clipPath9594"><path
         d="m 0,1536 2048,0 L 2048,0 0,0 0,1536 z"
         id="path9596" /></clipPath></defs><sodipodi:namedview
     pagecolor="#ffffff"
     bordercolor="#666666"
     borderopacity="1"
     objecttolerance="10"
     gridtolerance="10"
     guidetolerance="10"
     inkscape:pageopacity="0"
     inkscape:pageshadow="2"
     inkscape:window-width="2560"
     inkscape:window-height="1308"
     id="namedview4"
     showgrid="false"
     inkscape:zoom="0.3375"
     inkscape:cx="1280"
     inkscape:cy="1413.0211"
     inkscape:window-x="0"
     inkscape:window-y="22"
     inkscape:window-maximized="1"
     inkscape:current-layer="g10" /><g
     id="g10"
     inkscape:groupmode="layer"
     inkscape:label="screen__wald2_cs5"
     transform="matrix(1.25,0,0,-1.25,0,1920)"><g
       id="g17599"><g
         transform="translate(1625.5586,1372.3789)"
         id="g9058"><path
           inkscape:connector-curvature="0"
           id="path9060"
           style="fill:#dd3e65;fill-opacity:1;fill-rule:nonzero;stroke:none"
           d="m 0,0 c 20.999,-7.5 37.498,-7.5 59.997,-9 28.499,-3 23.633,-8.329 31.499,-32.998 10.945,-34.324 12.82,-80.527 14,-110.994 1.436,-37.078 11.498,-89.996 8.498,-127.494 0,-4.5 1.5,-10.499 1.5,-14.999 -19.499,1.5 -31.498,44.998 -38.998,61.497 -4.5,-23.999 0,-49.498 3,-73.496 -25.499,11.999 -41.998,68.996 -53.997,92.995 -7.5,-12 10.499,-86.996 -10.5,-82.496 -16.499,4.5 -31.498,61.497 -35.998,74.996 -10.499,-23.999 -3,-52.497 -7.499,-77.996 -25.499,16.499 -31.499,68.997 -37.498,95.995 -13.5,-19.499 -4.5,-65.996 -9,-91.495 -16.499,25.499 -16.499,61.497 -17.999,88.495 -16.499,-16.499 -31.499,-49.497 -38.999,-67.496 -1.041,56.995 0.002,103.495 7.501,158.992 6,52.497 14.206,88.053 4.499,154.492 0,0 82.496,-25.498 119.994,-38.998" /></g><g
         transform="translate(1625.1602,1370.9326)"
         id="g9062"><path
           inkscape:connector-curvature="0"
           id="path9064"
           style="fill:#ba0047;fill-opacity:1;fill-rule:nonzero;stroke:none"
           d="m 0,0 c 12.835,-4.484 25.992,-6.655 39.508,-7.72 11.95,-0.941 24.621,-0.354 36.133,-4.164 6.758,-2.237 8.887,-7.78 10.632,-14.137 2.871,-10.458 6.176,-20.819 8.586,-31.395 6.01,-26.372 7.761,-53.648 8.981,-80.599 1.158,-25.566 3.733,-50.835 6.381,-76.285 1.417,-13.618 2.63,-27.266 3.088,-40.954 0.217,-6.518 0.185,-13.043 -0.136,-19.557 -0.323,-6.561 1.022,-12.701 1.22,-19.228 l 1.5,1.5 c -12.186,1.306 -19.222,16.97 -23.752,26.584 -5.252,11.146 -8.916,22.939 -13.952,34.17 -0.519,1.159 -2.522,0.873 -2.741,-0.358 -4.376,-24.626 -0.149,-49.388 2.947,-73.895 0.751,0.432 1.504,0.863 2.256,1.295 -16.014,7.865 -24.923,27.34 -32.083,42.659 -7.647,16.363 -13.365,33.609 -21.376,49.798 -0.508,1.028 -2.053,0.924 -2.589,0 -2.228,-3.833 -2.117,-8.98 -2.161,-13.261 -0.078,-7.742 0.577,-15.497 1.08,-23.217 0.539,-8.254 1.066,-16.52 0.968,-24.795 -0.07,-5.891 -0.092,-12.96 -3.23,-18.173 -7.701,-12.794 -22.988,21.103 -24.736,25.274 -6.32,15.08 -10.562,30.822 -15.678,46.314 -0.499,1.512 -2.333,1.334 -2.893,0 -10.419,-24.825 -3.209,-52.15 -7.499,-77.996 l 2.203,0.897 c -14.596,9.762 -21.079,28.336 -25.739,44.431 -4.816,16.638 -7.356,33.778 -11.069,50.667 -0.296,1.348 -2.069,1.372 -2.742,0.359 -7.965,-11.994 -7.962,-28.283 -8.074,-42.133 -0.132,-16.468 1.657,-33.391 -1.077,-49.721 0.914,0.119 1.827,0.239 2.741,0.358 -16.393,25.938 -16.183,58.143 -17.794,87.739 -0.069,1.267 -1.602,2.037 -2.56,1.06 -18.273,-18.625 -29.456,-44.402 -39.385,-68.158 0.982,-0.133 1.964,-0.266 2.946,-0.399 -0.513,28.756 -0.536,57.521 0.827,86.256 1.327,27.956 4.54,55.662 7.947,83.423 2.709,22.068 5.922,44.081 7.168,66.298 1.463,26.062 -0.276,52.096 -3.995,77.906 -0.616,-0.615 -1.23,-1.23 -1.845,-1.845 C -79.838,26.583 -39.563,14.209 0,0 c 1.825,-0.656 2.604,2.244 0.797,2.893 -39.563,14.209 -79.838,26.584 -119.994,38.998 -1.206,0.373 -1.997,-0.787 -1.845,-1.846 3.685,-25.569 5.24,-51.296 3.888,-77.108 -1.164,-22.212 -4.44,-44.244 -7.168,-66.298 -3.435,-27.762 -6.565,-55.469 -7.947,-83.423 -1.419,-28.727 -1.34,-57.507 -0.827,-86.256 0.033,-1.811 2.325,-1.888 2.947,-0.399 9.717,23.25 20.739,48.615 38.613,66.835 l -2.561,1.061 c 1.638,-30.113 1.524,-62.862 18.204,-89.253 0.631,-0.998 2.513,-1.005 2.742,0.358 2.547,15.214 1.281,30.921 1.184,46.267 -0.093,14.545 -0.73,32.232 7.664,44.87 -0.914,0.12 -1.827,0.239 -2.741,0.359 3.905,-17.759 6.633,-35.732 11.811,-53.199 4.777,-16.114 11.846,-33.975 26.377,-43.693 0.752,-0.503 2.048,-0.036 2.203,0.896 4.283,25.807 -2.888,53.249 7.499,77.997 l -2.893,0 c 5.119,-15.501 9.442,-31.194 15.678,-46.315 3.189,-7.73 6.77,-15.52 11.865,-22.202 2.918,-3.828 7.15,-8.139 12.385,-7.733 10.754,0.834 9.665,20.328 9.617,27.361 -0.106,15.769 -2.57,31.523 -1.986,47.294 0.105,2.849 0.209,6.203 1.68,8.736 l -2.589,0 c 8.399,-16.975 14.402,-35.063 22.501,-52.192 7.112,-15.046 16.323,-33.626 32.034,-41.341 0.895,-0.44 2.412,0.067 2.257,1.295 -3.056,24.189 -7.374,48.785 -3.054,73.097 -0.914,-0.119 -1.827,-0.239 -2.741,-0.358 5.701,-12.718 9.808,-26.055 16.075,-38.542 4.874,-9.712 12.213,-22.411 24.218,-23.698 0.797,-0.086 1.522,0.747 1.5,1.5 -0.181,5.998 -1.702,11.78 -1.302,17.805 0.429,6.459 0.413,12.946 0.263,19.415 -0.32,13.649 -1.583,27.272 -2.961,40.848 -2.594,25.533 -5.381,50.883 -6.49,76.534 -1.131,26.153 -2.98,52.411 -8.144,78.117 -2.278,11.337 -5.96,22.244 -8.881,33.41 -1.44,5.503 -2.75,11.597 -7.192,15.531 C 75.35,-5.884 62.152,-6.143 53.104,-5.597 35.247,-4.519 17.807,-3.05 0.797,2.893 -1.034,3.533 -1.814,0.634 0,0" /></g><g
         id="g9066"><g
           id="g9068" /><g
           id="g9074"><g
             style="opacity:0.39999396"
             id="g9076"
             clip-path="url(#clipPath9070)"><g
               id="g9078"
               transform="translate(1659.2227,1255.1699)"><path
                 inkscape:connector-curvature="0"
                 id="path9080"
                 style="fill:#000000;fill-opacity:1;fill-rule:nonzero;stroke:none"
                 d="m 0,0 c 0.55,9.844 1.686,16.257 2.885,18.966 0.07,0.583 0.713,1.351 0.713,1.351 1.833,1.695 4.007,11.599 5.092,23.688 1.205,13.4 3.203,18.865 0.841,20.066 0,0 -2.52,0.811 -3.047,0.721 -6.838,-1.172 -16.897,-11.264 -21.654,-17.358 -2.432,-3.114 -9.334,-11.408 -9.334,-11.408 -5.43,3.7 -13.42,5.516 -20.971,6.218 -10.083,0.937 -13.458,1.725 -22.104,-1.694 0,0 -5.244,9.684 -6.895,13.169 -3.362,7.104 -11.774,18.98 -18.155,22.28 -0.552,0.285 -2.451,0.387 -2.451,0.387 -4.566,0.561 -2.043,-6.668 -3.703,-20.22 -1.568,-12.791 -1.418,-23.432 0.289,-24.513 l -0.012,-0.083 c 0,0 0.1,0.026 0.134,0.023 0.038,-0.003 0.073,-0.029 0.11,-0.033 l 0.008,0.055 c 0,0 3.244,-7.614 0.618,-20.758 -5.087,-25.454 12.302,-50.387 38.839,-55.69 26.537,-5.304 52.174,11.032 57.261,36.486 C -0.611,-3.718 -0.117,-2.119 0,0" /></g></g></g></g></g></g></svg>