<?xml version="1.0" encoding="UTF-8" standalone="no"?>
<!-- Created with Inkscape (http://www.inkscape.org/) -->

<svg
   xmlns:dc="http://purl.org/dc/elements/1.1/"
   xmlns:cc="http://creativecommons.org/ns#"
   xmlns:rdf="http://www.w3.org/1999/02/22-rdf-syntax-ns#"
   xmlns:svg="http://www.w3.org/2000/svg"
   xmlns="http://www.w3.org/2000/svg"
   xmlns:sodipodi="http://sodipodi.sourceforge.net/DTD/sodipodi-0.dtd"
   xmlns:inkscape="http://www.inkscape.org/namespaces/inkscape"
   id="svg2"
   version="1.1"
   inkscape:version="0.48.2 r9819"
   width="135.89"
   height="135.89"
   xml:space="preserve"
   sodipodi:docname="TierIcons.pdf"><metadata
     id="metadata8"><rdf:RDF><cc:Work
         rdf:about=""><dc:format>image/svg+xml</dc:format><dc:type
           rdf:resource="http://purl.org/dc/dcmitype/StillImage" /><dc:title></dc:title></cc:Work></rdf:RDF></metadata><defs
     id="defs6"><clipPath
       clipPathUnits="userSpaceOnUse"
       id="clipPath18"><path
         d="M 0,768 1024,768 1024,0 0,0 0,768 z"
         id="path20"
         inkscape:connector-curvature="0" /></clipPath><clipPath
       clipPathUnits="userSpaceOnUse"
       id="clipPath30"><path
         d="m 57.707,605.008 73.691,0 0,-96.833 -73.691,0 0,96.833 z"
         id="path32"
         inkscape:connector-curvature="0" /></clipPath><clipPath
       clipPathUnits="userSpaceOnUse"
       id="clipPath54"><path
         d="m 83.6484,584.387 34.6526,0 0,-56.905 -34.6526,0 0,56.905 z"
         id="path56"
         inkscape:connector-curvature="0" /></clipPath><clipPath
       clipPathUnits="userSpaceOnUse"
       id="clipPath78"><path
         d="m 86.0508,537.5 40.6292,0 0,-18.336 -40.6292,0 0,18.336 z"
         id="path80"
         inkscape:connector-curvature="0" /></clipPath><clipPath
       clipPathUnits="userSpaceOnUse"
       id="clipPath98"><path
         d="m 177.707,605.008 73.691,0 0,-96.833 -73.691,0 0,96.833 z"
         id="path100"
         inkscape:connector-curvature="0" /></clipPath><clipPath
       clipPathUnits="userSpaceOnUse"
       id="clipPath122"><path
         d="m 203.648,584.387 34.653,0 0,-56.905 -34.653,0 0,56.905 z"
         id="path124"
         inkscape:connector-curvature="0" /></clipPath><clipPath
       clipPathUnits="userSpaceOnUse"
       id="clipPath146"><path
         d="m 206.051,537.5 40.629,0 0,-18.336 -40.629,0 0,18.336 z"
         id="path148"
         inkscape:connector-curvature="0" /></clipPath><clipPath
       clipPathUnits="userSpaceOnUse"
       id="clipPath166"><path
         d="m 297.707,605.008 73.691,0 0,-96.833 -73.691,0 0,96.833 z"
         id="path168"
         inkscape:connector-curvature="0" /></clipPath><clipPath
       clipPathUnits="userSpaceOnUse"
       id="clipPath190"><path
         d="m 323.648,584.387 34.653,0 0,-56.905 -34.653,0 0,56.905 z"
         id="path192"
         inkscape:connector-curvature="0" /></clipPath><clipPath
       clipPathUnits="userSpaceOnUse"
       id="clipPath214"><path
         d="m 326.051,537.5 40.629,0 0,-18.336 -40.629,0 0,18.336 z"
         id="path216"
         inkscape:connector-curvature="0" /></clipPath><clipPath
       clipPathUnits="userSpaceOnUse"
       id="clipPath234"><path
         d="m 417.707,605.008 73.691,0 0,-96.833 -73.691,0 0,96.833 z"
         id="path236"
         inkscape:connector-curvature="0" /></clipPath><clipPath
       clipPathUnits="userSpaceOnUse"
       id="clipPath258"><path
         d="m 443.648,584.387 34.653,0 0,-56.905 -34.653,0 0,56.905 z"
         id="path260"
         inkscape:connector-curvature="0" /></clipPath><clipPath
       clipPathUnits="userSpaceOnUse"
       id="clipPath282"><path
         d="m 446.051,537.5 40.629,0 0,-18.336 -40.629,0 0,18.336 z"
         id="path284"
         inkscape:connector-curvature="0" /></clipPath></defs><sodipodi:namedview
     pagecolor="#ffffff"
     bordercolor="#666666"
     borderopacity="1"
     objecttolerance="10"
     gridtolerance="10"
     guidetolerance="10"
     inkscape:pageopacity="0"
     inkscape:pageshadow="2"
     inkscape:window-width="1600"
     inkscape:window-height="837"
     id="namedview4"
     showgrid="false"
     fit-margin-top="0"
     fit-margin-left="0"
     fit-margin-right="0"
     fit-margin-bottom="0"
     inkscape:zoom="0.92571429"
     inkscape:cx="-57.963215"
     inkscape:cy="89.643633"
     inkscape:window-x="-8"
     inkscape:window-y="-8"
     inkscape:window-maximized="1"
     inkscape:current-layer="g10" /><g
     id="g10"
     inkscape:groupmode="layer"
     inkscape:label="TierIcons"
     transform="matrix(1.25,0,0,-1.25,-697.96322,640.56735)"><g
       id="g3606"
       transform="translate(150.37037,-99.382716)"><g
         transform="translate(492.5898,525.6006)"
         id="g226"><path
           inkscape:connector-curvature="0"
           id="path228"
           style="fill:#ffffff;fill-opacity:1;fill-rule:nonzero;stroke:none"
           d="m 0,0 c -0.965,1.704 -1.707,3.847 -2.49,6.114 -1.737,5.018 -3.688,10.663 -8.791,12.037 -0.459,2.638 -0.321,5.489 -0.176,8.49 0.144,2.989 0.295,6.081 -0.201,8.995 -1.184,6.966 -3.815,13.904 -5.973,19.17 -1.861,4.547 -4.545,9.382 -10.322,10.767 -2.52,0.603 -5.195,0.278 -7.442,-0.881 -3.57,1.926 -7.474,1.97 -11.109,0.09 -0.353,-0.182 -0.693,-0.384 -1.027,-0.608 -2.317,0.659 -4.735,0.521 -7.42,-0.414 -2.117,3.566 -4.393,7.339 -6.809,11.094 l -0.566,0.887 c -2.656,4.179 -6.672,10.494 -11.592,10.494 -2.215,0 -4.25,-1.258 -6.051,-3.741 -4.627,-6.378 -0.043,-16.396 2.99,-23.026 0.301,-0.658 0.584,-1.275 0.834,-1.841 0.065,-0.146 0.131,-0.294 0.202,-0.446 -3.153,-0.488 -6.073,-2.383 -7.571,-5.021 -1.507,-2.656 -1.429,-5.646 0.225,-8.42 2.131,-3.576 5.119,-6.507 8.008,-9.342 l 0.927,-0.911 c 1.34,-1.324 2.27,-3.06 3.254,-4.897 0.996,-1.862 2.028,-3.789 3.582,-5.466 3.09,-3.336 7.358,-5.98 10.393,-7.611 0.477,-0.256 0.941,-0.452 1.391,-0.641 1.048,-0.442 1.662,-0.722 2.052,-1.344 0.705,-1.116 1.327,-2.622 1.852,-4.485 -1.076,-1.185 -1.647,-2.696 -1.518,-4.124 0.278,-3.073 0.799,-6.16 1.301,-9.147 0.678,-4.016 1.379,-8.169 1.465,-12.23 0.068,-3.262 2.789,-6.018 5.939,-6.018 0.588,0 1.174,0.098 1.741,0.291 l 39.39,13.414 c 1.27,0.433 2.321,1.208 3.041,2.242 C 1.061,-4.62 1.236,-2.185 0,0" /></g><g
         id="g230"><g
           id="g232" /><g
           id="g238"><g
             style="opacity:0.19999701"
             id="g240"
             clip-path="url(#clipPath234)"><g
               id="g242"
               transform="translate(464.5137,575.9355)"><path
                 inkscape:connector-curvature="0"
                 id="path244"
                 style="fill:#1b0000;fill-opacity:1;fill-rule:nonzero;stroke:none"
                 d="M 0,0 C -0.207,0.355 -0.447,0.862 -0.723,1.442 -0.463,0.979 -0.213,0.498 0,0 m 26.166,-54.592 0.719,0.246 c -2.697,4.15 -2.408,9.647 -5.516,13.625 -2.445,2.955 -2.18,2.215 -4.928,1.55 -0.296,0.65 -0.586,1.321 -0.808,2.024 -1.867,5.227 -0.141,12.18 -0.699,17.78 -0.561,5.414 -3.922,15.26 -5.975,20.486 -0.932,2.24 -3.24,8.73 -8.674,7.1 -2.844,-0.854 -3.277,-1.998 -2.812,-3.406 -1.596,2.473 -3.953,4.687 -7.6,3.82 -5.297,-1.26 -1.961,-3.36 -0.514,-6.953 -2.613,2.799 -4.17,6.444 -8.447,5.693 -7.699,-1.353 -0.605,-7.141 -1.539,-10.5 -3.826,6.3 -18.443,32.199 -21.141,32.199 -7.839,-5.319 12.45,-35.91 13.395,-43.446 -2.428,0.934 -2.24,4.351 -4.293,6.03 -1.494,1.119 -9.522,14.597 -14.141,5.076 3.641,-6.58 10.465,-11.056 11.153,-13.345 2.008,-6.674 7.466,-10.081 11.386,-12.694 3.92,-2.8 6.534,-1.867 8.401,-6.72 0.933,-2.241 1.679,-4.667 2.426,-6.907 0.263,-0.852 0.408,-1.821 0.529,-2.806 -1.473,-0.336 -2.365,-0.541 -2.365,-0.541 0.261,-3.49 2.798,-18.108 2.771,-21.48 l 30.281,10.313 8.391,2.856 z" /></g></g></g></g><g
         transform="translate(418.7461,606.0078)"
         id="g246"><path
           inkscape:connector-curvature="0"
           id="path248"
           style="fill:#d3aa89;fill-opacity:1;fill-rule:nonzero;stroke:none"
           d="m 0,0 c 2.697,0 17.314,-25.899 21.141,-32.199 0.933,3.359 -6.161,9.146 1.539,10.5 4.277,0.751 5.834,-2.894 8.447,-5.694 -1.447,3.594 -4.783,5.694 0.514,6.954 6.379,1.517 8.82,-6.393 10.127,-8.633 -1.588,3.732 -5.315,6.539 0.285,8.218 5.433,1.63 7.742,-4.859 8.674,-7.099 2.052,-5.227 5.414,-15.072 5.974,-20.486 0.559,-5.6 -1.168,-12.553 0.699,-17.781 1.12,-3.546 3.967,-6.346 0.793,-9.146 -2.798,-2.613 -9.519,-1.12 -13.066,-1.493 -5.227,-0.373 -10.453,-0.934 -15.307,-2.987 -0.933,2.053 -0.746,5.413 -1.494,7.84 -0.746,2.239 -1.492,4.666 -2.426,6.906 -1.867,4.854 -4.48,3.92 -8.4,6.721 -3.92,2.612 -9.379,6.02 -11.387,12.693 -0.687,2.29 -7.511,6.766 -11.152,13.346 4.619,9.521 12.646,-3.957 14.141,-5.076 2.052,-1.68 1.865,-5.097 4.293,-6.03 C 12.449,-35.91 -7.84,-5.319 0,0" /></g><g
         transform="translate(418.3477,604.5615)"
         id="g250"><path
           inkscape:connector-curvature="0"
           id="path252"
           style="fill:#ce9159;fill-opacity:1;fill-rule:nonzero;stroke:none"
           d="m 0,0 c 1.439,-0.277 3.123,-3.614 3.878,-4.698 2.216,-3.185 4.244,-6.503 6.268,-9.811 3.438,-5.624 6.691,-11.358 10.098,-17.001 0.835,-1.384 2.622,-0.65 2.795,0.757 0.208,1.692 -0.441,3.148 -1.101,4.671 -0.34,0.689 -0.623,1.4 -0.847,2.134 2.202,2.703 4.263,2.941 6.184,0.715 1.188,-1.105 2.122,-2.554 3.19,-3.774 1.198,-1.37 3.027,0.371 2.355,1.818 -0.585,1.259 -1.292,2.427 -1.969,3.637 1.065,1.211 2.392,1.568 3.981,1.071 0.992,-0.366 1.823,-0.943 2.492,-1.73 1.668,-1.67 2.452,-4.132 3.547,-6.172 0.923,-1.721 3.418,-0.21 2.59,1.514 -0.471,0.981 -0.988,1.908 -1.543,2.843 -2.125,3.578 3.256,3.706 5.171,1.842 2.029,-1.975 2.913,-5.515 3.855,-8.089 2.785,-7.606 5.035,-15.057 4.641,-23.218 -0.167,-3.458 -0.264,-6.797 0.343,-10.215 0.267,-1.509 0.992,-2.968 1.618,-4.356 1.835,-4.07 -0.739,-5.734 -4.535,-5.937 -8.05,-0.43 -15.45,0.039 -23.191,-2.954 0.616,-0.349 1.23,-0.698 1.845,-1.047 -2.177,6.396 -1.404,15.817 -8.04,19.772 -3.279,1.955 -6.539,3.457 -9.588,5.864 -3.545,2.797 -4.454,6.382 -6.81,9.914 -1.687,2.529 -4.38,4.536 -6.451,6.742 -0.676,0.72 -4.17,3.97 -3.527,5.13 1.647,2.974 4.3,0.953 5.976,-0.529 1.791,-1.585 3.19,-3.577 4.711,-5.407 1.863,-2.242 2.525,-5.227 5.1,-6.781 1.228,-0.742 2.402,0.469 2.203,1.694 -1.115,6.891 -5.805,13.728 -8.759,19.935 -1.902,3.999 -10.046,18.105 -5.021,22.052 1.52,1.194 -0.618,3.301 -2.121,2.121 -5.521,-4.335 -0.152,-14.99 1.859,-19.752 2.086,-4.934 4.521,-9.718 6.861,-14.534 1.624,-3.344 3.687,-6.905 4.289,-10.62 0.734,0.565 1.468,1.129 2.203,1.694 -1.929,1.164 -1.83,3.474 -3.233,4.982 -0.854,0.919 -1.667,1.82 -2.451,2.803 -1.901,2.383 -3.931,4.717 -6.639,6.194 -1.851,1.01 -4.479,1 -6.056,-0.545 -3.264,-3.201 -2.177,-4.684 0.385,-8.075 2.495,-3.302 6.16,-5.739 8.444,-9.163 1.166,-1.748 1.663,-3.986 2.904,-5.792 1.345,-1.956 3.176,-3.526 5.024,-4.983 3.22,-2.542 7.294,-3.859 10.413,-6.367 2.306,-1.854 3.04,-6.583 3.937,-9.307 0.837,-2.543 0.626,-5.289 1.494,-7.84 0.243,-0.713 1.05,-1.355 1.845,-1.048 6.266,2.423 13.014,3.171 19.696,2.887 3.081,-0.131 8.952,-0.312 10.498,3.334 1.931,4.56 -1.93,8.829 -2.357,13.451 -0.576,6.224 0.634,12.131 -0.789,18.33 -1.231,5.36 -3.112,10.614 -5.094,15.736 -1.151,2.977 -2.548,5.659 -5.184,7.555 -2.569,1.847 -6.766,0.77 -8.73,-1.415 -2.182,-2.428 1.202,-6.307 2.214,-8.415 0.863,0.505 1.727,1.009 2.59,1.514 -2.402,4.478 -4.435,9.438 -10.272,9.554 -1.583,0.031 -4.789,-0.81 -5.317,-2.658 -0.703,-2.457 1.379,-4.623 2.358,-6.73 0.786,0.605 1.571,1.211 2.356,1.817 -3.752,4.292 -6.571,7.798 -12.609,5.167 -4.807,-2.095 0.431,-8.037 0.062,-11.034 0.932,0.253 1.863,0.505 2.795,0.757 -3.994,6.616 -7.813,13.333 -11.885,19.902 C 8.932,-6.839 6.867,-3.599 4.561,-0.541 3.654,0.662 2.416,2.582 0.797,2.893 -1.093,3.256 -1.898,0.364 0,0" /></g><g
         id="g254"><g
           id="g256" /><g
           id="g262"><g
             style="opacity:0.130005"
             id="g264"
             clip-path="url(#clipPath258)"><g
               id="g266"
               transform="translate(475.7734,538.3652)"><path
                 inkscape:connector-curvature="0"
                 id="path268"
                 style="fill:#1b0000;fill-opacity:1;fill-rule:nonzero;stroke:none"
                 d="m 0,0 c -1.867,5.227 -0.805,13.664 -1.26,19.273 -0.537,6.603 -3.709,14.887 -5.763,20.114 -0.754,1.809 -2.12,5.799 -5.088,6.634 C -5.51,35.442 -4.16,7.873 -4.744,6.61 -5.467,5.054 -8.447,3.943 -14.004,3.803 -16.391,3.742 -27.549,5.877 -32.125,5.588 -31.6,5.256 -30.199,2.771 -29.236,0 c 0.82,-2.359 1.488,-4.648 1.537,-4.889 0.131,-0.627 0.244,-1.267 0.256,-1.466 0.23,-1.006 0.257,-2.68 1.005,-3.246 4.045,-3.05 13.163,0.286 14.538,0.384 3.546,0.373 10.267,-1.12 13.066,1.493 C 4.34,-4.924 1.119,-3.547 0,0" /></g></g></g></g><g
         transform="translate(487.3984,522.5898)"
         id="g270"><path
           inkscape:connector-curvature="0"
           id="path272"
           style="fill:#f2a944;fill-opacity:1;fill-rule:nonzero;stroke:none"
           d="m 0,0 c -2.697,4.149 -2.408,9.646 -5.516,13.625 -2.625,3.172 -2.123,2.087 -5.58,1.406 -3.74,-0.703 -31.066,-6.967 -31.066,-6.967 0.262,-3.49 2.799,-18.107 2.771,-21.479" /></g><g
         transform="translate(488.6934,523.3467)"
         id="g274"><path
           inkscape:connector-curvature="0"
           id="path276"
           style="fill:#e28d17;fill-opacity:1;fill-rule:nonzero;stroke:none"
           d="m 0,0 c -2.23,3.941 -2.895,14.812 -8.42,16.333 -2.69,0.741 -7.431,-1.251 -10.165,-1.856 -8.433,-1.866 -16.853,-3.794 -25.27,-5.723 -0.604,-0.138 -1.16,-0.811 -1.102,-1.446 0.647,-7.167 2.619,-14.276 2.771,-21.48 0.041,-1.932 3.041,-1.935 3,0 -0.152,7.204 -2.125,14.317 -2.771,21.48 -0.367,-0.482 -0.734,-0.965 -1.102,-1.447 6.899,1.581 13.799,3.151 20.704,4.703 3.35,0.753 6.699,1.525 10.064,2.206 0.767,0.155 1.512,0.349 2.26,0.571 2.221,0.66 3.852,-4.865 4.281,-6.191 0.972,-3.002 1.592,-5.895 3.16,-8.664 C -1.637,-3.197 0.955,-1.686 0,0" /></g><g
         id="g278"><g
           id="g280" /><g
           id="g286"><g
             style="opacity:0.30000299"
             id="g288"
             clip-path="url(#clipPath282)"><g
               id="g290"
               transform="translate(486.6797,522.3438)"><path
                 inkscape:connector-curvature="0"
                 id="path292"
                 style="fill:#1b0000;fill-opacity:1;fill-rule:nonzero;stroke:none"
                 d="m 0,0 c -2.697,4.15 -2.225,8 -4.828,12.404 -2.276,3.851 -2.002,2.746 -5.461,2.066 -3.738,-0.702 -30.34,-6.874 -30.34,-6.874 0.262,-3.491 30.916,4.073 30.889,0.702 L -9.34,-3.18 0,0 z" /></g></g></g></g></g></g></svg>