<?xml version="1.0" encoding="UTF-8" standalone="no"?>
<!-- Created with Inkscape (http://www.inkscape.org/) -->

<svg
   xmlns:dc="http://purl.org/dc/elements/1.1/"
   xmlns:cc="http://creativecommons.org/ns#"
   xmlns:rdf="http://www.w3.org/1999/02/22-rdf-syntax-ns#"
   xmlns:svg="http://www.w3.org/2000/svg"
   xmlns="http://www.w3.org/2000/svg"
   xmlns:sodipodi="http://sodipodi.sourceforge.net/DTD/sodipodi-0.dtd"
   xmlns:inkscape="http://www.inkscape.org/namespaces/inkscape"
   id="svg2"
   version="1.1"
   inkscape:version="0.48.2 r9819"
   width="150"
   height="100"
   xml:space="preserve"
   sodipodi:docname="seat1.svg"><metadata
     id="metadata8"><rdf:RDF><cc:Work
         rdf:about=""><dc:format>image/svg+xml</dc:format><dc:type
           rdf:resource="http://purl.org/dc/dcmitype/StillImage" /><dc:title></dc:title></cc:Work></rdf:RDF></metadata><defs
     id="defs6"><clipPath
       clipPathUnits="userSpaceOnUse"
       id="clipPath18"><path
         d="m 0,1536 2048,0 L 2048,0 0,0 0,1536 z"
         id="path20"
         inkscape:connector-curvature="0" /></clipPath><clipPath
       clipPathUnits="userSpaceOnUse"
       id="clipPath30"><path
         d="m 0,1536 2048,0 L 2048,0 0,0 0,1536 z"
         id="path32"
         inkscape:connector-curvature="0" /></clipPath><clipPath
       clipPathUnits="userSpaceOnUse"
       id="clipPath1618"><path
         d="m 0,1536 2048,0 L 2048,0 0,0 0,1536 z"
         id="path1620"
         inkscape:connector-curvature="0" /></clipPath><clipPath
       clipPathUnits="userSpaceOnUse"
       id="clipPath1642"><path
         d="m 0,1536 2048,0 L 2048,0 0,0 0,1536 z"
         id="path1644"
         inkscape:connector-curvature="0" /></clipPath><clipPath
       clipPathUnits="userSpaceOnUse"
       id="clipPath1754"><path
         d="m 0,1536 2048,0 L 2048,0 0,0 0,1536 z"
         id="path1756"
         inkscape:connector-curvature="0" /></clipPath><clipPath
       clipPathUnits="userSpaceOnUse"
       id="clipPath7778"><path
         d="m 0,1536 2048,0 L 2048,0 0,0 0,1536 z"
         id="path7780"
         inkscape:connector-curvature="0" /></clipPath><clipPath
       clipPathUnits="userSpaceOnUse"
       id="clipPath7838"><path
         d="m 611.262,1266.5 30.647,0 0,-34.39 -30.647,0 0,34.39 z"
         id="path7840"
         inkscape:connector-curvature="0" /></clipPath><clipPath
       clipPathUnits="userSpaceOnUse"
       id="clipPath7870"><path
         d="m 767.558,1245.81 30.647,0 0,-34.39 -30.647,0 0,34.39 z"
         id="path7872"
         inkscape:connector-curvature="0" /></clipPath><clipPath
       clipPathUnits="userSpaceOnUse"
       id="clipPath7902"><path
         d="m 1107.38,1247.01 30.65,0 0,-34.39 -30.65,0 0,34.39 z"
         id="path7904"
         inkscape:connector-curvature="0" /></clipPath><clipPath
       clipPathUnits="userSpaceOnUse"
       id="clipPath7934"><path
         d="m 919.184,1250.86 30.647,0 0,-34.39 -30.647,0 0,34.39 z"
         id="path7936"
         inkscape:connector-curvature="0" /></clipPath><clipPath
       clipPathUnits="userSpaceOnUse"
       id="clipPath7966"><path
         d="m 1277.88,1248.99 25.91,0 0,-36.93 -25.91,0 0,36.93 z"
         id="path7968"
         inkscape:connector-curvature="0" /></clipPath><clipPath
       clipPathUnits="userSpaceOnUse"
       id="clipPath7998"><path
         d="m 1439.02,1258.03 25.91,0 0,-36.93 -25.91,0 0,36.93 z"
         id="path8000"
         inkscape:connector-curvature="0" /></clipPath><clipPath
       clipPathUnits="userSpaceOnUse"
       id="clipPath8162"><path
         d="m 0,1536 2048,0 L 2048,0 0,0 0,1536 z"
         id="path8164"
         inkscape:connector-curvature="0" /></clipPath><clipPath
       clipPathUnits="userSpaceOnUse"
       id="clipPath8198"><path
         d="m 1761.68,1506.2 30.64,0 0,-34.4 -30.64,0 0,34.4 z"
         id="path8200"
         inkscape:connector-curvature="0" /></clipPath><clipPath
       clipPathUnits="userSpaceOnUse"
       id="clipPath8218"><path
         d="m 1815.85,1526.96 30.65,0 0,-34.4 -30.65,0 0,34.4 z"
         id="path8220"
         inkscape:connector-curvature="0" /></clipPath><clipPath
       clipPathUnits="userSpaceOnUse"
       id="clipPath8238"><path
         d="m 1867.85,1550.5 30.65,0 0,-34.39 -30.65,0 0,34.39 z"
         id="path8240"
         inkscape:connector-curvature="0" /></clipPath><clipPath
       clipPathUnits="userSpaceOnUse"
       id="clipPath8258"><path
         d="m 1912.11,1476.5 30.65,0 0,-34.39 -30.65,0 0,34.39 z"
         id="path8260"
         inkscape:connector-curvature="0" /></clipPath><clipPath
       clipPathUnits="userSpaceOnUse"
       id="clipPath8278"><path
         d="m 1864.17,1450.46 30.65,0 0,-34.4 -30.65,0 0,34.4 z"
         id="path8280"
         inkscape:connector-curvature="0" /></clipPath><clipPath
       clipPathUnits="userSpaceOnUse"
       id="clipPath8298"><path
         d="m 1815.85,1427.5 30.65,0 0,-34.39 -30.65,0 0,34.39 z"
         id="path8300"
         inkscape:connector-curvature="0" /></clipPath><clipPath
       clipPathUnits="userSpaceOnUse"
       id="clipPath8318"><path
         d="m 1768.76,1411.38 30.65,0 0,-34.4 -30.65,0 0,34.4 z"
         id="path8320"
         inkscape:connector-curvature="0" /></clipPath><clipPath
       clipPathUnits="userSpaceOnUse"
       id="clipPath8338"><path
         d="m 1746.35,1363 30.65,0 0,-34.39 -30.65,0 0,34.39 z"
         id="path8340"
         inkscape:connector-curvature="0" /></clipPath><clipPath
       clipPathUnits="userSpaceOnUse"
       id="clipPath8358"><path
         d="m 1797.17,1339.78 30.65,0 0,-34.39 -30.65,0 0,34.39 z"
         id="path8360"
         inkscape:connector-curvature="0" /></clipPath><clipPath
       clipPathUnits="userSpaceOnUse"
       id="clipPath8378"><path
         d="m 1855.65,1330.5 30.65,0 0,-34.39 -30.65,0 0,34.39 z"
         id="path8380"
         inkscape:connector-curvature="0" /></clipPath><clipPath
       clipPathUnits="userSpaceOnUse"
       id="clipPath8398"><path
         d="m 1912.11,1323.5 30.65,0 0,-34.39 -30.65,0 0,34.39 z"
         id="path8400"
         inkscape:connector-curvature="0" /></clipPath><clipPath
       clipPathUnits="userSpaceOnUse"
       id="clipPath8418"><path
         d="m 1962.35,1323.5 30.65,0 0,-34.39 -30.65,0 0,34.39 z"
         id="path8420"
         inkscape:connector-curvature="0" /></clipPath><clipPath
       clipPathUnits="userSpaceOnUse"
       id="clipPath8438"><path
         d="m 1971.35,1266.5 30.65,0 0,-34.39 -30.65,0 0,34.39 z"
         id="path8440"
         inkscape:connector-curvature="0" /></clipPath><clipPath
       clipPathUnits="userSpaceOnUse"
       id="clipPath8458"><path
         d="m 1927.75,1235 30.65,0 0,-34.39 -30.65,0 0,34.39 z"
         id="path8460"
         inkscape:connector-curvature="0" /></clipPath><clipPath
       clipPathUnits="userSpaceOnUse"
       id="clipPath8478"><path
         d="m 1874.29,1206.5 30.64,0 0,-34.39 -30.64,0 0,34.39 z"
         id="path8480"
         inkscape:connector-curvature="0" /></clipPath><clipPath
       clipPathUnits="userSpaceOnUse"
       id="clipPath8498"><path
         d="m 1822.02,1177 30.64,0 0,-34.39 -30.64,0 0,34.39 z"
         id="path8500"
         inkscape:connector-curvature="0" /></clipPath><clipPath
       clipPathUnits="userSpaceOnUse"
       id="clipPath8518"><path
         d="m 1822.02,1008.75 30.64,0 0,-34.393 -30.64,0 0,34.393 z"
         id="path8520"
         inkscape:connector-curvature="0" /></clipPath><clipPath
       clipPathUnits="userSpaceOnUse"
       id="clipPath8538"><path
         d="m 1868.85,1043 30.65,0 0,-34.39 -30.65,0 0,34.39 z"
         id="path8540"
         inkscape:connector-curvature="0" /></clipPath><clipPath
       clipPathUnits="userSpaceOnUse"
       id="clipPath8558"><path
         d="m 1916.35,1076.89 30.65,0 0,-34.39 -30.65,0 0,34.39 z"
         id="path8560"
         inkscape:connector-curvature="0" /></clipPath><clipPath
       clipPathUnits="userSpaceOnUse"
       id="clipPath8578"><path
         d="m 1962.35,1110 30.65,0 0,-34.39 -30.65,0 0,34.39 z"
         id="path8580"
         inkscape:connector-curvature="0" /></clipPath><clipPath
       clipPathUnits="userSpaceOnUse"
       id="clipPath8598"><path
         d="m 2000.35,1142 30.65,0 0,-34.39 -30.65,0 0,34.39 z"
         id="path8600"
         inkscape:connector-curvature="0" /></clipPath><clipPath
       clipPathUnits="userSpaceOnUse"
       id="clipPath8618"><path
         d="m 1981.35,942.5 30.65,0 0,-34.395 -30.65,0 0,34.395 z"
         id="path8620"
         inkscape:connector-curvature="0" /></clipPath><clipPath
       clipPathUnits="userSpaceOnUse"
       id="clipPath8638"><path
         d="m 1932.85,920.5 30.65,0 0,-34.395 -30.65,0 0,34.395 z"
         id="path8640"
         inkscape:connector-curvature="0" /></clipPath><clipPath
       clipPathUnits="userSpaceOnUse"
       id="clipPath8658"><path
         d="m 1887.85,901.5 30.65,0 0,-34.395 -30.65,0 0,34.395 z"
         id="path8660"
         inkscape:connector-curvature="0" /></clipPath><clipPath
       clipPathUnits="userSpaceOnUse"
       id="clipPath8678"><path
         d="m 1836.85,882 30.65,0 0,-34.395 -30.65,0 0,34.395 z"
         id="path8680"
         inkscape:connector-curvature="0" /></clipPath><clipPath
       clipPathUnits="userSpaceOnUse"
       id="clipPath8718"><path
         d="m 186.853,1503.5 30.647,0 0,-34.39 -30.647,0 0,34.39 z"
         id="path8720"
         inkscape:connector-curvature="0" /></clipPath><clipPath
       clipPathUnits="userSpaceOnUse"
       id="clipPath8738"><path
         d="m 122.353,1531 30.647,0 0,-34.39 -30.647,0 0,34.39 z"
         id="path8740"
         inkscape:connector-curvature="0" /></clipPath><clipPath
       clipPathUnits="userSpaceOnUse"
       id="clipPath8758"><path
         d="m 63.3525,1546.39 30.6475,0 0,-34.39 -30.6475,0 0,34.39 z"
         id="path8760"
         inkscape:connector-curvature="0" /></clipPath><clipPath
       clipPathUnits="userSpaceOnUse"
       id="clipPath8778"><path
         d="m 195.349,1385.5 30.647,0 0,-34.39 -30.647,0 0,34.39 z"
         id="path8780"
         inkscape:connector-curvature="0" /></clipPath><clipPath
       clipPathUnits="userSpaceOnUse"
       id="clipPath8798"><path
         d="m 147.6,1359.5 30.647,0 0,-34.39 -30.647,0 0,34.39 z"
         id="path8800"
         inkscape:connector-curvature="0" /></clipPath><clipPath
       clipPathUnits="userSpaceOnUse"
       id="clipPath8818"><path
         d="m 79.3525,1332.47 30.6475,0 0,-34.39 -30.6475,0 0,34.39 z"
         id="path8820"
         inkscape:connector-curvature="0" /></clipPath><clipPath
       clipPathUnits="userSpaceOnUse"
       id="clipPath8838"><path
         d="m 84.8525,1207.3 30.6475,0 0,-34.39 -30.6475,0 0,34.39 z"
         id="path8840"
         inkscape:connector-curvature="0" /></clipPath><clipPath
       clipPathUnits="userSpaceOnUse"
       id="clipPath8858"><path
         d="m 147.6,1193.5 30.647,0 0,-34.39 -30.647,0 0,34.39 z"
         id="path8860"
         inkscape:connector-curvature="0" /></clipPath><clipPath
       clipPathUnits="userSpaceOnUse"
       id="clipPath8878"><path
         d="m 219.493,1184.98 30.647,0 0,-34.39 -30.647,0 0,34.39 z"
         id="path8880"
         inkscape:connector-curvature="0" /></clipPath><clipPath
       clipPathUnits="userSpaceOnUse"
       id="clipPath8898"><path
         d="m 223.353,1039.5 30.647,0 0,-34.39 -30.647,0 0,34.39 z"
         id="path8900"
         inkscape:connector-curvature="0" /></clipPath><clipPath
       clipPathUnits="userSpaceOnUse"
       id="clipPath8918"><path
         d="m 164.125,1058.5 30.647,0 0,-34.39 -30.647,0 0,34.39 z"
         id="path8920"
         inkscape:connector-curvature="0" /></clipPath><clipPath
       clipPathUnits="userSpaceOnUse"
       id="clipPath8938"><path
         d="m 103.853,1075.7 30.647,0 0,-34.4 -30.647,0 0,34.4 z"
         id="path8940"
         inkscape:connector-curvature="0" /></clipPath><clipPath
       clipPathUnits="userSpaceOnUse"
       id="clipPath8958"><path
         d="m 52.8213,1104.77 30.6475,0 0,-34.4 -30.6475,0 0,34.4 z"
         id="path8960"
         inkscape:connector-curvature="0" /></clipPath><clipPath
       clipPathUnits="userSpaceOnUse"
       id="clipPath8978"><path
         d="m 67.7275,979.697 30.6475,0 0,-34.394 -30.6475,0 0,34.394 z"
         id="path8980"
         inkscape:connector-curvature="0" /></clipPath><clipPath
       clipPathUnits="userSpaceOnUse"
       id="clipPath8998"><path
         d="m 122.853,951.5 30.647,0 0,-34.395 -30.647,0 0,34.395 z"
         id="path9000"
         inkscape:connector-curvature="0" /></clipPath><clipPath
       clipPathUnits="userSpaceOnUse"
       id="clipPath9018"><path
         d="m 188.853,941.5 30.647,0 0,-34.395 -30.647,0 0,34.395 z"
         id="path9020"
         inkscape:connector-curvature="0" /></clipPath><clipPath
       clipPathUnits="userSpaceOnUse"
       id="clipPath9038"><path
         d="m 249.853,941.5 30.647,0 0,-34.395 -30.647,0 0,34.395 z"
         id="path9040"
         inkscape:connector-curvature="0" /></clipPath><clipPath
       clipPathUnits="userSpaceOnUse"
       id="clipPath9054"><path
         d="m 0,1536 2048,0 L 2048,0 0,0 0,1536 z"
         id="path9056"
         inkscape:connector-curvature="0" /></clipPath><clipPath
       clipPathUnits="userSpaceOnUse"
       id="clipPath9070"><path
         d="m 1559.35,1331.59 110.5,0 0,-122.25 -110.5,0 0,122.25 z"
         id="path9072"
         inkscape:connector-curvature="0" /></clipPath><clipPath
       clipPathUnits="userSpaceOnUse"
       id="clipPath9094"><path
         d="m 362.812,1360.69 111.164,0 0,-120.36 -111.164,0 0,120.36 z"
         id="path9096"
         inkscape:connector-curvature="0" /></clipPath><clipPath
       clipPathUnits="userSpaceOnUse"
       id="clipPath9110"><path
         d="m 0,1536 2048,0 L 2048,0 0,0 0,1536 z"
         id="path9112"
         inkscape:connector-curvature="0" /></clipPath><clipPath
       clipPathUnits="userSpaceOnUse"
       id="clipPath9198"><path
         d="m 0,1536 2048,0 L 2048,0 0,0 0,1536 z"
         id="path9200"
         inkscape:connector-curvature="0" /></clipPath><clipPath
       clipPathUnits="userSpaceOnUse"
       id="clipPath9238"><path
         d="m 863.168,1356.92 391.482,0 0,-389.414 -391.482,0 0,389.414 z"
         id="path9240"
         inkscape:connector-curvature="0" /></clipPath><clipPath
       clipPathUnits="userSpaceOnUse"
       id="clipPath9254"><path
         d="m 0,1536 2048,0 L 2048,0 0,0 0,1536 z"
         id="path9256"
         inkscape:connector-curvature="0" /></clipPath><clipPath
       clipPathUnits="userSpaceOnUse"
       id="clipPath9294"><path
         d="m 925.334,1463.92 313.186,0 0,-311.53 -313.186,0 0,311.53 z"
         id="path9296"
         inkscape:connector-curvature="0" /></clipPath><clipPath
       clipPathUnits="userSpaceOnUse"
       id="clipPath9314"><path
         d="m 0,1536 2048,0 L 2048,0 0,0 0,1536 z"
         id="path9316"
         inkscape:connector-curvature="0" /></clipPath><clipPath
       clipPathUnits="userSpaceOnUse"
       id="clipPath9594"><path
         d="m 0,1536 2048,0 L 2048,0 0,0 0,1536 z"
         id="path9596"
         inkscape:connector-curvature="0" /></clipPath></defs><sodipodi:namedview
     pagecolor="#ffffff"
     bordercolor="#666666"
     borderopacity="1"
     objecttolerance="10"
     gridtolerance="10"
     guidetolerance="10"
     inkscape:pageopacity="0"
     inkscape:pageshadow="2"
     inkscape:window-width="2560"
     inkscape:window-height="1308"
     id="namedview4"
     showgrid="false"
     inkscape:zoom="5.3536915"
     inkscape:cx="136.54985"
     inkscape:cy="32.492418"
     inkscape:window-x="0"
     inkscape:window-y="22"
     inkscape:window-maximized="1"
     inkscape:current-layer="g10" /><g
     id="g10"
     inkscape:groupmode="layer"
     inkscape:label="screen__wald2_cs5"
     transform="matrix(1.25,0,0,-1.25,0,100)"><g
       id="g6858"
       transform="translate(-117.63245,-2.1931975)"><g
         transform="matrix(1,0,0,0.91192491,156.43672,44.844569)"
         id="g9406"><path
           inkscape:connector-curvature="0"
           id="path9408"
           style="fill:#e5e5e5;fill-opacity:1;fill-rule:nonzero;stroke:none"
           d="m 0,0 c 3.15,-6.3 -0.35,-16.1 -0.35,-23.101 0,-11.199 6.3,-17.499 17.15,-18.199 4.2,-0.349 19.6,-2.801 23.1,0.35 3.85,3.501 -1.75,8.4 -2.45,12.599 -1.05,4.201 -0.35,9.451 -0.35,14.001 0.35,9.8 2.8,16.1 -9.45,17.851 C 19.6,4.551 7,7.7 -0.35,2.8 L 0,0 z" /></g><g
         transform="matrix(1,0,0,0.91192491,155.14122,44.154424)"
         id="g9410"><path
           inkscape:connector-curvature="0"
           id="path9412"
           style="fill:#b2b2b2;fill-opacity:1;fill-rule:nonzero;stroke:none"
           d="m 0,0 c 3.563,-8.441 -1.83,-17.928 -0.209,-26.711 1.129,-6.122 4.626,-11.472 10.648,-13.715 5.617,-2.092 12.326,-2.238 18.266,-2.68 4.743,-0.354 12.597,-1.295 14.989,4.013 1.006,2.232 -0.285,4.809 -1.264,6.794 -2.33,4.727 -2.864,8.726 -2.678,13.987 0.207,5.833 1.949,13.349 -0.64,18.845 C 36.549,5.973 27.889,5.908 22.953,6.674 15.42,7.843 7.044,8.938 0.188,4.852 -0.223,4.606 -0.618,4.065 -0.555,3.557 c 0.117,-0.934 0.234,-1.867 0.35,-2.8 0.237,-1.894 3.24,-1.916 3,0 -0.381,3.055 -0.075,2.404 3.253,3.347 3.447,0.977 7.29,0.664 10.812,0.362 3.522,-0.302 7.013,-0.968 10.507,-1.491 3.283,-0.493 7.225,-0.873 9.154,-3.956 2.339,-3.737 0.439,-11.597 0.297,-15.73 -0.111,-3.238 -0.452,-6.639 0.192,-9.845 0.679,-3.38 2.369,-5.934 3.668,-9.084 2.731,-6.624 -12.758,-4.426 -15.505,-4.168 -5.604,0.529 -11.612,0.643 -16.515,3.673 C -4.156,-28.214 7.349,-9.762 2.591,1.514 1.841,3.291 -0.743,1.76 0,0" /></g><g
         transform="matrix(1,0,0,0.91192491,187.42692,46.753045)"
         id="g9414"><path
           inkscape:connector-curvature="0"
           id="path9416"
           style="fill:#adadad;fill-opacity:1;fill-rule:nonzero;stroke:none"
           d="m 0,0 c -3.013,-7.25 -3.763,-11.75 -5.85,-16.309 -2.584,-5.642 -2.834,-12.667 -2.959,-15.667 -0.125,-3.25 0.875,-8.249 0,-10.749 4.25,-0.375 10.326,-1.249 14,-0.25 5.059,1.375 3.625,2.875 2.75,6.875 -0.625,3.375 -3.5,10.125 -2.875,14 0.625,3.25 1.75,12.5 1.375,15.875 C 5.566,0.9 0,0 0,0" /></g><g
         transform="matrix(1,0,0,0.91192491,166.70522,15.54816)"
         id="g9418"><path
           inkscape:connector-curvature="0"
           id="path9420"
           style="fill:#bab9b9;fill-opacity:1;fill-rule:nonzero;stroke:none"
           d="M 0,0 C -4.514,10.582 2.633,23.438 -3,33.833 -3.922,35.534 -6.512,34.021 -5.591,32.319 -2.942,27.433 -3.8,20.27 -4.038,14.856 -4.295,8.994 -4.951,4.02 -2.591,-1.514 -1.833,-3.288 0.75,-1.758 0,0" /></g><g
         transform="matrix(1,0,0,0.91192491,175.76822,12.181881)"
         id="g9422"><path
           inkscape:connector-curvature="0"
           id="path9424"
           style="fill:#bab9b9;fill-opacity:1;fill-rule:nonzero;stroke:none"
           d="m 0,0 c -1.253,8.073 -0.77,15.148 0.468,23.158 0.812,5.251 0.85,10.501 -1.864,15.2 -0.967,1.675 -3.56,0.164 -2.591,-1.513 C -0.72,31.188 -2.283,24.558 -3.346,18.5 -4.481,12.034 -3.892,5.641 -2.893,-0.797 -2.597,-2.704 0.294,-1.892 0,0" /></g><g
         transform="matrix(1,0,0,0.91192491,192.02312,10.661702)"
         id="g9426"><path
           inkscape:connector-curvature="0"
           id="path9428"
           style="fill:#999999;fill-opacity:1;fill-rule:nonzero;stroke:none"
           d="m 0,0 c -0.813,4.434 -2.396,8.66 -3.301,13.072 -1.218,5.929 1.946,10.985 2.968,16.631 0.342,1.891 -2.549,2.699 -2.893,0.797 C -4.115,25.585 -6.463,21.157 -6.613,16.102 -6.783,10.378 -3.91,4.756 -2.893,-0.797 -2.544,-2.698 0.347,-1.891 0,0" /></g><g
         transform="matrix(1,0,0,0.91192491,155.39522,77.382688)"
         id="g9430"><path
           inkscape:connector-curvature="0"
           id="path9432"
           style="fill:#dd3e65;fill-opacity:1;fill-rule:nonzero;stroke:none"
           d="m 0,0 c -19.152,-7.313 -28.233,-6.136 -30.066,-32.535 -1.467,-21.267 31.9,-13.934 45.833,-14.301 7.333,0 14.667,-0.366 21.633,-0.733 5.5,-0.367 10.634,-0.733 16.134,-1.466 4.4,-0.735 12.833,-3.667 16.866,-0.735 3.3,2.201 4.034,11 4.034,15.035 0,6.233 -3.3,9.533 -8.434,12.834 -8.8,5.5 -12.466,11.641 -22,15.308 C 38.5,-4.393 24.567,-0.366 18.7,0 18.7,0 4.967,1.896 0,0" /></g><g
         transform="matrix(1,0,0,0.91192491,154.99622,78.701605)"
         id="g9434"><path
           inkscape:connector-curvature="0"
           id="path9436"
           style="fill:#ba0047;fill-opacity:1;fill-rule:nonzero;stroke:none"
           d="m 0,0 c -7.158,-2.699 -15.33,-4.42 -21.583,-9.024 -5.996,-4.414 -8.092,-11.978 -8.989,-19.024 -0.969,-7.607 -1.169,-14.839 6.055,-19.243 6.356,-3.875 15.145,-3.57 22.282,-3.347 9.235,0.291 18.282,0.975 27.541,0.692 7.157,-0.22 14.312,-0.628 21.446,-1.242 6.221,-0.538 12.22,-2.364 18.426,-2.792 9.713,-0.672 10.89,9.454 11.144,16.931 0.387,11.374 -11.082,15.853 -18.519,22.202 -9.27,7.913 -20.308,11.226 -32.04,13.842 C 17.989,0.729 7.638,2.448 0,0 c -1.834,-0.588 -1.05,-3.484 0.798,-2.893 7.197,2.307 16.94,0.505 24.168,-1.004 11.797,-2.465 22.527,-6.082 31.788,-13.987 4.338,-3.703 9.582,-6.509 13.611,-10.5 4.363,-4.322 3.151,-11.987 1.833,-17.352 -1.884,-7.666 -10.08,-5.009 -15.759,-3.725 -6.601,1.492 -13.651,1.685 -20.389,2.037 -10.756,0.563 -21.38,0.781 -32.122,0.103 -8.243,-0.522 -17.174,-1.231 -25.062,1.708 -10.248,3.819 -7.245,17.177 -4.724,25.251 2.586,8.284 9.503,11.413 17.105,14.076 3.189,1.117 6.388,2.201 9.551,3.393 C 2.59,-2.217 1.814,0.684 0,0" /></g><g
         transform="matrix(1,0,0,0.91192491,173.86832,75.729824)"
         id="g9438"><path
           inkscape:connector-curvature="0"
           id="path9440"
           style="fill:#ce2178;fill-opacity:1;fill-rule:nonzero;stroke:none"
           d="m 0,0 c 6.667,-2.333 18.369,-14.83 18.875,-21.875 0.75,-10.431 -6.417,-12.792 -9.75,-21.792 7.889,-1.014 15.75,-1.458 23.417,-3.084 7.173,-1.521 18.787,-5.208 20.787,4.126 1.161,5.805 2.304,10.521 -0.329,15.25 -4.927,8.852 -7.408,7.065 -15.25,13.125 C 29.5,-7.875 25.625,-6 12.75,-2.125 7.023,-0.401 0,0 0,0" /></g><g
         transform="matrix(1,0,0,0.91192491,170.90882,75.729824)"
         id="g9442"><path
           inkscape:connector-curvature="0"
           id="path9444"
           style="fill:#e5e5e5;fill-opacity:1;fill-rule:nonzero;stroke:none"
           d="m 0,0 c -2.5,-1 -5.416,-1.75 -6.916,-4.25 -3,-4.75 2.25,-5 5.25,-4.5 2.5,0.5 7.75,1.25 9,3.5 2,3.5 -2.75,6.25 -5.75,5.75 L 0,0 z" /></g><g
         transform="matrix(1,0,0,0.91192491,170.50992,77.048741)"
         id="g9446"><path
           inkscape:connector-curvature="0"
           id="path9448"
           style="fill:#b2b2b2;fill-opacity:1;fill-rule:nonzero;stroke:none"
           d="m 0,0 c -2.378,-0.923 -4.688,-1.718 -6.63,-3.434 -1.266,-1.119 -2.828,-3.758 -2.179,-5.545 1.4,-3.852 6.45,-2.948 9.593,-2.348 4.019,0.767 9.698,2.227 8.763,7.474 C 8.802,0.328 3.186,1.005 0,0 c -1.838,-0.58 -1.052,-3.477 0.798,-2.893 1.995,0.63 3.673,0.61 5.336,-0.911 2.941,-2.688 -4.11,-4.209 -5.514,-4.505 -1.902,-0.4 -4.335,-1.059 -6.205,-0.212 -1.374,0.624 1.477,3.33 1.936,3.659 1.307,0.939 2.961,1.393 4.447,1.969 C 2.581,-2.2 1.806,0.701 0,0" /></g><g
         transform="matrix(1,0,0,0.91192491,190.74332,60.911044)"
         id="g9450"><path
           inkscape:connector-curvature="0"
           id="path9452"
           style="fill:#e5e5e5;fill-opacity:1;fill-rule:nonzero;stroke:none"
           d="M 0,0 C -2.75,0.75 -6.25,3.25 -9.25,2.25 -13.25,1 -9.75,-1.75 -7,-3.5 -5.25,-4.25 1,-7 2.75,-5.5 6,-2.75 0,0 0,0" /></g><g
         transform="matrix(1,0,0,0.91192491,191.14222,62.229961)"
         id="g9454"><path
           inkscape:connector-curvature="0"
           id="path9456"
           style="fill:#b2b2b2;fill-opacity:1;fill-rule:nonzero;stroke:none"
           d="m 0,0 c -2.613,0.808 -4.917,2.152 -7.664,2.517 -1.643,0.216 -4.711,-0.574 -5.154,-2.495 -0.877,-3.808 4.457,-6.234 7.274,-7.348 3.019,-1.194 8.216,-3.154 10.061,0.793 1.336,2.858 -1.916,5.328 -4.159,6.382 -1.74,0.818 -3.264,-1.768 -1.514,-2.59 1.013,-0.477 2.493,-1.221 2.937,-2.311 0.707,-1.736 -5.532,0.246 -6.034,0.43 -2.036,0.749 -4.146,1.72 -5.507,3.495 -0.37,0.483 1.933,0.648 2.096,0.644 0.771,-0.021 1.614,-0.376 2.335,-0.628 1.537,-0.537 2.973,-1.3 4.531,-1.782 C 1.056,-3.466 1.842,-0.569 0,0" /></g><g
         transform="matrix(1,0,0,0.91192491,224.90982,55.667476)"
         id="g9458"><path
           inkscape:connector-curvature="0"
           id="path9460"
           style="fill:#e5e5e5;fill-opacity:1;fill-rule:nonzero;stroke:none"
           d="m 0,0 c -1.676,1.855 -3.667,2.75 -6.167,3.25 -2,-3.5 0.75,-7 3,-9.5 C 1.583,-11 4.538,-4.563 1.083,-1 0.827,-0.735 0.247,-0.273 0,0" /></g><g
         transform="matrix(1,0,0,0.91192491,225.97042,56.634572)"
         id="g9462"><path
           inkscape:connector-curvature="0"
           id="path9464"
           style="fill:#b2b2b2;fill-opacity:1;fill-rule:nonzero;stroke:none"
           d="m 0,0 c -1.882,1.974 -4.184,3.064 -6.828,3.636 -0.628,0.135 -1.385,-0.07 -1.694,-0.69 -1.53,-3.073 -0.747,-5.989 1.122,-8.72 1.493,-2.183 3.725,-4.871 6.652,-4.703 2.072,0.12 3.416,1.984 3.695,3.896 C 3.354,-3.789 1.895,-1.828 0,0 c -1.392,1.344 -3.516,-0.775 -2.121,-2.121 1.025,-0.99 2.001,-1.8 2.14,-3.315 0.069,-0.753 -0.146,-2.004 -1.092,-2.059 -1.504,-0.087 -2.981,2.212 -3.737,3.235 -1.249,1.691 -2.127,3.673 -1.122,5.693 C -6.497,1.203 -7.061,0.973 -7.626,0.743 -5.461,0.275 -3.668,-0.5 -2.121,-2.121 -0.784,-3.523 1.334,-1.398 0,0" /></g><g
         transform="matrix(1,0,0,0.91192491,154.90982,61.898659)"
         id="g9466"><path
           inkscape:connector-curvature="0"
           id="path9468"
           style="fill:#e5e5e5;fill-opacity:1;fill-rule:nonzero;stroke:none"
           d="m 0,0 c -5.167,-2.023 -7.667,-11.833 3.083,-8.583 2,0.75 7.75,3 7.5,5.5 -0.25,2.5 -6.75,3.5 -8.75,3.5 L 0,0 z" /></g><g
         transform="matrix(1,0,0,0.91192491,154.15252,63.07951)"
         id="g9470"><path
           inkscape:connector-curvature="0"
           id="path9472"
           style="fill:#b2b2b2;fill-opacity:1;fill-rule:nonzero;stroke:none"
           d="m 0,0 c -3.047,-1.293 -5.569,-4.834 -5.099,-8.225 0.655,-4.723 6.706,-4.113 9.939,-2.871 2.753,1.059 10.77,4.465 7.22,8.615 C 9.485,0.528 3.947,0.968 0.358,0.151 -1.527,-0.277 -0.728,-3.17 1.156,-2.741 3.65,-2.174 6.336,-2.565 8.776,-3.718 10.468,-4.517 9.523,-5.269 8.309,-6.099 6.91,-7.056 5.297,-7.721 3.724,-8.325 2.2,-8.911 -2.173,-10.093 -2.169,-7.296 -2.167,-5.216 -0.26,-3.343 1.515,-2.59 3.29,-1.837 1.759,0.747 0,0" /></g><g
         transform="matrix(1,0,0,0.91192491,126.02022,54.122401)"
         id="g9474"><path
           inkscape:connector-curvature="0"
           id="path9476"
           style="fill:#e5e5e5;fill-opacity:1;fill-rule:nonzero;stroke:none"
           d="m 0,0 c -0.75,-2 -1.027,-4.056 0.473,-6.056 2.25,-2.5 6.75,-1.25 8.5,0.75 6.75,7 -5.5,12 -8.5,7 L 0,0 z" /></g><g
         transform="matrix(1,0,0,0.91192491,124.57392,54.485712)"
         id="g9478"><path
           inkscape:connector-curvature="0"
           id="path9480"
           style="fill:#b2b2b2;fill-opacity:1;fill-rule:nonzero;stroke:none"
           d="m 0,0 c -0.829,-2.363 -1.11,-5.561 0.859,-7.515 1.745,-1.732 3.994,-2.051 6.338,-1.616 3.861,0.716 7.23,4.672 6.597,8.646 C 13.264,2.843 9.412,4.568 6.446,4.807 4.949,4.928 3.33,4.526 2.107,3.651 0.772,2.696 0.419,1.5 0,0 -0.521,-1.866 2.373,-2.658 2.893,-0.797 3.058,-0.206 3.168,0.544 3.506,0.921 4.086,1.57 5.006,1.775 5.837,1.817 7.563,1.904 9.571,1.135 10.539,-0.344 11.813,-2.288 9.698,-4.683 8.102,-5.621 6.923,-6.314 5.454,-6.515 4.142,-6.166 1.759,-5.533 2.302,-2.48 2.893,-0.797 3.535,1.033 0.636,1.813 0,0" /></g><g
         transform="matrix(1,0,0,0.91192491,140.90982,70.991188)"
         id="g9482"><path
           inkscape:connector-curvature="0"
           id="path9484"
           style="fill:#e5e5e5;fill-opacity:1;fill-rule:nonzero;stroke:none"
           d="m 0,0 c -1.75,0.5 -2.917,0.696 -4.667,-0.304 -2.75,-1.5 -1.25,-3.25 1,-4.5 4.75,-2.5 12.75,2.5 5.25,4.5 L 0,0 z" /></g><g
         transform="matrix(1,0,0,0.91192491,141.30872,72.310105)"
         id="g9486"><path
           inkscape:connector-curvature="0"
           id="path9488"
           style="fill:#b2b2b2;fill-opacity:1;fill-rule:nonzero;stroke:none"
           d="m 0,0 c -1.939,0.539 -3.57,0.594 -5.429,-0.245 -1.664,-0.751 -3.064,-2.336 -2.458,-4.247 0.486,-1.532 2.175,-2.686 3.575,-3.289 1.499,-0.645 3.125,-0.773 4.729,-0.523 2.187,0.343 5.426,1.714 5.334,4.393 C 5.656,-1.136 2.144,-0.411 0,0 -1.89,0.362 -2.696,-2.528 -0.798,-2.893 0.21,-3.086 2.113,-3.203 2.74,-4.071 2.929,-4.332 2.73,-4.135 2.766,-3.963 2.774,-3.922 2.655,-4.141 2.492,-4.303 2.016,-4.771 1.299,-5.009 0.675,-5.192 c -1.773,-0.521 -3.428,-0.191 -4.933,0.831 -0.305,0.207 -0.579,0.483 -0.775,0.791 -0.041,0.178 -0.06,0.146 -0.057,-0.097 0.126,0.294 0.533,0.474 0.781,0.622 1.182,0.703 2.256,0.501 3.511,0.152 C 1.07,-3.412 1.861,-0.518 0,0" /></g><g
         transform="matrix(1,0,0,0.91192491,201.53382,70.297487)"
         id="g9490"><path
           inkscape:connector-curvature="0"
           id="path9492"
           style="fill:#e5e5e5;fill-opacity:1;fill-rule:nonzero;stroke:none"
           d="m 0,0 c -1.744,0.878 -2.291,0.957 -4.291,0.457 -0.5,-2.25 4.75,-6 7,-6.25 5.25,-1 1.589,4.489 -1.5,5.5 C 0.914,-0.196 0.278,-0.14 0,0" /></g><g
         transform="matrix(1,0,0,0.91192491,202.29122,71.478339)"
         id="g9494"><path
           inkscape:connector-curvature="0"
           id="path9496"
           style="fill:#b2b2b2;fill-opacity:1;fill-rule:nonzero;stroke:none"
           d="m 0,0 c -1.902,0.936 -3.381,1.104 -5.447,0.608 -0.456,-0.109 -0.975,-0.561 -1.047,-1.047 -0.374,-2.534 1.687,-4.495 3.558,-5.884 2.024,-1.503 4.46,-2.732 7.049,-2.268 2.417,0.434 2.18,3.169 1.231,4.768 C 4.759,-2.839 3.915,-2.005 3.012,-1.314 1.94,-0.493 0.88,-0.275 -0.358,0.151 -2.193,0.783 -2.974,-2.115 -1.156,-2.741 -0.552,-2.949 0.039,-2.987 0.606,-3.297 1.221,-3.631 1.725,-4.105 2.2,-4.611 2.565,-5 2.903,-5.47 3.07,-5.979 c 0.098,-0.3 -0.013,-0.055 0.21,0.219 0.11,0.135 -0.255,0.053 -0.315,0.053 -1.414,-0.011 -2.711,0.813 -3.836,1.574 -0.616,0.417 -2.863,1.994 -2.731,2.897 -0.349,-0.35 -0.698,-0.7 -1.047,-1.048 1.257,0.301 1.97,0.266 3.134,-0.306 C 0.215,-3.44 1.736,-0.854 0,0" /></g></g></g></svg>