<?xml version="1.0" encoding="UTF-8" standalone="no"?>
<!-- Created with Inkscape (http://www.inkscape.org/) -->

<svg
   xmlns:dc="http://purl.org/dc/elements/1.1/"
   xmlns:cc="http://creativecommons.org/ns#"
   xmlns:rdf="http://www.w3.org/1999/02/22-rdf-syntax-ns#"
   xmlns:svg="http://www.w3.org/2000/svg"
   xmlns="http://www.w3.org/2000/svg"
   xmlns:sodipodi="http://sodipodi.sourceforge.net/DTD/sodipodi-0.dtd"
   xmlns:inkscape="http://www.inkscape.org/namespaces/inkscape"
   id="svg2"
   version="1.1"
   inkscape:version="0.48.2 r9819"
   width="150"
   height="100"
   xml:space="preserve"
   sodipodi:docname="seat2.svg"><metadata
     id="metadata8"><rdf:RDF><cc:Work
         rdf:about=""><dc:format>image/svg+xml</dc:format><dc:type
           rdf:resource="http://purl.org/dc/dcmitype/StillImage" /><dc:title></dc:title></cc:Work></rdf:RDF></metadata><defs
     id="defs6"><clipPath
       clipPathUnits="userSpaceOnUse"
       id="clipPath18"><path
         d="m 0,1536 2048,0 L 2048,0 0,0 0,1536 z"
         id="path20"
         inkscape:connector-curvature="0" /></clipPath><clipPath
       clipPathUnits="userSpaceOnUse"
       id="clipPath30"><path
         d="m 0,1536 2048,0 L 2048,0 0,0 0,1536 z"
         id="path32"
         inkscape:connector-curvature="0" /></clipPath><clipPath
       clipPathUnits="userSpaceOnUse"
       id="clipPath1618"><path
         d="m 0,1536 2048,0 L 2048,0 0,0 0,1536 z"
         id="path1620"
         inkscape:connector-curvature="0" /></clipPath><clipPath
       clipPathUnits="userSpaceOnUse"
       id="clipPath1642"><path
         d="m 0,1536 2048,0 L 2048,0 0,0 0,1536 z"
         id="path1644"
         inkscape:connector-curvature="0" /></clipPath><clipPath
       clipPathUnits="userSpaceOnUse"
       id="clipPath1754"><path
         d="m 0,1536 2048,0 L 2048,0 0,0 0,1536 z"
         id="path1756"
         inkscape:connector-curvature="0" /></clipPath><clipPath
       clipPathUnits="userSpaceOnUse"
       id="clipPath7778"><path
         d="m 0,1536 2048,0 L 2048,0 0,0 0,1536 z"
         id="path7780"
         inkscape:connector-curvature="0" /></clipPath><clipPath
       clipPathUnits="userSpaceOnUse"
       id="clipPath7838"><path
         d="m 611.262,1266.5 30.647,0 0,-34.39 -30.647,0 0,34.39 z"
         id="path7840"
         inkscape:connector-curvature="0" /></clipPath><clipPath
       clipPathUnits="userSpaceOnUse"
       id="clipPath7870"><path
         d="m 767.558,1245.81 30.647,0 0,-34.39 -30.647,0 0,34.39 z"
         id="path7872"
         inkscape:connector-curvature="0" /></clipPath><clipPath
       clipPathUnits="userSpaceOnUse"
       id="clipPath7902"><path
         d="m 1107.38,1247.01 30.65,0 0,-34.39 -30.65,0 0,34.39 z"
         id="path7904"
         inkscape:connector-curvature="0" /></clipPath><clipPath
       clipPathUnits="userSpaceOnUse"
       id="clipPath7934"><path
         d="m 919.184,1250.86 30.647,0 0,-34.39 -30.647,0 0,34.39 z"
         id="path7936"
         inkscape:connector-curvature="0" /></clipPath><clipPath
       clipPathUnits="userSpaceOnUse"
       id="clipPath7966"><path
         d="m 1277.88,1248.99 25.91,0 0,-36.93 -25.91,0 0,36.93 z"
         id="path7968"
         inkscape:connector-curvature="0" /></clipPath><clipPath
       clipPathUnits="userSpaceOnUse"
       id="clipPath7998"><path
         d="m 1439.02,1258.03 25.91,0 0,-36.93 -25.91,0 0,36.93 z"
         id="path8000"
         inkscape:connector-curvature="0" /></clipPath><clipPath
       clipPathUnits="userSpaceOnUse"
       id="clipPath8162"><path
         d="m 0,1536 2048,0 L 2048,0 0,0 0,1536 z"
         id="path8164"
         inkscape:connector-curvature="0" /></clipPath><clipPath
       clipPathUnits="userSpaceOnUse"
       id="clipPath8198"><path
         d="m 1761.68,1506.2 30.64,0 0,-34.4 -30.64,0 0,34.4 z"
         id="path8200"
         inkscape:connector-curvature="0" /></clipPath><clipPath
       clipPathUnits="userSpaceOnUse"
       id="clipPath8218"><path
         d="m 1815.85,1526.96 30.65,0 0,-34.4 -30.65,0 0,34.4 z"
         id="path8220"
         inkscape:connector-curvature="0" /></clipPath><clipPath
       clipPathUnits="userSpaceOnUse"
       id="clipPath8238"><path
         d="m 1867.85,1550.5 30.65,0 0,-34.39 -30.65,0 0,34.39 z"
         id="path8240"
         inkscape:connector-curvature="0" /></clipPath><clipPath
       clipPathUnits="userSpaceOnUse"
       id="clipPath8258"><path
         d="m 1912.11,1476.5 30.65,0 0,-34.39 -30.65,0 0,34.39 z"
         id="path8260"
         inkscape:connector-curvature="0" /></clipPath><clipPath
       clipPathUnits="userSpaceOnUse"
       id="clipPath8278"><path
         d="m 1864.17,1450.46 30.65,0 0,-34.4 -30.65,0 0,34.4 z"
         id="path8280"
         inkscape:connector-curvature="0" /></clipPath><clipPath
       clipPathUnits="userSpaceOnUse"
       id="clipPath8298"><path
         d="m 1815.85,1427.5 30.65,0 0,-34.39 -30.65,0 0,34.39 z"
         id="path8300"
         inkscape:connector-curvature="0" /></clipPath><clipPath
       clipPathUnits="userSpaceOnUse"
       id="clipPath8318"><path
         d="m 1768.76,1411.38 30.65,0 0,-34.4 -30.65,0 0,34.4 z"
         id="path8320"
         inkscape:connector-curvature="0" /></clipPath><clipPath
       clipPathUnits="userSpaceOnUse"
       id="clipPath8338"><path
         d="m 1746.35,1363 30.65,0 0,-34.39 -30.65,0 0,34.39 z"
         id="path8340"
         inkscape:connector-curvature="0" /></clipPath><clipPath
       clipPathUnits="userSpaceOnUse"
       id="clipPath8358"><path
         d="m 1797.17,1339.78 30.65,0 0,-34.39 -30.65,0 0,34.39 z"
         id="path8360"
         inkscape:connector-curvature="0" /></clipPath><clipPath
       clipPathUnits="userSpaceOnUse"
       id="clipPath8378"><path
         d="m 1855.65,1330.5 30.65,0 0,-34.39 -30.65,0 0,34.39 z"
         id="path8380"
         inkscape:connector-curvature="0" /></clipPath><clipPath
       clipPathUnits="userSpaceOnUse"
       id="clipPath8398"><path
         d="m 1912.11,1323.5 30.65,0 0,-34.39 -30.65,0 0,34.39 z"
         id="path8400"
         inkscape:connector-curvature="0" /></clipPath><clipPath
       clipPathUnits="userSpaceOnUse"
       id="clipPath8418"><path
         d="m 1962.35,1323.5 30.65,0 0,-34.39 -30.65,0 0,34.39 z"
         id="path8420"
         inkscape:connector-curvature="0" /></clipPath><clipPath
       clipPathUnits="userSpaceOnUse"
       id="clipPath8438"><path
         d="m 1971.35,1266.5 30.65,0 0,-34.39 -30.65,0 0,34.39 z"
         id="path8440"
         inkscape:connector-curvature="0" /></clipPath><clipPath
       clipPathUnits="userSpaceOnUse"
       id="clipPath8458"><path
         d="m 1927.75,1235 30.65,0 0,-34.39 -30.65,0 0,34.39 z"
         id="path8460"
         inkscape:connector-curvature="0" /></clipPath><clipPath
       clipPathUnits="userSpaceOnUse"
       id="clipPath8478"><path
         d="m 1874.29,1206.5 30.64,0 0,-34.39 -30.64,0 0,34.39 z"
         id="path8480"
         inkscape:connector-curvature="0" /></clipPath><clipPath
       clipPathUnits="userSpaceOnUse"
       id="clipPath8498"><path
         d="m 1822.02,1177 30.64,0 0,-34.39 -30.64,0 0,34.39 z"
         id="path8500"
         inkscape:connector-curvature="0" /></clipPath><clipPath
       clipPathUnits="userSpaceOnUse"
       id="clipPath8518"><path
         d="m 1822.02,1008.75 30.64,0 0,-34.393 -30.64,0 0,34.393 z"
         id="path8520"
         inkscape:connector-curvature="0" /></clipPath><clipPath
       clipPathUnits="userSpaceOnUse"
       id="clipPath8538"><path
         d="m 1868.85,1043 30.65,0 0,-34.39 -30.65,0 0,34.39 z"
         id="path8540"
         inkscape:connector-curvature="0" /></clipPath><clipPath
       clipPathUnits="userSpaceOnUse"
       id="clipPath8558"><path
         d="m 1916.35,1076.89 30.65,0 0,-34.39 -30.65,0 0,34.39 z"
         id="path8560"
         inkscape:connector-curvature="0" /></clipPath><clipPath
       clipPathUnits="userSpaceOnUse"
       id="clipPath8578"><path
         d="m 1962.35,1110 30.65,0 0,-34.39 -30.65,0 0,34.39 z"
         id="path8580"
         inkscape:connector-curvature="0" /></clipPath><clipPath
       clipPathUnits="userSpaceOnUse"
       id="clipPath8598"><path
         d="m 2000.35,1142 30.65,0 0,-34.39 -30.65,0 0,34.39 z"
         id="path8600"
         inkscape:connector-curvature="0" /></clipPath><clipPath
       clipPathUnits="userSpaceOnUse"
       id="clipPath8618"><path
         d="m 1981.35,942.5 30.65,0 0,-34.395 -30.65,0 0,34.395 z"
         id="path8620"
         inkscape:connector-curvature="0" /></clipPath><clipPath
       clipPathUnits="userSpaceOnUse"
       id="clipPath8638"><path
         d="m 1932.85,920.5 30.65,0 0,-34.395 -30.65,0 0,34.395 z"
         id="path8640"
         inkscape:connector-curvature="0" /></clipPath><clipPath
       clipPathUnits="userSpaceOnUse"
       id="clipPath8658"><path
         d="m 1887.85,901.5 30.65,0 0,-34.395 -30.65,0 0,34.395 z"
         id="path8660"
         inkscape:connector-curvature="0" /></clipPath><clipPath
       clipPathUnits="userSpaceOnUse"
       id="clipPath8678"><path
         d="m 1836.85,882 30.65,0 0,-34.395 -30.65,0 0,34.395 z"
         id="path8680"
         inkscape:connector-curvature="0" /></clipPath><clipPath
       clipPathUnits="userSpaceOnUse"
       id="clipPath8718"><path
         d="m 186.853,1503.5 30.647,0 0,-34.39 -30.647,0 0,34.39 z"
         id="path8720"
         inkscape:connector-curvature="0" /></clipPath><clipPath
       clipPathUnits="userSpaceOnUse"
       id="clipPath8738"><path
         d="m 122.353,1531 30.647,0 0,-34.39 -30.647,0 0,34.39 z"
         id="path8740"
         inkscape:connector-curvature="0" /></clipPath><clipPath
       clipPathUnits="userSpaceOnUse"
       id="clipPath8758"><path
         d="m 63.3525,1546.39 30.6475,0 0,-34.39 -30.6475,0 0,34.39 z"
         id="path8760"
         inkscape:connector-curvature="0" /></clipPath><clipPath
       clipPathUnits="userSpaceOnUse"
       id="clipPath8778"><path
         d="m 195.349,1385.5 30.647,0 0,-34.39 -30.647,0 0,34.39 z"
         id="path8780"
         inkscape:connector-curvature="0" /></clipPath><clipPath
       clipPathUnits="userSpaceOnUse"
       id="clipPath8798"><path
         d="m 147.6,1359.5 30.647,0 0,-34.39 -30.647,0 0,34.39 z"
         id="path8800"
         inkscape:connector-curvature="0" /></clipPath><clipPath
       clipPathUnits="userSpaceOnUse"
       id="clipPath8818"><path
         d="m 79.3525,1332.47 30.6475,0 0,-34.39 -30.6475,0 0,34.39 z"
         id="path8820"
         inkscape:connector-curvature="0" /></clipPath><clipPath
       clipPathUnits="userSpaceOnUse"
       id="clipPath8838"><path
         d="m 84.8525,1207.3 30.6475,0 0,-34.39 -30.6475,0 0,34.39 z"
         id="path8840"
         inkscape:connector-curvature="0" /></clipPath><clipPath
       clipPathUnits="userSpaceOnUse"
       id="clipPath8858"><path
         d="m 147.6,1193.5 30.647,0 0,-34.39 -30.647,0 0,34.39 z"
         id="path8860"
         inkscape:connector-curvature="0" /></clipPath><clipPath
       clipPathUnits="userSpaceOnUse"
       id="clipPath8878"><path
         d="m 219.493,1184.98 30.647,0 0,-34.39 -30.647,0 0,34.39 z"
         id="path8880"
         inkscape:connector-curvature="0" /></clipPath><clipPath
       clipPathUnits="userSpaceOnUse"
       id="clipPath8898"><path
         d="m 223.353,1039.5 30.647,0 0,-34.39 -30.647,0 0,34.39 z"
         id="path8900"
         inkscape:connector-curvature="0" /></clipPath><clipPath
       clipPathUnits="userSpaceOnUse"
       id="clipPath8918"><path
         d="m 164.125,1058.5 30.647,0 0,-34.39 -30.647,0 0,34.39 z"
         id="path8920"
         inkscape:connector-curvature="0" /></clipPath><clipPath
       clipPathUnits="userSpaceOnUse"
       id="clipPath8938"><path
         d="m 103.853,1075.7 30.647,0 0,-34.4 -30.647,0 0,34.4 z"
         id="path8940"
         inkscape:connector-curvature="0" /></clipPath><clipPath
       clipPathUnits="userSpaceOnUse"
       id="clipPath8958"><path
         d="m 52.8213,1104.77 30.6475,0 0,-34.4 -30.6475,0 0,34.4 z"
         id="path8960"
         inkscape:connector-curvature="0" /></clipPath><clipPath
       clipPathUnits="userSpaceOnUse"
       id="clipPath8978"><path
         d="m 67.7275,979.697 30.6475,0 0,-34.394 -30.6475,0 0,34.394 z"
         id="path8980"
         inkscape:connector-curvature="0" /></clipPath><clipPath
       clipPathUnits="userSpaceOnUse"
       id="clipPath8998"><path
         d="m 122.853,951.5 30.647,0 0,-34.395 -30.647,0 0,34.395 z"
         id="path9000"
         inkscape:connector-curvature="0" /></clipPath><clipPath
       clipPathUnits="userSpaceOnUse"
       id="clipPath9018"><path
         d="m 188.853,941.5 30.647,0 0,-34.395 -30.647,0 0,34.395 z"
         id="path9020"
         inkscape:connector-curvature="0" /></clipPath><clipPath
       clipPathUnits="userSpaceOnUse"
       id="clipPath9038"><path
         d="m 249.853,941.5 30.647,0 0,-34.395 -30.647,0 0,34.395 z"
         id="path9040"
         inkscape:connector-curvature="0" /></clipPath><clipPath
       clipPathUnits="userSpaceOnUse"
       id="clipPath9054"><path
         d="m 0,1536 2048,0 L 2048,0 0,0 0,1536 z"
         id="path9056"
         inkscape:connector-curvature="0" /></clipPath><clipPath
       clipPathUnits="userSpaceOnUse"
       id="clipPath9070"><path
         d="m 1559.35,1331.59 110.5,0 0,-122.25 -110.5,0 0,122.25 z"
         id="path9072"
         inkscape:connector-curvature="0" /></clipPath><clipPath
       clipPathUnits="userSpaceOnUse"
       id="clipPath9094"><path
         d="m 362.812,1360.69 111.164,0 0,-120.36 -111.164,0 0,120.36 z"
         id="path9096"
         inkscape:connector-curvature="0" /></clipPath><clipPath
       clipPathUnits="userSpaceOnUse"
       id="clipPath9110"><path
         d="m 0,1536 2048,0 L 2048,0 0,0 0,1536 z"
         id="path9112"
         inkscape:connector-curvature="0" /></clipPath><clipPath
       clipPathUnits="userSpaceOnUse"
       id="clipPath9198"><path
         d="m 0,1536 2048,0 L 2048,0 0,0 0,1536 z"
         id="path9200"
         inkscape:connector-curvature="0" /></clipPath><clipPath
       clipPathUnits="userSpaceOnUse"
       id="clipPath9238"><path
         d="m 863.168,1356.92 391.482,0 0,-389.414 -391.482,0 0,389.414 z"
         id="path9240"
         inkscape:connector-curvature="0" /></clipPath><clipPath
       clipPathUnits="userSpaceOnUse"
       id="clipPath9254"><path
         d="m 0,1536 2048,0 L 2048,0 0,0 0,1536 z"
         id="path9256"
         inkscape:connector-curvature="0" /></clipPath><clipPath
       clipPathUnits="userSpaceOnUse"
       id="clipPath9294"><path
         d="m 925.334,1463.92 313.186,0 0,-311.53 -313.186,0 0,311.53 z"
         id="path9296"
         inkscape:connector-curvature="0" /></clipPath><clipPath
       clipPathUnits="userSpaceOnUse"
       id="clipPath9314"><path
         d="m 0,1536 2048,0 L 2048,0 0,0 0,1536 z"
         id="path9316"
         inkscape:connector-curvature="0" /></clipPath><clipPath
       clipPathUnits="userSpaceOnUse"
       id="clipPath9594"><path
         d="m 0,1536 2048,0 L 2048,0 0,0 0,1536 z"
         id="path9596"
         inkscape:connector-curvature="0" /></clipPath></defs><sodipodi:namedview
     pagecolor="#ffffff"
     bordercolor="#666666"
     borderopacity="1"
     objecttolerance="10"
     gridtolerance="10"
     guidetolerance="10"
     inkscape:pageopacity="0"
     inkscape:pageshadow="2"
     inkscape:window-width="2560"
     inkscape:window-height="1308"
     id="namedview4"
     showgrid="false"
     inkscape:zoom="5.3536915"
     inkscape:cx="136.54985"
     inkscape:cy="32.492418"
     inkscape:window-x="0"
     inkscape:window-y="22"
     inkscape:window-maximized="1"
     inkscape:current-layer="g10" /><g
     id="g10"
     inkscape:groupmode="layer"
     inkscape:label="screen__wald2_cs5"
     transform="matrix(1.25,0,0,-1.25,0,100)"><g
       id="g6906"
       transform="translate(-239.96553,3.006935)"><g
         transform="matrix(1,0,0,0.91192491,283.07682,5.1304212)"
         id="g9498"><path
           inkscape:connector-curvature="0"
           id="path9500"
           style="fill:#e5e5e5;fill-opacity:1;fill-rule:nonzero;stroke:none"
           d="m 0,0 c 6.667,-4.333 19,-4.333 27,-4 11.667,0.334 18.667,8.168 15.667,19.168 -1.667,7.334 -3.334,17.166 -8,23.166 -5,6.333 -20,5.333 -27.334,5.666 -9.333,0.334 -18,-0.333 -9.333,-10.666 8.667,-11 4,-19 1,-31 L 0,0 z" /></g><g
         transform="matrix(1,0,0,0.91192491,282.31952,3.9495696)"
         id="g9502"><path
           inkscape:connector-curvature="0"
           id="path9504"
           style="fill:#b2b2b2;fill-opacity:1;fill-rule:nonzero;stroke:none"
           d="m 0,0 c 7.071,-4.196 15.9,-4.399 23.898,-4.319 6.745,0.068 14.559,0.829 18.819,6.852 4.426,6.259 2.469,12.934 0.938,19.838 -1.622,7.314 -3.624,16.916 -10.57,21.066 -5.936,3.545 -14.313,3.17 -20.958,3.265 -4.508,0.064 -14.483,1.932 -17.568,-2.675 -1.392,-2.077 -0.766,-4.174 0.202,-6.294 1.111,-2.434 3.216,-4.456 4.669,-6.668 1.664,-2.53 2.51,-5.404 2.775,-8.39 0.669,-7.546 -5.733,-15.158 -2.743,-22.137 0.76,-1.773 3.344,-0.244 2.591,1.514 -1.097,2.56 0.008,4.406 0.788,7.113 0.887,3.073 1.72,6.132 2.17,9.304 0.805,5.667 -0.804,10.786 -3.903,15.499 -1.632,2.483 -7.328,7.702 -2.073,9.347 2.807,0.879 6.158,0.567 9.056,0.48 6.176,-0.186 12.381,0 18.471,-1.22 7.997,-1.601 10.636,-7.944 12.75,-15.157 C 41.203,20.965 44.355,12.237 41.27,5.817 38.141,-0.694 30.141,-1.188 23.898,-1.319 16.456,-1.475 8.086,-1.31 1.515,2.59 -0.153,3.58 -1.662,0.986 0,0" /></g><g
         transform="matrix(1,0,0,0.91192491,306.61832,43.812452)"
         id="g9506"><path
           inkscape:connector-curvature="0"
           id="path9508"
           style="fill:#adadad;fill-opacity:1;fill-rule:nonzero;stroke:none"
           d="m 0,0 c -0.375,-4 -2.625,-6.125 -4.25,-9.625 -1.25,-2.875 -3.875,-5.601 -3.625,-8.851 0.25,-3 1.727,-8.65 3.227,-11.275 1.625,-3 3.856,-5.458 4.606,-8.833 0.75,-4 -2.208,-6.791 3.167,-6.416 2.75,0.25 7.849,0.5 10.224,2.125 3.5,2.25 4.892,3.916 5.642,7.791 0.375,2 -2.473,19.682 -4.848,24.432 C 12.893,-8.402 10,-3.75 7.875,-2.5 6.125,-1.375 3.125,0.625 1,0.75 L 0,0 z" /></g><g
         transform="matrix(1,0,0,0.91192491,297.74332,7.1413068)"
         id="g9510"><path
           inkscape:connector-curvature="0"
           id="path9512"
           style="fill:#bab9b9;fill-opacity:1;fill-rule:nonzero;stroke:none"
           d="m 0,0 c -0.27,6.519 -2.687,12.628 -3.72,19.027 -0.49,3.039 -2.013,5.778 -3,8.667 -1.163,3.404 -2.437,6.696 -4.151,9.859 -0.922,1.701 -3.512,0.187 -2.591,-1.514 2.734,-5.046 4.825,-10.902 6.569,-16.38 0.838,-2.633 1.063,-5.583 1.75,-8.279 C -4.181,7.603 -3.162,3.921 -3,0 -2.92,-1.928 0.08,-1.936 0,0" /></g><g
         transform="matrix(1,0,0,0.91192491,312.12612,10.661702)"
         id="g9514"><path
           inkscape:connector-curvature="0"
           id="path9516"
           style="fill:#999999;fill-opacity:1;fill-rule:nonzero;stroke:none"
           d="m 0,0 c -1.631,4.761 -3.475,9.441 -4.995,14.24 -0.936,2.955 -1.138,4.927 -0.236,7.959 0.722,2.427 1.58,4.759 1.128,7.301 -0.338,1.903 -3.229,1.094 -2.893,-0.797 0.509,-2.863 -1.444,-6.237 -1.962,-9.025 -0.326,-1.757 0.3,-3.593 0.775,-5.26 1.471,-5.166 3.551,-10.14 5.29,-15.215 C -2.27,-2.616 0.629,-1.835 0,0" /></g><g
         transform="matrix(1,0,0,0.91192491,310.40982,36.13678)"
         id="g9518"><path
           inkscape:connector-curvature="0"
           id="path9520"
           style="fill:#999999;fill-opacity:1;fill-rule:nonzero;stroke:none"
           d="m 0,0 c 0.61,-4.606 3.425,-8.236 4.372,-12.729 0.926,-4.403 1.05,-8.943 2.015,-13.336 0.415,-1.89 3.307,-1.088 2.893,0.796 -0.794,3.612 -1.068,7.339 -1.612,10.996 C 6.91,-9.173 3.66,-4.982 3,0 2.75,1.889 -0.253,1.913 0,0" /></g><g
         transform="matrix(1,0,0,0.91192491,258.26672,62.278931)"
         id="g9522"><path
           inkscape:connector-curvature="0"
           id="path9524"
           style="fill:#dd3e65;fill-opacity:1;fill-rule:nonzero;stroke:none"
           d="m 0,0 c 14,14.667 28.477,9.999 46.477,7.332 8.667,-1.666 17.667,-3.333 26.667,-5 5.333,-1 35.333,-23.5 22.333,-28.833 -8.667,-3.667 -21,3.5 -30.333,1.833 -9,-1.666 -16.334,-7.332 -24.667,-11.666 -11.334,-5.666 -51.333,-12 -55.333,10 -1.667,9.666 2.072,10.775 7.405,17.442 L 0,0 z" /></g><g
         transform="matrix(1,0,0,0.91192491,259.32732,61.311835)"
         id="g9526"><path
           inkscape:connector-curvature="0"
           id="path9528"
           style="fill:#ba0047;fill-opacity:1;fill-rule:nonzero;stroke:none"
           d="M 0,0 C 10.367,10.445 22.368,10.564 36.056,8.387 42.834,7.308 49.572,6.07 56.318,4.804 61.833,3.769 68.706,3.665 73.751,1.112 c 6.583,-3.332 12.637,-8.558 17.603,-13.951 2.049,-2.225 4.632,-5.236 4.799,-8.418 0.297,-5.653 -12.072,-3.389 -14.803,-2.869 -5.316,1.013 -10.515,2.507 -15.976,2.193 -6.23,-0.358 -12.342,-3.881 -17.622,-6.889 -8.101,-4.614 -15.028,-7.86 -24.24,-9.394 -8.621,-1.436 -17.929,-1.644 -26.321,1.047 -8.977,2.878 -16.402,14.002 -9.525,22.675 C -8.41,-9.546 -4.061,-4.847 0,0 c 1.233,1.472 -0.877,3.605 -2.121,2.121 -4.28,-5.107 -8.827,-10.07 -12.962,-15.285 -4.504,-5.681 -3.212,-15.076 1.364,-20.397 10.049,-11.682 30.283,-9.483 43.635,-6.448 9.409,2.139 16.825,7.568 25.361,11.825 7.07,3.528 13.342,3.664 20.911,2.087 5.392,-1.123 10.656,-2.393 16.177,-1.536 17.677,2.745 -4.168,22.288 -9.224,26.159 C 80.039,0.9 76.559,3.561 72.785,4.767 67.856,6.342 62.206,6.743 57.115,7.696 51.834,8.686 46.565,9.694 41.262,10.556 33.38,11.835 25.45,13.365 17.442,12.443 9.724,11.556 3.261,7.544 -2.121,2.121 -3.485,0.747 -1.364,-1.375 0,0" /></g><g
         transform="matrix(1,0,0,0.91192491,283.74332,70.485344)"
         id="g9530"><path
           inkscape:connector-curvature="0"
           id="path9532"
           style="fill:#ce2178;fill-opacity:1;fill-rule:nonzero;stroke:none"
           d="m 0,0 c 7.333,-5.333 18.667,-7.333 23.667,-15.667 6,-10 -4.749,-18.04 -7.416,-26.707 8.667,3.333 16.443,8.294 26.443,8.961 7.667,0.666 16.889,-3.586 24.556,-2.586 4.333,0.666 6.75,3.999 4.083,8.666 -2,3.333 -6.166,6.371 -8.833,8.704 -3.333,3 -6.167,6.296 -9.5,8.629 -4,2.667 -8.667,3.333 -13.333,4 C 33,-5.333 27,-3.333 20.333,-2 14,-0.667 0,0 0,0" /></g><g
         transform="matrix(1,0,0,0.91192491,290.49332,71.170199)"
         id="g9534"><path
           inkscape:connector-curvature="0"
           id="path9536"
           style="fill:#e5e5e5;fill-opacity:1;fill-rule:nonzero;stroke:none"
           d="M 0,0 C -2.375,0.625 -6.125,2.5 -8.5,1.125 -13,-1.25 -6.125,-3.125 -4.25,-3.5 -1.5,-4 2.75,-5.25 5.625,-4.75 10,-4 3.375,0.125 1.125,0.25 L 0,0 z" /></g><g
         transform="matrix(1,0,0,0.91192491,290.89222,72.489116)"
         id="g9538"><path
           inkscape:connector-curvature="0"
           id="path9540"
           style="fill:#b2b2b2;fill-opacity:1;fill-rule:nonzero;stroke:none"
           d="m 0,0 c -2.513,0.728 -4.939,1.823 -7.609,1.616 -1.71,-0.133 -4.064,-1.406 -4.256,-3.295 -0.391,-3.845 6.582,-4.642 9.116,-5.19 1.896,-0.41 13.091,-2.622 10.685,2.727 C 6.611,-1.196 2.204,0.667 -0.798,0 -2.686,-0.419 -1.885,-3.312 0,-2.893 1.645,-2.527 3.312,-3.635 4.593,-4.686 5.729,-5.619 4.5,-4.984 5.379,-4.62 4.633,-4.93 3.638,-4.811 2.857,-4.782 c -1.886,0.067 -3.782,0.584 -5.621,0.981 -1.939,0.419 -3.875,0.761 -5.644,1.712 -0.619,0.334 -0.753,-0.135 0.266,0.473 0.919,0.547 2.139,0.241 3.094,0.036 1.446,-0.311 2.832,-0.902 4.25,-1.313 C 1.065,-3.432 1.854,-0.537 0,0" /></g><g
         transform="matrix(1,0,0,0.91192491,257.61832,61.480997)"
         id="g9542"><path
           inkscape:connector-curvature="0"
           id="path9544"
           style="fill:#e5e5e5;fill-opacity:1;fill-rule:nonzero;stroke:none"
           d="M 0,0 C -1,-1 -1.375,-1.625 -2,-2.875 -2.75,-4.5 -3.875,-5.125 -5,-6.5 c -1.25,-1.25 -1.875,-2.375 0.25,-3 1.75,-0.5 3.25,0.75 4.5,1.625 2.625,2 4.5,3.75 4.5,7.25 C 4.25,0.5 4.375,2 3.375,2.875 2,4 0.125,3 0.25,1.25 L 0,0 z" /></g><g
         transform="matrix(1,0,0,0.91192491,256.55782,62.448094)"
         id="g9546"><path
           inkscape:connector-curvature="0"
           id="path9548"
           style="fill:#b2b2b2;fill-opacity:1;fill-rule:nonzero;stroke:none"
           d="m 0,0 c -1.724,-1.824 -2.663,-4.07 -4.439,-5.867 -0.97,-0.981 -2.965,-2.984 -1.888,-4.557 2.782,-4.062 7.76,-0.148 10.238,2.127 2.447,2.247 4.476,7.77 1.997,10.688 -0.972,1.144 -2.944,2.007 -4.354,0.984 -1.505,-1.09 -1.598,-2.329 -1.94,-4.037 -0.378,-1.889 2.514,-2.693 2.893,-0.797 0.083,0.416 0.167,0.833 0.25,1.25 -0.023,0.734 0.327,0.647 1.049,-0.264 0.01,-0.404 0.012,-0.808 0.005,-1.213 -0.019,-2.366 -1.267,-3.878 -2.985,-5.341 -0.784,-0.667 -1.639,-1.244 -2.517,-1.778 -0.75,-0.64 -1.291,-0.733 -1.623,-0.278 0.46,0.584 1.024,1.123 1.546,1.651 1.592,1.611 2.353,3.686 3.889,5.311 C 3.449,-0.717 1.331,1.409 0,0" /></g><g
         transform="matrix(1,0,0,0.91192491,276.74332,58.28926)"
         id="g9550"><path
           inkscape:connector-curvature="0"
           id="path9552"
           style="fill:#e5e5e5;fill-opacity:1;fill-rule:nonzero;stroke:none"
           d="M 0,0 C -2.625,0.875 -7.625,-0.875 -6.25,-4.875 -5,-8 -0.875,-7.875 1.875,-7.75 4,-7.625 9.375,-7.875 10,-5.125 10.625,-2.25 3.375,-0.25 1.125,0 L 0,0 z" /></g><g
         transform="matrix(1,0,0,0.91192491,277.14222,59.608177)"
         id="g9554"><path
           inkscape:connector-curvature="0"
           id="path9556"
           style="fill:#b2b2b2;fill-opacity:1;fill-rule:nonzero;stroke:none"
           d="m 0,0 c -3.817,0.966 -8.58,-1.125 -8.341,-5.552 0.304,-5.664 7.654,-5.212 11.552,-5.083 3.333,0.111 9.799,1.398 7.401,6.181 -1.624,3.24 -7.767,4.508 -11.011,4.508 -1.934,0 -1.934,-3 0,-3 1.7,0 3.253,-0.442 4.862,-0.981 1.016,-0.34 1.955,-0.82 2.858,-1.388 C 9.544,-6.716 5.415,-7.472 4.632,-7.552 2.6,-7.761 0.463,-7.799 -1.575,-7.701 c -1.912,0.093 -5.275,1.725 -3.163,4.015 0.922,1 2.72,1.102 3.94,0.793 C 1.079,-3.367 1.875,-0.474 0,0" /></g><g
         transform="matrix(1,0,0,0.91192491,306.24332,59.885129)"
         id="g9558"><path
           inkscape:connector-curvature="0"
           id="path9560"
           style="fill:#e5e5e5;fill-opacity:1;fill-rule:nonzero;stroke:none"
           d="m 0,0 c 1.056,-2.16 3.25,-2.375 4.125,-4.625 0.75,-1.875 2.25,-5 4.25,-2 2.875,4.375 -5.274,10.627 -8,8.75 C -0.069,1.819 -0.237,0.484 0,0" /></g><g
         transform="matrix(1,0,0,0.91192491,304.94792,59.194984)"
         id="g9562"><path
           inkscape:connector-curvature="0"
           id="path9564"
           style="fill:#b2b2b2;fill-opacity:1;fill-rule:nonzero;stroke:none"
           d="m 0,0 c 0.983,-1.759 2.909,-2.508 3.918,-4.173 0.916,-1.51 1.222,-3.318 2.969,-4.17 1.789,-0.873 3.384,0.553 4.254,2.012 0.764,1.281 0.754,2.871 0.348,4.26 C 10.624,0.893 7.832,3.143 5.095,4.285 2.254,5.472 -1.217,3.872 -0.151,0.358 0.409,-1.488 3.305,-0.7 2.742,1.155 2.583,1.681 2.567,1.801 3.147,1.722 3.865,1.624 4.516,1.306 5.138,0.956 6.612,0.127 8.016,-1.257 8.596,-2.868 8.828,-3.512 8.851,-4.192 8.551,-4.816 8.187,-5.574 8.136,-5.771 7.631,-5.01 7.316,-4.536 7.082,-3.994 6.867,-3.47 5.949,-1.23 3.708,-0.487 2.591,1.514 1.647,3.202 -0.944,1.69 0,0" /></g><g
         transform="matrix(1,0,0,0.91192491,324.74332,66.154612)"
         id="g9566"><path
           inkscape:connector-curvature="0"
           id="path9568"
           style="fill:#e5e5e5;fill-opacity:1;fill-rule:nonzero;stroke:none"
           d="M 0,0 C -2.242,1.174 -7.625,1.375 -5.5,-2.5 -4,-5 0.125,-5.5 2.625,-5.875 4.75,-6.25 10.875,-7.5 7.75,-3.25 5.875,-0.875 4.813,-1.728 2.125,-0.875 1.577,-0.701 0.509,-0.267 0,0" /></g><g
         transform="matrix(1,0,0,0.91192491,325.50012,67.335464)"
         id="g9570"><path
           inkscape:connector-curvature="0"
           id="path9572"
           style="fill:#b2b2b2;fill-opacity:1;fill-rule:nonzero;stroke:none"
           d="m 0,0 c -2.349,1.098 -7.775,1.942 -8.2,-1.86 -0.58,-5.185 6.421,-6.176 9.983,-6.812 2.076,-0.371 7.406,-1.474 7.563,2.007 C 9.583,-1.421 3.218,-1.54 0,0 -1.736,0.831 -3.258,-1.755 -1.514,-2.59 0.403,-3.508 2.271,-3.821 4.313,-4.29 5.089,-4.468 5.655,-5.238 6.068,-5.848 6.654,-6.713 6.572,-6.024 6.367,-6.084 5.585,-6.31 4.528,-6.091 3.743,-5.977 c -2.206,0.321 -4.45,0.636 -6.56,1.369 -0.766,0.265 -3.719,2.321 -1.647,2.546 0.976,0.107 2.065,-0.115 2.95,-0.528 C 0.228,-3.403 1.752,-0.817 0,0" /></g><g
         transform="matrix(1,0,0,0.91192491,337.74332,52.133767)"
         id="g9574"><path
           inkscape:connector-curvature="0"
           id="path9576"
           style="fill:#e5e5e5;fill-opacity:1;fill-rule:nonzero;stroke:none"
           d="m 0,0 c -2.606,0.886 -4.5,0.75 -7.125,0.375 -6.625,-1.125 1.5,-4.25 3.625,-5 2.625,-0.875 6.125,-1.75 9,-1 5,1.5 -1.133,6.249 -3.875,6 C 1.21,0.337 0.395,-0.134 0,0" /></g><g
         transform="matrix(1,0,0,0.91192491,338.14222,53.452684)"
         id="g9578"><path
           inkscape:connector-curvature="0"
           id="path9580"
           style="fill:#b2b2b2;fill-opacity:1;fill-rule:nonzero;stroke:none"
           d="m 0,0 c -2.276,0.696 -11.919,1.937 -11.554,-2.55 0.26,-3.205 6.297,-4.7 8.766,-5.435 2.628,-0.783 12.313,-2.24 11.229,3.25 C 8.102,-3.017 6.698,-1.826 5.317,-0.888 4.555,-0.37 3.662,-0.015 2.784,0.25 1.571,0.616 0.775,0.122 -0.399,0.054 c -1.923,-0.112 -1.934,-3.113 0,-3 1.026,0.059 1.797,0.481 2.813,0.175 0.985,-0.298 1.877,-0.992 2.592,-1.705 1.382,-1.378 -1.491,-1.352 -2.366,-1.379 -1.827,-0.057 -3.67,0.477 -5.404,0.993 -1.774,0.528 -3.522,1.269 -5.114,2.212 -1.199,0.709 0.003,0.033 -0.524,-0.161 0.79,0.291 1.716,0.353 2.535,0.446 1.753,0.197 3.39,-0.014 5.069,-0.528 C 1.057,-3.461 1.844,-0.564 0,0" /></g><g
         transform="matrix(1,0,0,0.91192491,252.57682,43.698461)"
         id="g9582"><path
           inkscape:connector-curvature="0"
           id="path9584"
           style="fill:#e5e5e5;fill-opacity:1;fill-rule:nonzero;stroke:none"
           d="m 0,0 c -1.375,0.125 -3.333,-2.75 -3.708,-4.125 -0.625,-2 1.5,-3.125 3,-3.875 2.5,-1.125 5.625,-1 8.25,-1.125 3,-0.125 6.875,1.375 5.375,5 C 11.792,-1.25 5.792,-0.25 3.042,0 L 0,0 z" /></g><g
         transform="matrix(1,0,0,0.91192491,252.17792,45.017378)"
         id="g9586"><path
           inkscape:connector-curvature="0"
           id="path9588"
           style="fill:#b2b2b2;fill-opacity:1;fill-rule:nonzero;stroke:none"
           d="m 0,0 c -3.997,-0.63 -6.292,-6.438 -3.377,-9.297 3.364,-3.3 11.331,-3.731 15.47,-1.994 4.193,1.76 3.533,6.494 0.348,8.837 -3.278,2.412 -8.146,2.508 -12.042,2.508 -1.935,0 -1.935,-3 0,-3 3.662,0 8.39,-0.013 11.221,-2.694 2.468,-2.336 -1.741,-3.32 -2.915,-3.428 -1.601,-0.149 -3.336,0.075 -4.936,0.184 -1.724,0.118 -3.202,0.619 -4.682,1.479 -2.01,1.17 0.086,4.257 1.711,4.512 C 2.705,-2.592 1.892,0.299 0,0" /></g></g></g></svg>