<?xml version="1.0" encoding="UTF-8" standalone="no"?>
<!-- Created with Inkscape (http://www.inkscape.org/) -->

<svg
   xmlns:dc="http://purl.org/dc/elements/1.1/"
   xmlns:cc="http://creativecommons.org/ns#"
   xmlns:rdf="http://www.w3.org/1999/02/22-rdf-syntax-ns#"
   xmlns:svg="http://www.w3.org/2000/svg"
   xmlns="http://www.w3.org/2000/svg"
   xmlns:sodipodi="http://sodipodi.sourceforge.net/DTD/sodipodi-0.dtd"
   xmlns:inkscape="http://www.inkscape.org/namespaces/inkscape"
   id="svg2"
   version="1.1"
   inkscape:version="0.48.2 r9819"
   width="150"
   height="120"
   xml:space="preserve"
   sodipodi:docname="seat2.svg"><metadata
     id="metadata8"><rdf:RDF><cc:Work
         rdf:about=""><dc:format>image/svg+xml</dc:format><dc:type
           rdf:resource="http://purl.org/dc/dcmitype/StillImage" /><dc:title></dc:title></cc:Work></rdf:RDF></metadata><defs
     id="defs6"><clipPath
       clipPathUnits="userSpaceOnUse"
       id="clipPath18"><path
         d="m 0,1536 2048,0 L 2048,0 0,0 0,1536 z"
         id="path20"
         inkscape:connector-curvature="0" /></clipPath><clipPath
       clipPathUnits="userSpaceOnUse"
       id="clipPath1344"><path
         d="m 0,1536 2048,0 L 2048,0 0,0 0,1536 z"
         id="path1346"
         inkscape:connector-curvature="0" /></clipPath><clipPath
       clipPathUnits="userSpaceOnUse"
       id="clipPath1368"><path
         d="m 0,1536 2048,0 L 2048,0 0,0 0,1536 z"
         id="path1370"
         inkscape:connector-curvature="0" /></clipPath><clipPath
       clipPathUnits="userSpaceOnUse"
       id="clipPath1424"><path
         d="m 0,1536 2048,0 L 2048,0 0,0 0,1536 z"
         id="path1426"
         inkscape:connector-curvature="0" /></clipPath><clipPath
       clipPathUnits="userSpaceOnUse"
       id="clipPath3004"><path
         d="m 0,1536 2048,0 L 2048,0 0,0 0,1536 z"
         id="path3006"
         inkscape:connector-curvature="0" /></clipPath><clipPath
       clipPathUnits="userSpaceOnUse"
       id="clipPath3064"><path
         d="m 611.262,1266.5 30.647,0 0,-34.39 -30.647,0 0,34.39 z"
         id="path3066"
         inkscape:connector-curvature="0" /></clipPath><clipPath
       clipPathUnits="userSpaceOnUse"
       id="clipPath3096"><path
         d="m 767.558,1245.81 30.647,0 0,-34.39 -30.647,0 0,34.39 z"
         id="path3098"
         inkscape:connector-curvature="0" /></clipPath><clipPath
       clipPathUnits="userSpaceOnUse"
       id="clipPath3128"><path
         d="m 1107.38,1247.01 30.65,0 0,-34.39 -30.65,0 0,34.39 z"
         id="path3130"
         inkscape:connector-curvature="0" /></clipPath><clipPath
       clipPathUnits="userSpaceOnUse"
       id="clipPath3160"><path
         d="m 919.184,1250.86 30.647,0 0,-34.39 -30.647,0 0,34.39 z"
         id="path3162"
         inkscape:connector-curvature="0" /></clipPath><clipPath
       clipPathUnits="userSpaceOnUse"
       id="clipPath3192"><path
         d="m 1277.88,1248.99 25.91,0 0,-36.93 -25.91,0 0,36.93 z"
         id="path3194"
         inkscape:connector-curvature="0" /></clipPath><clipPath
       clipPathUnits="userSpaceOnUse"
       id="clipPath3224"><path
         d="m 1439.02,1258.03 25.91,0 0,-36.93 -25.91,0 0,36.93 z"
         id="path3226"
         inkscape:connector-curvature="0" /></clipPath><clipPath
       clipPathUnits="userSpaceOnUse"
       id="clipPath3388"><path
         d="m 0,1536 2048,0 L 2048,0 0,0 0,1536 z"
         id="path3390"
         inkscape:connector-curvature="0" /></clipPath><clipPath
       clipPathUnits="userSpaceOnUse"
       id="clipPath3424"><path
         d="m 1761.68,1506.2 30.64,0 0,-34.4 -30.64,0 0,34.4 z"
         id="path3426"
         inkscape:connector-curvature="0" /></clipPath><clipPath
       clipPathUnits="userSpaceOnUse"
       id="clipPath3444"><path
         d="m 1815.85,1526.96 30.65,0 0,-34.4 -30.65,0 0,34.4 z"
         id="path3446"
         inkscape:connector-curvature="0" /></clipPath><clipPath
       clipPathUnits="userSpaceOnUse"
       id="clipPath3464"><path
         d="m 1867.85,1550.5 30.65,0 0,-34.39 -30.65,0 0,34.39 z"
         id="path3466"
         inkscape:connector-curvature="0" /></clipPath><clipPath
       clipPathUnits="userSpaceOnUse"
       id="clipPath3484"><path
         d="m 1912.11,1476.5 30.65,0 0,-34.39 -30.65,0 0,34.39 z"
         id="path3486"
         inkscape:connector-curvature="0" /></clipPath><clipPath
       clipPathUnits="userSpaceOnUse"
       id="clipPath3504"><path
         d="m 1864.17,1450.46 30.65,0 0,-34.4 -30.65,0 0,34.4 z"
         id="path3506"
         inkscape:connector-curvature="0" /></clipPath><clipPath
       clipPathUnits="userSpaceOnUse"
       id="clipPath3524"><path
         d="m 1815.85,1427.5 30.65,0 0,-34.39 -30.65,0 0,34.39 z"
         id="path3526"
         inkscape:connector-curvature="0" /></clipPath><clipPath
       clipPathUnits="userSpaceOnUse"
       id="clipPath3544"><path
         d="m 1768.76,1411.38 30.65,0 0,-34.4 -30.65,0 0,34.4 z"
         id="path3546"
         inkscape:connector-curvature="0" /></clipPath><clipPath
       clipPathUnits="userSpaceOnUse"
       id="clipPath3564"><path
         d="m 1746.35,1363 30.65,0 0,-34.39 -30.65,0 0,34.39 z"
         id="path3566"
         inkscape:connector-curvature="0" /></clipPath><clipPath
       clipPathUnits="userSpaceOnUse"
       id="clipPath3584"><path
         d="m 1797.17,1339.78 30.65,0 0,-34.39 -30.65,0 0,34.39 z"
         id="path3586"
         inkscape:connector-curvature="0" /></clipPath><clipPath
       clipPathUnits="userSpaceOnUse"
       id="clipPath3604"><path
         d="m 1855.65,1330.5 30.65,0 0,-34.39 -30.65,0 0,34.39 z"
         id="path3606"
         inkscape:connector-curvature="0" /></clipPath><clipPath
       clipPathUnits="userSpaceOnUse"
       id="clipPath3624"><path
         d="m 1912.11,1323.5 30.65,0 0,-34.39 -30.65,0 0,34.39 z"
         id="path3626"
         inkscape:connector-curvature="0" /></clipPath><clipPath
       clipPathUnits="userSpaceOnUse"
       id="clipPath3644"><path
         d="m 1962.35,1323.5 30.65,0 0,-34.39 -30.65,0 0,34.39 z"
         id="path3646"
         inkscape:connector-curvature="0" /></clipPath><clipPath
       clipPathUnits="userSpaceOnUse"
       id="clipPath3664"><path
         d="m 1971.35,1266.5 30.65,0 0,-34.39 -30.65,0 0,34.39 z"
         id="path3666"
         inkscape:connector-curvature="0" /></clipPath><clipPath
       clipPathUnits="userSpaceOnUse"
       id="clipPath3684"><path
         d="m 1927.75,1235 30.65,0 0,-34.39 -30.65,0 0,34.39 z"
         id="path3686"
         inkscape:connector-curvature="0" /></clipPath><clipPath
       clipPathUnits="userSpaceOnUse"
       id="clipPath3704"><path
         d="m 1874.29,1206.5 30.64,0 0,-34.39 -30.64,0 0,34.39 z"
         id="path3706"
         inkscape:connector-curvature="0" /></clipPath><clipPath
       clipPathUnits="userSpaceOnUse"
       id="clipPath3724"><path
         d="m 1822.02,1177 30.64,0 0,-34.39 -30.64,0 0,34.39 z"
         id="path3726"
         inkscape:connector-curvature="0" /></clipPath><clipPath
       clipPathUnits="userSpaceOnUse"
       id="clipPath3744"><path
         d="m 1822.02,1008.75 30.64,0 0,-34.393 -30.64,0 0,34.393 z"
         id="path3746"
         inkscape:connector-curvature="0" /></clipPath><clipPath
       clipPathUnits="userSpaceOnUse"
       id="clipPath3764"><path
         d="m 1868.85,1043 30.65,0 0,-34.39 -30.65,0 0,34.39 z"
         id="path3766"
         inkscape:connector-curvature="0" /></clipPath><clipPath
       clipPathUnits="userSpaceOnUse"
       id="clipPath3784"><path
         d="m 1916.35,1076.89 30.65,0 0,-34.39 -30.65,0 0,34.39 z"
         id="path3786"
         inkscape:connector-curvature="0" /></clipPath><clipPath
       clipPathUnits="userSpaceOnUse"
       id="clipPath3804"><path
         d="m 1962.35,1110 30.65,0 0,-34.39 -30.65,0 0,34.39 z"
         id="path3806"
         inkscape:connector-curvature="0" /></clipPath><clipPath
       clipPathUnits="userSpaceOnUse"
       id="clipPath3824"><path
         d="m 2000.35,1142 30.65,0 0,-34.39 -30.65,0 0,34.39 z"
         id="path3826"
         inkscape:connector-curvature="0" /></clipPath><clipPath
       clipPathUnits="userSpaceOnUse"
       id="clipPath3844"><path
         d="m 1981.35,942.5 30.65,0 0,-34.395 -30.65,0 0,34.395 z"
         id="path3846"
         inkscape:connector-curvature="0" /></clipPath><clipPath
       clipPathUnits="userSpaceOnUse"
       id="clipPath3864"><path
         d="m 1932.85,920.5 30.65,0 0,-34.395 -30.65,0 0,34.395 z"
         id="path3866"
         inkscape:connector-curvature="0" /></clipPath><clipPath
       clipPathUnits="userSpaceOnUse"
       id="clipPath3884"><path
         d="m 1887.85,901.5 30.65,0 0,-34.395 -30.65,0 0,34.395 z"
         id="path3886"
         inkscape:connector-curvature="0" /></clipPath><clipPath
       clipPathUnits="userSpaceOnUse"
       id="clipPath3904"><path
         d="m 1836.85,882 30.65,0 0,-34.395 -30.65,0 0,34.395 z"
         id="path3906"
         inkscape:connector-curvature="0" /></clipPath><clipPath
       clipPathUnits="userSpaceOnUse"
       id="clipPath3944"><path
         d="m 186.853,1503.5 30.647,0 0,-34.39 -30.647,0 0,34.39 z"
         id="path3946"
         inkscape:connector-curvature="0" /></clipPath><clipPath
       clipPathUnits="userSpaceOnUse"
       id="clipPath3964"><path
         d="m 122.353,1531 30.647,0 0,-34.39 -30.647,0 0,34.39 z"
         id="path3966"
         inkscape:connector-curvature="0" /></clipPath><clipPath
       clipPathUnits="userSpaceOnUse"
       id="clipPath3984"><path
         d="m 63.3525,1546.39 30.6475,0 0,-34.39 -30.6475,0 0,34.39 z"
         id="path3986"
         inkscape:connector-curvature="0" /></clipPath><clipPath
       clipPathUnits="userSpaceOnUse"
       id="clipPath4004"><path
         d="m 195.349,1385.5 30.647,0 0,-34.39 -30.647,0 0,34.39 z"
         id="path4006"
         inkscape:connector-curvature="0" /></clipPath><clipPath
       clipPathUnits="userSpaceOnUse"
       id="clipPath4024"><path
         d="m 147.6,1359.5 30.647,0 0,-34.39 -30.647,0 0,34.39 z"
         id="path4026"
         inkscape:connector-curvature="0" /></clipPath><clipPath
       clipPathUnits="userSpaceOnUse"
       id="clipPath4044"><path
         d="m 79.3525,1332.47 30.6475,0 0,-34.39 -30.6475,0 0,34.39 z"
         id="path4046"
         inkscape:connector-curvature="0" /></clipPath><clipPath
       clipPathUnits="userSpaceOnUse"
       id="clipPath4064"><path
         d="m 84.8525,1207.3 30.6475,0 0,-34.39 -30.6475,0 0,34.39 z"
         id="path4066"
         inkscape:connector-curvature="0" /></clipPath><clipPath
       clipPathUnits="userSpaceOnUse"
       id="clipPath4084"><path
         d="m 147.6,1193.5 30.647,0 0,-34.39 -30.647,0 0,34.39 z"
         id="path4086"
         inkscape:connector-curvature="0" /></clipPath><clipPath
       clipPathUnits="userSpaceOnUse"
       id="clipPath4104"><path
         d="m 219.493,1184.98 30.647,0 0,-34.39 -30.647,0 0,34.39 z"
         id="path4106"
         inkscape:connector-curvature="0" /></clipPath><clipPath
       clipPathUnits="userSpaceOnUse"
       id="clipPath4124"><path
         d="m 223.353,1039.5 30.647,0 0,-34.39 -30.647,0 0,34.39 z"
         id="path4126"
         inkscape:connector-curvature="0" /></clipPath><clipPath
       clipPathUnits="userSpaceOnUse"
       id="clipPath4144"><path
         d="m 164.125,1058.5 30.647,0 0,-34.39 -30.647,0 0,34.39 z"
         id="path4146"
         inkscape:connector-curvature="0" /></clipPath><clipPath
       clipPathUnits="userSpaceOnUse"
       id="clipPath4164"><path
         d="m 103.853,1075.7 30.647,0 0,-34.4 -30.647,0 0,34.4 z"
         id="path4166"
         inkscape:connector-curvature="0" /></clipPath><clipPath
       clipPathUnits="userSpaceOnUse"
       id="clipPath4184"><path
         d="m 52.8213,1104.77 30.6475,0 0,-34.4 -30.6475,0 0,34.4 z"
         id="path4186"
         inkscape:connector-curvature="0" /></clipPath><clipPath
       clipPathUnits="userSpaceOnUse"
       id="clipPath4204"><path
         d="m 67.7275,979.697 30.6475,0 0,-34.394 -30.6475,0 0,34.394 z"
         id="path4206"
         inkscape:connector-curvature="0" /></clipPath><clipPath
       clipPathUnits="userSpaceOnUse"
       id="clipPath4224"><path
         d="m 122.853,951.5 30.647,0 0,-34.395 -30.647,0 0,34.395 z"
         id="path4226"
         inkscape:connector-curvature="0" /></clipPath><clipPath
       clipPathUnits="userSpaceOnUse"
       id="clipPath4244"><path
         d="m 188.853,941.5 30.647,0 0,-34.395 -30.647,0 0,34.395 z"
         id="path4246"
         inkscape:connector-curvature="0" /></clipPath><clipPath
       clipPathUnits="userSpaceOnUse"
       id="clipPath4264"><path
         d="m 249.853,941.5 30.647,0 0,-34.395 -30.647,0 0,34.395 z"
         id="path4266"
         inkscape:connector-curvature="0" /></clipPath><clipPath
       clipPathUnits="userSpaceOnUse"
       id="clipPath4280"><path
         d="m 0,1536 2048,0 L 2048,0 0,0 0,1536 z"
         id="path4282"
         inkscape:connector-curvature="0" /></clipPath><clipPath
       clipPathUnits="userSpaceOnUse"
       id="clipPath4296"><path
         d="m 1559.35,1313.59 110.5,0 0,-122.02 -110.5,0 0,122.02 z"
         id="path4298"
         inkscape:connector-curvature="0" /></clipPath><clipPath
       clipPathUnits="userSpaceOnUse"
       id="clipPath4312"><path
         d="m 1610.37,1351.76 49.6,0 0,-62.56 -49.6,0 0,62.56 z"
         id="path4314"
         inkscape:connector-curvature="0" /></clipPath><clipPath
       clipPathUnits="userSpaceOnUse"
       id="clipPath4336"><path
         d="m 362.812,1344.69 111.164,0 0,-119.41 -111.164,0 0,119.41 z"
         id="path4338"
         inkscape:connector-curvature="0" /></clipPath><clipPath
       clipPathUnits="userSpaceOnUse"
       id="clipPath4352"><path
         d="m 414.101,1391.91 42.049,0 0,-69.16 -42.049,0 0,69.16 z"
         id="path4354"
         inkscape:connector-curvature="0" /></clipPath><clipPath
       clipPathUnits="userSpaceOnUse"
       id="clipPath4368"><path
         d="m 0,1536 2048,0 L 2048,0 0,0 0,1536 z"
         id="path4370"
         inkscape:connector-curvature="0" /></clipPath><clipPath
       clipPathUnits="userSpaceOnUse"
       id="clipPath4408"><path
         d="m 925.334,1463.92 313.186,0 0,-311.53 -313.186,0 0,311.53 z"
         id="path4410"
         inkscape:connector-curvature="0" /></clipPath><clipPath
       clipPathUnits="userSpaceOnUse"
       id="clipPath4428"><path
         d="m 0,1536 2048,0 L 2048,0 0,0 0,1536 z"
         id="path4430"
         inkscape:connector-curvature="0" /></clipPath><clipPath
       clipPathUnits="userSpaceOnUse"
       id="clipPath8244"><path
         d="m 0,1536 2048,0 L 2048,0 0,0 0,1536 z"
         id="path8246"
         inkscape:connector-curvature="0" /></clipPath><clipPath
       clipPathUnits="userSpaceOnUse"
       id="clipPath8670"><path
         d="m 0,1536 2048,0 L 2048,0 0,0 0,1536 z"
         id="path8672"
         inkscape:connector-curvature="0" /></clipPath><clipPath
       clipPathUnits="userSpaceOnUse"
       id="clipPath8678"><path
         d="m 60.0376,1304.57 119.0554,0 0,-209.78 -119.0554,0 0,209.78 z"
         id="path8680"
         inkscape:connector-curvature="0" /></clipPath><clipPath
       clipPathUnits="userSpaceOnUse"
       id="clipPath8706"><path
         d="m 61.8003,1265.87 38.0488,0 0,-103.11 -38.0488,0 0,103.11 z"
         id="path8708"
         inkscape:connector-curvature="0" /></clipPath><clipPath
       clipPathUnits="userSpaceOnUse"
       id="clipPath8794"><path
         d="m 118.674,1228.21 30.767,0 0,-72.51 -30.767,0 0,72.51 z"
         id="path8796"
         inkscape:connector-curvature="0" /></clipPath><clipPath
       clipPathUnits="userSpaceOnUse"
       id="clipPath8832"><path
         d="m 37.548,1346.68 151.654,0 0,151.653 -151.654,0 0,-151.653 z"
         id="path8834"
         inkscape:connector-curvature="0" /></clipPath><clipPath
       clipPathUnits="userSpaceOnUse"
       id="clipPath8888"><path
         d="m 0,1536 2048,0 L 2048,0 0,0 0,1536 z"
         id="path8890"
         inkscape:connector-curvature="0" /></clipPath><clipPath
       clipPathUnits="userSpaceOnUse"
       id="clipPath8896"><path
         d="m 48.686,1488.27 141.732,0 0,-140.89 -141.732,0 0,140.89 z"
         id="path8898"
         inkscape:connector-curvature="0" /></clipPath></defs><sodipodi:namedview
     pagecolor="#ffffff"
     bordercolor="#666666"
     borderopacity="1"
     objecttolerance="10"
     gridtolerance="10"
     guidetolerance="10"
     inkscape:pageopacity="0"
     inkscape:pageshadow="2"
     inkscape:window-width="1600"
     inkscape:window-height="837"
     id="namedview4"
     showgrid="false"
     inkscape:zoom="2.9118731"
     inkscape:cx="206.22464"
     inkscape:cy="56.408198"
     inkscape:window-x="-8"
     inkscape:window-y="-8"
     inkscape:window-maximized="1"
     inkscape:current-layer="g10" /><g
     id="g10"
     inkscape:groupmode="layer"
     inkscape:label="screen__wald_cs5"
     transform="matrix(1.25,0,0,-1.25,0,120)"><g
       id="g11800"
       transform="translate(-370.47301,-67.496873)"><g
         transform="translate(408.3076,112.5938)"
         id="g5248"><path
           inkscape:connector-curvature="0"
           id="path5250"
           style="fill:#e5e5e5;fill-opacity:1;fill-rule:nonzero;stroke:none"
           d="m 0,0 c 0,-8.641 -2.88,-24 5.76,-28.32 4.801,-1.921 38.88,-7.201 40.32,0 0,1.44 -4.32,4.32 -5.28,6.24 -1.44,3.359 -1.44,8.159 -0.96,11.52 0.48,5.28 5.28,11.999 1.92,16.799 C 38.4,11.04 8.64,15.84 3.36,13.439 -1.92,11.04 -1.44,6.239 -0.48,0.96 L 0,0 z" /></g><g
         transform="translate(406.8076,112.5938)"
         id="g5252"><path
           inkscape:connector-curvature="0"
           id="path5254"
           style="fill:#b2b2b2;fill-opacity:1;fill-rule:nonzero;stroke:none"
           d="m 0,0 c -0.095,-8.41 -2.083,-17.94 2.258,-25.654 2.949,-5.241 9.996,-5.535 15.252,-6.335 7.615,-1.158 15.546,-2.033 23.238,-1.217 3.094,0.329 11.43,2.678 7.203,7.259 -2.099,2.274 -4.243,3.821 -5.029,7.01 -0.814,3.301 -0.417,7.246 0.347,10.505 1.112,4.744 3.643,8.985 2.073,13.93 -1.787,5.633 -12.191,6.872 -16.856,7.857 -6.938,1.466 -15.025,3.096 -22.125,1.999 -7.48,-1.157 -9.134,-10.156 -6.156,-16.111 0.865,-1.73 3.453,-0.211 2.59,1.514 -1.868,3.736 -1.321,10.199 3.288,11.509 2.18,0.62 4.777,0.326 7.004,0.21 6.676,-0.349 13.367,-1.562 19.83,-3.237 2.607,-0.676 5.229,-1.483 7.62,-2.739 4.24,-2.227 1.812,-8.05 0.663,-11.477 -1.987,-5.924 -3.222,-14.669 1.269,-19.746 0.346,-0.391 3.724,-3.185 3.517,-3.603 -0.423,-0.85 -1.894,-1.166 -2.69,-1.397 -2.547,-0.739 -5.333,-0.744 -7.963,-0.768 -6.308,-0.06 -12.663,0.695 -18.882,1.683 -5.465,0.87 -10.578,1.248 -12.765,7.172 C 1.216,-14.947 2.922,-6.942 3,0 3.022,1.936 0.022,1.934 0,0" /></g><g
         transform="translate(435.3335,98.999)"
         id="g5256"><path
           inkscape:connector-curvature="0"
           id="path5258"
           style="fill:#adadad;fill-opacity:1;fill-rule:nonzero;stroke:none"
           d="m 0,0 c 1.667,-4.666 1,-8.5 1.5,-13.166 0.167,-1.167 -1.669,-4.202 -0.502,-5.035 1.666,-1 8.169,-0.299 9.835,0.035 1.5,0.333 5.834,0.5 6.834,1.833 1.5,1.667 -0.334,4.833 -1.334,6.5 -2.5,4 -4,6.5 -4.166,11.667 0,3.166 1.111,5.02 2.444,7.854 1.334,3.333 3.222,5.98 1.056,9.146 C 14,21.334 3.584,24.918 0.751,25.251 0.751,25.251 -3.5,9.167 0,0" /></g><g
         transform="translate(412.3687,122.1445)"
         id="g5260"><path
           inkscape:connector-curvature="0"
           id="path5262"
           style="fill:#bab9b9;fill-opacity:1;fill-rule:nonzero;stroke:none"
           d="m 0,0 c 0.291,-4.769 1.815,-9.009 1.49,-13.828 -0.355,-5.266 -1.076,-10.536 -1.161,-15.817 -0.031,-1.935 2.969,-1.932 3,0 0.079,4.94 0.707,9.883 1.087,14.805 C 4.823,-9.563 3.318,-5.218 3,0 2.883,1.922 -0.118,1.934 0,0" /></g><g
         transform="translate(420.167,122.1445)"
         id="g5264"><path
           inkscape:connector-curvature="0"
           id="path5266"
           style="fill:#bab9b9;fill-opacity:1;fill-rule:nonzero;stroke:none"
           d="m 0,0 c 0.172,-6.354 1.193,-12.61 1.249,-18.984 0.045,-5.118 -0.179,-10.323 0.459,-15.411 0.237,-1.892 3.24,-1.916 3,0 C 4.071,-29.309 4.282,-24.1 4.249,-18.984 4.208,-12.609 3.172,-6.354 3,0 2.948,1.931 -0.053,1.936 0,0" /></g><g
         transform="translate(428.75,120.25)"
         id="g5268"><path
           inkscape:connector-curvature="0"
           id="path5270"
           style="fill:#bab9b9;fill-opacity:1;fill-rule:nonzero;stroke:none"
           d="m 0,0 c 0.025,-3.212 -1.054,-6.204 -1.378,-9.375 -0.214,-2.09 0.614,-4.379 0.972,-6.427 0.906,-5.192 1.786,-10.544 1.906,-15.823 0.044,-1.932 3.044,-1.936 3,0 -0.109,4.818 -0.932,9.667 -1.657,14.424 -0.393,2.576 -1.152,5.217 -1.221,7.826 C 1.538,-6.259 3.025,-3.194 3,0 2.984,1.934 -0.016,1.936 0,0" /></g><g
         transform="translate(439.0537,118.4346)"
         id="g5272"><path
           inkscape:connector-curvature="0"
           id="path5274"
           style="fill:#999999;fill-opacity:1;fill-rule:nonzero;stroke:none"
           d="m 0,0 c 0.692,-3.98 -1.225,-5.749 -1.457,-9.314 -0.145,-2.242 0.21,-4.213 0.665,-6.403 1.183,-5.694 1.996,-11.341 3.625,-16.949 0.539,-1.855 3.434,-1.065 2.893,0.797 -1.626,5.598 -2.592,11.226 -3.625,16.95 -0.683,3.783 -0.247,6.318 0.816,9.94 0.57,1.941 0.314,3.833 -0.024,5.776 C 2.562,2.7 -0.329,1.892 0,0" /></g><g
         transform="translate(388.6279,150.5137)"
         id="g5276"><path
           inkscape:connector-curvature="0"
           id="path5278"
           style="fill:#dd3e65;fill-opacity:1;fill-rule:nonzero;stroke:none"
           d="m 0,0 c -6.952,-2.266 -10.561,-7.2 -12,-14.4 -0.96,-2.88 -1.44,-9.121 0.48,-12 4.32,-5.761 27.84,-5.281 35.52,-6.72 13.92,-2.401 28.32,-3.84 41.76,-6.241 9.12,-1.918 27.84,-10.559 30.72,3.361 1.44,8.159 -7.2,22.56 -12.96,27.84 C 69.12,3.839 41.427,11.306 23.04,5.279 17.424,3.439 5.618,1.83 0,0" /></g><g
         transform="translate(388.229,151.96)"
         id="g5280"><path
           inkscape:connector-curvature="0"
           id="path5282"
           style="fill:#ba0047;fill-opacity:1;fill-rule:nonzero;stroke:none"
           d="m 0,0 c -9.138,-3.295 -13.08,-11.152 -13.9,-20.485 -0.831,-9.454 5.61,-11.762 13.632,-13.109 9.297,-1.56 18.766,-1.534 28.075,-3.052 14.01,-2.283 28.69,-2.882 42.375,-6.756 7.202,-2.038 16.104,-5.419 23.3,-1.699 7.833,4.051 4.722,14.817 2.088,20.955 C 91.475,-14.598 85.031,-7.588 76.075,-2.509 66.203,3.089 54.861,6.191 43.611,7.234 36.282,7.915 29.066,7.131 22.049,4.975 14.843,2.761 7.215,2.205 0,0 c -1.844,-0.563 -1.058,-3.46 0.798,-2.893 4.705,1.439 9.59,2.247 14.408,3.211 5.025,1.006 9.886,2.691 14.928,3.567 11.461,1.991 23.706,-0.546 34.486,-4.439 10.52,-3.8 19.253,-9.498 25.191,-19.076 4.977,-8.028 10.693,-24.461 -4.382,-24.06 -4.212,0.112 -8.431,1.456 -12.451,2.605 -5.196,1.487 -10.366,2.423 -15.716,3.234 -12.182,1.848 -24.503,4.066 -36.758,5.284 -8.69,0.862 -17.645,0.738 -26.086,3.223 -6.043,1.78 -6.095,7.729 -4.573,13.099 1.811,6.39 4.383,10.983 10.953,13.352 C 2.603,-2.241 1.825,0.658 0,0" /></g><g
         transform="translate(429.167,156.833)"
         id="g5284"><path
           inkscape:connector-curvature="0"
           id="path5286"
           style="fill:#ce2178;fill-opacity:1;fill-rule:nonzero;stroke:none"
           d="m 0,0 c 3.333,-2.833 18.83,-12.254 20.583,-16.262 6.079,-13.899 -11.98,-21.347 -10.313,-25.18 2.933,-0.893 8.37,-1.962 14.131,-3.224 9.299,-2.037 19.727,-4.966 23.432,-3.834 10,3.334 7.5,13.834 3.334,21.167 C 47,-20 42.156,-13.5 34.156,-10 25.989,-6.333 24.367,-5.512 15.867,-2.679 13.367,-1.845 0,0 0,0" /></g><g
         transform="translate(398,154.25)"
         id="g5288"><path
           inkscape:connector-curvature="0"
           id="path5290"
           style="fill:#e5e5e5;fill-opacity:1;fill-rule:nonzero;stroke:none"
           d="m 0,0 c -3.25,0 -13.75,-2.25 -6.5,-5.25 4.75,-2 13.75,1 7.75,5.25 L 0,0 z" /></g><g
         transform="translate(398,155.75)"
         id="g5292"><path
           inkscape:connector-curvature="0"
           id="path5294"
           style="fill:#b2b2b2;fill-opacity:1;fill-rule:nonzero;stroke:none"
           d="m 0,0 c -2.9,-0.036 -6.415,-0.646 -8.898,-2.214 -1.099,-0.694 -1.862,-1.85 -1.492,-3.177 0.467,-1.678 2.631,-2.528 4.093,-3.026 3.058,-1.04 7.795,-0.611 10.102,1.864 1.149,1.234 1.157,2.92 0.305,4.312 C 3.593,-1.396 2.789,-0.784 2.007,-0.205 1.518,0.158 0.569,0 0,0 -1.935,0 -1.935,-3 0,-3 l 1.002,0 c 0.29,0.013 0.24,-0.012 -0.151,-0.074 0.24,-0.197 0.484,-0.43 0.669,-0.681 0.437,-0.598 0.055,-0.874 -0.502,-1.221 -1.92,-1.194 -4.755,-1.147 -6.823,-0.444 -0.544,0.185 -1.057,0.482 -1.537,0.793 -0.477,0.309 -0.056,0.283 -0.169,-0.188 -0.06,-0.254 0.193,0.052 0.315,0.129 0.408,0.258 0.859,0.43 1.311,0.591 C -4.033,-3.434 -1.97,-3.024 0,-3 1.933,-2.976 1.936,0.024 0,0" /></g><g
         transform="translate(426.75,150.5)"
         id="g5296"><path
           inkscape:connector-curvature="0"
           id="path5298"
           style="fill:#e5e5e5;fill-opacity:1;fill-rule:nonzero;stroke:none"
           d="M 0,0 C -3.25,2 -16.75,0.25 -11.25,-4 -9,-6 2,-6.25 1,-1.25 L 0,0 z" /></g><g
         transform="translate(427.5068,151.7949)"
         id="g5300"><path
           inkscape:connector-curvature="0"
           id="path5302"
           style="fill:#b2b2b2;fill-opacity:1;fill-rule:nonzero;stroke:none"
           d="m 0,0 c -3.098,1.706 -7.615,1.198 -10.876,0.28 -3.125,-0.881 -5.362,-3.634 -2.538,-6.349 2.617,-2.517 7.464,-2.384 10.738,-1.648 1.675,0.376 3.444,1.331 4.144,2.973 0.803,1.883 -0.018,3.076 -1.164,4.51 -1.209,1.51 -3.317,-0.627 -2.121,-2.121 0.811,-1.015 1.016,-0.829 0.175,-1.671 -0.758,-0.76 -2.256,-0.935 -3.257,-1.042 -1.974,-0.212 -4.779,-0.214 -6.393,1.12 -0.762,0.629 -0.705,0.461 0.173,0.942 0.942,0.517 2.127,0.688 3.172,0.859 1.907,0.311 4.672,0.527 6.433,-0.443 C 0.182,-3.523 1.695,-0.933 0,0" /></g><g
         transform="translate(447.25,137.25)"
         id="g5304"><path
           inkscape:connector-curvature="0"
           id="path5306"
           style="fill:#e5e5e5;fill-opacity:1;fill-rule:nonzero;stroke:none"
           d="M 0,0 C -2.25,1.5 -3.5,3.75 -6.75,3.25 -11,2.5 -8.25,-2 -5.75,-4.5 -4,-6 1.25,-9.5 3.25,-7.75 6,-5.5 3.75,-2.5 1.75,-1.5 L 0,0 z" /></g><g
         transform="translate(448.0068,138.5449)"
         id="g5308"><path
           inkscape:connector-curvature="0"
           id="path5310"
           style="fill:#b2b2b2;fill-opacity:1;fill-rule:nonzero;stroke:none"
           d="m 0,0 c -1.756,1.245 -3.117,2.802 -5.265,3.379 -1.694,0.455 -4.516,0.037 -5.435,-1.691 -1.83,-3.442 1.755,-7.536 4.33,-9.485 2.707,-2.049 7.977,-5.195 10.673,-1.513 2.9,3.961 -1.318,6.777 -3.999,9.076 -1.46,1.252 -3.593,-0.861 -2.121,-2.121 1.336,-1.146 3.508,-2.296 4.058,-3.999 0.697,-2.162 -2.088,-1.562 -2.973,-1.252 -1.196,0.417 -2.313,1.163 -3.361,1.859 -1.847,1.227 -3.54,3.106 -4.105,5.294 -0.396,1.533 2.586,0.861 3.247,0.516 1.256,-0.656 2.28,-1.833 3.437,-2.653 C 0.068,-3.712 1.564,-1.108 0,0" /></g><g
         transform="translate(454.75,152.25)"
         id="g5312"><path
           inkscape:connector-curvature="0"
           id="path5314"
           style="fill:#e5e5e5;fill-opacity:1;fill-rule:nonzero;stroke:none"
           d="M 0,0 C -2.25,1.5 -3.5,2.25 -6.25,1.75 -8,-3 4.75,-8.5 8.5,-8.5 9.25,-4.75 4,-2 1.5,-0.5 L 0,0 z" /></g><g
         transform="translate(455.5068,153.5449)"
         id="g5316"><path
           inkscape:connector-curvature="0"
           id="path5318"
           style="fill:#b2b2b2;fill-opacity:1;fill-rule:nonzero;stroke:none"
           d="M 0,0 C -2.469,1.622 -4.451,2.299 -7.406,1.901 -7.906,1.834 -8.325,1.306 -8.453,0.854 -10.41,-6.043 2.626,-11.102 7.743,-11.295 c 0.883,-0.033 1.413,0.713 1.5,1.5 0.553,5.012 -5.525,8.588 -9.601,9.946 -1.841,0.614 -2.623,-2.284 -0.798,-2.892 2.856,-0.952 7.783,-3.57 7.399,-7.054 l 1.5,1.5 c -2.583,0.098 -5.249,1.372 -7.513,2.506 -1.791,0.896 -6.526,3.253 -5.791,5.846 -0.349,-0.35 -0.698,-0.7 -1.047,-1.048 2.081,0.279 3.423,-0.502 5.094,-1.599 C 0.108,-3.655 1.61,-1.057 0,0" /></g><g
         transform="translate(477.5,133.75)"
         id="g5320"><path
           inkscape:connector-curvature="0"
           id="path5322"
           style="fill:#e5e5e5;fill-opacity:1;fill-rule:nonzero;stroke:none"
           d="M 0,0 C -3.75,3.5 -6.5,3.75 -4.75,-3.25 -3.5,-7.5 0,-9 4.25,-9.5 5,-7 2.25,-3 1,-0.75 L 0,0 z" /></g><g
         transform="translate(478.5605,134.8105)"
         id="g5324"><path
           inkscape:connector-curvature="0"
           id="path5326"
           style="fill:#b2b2b2;fill-opacity:1;fill-rule:nonzero;stroke:none"
           d="m 0,0 c -1.405,1.284 -3.102,2.792 -5.115,2.832 -2.139,0.043 -2.755,-2.239 -2.728,-3.943 0.046,-2.94 1.101,-5.935 3.248,-7.974 2.085,-1.979 5.033,-2.622 7.784,-2.976 0.629,-0.081 1.315,0.515 1.447,1.102 0.525,2.332 -0.45,4.531 -1.501,6.573 -0.939,1.824 -1.802,3.393 -3.439,4.62 -1.549,1.162 -3.041,-1.444 -1.513,-2.589 1.004,-0.754 1.038,-1.192 1.856,-2.623 0.824,-1.44 2.095,-3.447 1.704,-5.184 0.482,0.367 0.965,0.734 1.446,1.101 -3.664,0.472 -6.79,1.938 -7.704,5.785 -0.201,0.844 -0.321,1.692 -0.335,2.56 -0.011,0.707 0.325,0.622 -0.265,0.548 0.983,0.123 2.358,-1.372 2.994,-1.953 C -0.696,-3.423 1.431,-1.308 0,0" /></g><g
         transform="translate(380,141.75)"
         id="g5328"><path
           inkscape:connector-curvature="0"
           id="path5330"
           style="fill:#e5e5e5;fill-opacity:1;fill-rule:nonzero;stroke:none"
           d="M 0,0 C -3.25,-6.25 2.25,-12.25 9.5,-10.25 17.75,-8 5.75,0 1.5,0.5 L 0,0 z" /></g><g
         transform="translate(378.7046,142.5068)"
         id="g5332"><path
           inkscape:connector-curvature="0"
           id="path5334"
           style="fill:#b2b2b2;fill-opacity:1;fill-rule:nonzero;stroke:none"
           d="m 0,0 c -2.113,-4.403 -1.071,-9.288 3.324,-11.771 2.975,-1.681 9.862,-1.931 11.495,1.894 1.411,3.308 -2.42,6.281 -4.737,7.919 C 8.506,-0.845 6.771,0.038 4.97,0.724 3.433,1.309 2.418,1.197 0.896,0.689 -0.929,0.081 -0.146,-2.816 1.694,-2.203 c 0.37,0.123 0.741,0.247 1.111,0.37 0.54,0.18 -0.573,0.207 0.416,-0.033 1.097,-0.268 2.124,-0.785 3.114,-1.311 2.065,-1.096 4.352,-2.58 5.564,-4.638 C 13.255,-10.117 7.071,-9.9 5.935,-9.61 2.219,-8.662 1.05,-4.725 2.591,-1.514 3.423,0.222 0.837,1.744 0,0" /></g><g
         transform="translate(406.5,86)"
         id="g8296"><path
           inkscape:connector-curvature="0"
           id="path8298"
           style="fill:#359335;fill-opacity:1;fill-rule:nonzero;stroke:none"
           d="M 0,0 C 0,4 -0.5,8 0.5,11.5 1.5,7 4.5,3 8,0.5 8,2 8.5,3.5 8.5,5 c 0,-2.5 1,-5 2.5,-7 0.5,1 2.5,2 3,2.5 1,-1.5 3.5,-3 4.5,-4.5 3.5,9 7.5,-6.5 12,2 0.5,-1.5 2.5,-4 3,-5 1.5,2.5 3,5.5 4.5,7.5 3.5,-2 6.5,-3 7.5,-7 1,0 1,1 1,1 1,-0.5 1.5,-1 2,-1 2,2.5 4,5 5.5,8 l 2,-2 c 2,3.5 2.5,7 2.5,11 1.5,-4 3,-8 5,-12 C 56,-5 67,-9 66.5,-13 63,-10 56,-7.5 53.5,-12.5 47.5,-6.5 41,-16 37,-10 33,-16 18,0.5 14.5,-7 c -5,2.5 -11.5,8.5 -15,0 -5,2.5 -9.5,8.5 -14.5,8 2,-1.5 5,-2.5 8,-2.5 0.5,2 1.5,0.5 2.5,1.5 L 0,0 z" /></g><g
         transform="translate(408,86)"
         id="g8300"><path
           inkscape:connector-curvature="0"
           id="path8302"
           style="fill:#2c842c;fill-opacity:1;fill-rule:nonzero;stroke:none"
           d="m 0,0 c -0.054,3.736 -0.378,7.42 0.446,11.102 l -2.892,0 C -1.134,6.308 1.513,2.48 5.439,-0.561 6.492,-1.376 7.88,-0.887 8,0.5 8.13,2.006 8.37,3.494 8.5,5 l -3,0 c 0.228,-2.939 1.069,-5.3 2.705,-7.757 0.49,-0.737 1.707,-1.094 2.356,-0.304 0.772,0.94 1.733,1.538 2.696,2.266 -0.606,0.078 -1.212,0.156 -1.818,0.234 1.376,-1.638 3.124,-2.861 4.5,-4.5 0.58,-0.689 1.984,-0.545 2.356,0.304 1.757,4.016 3.525,-0.114 6.14,-1.066 2.736,-0.995 4.546,0.847 5.86,3.066 l -2.59,0 c 0.815,-1.788 1.993,-3.322 3,-5 0.577,-0.963 2.017,-0.981 2.59,0 1.472,2.521 2.83,5.102 4.5,7.5 -0.684,-0.18 -1.368,-0.359 -2.052,-0.538 2.873,-1.588 5.647,-2.688 6.811,-6.103 0.246,-0.723 1.044,-1.343 1.845,-1.048 1.055,0.388 1.872,0.815 2.047,2.048 l -2.203,-0.897 c 0.905,-0.524 1.427,-0.793 2.358,-1.151 0.445,-0.171 1.16,0.008 1.46,0.385 2.116,2.657 4.115,5.307 5.734,8.304 -0.785,-0.101 -1.57,-0.202 -2.356,-0.304 0.667,-0.667 1.333,-1.334 2,-2 0.655,-0.655 1.912,-0.565 2.356,0.304 1.942,3.794 2.621,7.516 2.705,11.757 -0.982,-0.133 -1.964,-0.266 -2.946,-0.398 1.574,-4.19 3.204,-8.328 5.151,-12.359 0.179,0.684 0.358,1.368 0.538,2.052 -2.197,-1.191 -3.835,-2.698 -3.134,-5.342 0.777,-2.928 5.308,-4.388 5.391,-7.453 l 2.561,1.061 c -4.543,3.567 -11.621,6.052 -15.356,0.196 0.785,0.101 1.57,0.202 2.356,0.304 -2.157,1.851 -4.245,2.692 -7.117,2.42 -3.202,-0.302 -6.837,-3.104 -9.383,0.08 -0.474,0.592 -1.647,0.588 -2.122,0 -4.542,-5.631 -17.347,12.267 -22.734,2.696 0.684,0.18 1.368,0.359 2.052,0.538 C 7.559,-2.431 0.795,2.3 -3.295,-6.243 c 0.684,0.18 1.368,0.359 2.052,0.538 -5.021,2.803 -9.104,8.182 -15.257,8.205 -1.548,0.006 -1.974,-1.999 -0.757,-2.795 2.704,-1.77 5.545,-2.531 8.757,-2.705 0.491,-0.026 1.076,0.297 1.295,0.743 0.688,1.399 4.557,0.757 5.705,0.757 1.935,0 1.935,3 0,3 -1.514,0 -3.861,0.5 -5.257,-0.205 -3.108,-1.57 -5.978,-0.968 -8.986,1 -0.252,-0.932 -0.505,-1.863 -0.757,-2.795 5.28,-0.02 9.375,-5.357 13.743,-7.795 0.668,-0.373 1.694,-0.21 2.052,0.538 3.169,6.619 8.5,1.812 12.948,-0.538 0.713,-0.377 1.639,-0.196 2.052,0.538 3.344,5.941 16.679,-10.229 22.266,-3.304 l -2.122,0 c 4.743,-5.929 11.279,1.981 16.5,-2.5 0.749,-0.642 1.809,-0.554 2.356,0.304 2.594,4.067 7.845,1.395 10.644,-0.804 0.955,-0.75 2.6,-0.377 2.561,1.061 -0.039,1.443 -0.538,2.611 -1.48,3.722 -1.684,1.984 -5.895,4.513 -2.263,6.483 0.76,0.412 0.885,1.335 0.538,2.052 C 61.462,3.053 59.928,6.956 58.446,10.898 57.866,12.442 55.535,12.27 55.5,10.5 55.427,6.813 54.901,3.573 53.205,0.257 c 0.785,0.101 1.57,0.202 2.356,0.304 -0.667,0.667 -1.333,1.334 -2,2 -0.667,0.667 -1.894,0.551 -2.356,-0.304 -0.729,-1.349 -3.611,-7.525 -5.448,-6.462 -0.757,0.438 -2.063,0.086 -2.203,-0.897 0.015,0.017 0.031,0.033 0.047,0.048 0.615,-0.348 1.231,-0.698 1.845,-1.048 -1.436,4.216 -4.439,5.825 -8.189,7.897 -0.759,0.42 -1.577,0.144 -2.052,-0.538 -1.671,-2.398 -3.029,-4.979 -4.5,-7.5 l 2.59,0 c -1.006,1.678 -2.185,3.213 -3,5 -0.482,1.059 -2.061,0.893 -2.59,0 -2.317,-3.913 -4.142,0.466 -6.793,1.392 -2.669,0.934 -4.238,-1.176 -5.207,-3.392 0.785,0.101 1.57,0.202 2.356,0.304 -1.376,1.638 -3.124,2.861 -4.5,4.5 C 13.168,2.028 12.24,2.172 11.743,1.795 10.571,0.909 9.381,0.208 8.439,-0.939 9.225,-1.041 10.01,-1.142 10.795,-1.243 9.469,0.75 8.688,2.573 8.5,5 8.35,6.938 5.667,6.926 5.5,5 5.37,3.494 5.13,2.006 5,0.5 L 7.561,1.561 C 4.042,4.285 1.633,7.566 0.446,11.898 c -0.381,1.391 -2.561,1.479 -2.892,0 C -3.331,7.951 -3.058,4.017 -3,0 -2.972,-1.933 0.028,-1.936 0,0" /></g></g></g></svg>