<?xml version="1.0" encoding="UTF-8" standalone="no"?>
<!-- Created with Inkscape (http://www.inkscape.org/) -->

<svg
   xmlns:dc="http://purl.org/dc/elements/1.1/"
   xmlns:cc="http://creativecommons.org/ns#"
   xmlns:rdf="http://www.w3.org/1999/02/22-rdf-syntax-ns#"
   xmlns:svg="http://www.w3.org/2000/svg"
   xmlns="http://www.w3.org/2000/svg"
   xmlns:sodipodi="http://sodipodi.sourceforge.net/DTD/sodipodi-0.dtd"
   xmlns:inkscape="http://www.inkscape.org/namespaces/inkscape"
   id="svg2"
   version="1.1"
   inkscape:version="0.48.2 r9819"
   width="150"
   height="120"
   xml:space="preserve"
   sodipodi:docname="screen__wald_cs5.svg"><metadata
     id="metadata8"><rdf:RDF><cc:Work
         rdf:about=""><dc:format>image/svg+xml</dc:format><dc:type
           rdf:resource="http://purl.org/dc/dcmitype/StillImage" /><dc:title></dc:title></cc:Work></rdf:RDF></metadata><defs
     id="defs6"><clipPath
       clipPathUnits="userSpaceOnUse"
       id="clipPath18"><path
         d="m 0,1536 2048,0 L 2048,0 0,0 0,1536 z"
         id="path20"
         inkscape:connector-curvature="0" /></clipPath><clipPath
       clipPathUnits="userSpaceOnUse"
       id="clipPath1344"><path
         d="m 0,1536 2048,0 L 2048,0 0,0 0,1536 z"
         id="path1346"
         inkscape:connector-curvature="0" /></clipPath><clipPath
       clipPathUnits="userSpaceOnUse"
       id="clipPath1368"><path
         d="m 0,1536 2048,0 L 2048,0 0,0 0,1536 z"
         id="path1370"
         inkscape:connector-curvature="0" /></clipPath><clipPath
       clipPathUnits="userSpaceOnUse"
       id="clipPath1424"><path
         d="m 0,1536 2048,0 L 2048,0 0,0 0,1536 z"
         id="path1426"
         inkscape:connector-curvature="0" /></clipPath><clipPath
       clipPathUnits="userSpaceOnUse"
       id="clipPath3004"><path
         d="m 0,1536 2048,0 L 2048,0 0,0 0,1536 z"
         id="path3006"
         inkscape:connector-curvature="0" /></clipPath><clipPath
       clipPathUnits="userSpaceOnUse"
       id="clipPath3064"><path
         d="m 611.262,1266.5 30.647,0 0,-34.39 -30.647,0 0,34.39 z"
         id="path3066"
         inkscape:connector-curvature="0" /></clipPath><clipPath
       clipPathUnits="userSpaceOnUse"
       id="clipPath3096"><path
         d="m 767.558,1245.81 30.647,0 0,-34.39 -30.647,0 0,34.39 z"
         id="path3098"
         inkscape:connector-curvature="0" /></clipPath><clipPath
       clipPathUnits="userSpaceOnUse"
       id="clipPath3128"><path
         d="m 1107.38,1247.01 30.65,0 0,-34.39 -30.65,0 0,34.39 z"
         id="path3130"
         inkscape:connector-curvature="0" /></clipPath><clipPath
       clipPathUnits="userSpaceOnUse"
       id="clipPath3160"><path
         d="m 919.184,1250.86 30.647,0 0,-34.39 -30.647,0 0,34.39 z"
         id="path3162"
         inkscape:connector-curvature="0" /></clipPath><clipPath
       clipPathUnits="userSpaceOnUse"
       id="clipPath3192"><path
         d="m 1277.88,1248.99 25.91,0 0,-36.93 -25.91,0 0,36.93 z"
         id="path3194"
         inkscape:connector-curvature="0" /></clipPath><clipPath
       clipPathUnits="userSpaceOnUse"
       id="clipPath3224"><path
         d="m 1439.02,1258.03 25.91,0 0,-36.93 -25.91,0 0,36.93 z"
         id="path3226"
         inkscape:connector-curvature="0" /></clipPath><clipPath
       clipPathUnits="userSpaceOnUse"
       id="clipPath3388"><path
         d="m 0,1536 2048,0 L 2048,0 0,0 0,1536 z"
         id="path3390"
         inkscape:connector-curvature="0" /></clipPath><clipPath
       clipPathUnits="userSpaceOnUse"
       id="clipPath3424"><path
         d="m 1761.68,1506.2 30.64,0 0,-34.4 -30.64,0 0,34.4 z"
         id="path3426"
         inkscape:connector-curvature="0" /></clipPath><clipPath
       clipPathUnits="userSpaceOnUse"
       id="clipPath3444"><path
         d="m 1815.85,1526.96 30.65,0 0,-34.4 -30.65,0 0,34.4 z"
         id="path3446"
         inkscape:connector-curvature="0" /></clipPath><clipPath
       clipPathUnits="userSpaceOnUse"
       id="clipPath3464"><path
         d="m 1867.85,1550.5 30.65,0 0,-34.39 -30.65,0 0,34.39 z"
         id="path3466"
         inkscape:connector-curvature="0" /></clipPath><clipPath
       clipPathUnits="userSpaceOnUse"
       id="clipPath3484"><path
         d="m 1912.11,1476.5 30.65,0 0,-34.39 -30.65,0 0,34.39 z"
         id="path3486"
         inkscape:connector-curvature="0" /></clipPath><clipPath
       clipPathUnits="userSpaceOnUse"
       id="clipPath3504"><path
         d="m 1864.17,1450.46 30.65,0 0,-34.4 -30.65,0 0,34.4 z"
         id="path3506"
         inkscape:connector-curvature="0" /></clipPath><clipPath
       clipPathUnits="userSpaceOnUse"
       id="clipPath3524"><path
         d="m 1815.85,1427.5 30.65,0 0,-34.39 -30.65,0 0,34.39 z"
         id="path3526"
         inkscape:connector-curvature="0" /></clipPath><clipPath
       clipPathUnits="userSpaceOnUse"
       id="clipPath3544"><path
         d="m 1768.76,1411.38 30.65,0 0,-34.4 -30.65,0 0,34.4 z"
         id="path3546"
         inkscape:connector-curvature="0" /></clipPath><clipPath
       clipPathUnits="userSpaceOnUse"
       id="clipPath3564"><path
         d="m 1746.35,1363 30.65,0 0,-34.39 -30.65,0 0,34.39 z"
         id="path3566"
         inkscape:connector-curvature="0" /></clipPath><clipPath
       clipPathUnits="userSpaceOnUse"
       id="clipPath3584"><path
         d="m 1797.17,1339.78 30.65,0 0,-34.39 -30.65,0 0,34.39 z"
         id="path3586"
         inkscape:connector-curvature="0" /></clipPath><clipPath
       clipPathUnits="userSpaceOnUse"
       id="clipPath3604"><path
         d="m 1855.65,1330.5 30.65,0 0,-34.39 -30.65,0 0,34.39 z"
         id="path3606"
         inkscape:connector-curvature="0" /></clipPath><clipPath
       clipPathUnits="userSpaceOnUse"
       id="clipPath3624"><path
         d="m 1912.11,1323.5 30.65,0 0,-34.39 -30.65,0 0,34.39 z"
         id="path3626"
         inkscape:connector-curvature="0" /></clipPath><clipPath
       clipPathUnits="userSpaceOnUse"
       id="clipPath3644"><path
         d="m 1962.35,1323.5 30.65,0 0,-34.39 -30.65,0 0,34.39 z"
         id="path3646"
         inkscape:connector-curvature="0" /></clipPath><clipPath
       clipPathUnits="userSpaceOnUse"
       id="clipPath3664"><path
         d="m 1971.35,1266.5 30.65,0 0,-34.39 -30.65,0 0,34.39 z"
         id="path3666"
         inkscape:connector-curvature="0" /></clipPath><clipPath
       clipPathUnits="userSpaceOnUse"
       id="clipPath3684"><path
         d="m 1927.75,1235 30.65,0 0,-34.39 -30.65,0 0,34.39 z"
         id="path3686"
         inkscape:connector-curvature="0" /></clipPath><clipPath
       clipPathUnits="userSpaceOnUse"
       id="clipPath3704"><path
         d="m 1874.29,1206.5 30.64,0 0,-34.39 -30.64,0 0,34.39 z"
         id="path3706"
         inkscape:connector-curvature="0" /></clipPath><clipPath
       clipPathUnits="userSpaceOnUse"
       id="clipPath3724"><path
         d="m 1822.02,1177 30.64,0 0,-34.39 -30.64,0 0,34.39 z"
         id="path3726"
         inkscape:connector-curvature="0" /></clipPath><clipPath
       clipPathUnits="userSpaceOnUse"
       id="clipPath3744"><path
         d="m 1822.02,1008.75 30.64,0 0,-34.393 -30.64,0 0,34.393 z"
         id="path3746"
         inkscape:connector-curvature="0" /></clipPath><clipPath
       clipPathUnits="userSpaceOnUse"
       id="clipPath3764"><path
         d="m 1868.85,1043 30.65,0 0,-34.39 -30.65,0 0,34.39 z"
         id="path3766"
         inkscape:connector-curvature="0" /></clipPath><clipPath
       clipPathUnits="userSpaceOnUse"
       id="clipPath3784"><path
         d="m 1916.35,1076.89 30.65,0 0,-34.39 -30.65,0 0,34.39 z"
         id="path3786"
         inkscape:connector-curvature="0" /></clipPath><clipPath
       clipPathUnits="userSpaceOnUse"
       id="clipPath3804"><path
         d="m 1962.35,1110 30.65,0 0,-34.39 -30.65,0 0,34.39 z"
         id="path3806"
         inkscape:connector-curvature="0" /></clipPath><clipPath
       clipPathUnits="userSpaceOnUse"
       id="clipPath3824"><path
         d="m 2000.35,1142 30.65,0 0,-34.39 -30.65,0 0,34.39 z"
         id="path3826"
         inkscape:connector-curvature="0" /></clipPath><clipPath
       clipPathUnits="userSpaceOnUse"
       id="clipPath3844"><path
         d="m 1981.35,942.5 30.65,0 0,-34.395 -30.65,0 0,34.395 z"
         id="path3846"
         inkscape:connector-curvature="0" /></clipPath><clipPath
       clipPathUnits="userSpaceOnUse"
       id="clipPath3864"><path
         d="m 1932.85,920.5 30.65,0 0,-34.395 -30.65,0 0,34.395 z"
         id="path3866"
         inkscape:connector-curvature="0" /></clipPath><clipPath
       clipPathUnits="userSpaceOnUse"
       id="clipPath3884"><path
         d="m 1887.85,901.5 30.65,0 0,-34.395 -30.65,0 0,34.395 z"
         id="path3886"
         inkscape:connector-curvature="0" /></clipPath><clipPath
       clipPathUnits="userSpaceOnUse"
       id="clipPath3904"><path
         d="m 1836.85,882 30.65,0 0,-34.395 -30.65,0 0,34.395 z"
         id="path3906"
         inkscape:connector-curvature="0" /></clipPath><clipPath
       clipPathUnits="userSpaceOnUse"
       id="clipPath3944"><path
         d="m 186.853,1503.5 30.647,0 0,-34.39 -30.647,0 0,34.39 z"
         id="path3946"
         inkscape:connector-curvature="0" /></clipPath><clipPath
       clipPathUnits="userSpaceOnUse"
       id="clipPath3964"><path
         d="m 122.353,1531 30.647,0 0,-34.39 -30.647,0 0,34.39 z"
         id="path3966"
         inkscape:connector-curvature="0" /></clipPath><clipPath
       clipPathUnits="userSpaceOnUse"
       id="clipPath3984"><path
         d="m 63.3525,1546.39 30.6475,0 0,-34.39 -30.6475,0 0,34.39 z"
         id="path3986"
         inkscape:connector-curvature="0" /></clipPath><clipPath
       clipPathUnits="userSpaceOnUse"
       id="clipPath4004"><path
         d="m 195.349,1385.5 30.647,0 0,-34.39 -30.647,0 0,34.39 z"
         id="path4006"
         inkscape:connector-curvature="0" /></clipPath><clipPath
       clipPathUnits="userSpaceOnUse"
       id="clipPath4024"><path
         d="m 147.6,1359.5 30.647,0 0,-34.39 -30.647,0 0,34.39 z"
         id="path4026"
         inkscape:connector-curvature="0" /></clipPath><clipPath
       clipPathUnits="userSpaceOnUse"
       id="clipPath4044"><path
         d="m 79.3525,1332.47 30.6475,0 0,-34.39 -30.6475,0 0,34.39 z"
         id="path4046"
         inkscape:connector-curvature="0" /></clipPath><clipPath
       clipPathUnits="userSpaceOnUse"
       id="clipPath4064"><path
         d="m 84.8525,1207.3 30.6475,0 0,-34.39 -30.6475,0 0,34.39 z"
         id="path4066"
         inkscape:connector-curvature="0" /></clipPath><clipPath
       clipPathUnits="userSpaceOnUse"
       id="clipPath4084"><path
         d="m 147.6,1193.5 30.647,0 0,-34.39 -30.647,0 0,34.39 z"
         id="path4086"
         inkscape:connector-curvature="0" /></clipPath><clipPath
       clipPathUnits="userSpaceOnUse"
       id="clipPath4104"><path
         d="m 219.493,1184.98 30.647,0 0,-34.39 -30.647,0 0,34.39 z"
         id="path4106"
         inkscape:connector-curvature="0" /></clipPath><clipPath
       clipPathUnits="userSpaceOnUse"
       id="clipPath4124"><path
         d="m 223.353,1039.5 30.647,0 0,-34.39 -30.647,0 0,34.39 z"
         id="path4126"
         inkscape:connector-curvature="0" /></clipPath><clipPath
       clipPathUnits="userSpaceOnUse"
       id="clipPath4144"><path
         d="m 164.125,1058.5 30.647,0 0,-34.39 -30.647,0 0,34.39 z"
         id="path4146"
         inkscape:connector-curvature="0" /></clipPath><clipPath
       clipPathUnits="userSpaceOnUse"
       id="clipPath4164"><path
         d="m 103.853,1075.7 30.647,0 0,-34.4 -30.647,0 0,34.4 z"
         id="path4166"
         inkscape:connector-curvature="0" /></clipPath><clipPath
       clipPathUnits="userSpaceOnUse"
       id="clipPath4184"><path
         d="m 52.8213,1104.77 30.6475,0 0,-34.4 -30.6475,0 0,34.4 z"
         id="path4186"
         inkscape:connector-curvature="0" /></clipPath><clipPath
       clipPathUnits="userSpaceOnUse"
       id="clipPath4204"><path
         d="m 67.7275,979.697 30.6475,0 0,-34.394 -30.6475,0 0,34.394 z"
         id="path4206"
         inkscape:connector-curvature="0" /></clipPath><clipPath
       clipPathUnits="userSpaceOnUse"
       id="clipPath4224"><path
         d="m 122.853,951.5 30.647,0 0,-34.395 -30.647,0 0,34.395 z"
         id="path4226"
         inkscape:connector-curvature="0" /></clipPath><clipPath
       clipPathUnits="userSpaceOnUse"
       id="clipPath4244"><path
         d="m 188.853,941.5 30.647,0 0,-34.395 -30.647,0 0,34.395 z"
         id="path4246"
         inkscape:connector-curvature="0" /></clipPath><clipPath
       clipPathUnits="userSpaceOnUse"
       id="clipPath4264"><path
         d="m 249.853,941.5 30.647,0 0,-34.395 -30.647,0 0,34.395 z"
         id="path4266"
         inkscape:connector-curvature="0" /></clipPath><clipPath
       clipPathUnits="userSpaceOnUse"
       id="clipPath4280"><path
         d="m 0,1536 2048,0 L 2048,0 0,0 0,1536 z"
         id="path4282"
         inkscape:connector-curvature="0" /></clipPath><clipPath
       clipPathUnits="userSpaceOnUse"
       id="clipPath4296"><path
         d="m 1559.35,1313.59 110.5,0 0,-122.02 -110.5,0 0,122.02 z"
         id="path4298"
         inkscape:connector-curvature="0" /></clipPath><clipPath
       clipPathUnits="userSpaceOnUse"
       id="clipPath4312"><path
         d="m 1610.37,1351.76 49.6,0 0,-62.56 -49.6,0 0,62.56 z"
         id="path4314"
         inkscape:connector-curvature="0" /></clipPath><clipPath
       clipPathUnits="userSpaceOnUse"
       id="clipPath4336"><path
         d="m 362.812,1344.69 111.164,0 0,-119.41 -111.164,0 0,119.41 z"
         id="path4338"
         inkscape:connector-curvature="0" /></clipPath><clipPath
       clipPathUnits="userSpaceOnUse"
       id="clipPath4352"><path
         d="m 414.101,1391.91 42.049,0 0,-69.16 -42.049,0 0,69.16 z"
         id="path4354"
         inkscape:connector-curvature="0" /></clipPath><clipPath
       clipPathUnits="userSpaceOnUse"
       id="clipPath4368"><path
         d="m 0,1536 2048,0 L 2048,0 0,0 0,1536 z"
         id="path4370"
         inkscape:connector-curvature="0" /></clipPath><clipPath
       clipPathUnits="userSpaceOnUse"
       id="clipPath4408"><path
         d="m 925.334,1463.92 313.186,0 0,-311.53 -313.186,0 0,311.53 z"
         id="path4410"
         inkscape:connector-curvature="0" /></clipPath><clipPath
       clipPathUnits="userSpaceOnUse"
       id="clipPath4428"><path
         d="m 0,1536 2048,0 L 2048,0 0,0 0,1536 z"
         id="path4430"
         inkscape:connector-curvature="0" /></clipPath><clipPath
       clipPathUnits="userSpaceOnUse"
       id="clipPath8244"><path
         d="m 0,1536 2048,0 L 2048,0 0,0 0,1536 z"
         id="path8246"
         inkscape:connector-curvature="0" /></clipPath><clipPath
       clipPathUnits="userSpaceOnUse"
       id="clipPath8670"><path
         d="m 0,1536 2048,0 L 2048,0 0,0 0,1536 z"
         id="path8672"
         inkscape:connector-curvature="0" /></clipPath><clipPath
       clipPathUnits="userSpaceOnUse"
       id="clipPath8678"><path
         d="m 60.0376,1304.57 119.0554,0 0,-209.78 -119.0554,0 0,209.78 z"
         id="path8680"
         inkscape:connector-curvature="0" /></clipPath><clipPath
       clipPathUnits="userSpaceOnUse"
       id="clipPath8706"><path
         d="m 61.8003,1265.87 38.0488,0 0,-103.11 -38.0488,0 0,103.11 z"
         id="path8708"
         inkscape:connector-curvature="0" /></clipPath><clipPath
       clipPathUnits="userSpaceOnUse"
       id="clipPath8794"><path
         d="m 118.674,1228.21 30.767,0 0,-72.51 -30.767,0 0,72.51 z"
         id="path8796"
         inkscape:connector-curvature="0" /></clipPath><clipPath
       clipPathUnits="userSpaceOnUse"
       id="clipPath8832"><path
         d="m 37.548,1346.68 151.654,0 0,151.653 -151.654,0 0,-151.653 z"
         id="path8834"
         inkscape:connector-curvature="0" /></clipPath><clipPath
       clipPathUnits="userSpaceOnUse"
       id="clipPath8888"><path
         d="m 0,1536 2048,0 L 2048,0 0,0 0,1536 z"
         id="path8890"
         inkscape:connector-curvature="0" /></clipPath><clipPath
       clipPathUnits="userSpaceOnUse"
       id="clipPath8896"><path
         d="m 48.686,1488.27 141.732,0 0,-140.89 -141.732,0 0,140.89 z"
         id="path8898"
         inkscape:connector-curvature="0" /></clipPath></defs><sodipodi:namedview
     pagecolor="#ffffff"
     bordercolor="#666666"
     borderopacity="1"
     objecttolerance="10"
     gridtolerance="10"
     guidetolerance="10"
     inkscape:pageopacity="0"
     inkscape:pageshadow="2"
     inkscape:window-width="1600"
     inkscape:window-height="837"
     id="namedview4"
     showgrid="false"
     inkscape:zoom="2.9118731"
     inkscape:cx="206.22464"
     inkscape:cy="56.408198"
     inkscape:window-x="-8"
     inkscape:window-y="-8"
     inkscape:window-maximized="1"
     inkscape:current-layer="g10" /><g
     id="g10"
     inkscape:groupmode="layer"
     inkscape:label="screen__wald_cs5"
     transform="matrix(1.25,0,0,-1.25,0,120)"><g
       id="g11902"
       transform="translate(-134.22221,-70.649078)"><g
         transform="translate(177.3335,87.332)"
         id="g5336"><path
           inkscape:connector-curvature="0"
           id="path5338"
           style="fill:#e5e5e5;fill-opacity:1;fill-rule:nonzero;stroke:none"
           d="m 0,0 c 6.667,-4.333 19,-4.333 27,-4 11.667,0.334 18.667,8.168 15.667,19.168 -1.667,7.334 -3.334,17.166 -8,23.166 -5,6.333 -20,5.333 -27.334,5.666 -9.333,0.334 -18,-0.333 -9.333,-10.666 8.667,-11 4,-19 1,-31 L 0,0 z" /></g><g
         transform="translate(176.5762,86.0371)"
         id="g5340"><path
           inkscape:connector-curvature="0"
           id="path5342"
           style="fill:#b2b2b2;fill-opacity:1;fill-rule:nonzero;stroke:none"
           d="m 0,0 c 7.071,-4.196 15.9,-4.399 23.898,-4.319 6.745,0.068 14.559,0.829 18.819,6.852 4.426,6.259 2.469,12.934 0.938,19.838 -1.622,7.314 -3.624,16.916 -10.57,21.066 -5.936,3.545 -14.313,3.17 -20.958,3.265 -4.508,0.064 -14.483,1.932 -17.568,-2.675 -1.392,-2.077 -0.766,-4.174 0.202,-6.294 1.111,-2.434 3.216,-4.456 4.669,-6.668 1.664,-2.53 2.51,-5.404 2.775,-8.39 0.669,-7.546 -5.733,-15.158 -2.743,-22.137 0.76,-1.773 3.344,-0.244 2.591,1.514 -1.097,2.56 0.008,4.406 0.788,7.113 0.887,3.073 1.72,6.132 2.17,9.304 0.805,5.667 -0.804,10.786 -3.903,15.499 -1.632,2.483 -7.328,7.702 -2.073,9.347 2.807,0.879 6.158,0.567 9.056,0.48 6.176,-0.186 12.381,0 18.471,-1.22 7.997,-1.601 10.636,-7.944 12.75,-15.157 C 41.203,20.965 44.355,12.237 41.27,5.817 38.141,-0.694 30.141,-1.188 23.898,-1.319 16.456,-1.475 8.086,-1.31 1.515,2.59 -0.153,3.58 -1.662,0.986 0,0" /></g><g
         transform="translate(200.875,129.75)"
         id="g5344"><path
           inkscape:connector-curvature="0"
           id="path5346"
           style="fill:#adadad;fill-opacity:1;fill-rule:nonzero;stroke:none"
           d="m 0,0 c -0.375,-4 -2.625,-6.125 -4.25,-9.625 -1.25,-2.875 -3.875,-5.601 -3.625,-8.851 0.25,-3 1.727,-8.65 3.227,-11.275 1.625,-3 3.856,-5.458 4.606,-8.833 0.75,-4 -2.208,-6.791 3.167,-6.416 2.75,0.25 7.849,0.5 10.224,2.125 3.5,2.25 4.892,3.916 5.642,7.791 0.375,2 -2.473,19.682 -4.848,24.432 C 12.893,-8.402 10,-3.75 7.875,-2.5 6.125,-1.375 3.125,0.625 1,0.75 L 0,0 z" /></g><g
         transform="translate(192,89.5371)"
         id="g5348"><path
           inkscape:connector-curvature="0"
           id="path5350"
           style="fill:#bab9b9;fill-opacity:1;fill-rule:nonzero;stroke:none"
           d="m 0,0 c -0.27,6.519 -2.687,12.628 -3.72,19.027 -0.49,3.039 -2.013,5.778 -3,8.667 -1.163,3.404 -2.437,6.696 -4.151,9.859 -0.922,1.701 -3.512,0.187 -2.591,-1.514 2.734,-5.046 4.825,-10.902 6.569,-16.38 0.838,-2.633 1.063,-5.583 1.75,-8.279 C -4.181,7.603 -3.162,3.921 -3,0 -2.92,-1.928 0.08,-1.936 0,0" /></g><g
         transform="translate(206.3828,93.3975)"
         id="g5352"><path
           inkscape:connector-curvature="0"
           id="path5354"
           style="fill:#999999;fill-opacity:1;fill-rule:nonzero;stroke:none"
           d="m 0,0 c -1.631,4.761 -3.475,9.441 -4.995,14.24 -0.936,2.955 -1.138,4.927 -0.236,7.959 0.722,2.427 1.58,4.759 1.128,7.301 -0.338,1.903 -3.229,1.094 -2.893,-0.797 0.509,-2.863 -1.444,-6.237 -1.962,-9.025 -0.326,-1.757 0.3,-3.593 0.775,-5.26 1.471,-5.166 3.551,-10.14 5.29,-15.215 C -2.27,-2.616 0.629,-1.835 0,0" /></g><g
         transform="translate(204.6665,121.333)"
         id="g5356"><path
           inkscape:connector-curvature="0"
           id="path5358"
           style="fill:#999999;fill-opacity:1;fill-rule:nonzero;stroke:none"
           d="m 0,0 c 0.61,-4.606 3.425,-8.236 4.372,-12.729 0.926,-4.403 1.05,-8.943 2.015,-13.336 0.415,-1.89 3.307,-1.088 2.893,0.796 -0.794,3.612 -1.068,7.339 -1.612,10.996 C 6.91,-9.173 3.66,-4.982 3,0 2.75,1.889 -0.253,1.913 0,0" /></g><g
         transform="translate(152.5234,150)"
         id="g5360"><path
           inkscape:connector-curvature="0"
           id="path5362"
           style="fill:#dd3e65;fill-opacity:1;fill-rule:nonzero;stroke:none"
           d="m 0,0 c 14,14.667 28.477,9.999 46.477,7.332 8.667,-1.666 17.667,-3.333 26.667,-5 5.333,-1 35.333,-23.5 22.333,-28.833 -8.667,-3.667 -21,3.5 -30.333,1.833 -9,-1.666 -16.334,-7.332 -24.667,-11.666 -11.334,-5.666 -51.333,-12 -55.333,10 -1.667,9.666 2.072,10.775 7.405,17.442 L 0,0 z" /></g><g
         transform="translate(153.584,148.9395)"
         id="g5364"><path
           inkscape:connector-curvature="0"
           id="path5366"
           style="fill:#ba0047;fill-opacity:1;fill-rule:nonzero;stroke:none"
           d="M 0,0 C 10.367,10.445 22.368,10.564 36.056,8.387 42.834,7.308 49.572,6.07 56.318,4.804 61.833,3.769 68.706,3.665 73.751,1.112 c 6.583,-3.332 12.637,-8.558 17.603,-13.951 2.049,-2.225 4.632,-5.236 4.799,-8.418 0.297,-5.653 -12.072,-3.389 -14.803,-2.869 -5.316,1.013 -10.515,2.507 -15.976,2.193 -6.23,-0.358 -12.342,-3.881 -17.622,-6.889 -8.101,-4.614 -15.028,-7.86 -24.24,-9.394 -8.621,-1.436 -17.929,-1.644 -26.321,1.047 -8.977,2.878 -16.402,14.002 -9.525,22.675 C -8.41,-9.546 -4.061,-4.847 0,0 c 1.233,1.472 -0.877,3.605 -2.121,2.121 -4.28,-5.107 -8.827,-10.07 -12.962,-15.285 -4.504,-5.681 -3.212,-15.076 1.364,-20.397 10.049,-11.682 30.283,-9.483 43.635,-6.448 9.409,2.139 16.825,7.568 25.361,11.825 7.07,3.528 13.342,3.664 20.911,2.087 5.392,-1.123 10.656,-2.393 16.177,-1.536 17.677,2.745 -4.168,22.288 -9.224,26.159 C 80.039,0.9 76.559,3.561 72.785,4.767 67.856,6.342 62.206,6.743 57.115,7.696 51.834,8.686 46.565,9.694 41.262,10.556 33.38,11.835 25.45,13.365 17.442,12.443 9.724,11.556 3.261,7.544 -2.121,2.121 -3.485,0.747 -1.364,-1.375 0,0" /></g><g
         transform="translate(178,158.999)"
         id="g5368"><path
           inkscape:connector-curvature="0"
           id="path5370"
           style="fill:#ce2178;fill-opacity:1;fill-rule:nonzero;stroke:none"
           d="m 0,0 c 7.333,-5.333 18.667,-7.333 23.667,-15.667 6,-10 -4.749,-18.04 -7.416,-26.707 8.667,3.333 16.443,8.294 26.443,8.961 7.667,0.666 16.889,-3.586 24.556,-2.586 4.333,0.666 6.75,3.999 4.083,8.666 -2,3.333 -6.166,6.371 -8.833,8.704 -3.333,3 -6.167,6.296 -9.5,8.629 -4,2.667 -8.667,3.333 -13.333,4 C 33,-5.333 27,-3.333 20.333,-2 14,-0.667 0,0 0,0" /></g><g
         transform="translate(184.75,159.75)"
         id="g5372"><path
           inkscape:connector-curvature="0"
           id="path5374"
           style="fill:#e5e5e5;fill-opacity:1;fill-rule:nonzero;stroke:none"
           d="M 0,0 C -2.375,0.625 -6.125,2.5 -8.5,1.125 -13,-1.25 -6.125,-3.125 -4.25,-3.5 -1.5,-4 2.75,-5.25 5.625,-4.75 10,-4 3.375,0.125 1.125,0.25 L 0,0 z" /></g><g
         transform="translate(185.1489,161.1963)"
         id="g5376"><path
           inkscape:connector-curvature="0"
           id="path5378"
           style="fill:#b2b2b2;fill-opacity:1;fill-rule:nonzero;stroke:none"
           d="m 0,0 c -2.513,0.728 -4.939,1.823 -7.609,1.616 -1.71,-0.133 -4.064,-1.406 -4.256,-3.295 -0.391,-3.845 6.582,-4.642 9.116,-5.19 1.896,-0.41 13.091,-2.622 10.685,2.727 C 6.611,-1.196 2.204,0.667 -0.798,0 -2.686,-0.419 -1.885,-3.312 0,-2.893 1.645,-2.527 3.312,-3.635 4.593,-4.686 5.729,-5.619 4.5,-4.984 5.379,-4.62 4.633,-4.93 3.638,-4.811 2.857,-4.782 c -1.886,0.067 -3.782,0.584 -5.621,0.981 -1.939,0.419 -3.875,0.761 -5.644,1.712 -0.619,0.334 -0.753,-0.135 0.266,0.473 0.919,0.547 2.139,0.241 3.094,0.036 1.446,-0.311 2.832,-0.902 4.25,-1.313 C 1.065,-3.432 1.854,-0.537 0,0" /></g><g
         transform="translate(151.875,149.125)"
         id="g5380"><path
           inkscape:connector-curvature="0"
           id="path5382"
           style="fill:#e5e5e5;fill-opacity:1;fill-rule:nonzero;stroke:none"
           d="M 0,0 C -1,-1 -1.375,-1.625 -2,-2.875 -2.75,-4.5 -3.875,-5.125 -5,-6.5 c -1.25,-1.25 -1.875,-2.375 0.25,-3 1.75,-0.5 3.25,0.75 4.5,1.625 2.625,2 4.5,3.75 4.5,7.25 C 4.25,0.5 4.375,2 3.375,2.875 2,4 0.125,3 0.25,1.25 L 0,0 z" /></g><g
         transform="translate(150.8145,150.1855)"
         id="g5384"><path
           inkscape:connector-curvature="0"
           id="path5386"
           style="fill:#b2b2b2;fill-opacity:1;fill-rule:nonzero;stroke:none"
           d="m 0,0 c -1.724,-1.824 -2.663,-4.07 -4.439,-5.867 -0.97,-0.981 -2.965,-2.984 -1.888,-4.557 2.782,-4.062 7.76,-0.148 10.238,2.127 2.447,2.247 4.476,7.77 1.997,10.688 -0.972,1.144 -2.944,2.007 -4.354,0.984 -1.505,-1.09 -1.598,-2.329 -1.94,-4.037 -0.378,-1.889 2.514,-2.693 2.893,-0.797 0.083,0.416 0.167,0.833 0.25,1.25 -0.023,0.734 0.327,0.647 1.049,-0.264 0.01,-0.404 0.012,-0.808 0.005,-1.213 -0.019,-2.366 -1.267,-3.878 -2.985,-5.341 -0.784,-0.667 -1.639,-1.244 -2.517,-1.778 -0.75,-0.64 -1.291,-0.733 -1.623,-0.278 0.46,0.584 1.024,1.123 1.546,1.651 1.592,1.611 2.353,3.686 3.889,5.311 C 3.449,-0.717 1.331,1.409 0,0" /></g><g
         transform="translate(171,145.625)"
         id="g5388"><path
           inkscape:connector-curvature="0"
           id="path5390"
           style="fill:#e5e5e5;fill-opacity:1;fill-rule:nonzero;stroke:none"
           d="M 0,0 C -2.625,0.875 -7.625,-0.875 -6.25,-4.875 -5,-8 -0.875,-7.875 1.875,-7.75 4,-7.625 9.375,-7.875 10,-5.125 10.625,-2.25 3.375,-0.25 1.125,0 L 0,0 z" /></g><g
         transform="translate(171.3989,147.0713)"
         id="g5392"><path
           inkscape:connector-curvature="0"
           id="path5394"
           style="fill:#b2b2b2;fill-opacity:1;fill-rule:nonzero;stroke:none"
           d="m 0,0 c -3.817,0.966 -8.58,-1.125 -8.341,-5.552 0.304,-5.664 7.654,-5.212 11.552,-5.083 3.333,0.111 9.799,1.398 7.401,6.181 -1.624,3.24 -7.767,4.508 -11.011,4.508 -1.934,0 -1.934,-3 0,-3 1.7,0 3.253,-0.442 4.862,-0.981 1.016,-0.34 1.955,-0.82 2.858,-1.388 C 9.544,-6.716 5.415,-7.472 4.632,-7.552 2.6,-7.761 0.463,-7.799 -1.575,-7.701 c -1.912,0.093 -5.275,1.725 -3.163,4.015 0.922,1 2.72,1.102 3.94,0.793 C 1.079,-3.367 1.875,-0.474 0,0" /></g><g
         transform="translate(200.5,147.375)"
         id="g5396"><path
           inkscape:connector-curvature="0"
           id="path5398"
           style="fill:#e5e5e5;fill-opacity:1;fill-rule:nonzero;stroke:none"
           d="m 0,0 c 1.056,-2.16 3.25,-2.375 4.125,-4.625 0.75,-1.875 2.25,-5 4.25,-2 2.875,4.375 -5.274,10.627 -8,8.75 C -0.069,1.819 -0.237,0.484 0,0" /></g><g
         transform="translate(199.2046,146.6182)"
         id="g5400"><path
           inkscape:connector-curvature="0"
           id="path5402"
           style="fill:#b2b2b2;fill-opacity:1;fill-rule:nonzero;stroke:none"
           d="m 0,0 c 0.983,-1.759 2.909,-2.508 3.918,-4.173 0.916,-1.51 1.222,-3.318 2.969,-4.17 1.789,-0.873 3.384,0.553 4.254,2.012 0.764,1.281 0.754,2.871 0.348,4.26 C 10.624,0.893 7.832,3.143 5.095,4.285 2.254,5.472 -1.217,3.872 -0.151,0.358 0.409,-1.488 3.305,-0.7 2.742,1.155 2.583,1.681 2.567,1.801 3.147,1.722 3.865,1.624 4.516,1.306 5.138,0.956 6.612,0.127 8.016,-1.257 8.596,-2.868 8.828,-3.512 8.851,-4.192 8.551,-4.816 8.187,-5.574 8.136,-5.771 7.631,-5.01 7.316,-4.536 7.082,-3.994 6.867,-3.47 5.949,-1.23 3.708,-0.487 2.591,1.514 1.647,3.202 -0.944,1.69 0,0" /></g><g
         transform="translate(219,154.25)"
         id="g5404"><path
           inkscape:connector-curvature="0"
           id="path5406"
           style="fill:#e5e5e5;fill-opacity:1;fill-rule:nonzero;stroke:none"
           d="M 0,0 C -2.242,1.174 -7.625,1.375 -5.5,-2.5 -4,-5 0.125,-5.5 2.625,-5.875 4.75,-6.25 10.875,-7.5 7.75,-3.25 5.875,-0.875 4.813,-1.728 2.125,-0.875 1.577,-0.701 0.509,-0.267 0,0" /></g><g
         transform="translate(219.7568,155.5449)"
         id="g5408"><path
           inkscape:connector-curvature="0"
           id="path5410"
           style="fill:#b2b2b2;fill-opacity:1;fill-rule:nonzero;stroke:none"
           d="m 0,0 c -2.349,1.098 -7.775,1.942 -8.2,-1.86 -0.58,-5.185 6.421,-6.176 9.983,-6.812 2.076,-0.371 7.406,-1.474 7.563,2.007 C 9.583,-1.421 3.218,-1.54 0,0 -1.736,0.831 -3.258,-1.755 -1.514,-2.59 0.403,-3.508 2.271,-3.821 4.313,-4.29 5.089,-4.468 5.655,-5.238 6.068,-5.848 6.654,-6.713 6.572,-6.024 6.367,-6.084 5.585,-6.31 4.528,-6.091 3.743,-5.977 c -2.206,0.321 -4.45,0.636 -6.56,1.369 -0.766,0.265 -3.719,2.321 -1.647,2.546 0.976,0.107 2.065,-0.115 2.95,-0.528 C 0.228,-3.403 1.752,-0.817 0,0" /></g><g
         transform="translate(232,138.875)"
         id="g5412"><path
           inkscape:connector-curvature="0"
           id="path5414"
           style="fill:#e5e5e5;fill-opacity:1;fill-rule:nonzero;stroke:none"
           d="m 0,0 c -2.606,0.886 -4.5,0.75 -7.125,0.375 -6.625,-1.125 1.5,-4.25 3.625,-5 2.625,-0.875 6.125,-1.75 9,-1 5,1.5 -1.133,6.249 -3.875,6 C 1.21,0.337 0.395,-0.134 0,0" /></g><g
         transform="translate(232.3989,140.3213)"
         id="g5416"><path
           inkscape:connector-curvature="0"
           id="path5418"
           style="fill:#b2b2b2;fill-opacity:1;fill-rule:nonzero;stroke:none"
           d="m 0,0 c -2.276,0.696 -11.919,1.937 -11.554,-2.55 0.26,-3.205 6.297,-4.7 8.766,-5.435 2.628,-0.783 12.313,-2.24 11.229,3.25 C 8.102,-3.017 6.698,-1.826 5.317,-0.888 4.555,-0.37 3.662,-0.015 2.784,0.25 1.571,0.616 0.775,0.122 -0.399,0.054 c -1.923,-0.112 -1.934,-3.113 0,-3 1.026,0.059 1.797,0.481 2.813,0.175 0.985,-0.298 1.877,-0.992 2.592,-1.705 1.382,-1.378 -1.491,-1.352 -2.366,-1.379 -1.827,-0.057 -3.67,0.477 -5.404,0.993 -1.774,0.528 -3.522,1.269 -5.114,2.212 -1.199,0.709 0.003,0.033 -0.524,-0.161 0.79,0.291 1.716,0.353 2.535,0.446 1.753,0.197 3.39,-0.014 5.069,-0.528 C 1.057,-3.461 1.844,-0.564 0,0" /></g><g
         transform="translate(146.8335,129.625)"
         id="g5420"><path
           inkscape:connector-curvature="0"
           id="path5422"
           style="fill:#e5e5e5;fill-opacity:1;fill-rule:nonzero;stroke:none"
           d="m 0,0 c -1.375,0.125 -3.333,-2.75 -3.708,-4.125 -0.625,-2 1.5,-3.125 3,-3.875 2.5,-1.125 5.625,-1 8.25,-1.125 3,-0.125 6.875,1.375 5.375,5 C 11.792,-1.25 5.792,-0.25 3.042,0 L 0,0 z" /></g><g
         transform="translate(146.4346,131.0713)"
         id="g5424"><path
           inkscape:connector-curvature="0"
           id="path5426"
           style="fill:#b2b2b2;fill-opacity:1;fill-rule:nonzero;stroke:none"
           d="m 0,0 c -3.997,-0.63 -6.292,-6.438 -3.377,-9.297 3.364,-3.3 11.331,-3.731 15.47,-1.994 4.193,1.76 3.533,6.494 0.348,8.837 -3.278,2.412 -8.146,2.508 -12.042,2.508 -1.935,0 -1.935,-3 0,-3 3.662,0 8.39,-0.013 11.221,-2.694 2.468,-2.336 -1.741,-3.32 -2.915,-3.428 -1.601,-0.149 -3.336,0.075 -4.936,0.184 -1.724,0.118 -3.202,0.619 -4.682,1.479 -2.01,1.17 0.086,4.257 1.711,4.512 C 2.705,-2.592 1.892,0.299 0,0" /></g><g
         transform="translate(171.5,86)"
         id="g8280"><path
           inkscape:connector-curvature="0"
           id="path8282"
           style="fill:#359335;fill-opacity:1;fill-rule:nonzero;stroke:none"
           d="M 0,0 C 0,2.5 0.5,4.5 2,6.5 2,5.5 2.5,4 2.5,3 c 1.5,1.5 3,2 4,4.5 0,-3 1.5,-3.5 3,-5 0.5,1 2.5,2.5 3,3.5 1.5,-6 6.5,-7.5 9,-1.5 1,-3 2,-6.5 5,-8 1,2 3.5,3.5 4.5,5.5 4,-8.5 6,0 9,1.5 4,1.5 9,-3 8.5,5.5 0,-1.5 1,-3.5 1,-5 3,0.5 5.5,3 8.5,4.5 0.5,-2.5 1,-5 0.5,-8 l 2,0 c 0,-4.5 -3,-2 -6.5,-3.5 -2,-1 -5.5,-3 -7.5,-3.5 -3,-1 -6,0.5 -8.5,0 -2.5,-0.5 -6,-3 -8.5,-3.5 -5.5,-0.5 -11,4 -18,3.5 C 5,-7 2.5,-8.5 -2.5,-2 -3,-3 -4,-4 -5,-5 c -1.5,1.5 -1.5,2 -1.5,4 0.5,0.5 1.5,0 2,0.5 L 0,0 z" /></g><g
         transform="translate(173,86)"
         id="g8284"><path
           inkscape:connector-curvature="0"
           id="path8286"
           style="fill:#2c842c;fill-opacity:1;fill-rule:nonzero;stroke:none"
           d="M 0,0 C 0.1,2.258 0.574,3.867 1.795,5.743 0.863,5.995 -0.068,6.248 -1,6.5 -0.866,5.329 -0.634,4.169 -0.5,3 -0.352,1.707 1.021,1.006 2.061,1.939 3.77,3.473 5.239,4.676 6.295,6.743 5.363,6.995 4.432,7.248 3.5,7.5 3.762,4.6 4.846,3.363 6.939,1.439 7.705,0.735 8.711,0.949 9.295,1.743 c 0.916,1.244 2.082,2.253 3,3.5 -0.914,0.119 -1.828,0.238 -2.741,0.359 2.086,-6.594 8.264,-8.805 11.741,-1.859 -0.914,0.119 -1.828,0.238 -2.741,0.359 1.202,-3.624 2.389,-6.757 5.689,-8.897 0.713,-0.463 1.619,-0.12 2.052,0.538 1.32,2.004 3.18,3.495 4.5,5.5 l -2.59,0 c 0.901,-1.724 2.571,-5.051 5.138,-4.412 2.39,0.595 3.552,2.957 5.064,4.692 1.854,2.128 5.478,-0.287 7.726,1.006 2.375,1.366 2.413,3.99 2.367,6.471 l -3,0 c 0.221,-1.698 0.78,-3.305 1,-5 0.123,-0.947 0.866,-1.73 1.899,-1.446 3.307,0.91 5.9,2.994 8.858,4.651 L 55.054,8.102 C 55.558,5.505 55.783,3.123 55.5,0.5 55.412,-0.314 56.249,-1 57,-1 l 2,0 -1.5,1.5 C 57.333,-1.455 53.555,-1.088 52.101,-1.554 49.841,-2.278 47.749,-3.851 45.542,-4.755 42.603,-5.958 39.52,-4.756 36.5,-5 34.573,-5.156 32.54,-6.434 30.851,-7.274 24.74,-10.319 19.293,-5.564 13.13,-5.088 10.464,-4.882 7.906,-5.229 5.256,-5.464 1.491,-5.796 -0.69,-3.705 -2.939,-0.939 -3.58,-0.152 -4.814,-0.502 -5.295,-1.243 -5.937,-2.24 -6.691,-3.139 -7.561,-3.939 l 2.122,0 C -5.793,-2.96 -6.146,-1.979 -6.5,-1 c -0.367,-0.482 -0.734,-0.964 -1.101,-1.446 2.024,0.506 4.027,0.716 6.101,0.946 1.901,0.211 1.921,3.214 0,3 C -3.846,1.239 -6.109,1.019 -8.399,0.446 -9.035,0.287 -9.512,-0.347 -9.5,-1 c 0.041,-2.207 0.471,-3.406 1.939,-5.061 0.54,-0.607 1.574,-0.557 2.122,0 1.038,1.058 1.932,2.066 2.734,3.304 -0.785,-0.101 -1.57,-0.202 -2.356,-0.304 4.071,-5.006 7.524,-5.716 13.727,-5.058 7.11,0.755 13.991,-4.984 20.859,-3.002 4.023,1.16 6.556,3.527 11.038,2.933 3.085,-0.409 5.595,0.381 8.356,1.666 1.715,0.797 3.312,1.862 5.124,2.443 1.19,0.381 2.625,-0.124 3.797,0.315 2.077,0.777 2.478,2.145 2.66,4.264 C 60.57,1.316 59.765,2 59,2 l -2,0 1.5,-1.5 c 0.314,2.916 10e-4,5.541 -0.554,8.398 -0.189,0.977 -1.41,1.341 -2.203,0.897 C 53.031,8.276 50.647,6.285 47.601,5.446 48.234,4.964 48.867,4.482 49.5,4 c -0.221,1.698 -0.78,3.305 -1,5 -0.241,1.854 -3.037,1.99 -3,0 0.103,-5.521 -3.919,-3.086 -7.399,-4.054 -3.206,-0.891 -4.287,-7.962 -7.306,-2.189 -0.549,1.052 -2.003,0.891 -2.59,0 -1.32,-2.004 -3.18,-3.495 -4.5,-5.5 0.684,0.18 1.368,0.359 2.052,0.538 -2.641,1.713 -3.394,4.341 -4.311,7.103 -0.38,1.147 -2.123,1.594 -2.741,0.359 C 17.02,1.893 13.422,3.315 12.446,6.398 12.029,7.719 10.464,7.789 9.705,6.757 8.789,5.513 7.623,4.504 6.705,3.257 7.49,3.358 8.275,3.459 9.061,3.561 7.779,4.738 6.691,5.379 6.5,7.5 6.377,8.864 4.442,9.7 3.705,8.257 2.722,6.334 1.479,5.441 -0.061,4.061 L 2.5,3 C 2.366,4.171 2.134,5.331 2,6.5 1.833,7.952 0.07,8.586 -0.795,7.257 -2.307,4.936 -2.878,2.749 -3,0 -3.086,-1.935 -0.085,-1.927 0,0" /></g></g></g></svg>