<?xml version="1.0" encoding="UTF-8" standalone="no"?>
<!-- Created with Inkscape (http://www.inkscape.org/) -->

<svg
   xmlns:dc="http://purl.org/dc/elements/1.1/"
   xmlns:cc="http://creativecommons.org/ns#"
   xmlns:rdf="http://www.w3.org/1999/02/22-rdf-syntax-ns#"
   xmlns:svg="http://www.w3.org/2000/svg"
   xmlns="http://www.w3.org/2000/svg"
   xmlns:sodipodi="http://sodipodi.sourceforge.net/DTD/sodipodi-0.dtd"
   xmlns:inkscape="http://www.inkscape.org/namespaces/inkscape"
   id="svg2"
   version="1.1"
   inkscape:version="0.48.2 r9819"
   width="2560"
   height="1920"
   xml:space="preserve"
   sodipodi:docname="screen__wald2_cs5.svg"><metadata
     id="metadata8"><rdf:RDF><cc:Work
         rdf:about=""><dc:format>image/svg+xml</dc:format><dc:type
           rdf:resource="http://purl.org/dc/dcmitype/StillImage" /><dc:title></dc:title></cc:Work></rdf:RDF></metadata><defs
     id="defs6"><clipPath
       clipPathUnits="userSpaceOnUse"
       id="clipPath18"><path
         d="m 0,1536 2048,0 L 2048,0 0,0 0,1536 z"
         id="path20" /></clipPath><clipPath
       clipPathUnits="userSpaceOnUse"
       id="clipPath30"><path
         d="m 0,1536 2048,0 L 2048,0 0,0 0,1536 z"
         id="path32" /></clipPath><clipPath
       clipPathUnits="userSpaceOnUse"
       id="clipPath1618"><path
         d="m 0,1536 2048,0 L 2048,0 0,0 0,1536 z"
         id="path1620" /></clipPath><clipPath
       clipPathUnits="userSpaceOnUse"
       id="clipPath1642"><path
         d="m 0,1536 2048,0 L 2048,0 0,0 0,1536 z"
         id="path1644" /></clipPath><clipPath
       clipPathUnits="userSpaceOnUse"
       id="clipPath1754"><path
         d="m 0,1536 2048,0 L 2048,0 0,0 0,1536 z"
         id="path1756" /></clipPath><clipPath
       clipPathUnits="userSpaceOnUse"
       id="clipPath7778"><path
         d="m 0,1536 2048,0 L 2048,0 0,0 0,1536 z"
         id="path7780" /></clipPath><clipPath
       clipPathUnits="userSpaceOnUse"
       id="clipPath7838"><path
         d="m 611.262,1266.5 30.647,0 0,-34.39 -30.647,0 0,34.39 z"
         id="path7840" /></clipPath><clipPath
       clipPathUnits="userSpaceOnUse"
       id="clipPath7870"><path
         d="m 767.558,1245.81 30.647,0 0,-34.39 -30.647,0 0,34.39 z"
         id="path7872" /></clipPath><clipPath
       clipPathUnits="userSpaceOnUse"
       id="clipPath7902"><path
         d="m 1107.38,1247.01 30.65,0 0,-34.39 -30.65,0 0,34.39 z"
         id="path7904" /></clipPath><clipPath
       clipPathUnits="userSpaceOnUse"
       id="clipPath7934"><path
         d="m 919.184,1250.86 30.647,0 0,-34.39 -30.647,0 0,34.39 z"
         id="path7936" /></clipPath><clipPath
       clipPathUnits="userSpaceOnUse"
       id="clipPath7966"><path
         d="m 1277.88,1248.99 25.91,0 0,-36.93 -25.91,0 0,36.93 z"
         id="path7968" /></clipPath><clipPath
       clipPathUnits="userSpaceOnUse"
       id="clipPath7998"><path
         d="m 1439.02,1258.03 25.91,0 0,-36.93 -25.91,0 0,36.93 z"
         id="path8000" /></clipPath><clipPath
       clipPathUnits="userSpaceOnUse"
       id="clipPath8162"><path
         d="m 0,1536 2048,0 L 2048,0 0,0 0,1536 z"
         id="path8164" /></clipPath><clipPath
       clipPathUnits="userSpaceOnUse"
       id="clipPath8198"><path
         d="m 1761.68,1506.2 30.64,0 0,-34.4 -30.64,0 0,34.4 z"
         id="path8200" /></clipPath><clipPath
       clipPathUnits="userSpaceOnUse"
       id="clipPath8218"><path
         d="m 1815.85,1526.96 30.65,0 0,-34.4 -30.65,0 0,34.4 z"
         id="path8220" /></clipPath><clipPath
       clipPathUnits="userSpaceOnUse"
       id="clipPath8238"><path
         d="m 1867.85,1550.5 30.65,0 0,-34.39 -30.65,0 0,34.39 z"
         id="path8240" /></clipPath><clipPath
       clipPathUnits="userSpaceOnUse"
       id="clipPath8258"><path
         d="m 1912.11,1476.5 30.65,0 0,-34.39 -30.65,0 0,34.39 z"
         id="path8260" /></clipPath><clipPath
       clipPathUnits="userSpaceOnUse"
       id="clipPath8278"><path
         d="m 1864.17,1450.46 30.65,0 0,-34.4 -30.65,0 0,34.4 z"
         id="path8280" /></clipPath><clipPath
       clipPathUnits="userSpaceOnUse"
       id="clipPath8298"><path
         d="m 1815.85,1427.5 30.65,0 0,-34.39 -30.65,0 0,34.39 z"
         id="path8300" /></clipPath><clipPath
       clipPathUnits="userSpaceOnUse"
       id="clipPath8318"><path
         d="m 1768.76,1411.38 30.65,0 0,-34.4 -30.65,0 0,34.4 z"
         id="path8320" /></clipPath><clipPath
       clipPathUnits="userSpaceOnUse"
       id="clipPath8338"><path
         d="m 1746.35,1363 30.65,0 0,-34.39 -30.65,0 0,34.39 z"
         id="path8340" /></clipPath><clipPath
       clipPathUnits="userSpaceOnUse"
       id="clipPath8358"><path
         d="m 1797.17,1339.78 30.65,0 0,-34.39 -30.65,0 0,34.39 z"
         id="path8360" /></clipPath><clipPath
       clipPathUnits="userSpaceOnUse"
       id="clipPath8378"><path
         d="m 1855.65,1330.5 30.65,0 0,-34.39 -30.65,0 0,34.39 z"
         id="path8380" /></clipPath><clipPath
       clipPathUnits="userSpaceOnUse"
       id="clipPath8398"><path
         d="m 1912.11,1323.5 30.65,0 0,-34.39 -30.65,0 0,34.39 z"
         id="path8400" /></clipPath><clipPath
       clipPathUnits="userSpaceOnUse"
       id="clipPath8418"><path
         d="m 1962.35,1323.5 30.65,0 0,-34.39 -30.65,0 0,34.39 z"
         id="path8420" /></clipPath><clipPath
       clipPathUnits="userSpaceOnUse"
       id="clipPath8438"><path
         d="m 1971.35,1266.5 30.65,0 0,-34.39 -30.65,0 0,34.39 z"
         id="path8440" /></clipPath><clipPath
       clipPathUnits="userSpaceOnUse"
       id="clipPath8458"><path
         d="m 1927.75,1235 30.65,0 0,-34.39 -30.65,0 0,34.39 z"
         id="path8460" /></clipPath><clipPath
       clipPathUnits="userSpaceOnUse"
       id="clipPath8478"><path
         d="m 1874.29,1206.5 30.64,0 0,-34.39 -30.64,0 0,34.39 z"
         id="path8480" /></clipPath><clipPath
       clipPathUnits="userSpaceOnUse"
       id="clipPath8498"><path
         d="m 1822.02,1177 30.64,0 0,-34.39 -30.64,0 0,34.39 z"
         id="path8500" /></clipPath><clipPath
       clipPathUnits="userSpaceOnUse"
       id="clipPath8518"><path
         d="m 1822.02,1008.75 30.64,0 0,-34.393 -30.64,0 0,34.393 z"
         id="path8520" /></clipPath><clipPath
       clipPathUnits="userSpaceOnUse"
       id="clipPath8538"><path
         d="m 1868.85,1043 30.65,0 0,-34.39 -30.65,0 0,34.39 z"
         id="path8540" /></clipPath><clipPath
       clipPathUnits="userSpaceOnUse"
       id="clipPath8558"><path
         d="m 1916.35,1076.89 30.65,0 0,-34.39 -30.65,0 0,34.39 z"
         id="path8560" /></clipPath><clipPath
       clipPathUnits="userSpaceOnUse"
       id="clipPath8578"><path
         d="m 1962.35,1110 30.65,0 0,-34.39 -30.65,0 0,34.39 z"
         id="path8580" /></clipPath><clipPath
       clipPathUnits="userSpaceOnUse"
       id="clipPath8598"><path
         d="m 2000.35,1142 30.65,0 0,-34.39 -30.65,0 0,34.39 z"
         id="path8600" /></clipPath><clipPath
       clipPathUnits="userSpaceOnUse"
       id="clipPath8618"><path
         d="m 1981.35,942.5 30.65,0 0,-34.395 -30.65,0 0,34.395 z"
         id="path8620" /></clipPath><clipPath
       clipPathUnits="userSpaceOnUse"
       id="clipPath8638"><path
         d="m 1932.85,920.5 30.65,0 0,-34.395 -30.65,0 0,34.395 z"
         id="path8640" /></clipPath><clipPath
       clipPathUnits="userSpaceOnUse"
       id="clipPath8658"><path
         d="m 1887.85,901.5 30.65,0 0,-34.395 -30.65,0 0,34.395 z"
         id="path8660" /></clipPath><clipPath
       clipPathUnits="userSpaceOnUse"
       id="clipPath8678"><path
         d="m 1836.85,882 30.65,0 0,-34.395 -30.65,0 0,34.395 z"
         id="path8680" /></clipPath><clipPath
       clipPathUnits="userSpaceOnUse"
       id="clipPath8718"><path
         d="m 186.853,1503.5 30.647,0 0,-34.39 -30.647,0 0,34.39 z"
         id="path8720" /></clipPath><clipPath
       clipPathUnits="userSpaceOnUse"
       id="clipPath8738"><path
         d="m 122.353,1531 30.647,0 0,-34.39 -30.647,0 0,34.39 z"
         id="path8740" /></clipPath><clipPath
       clipPathUnits="userSpaceOnUse"
       id="clipPath8758"><path
         d="m 63.3525,1546.39 30.6475,0 0,-34.39 -30.6475,0 0,34.39 z"
         id="path8760" /></clipPath><clipPath
       clipPathUnits="userSpaceOnUse"
       id="clipPath8778"><path
         d="m 195.349,1385.5 30.647,0 0,-34.39 -30.647,0 0,34.39 z"
         id="path8780" /></clipPath><clipPath
       clipPathUnits="userSpaceOnUse"
       id="clipPath8798"><path
         d="m 147.6,1359.5 30.647,0 0,-34.39 -30.647,0 0,34.39 z"
         id="path8800" /></clipPath><clipPath
       clipPathUnits="userSpaceOnUse"
       id="clipPath8818"><path
         d="m 79.3525,1332.47 30.6475,0 0,-34.39 -30.6475,0 0,34.39 z"
         id="path8820" /></clipPath><clipPath
       clipPathUnits="userSpaceOnUse"
       id="clipPath8838"><path
         d="m 84.8525,1207.3 30.6475,0 0,-34.39 -30.6475,0 0,34.39 z"
         id="path8840" /></clipPath><clipPath
       clipPathUnits="userSpaceOnUse"
       id="clipPath8858"><path
         d="m 147.6,1193.5 30.647,0 0,-34.39 -30.647,0 0,34.39 z"
         id="path8860" /></clipPath><clipPath
       clipPathUnits="userSpaceOnUse"
       id="clipPath8878"><path
         d="m 219.493,1184.98 30.647,0 0,-34.39 -30.647,0 0,34.39 z"
         id="path8880" /></clipPath><clipPath
       clipPathUnits="userSpaceOnUse"
       id="clipPath8898"><path
         d="m 223.353,1039.5 30.647,0 0,-34.39 -30.647,0 0,34.39 z"
         id="path8900" /></clipPath><clipPath
       clipPathUnits="userSpaceOnUse"
       id="clipPath8918"><path
         d="m 164.125,1058.5 30.647,0 0,-34.39 -30.647,0 0,34.39 z"
         id="path8920" /></clipPath><clipPath
       clipPathUnits="userSpaceOnUse"
       id="clipPath8938"><path
         d="m 103.853,1075.7 30.647,0 0,-34.4 -30.647,0 0,34.4 z"
         id="path8940" /></clipPath><clipPath
       clipPathUnits="userSpaceOnUse"
       id="clipPath8958"><path
         d="m 52.8213,1104.77 30.6475,0 0,-34.4 -30.6475,0 0,34.4 z"
         id="path8960" /></clipPath><clipPath
       clipPathUnits="userSpaceOnUse"
       id="clipPath8978"><path
         d="m 67.7275,979.697 30.6475,0 0,-34.394 -30.6475,0 0,34.394 z"
         id="path8980" /></clipPath><clipPath
       clipPathUnits="userSpaceOnUse"
       id="clipPath8998"><path
         d="m 122.853,951.5 30.647,0 0,-34.395 -30.647,0 0,34.395 z"
         id="path9000" /></clipPath><clipPath
       clipPathUnits="userSpaceOnUse"
       id="clipPath9018"><path
         d="m 188.853,941.5 30.647,0 0,-34.395 -30.647,0 0,34.395 z"
         id="path9020" /></clipPath><clipPath
       clipPathUnits="userSpaceOnUse"
       id="clipPath9038"><path
         d="m 249.853,941.5 30.647,0 0,-34.395 -30.647,0 0,34.395 z"
         id="path9040" /></clipPath><clipPath
       clipPathUnits="userSpaceOnUse"
       id="clipPath9054"><path
         d="m 0,1536 2048,0 L 2048,0 0,0 0,1536 z"
         id="path9056" /></clipPath><clipPath
       clipPathUnits="userSpaceOnUse"
       id="clipPath9070"><path
         d="m 1559.35,1331.59 110.5,0 0,-122.25 -110.5,0 0,122.25 z"
         id="path9072" /></clipPath><clipPath
       clipPathUnits="userSpaceOnUse"
       id="clipPath9094"><path
         d="m 362.812,1360.69 111.164,0 0,-120.36 -111.164,0 0,120.36 z"
         id="path9096" /></clipPath><clipPath
       clipPathUnits="userSpaceOnUse"
       id="clipPath9110"><path
         d="m 0,1536 2048,0 L 2048,0 0,0 0,1536 z"
         id="path9112" /></clipPath><clipPath
       clipPathUnits="userSpaceOnUse"
       id="clipPath9198"><path
         d="m 0,1536 2048,0 L 2048,0 0,0 0,1536 z"
         id="path9200" /></clipPath><clipPath
       clipPathUnits="userSpaceOnUse"
       id="clipPath9238"><path
         d="m 863.168,1356.92 391.482,0 0,-389.414 -391.482,0 0,389.414 z"
         id="path9240" /></clipPath><clipPath
       clipPathUnits="userSpaceOnUse"
       id="clipPath9254"><path
         d="m 0,1536 2048,0 L 2048,0 0,0 0,1536 z"
         id="path9256" /></clipPath><clipPath
       clipPathUnits="userSpaceOnUse"
       id="clipPath9294"><path
         d="m 925.334,1463.92 313.186,0 0,-311.53 -313.186,0 0,311.53 z"
         id="path9296" /></clipPath><clipPath
       clipPathUnits="userSpaceOnUse"
       id="clipPath9314"><path
         d="m 0,1536 2048,0 L 2048,0 0,0 0,1536 z"
         id="path9316" /></clipPath><clipPath
       clipPathUnits="userSpaceOnUse"
       id="clipPath9594"><path
         d="m 0,1536 2048,0 L 2048,0 0,0 0,1536 z"
         id="path9596" /></clipPath></defs><sodipodi:namedview
     pagecolor="#ffffff"
     bordercolor="#666666"
     borderopacity="1"
     objecttolerance="10"
     gridtolerance="10"
     guidetolerance="10"
     inkscape:pageopacity="0"
     inkscape:pageshadow="2"
     inkscape:window-width="2560"
     inkscape:window-height="1308"
     id="namedview4"
     showgrid="false"
     inkscape:zoom="0.3375"
     inkscape:cx="1991.1111"
     inkscape:cy="938.94703"
     inkscape:window-x="0"
     inkscape:window-y="22"
     inkscape:window-maximized="1"
     inkscape:current-layer="g10" /><g
     id="g10"
     inkscape:groupmode="layer"
     inkscape:label="screen__wald2_cs5"
     transform="matrix(1.25,0,0,-1.25,0,1920)"><g
       id="g7774"><g
         id="g7776"
         clip-path="url(#clipPath7778)"><g
           id="g7782"
           transform="translate(1909.4785,1365.8315)"><path
             d="m 0,0 c -12.499,-2.314 -29.832,-10.056 -41.762,-15.332 -7.846,-3.47 -25.553,4.089 -34.302,2.711 -59.302,-9.335 -121.089,-21.148 -181.665,-31.403 -4.547,-0.769 -12.5,3.912 -17.033,3.161 -8.284,-1.371 -13.128,-8.15 -21.346,-9.441 -21.753,-3.418 -43.244,-6.516 -64.294,-9.103 -22.509,-2.765 -63.628,-7.249 -83.632,-9.645 -47.08,-5.64 -66.708,-0.022 -91.183,-3.042 -27.82,-3.432 -77.379,-19.642 -116.712,-11.738 -15.25,3.065 -32.858,-8.584 -50.585,-9.826 -21.432,-1.501 -44.551,-2.494 -69.415,-2.674 -14.363,-0.104 -24.527,15.404 -38.789,15.377 -14.843,-0.028 -68.604,-15.43 -83.044,-15.377 -9.98,0.038 -17,9.5 -29.494,6.233 -18.64,-4.875 -41.183,6.793 -58.381,7.094 -13.938,0.243 -22.859,-11.538 -35.288,-9.493 -29.541,4.86 -37.837,19.166 -70.337,14.166 -17.281,-2.658 -34.881,-9.167 -52.368,-6.427 -120.959,18.953 -270.875,34.882 -414.769,55.73 -7.831,1.135 -9.899,11.452 -17.734,12.701 -52.743,8.412 -104.036,-3.099 -155.795,12.496 -10.213,3.078 -51.173,-7.067 -87.216,2.788 -30.074,8.223 -44.895,28.536 -47.405,32.819 -1.274,2.174 -2.491,3.373 -1.741,8.248 6.336,-2.716 23.393,-19.252 53.509,-26.891 36.422,-9.24 75.856,-0.094 83.519,-7.758 3.656,-3.655 33.816,-1.296 81.183,-11.573 8.367,-1.816 18.521,-19.401 27.817,-20.942 19.29,-3.198 37.851,1.069 61,-1.888 5.709,-0.729 15.442,3.85 21.325,3.112 72.397,-9.085 157.448,-18.803 240.7,-27.687 22.036,-2.352 47.553,-18.084 69.07,-20.292 27.16,-2.787 50.086,8.001 75.452,5.542 74.732,-7.246 139.334,-12.834 180.022,-15.367 15.505,-0.965 40.431,1.389 49.931,4.889 17.824,6.567 23.251,-6.103 42.015,-5.622 17.242,0.443 72.351,3.875 89.485,4.622 46.671,2.036 58.37,-8.724 105.361,-5.765 17.801,1.121 32.462,13.173 50.473,14.232 22.742,1.063 55.934,-4.16 78.166,-2.955 29.297,1.588 44.633,9.475 73.268,11.447 26.151,1.802 51.765,-1.624 77.732,0.634 39.088,3.399 49.848,10.904 86,19.882 5.646,1.401 37.74,0.147 43.5,1.494 11.663,2.729 19.552,7.604 32,9.791 52.761,9.271 116.252,10.054 169.599,21.044 7.694,1.585 15.426,6.615 23.157,4.884 14.244,-3.188 19.667,4.309 29.568,6.572 C -6.399,4.235 30.708,25.91 31.37,24.374 34.597,16.889 6.342,1.174 0,0"
             style="fill:#2c7534;fill-opacity:1;fill-rule:nonzero;stroke:none"
             id="path7784" /></g><g
           id="g7786"
           transform="translate(1909.0801,1367.2778)"><path
             d="m 0,0 c -10.252,-2.119 -20.061,-5.959 -29.666,-10.055 -5.38,-2.294 -11.122,-5.851 -17.027,-6.143 -6.026,-0.299 -12.434,1.745 -18.322,2.86 -9.82,1.859 -19.172,-0.563 -28.911,-2.153 -15.677,-2.559 -31.331,-5.256 -46.978,-7.987 -30.453,-5.315 -60.87,-10.838 -91.323,-16.158 -7.286,-1.273 -14.576,-2.527 -21.867,-3.771 -6.841,-1.167 -11.573,1.561 -18.024,2.593 -2.659,0.424 -5.784,-0.619 -8.09,-1.796 -6.638,-3.387 -11.966,-7.078 -19.523,-8.261 -49.005,-7.663 -98.306,-12.867 -147.565,-18.55 -21.604,-2.492 -43.086,-2.162 -64.768,-1.716 -17.655,0.363 -34.338,-2.629 -51.578,-6.167 -25.133,-5.159 -50.627,-10.088 -76.4,-8.108 -11.717,0.9 -20.183,2.758 -31.769,-0.364 -6.137,-1.654 -12.124,-3.863 -18.239,-5.603 -8.184,-2.331 -16.689,-2.559 -25.128,-3.062 -13.868,-0.828 -27.754,-1.329 -41.643,-1.634 -7.11,-0.157 -14.664,-0.998 -21.568,0.975 -6.192,1.771 -11.759,6.35 -17.239,9.586 -13.319,7.867 -28.06,3.118 -42.166,0.084 -17.265,-3.713 -34.587,-8.767 -52.18,-10.662 -8.941,-0.963 -16.124,4.849 -24.606,6.494 -3.842,0.744 -7.64,-0.275 -11.365,-1.088 -8.059,-1.759 -16.931,0.165 -24.799,1.863 -10.152,2.19 -20.056,5.38 -30.494,5.871 -10.358,0.488 -18.995,-6.774 -28.583,-9.32 -9.979,-2.651 -24.011,4.179 -33.233,7.813 -8.619,3.396 -17.073,6.205 -26.342,7.06 -11.827,1.09 -23.786,-1.903 -35.237,-4.389 -17.388,-3.775 -32.036,-3.271 -49.468,-0.617 -26.739,4.071 -53.529,7.803 -80.334,11.418 -57.075,7.696 -114.235,14.744 -171.36,22.048 -31.226,3.993 -62.441,8.063 -93.633,12.307 -14.464,1.968 -28.921,3.988 -43.371,6.049 -7.168,1.022 -13.208,1.037 -18.33,6.693 -2.244,2.478 -4.758,6.061 -8.204,7.011 -12.093,3.333 -25.71,3.328 -38.16,3.805 -15.334,0.589 -30.696,0.278 -46.037,0.377 -14.135,0.092 -28.238,0.695 -42.28,2.349 -12.236,1.442 -24.363,6.627 -36.543,7.161 -10.576,0.465 -21.404,-1.328 -31.958,-1.892 -15.714,-0.838 -31.45,-0.233 -46.843,3.217 -13.829,3.098 -26.623,9.837 -37.362,19.005 -5.998,5.119 -14.511,12.795 -13.876,21.434 -0.752,-0.432 -1.504,-0.864 -2.256,-1.296 5.067,-2.412 9.565,-6.241 14.237,-9.318 8.639,-5.69 17.859,-10.288 27.515,-13.971 23.741,-9.056 49.343,-8.358 74.311,-8.181 7.493,0.052 14.714,0.286 21.298,-3.448 3.189,-1.809 7.509,-1.812 11.055,-2.144 22.362,-2.095 44.475,-4.07 66.543,-8.545 10.505,-2.13 16.186,-11.536 24.095,-17.984 7.028,-5.729 17.428,-4.988 25.955,-5.036 13.099,-0.075 26.066,0.894 39.158,-0.22 4.899,-0.417 8.55,-0.227 13.322,0.885 7.639,1.781 13.548,1.574 21.275,0.611 58.56,-7.293 117.189,-14.027 175.844,-20.495 29.424,-3.245 58.674,-4.5 86.576,-15.008 11.342,-4.271 22.588,-8.803 34.587,-10.871 11.788,-2.031 24.021,-0.467 35.735,1.302 13.229,1.998 26.221,4.571 39.667,4.082 15.533,-0.565 31.193,-2.935 46.672,-4.378 26.638,-2.484 53.287,-4.856 79.951,-7.048 20.428,-1.68 40.972,-3.787 61.467,-4.373 10.242,-0.293 20.712,0.46 30.842,1.974 10.975,1.64 21.434,6.891 32.459,3.36 8.574,-2.746 15.723,-6.1 24.969,-5.84 8.098,0.228 16.193,0.69 24.283,1.113 18.926,0.989 37.842,2.135 56.768,3.124 21.248,1.11 41.711,-0.366 62.744,-3.298 20.849,-2.907 44.08,-5.452 64.463,0.931 12.107,3.792 22.97,9.996 35.828,11.184 12.395,1.145 25.363,-0.515 37.727,-1.418 24.189,-1.765 47.156,-2.202 71.037,2.664 12.006,2.446 23.841,5.257 36.038,6.666 15.708,1.814 31.647,1.101 47.412,0.676 25.981,-0.699 51.641,0.668 76.885,7.19 18.918,4.887 37.535,13.555 57.252,13.922 8.255,0.153 16.513,0.022 24.768,0.22 8.889,0.214 16.702,3.18 25.014,6.232 16.861,6.19 35.561,7.514 53.286,9.519 18.102,2.047 36.261,3.581 54.395,5.31 17.066,1.626 34.108,3.469 51.076,5.918 8.634,1.247 17.223,2.767 25.773,4.491 3.958,0.797 7.756,2.387 11.565,3.686 5.186,1.769 9.032,0.995 14.33,0.592 11.039,-0.839 20.639,5.101 30.91,8.289 9.766,3.032 19.045,8.051 28.147,12.619 4.408,2.212 8.792,4.473 13.211,6.664 1.581,0.783 3.172,1.559 4.805,2.232 1.181,0.488 -2.333,-3.722 -3.092,-4.563 C 21.12,9.509 9.355,2.251 0,0 -1.881,-0.452 -1.083,-3.345 0.797,-2.893 11.793,-0.247 26.425,8.53 32.512,18.214 38.952,28.46 24.015,21.392 21.436,20.099 6.178,12.456 -8.734,5.818 -24.738,0.07 c -4.094,-1.471 -7.837,-3.698 -11.991,-5.056 -6.201,-2.026 -12.398,0.437 -18.676,0.086 -5.038,-0.282 -10.132,-2.852 -14.871,-4.392 -7.022,-2.282 -14.835,-3.038 -22.103,-4.222 -29.007,-4.724 -58.392,-6.926 -87.628,-9.71 -25.526,-2.43 -53.35,-3.446 -77.686,-12.042 -8.796,-3.108 -16.668,-5.943 -26.02,-6.168 -8.887,-0.214 -17.778,-0.029 -26.665,-0.259 -18.398,-0.476 -36.709,-9.201 -54.35,-13.947 -27.371,-7.365 -55.343,-7.638 -83.471,-6.884 -26.568,0.712 -50.981,-2.187 -76.864,-7.648 -25.69,-5.421 -50.464,-3.965 -76.415,-2.11 -11.435,0.817 -23.079,1.754 -34.523,0.697 -11.752,-1.086 -22.667,-7.187 -33.654,-11.017 -22.167,-7.728 -49.197,-2.832 -71.894,0.335 -19.389,2.705 -38.547,2.987 -58.07,1.952 -19.238,-1.021 -38.471,-2.179 -57.711,-3.171 -7.003,-0.361 -14.009,-0.717 -21.019,-0.914 -10.866,-0.306 -19.103,6.537 -29.479,7.336 -8.57,0.659 -16.607,-3.143 -24.978,-4.549 -12.288,-2.065 -25.053,-2.678 -37.489,-2.054 -20.792,1.043 -41.573,2.938 -62.318,4.656 -27.096,2.243 -54.175,4.698 -81.245,7.232 -14.205,1.33 -28.495,3.315 -42.753,3.833 -12.491,0.454 -25.065,-2.343 -37.328,-4.303 -14.263,-2.28 -28.365,-3.037 -42.488,0.46 -13.021,3.224 -25.37,9.022 -38.029,13.38 -11.527,3.968 -23.04,5.139 -35.09,6.434 -15.951,1.715 -31.898,3.459 -47.843,5.221 -58.359,6.449 -116.685,13.212 -174.947,20.489 -7.967,0.995 -14.646,-1.927 -22.486,-2.771 -4.02,-0.433 -8.637,0.738 -12.684,0.979 -5.507,0.328 -11.044,0.194 -16.555,0.071 -9.266,-0.206 -18.473,-0.599 -27.729,0.12 -9.999,0.777 -15.112,6.51 -21.77,13.238 -11.157,11.276 -26.527,11.585 -41.651,13.754 -13.115,1.881 -26.311,2.87 -39.506,3.96 -3.425,0.284 -7.403,0.262 -10.619,1.62 -2.968,1.253 -4.82,2.79 -8.25,3.393 -14.162,2.491 -29.504,0.318 -43.824,0.772 -20.922,0.665 -40.933,5.077 -59.592,14.664 -9.131,4.692 -16.928,11.954 -26.133,16.337 -1.062,0.506 -2.17,-0.111 -2.257,-1.295 -0.855,-11.633 11.927,-21.596 20.183,-27.937 18.813,-14.448 42.629,-18.603 65.783,-19.04 11.194,-0.211 22.386,0.728 33.537,1.582 10.592,0.812 18.195,-0.198 28.542,-2.733 27.714,-6.79 56.696,-6.179 85.017,-6.182 14.243,-0.002 28.466,-0.246 42.668,-1.376 7.793,-0.62 17.742,-0.07 23.681,-5.808 3.149,-3.043 5.225,-6.303 9.221,-8.33 4.553,-2.309 11.754,-2.028 16.768,-2.743 7.222,-1.03 14.446,-2.041 21.671,-3.046 14.612,-2.032 29.231,-4.007 43.854,-5.959 59.436,-7.931 118.949,-15.272 178.424,-22.91 29.077,-3.734 58.143,-7.554 87.181,-11.578 25.331,-3.511 51.114,-9.36 76.631,-10.856 12.998,-0.762 26.25,3.288 38.838,5.877 13.411,2.758 26.233,3.024 39.34,-1.087 16.492,-5.172 34.686,-17.181 52.06,-9.162 5.203,2.401 10.224,4.97 15.826,6.33 6.547,1.59 13.965,-0.475 20.364,-1.908 11.561,-2.588 22.791,-6 34.745,-5.914 6.189,0.044 11.75,2.474 18.026,1.257 4.411,-0.855 8.545,-3.394 12.73,-5.019 5.898,-2.29 12.307,-1.002 18.327,0.005 17.932,2.997 35.552,7.772 53.362,11.395 7.381,1.501 15.234,3.497 22.772,2.132 10.561,-1.911 18.631,-11.266 29.003,-14.231 5.145,-1.471 11.132,-0.561 16.379,-0.48 7.148,0.111 14.295,0.325 21.439,0.575 13.28,0.463 27.297,0.206 40.43,2.34 13.225,2.151 25.458,8.25 38.778,9.837 5.58,0.665 11.325,-1.018 16.855,-1.724 6.896,-0.881 13.894,-0.887 20.829,-0.705 23.525,0.62 46.696,6.124 69.666,10.738 17.708,3.556 34.616,4.113 52.594,3.634 44.525,-1.186 89.167,6.064 133.294,11.302 11.777,1.398 23.535,2.946 35.281,4.583 7.181,1 14.352,2.062 21.521,3.138 6.335,0.952 14.068,0.99 19.874,3.935 5.949,3.018 11.892,8.597 19.07,7.45 3.858,-0.617 7.669,-3.1 11.645,-2.983 13.955,0.409 28.617,4.637 42.368,7.059 42.409,7.47 84.768,15.228 127.269,22.166 10.186,1.662 18.381,2.663 28.532,0.634 5.207,-1.041 11.318,-2.775 16.682,-1.882 7.274,1.21 14.518,5.744 21.27,8.502 7.744,3.163 15.658,5.957 23.859,7.652 C 2.691,-2.501 1.888,0.39 0,0"
             style="fill:#315409;fill-opacity:1;fill-rule:nonzero;stroke:none"
             id="path7788" /></g><g
           id="g7790"
           transform="translate(1380.2168,1296.6665)"><path
             d="M 0,0 C -9.844,9.116 -20.667,10 -34.667,10 -35.334,-4.667 -2,-1.333 8,-5.333 c 4,-1.334 21.333,-8 10.666,-14.667 -6,-4 -14,12 -16.666,16.667 0,0 -1.287,2.672 -2,3.333"
             style="fill:#2c7534;fill-opacity:1;fill-rule:nonzero;stroke:none"
             id="path7792" /></g><g
           id="g7794"
           transform="translate(1381.2773,1297.7271)"><path
             d="m 0,0 c -10.215,9.099 -22.548,10.404 -35.728,10.439 -0.82,0.003 -1.497,-0.684 -1.5,-1.5 -0.026,-6.974 6.09,-10.093 12.017,-11.784 8.732,-2.491 18.005,-2.332 26.918,-3.772 C 6.734,-7.43 25.41,-13.874 16.849,-19.765 11.109,-23.714 2.807,-3.497 0,0 c -1.211,1.509 -3.319,-0.628 -2.121,-2.121 2.886,-3.596 4.655,-8.385 7.184,-12.258 2.127,-3.259 5.472,-8.304 9.768,-8.745 3.399,-0.348 6.981,2.596 7.628,5.898 0.755,3.851 -3.627,6.747 -6.381,8.41 -7.551,4.557 -15.857,5.524 -24.445,6.381 -7.064,0.705 -25.901,0.936 -25.861,11.374 l -1.5,-1.5 C -23.41,7.406 -11.71,6.42 -2.121,-2.121 -0.682,-3.403 1.447,-1.289 0,0"
             style="fill:#315409;fill-opacity:1;fill-rule:nonzero;stroke:none"
             id="path7796" /></g><g
           id="g7798"
           transform="translate(1829.2168,1349)"><path
             d="M 0,0 C 1.5,-6.5 -1,-23 -10.5,-24 -24,-25.5 -14,-3 -9,1.5 -5,5 1,5.5 3.5,11 5.5,16 3,22 -1.5,24.5 -16,33 1,9.5 0,3 L 0,0 z"
             style="fill:#2c7534;fill-opacity:1;fill-rule:nonzero;stroke:none"
             id="path7800" /></g><g
           id="g7802"
           transform="translate(1827.7705,1348.6011)"><path
             d="m 0,0 c 1.193,-5.994 -0.231,-13.043 -3.437,-18.197 -1.771,-2.846 -6.473,-5.633 -9.637,-3.151 -2.111,1.655 -1.196,5.705 -0.721,7.848 1.093,4.936 3.603,10.768 7.302,14.338 4.66,4.498 13.21,4.995 13.576,13.123 0.285,6.347 -3.299,10.992 -8.922,13.541 -2.485,1.126 -5.264,0.978 -5.595,-2.186 -0.398,-3.803 2.812,-8.725 4.293,-12.041 1.997,-4.471 3.087,-8.03 3.087,-12.876 0,-1.935 3,-1.935 3,0 0,4.284 -0.572,7.502 -2.248,11.516 -1.703,4.08 -5.015,8.883 -5.132,13.401 0.005,-0.187 2.399,-1.036 2.683,-1.182 C 1.12,22.659 2.861,20.478 3.837,17.445 5.808,11.32 0.315,8.092 -4.211,5.806 -9.047,3.363 -11.61,-0.339 -13.93,-5.12 c -3.173,-6.543 -6.978,-20.815 4.876,-19.981 10.95,0.77 13.61,17.547 11.947,25.899 C 2.515,2.694 -0.376,1.889 0,0"
             style="fill:#315409;fill-opacity:1;fill-rule:nonzero;stroke:none"
             id="path7804" /></g><g
           id="g7806"
           transform="translate(698.0654,1293.7266)"><path
             d="m 0,0 c 2.929,10.667 -6.183,12.606 -13.516,13.273 -5.334,-10.667 27.333,-19.333 31.333,-26 5.333,-8.333 -10,-7.333 -15,-5.667 -6.333,1.667 -10,10.667 -4.333,16.334 L 0,0 z"
             style="fill:#2c7534;fill-opacity:1;fill-rule:nonzero;stroke:none"
             id="path7808" /></g><g
           id="g7810"
           transform="translate(699.5117,1293.3276)"><path
             d="m 0,0 c 2.496,10.726 -5.721,14.261 -14.962,15.172 -0.465,0.046 -1.106,-0.308 -1.295,-0.743 C -21.115,3.233 0.575,-4.188 7.451,-7.803 c 2.537,-1.335 5.266,-2.72 7.275,-4.807 4.271,-4.439 -3.289,-5.049 -6.059,-5.008 -4.197,0.061 -8.78,0.846 -11.417,4.417 -3.5,4.739 -0.227,9.003 2.599,12.843 1.148,1.561 -1.457,3.054 -2.591,1.514 -2.977,-4.047 -5.184,-7.055 -4.16,-12.319 0.956,-4.922 5.339,-7.794 9.881,-8.797 5.367,-1.186 19.104,-1.625 15.196,7.502 -1.297,3.029 -4.883,4.845 -7.577,6.36 -4.742,2.669 -9.71,4.914 -14.458,7.574 -3.495,1.959 -9.858,5.164 -10.189,9.77 -0.136,1.897 5.544,-0.201 6.729,-0.611 C -2.775,9.061 -1.887,5.118 -2.893,0.798 -3.331,-1.084 -0.438,-1.884 0,0"
             style="fill:#315409;fill-opacity:1;fill-rule:nonzero;stroke:none"
             id="path7812" /></g><g
           id="g7814"
           transform="translate(275.5498,1353.6665)"><path
             d="m 0,0 c 2.849,4.109 1.666,8 -0.334,13 -1.666,3.667 -5.666,9.333 -7,2.667 -1.333,-7.334 7.667,-17 9,-24.334 C 3,-15.667 -5.667,-32 -13,-22 c -5,6.333 4.984,18.261 10.333,21 0.634,0.325 2.261,0.415 2.667,1"
             style="fill:#2c7534;fill-opacity:1;fill-rule:nonzero;stroke:none"
             id="path7816" /></g><g
           id="g7818"
           transform="translate(276.8452,1352.9092)"><path
             d="m 0,0 c 2.492,4.224 2.024,8.032 0.449,12.529 -0.883,2.52 -2.927,7.637 -5.985,8.288 -8.869,1.889 -2.383,-14.443 -0.888,-17.317 2.243,-4.314 5.611,-8.875 5.393,-13.937 -0.186,-4.332 -3.032,-10.686 -7.315,-12.313 -3.376,-1.284 -5.777,3.467 -5.801,6.061 -0.025,2.704 1.68,5.376 3.093,7.556 1.409,2.173 3.253,4.054 5.182,5.763 1.652,1.463 3.541,1.736 5.333,2.832 1.647,1.008 0.142,3.603 -1.513,2.591 -1.614,-0.987 -3.274,-1.267 -4.852,-2.429 -1.592,-1.173 -2.969,-2.595 -4.286,-4.06 -2.713,-3.017 -5.427,-7.096 -5.852,-11.239 -0.686,-6.662 5.878,-12.97 12.077,-8.618 6.086,4.272 8.242,13.565 5.725,20.224 -1.974,5.222 -5.384,9.762 -7.286,15.027 -0.509,1.409 -0.706,2.862 -0.728,4.35 -0.072,4.921 2.914,0.284 3.325,-0.374 2.5,-4 3.834,-9.19 1.338,-13.419 C -3.576,-0.156 -0.982,-1.664 0,0"
             style="fill:#315409;fill-opacity:1;fill-rule:nonzero;stroke:none"
             id="path7820" /></g><g
           id="g7822"
           transform="translate(1509.7568,1302.7417)"><path
             d="m 0,0 c 0,4.5 2.46,17.258 -8.04,13.258 -6.5,-2.5 5,-11 8,-14.5 3,-4 10,-13 1.5,-15 -10,-2 -3.5,11 -2,15.5 L 0,0 z"
             style="fill:#2c7534;fill-opacity:1;fill-rule:nonzero;stroke:none"
             id="path7824" /></g><g
           id="g7826"
           transform="translate(1511.2568,1302.7417)"><path
             d="m 0,0 c 0.078,4.154 1.671,11.792 -2.673,14.521 -3.956,2.486 -11.91,0.091 -9.904,-5.516 1.064,-2.977 3.961,-5.431 6.163,-7.551 2.975,-2.864 5.478,-5.702 7.548,-9.31 1.581,-2.755 2.152,-5.799 -1.572,-6.939 -3.843,-1.176 -3.718,2.357 -3.208,4.779 0.606,2.877 1.691,6.855 3.441,9.259 1.142,1.567 -1.464,3.061 -2.59,1.514 -2.611,-3.586 -5.487,-11.742 -3.683,-16.065 2.105,-5.042 11.792,-2.514 11.967,2.677 0.243,7.212 -6.676,13.127 -11.339,17.723 -1.579,1.556 -3.321,3.275 -4.083,5.404 -0.666,1.859 4.085,2.054 4.863,1.905 1.242,-0.239 1.653,-1.608 1.951,-2.598 C -2.19,6.718 -2.94,3.16 -3,0 -3.036,-1.936 -0.036,-1.932 0,0"
             style="fill:#315409;fill-opacity:1;fill-rule:nonzero;stroke:none"
             id="path7828" /></g><g
           id="g7830"
           transform="translate(641.9092,1247.5)"><path
             d="m 0,0 c 0,-10.494 -8.507,-19 -19,-19 -10.493,0 -19,8.506 -19,19 0,10.494 8.507,19 19,19 C -8.507,19 0,10.494 0,0"
             style="fill:#ffe525;fill-opacity:1;fill-rule:nonzero;stroke:none"
             id="path7832" /></g><g
           id="g7834"><g
             id="g7836" /><g
             id="g7842"><g
               clip-path="url(#clipPath7838)"
               opacity="0.300003"
               id="g7844"><g
                 transform="translate(641.9092,1247.5)"
                 id="g7846"><path
                   d="M 0,0 C 0,-6.333 -3.098,-11.942 -7.862,-15.395 -7.833,-7 -10,6.167 -30.647,15.012 -27.431,17.512 -23.389,19 -19,19 -8.507,19 0,10.494 0,0"
                   style="fill:#000000;fill-opacity:1;fill-rule:nonzero;stroke:none"
                   id="path7848" /></g></g></g></g><g
           id="g7850"
           transform="translate(593,1261)"><path
             d="m 0,0 c 17.733,2.189 14.5,11.5 12,23.5 -1.5,7.5 -3.5,12 5,15 5.5,2 13,1 18,-1.5 12.5,-5.5 6,-28.5 19,-28.5 2.5,0 2.5,4.5 7,3 3.5,-1 5,-4 5,-7.5 -0.5,-7.5 -11,-5.5 -16.5,-5.5 0.5,-3 4.5,-10.5 -2,-10.5 -4,0 -5,7 -10,7 -2,-7 -1,-14.5 -8.5,-8.5 -2.5,2 -2,6.5 -6,7 -7,1 -3.5,-4 -5.5,-7.5 -7,-10.5 -2.5,2 -9,5 -4,2 -20.557,-3.86 -12.5,6.5 0.724,0.931 2.83,2.355 4,2.5"
             style="fill:#e5e5e5;fill-opacity:1;fill-rule:nonzero;stroke:none"
             id="path7852" /></g><g
           id="g7854"
           transform="translate(593.3989,1259.5537)"><path
             d="m 0,0 c 5.077,0.713 10.291,1.943 13.419,6.321 2.373,3.322 1.718,8.052 1.111,11.793 -0.787,4.858 -4.558,12.945 -2.041,17.52 2.203,4.006 9.49,4.009 13.3,3.75 4.119,-0.28 8.699,-1.807 11.624,-4.802 6.576,-6.733 2.931,-20.599 12.078,-25.281 1.573,-0.806 3.478,-0.989 5.191,-0.676 0.669,0.122 1.274,0.752 1.744,1.192 2.167,2.029 4.443,2.558 6.692,-0.44 3.944,-5.257 -1.845,-7.932 -5.977,-8.155 -2.675,-0.144 -5.366,0.182 -8.04,0.224 -1.018,0.016 -1.649,-0.965 -1.446,-1.899 0.298,-1.374 0.758,-2.705 1.148,-4.055 0.999,-3.455 -1.701,-5.674 -4.324,-2.675 -2.278,2.604 -3.757,4.736 -7.378,5.129 -0.647,0.071 -1.292,-0.509 -1.446,-1.101 -0.901,-3.455 -1.824,-14.209 -6.959,-6.694 -1.378,2.018 -1.796,5.284 -4.624,5.978 -2.062,0.507 -5.23,1.026 -6.712,-0.988 -0.581,-0.79 -0.868,-1.637 -0.931,-2.627 -0.188,-2.941 -0.73,-4.743 -2.668,-7.102 0.304,-0.867 0.337,-0.91 0.099,-0.129 -0.195,0.685 -0.332,1.392 -0.504,2.083 -0.301,1.216 -0.783,2.354 -1.37,3.454 C 10.984,-7.301 9.028,-6.024 6.96,-5.719 4.561,-5.365 2.057,-5.743 -0.347,-5.886 -1.636,-5.962 -2.955,-6.014 -4.232,-5.795 -7.084,-5.307 -0.917,-0.289 0,0 1.838,0.58 1.053,3.476 -0.798,2.893 -5.259,1.486 -12.511,-8.017 -4.032,-8.844 c 3.581,-0.349 7.221,0.67 10.778,0.146 4.823,-0.711 2.422,-6.672 5.138,-8.81 2.4,-1.888 4.322,1.133 5.627,2.905 1.301,1.767 1.722,3.337 1.84,5.488 0.28,5.11 4.993,1.539 6.313,-1.396 1.147,-2.553 5.54,-6.572 8.586,-4.935 3.593,1.931 3.405,8.069 4.297,11.493 -0.482,-0.366 -0.964,-0.734 -1.446,-1.101 4.595,-0.499 7.022,-10.124 12.83,-6.424 4.284,2.73 1.449,7.989 0.616,11.823 -0.482,-0.633 -0.964,-1.266 -1.446,-1.899 5.331,-0.084 11.836,-1.418 16.181,2.488 3.863,3.473 1.4,11.289 -3.062,12.993 -2.074,0.792 -4.546,1.388 -6.367,-0.328 -3.037,-2.861 -5.939,-2.15 -8.059,1.48 -3.19,5.468 -3.101,12.488 -5.907,18.215 -3.019,6.16 -9.742,8.279 -16.098,9.09 C 19.955,43.128 11.371,41.545 9.078,35.325 7.205,30.244 10.723,22.377 11.637,17.316 12.21,14.146 12.501,10.724 10.829,7.835 8.683,4.13 2.979,3.423 -0.798,2.893 -2.707,2.625 -1.892,-0.266 0,0"
             style="fill:#b2b2b2;fill-opacity:1;fill-rule:nonzero;stroke:none"
             id="path7856" /></g><g
           id="g7858"
           transform="translate(610,1299.5)"><path
             d="M 0,0 C 5.5,2 13,1 18,-1.5 30.5,-7 24,-30 37,-30 c 2.5,0 2.5,4.5 7,3 3.5,-1 5,-4 5,-7.5 C 48.5,-42 38,-40 32.5,-40 c 0.5,-3 4.5,-10.5 -2,-10.5 -4,0 -5,7 -10,7 -2.901,7.516 -0.81,23.044 -7.591,34.598 C 10.54,-4.865 3.948,-3.301 0,0"
             style="fill:#adadad;fill-opacity:1;fill-rule:nonzero;stroke:none"
             id="path7860" /></g><g
           id="g7862"
           transform="translate(798.2051,1226.8149)"><path
             d="m 0,0 c 0,-10.494 -8.507,-19 -19,-19 -10.493,0 -19,8.506 -19,19 0,10.494 8.507,19 19,19 C -8.507,19 0,10.494 0,0"
             style="fill:#dd3e65;fill-opacity:1;fill-rule:nonzero;stroke:none"
             id="path7864" /></g><g
           id="g7866"><g
             id="g7868" /><g
             id="g7874"><g
               clip-path="url(#clipPath7870)"
               opacity="0.300003"
               id="g7876"><g
                 transform="translate(798.2051,1226.8149)"
                 id="g7878"><path
                   d="M 0,0 C 0,-6.333 -3.098,-11.942 -7.862,-15.395 -7.833,-7 -10,6.167 -30.647,15.012 -27.431,17.512 -23.389,19 -19,19 -8.507,19 0,10.494 0,0"
                   style="fill:#000000;fill-opacity:1;fill-rule:nonzero;stroke:none"
                   id="path7880" /></g></g></g></g><g
           id="g7882"
           transform="translate(754.5,1243)"><path
             d="m 0,0 c 12.329,2.12 9,24 19,31 5.5,3.5 13.5,4 17.5,-2 4,-6 1,-14 4,-20 C 44,1.5 55,5.5 54,-1.5 52.5,-13 43,0.5 39.5,-3 c -2.5,-2.5 3.5,-8 0,-9.5 -3.5,-2 -4.5,5 -6.5,5.5 -8.5,2.5 0,-14.5 -11.5,-7.5 -2,1 -1.5,6.5 -5,6.5 -4.5,0 -2,-5.5 -3.5,-7.5 -2,-2 -1,-5.5 -5.5,-1.5 -2.5,2.5 -3,5.5 -2,8 -4,0 -14.696,3.373 -8,8 0.554,0.383 1.836,0.886 2.5,1"
             style="fill:#e5e5e5;fill-opacity:1;fill-rule:nonzero;stroke:none"
             id="path7884" /></g><g
           id="g7886"
           transform="translate(754.8989,1241.5537)"><path
             d="m 0,0 c 7.106,1.568 9.54,8.464 11.421,14.717 1.302,4.327 2.372,8.72 4.621,12.68 3.185,5.608 10.875,7.811 16.474,4.602 6.021,-3.451 3.828,-12.287 4.909,-17.858 0.815,-4.205 2.62,-7.392 6.568,-9.243 1.594,-0.747 3.356,-1.121 5.046,-1.58 1.257,-0.342 2.917,-0.742 3.125,-2.401 0.143,-1.145 -0.331,-4.112 -2.002,-4.207 -2.787,-0.158 -5.831,3.067 -8.579,3.729 -1.635,0.394 -3.905,-0.422 -4.363,-2.221 -0.364,-1.433 -0.158,-2.589 0.298,-3.988 0.284,-0.87 0.673,-1.713 0.983,-2.575 -0.378,-0.407 -0.757,-0.815 -1.136,-1.222 -0.479,0.584 -0.892,1.211 -1.237,1.881 -1.38,2.422 -2.522,4.031 -5.55,3.85 -1.994,-0.12 -3.079,-1.789 -3.584,-3.527 -0.546,-1.876 0.227,-6.476 -2.684,-5.642 -3.935,1.129 -3.085,7.116 -6.873,7.743 -2.849,0.471 -4.997,-0.496 -5.613,-3.457 -0.403,-1.939 0.038,-3.359 -1.036,-5.214 -0.363,-0.624 -0.669,-1.26 -0.986,-1.908 -0.547,0.449 -1.094,0.899 -1.64,1.348 -1.985,1.996 -2.523,4.176 -1.615,6.54 0.281,0.97 -0.488,1.858 -1.446,1.899 C 3.389,-5.981 1.785,-5.58 0.16,-5.062 -3.372,-3.935 -4.474,-1.228 0,0 c 1.863,0.511 1.071,3.405 -0.798,2.893 -3.353,-0.92 -6.913,-3.565 -5.187,-7.334 1.563,-3.413 7.857,-4.475 11.086,-4.613 -0.482,0.633 -0.964,1.266 -1.446,1.899 -1.182,-4.08 0.197,-8.308 3.883,-10.678 2.636,-1.695 4.173,-0.967 5.45,1.714 0.61,1.28 1.476,1.946 1.601,3.449 0.073,0.891 0.091,1.774 0.111,2.668 1.006,0.058 2.011,0.116 3.017,0.174 0.21,-0.594 0.422,-1.187 0.637,-1.779 0.924,-2.561 4.129,-4.715 6.906,-4.643 2.007,0.051 3.129,1.099 3.798,2.934 0.389,1.068 0.847,9.68 3.615,5.654 1.566,-2.277 2.366,-5.214 5.603,-5.213 3.009,10e-4 3.726,3.041 3.118,5.328 -0.272,1.024 -2.686,5.594 0.016,4.943 1.6,-0.385 3.137,-1.541 4.573,-2.311 1.936,-1.038 5.042,-2.296 6.931,-0.436 1.998,1.969 2.806,5.546 1.839,8.18 -1.071,2.919 -5.157,3.425 -7.701,4.144 -7.681,2.17 -6.777,10.011 -7.252,16.462 -0.366,4.978 -2.492,9.276 -6.872,11.786 C 25.273,39.609 16.011,34.036 12.492,27.127 8.771,19.823 8.889,5.031 -0.798,2.893 -2.687,2.476 -1.885,-0.416 0,0"
             style="fill:#b2b2b2;fill-opacity:1;fill-rule:nonzero;stroke:none"
             id="path7888" /></g><g
           id="g7890"
           transform="translate(783.6665,1256.8335)"><path
             d="m 0,0 c 0,2.445 -5.69,19.37 -3.267,19.654 4.038,0.473 8.1,-0.737 10.6,-4.487 4,-6 1,-14 4,-20 3.5,-7.5 14.5,-3.5 13.5,-10.5 -1.5,-11.5 -11,2 -14.5,-1.5 -2.5,-2.5 3.5,-8 0,-9.5 -3.5,-2 -4.5,5 -6.5,5.5 C -4.667,-18.333 0,-16.8 0,0"
             style="fill:#adadad;fill-opacity:1;fill-rule:nonzero;stroke:none"
             id="path7892" /></g><g
           id="g7894"
           transform="translate(1138.0283,1228.0122)"><path
             d="m 0,0 c 0,-10.494 -8.507,-19 -19,-19 -10.493,0 -19,8.506 -19,19 0,10.494 8.507,19 19,19 C -8.507,19 0,10.494 0,0"
             style="fill:#ffe525;fill-opacity:1;fill-rule:nonzero;stroke:none"
             id="path7896" /></g><g
           id="g7898"><g
             id="g7900" /><g
             id="g7906"><g
               clip-path="url(#clipPath7902)"
               opacity="0.300003"
               id="g7908"><g
                 transform="translate(1138.0283,1228.0122)"
                 id="g7910"><path
                   d="M 0,0 C 0,-6.333 -3.098,-11.942 -7.861,-15.395 -7.833,-7 -10,6.167 -30.647,15.012 -27.431,17.512 -23.389,19 -19,19 -8.507,19 0,10.494 0,0"
                   style="fill:#000000;fill-opacity:1;fill-rule:nonzero;stroke:none"
                   id="path7912" /></g></g></g></g><g
           id="g7914"
           transform="translate(1092.5,1235)"><path
             d="m 0,0 c 17.619,-1.606 5.167,26 6.167,29 2,5.5 15.333,11 22.333,9.5 8.5,-2 7.5,-10.5 8.5,-17 0.5,-3 1.5,-7 3,-9.5 3,-4.5 4,-2.5 7.5,-5.5 1.5,-1.5 6,-3.5 4.5,-7 -3,-5 -7,1.5 -9.5,1 -4,-1 -2.5,-5 -5.5,-6 -5.5,-2 -4.5,3 -7.5,3 -4.5,-0.5 -3,-4 -6,-6 C 17.5,-12 17.667,-5 12.167,-4 9.542,-3.625 9.711,-9.491 5.833,-10.021 -0.63,-10.904 -5.775,-9.4 -2,-1.5 -1.73,-0.936 -0.622,0.057 0,0"
             style="fill:#e5e5e5;fill-opacity:1;fill-rule:nonzero;stroke:none"
             id="path7916" /></g><g
           id="g7918"
           transform="translate(1092.5,1233.5)"><path
             d="m 0,0 c 14.699,-0.889 10.904,16.138 8.616,25.231 -0.593,2.353 -1.636,4.383 0.017,6.44 3.083,3.838 8.889,5.679 13.484,6.69 6.06,1.334 10.939,-0.86 12.379,-7.12 1.095,-4.763 0.996,-9.549 2.404,-14.296 0.928,-3.127 2.729,-6.724 5.912,-8.049 1.776,-0.74 2.991,-1.546 4.53,-2.711 L 48.089,5.62 c 2.125,-0.982 2.035,-2.487 -0.27,-4.512 -0.852,0.413 -1.645,1.033 -2.445,1.539 -2.35,1.486 -4.805,0.757 -6.472,-1.364 -1.239,-1.578 -3.058,-6.751 -5.68,-3.262 -0.677,0.9 -1.258,1.674 -2.292,2.177 -2.293,1.115 -4.866,-0.651 -6.091,-2.49 -0.485,-0.728 -0.773,-1.669 -1.186,-2.445 -2.038,-3.828 -4.25,-1.39 -5.545,0.005 -1.254,1.349 -2.41,2.435 -4.087,3.227 -2.299,1.085 -3.963,0.239 -5.234,-1.748 -1.658,-2.596 -3.027,-3.965 -6.4,-3.987 -3.971,-0.025 -6.31,5.892 -1.989,7.294 1.832,0.594 1.049,3.491 -0.796,2.892 -3.216,-1.043 -4.24,-4.635 -4.379,-7.735 -0.15,-3.299 2.964,-4.91 5.73,-5.331 2.834,-0.431 6.727,-0.318 8.584,2.231 1.473,2.023 2.21,4.958 5.172,2.387 1.437,-1.248 2.356,-2.772 4.125,-3.606 2.75,-1.297 5.809,0.751 7.41,2.857 1.265,1.664 2.508,5.258 4.774,2.244 0.711,-0.946 1.707,-1.724 2.912,-1.868 3.238,-0.387 5.547,1.146 6.728,4.061 1.774,4.377 4.795,0.382 6.854,-0.231 1.736,-0.518 3.018,-0.372 4.475,0.729 7.816,5.904 -8.445,12.499 -10.692,15.573 -5.602,7.662 -0.48,19.4 -8.677,25.638 C 26.054,44.891 13.374,39.958 8.019,35.229 3.096,30.88 5.104,27.078 6.467,21.426 8.131,14.53 10.731,2.351 0,3 -1.934,3.117 -1.922,0.116 0,0"
             style="fill:#b2b2b2;fill-opacity:1;fill-rule:nonzero;stroke:none"
             id="path7920" /></g><g
           id="g7922"
           transform="translate(1111.3848,1272.6035)"><path
             d="m 0,0 c 3.475,1.037 6.99,1.459 9.615,0.896 8.5,-2 7.5,-10.5 8.5,-17 0.5,-3 1.5,-7 3,-9.5 3,-4.5 4,-2.5 7.5,-5.5 1.5,-1.5 6,-3.5 4.5,-7 -3,-5 -7,1.5 -9.5,1 -4,-1 -2.5,-5 -5.5,-6 -5.5,-2 -4.5,3 -7.5,3 C 6.115,-40.604 -5.791,-1.729 0,0"
             style="fill:#adadad;fill-opacity:1;fill-rule:nonzero;stroke:none"
             id="path7924" /></g><g
           id="g7926"
           transform="translate(949.8311,1231.8604)"><path
             d="m 0,0 c 0,-10.494 -8.507,-19 -19,-19 -10.493,0 -19,8.506 -19,19 0,10.494 8.507,19 19,19 C -8.507,19 0,10.494 0,0"
             style="fill:#7e15ff;fill-opacity:1;fill-rule:nonzero;stroke:none"
             id="path7928" /></g><g
           id="g7930"><g
             id="g7932" /><g
             id="g7938"><g
               clip-path="url(#clipPath7934)"
               opacity="0.300003"
               id="g7940"><g
                 transform="translate(949.8311,1231.8604)"
                 id="g7942"><path
                   d="M 0,0 C 0,-6.333 -3.098,-11.942 -7.862,-15.395 -7.833,-7 -10,6.167 -30.647,15.012 -27.431,17.512 -23.389,19 -19,19 -8.507,19 0,10.494 0,0"
                   style="fill:#000000;fill-opacity:1;fill-rule:nonzero;stroke:none"
                   id="path7944" /></g></g></g></g><g
           id="g7946"
           transform="translate(910.667,1242.6665)"><path
             d="m 0,0 c -3.509,15.667 -5.286,18.965 1.333,29 8.428,12.628 24.505,-1.096 27.793,-9.369 1.743,-4.686 2.101,-10.527 5.227,-14.06 2.451,-2.289 15.343,-4.538 9.042,-9.974 -2.29,-2.451 -6.179,0.263 -8.239,0.351 -5.362,-0.499 -2.877,0.851 -7.367,-1.991 -2.006,-1.493 1.458,-5.646 -3.762,-5.666 -3.161,-0.108 -5.328,3.14 -6.057,5.963 -3.445,-1.067 -4.1,-5.045 -6.389,-7.496 -2.667,8.611 -6.125,-1.316 -10.724,-0.999 -8.239,0.352 -4.464,7.542 -0.378,9.674 C 1.189,-4.197 0.175,-0.781 0,0"
             style="fill:#e5e5e5;fill-opacity:1;fill-rule:nonzero;stroke:none"
             id="path7948" /></g><g
           id="g7950"
           transform="translate(912.1133,1243.0654)"><path
             d="m 0,0 c -2.337,10.331 -6.696,24.649 5.077,31.417 5.455,3.135 12.463,-2.108 16.188,-5.679 4.709,-4.514 5.693,-9.825 7.506,-15.839 1.315,-4.358 3.36,-6.362 7.345,-8.049 1.804,-0.764 3.693,-1.5 5.255,-2.709 2.179,-1.686 -1.205,-3.652 -3.229,-3.273 -1.378,0.258 -2.641,0.897 -4.033,1.128 -3.404,0.563 -5.757,-0.384 -8.524,-2.143 -0.79,-0.502 -1.278,-1.422 -1.379,-2.332 -0.593,-5.345 -4.949,-2.217 -6.236,1.733 -0.323,0.989 -1.3,1.304 -2.203,0.896 -3.511,-1.584 -4.41,-4.893 -6.693,-7.73 0.836,-0.221 1.672,-0.441 2.507,-0.662 -2.369,6.592 -5.556,4.304 -9.866,1 -2.4,-1.84 -6.881,-0.693 -5.083,2.894 0.811,1.619 2.28,2.14 3.462,3.322 C 1.572,-4.548 0.415,-1.663 0,0 c -0.468,1.876 -3.361,1.08 -2.893,-0.798 0.357,-1.429 1.114,-2.808 -0.241,-3.816 -0.9,-0.669 -1.75,-1.538 -2.355,-2.486 -1.337,-2.091 -1.955,-4.202 -0.845,-6.514 0.993,-2.07 4.942,-3 6.943,-2.428 1.274,0.364 2.276,0.946 3.329,1.753 2.006,1.538 3.439,3.897 4.75,0.249 0.341,-0.947 1.739,-1.616 2.507,-0.661 2,2.485 3.033,5.883 6.085,7.261 l -2.203,0.896 c 1.296,-3.977 6.692,-10.317 11.185,-5.824 1.638,1.639 -0.051,4.066 1.99,5.364 2.817,1.791 6.052,0.876 9.092,-0.021 4.15,-1.224 9.18,2.539 7.292,6.934 -0.811,1.886 -3.574,3.003 -5.263,3.781 -4.56,2.103 -6.552,3.171 -8.152,8.478 C 29.064,19.32 27.377,24.372 21.646,29.465 17.133,33.476 10.953,36.414 4.901,34.581 -0.771,32.863 -4.411,25.541 -5.691,20.208 -7.308,13.475 -4.358,5.68 -2.893,-0.798 -2.466,-2.684 0.426,-1.884 0,0"
             style="fill:#b2b2b2;fill-opacity:1;fill-rule:nonzero;stroke:none"
             id="path7952" /></g><g
           id="g7954"
           transform="translate(912,1271.6665)"><path
             d="m 0,0 c 8.428,12.628 24.505,-1.096 27.793,-9.369 1.743,-4.686 2.101,-10.527 5.227,-14.06 2.451,-2.289 15.343,-4.538 9.042,-9.974 -2.29,-2.451 -6.179,0.263 -8.239,0.351 -5.362,-0.499 -2.877,0.851 -7.367,-1.991 -1.505,-1.12 0.067,-3.736 -1.254,-4.982 C 24.761,-40.441 27.333,-13.667 0,0"
             style="fill:#adadad;fill-opacity:1;fill-rule:nonzero;stroke:none"
             id="path7956" /></g><g
           id="g7958"
           transform="translate(1303.7939,1229.9854)"><path
             d="m 0,0 c 0,-10.494 -8.507,-19 -19,-19 -10.493,0 -19,8.506 -19,19 0,10.494 8.507,19 19,19 C -8.507,19 0,10.494 0,0"
             style="fill:#dd3e65;fill-opacity:1;fill-rule:nonzero;stroke:none"
             id="path7960" /></g><g
           id="g7962"><g
             id="g7964" /><g
             id="g7970"><g
               clip-path="url(#clipPath7966)"
               opacity="0.300003"
               id="g7972"><g
                 transform="translate(1303.0068,1224.5854)"
                 id="g7974"><path
                   d="m 0,0 c -1.798,-6.072 -6.361,-10.571 -11.908,-12.529 2.41,8.041 4.071,21.281 -13.215,35.625 3.794,1.484 8.092,1.763 12.3,0.517 C -2.762,20.633 2.979,10.062 0,0"
                   style="fill:#000000;fill-opacity:1;fill-rule:nonzero;stroke:none"
                   id="path7976" /></g></g></g></g><g
           id="g7978"
           transform="translate(1262.084,1239.9165)"><path
             d="m 0,0 c 8.833,-0.167 2.083,23.083 4.083,28.083 7.5,16.5 37.333,10.5 39.333,-9 0.5,-5 -3.737,-13.486 1,-15.5 3.334,-1.416 15,-16.5 1,-12.5 -3,1 -3,5 -6.5,6 -6.5,1.5 -3.749,-5.25 -6.249,-6.75 -5,-2.5 -2,-3 -7.5,-1 -3.5,1 -0.751,8.25 -7.251,4.75 -2.5,-1.5 -2,-6.5 -5,-7.5 -7,-2.5 -3,3 -6.5,5 -3.5,2.5 -6.249,-6.583 -9.749,-3.583 -2.5,2 -4.525,5.243 -2.667,8.25 1.662,2.69 4.375,3.781 6,3.75"
             style="fill:#e5e5e5;fill-opacity:1;fill-rule:nonzero;stroke:none"
             id="path7980" /></g><g
           id="g7982"
           transform="translate(1262.084,1238.4165)"><path
             d="m 0,0 c 6.648,0.347 6.32,8.76 6.104,13.604 -0.369,8.234 -3.338,16.315 4.882,21.593 7.649,4.911 18.626,2.226 25.076,-3.386 3.532,-3.075 5.711,-7.603 5.895,-12.271 0.158,-4.027 -2.838,-9.426 -0.711,-13.309 1.257,-2.293 4.02,-3.481 5.771,-5.473 1.167,-1.326 2.127,-2.817 2.944,-4.377 2.062,-3.935 -3.127,-3.455 -5.273,-1.518 -2.602,2.348 -3.811,6.383 -8.312,5.359 -3.061,-0.697 -3.477,-3.203 -4.001,-5.926 -0.102,-0.529 -2.845,-3.324 -3.709,-3.154 -2.446,0.481 -3.742,1.586 -4.445,3.846 -0.851,2.738 -2.915,3.431 -5.523,2.604 -1.548,-0.491 -2.484,-1.4 -3.371,-2.688 -0.401,-0.582 -0.74,-1.688 -0.983,-2.338 C 13.994,-8.363 10.455,-12.753 9.8,-10.705 9.053,-8.367 8.861,-5.463 5.726,-5.064 3.952,-4.838 2.693,-5.769 1.42,-6.901 0.225,-7.965 -1.159,-10.441 -3.305,-8.51 -6.926,-5.253 -4.418,-0.397 0,0 1.911,0.172 1.928,3.173 0,3 -3.485,2.687 -7.038,0.4 -8.015,-3.15 c -0.851,-3.095 1.628,-8.419 4.974,-9.242 2.898,-0.714 4.691,1.507 6.582,3.37 3.344,3.294 2.627,-4.032 5.238,-4.793 2.941,-0.857 6.012,0.678 7.506,3.197 0.584,0.984 3.797,8.817 5.243,4.165 0.42,-1.351 0.861,-2.553 1.957,-3.496 4.716,-4.057 11.095,-0.655 12.036,4.84 0.294,1.717 0.784,4.26 4.405,1.413 0.803,-0.631 1.341,-1.886 1.977,-2.707 1.248,-1.61 2.443,-2.287 4.39,-2.788 2.415,-0.622 5.48,-0.814 6.954,1.558 2.499,4.025 -4.108,11.11 -6.902,13.246 -4.341,3.319 -1.998,8.147 -1.449,12.808 0.47,3.991 -1.178,8.197 -3.272,11.503 -4.03,6.363 -11.465,9.759 -18.711,10.617 C 15.229,41.45 4.205,37.626 2.39,29.047 1.461,24.658 6.588,3.344 0,3 -1.925,2.899 -1.935,-0.101 0,0"
             style="fill:#b2b2b2;fill-opacity:1;fill-rule:nonzero;stroke:none"
             id="path7984" /></g><g
           id="g7986"
           transform="translate(1283.6221,1277.5542)"><path
             d="m 0,0 c 10.128,-0.433 20.714,-7.208 21.878,-18.554 0.5,-5 -3.737,-13.487 1,-15.5 3.334,-1.417 15,-16.5 1,-12.5 -3,1 -3,5 -6.5,6 -6.5,1.5 -3.749,-5.25 -6.249,-6.75 -2.499,-1.25 -2.999,-2 -3.562,-2.187 C 7.005,-49.679 6.253,-10.804 0,0"
             style="fill:#adadad;fill-opacity:1;fill-rule:nonzero;stroke:none"
             id="path7988" /></g><g
           id="g7990"
           transform="translate(1464.1426,1233.627)"><path
             d="m 0,0 c -2.979,-10.062 -13.552,-15.803 -23.612,-12.823 -10.062,2.979 -15.803,13.551 -12.824,23.613 2.98,10.062 13.552,15.802 23.613,12.823 C -2.762,20.633 2.979,10.062 0,0"
             style="fill:#7e15ff;fill-opacity:1;fill-rule:nonzero;stroke:none"
             id="path7992" /></g><g
           id="g7994"><g
             id="g7996" /><g
             id="g8002"><g
               clip-path="url(#clipPath7998)"
               opacity="0.300003"
               id="g8004"><g
                 transform="translate(1464.1426,1233.627)"
                 id="g8006"><path
                   d="m 0,0 c -1.798,-6.072 -6.361,-10.571 -11.908,-12.529 2.41,8.041 4.071,21.281 -13.215,35.625 3.794,1.484 8.092,1.763 12.3,0.517 C -2.762,20.633 2.979,10.062 0,0"
                   style="fill:#000000;fill-opacity:1;fill-rule:nonzero;stroke:none"
                   id="path8008" /></g></g></g></g><g
           id="g8010"
           transform="translate(1427.1113,1265.5425)"><path
             d="m 0,0 c -1.633,7.024 -1.935,11.957 1.634,18.722 4.331,7.583 19.858,4.55 26.393,-1.557 7.015,-6.249 1.441,-14.506 5.632,-21.483 2.362,-4.35 7.05,-2.609 6.926,-8.309 -0.265,-6.179 -4.526,-6.481 -9.179,-4.582 -0.23,-2.54 2.523,-9.091 -1.063,-10.636 -5.593,-3.037 -4.617,5.539 -7.21,7.35 -7.103,4.189 -3.729,-2.025 -7.404,-5.63 -5.823,-5.576 -9.235,-2.877 -7.191,2.129 1.266,3.102 -1.35,8.885 -4.7,4.087 -1.509,-2.161 -1.753,-7.39 -6.714,-4.183 -9.52,6.154 4.431,6.998 6.386,11.32 0.654,1.443 -0.889,3.603 -1.414,4.59 C 1.642,-7.326 0.22,-0.944 0,0"
             style="fill:#e5e5e5;fill-opacity:1;fill-rule:nonzero;stroke:none"
             id="path8012" /></g><g
           id="g8014"
           transform="translate(1428.5576,1265.9414)"><path
             d="m 0,0 c -1.641,7.423 -2.206,18.931 7.176,21.081 6.743,1.544 15.973,-1.9 20.099,-7.355 2.22,-2.936 1.667,-7.282 1.666,-10.722 -10e-4,-3.027 0.587,-5.79 1.977,-8.479 0.904,-1.75 2.508,-2.865 4.186,-3.781 2.587,-1.414 3.125,-3.796 1.848,-6.603 -1.122,-2.464 -4.955,-0.91 -6.594,-0.303 -0.928,0.344 -1.897,-0.535 -1.898,-1.446 -0.002,-1.917 0.489,-3.795 0.727,-5.691 0.168,-1.347 0.277,-2.815 -1.047,-3.65 -2.331,-1.469 -2.957,2.2 -3.313,3.335 -0.887,2.834 -2.95,5.539 -6.285,5.589 -2.972,0.045 -3.327,-2.539 -3.937,-4.906 -0.522,-2.027 -1.921,-3.112 -3.584,-4.305 -3.159,-2.266 -2.746,1.5 -2.231,3.345 0.46,1.654 -0.117,3.411 -0.787,4.9 -1.497,3.324 -4.967,1.761 -6.672,-0.257 -1.462,-1.728 -1.302,-5.901 -4.896,-3.947 -4.258,2.313 -1.014,3.876 1.484,5.112 2.875,1.421 5.406,2.714 5.773,6.099 0.2,1.838 -1.729,4.019 -2.208,5.768 C 0.923,-4.162 0.476,-2.075 0,0 c -0.433,1.885 -3.324,1.085 -2.893,-0.798 0.544,-2.372 1.082,-4.745 1.725,-7.093 0.243,-0.888 0.597,-1.577 1.057,-2.378 1.597,-2.78 -0.137,-3.432 -1.932,-4.435 -2.535,-1.417 -7.319,-2.736 -7.024,-6.436 0.276,-3.464 5.881,-6.692 8.972,-5.503 1.688,0.65 2.407,2.644 3.048,4.164 1.534,3.632 3.495,1.368 2.693,-1.517 -0.348,-1.246 -0.849,-2.496 -0.582,-3.821 0.972,-4.814 5.79,-3.216 8.676,-1.145 1.925,1.381 3.036,3.029 3.758,5.233 0.388,1.184 0.05,3.148 2.146,2.243 1.792,-0.775 2.032,-2.098 2.543,-3.729 0.923,-2.953 2.809,-6.417 6.493,-4.762 5.464,2.456 2.774,7.719 2.78,12.369 -0.633,-0.482 -1.266,-0.965 -1.898,-1.447 3.225,-1.194 6.385,-1.708 9.173,0.612 2.479,2.062 2.262,6.694 1.001,9.265 C 39.159,-8 37.707,-7.255 36.618,-6.666 33.33,-4.888 32.267,-1.895 31.98,1.688 31.549,7.074 32.464,11.803 28.988,16.4 24.012,22.98 13.008,25.492 5.327,23.733 -5.128,21.337 -4.668,7.234 -2.893,-0.798 -2.476,-2.687 0.417,-1.885 0,0"
             style="fill:#b2b2b2;fill-opacity:1;fill-rule:nonzero;stroke:none"
             id="path8016" /></g><g
           id="g8018"
           transform="translate(1440.6406,1288.667)"><path
             d="m 0,0 c 5.379,-0.483 11.132,-2.813 14.498,-5.959 7.015,-6.249 1.44,-14.507 5.632,-21.484 2.362,-4.349 7.05,-2.609 6.926,-8.308 -0.265,-6.18 -4.527,-6.482 -9.179,-4.583 -0.231,-2.539 2.522,-9.09 -1.064,-10.636 -5.592,-3.036 -4.617,5.539 -7.209,7.35 C 8.484,-34.917 6.359,-8.542 0,0"
             style="fill:#adadad;fill-opacity:1;fill-rule:nonzero;stroke:none"
             id="path8020" /></g><g
           id="g8022"
           transform="translate(1920.4785,1355.8315)"><path
             d="m 0,0 c -12.499,-2.314 -29.832,-10.056 -41.762,-15.332 -7.846,-3.47 -25.553,4.089 -34.302,2.711 -59.302,-9.335 -121.089,-21.148 -181.665,-31.403 -4.547,-0.769 -12.5,3.912 -17.033,3.161 -8.284,-1.371 -13.128,-8.15 -21.346,-9.441 -21.753,-3.418 -43.244,-6.516 -64.294,-9.103 -22.509,-2.765 -63.628,-7.249 -83.632,-9.645 -47.08,-5.64 -66.708,-0.022 -91.183,-3.042 -27.82,-3.432 -77.379,-19.642 -116.712,-11.738 -15.25,3.065 -32.858,-8.584 -50.585,-9.826 -21.432,-1.501 -44.551,-2.494 -69.415,-2.674 -14.363,-0.104 -24.527,15.404 -38.789,15.377 -14.843,-0.028 -68.604,-15.43 -83.044,-15.377 -9.98,0.038 -17,9.5 -29.494,6.233 -18.64,-4.875 -41.183,6.793 -58.381,7.094 -13.938,0.243 -22.859,-11.538 -35.288,-9.493 -29.541,4.86 -37.837,19.166 -70.337,14.166 -17.281,-2.658 -34.881,-9.167 -52.368,-6.427 -120.959,18.953 -270.875,34.882 -414.769,55.73 -7.831,1.135 -9.899,11.452 -17.734,12.701 -52.743,8.412 -104.036,-3.099 -155.795,12.496 -10.213,3.078 -51.173,-7.067 -87.216,2.788 -30.074,8.223 -56.726,36.445 -59.236,40.729 -1.274,2.173 -1.66,5.463 -0.91,10.338 6.336,-2.716 34.393,-29.252 64.509,-36.891 36.422,-9.24 75.856,-0.094 83.519,-7.758 3.656,-3.655 33.816,-1.296 81.183,-11.573 8.367,-1.816 18.521,-19.401 27.817,-20.942 19.29,-3.198 37.851,1.069 61,-1.888 5.709,-0.729 15.442,3.85 21.325,3.112 72.397,-9.085 157.448,-18.803 240.7,-27.687 22.036,-2.352 47.553,-18.084 69.07,-20.292 27.16,-2.787 50.086,8.001 75.452,5.542 74.732,-7.246 139.334,-12.834 180.022,-15.367 15.505,-0.965 40.431,1.389 49.931,4.889 17.824,6.567 23.251,-6.103 42.015,-5.622 17.242,0.443 72.351,3.875 89.485,4.622 46.671,2.036 58.37,-8.724 105.361,-5.765 17.801,1.121 32.462,13.173 50.473,14.232 22.742,1.063 55.934,-4.16 78.166,-2.955 29.297,1.588 44.633,9.475 73.268,11.447 26.151,1.802 51.765,-1.624 77.732,0.634 39.088,3.399 49.848,10.904 86,19.882 5.646,1.401 37.74,0.147 43.5,1.494 11.663,2.729 19.552,7.604 32,9.791 52.761,9.271 116.252,10.054 169.599,21.044 7.694,1.585 15.426,6.615 23.157,4.884 14.244,-3.188 19.667,4.309 29.568,6.572 C -6.399,4.235 30.708,25.91 31.37,24.374 34.597,16.889 6.342,1.174 0,0"
             style="fill:#399947;fill-opacity:1;fill-rule:nonzero;stroke:none"
             id="path8024" /></g><g
           id="g8026"
           transform="translate(1920.0801,1357.2778)"><path
             d="m 0,0 c -10.963,-2.281 -21.343,-6.528 -31.618,-10.886 -5.697,-2.416 -10.836,-5.46 -17.185,-5.239 -6.195,0.217 -12.422,2.151 -18.517,3.174 -9.935,1.668 -20.429,-1.525 -30.195,-3.13 -15.692,-2.58 -31.363,-5.291 -47.028,-8.034 -30.454,-5.332 -60.874,-10.853 -91.334,-16.156 -7.51,-1.309 -17.416,-4.671 -24.997,-3.478 -3.864,0.608 -7.664,3.092 -11.643,2.988 -3.664,-0.095 -6.767,-1.377 -9.993,-3.023 -7.243,-3.696 -12.639,-6.377 -20.84,-7.647 -48.942,-7.582 -98.252,-13.129 -147.496,-18.367 -21.078,-2.243 -42.02,-1.641 -63.153,-1.308 -17.881,0.28 -34.907,-3.18 -52.352,-6.753 -25.17,-5.156 -50.835,-9.873 -76.606,-7.257 -11.877,1.206 -20.13,1.933 -31.835,-1.546 -14.8,-4.399 -28.236,-7.091 -43.715,-7.968 -13.972,-0.791 -27.961,-1.251 -41.952,-1.514 -7.814,-0.146 -14.875,-0.566 -22.109,2.828 -5.328,2.5 -10.087,6.193 -15.263,8.995 -13.007,7.04 -29.606,1.157 -43.008,-1.773 -16.843,-3.683 -34.195,-9.186 -51.479,-10.164 -8.709,-0.492 -16.374,6.244 -25.131,6.898 -5.615,0.418 -11.282,-1.864 -16.987,-1.848 -8.003,0.021 -16.07,2.28 -23.793,4.172 -9.433,2.31 -18.977,4.967 -28.736,3.548 -4.219,-0.613 -8.323,-2.748 -12.133,-4.556 -8.247,-3.915 -13.868,-5.218 -23.051,-3.278 -20.278,4.282 -36.655,15.172 -58.104,13.831 -14.006,-0.876 -27.577,-5.551 -41.47,-7.357 -14.808,-1.924 -30.172,2.132 -44.799,4.306 -26.082,3.877 -52.207,7.463 -78.343,10.952 -58.408,7.797 -116.897,14.984 -175.342,22.5 -31.25,4.019 -62.487,8.137 -93.699,12.446 -7.229,0.998 -14.455,2.013 -21.68,3.034 -6.676,0.944 -15.354,0.77 -21.427,3.85 -3.578,1.814 -5.462,6.218 -8.607,8.606 -4.013,3.046 -8.34,3.314 -13.298,3.908 -29.473,3.532 -59.119,1.974 -88.716,2.818 -15.258,0.436 -30.427,1.927 -45.39,4.98 -9.395,1.917 -16.79,4.573 -26.357,4.079 -27.959,-1.443 -56.12,-5.037 -83.067,5.031 -13.211,4.935 -25.183,13.532 -35.825,22.615 -7.974,6.806 -16.314,12.915 -15.119,24.3 -0.752,-0.432 -1.504,-0.864 -2.256,-1.296 5.502,-2.705 10.349,-7.232 15.254,-10.851 9.517,-7.021 19.424,-13.434 29.992,-18.761 22.506,-11.343 47.863,-12.2 72.564,-11.954 8.838,0.089 20.051,1.708 28.417,-1.834 3.363,-1.424 5.305,-2.745 9.209,-3.252 20.05,-2.608 40.125,-3.422 60.111,-6.938 6.887,-1.211 14.309,-1.744 19.929,-6.218 3.823,-3.044 7.074,-6.891 10.568,-10.296 7.166,-6.988 14.111,-7.946 23.876,-8.429 12.724,-0.629 25.482,0.665 38.222,0.195 5.04,-0.186 10.344,-1.631 15.357,-0.681 6.759,1.281 12.857,3.344 19.813,2.473 58.259,-7.299 116.589,-14.027 174.947,-20.489 29.257,-3.24 60.139,-3.617 88.016,-13.615 11.622,-4.168 22.949,-9.035 34.964,-12.01 11.734,-2.905 24.269,-2.22 36.124,-0.519 13.789,1.979 27.415,4.9 41.402,4.957 15.408,0.061 31.224,-2.733 46.563,-4.169 26.855,-2.514 53.722,-4.915 80.603,-7.141 20.579,-1.704 41.19,-3.501 61.816,-4.536 10.966,-0.55 22.096,0.405 32.959,1.849 10.268,1.364 20.549,6.661 30.863,4.052 8.962,-2.267 16.198,-6.4 25.73,-6.514 7.724,-0.092 15.536,0.631 23.244,1.029 19.105,0.985 38.203,2.139 57.306,3.152 21.456,1.138 42.154,-0.073 63.409,-3.059 21.194,-2.976 44.795,-5.711 65.533,0.783 12.107,3.792 22.97,9.996 35.828,11.184 12.395,1.145 25.363,-0.515 37.727,-1.418 24.607,-1.795 47.878,-2.125 72.159,2.898 12.664,2.621 25.133,5.467 38.036,6.736 15.916,1.564 32.031,0.68 47.982,0.28 25.526,-0.642 50.775,1.249 75.487,7.898 18.909,5.088 37.182,13.072 56.955,13.332 8.15,0.107 16.302,-0.021 24.451,0.25 9.173,0.304 17.546,4.131 26.095,7.151 15.907,5.618 33.883,6.662 50.527,8.544 18.102,2.047 36.261,3.581 54.395,5.31 17.066,1.626 34.108,3.469 51.076,5.918 8.634,1.247 17.223,2.767 25.773,4.491 3.958,0.797 7.756,2.387 11.565,3.686 5.186,1.769 9.032,0.995 14.33,0.592 11.059,-0.841 20.756,5.115 31.044,8.333 10.066,3.149 19.624,8.353 29.007,13.076 4.4,2.214 8.777,4.474 13.2,6.644 1.443,0.707 2.895,1.405 4.402,1.965 C 29.722,20.833 27.609,16.696 26.3,15.405 19.734,8.933 9.059,2.18 0,0 -1.881,-0.452 -1.083,-3.345 0.797,-2.893 11.793,-0.247 26.425,8.53 32.512,18.214 39.096,28.689 23.396,21.083 20.939,19.85 13.33,16.028 5.763,12.13 -1.942,8.501 -9.51,4.937 -17.508,3.137 -25.097,-0.082 c -5.276,-2.237 -10.12,-4.929 -15.895,-5.704 -4.971,-0.666 -9.847,1.786 -14.813,0.832 -5.958,-1.145 -11.492,-3.579 -17.358,-5.074 -7.332,-1.869 -15.018,-2.829 -22.486,-3.997 -29.073,-4.545 -58.486,-6.704 -87.757,-9.527 -25.533,-2.462 -52.772,-3.815 -77.009,-12.713 -8.615,-3.163 -16.107,-5.046 -25.208,-5.202 -8.808,-0.152 -17.619,0.028 -26.424,-0.285 -18.473,-0.656 -37.189,-9.886 -55.001,-14.488 -27.887,-7.204 -56.289,-6.9 -84.846,-6.193 -26.958,0.668 -51.456,-3.458 -77.715,-8.651 -26.087,-5.161 -51.727,-2.497 -77.988,-0.789 -10.515,0.684 -21.266,1.411 -31.719,-0.222 -12.474,-1.948 -23.782,-8.86 -35.916,-12.132 -22.084,-5.954 -48.186,-0.46 -70.389,2.509 -19.998,2.675 -39.843,2.18 -59.919,1.081 -19.374,-1.06 -38.743,-2.217 -58.124,-3.165 -8.361,-0.408 -16.875,-1.301 -25.102,0.62 -9.201,2.15 -16.258,7.15 -26.08,5.925 -9.466,-1.181 -18.542,-4.636 -28.231,-5.64 -11.178,-1.157 -22.304,-1.098 -33.499,-0.367 -21.653,1.413 -43.283,3.172 -64.905,4.997 -27.719,2.339 -55.421,4.881 -83.115,7.5 -13.961,1.321 -27.948,3.432 -41.986,2.468 -14.104,-0.968 -27.914,-4.514 -42.005,-5.711 -27.959,-2.375 -51.198,12.44 -77.441,18.949 -12.338,3.061 -25.641,3.311 -38.245,4.678 -15.931,1.727 -31.859,3.484 -47.786,5.258 -29.92,3.335 -59.83,6.767 -89.728,10.294 -13.682,1.615 -27.36,3.258 -41.036,4.923 -6.605,0.804 -13.208,1.617 -19.811,2.435 -5.662,0.701 -12.016,2.441 -17.709,1.377 -8.382,-1.568 -15.092,-2.9 -23.684,-2.168 -9.784,0.832 -19.665,0.279 -29.461,0.011 -8.985,-0.246 -21.028,-1.482 -28.92,3.31 -6.612,4.015 -11.299,11.078 -17.334,15.883 -5.325,4.24 -13.14,4.459 -19.561,5.644 -8.268,1.527 -16.599,2.692 -24.943,3.711 -11.96,1.461 -24.004,1.965 -35.966,3.334 -6.346,0.726 -11.126,4.388 -17.812,4.945 -17.2,1.433 -34.531,-0.416 -51.783,1.121 -20.861,1.859 -39.039,9.361 -56.517,20.586 -9.348,6.004 -17.844,14.69 -27.811,19.591 -1.085,0.533 -2.135,-0.134 -2.257,-1.295 -1.579,-15.043 12.893,-24.294 23.643,-32.645 18.064,-14.033 37.852,-21.63 60.58,-23.756 12.031,-1.125 24.201,-0.557 36.231,0.251 8.765,0.589 18.267,2.435 27.03,1.087 12.282,-1.889 24.149,-5.807 36.619,-7.277 15.185,-1.789 30.548,-1.918 45.819,-1.968 14.183,-0.048 28.359,0.064 42.536,-0.479 7.163,-0.275 14.304,-0.854 21.431,-1.606 9.831,-1.038 14.198,-2.613 20.63,-9.717 6.595,-7.283 20.175,-6.218 29.098,-7.48 15.672,-2.216 31.354,-4.36 47.039,-6.473 58.553,-7.887 117.187,-15.154 175.792,-22.638 55.834,-7.13 111.658,-14.424 167.284,-23.054 27.487,-4.265 53.427,10.799 80.744,5.746 17.975,-3.325 36.306,-18.139 55.145,-13.135 3.957,1.051 7.756,3.253 11.426,4.995 7.211,3.423 13.915,4.02 21.776,2.865 12.195,-1.791 23.833,-6.038 36.144,-7.329 5.052,-0.53 10.033,-0.023 14.967,1.044 7.398,1.6 13.143,-1.15 19.72,-4.015 5.981,-2.605 11.404,-2.361 17.675,-1.455 18.115,2.615 35.913,7.614 53.812,11.358 6.86,1.435 13.901,3.036 20.932,3.203 11.38,0.269 20.962,-10.18 31.132,-14.091 10.595,-4.075 25.576,-1.051 36.66,-0.7 14.493,0.46 29.109,0.923 43.539,2.41 11.605,1.196 22.538,6.472 33.845,9.083 12.443,2.872 27.177,-1.806 39.993,-1.701 23.67,0.192 47.088,5.618 70.166,10.31 17.859,3.631 34.833,4.7 52.995,4.198 44.519,-1.232 88.926,5.765 133.051,10.964 11.375,1.341 22.734,2.809 34.081,4.367 14.256,1.958 31.144,2.238 44.6,7.418 4.821,1.856 8.793,5.351 13.65,7.245 5.334,2.081 11.78,-1.747 17.026,-2.573 4.274,-0.673 9.398,1.202 13.564,1.916 8.52,1.46 17.034,2.95 25.546,4.446 42.44,7.457 84.823,15.235 127.342,22.225 10.21,1.678 19.424,3.648 29.693,1.703 6.207,-1.175 12.346,-2.735 18.705,-2.42 6.59,0.326 14.124,5.44 20.02,7.886 8.273,3.432 16.728,6.495 25.508,8.322 C 2.69,-2.499 1.888,0.393 0,0"
             style="fill:#315409;fill-opacity:1;fill-rule:nonzero;stroke:none"
             id="path8028" /></g><g
           id="g8030"
           transform="translate(1391.2168,1286.6665)"><path
             d="M 0,0 C -9.844,9.116 -20.667,10 -34.667,10 -35.334,-4.667 -2,-1.333 8,-5.333 c 4,-1.334 21.333,-8 10.666,-14.667 -6,-4 -14,12 -16.666,16.667 0,0 -1.287,2.672 -2,3.333"
             style="fill:#399947;fill-opacity:1;fill-rule:nonzero;stroke:none"
             id="path8032" /></g><g
           id="g8034"
           transform="translate(1392.2773,1287.7271)"><path
             d="m 0,0 c -10.214,9.099 -22.548,10.404 -35.728,10.439 -0.82,0.003 -1.497,-0.684 -1.5,-1.5 -0.027,-6.974 6.09,-10.093 12.017,-11.784 8.732,-2.491 18.005,-2.332 26.918,-3.772 C 6.733,-7.43 25.41,-13.874 16.849,-19.765 11.109,-23.714 2.807,-3.497 0,0 c -1.211,1.509 -3.319,-0.628 -2.121,-2.121 2.886,-3.596 4.655,-8.385 7.184,-12.258 2.127,-3.259 5.472,-8.304 9.768,-8.745 3.399,-0.348 6.981,2.596 7.628,5.898 0.755,3.851 -3.627,6.747 -6.381,8.41 -7.551,4.557 -15.857,5.524 -24.444,6.381 -7.065,0.705 -25.902,0.936 -25.862,11.374 l -1.5,-1.5 C -23.41,7.406 -11.71,6.42 -2.121,-2.121 -0.682,-3.403 1.447,-1.289 0,0"
             style="fill:#315409;fill-opacity:1;fill-rule:nonzero;stroke:none"
             id="path8036" /></g><g
           id="g8038"
           transform="translate(1840.2168,1339)"><path
             d="M 0,0 C 1.5,-6.5 -1,-23 -10.5,-24 -24,-25.5 -14,-3 -9,1.5 -5,5 1,5.5 3.5,11 5.5,16 3,22 -1.5,24.5 -16,33 1,9.5 0,3 L 0,0 z"
             style="fill:#399947;fill-opacity:1;fill-rule:nonzero;stroke:none"
             id="path8040" /></g><g
           id="g8042"
           transform="translate(1838.7705,1338.6011)"><path
             d="m 0,0 c 1.193,-5.994 -0.23,-13.043 -3.438,-18.197 -1.77,-2.846 -6.472,-5.633 -9.636,-3.151 -2.111,1.655 -1.196,5.705 -0.721,7.848 1.093,4.936 3.603,10.768 7.302,14.338 4.66,4.498 13.21,4.995 13.576,13.123 0.286,6.347 -3.299,10.992 -8.922,13.541 -2.485,1.126 -5.264,0.978 -5.595,-2.186 -0.398,-3.803 2.812,-8.725 4.293,-12.041 1.997,-4.471 3.087,-8.03 3.087,-12.876 0,-1.935 3,-1.935 3,0 0,4.284 -0.572,7.502 -2.248,11.516 -1.703,4.08 -5.015,8.883 -5.132,13.401 0.005,-0.187 2.399,-1.036 2.683,-1.182 C 1.12,22.659 2.861,20.478 3.837,17.445 5.808,11.32 0.315,8.092 -4.211,5.806 -9.047,3.363 -11.61,-0.339 -13.93,-5.12 c -3.173,-6.543 -6.978,-20.815 4.876,-19.981 10.95,0.77 13.61,17.547 11.947,25.899 C 2.516,2.694 -0.376,1.889 0,0"
             style="fill:#315409;fill-opacity:1;fill-rule:nonzero;stroke:none"
             id="path8044" /></g><g
           id="g8046"
           transform="translate(1104.0498,1261.6665)"><path
             d="m 0,0 c 2.334,-0.667 5.667,0.167 7.334,1.667 1.833,1.5 1.833,3.166 1.333,5.5 -1.167,5 -4,8.666 -3.833,14.166 C 4.834,25.5 7.5,30 11.667,31.5 18.834,34 17.5,24.833 14.667,21.333 11.667,17.667 5.489,14.696 3.334,10 2.234,7.605 -6.166,1.833 0,0"
             style="fill:#399947;fill-opacity:1;fill-rule:nonzero;stroke:none"
             id="path8048" /></g><g
           id="g8050"
           transform="translate(1103.6514,1260.2202)"><path
             d="m 0,0 c 6.283,-1.077 11.658,2.392 10.512,9.012 -0.837,4.832 -3.668,8.704 -3.78,13.768 -0.078,3.508 2.03,6.536 4.887,8.334 3.93,2.474 4.494,-1.409 3.863,-4.078 C 14.57,23.169 10.92,20.893 8.021,18.56 4.945,16.084 3.402,12.998 0.819,10.192 -2.175,6.939 -5.906,2.313 0,0 1.803,-0.707 2.578,2.195 0.797,2.893 -1.77,3.898 3.926,9.138 4.74,10.202 c 2.955,3.857 5.979,6.535 9.655,9.731 3.072,2.671 6.626,9.547 3.324,13.327 C 13.708,37.85 7.256,32.187 5.143,28.483 3.299,25.253 3.563,21.325 4.319,17.84 4.822,15.521 5.924,13.293 6.756,11.08 8.545,6.324 6.375,1.937 0.797,2.893 -1.095,3.217 -1.904,0.326 0,0"
             style="fill:#315409;fill-opacity:1;fill-rule:nonzero;stroke:none"
             id="path8052" /></g><g
           id="g8054"
           transform="translate(709.0654,1283.7266)"><path
             d="m 0,0 c 2.929,10.667 -6.183,12.606 -13.516,13.273 -5.334,-10.667 27.333,-19.333 31.333,-26 5.333,-8.333 -10,-7.333 -15,-5.667 -6.333,1.667 -10,10.667 -4.333,16.334 L 0,0 z"
             style="fill:#399947;fill-opacity:1;fill-rule:nonzero;stroke:none"
             id="path8056" /></g><g
           id="g8058"
           transform="translate(710.5117,1283.3276)"><path
             d="m 0,0 c 2.496,10.726 -5.721,14.261 -14.962,15.172 -0.465,0.046 -1.106,-0.308 -1.295,-0.743 C -21.115,3.233 0.575,-4.188 7.451,-7.803 c 2.537,-1.335 5.266,-2.72 7.275,-4.807 4.271,-4.439 -3.289,-5.049 -6.059,-5.008 -4.197,0.061 -8.78,0.846 -11.417,4.417 -3.5,4.739 -0.227,9.003 2.599,12.843 1.148,1.561 -1.457,3.054 -2.591,1.514 -2.977,-4.047 -5.184,-7.055 -4.16,-12.319 0.956,-4.922 5.339,-7.794 9.881,-8.797 5.367,-1.186 19.104,-1.625 15.196,7.502 -1.297,3.029 -4.883,4.845 -7.577,6.36 -4.742,2.669 -9.71,4.914 -14.458,7.574 -3.495,1.959 -9.858,5.164 -10.189,9.77 -0.136,1.897 5.544,-0.201 6.729,-0.611 C -2.775,9.061 -1.887,5.118 -2.893,0.798 -3.331,-1.084 -0.438,-1.884 0,0"
             style="fill:#315409;fill-opacity:1;fill-rule:nonzero;stroke:none"
             id="path8060" /></g><g
           id="g8062"
           transform="translate(286.5498,1343.6665)"><path
             d="m 0,0 c 2.849,4.109 1.666,8 -0.334,13 -1.666,3.667 -5.666,9.333 -7,2.667 -1.333,-7.334 7.667,-17 9,-24.334 C 3,-15.667 -5.667,-32 -13,-22 c -5,6.333 4.984,18.261 10.333,21 0.634,0.325 2.261,0.415 2.667,1"
             style="fill:#399947;fill-opacity:1;fill-rule:nonzero;stroke:none"
             id="path8064" /></g><g
           id="g8066"
           transform="translate(287.8452,1342.9092)"><path
             d="m 0,0 c 2.492,4.224 2.024,8.032 0.449,12.529 -0.883,2.52 -2.927,7.637 -5.985,8.288 -8.869,1.889 -2.383,-14.443 -0.888,-17.317 2.243,-4.314 5.611,-8.875 5.393,-13.937 -0.186,-4.332 -3.032,-10.686 -7.315,-12.313 -3.376,-1.284 -5.777,3.467 -5.801,6.061 -0.025,2.704 1.68,5.376 3.093,7.556 1.409,2.173 3.253,4.054 5.182,5.763 1.652,1.463 3.541,1.736 5.333,2.832 1.647,1.008 0.142,3.603 -1.513,2.591 -1.613,-0.987 -3.274,-1.267 -4.852,-2.429 -1.592,-1.173 -2.969,-2.595 -4.286,-4.06 -2.713,-3.017 -5.427,-7.096 -5.852,-11.239 -0.686,-6.662 5.878,-12.97 12.077,-8.618 6.086,4.272 8.242,13.565 5.725,20.224 -1.974,5.222 -5.384,9.762 -7.286,15.027 -0.509,1.409 -0.706,2.862 -0.728,4.35 -0.072,4.921 2.914,0.284 3.325,-0.374 2.5,-4 3.834,-9.19 1.338,-13.419 C -3.576,-0.156 -0.982,-1.664 0,0"
             style="fill:#315409;fill-opacity:1;fill-rule:nonzero;stroke:none"
             id="path8068" /></g><g
           id="g8070"
           transform="translate(1520.7568,1292.7417)"><path
             d="m 0,0 c 0,4.5 2.46,17.258 -8.04,13.258 -6.5,-2.5 5,-11 8,-14.5 3,-4 10,-13 1.5,-15 -10,-2 -3.5,11 -2,15.5 L 0,0 z"
             style="fill:#399947;fill-opacity:1;fill-rule:nonzero;stroke:none"
             id="path8072" /></g><g
           id="g8074"
           transform="translate(1522.2568,1292.7417)"><path
             d="m 0,0 c 0.078,4.154 1.671,11.792 -2.673,14.521 -3.956,2.486 -11.911,0.091 -9.905,-5.516 1.065,-2.977 3.962,-5.431 6.164,-7.551 2.975,-2.864 5.478,-5.702 7.548,-9.31 1.581,-2.755 2.153,-5.799 -1.572,-6.939 -3.843,-1.176 -3.718,2.357 -3.208,4.779 0.606,2.877 1.691,6.855 3.441,9.259 1.142,1.567 -1.464,3.061 -2.59,1.514 -2.611,-3.586 -5.487,-11.742 -3.683,-16.065 2.105,-5.042 11.792,-2.514 11.967,2.677 0.243,7.212 -6.676,13.127 -11.339,17.723 -1.58,1.556 -3.321,3.275 -4.083,5.404 -0.665,1.859 4.085,2.054 4.863,1.905 1.242,-0.239 1.653,-1.608 1.951,-2.598 C -2.19,6.718 -2.94,3.16 -3,0 -3.036,-1.936 -0.036,-1.932 0,0"
             style="fill:#315409;fill-opacity:1;fill-rule:nonzero;stroke:none"
             id="path8076" /></g><g
           id="g8078"
           transform="translate(853.5498,1278.6665)"><path
             d="M 0,0 C 3.333,3 7,10.667 0.333,12.333 -5.333,5 2,-6.333 1.333,-14.333 -4.667,-14.667 -6.333,-5.667 -3,-2 l 3,2 z"
             style="fill:#399947;fill-opacity:1;fill-rule:nonzero;stroke:none"
             id="path8080" /></g><g
           id="g8082"
           transform="translate(854.6104,1277.606)"><path
             d="M 0,0 C 4.396,4.314 7.147,12.329 -0.329,14.84 -0.991,15.063 -1.66,14.689 -2.023,14.151 -7.81,5.557 -0.889,-4.116 -1.228,-13.272 l 1.5,1.5 c -4.208,0.145 -5.002,4.799 -4.187,8.075 0.453,1.823 2.186,2.512 3.611,3.462 1.601,1.068 0.101,3.667 -1.513,2.591 -3.444,-2.295 -5.3,-4.094 -5.434,-8.526 -0.137,-4.548 2.959,-8.445 7.523,-8.602 0.84,-0.029 1.471,0.705 1.5,1.5 0.312,8.41 -6.41,18.178 -1.204,25.909 -0.565,-0.23 -1.13,-0.46 -1.694,-0.689 C 4.108,10.189 0.25,4.449 -2.121,2.121 -3.504,0.765 -1.381,-1.355 0,0"
             style="fill:#315409;fill-opacity:1;fill-rule:nonzero;stroke:none"
             id="path8084" /></g><g
           id="g8086"
           transform="translate(45.2603,1397.6069)"><path
             d="m 0,0 c 7.994,-12.451 19.061,-7.878 41.073,-10.94 12.302,-1.711 30.101,-9.812 47.667,-14.923 7.865,-2.289 40.986,-2.818 49.544,-4.403 12.499,-2.314 28.026,-2.565 39.956,-7.841 7.846,-3.47 25.553,4.088 34.302,2.711 59.302,-9.335 121.089,-21.148 181.665,-31.403 4.547,-0.77 12.501,3.911 17.033,3.161 8.284,-1.372 13.128,-8.15 21.346,-9.442 21.753,-3.417 43.244,-6.516 64.294,-9.102 22.509,-2.766 63.628,-7.249 83.632,-9.646 47.08,-5.64 66.708,-0.022 91.183,-3.041 27.82,-3.432 77.378,-19.642 116.711,-11.738 15.25,3.065 32.859,-8.584 50.586,-9.826 21.432,-1.502 44.551,-2.495 69.414,-2.674 14.364,-0.104 24.528,15.404 38.79,15.377 14.843,-0.029 68.604,-15.431 83.044,-15.377 9.98,0.037 17,9.5 29.494,6.232 18.641,-4.875 41.183,6.793 58.381,7.094 13.938,0.244 22.859,-11.537 35.288,-9.492 29.541,4.859 37.837,19.166 70.337,14.166 17.281,-2.659 34.881,-9.167 52.368,-6.427 120.959,18.952 270.875,34.881 414.769,55.73 7.831,1.135 9.899,11.451 17.734,12.701 52.743,8.412 104.036,-3.099 155.795,12.496 23.059,6.948 51.362,-12.145 47.362,13.855 -14,-6 -34.028,9.351 -48.028,-4.649 -3.656,-3.656 -33.816,-1.297 -81.183,-11.574 -8.367,-1.815 -18.521,-19.4 -27.817,-20.942 -19.29,-3.198 -37.851,1.07 -61,-1.887 -5.709,-0.729 -15.442,3.849 -21.325,3.111 -72.397,-9.085 -157.448,-18.803 -240.7,-27.687 -22.036,-2.351 -47.553,-18.083 -69.07,-20.291 -27.16,-2.787 -50.086,8.001 -75.452,5.542 -74.732,-7.246 -139.334,-12.835 -180.022,-15.367 -15.505,-0.965 -40.431,1.389 -49.931,4.889 -17.823,6.566 -23.251,-6.103 -42.015,-5.622 -17.242,0.442 -72.352,3.875 -89.485,4.622 -46.671,2.036 -58.37,-8.724 -105.361,-5.765 -17.802,1.121 -32.462,13.172 -50.473,14.232 -22.742,1.062 -55.934,-4.16 -78.166,-2.955 -29.298,1.588 -44.634,9.474 -73.268,11.447 -26.152,1.801 -51.764,-1.624 -77.732,0.634 -39.088,3.399 -49.848,10.904 -86,19.881 -5.646,1.402 -37.74,0.147 -43.5,1.495 -11.663,2.728 -19.552,7.604 -32,9.791 -52.761,9.271 -116.253,10.054 -169.599,21.043 -7.695,1.585 -15.426,6.616 -23.157,4.885 -14.244,-3.188 -19.667,4.308 -29.568,6.571 C 123.188,-14.602 61.071,-21.422 20.937,-2.242 13.473,1.325 11.545,10.53 1.151,11.41 -1.537,11.637 -1.549,2.413 0,0"
             style="fill:#399947;fill-opacity:1;fill-rule:nonzero;stroke:none"
             id="path8088" /></g><g
           id="g8090"
           transform="translate(43.9648,1396.8496)"><path
             d="m 0,0 c 10.329,-14.72 31.434,-9.279 46.83,-12.552 12.369,-2.63 24.249,-7.985 36.219,-11.962 7.869,-2.614 15.348,-3.462 23.588,-4.054 20.37,-1.464 40.547,-2.666 60.659,-6.578 9.167,-1.784 15.181,-5.286 24.633,-3.954 5.425,0.765 10.73,2.2 16.167,2.925 7.479,0.999 15.823,-1.576 23.204,-2.781 30.307,-4.947 60.537,-10.353 90.768,-15.737 14.624,-2.604 29.249,-5.206 43.881,-7.77 11.185,-1.96 24.884,-7.094 36.145,-4.165 7.448,1.936 12.147,2.586 19.289,-1.624 4.035,-2.379 7.512,-4.435 12.1,-5.517 15.114,-3.564 31.269,-4.752 46.654,-6.833 22.569,-3.052 45.214,-5.521 67.843,-8.082 22.818,-2.583 45.615,-5.809 68.595,-6.437 17.522,-0.478 35.095,1.354 52.586,-0.083 22.937,-1.884 45.432,-8.902 68.22,-12.117 11.435,-1.613 22.95,-2.393 34.496,-2.065 5.144,0.146 10.248,0.769 15.328,1.554 8.914,1.378 16.381,0.255 24.961,-2.294 11.688,-3.474 22.383,-6.683 34.602,-7.485 14.855,-0.975 29.731,-1.58 44.612,-1.956 10.673,-0.27 21.005,-1.541 30.874,3.089 10.148,4.761 17.701,12.859 29.791,11.794 18.054,-1.59 36.046,-7.182 53.714,-11 6.929,-1.497 13.887,-2.916 20.922,-3.82 8.424,-1.083 14.606,2.434 22.28,5.322 5.975,2.247 11.766,0.371 17.768,-0.429 5.071,-0.677 10.289,0.085 15.309,0.812 13.906,2.013 28.061,8.917 42.302,6.846 8.975,-1.304 16.351,-8.853 25.554,-9.205 10.477,-0.401 21.19,3.954 30.795,7.707 9.542,3.73 18.654,6.982 28.992,7.597 15.589,0.927 31.073,-4.609 46.312,-7.056 11.68,-1.876 22.579,-0.177 34.104,1.588 13.726,2.102 27.467,4.102 41.216,6.059 117.838,16.776 236.171,29.845 353.999,46.722 9.467,1.357 12.582,3.114 18.841,10.052 5.424,6.012 16.256,5.125 23.681,5.808 7.109,0.655 14.254,0.927 21.388,1.143 27.106,0.823 54.208,-0.59 81.239,2.204 12.078,1.248 23.982,3.662 35.639,7.038 9.369,2.713 19.112,1.307 28.609,0.194 12.572,-1.472 21.615,0.541 19.854,15.107 -0.108,0.897 -0.886,1.799 -1.898,1.446 -10.133,-3.527 -20.894,0.956 -31.231,1.492 -3.335,0.173 -7.461,-0.326 -10.49,-1.802 -3.115,-1.518 -5.718,-4.631 -9.001,-5.487 -5.726,-1.494 -12.126,-1.387 -17.993,-1.849 -10.221,-0.805 -20.408,-1.868 -30.567,-3.251 -10.514,-1.43 -24.004,-1.928 -33.504,-6.834 -9.264,-4.785 -13.727,-16.617 -24.242,-19.433 -12.388,-3.316 -27.217,-0.893 -39.876,-0.731 -6.938,0.089 -13.835,-0.324 -20.726,-1.103 -5.729,-0.647 -11.299,2.343 -16.919,2.933 -11.828,1.24 -25.331,-2.427 -37.121,-3.866 -14.839,-1.811 -29.683,-3.583 -44.53,-5.334 -29.953,-3.535 -59.922,-6.95 -89.898,-10.29 -14.705,-1.64 -29.413,-3.252 -44.122,-4.851 -13.674,-1.485 -27.723,-2.068 -41.107,-5.387 -12.06,-2.992 -23.556,-8.215 -35.223,-12.406 -14.074,-5.055 -27.776,-6.817 -42.684,-5.551 -12.976,1.102 -25.706,4.195 -38.677,5.428 -15.232,1.449 -30.919,-1.421 -46.072,-2.854 -27.878,-2.636 -55.768,-5.158 -83.672,-7.505 -21.47,-1.806 -42.951,-3.499 -64.453,-4.877 -10.719,-0.688 -21.416,-0.179 -32.09,0.926 -10.186,1.056 -20.14,5.484 -30.26,5.715 -8.153,0.185 -15.91,-5.035 -23.695,-6.854 -8.335,-1.947 -18.368,-0.27 -26.838,0.152 -19.333,0.964 -38.655,2.129 -57.983,3.179 -19.695,1.069 -39.071,1.031 -58.652,-1.669 -23.614,-3.257 -49.986,-7.789 -73.212,-0.516 -11.25,3.523 -21.478,9.123 -33.255,10.963 -11.297,1.765 -23.597,0.136 -34.922,-0.643 -26.472,-1.822 -51.322,-3.079 -77.538,2.345 -10.693,2.212 -21.313,4.85 -32.177,6.125 -15.722,1.845 -31.461,1.613 -47.257,1.189 -27.803,-0.745 -55.083,0.338 -82.071,7.6 -17.692,4.761 -35.37,12.898 -53.853,13.377 -8.287,0.214 -16.581,0.07 -24.87,0.212 -10.299,0.177 -19.14,3.738 -28.779,7.143 -24.217,8.554 -52.961,8.976 -78.334,11.391 -29.217,2.782 -58.486,5.195 -87.473,9.916 -6.311,1.029 -12.652,2.112 -18.85,3.692 -6.08,1.55 -11.412,4.198 -17.769,4.554 -6.395,0.358 -11.383,-1.684 -17.894,0.443 -4.881,1.596 -9.186,4.351 -14.175,5.723 -20.726,5.698 -44.707,3.671 -65.986,4.944 -13.184,0.788 -26.328,2.114 -39.315,4.551 C 41.992,-7.525 26.693,-4.663 18.137,3.469 14.065,7.34 8.01,15.811 1.163,13.288 -2.969,11.765 -1.225,2.89 0,0 c 0.753,-1.776 3.336,-0.245 2.591,1.515 -0.412,0.97 -2.599,9.546 2.092,8.77 3.49,-0.577 6.13,-3.373 8.427,-5.783 2.652,-2.782 5.017,-5.349 8.365,-7.282 9.198,-5.31 20.765,-7.678 31.037,-9.762 22.304,-4.526 45.311,-4.992 67.97,-6.022 10.427,-0.474 20.871,-1.019 31.219,-2.433 8.933,-1.221 16.31,-6.865 25.048,-8.037 6.587,-0.883 12.796,1.314 19.327,0.059 5.987,-1.15 11.586,-3.938 17.611,-5.152 13.121,-2.645 26.398,-4.489 39.675,-6.144 28.287,-3.524 56.74,-5.546 85.08,-8.574 13.952,-1.491 27.865,-3.314 41.694,-5.691 11.391,-1.959 21.767,-8.578 33.177,-9.989 15.045,-1.86 30.864,1.596 45.64,-2.134 21.216,-5.356 41.682,-13.115 63.33,-16.716 28.701,-4.776 57.411,-2.127 86.307,-2.532 26.421,-0.37 51.306,-8.706 77.396,-11.41 24.735,-2.563 49.751,1.879 74.489,2.534 12.859,0.34 23.8,-2.382 35.643,-7.139 12.168,-4.889 22.965,-7.26 36.061,-7.65 21.625,-0.644 42.579,3.684 63.996,5.655 19.507,1.794 39.118,0.185 58.619,-0.908 18.709,-1.048 37.419,-2.187 56.143,-2.956 8.292,-0.341 15.517,0.369 23.336,3.363 4.648,1.78 8.897,3.564 13.934,3.952 5.763,0.443 11.687,-2.575 17.281,-3.775 20.047,-4.301 40.545,-3.234 60.815,-1.802 23.507,1.659 46.992,3.632 70.468,5.677 29.323,2.554 58.629,5.3 87.926,8.127 27.652,2.668 54.343,-8.34 81.953,-4.83 11.046,1.404 21.701,5.872 32.03,9.8 13.814,5.254 26.92,9.352 41.681,10.933 30.598,3.275 61.185,6.646 91.764,10.099 29.534,3.335 59.057,6.768 88.568,10.302 13.374,1.602 26.745,3.235 40.113,4.89 6.493,0.804 12.875,2.239 19.381,1.023 5.015,-0.938 9.69,-2.679 14.848,-2.525 13.303,0.398 26.361,0.934 39.711,0.658 9.748,-0.201 20.945,-0.931 29.138,5.101 8.397,6.184 13.161,15.595 23.977,17.89 14.021,2.975 28.231,5.011 42.481,6.492 8.008,0.833 16.043,1.353 24.062,2.053 3.535,0.308 7.877,0.342 11.055,2.144 5.882,3.336 8.814,6.028 15.975,6.152 5.765,0.1 11.646,-1.531 17.329,-2.389 3.305,-0.499 7.02,-0.896 10.331,-0.206 6.619,1.381 1.426,-8.62 -2.696,-9.719 -7.467,-1.992 -17.143,1.084 -24.707,1.563 -11.772,0.747 -22.638,-3.609 -34.018,-5.931 -29.953,-6.111 -60.979,-4.296 -91.348,-4.656 -13.22,-0.156 -26.521,-0.706 -39.634,-2.476 -4.867,-0.657 -8.956,-0.861 -12.899,-3.855 -4.387,-3.33 -6.22,-8.358 -12.018,-9.875 -13.901,-3.635 -29.437,-4.199 -43.679,-6.165 -16.905,-2.332 -33.819,-4.593 -50.738,-6.825 -59.683,-7.87 -119.435,-15.218 -179.137,-22.95 -27.086,-3.508 -54.158,-7.115 -81.204,-10.91 -28.35,-3.979 -58.777,-12.61 -87.224,-7.359 -12.473,2.303 -24.581,5.711 -37.336,6.005 -9.833,0.226 -19.229,-2.58 -28.304,-6.074 -10.344,-3.984 -20.741,-8.308 -31.895,-9.37 -10.652,-1.013 -19.472,9.215 -30.123,9.622 -10.819,0.413 -21.353,-2.962 -31.772,-5.438 -6.824,-1.622 -13.686,-2.704 -20.713,-2.724 -5.672,-0.015 -11.19,2.726 -16.897,1.619 -8.582,-1.664 -15.647,-7.262 -24.694,-6.485 -8.723,0.749 -17.426,2.967 -25.958,4.833 -16.565,3.623 -33.168,8.265 -50.055,10.138 -7.592,0.843 -14.002,-1.895 -20.423,-5.688 -4.995,-2.95 -9.602,-6.2 -15.061,-8.299 -7.364,-2.832 -17.428,-1.067 -25.181,-0.896 -13.788,0.303 -27.567,0.929 -41.334,1.751 -15.292,0.912 -28.394,5.323 -43.016,9.264 -11.072,2.983 -20.955,0.148 -32.117,-0.68 -14.292,-1.061 -28.788,0.575 -42.902,2.704 -21.031,3.173 -41.663,9.245 -62.85,11.324 -17.411,1.709 -35.122,-0.256 -52.586,0.083 -22.961,0.446 -45.804,3.857 -68.595,6.437 -24.741,2.801 -49.485,5.557 -74.154,8.944 -11.991,1.647 -23.961,3.445 -35.922,5.298 -9.373,1.452 -15.964,7.818 -24.97,10.007 -2.242,0.545 -4.863,-0.319 -6.979,-0.873 -6.196,-1.62 -10.704,-2.18 -17.329,-1.05 -13.394,2.285 -26.775,4.64 -40.155,7.006 -25.554,4.521 -51.095,9.122 -76.662,13.569 -12.033,2.093 -24.074,4.136 -36.123,6.13 -9.749,1.613 -19.887,4.507 -29.795,3.184 -8.011,-1.07 -16.226,-4.316 -24.375,-2.961 -4.445,0.74 -8.947,3.143 -13.423,4.176 -5.344,1.233 -10.874,1.804 -16.309,2.489 -15.097,1.902 -29.951,3.173 -45.147,4.197 -19.036,1.283 -35.615,8.975 -53.702,14.497 -8.197,2.502 -16.625,3.21 -25.146,3.638 C 18.071,-6.944 8.742,-7.252 2.591,1.515 1.489,3.085 -1.114,1.588 0,0"
             style="fill:#315409;fill-opacity:1;fill-rule:nonzero;stroke:none"
             id="path8092" /></g><g
           id="g8094"
           transform="translate(711,1305.6665)"><path
             d="M 0,0 C 9.844,9.116 20.667,10 34.667,10 35.333,-4.667 2,-1.333 -8,-5.333 c -4,-1.334 -21.333,-8 -10.667,-14.667 6,-4 14,12 16.667,16.667 0,0 1.287,2.672 2,3.333"
             style="fill:#399947;fill-opacity:1;fill-rule:nonzero;stroke:none"
             id="path8096" /></g><g
           id="g8098"
           transform="translate(712.0605,1304.606)"><path
             d="m 0,0 c 9.589,8.542 21.289,9.527 33.606,9.561 l -1.5,1.5 C 32.146,0.618 13.309,0.397 6.246,-0.314 -2.52,-1.196 -10.406,-2.331 -18.199,-6.695 c -3.026,-1.694 -6.375,-4.245 -6.435,-8.011 -0.055,-3.505 4.491,-6.623 7.681,-6.296 4.013,0.411 6.994,4.815 9.116,7.785 C -4.889,-9.092 -3.15,-3.926 0,0 c 1.198,1.493 -0.91,3.63 -2.121,2.121 -2.137,-2.663 -3.547,-6.054 -5.256,-9.006 -2.066,-3.568 -5.615,-10.712 -10.286,-11.19 -3.714,-0.381 -4.498,4.121 -2.543,6.226 1.638,1.764 4.044,2.908 6.173,3.956 3.228,1.591 6.665,2.766 10.205,3.397 10.181,1.813 38.995,-0.386 38.934,15.557 -0.003,0.815 -0.68,1.502 -1.5,1.5 C 20.427,12.525 8.093,11.22 -2.121,2.121 -3.568,0.832 -1.439,-1.282 0,0"
             style="fill:#315409;fill-opacity:1;fill-rule:nonzero;stroke:none"
             id="path8100" /></g><g
           id="g8102"
           transform="translate(262,1358)"><path
             d="M 0,0 C -1.5,-6.5 1,-23 10.5,-24 24,-25.5 14,-3 9,1.5 5,5 -1,5.5 -3.5,11 -5.5,16 -3,22 1.5,24.5 16,33 -1,9.5 0,3 L 0,0 z"
             style="fill:#399947;fill-opacity:1;fill-rule:nonzero;stroke:none"
             id="path8104" /></g><g
           id="g8106"
           transform="translate(260.5537,1358.3989)"><path
             d="m 0,0 c -1.663,-8.352 0.997,-25.129 11.946,-25.899 11.965,-0.842 7.884,13.421 4.876,19.981 -2.224,4.85 -4.969,8.418 -9.719,10.926 -4.902,2.588 -9.335,5.196 -8.047,11.639 0.528,2.645 2.46,4.753 4.647,6.159 0.33,0.212 3.629,1.658 3.623,1.713 0.43,-4.11 -3.6,-9.733 -5.132,-13.402 -1.676,-4.013 -2.248,-7.232 -2.248,-11.516 0,-1.934 3,-1.934 3,0 0,4.525 0.879,7.837 2.713,12.032 1.737,3.972 4.125,8.079 4.655,12.441 0.407,3.343 -2.867,3.676 -5.224,2.781 -5.86,-2.224 -9.564,-7.39 -9.28,-13.691 0.302,-6.713 7.027,-9.095 11.911,-11.927 4.767,-2.764 7.293,-9.661 8.734,-14.63 0.73,-2.517 1.341,-5.66 0.064,-8.095 -1.852,-3.534 -7.421,-0.606 -9.21,1.224 C 2.914,-15.766 1.712,-6.727 2.893,-0.798 3.269,1.091 0.377,1.896 0,0"
             style="fill:#315409;fill-opacity:1;fill-rule:nonzero;stroke:none"
             id="path8108" /></g><g
           id="g8110"
           transform="translate(998.167,1280.6665)"><path
             d="m 0,0 c -2.333,-0.667 -5.667,0.167 -7.333,1.667 -1.834,1.5 -1.834,3.166 -1.334,5.5 1.167,5 4,8.666 3.834,14.166 0,4.167 -2.667,8.667 -6.834,10.167 -7.166,2.5 -5.833,-6.667 -3,-10.167 3,-3.666 9.178,-6.637 11.334,-11.333 C -2.234,7.605 6.167,1.833 0,0"
             style="fill:#399947;fill-opacity:1;fill-rule:nonzero;stroke:none"
             id="path8112" /></g><g
           id="g8114"
           transform="translate(997.7681,1282.1128)"><path
             d="m 0,0 c -4.514,-0.773 -7.733,1.948 -6.426,6.785 0.625,2.314 1.7,4.522 2.496,6.781 1.181,3.349 1.539,7.5 0.102,10.828 -1.772,4.103 -8.698,11.002 -13.093,5.974 -3.028,-3.466 -0.114,-9.643 2.404,-12.445 C -11.226,14.261 -6.663,12.279 -4.23,7.796 -3.536,6.519 2.609,1.022 0,0 c -1.78,-0.697 -1.006,-3.599 0.798,-2.893 5.377,2.107 2.777,6.28 -0.17,9.496 -2.111,2.304 -3.515,4.999 -5.732,7.222 -3.117,3.127 -7.614,5.136 -9.308,9.444 -0.531,1.352 -0.759,2.889 -0.543,4.328 0.72,4.766 7.33,-2.311 8.02,-3.52 C -3.956,18.857 -7.656,12.573 -9.319,7.583 -11.692,0.463 -6.214,-4.094 0.798,-2.893 2.702,-2.566 1.892,0.324 0,0"
             style="fill:#315409;fill-opacity:1;fill-rule:nonzero;stroke:none"
             id="path8116" /></g><g
           id="g8118"
           transform="translate(1393.1514,1302.7266)"><path
             d="m 0,0 c -2.929,10.667 6.183,12.606 13.516,13.273 5.334,-10.667 -27.333,-19.333 -31.333,-26 -5.333,-8.333 10,-7.333 15,-5.667 6.333,1.667 10,10.667 4.333,16.334 L 0,0 z"
             style="fill:#399947;fill-opacity:1;fill-rule:nonzero;stroke:none"
             id="path8120" /></g><g
           id="g8122"
           transform="translate(1394.5977,1303.1255)"><path
             d="m 0,0 c -0.895,3.842 -0.522,7.022 3.022,9.181 0.634,0.386 7.818,2.842 8.051,2.073 1.318,-4.345 -6.42,-8.405 -9.218,-10.065 -4.71,-2.793 -9.717,-5.061 -14.543,-7.645 -3.221,-1.725 -6.518,-3.553 -8.38,-6.8 -4.992,-8.708 10.017,-8.347 14.401,-7.652 4.514,0.717 8.868,3.215 10.324,7.83 1.772,5.612 -0.594,9.067 -3.808,13.436 -1.133,1.54 -3.739,0.047 -2.59,-1.514 3.047,-4.142 5.593,-7.688 2.598,-12.843 -2.197,-3.782 -7.522,-4.238 -11.417,-4.417 -3.143,-0.144 -9.814,0.456 -6.058,5.008 1.787,2.165 4.857,3.512 7.275,4.807 6.855,3.67 28.58,11.001 23.707,22.232 -0.188,0.435 -0.829,0.789 -1.295,0.744 C 2.828,13.463 -5.389,9.928 -2.893,-0.798 -2.454,-2.682 0.438,-1.882 0,0"
             style="fill:#315409;fill-opacity:1;fill-rule:nonzero;stroke:none"
             id="path8124" /></g><g
           id="g8126"
           transform="translate(1815.667,1362.6665)"><path
             d="m 0,0 c -2.849,4.109 -1.666,8 0.334,13 1.666,3.667 5.666,9.333 7,2.667 1.333,-7.334 -7.667,-17 -9,-24.334 C -3,-15.667 5.667,-32 13,-22 18,-15.667 8.016,-3.739 2.667,-1 2.033,-0.675 0.406,-0.585 0,0"
             style="fill:#399947;fill-opacity:1;fill-rule:nonzero;stroke:none"
             id="path8128" /></g><g
           id="g8130"
           transform="translate(1816.9619,1363.4238)"><path
             d="m 0,0 c -2.433,4.122 -1.173,8.388 0.797,12.436 0.589,1.21 1.361,2.316 2.239,3.335 2.159,2.502 1.072,-5.976 1.261,-5.105 -1.264,-5.85 -5.553,-10.707 -7.648,-16.249 -2.517,-6.659 -0.36,-15.952 5.726,-20.225 6.198,-4.352 12.762,1.956 12.077,8.619 -0.387,3.763 -2.717,7.481 -5.081,10.314 -1.451,1.739 -2.994,3.32 -4.754,4.75 -1.662,1.35 -3.408,1.594 -5.155,2.663 -1.654,1.012 -3.161,-1.583 -1.514,-2.591 1.31,-0.801 2.788,-1.015 4.089,-1.867 2.224,-1.455 4.114,-3.654 5.721,-5.734 3.136,-4.062 6.671,-12.354 -0.444,-14.698 -4.684,-1.544 -7.954,7.886 -8.651,10.887 -1.272,5.48 2.714,10.864 5.171,15.451 1.979,3.695 3.768,7.549 3.83,11.807 0.03,2.076 -1.206,6.257 -4.061,5.649 -2.96,-0.63 -5.002,-4.205 -6.01,-6.8 C -4.345,7.651 -5.436,3.307 -2.59,-1.515 -1.608,-3.179 0.985,-1.67 0,0"
             style="fill:#315409;fill-opacity:1;fill-rule:nonzero;stroke:none"
             id="path8132" /></g><g
           id="g8134"
           transform="translate(87,1389.333)"><path
             d="M 0,0 C 1.667,5.333 10.667,21.667 16.667,15.667 19,13 20.667,5.333 18.333,2.333 16,-1 9.667,-0.667 5.667,-1 2,-1.333 0,-0.667 -2.667,-3 -5,-4.667 -9,-9.667 -10,-12.333 -11.667,-16 -12.333,-23 -7.667,-24.667 c 4.334,-2 5.334,4.667 6.334,8.667 1.333,4 3,9.333 0.666,13.333 L 0,0 z"
             style="fill:#399947;fill-opacity:1;fill-rule:nonzero;stroke:none"
             id="path8136" /></g><g
           id="g8138"
           transform="translate(88.4463,1388.9341)"><path
             d="m 0,0 c 1.49,4.422 4.04,8.684 7.018,12.256 1.626,1.95 5.116,5.44 7.432,2.353 1.917,-2.555 2.425,-6.767 1.796,-9.797 -1.175,-5.663 -14.399,-3.42 -18.581,-4.608 -4.293,-1.219 -8.008,-6.881 -10.021,-10.517 -1.896,-3.423 -2.401,-7.864 -1.123,-11.553 0.968,-2.792 4.92,-5.436 7.8,-3.749 3.727,2.183 4.126,8.774 5.237,12.45 0.769,2.547 1.463,5.831 0.786,8.461 C -0.2,-2.591 -0.54,-2.161 0,0 c 0.469,1.877 -2.424,2.674 -2.893,0.798 -0.24,-0.962 -0.72,-2.065 -0.72,-3.066 0,-1.206 1.15,-4.236 1.16,-4.345 0.24,-2.414 -0.633,-4.929 -1.322,-7.21 -0.864,-2.859 -1.143,-6.511 -3.053,-8.915 -2.378,-2.992 -4.292,3.658 -4.361,4.448 -0.149,1.719 0.309,3.437 0.824,5.056 0.881,2.763 3.013,5.208 4.889,7.325 2.809,3.171 5.705,3.556 9.696,3.808 4.687,0.296 10.332,-0.045 13.728,3.773 4.081,4.587 0.898,17.493 -6.17,17.161 C 4.549,18.495 -0.966,6.517 -2.893,0.798 -3.512,-1.041 -0.614,-1.823 0,0"
             style="fill:#315409;fill-opacity:1;fill-rule:nonzero;stroke:none"
             id="path8140" /></g><g
           id="g8142"
           transform="translate(581.4595,1311.7417)"><path
             d="m 0,0 c 0,4.5 -2.459,17.258 8.041,13.258 6.5,-2.5 -5,-11 -8,-14.5 -3,-4 -10,-13 -1.5,-15 10,-2 3.5,11 2,15.5 L 0,0 z"
             style="fill:#399947;fill-opacity:1;fill-rule:nonzero;stroke:none"
             id="path8144" /></g><g
           id="g8146"
           transform="translate(582.9595,1311.7417)"><path
             d="m 0,0 c -0.056,3.011 -0.491,6.02 -0.048,9.023 0.425,2.89 2.197,3.836 4.991,3.19 4.328,-1.001 -0.026,-4.95 -1.328,-6.341 -4.86,-5.194 -11.2,-10.054 -12.133,-17.653 -0.717,-5.847 8.818,-8.314 11.845,-3.886 2.578,3.772 -1.196,13.219 -3.532,16.424 -1.127,1.547 -3.732,0.052 -2.59,-1.514 1.646,-2.258 2.444,-5.707 3.213,-8.36 0.451,-1.553 0.782,-3.207 0.412,-4.808 -0.489,-2.11 -4.347,-0.601 -5.224,-0.171 -2.106,1.032 -0.816,3.952 -0.231,5.281 3.143,7.14 10.624,10.69 14.052,17.462 2.614,5.164 -5.27,8.692 -9.177,6.236 C -4.6,11.836 -3.09,4.797 -3,0 -2.964,-1.932 0.036,-1.936 0,0"
             style="fill:#315409;fill-opacity:1;fill-rule:nonzero;stroke:none"
             id="path8148" /></g><g
           id="g8150"
           transform="translate(1248.667,1297.6665)"><path
             d="M 0,0 C -3.333,3 -7,10.667 -0.333,12.333 5.333,5 -2,-6.333 -1.333,-14.333 4.667,-14.667 6.333,-5.667 3,-2 L 0,0 z"
             style="fill:#399947;fill-opacity:1;fill-rule:nonzero;stroke:none"
             id="path8152" /></g><g
           id="g8154"
           transform="translate(1249.7275,1298.7271)"><path
             d="m 0,0 c -2.372,2.328 -6.229,8.068 -0.995,9.827 -0.565,0.229 -1.129,0.459 -1.693,0.689 5.205,-7.731 -1.517,-17.499 -1.206,-25.91 0.03,-0.794 0.661,-1.528 1.5,-1.5 4.238,0.147 7.159,3.394 7.455,7.615 0.338,4.83 -1.64,7.031 -5.365,9.514 -1.614,1.076 -3.115,-1.524 -1.513,-2.591 1.57,-1.047 2.909,-1.623 3.611,-3.462 1.228,-3.215 -0.336,-7.942 -4.188,-8.076 l 1.5,-1.5 c -0.338,9.157 6.582,18.83 0.795,27.424 -0.362,0.538 -1.031,0.912 -1.693,0.689 C -9.269,10.208 -6.518,2.193 -2.121,-2.121 -0.74,-3.477 1.383,-1.356 0,0"
             style="fill:#315409;fill-opacity:1;fill-rule:nonzero;stroke:none"
             id="path8156" /></g></g></g></g></svg>